<?xml version="1.0" encoding="UTF-8" standalone="no"?>
<!DOCTYPE svg PUBLIC "-//W3C//DTD SVG 1.1//EN"
 "http://www.w3.org/Graphics/SVG/1.1/DTD/svg11.dtd">
<!-- Generated by graphviz version 2.40.1 (20161225.0304)
 -->
<!-- Title: depend Pages: 1 -->
<svg width="2195pt" height="1268pt"
 viewBox="0.00 0.00 2194.50 1268.00" xmlns="http://www.w3.org/2000/svg" xmlns:xlink="http://www.w3.org/1999/xlink">
<g id="graph0" class="graph" transform="scale(1 1) rotate(0) translate(4 1264)">
<title>depend</title>
<!-- Ccpo -->
<g id="node1" class="node">
<title>Ccpo</title>
<g id="a_node1"><a xlink:href="ALEA.Ccpo.html" xlink:title="Ccpo">
<polygon fill="#dbc3b6" stroke="#dbc3b6" points="2186.5,-252 2131.5,-252 2131.5,-216 2186.5,-216 2186.5,-252"/>
<text text-anchor="middle" x="2159" y="-229.6" font-family="Times,serif" font-size="18.00" fill="#000000">Ccpo</text>
</a>
</g>
</g>
<!-- Misc -->
<g id="node2" class="node">
<title>Misc</title>
<g id="a_node2"><a xlink:href="ALEA.Misc.html" xlink:title="Misc">
<polygon fill="#dbc3b6" stroke="#dbc3b6" points="2059,-252 2005,-252 2005,-216 2059,-216 2059,-252"/>
<text text-anchor="middle" x="2032" y="-229.6" font-family="Times,serif" font-size="18.00" fill="#000000">Misc</text>
</a>
</g>
</g>
<!-- Qmeasure -->
<g id="node3" class="node">
<title>Qmeasure</title>
<g id="a_node3"><a xlink:href="ALEA.Qmeasure.html" xlink:title="Qmeasure">
<polygon fill="#dbc3b6" stroke="#dbc3b6" points="2077,-324 1987,-324 1987,-288 2077,-288 2077,-324"/>
<text text-anchor="middle" x="2032" y="-301.6" font-family="Times,serif" font-size="18.00" fill="#000000">Qmeasure</text>
</a>
</g>
</g>
<!-- Qmeasure&#45;&gt;Ccpo -->
<g id="edge1" class="edge">
<title>Qmeasure&#45;&gt;Ccpo</title>
<path fill="none" stroke="#000000" d="M2064.0475,-287.8314C2081.8553,-277.7356 2104.0784,-265.1367 2122.5473,-254.6661"/>
<polygon fill="#000000" stroke="#000000" points="2124.3034,-257.6939 2131.2764,-249.7173 2120.851,-251.6045 2124.3034,-257.6939"/>
</g>
<!-- Qmeasure&#45;&gt;Misc -->
<g id="edge2" class="edge">
<title>Qmeasure&#45;&gt;Misc</title>
<path fill="none" stroke="#000000" d="M2032,-287.8314C2032,-280.131 2032,-270.9743 2032,-262.4166"/>
<polygon fill="#000000" stroke="#000000" points="2035.5001,-262.4132 2032,-252.4133 2028.5001,-262.4133 2035.5001,-262.4132"/>
</g>
<!-- combclass -->
<g id="node4" class="node">
<title>combclass</title>
<g id="a_node4"><a xlink:href="Combi.Basic.combclass.html" xlink:title="combclass">
<polygon fill="#dbc3b6" stroke="#dbc3b6" points="1311,-108 1219,-108 1219,-72 1311,-72 1311,-108"/>
<text text-anchor="middle" x="1265" y="-85.6" font-family="Times,serif" font-size="18.00" fill="#000000">combclass</text>
</a>
</g>
</g>
<!-- tools -->
<g id="node45" class="node">
<title>tools</title>
<g id="a_node45"><a xlink:href="Combi.SSRcomplements.tools.html" xlink:title="tools">
<polygon fill="#dbc3b6" stroke="#dbc3b6" points="545,-36 491,-36 491,0 545,0 545,-36"/>
<text text-anchor="middle" x="518" y="-13.6" font-family="Times,serif" font-size="18.00" fill="#000000">tools</text>
</a>
</g>
</g>
<!-- combclass&#45;&gt;tools -->
<g id="edge29" class="edge">
<title>combclass&#45;&gt;tools</title>
<path fill="none" stroke="#000000" d="M1218.8355,-85.5504C1081.9118,-72.3529 679.8498,-33.6 555.2508,-21.5904"/>
<polygon fill="#000000" stroke="#000000" points="555.3665,-18.0855 545.0768,-20.6098 554.6948,-25.0532 555.3665,-18.0855"/>
</g>
<!-- congr -->
<g id="node5" class="node">
<title>congr</title>
<g id="a_node5"><a xlink:href="Combi.Basic.congr.html" xlink:title="congr">
<polygon fill="#dbc3b6" stroke="#dbc3b6" points="547,-396 489,-396 489,-360 547,-360 547,-396"/>
<text text-anchor="middle" x="518" y="-373.6" font-family="Times,serif" font-size="18.00" fill="#000000">congr</text>
</a>
</g>
</g>
<!-- permuted -->
<g id="node15" class="node">
<title>permuted</title>
<g id="a_node15"><a xlink:href="Combi.Combi.permuted.html" xlink:title="permuted">
<polygon fill="#dbc3b6" stroke="#dbc3b6" points="407,-324 321,-324 321,-288 407,-288 407,-324"/>
<text text-anchor="middle" x="364" y="-301.6" font-family="Times,serif" font-size="18.00" fill="#000000">permuted</text>
</a>
</g>
</g>
<!-- congr&#45;&gt;permuted -->
<g id="edge27" class="edge">
<title>congr&#45;&gt;permuted</title>
<path fill="none" stroke="#000000" d="M488.6713,-364.2879C467.0041,-354.1577 437.0341,-340.1458 411.9089,-328.399"/>
<polygon fill="#000000" stroke="#000000" points="413.0852,-325.0854 402.544,-324.0206 410.1205,-331.4265 413.0852,-325.0854"/>
</g>
<!-- vectNK -->
<g id="node21" class="node">
<title>vectNK</title>
<g id="a_node21"><a xlink:href="Combi.Combi.vectNK.html" xlink:title="vectNK">
<polygon fill="#dbc3b6" stroke="#dbc3b6" points="554.5,-108 481.5,-108 481.5,-72 554.5,-72 554.5,-108"/>
<text text-anchor="middle" x="518" y="-85.6" font-family="Times,serif" font-size="18.00" fill="#000000">vectNK</text>
</a>
</g>
</g>
<!-- congr&#45;&gt;vectNK -->
<g id="edge28" class="edge">
<title>congr&#45;&gt;vectNK</title>
<path fill="none" stroke="#000000" d="M518,-359.9843C518,-311.2939 518,-176.7961 518,-118.0573"/>
<polygon fill="#000000" stroke="#000000" points="521.5001,-118.0088 518,-108.0089 514.5001,-118.0089 521.5001,-118.0088"/>
</g>
<!-- ordtype -->
<g id="node6" class="node">
<title>ordtype</title>
<g id="a_node6"><a xlink:href="Combi.Basic.ordtype.html" xlink:title="ordtype">
<polygon fill="#dbc3b6" stroke="#dbc3b6" points="857,-108 785,-108 785,-72 857,-72 857,-108"/>
<text text-anchor="middle" x="821" y="-85.6" font-family="Times,serif" font-size="18.00" fill="#000000">ordtype</text>
</a>
</g>
</g>
<!-- ordtype&#45;&gt;tools -->
<g id="edge26" class="edge">
<title>ordtype&#45;&gt;tools</title>
<path fill="none" stroke="#000000" d="M784.7521,-81.3866C726.8119,-67.6187 613.9094,-40.7903 555.3071,-26.8651"/>
<polygon fill="#000000" stroke="#000000" points="555.9006,-23.4087 545.3624,-24.5019 554.2823,-30.2191 555.9006,-23.4087"/>
</g>
<!-- unitriginv -->
<g id="node7" class="node">
<title>unitriginv</title>
<g id="a_node7"><a xlink:href="Combi.Basic.unitriginv.html" xlink:title="unitriginv">
<polygon fill="#dbc3b6" stroke="#dbc3b6" points="761.5,-900 672.5,-900 672.5,-864 761.5,-864 761.5,-900"/>
<text text-anchor="middle" x="717" y="-877.6" font-family="Times,serif" font-size="18.00" fill="#000000">unitriginv</text>
</a>
</g>
</g>
<!-- unitriginv&#45;&gt;ordtype -->
<g id="edge25" class="edge">
<title>unitriginv&#45;&gt;ordtype</title>
<path fill="none" stroke="#000000" d="M717,-863.8146C717,-836.4983 717,-783.25 717,-738 717,-738 717,-738 717,-522 717,-353.765 652.5096,-289.4799 737,-144 745.7966,-128.8535 760.7331,-117.2517 775.5931,-108.7558"/>
<polygon fill="#000000" stroke="#000000" points="777.5989,-111.6531 784.7802,-103.8633 774.3085,-105.4746 777.5989,-111.6531"/>
</g>
<!-- Dyckword -->
<g id="node8" class="node">
<title>Dyckword</title>
<g id="a_node8"><a xlink:href="Combi.Combi.Dyckword.html" xlink:title="Dyckword">
<polygon fill="#dbc3b6" stroke="#dbc3b6" points="991,-252 899,-252 899,-216 991,-216 991,-252"/>
<text text-anchor="middle" x="945" y="-229.6" font-family="Times,serif" font-size="18.00" fill="#000000">Dyckword</text>
</a>
</g>
</g>
<!-- bintree -->
<g id="node10" class="node">
<title>bintree</title>
<g id="a_node10"><a xlink:href="Combi.Combi.bintree.html" xlink:title="bintree">
<polygon fill="#dbc3b6" stroke="#dbc3b6" points="1301,-180 1233,-180 1233,-144 1301,-144 1301,-180"/>
<text text-anchor="middle" x="1267" y="-157.6" font-family="Times,serif" font-size="18.00" fill="#000000">bintree</text>
</a>
</g>
</g>
<!-- Dyckword&#45;&gt;bintree -->
<g id="edge74" class="edge">
<title>Dyckword&#45;&gt;bintree</title>
<path fill="none" stroke="#000000" d="M991.1347,-223.6842C1052.9447,-209.8633 1161.8845,-185.5041 1222.7296,-171.899"/>
<polygon fill="#000000" stroke="#000000" points="1223.7929,-175.2477 1232.7881,-169.6499 1222.2653,-168.4164 1223.7929,-175.2477"/>
</g>
<!-- Yamanouchi -->
<g id="node9" class="node">
<title>Yamanouchi</title>
<g id="a_node9"><a xlink:href="Combi.Combi.Yamanouchi.html" xlink:title="Yamanouchi">
<polygon fill="#dbc3b6" stroke="#dbc3b6" points="1499,-252 1389,-252 1389,-216 1499,-216 1499,-252"/>
<text text-anchor="middle" x="1444" y="-229.6" font-family="Times,serif" font-size="18.00" fill="#000000">Yamanouchi</text>
</a>
</g>
</g>
<!-- partition -->
<g id="node14" class="node">
<title>partition</title>
<g id="a_node14"><a xlink:href="Combi.Combi.partition.html" xlink:title="partition">
<polygon fill="#dbc3b6" stroke="#dbc3b6" points="1452.5,-180 1373.5,-180 1373.5,-144 1452.5,-144 1452.5,-180"/>
<text text-anchor="middle" x="1413" y="-157.6" font-family="Times,serif" font-size="18.00" fill="#000000">partition</text>
</a>
</g>
</g>
<!-- Yamanouchi&#45;&gt;partition -->
<g id="edge55" class="edge">
<title>Yamanouchi&#45;&gt;partition</title>
<path fill="none" stroke="#000000" d="M1436.1774,-215.8314C1432.7891,-207.9617 1428.7459,-198.5712 1424.9924,-189.8533"/>
<polygon fill="#000000" stroke="#000000" points="1428.0973,-188.214 1420.9279,-180.4133 1421.6679,-190.9822 1428.0973,-188.214"/>
</g>
<!-- bintree&#45;&gt;combclass -->
<g id="edge76" class="edge">
<title>bintree&#45;&gt;combclass</title>
<path fill="none" stroke="#000000" d="M1266.4953,-143.8314C1266.2814,-136.131 1266.0271,-126.9743 1265.7894,-118.4166"/>
<polygon fill="#000000" stroke="#000000" points="1269.2879,-118.3122 1265.5115,-108.4133 1262.2906,-118.5066 1269.2879,-118.3122"/>
</g>
<!-- composition -->
<g id="node11" class="node">
<title>composition</title>
<g id="a_node11"><a xlink:href="Combi.Combi.composition.html" xlink:title="composition">
<polygon fill="#dbc3b6" stroke="#dbc3b6" points="1170.5,-252 1063.5,-252 1063.5,-216 1170.5,-216 1170.5,-252"/>
<text text-anchor="middle" x="1117" y="-229.6" font-family="Times,serif" font-size="18.00" fill="#000000">composition</text>
</a>
</g>
</g>
<!-- composition&#45;&gt;partition -->
<g id="edge75" class="edge">
<title>composition&#45;&gt;partition</title>
<path fill="none" stroke="#000000" d="M1170.6034,-220.9613C1225.3828,-207.6366 1309.7738,-187.1091 1363.1506,-174.1255"/>
<polygon fill="#000000" stroke="#000000" points="1364.1787,-177.4776 1373.0681,-171.7132 1362.5242,-170.6759 1364.1787,-177.4776"/>
</g>
<!-- fibered_set -->
<g id="node12" class="node">
<title>fibered_set</title>
<g id="a_node12"><a xlink:href="Combi.Combi.fibered_set.html" xlink:title="fibered_set">
<polygon fill="#dbc3b6" stroke="#dbc3b6" points="417,-396 319,-396 319,-360 417,-360 417,-396"/>
<text text-anchor="middle" x="368" y="-373.6" font-family="Times,serif" font-size="18.00" fill="#000000">fibered_set</text>
</a>
</g>
</g>
<!-- multinomial -->
<g id="node13" class="node">
<title>multinomial</title>
<g id="a_node13"><a xlink:href="Combi.Combi.multinomial.html" xlink:title="multinomial">
<polygon fill="#dbc3b6" stroke="#dbc3b6" points="408.5,-180 301.5,-180 301.5,-144 408.5,-144 408.5,-180"/>
<text text-anchor="middle" x="355" y="-157.6" font-family="Times,serif" font-size="18.00" fill="#000000">multinomial</text>
</a>
</g>
</g>
<!-- multinomial&#45;&gt;tools -->
<g id="edge67" class="edge">
<title>multinomial&#45;&gt;tools</title>
<path fill="none" stroke="#000000" d="M371.5223,-143.9587C389.0427,-125.1993 417.8795,-95.365 445,-72 457.0328,-61.6335 470.9011,-51.0627 483.2964,-42.0541"/>
<polygon fill="#000000" stroke="#000000" points="485.5216,-44.7652 491.6019,-36.0887 481.438,-39.0798 485.5216,-44.7652"/>
</g>
<!-- partition&#45;&gt;combclass -->
<g id="edge71" class="edge">
<title>partition&#45;&gt;combclass</title>
<path fill="none" stroke="#000000" d="M1375.6534,-143.8314C1356.1231,-134.3302 1332.0359,-122.6121 1311.3269,-112.5374"/>
<polygon fill="#000000" stroke="#000000" points="1312.6016,-109.2654 1302.0781,-108.038 1309.5393,-115.56 1312.6016,-109.2654"/>
</g>
<!-- partition&#45;&gt;ordtype -->
<g id="edge72" class="edge">
<title>partition&#45;&gt;ordtype</title>
<path fill="none" stroke="#000000" d="M1373.3589,-151.5964C1361.7078,-148.8147 1348.8972,-146.0228 1337,-144 1165.0998,-114.7727 958.1163,-98.8697 867.406,-92.8524"/>
<polygon fill="#000000" stroke="#000000" points="867.3946,-89.3443 857.1875,-92.184 866.9376,-96.3294 867.3946,-89.3443"/>
</g>
<!-- sorted -->
<g id="node44" class="node">
<title>sorted</title>
<g id="a_node44"><a xlink:href="Combi.SSRcomplements.sorted.html" xlink:title="sorted">
<polygon fill="#dbc3b6" stroke="#dbc3b6" points="1444.5,-108 1383.5,-108 1383.5,-72 1444.5,-72 1444.5,-108"/>
<text text-anchor="middle" x="1414" y="-85.6" font-family="Times,serif" font-size="18.00" fill="#000000">sorted</text>
</a>
</g>
</g>
<!-- partition&#45;&gt;sorted -->
<g id="edge73" class="edge">
<title>partition&#45;&gt;sorted</title>
<path fill="none" stroke="#000000" d="M1413.2523,-143.8314C1413.3593,-136.131 1413.4865,-126.9743 1413.6053,-118.4166"/>
<polygon fill="#000000" stroke="#000000" points="1417.1049,-118.4609 1413.7443,-108.4133 1410.1056,-118.3637 1417.1049,-118.4609"/>
</g>
<!-- permuted&#45;&gt;composition -->
<g id="edge68" class="edge">
<title>permuted&#45;&gt;composition</title>
<path fill="none" stroke="#000000" d="M407.2408,-304.2189C513.284,-299.4731 794.5508,-284.5989 1027,-252 1035.5989,-250.7941 1044.6149,-249.286 1053.4808,-247.659"/>
<polygon fill="#000000" stroke="#000000" points="1054.2226,-251.0808 1063.3968,-245.7813 1052.9202,-244.203 1054.2226,-251.0808"/>
</g>
<!-- permuted&#45;&gt;multinomial -->
<g id="edge69" class="edge">
<title>permuted&#45;&gt;multinomial</title>
<path fill="none" stroke="#000000" d="M362.8601,-287.7623C361.3251,-263.201 358.578,-219.2474 356.7721,-190.3541"/>
<polygon fill="#000000" stroke="#000000" points="360.2477,-189.8518 356.1306,-180.0896 353.2613,-190.2885 360.2477,-189.8518"/>
</g>
<!-- cycles -->
<g id="node47" class="node">
<title>cycles</title>
<g id="a_node47"><a xlink:href="Combi.SymGroup.cycles.html" xlink:title="cycles">
<polygon fill="#dbc3b6" stroke="#dbc3b6" points="245,-252 183,-252 183,-216 245,-216 245,-252"/>
<text text-anchor="middle" x="214" y="-229.6" font-family="Times,serif" font-size="18.00" fill="#000000">cycles</text>
</a>
</g>
</g>
<!-- permuted&#45;&gt;cycles -->
<g id="edge70" class="edge">
<title>permuted&#45;&gt;cycles</title>
<path fill="none" stroke="#000000" d="M326.1487,-287.8314C304.2777,-277.3333 276.7681,-264.1287 254.4686,-253.4249"/>
<polygon fill="#000000" stroke="#000000" points="255.7921,-250.178 245.2623,-249.0059 252.763,-256.4886 255.7921,-250.178"/>
</g>
<!-- skewtab -->
<g id="node16" class="node">
<title>skewtab</title>
<g id="a_node16"><a xlink:href="Combi.Combi.skewtab.html" xlink:title="skewtab">
<polygon fill="#dbc3b6" stroke="#dbc3b6" points="1415,-828 1339,-828 1339,-792 1415,-792 1415,-828"/>
<text text-anchor="middle" x="1377" y="-805.6" font-family="Times,serif" font-size="18.00" fill="#000000">skewtab</text>
</a>
</g>
</g>
<!-- stdtab -->
<g id="node18" class="node">
<title>stdtab</title>
<g id="a_node18"><a xlink:href="Combi.Combi.stdtab.html" xlink:title="stdtab">
<polygon fill="#dbc3b6" stroke="#dbc3b6" points="1512,-324 1452,-324 1452,-288 1512,-288 1512,-324"/>
<text text-anchor="middle" x="1482" y="-301.6" font-family="Times,serif" font-size="18.00" fill="#000000">stdtab</text>
</a>
</g>
</g>
<!-- skewtab&#45;&gt;stdtab -->
<g id="edge66" class="edge">
<title>skewtab&#45;&gt;stdtab</title>
<path fill="none" stroke="#000000" d="M1402.1501,-791.9248C1433.2134,-767.2843 1482,-719.9908 1482,-666 1482,-666 1482,-666 1482,-450 1482,-409.876 1482,-363.4631 1482,-334.4177"/>
<polygon fill="#000000" stroke="#000000" points="1485.5001,-334.1853 1482,-324.1854 1478.5001,-334.1854 1485.5001,-334.1853"/>
</g>
<!-- std -->
<g id="node17" class="node">
<title>std</title>
<g id="a_node17"><a xlink:href="Combi.Combi.std.html" xlink:title="std">
<polygon fill="#dbc3b6" stroke="#dbc3b6" points="827,-252 773,-252 773,-216 827,-216 827,-252"/>
<text text-anchor="middle" x="800" y="-229.6" font-family="Times,serif" font-size="18.00" fill="#000000">std</text>
</a>
</g>
</g>
<!-- std&#45;&gt;combclass -->
<g id="edge63" class="edge">
<title>std&#45;&gt;combclass</title>
<path fill="none" stroke="#000000" d="M827.0103,-225.6355C901.1068,-202.6895 1108.7141,-138.3982 1209.1633,-107.2914"/>
<polygon fill="#000000" stroke="#000000" points="1210.3157,-110.5986 1218.8327,-104.297 1208.2449,-103.9119 1210.3157,-110.5986"/>
</g>
<!-- std&#45;&gt;ordtype -->
<g id="edge64" class="edge">
<title>std&#45;&gt;ordtype</title>
<path fill="none" stroke="#000000" d="M827.4424,-228.3442C852.5424,-221.558 888.2363,-207.472 905,-180 913.3342,-166.342 912.667,-158.0434 905,-144 896.4581,-128.3541 881.2272,-116.5653 866.0585,-108.0591"/>
<polygon fill="#000000" stroke="#000000" points="867.6698,-104.9521 857.1855,-103.4257 864.4297,-111.157 867.6698,-104.9521"/>
</g>
<!-- permcomp -->
<g id="node43" class="node">
<title>permcomp</title>
<g id="a_node43"><a xlink:href="Combi.SSRcomplements.permcomp.html" xlink:title="permcomp">
<polygon fill="#dbc3b6" stroke="#dbc3b6" points="868.5,-180 773.5,-180 773.5,-144 868.5,-144 868.5,-180"/>
<text text-anchor="middle" x="821" y="-157.6" font-family="Times,serif" font-size="18.00" fill="#000000">permcomp</text>
</a>
</g>
</g>
<!-- std&#45;&gt;permcomp -->
<g id="edge65" class="edge">
<title>std&#45;&gt;permcomp</title>
<path fill="none" stroke="#000000" d="M805.2992,-215.8314C807.5698,-208.0463 810.2746,-198.7729 812.794,-190.1347"/>
<polygon fill="#000000" stroke="#000000" points="816.1894,-190.9933 815.6295,-180.4133 809.4694,-189.0332 816.1894,-190.9933"/>
</g>
<!-- stdtab&#45;&gt;Yamanouchi -->
<g id="edge60" class="edge">
<title>stdtab&#45;&gt;Yamanouchi</title>
<path fill="none" stroke="#000000" d="M1472.411,-287.8314C1468.1683,-279.7925 1463.0879,-270.1666 1458.404,-261.2918"/>
<polygon fill="#000000" stroke="#000000" points="1461.4811,-259.6235 1453.7181,-252.4133 1455.2904,-262.8908 1461.4811,-259.6235"/>
</g>
<!-- stdtab&#45;&gt;std -->
<g id="edge61" class="edge">
<title>stdtab&#45;&gt;std</title>
<path fill="none" stroke="#000000" d="M1451.7724,-305.4056C1361.5458,-303.1959 1086.5612,-293.2956 863,-252 854.3973,-250.4109 845.2777,-248.1521 836.7281,-245.7694"/>
<polygon fill="#000000" stroke="#000000" points="837.598,-242.3775 827.0186,-242.9481 835.6448,-249.0995 837.598,-242.3775"/>
</g>
<!-- tableau -->
<g id="node20" class="node">
<title>tableau</title>
<g id="a_node20"><a xlink:href="Combi.Combi.tableau.html" xlink:title="tableau">
<polygon fill="#dbc3b6" stroke="#dbc3b6" points="1641,-252 1571,-252 1571,-216 1641,-216 1641,-252"/>
<text text-anchor="middle" x="1606" y="-229.6" font-family="Times,serif" font-size="18.00" fill="#000000">tableau</text>
</a>
</g>
</g>
<!-- stdtab&#45;&gt;tableau -->
<g id="edge62" class="edge">
<title>stdtab&#45;&gt;tableau</title>
<path fill="none" stroke="#000000" d="M1512.0169,-288.5708C1528.2527,-279.1436 1548.5179,-267.3767 1566.0693,-257.1855"/>
<polygon fill="#000000" stroke="#000000" points="1568.0741,-260.0688 1574.9645,-252.0206 1564.5591,-254.0152 1568.0741,-260.0688"/>
</g>
<!-- subseq -->
<g id="node19" class="node">
<title>subseq</title>
<g id="a_node19"><a xlink:href="Combi.Combi.subseq.html" xlink:title="subseq">
<polygon fill="#dbc3b6" stroke="#dbc3b6" points="1797.5,-324 1732.5,-324 1732.5,-288 1797.5,-288 1797.5,-324"/>
<text text-anchor="middle" x="1765" y="-301.6" font-family="Times,serif" font-size="18.00" fill="#000000">subseq</text>
</a>
</g>
</g>
<!-- subseq&#45;&gt;combclass -->
<g id="edge58" class="edge">
<title>subseq&#45;&gt;combclass</title>
<path fill="none" stroke="#000000" d="M1751.2603,-287.835C1735.32,-267.846 1707.3197,-235.9162 1677,-216 1602.2171,-166.8772 1574.4469,-170.5398 1489,-144 1458.1607,-134.4213 1377.1257,-115.4465 1321.4749,-102.737"/>
<polygon fill="#000000" stroke="#000000" points="1321.9246,-99.2499 1311.3969,-100.4405 1320.3693,-106.0749 1321.9246,-99.2499"/>
</g>
<!-- subseq&#45;&gt;sorted -->
<g id="edge59" class="edge">
<title>subseq&#45;&gt;sorted</title>
<path fill="none" stroke="#000000" d="M1783.1576,-287.7286C1791.549,-277.9911 1800.6123,-265.2949 1805,-252 1820.0433,-206.4182 1836.534,-180.1884 1805,-144 1782.1919,-117.8255 1550.4733,-99.252 1454.8896,-92.6476"/>
<polygon fill="#000000" stroke="#000000" points="1454.947,-89.1435 1444.7322,-91.9556 1454.4712,-96.1273 1454.947,-89.1435"/>
</g>
<!-- tableau&#45;&gt;partition -->
<g id="edge57" class="edge">
<title>tableau&#45;&gt;partition</title>
<path fill="none" stroke="#000000" d="M1570.6008,-220.7941C1540.2927,-209.4874 1496.3244,-193.0848 1462.5252,-180.4757"/>
<polygon fill="#000000" stroke="#000000" points="1463.4287,-177.0772 1452.8361,-176.8611 1460.982,-183.6357 1463.4287,-177.0772"/>
</g>
<!-- vectNK&#45;&gt;tools -->
<g id="edge56" class="edge">
<title>vectNK&#45;&gt;tools</title>
<path fill="none" stroke="#000000" d="M518,-71.8314C518,-64.131 518,-54.9743 518,-46.4166"/>
<polygon fill="#000000" stroke="#000000" points="521.5001,-46.4132 518,-36.4133 514.5001,-46.4133 521.5001,-46.4132"/>
</g>
<!-- Erdos_Szekeres -->
<g id="node22" class="node">
<title>Erdos_Szekeres</title>
<g id="a_node22"><a xlink:href="Combi.Erdos_Szekeres.Erdos_Szekeres.html" xlink:title="Erdos_Szekeres">
<polygon fill="#dbc3b6" stroke="#dbc3b6" points="498,-684 366,-684 366,-648 498,-648 498,-684"/>
<text text-anchor="middle" x="432" y="-661.6" font-family="Times,serif" font-size="18.00" fill="#000000">Erdos_Szekeres</text>
</a>
</g>
</g>
<!-- Greene_inv -->
<g id="node26" class="node">
<title>Greene_inv</title>
<g id="a_node26"><a xlink:href="Combi.LRrule.Greene_inv.html" xlink:title="Greene_inv">
<polygon fill="#dbc3b6" stroke="#dbc3b6" points="482.5,-612 381.5,-612 381.5,-576 482.5,-576 482.5,-612"/>
<text text-anchor="middle" x="432" y="-589.6" font-family="Times,serif" font-size="18.00" fill="#000000">Greene_inv</text>
</a>
</g>
</g>
<!-- Erdos_Szekeres&#45;&gt;Greene_inv -->
<g id="edge54" class="edge">
<title>Erdos_Szekeres&#45;&gt;Greene_inv</title>
<path fill="none" stroke="#000000" d="M432,-647.8314C432,-640.131 432,-630.9743 432,-622.4166"/>
<polygon fill="#000000" stroke="#000000" points="435.5001,-622.4132 432,-612.4133 428.5001,-622.4133 435.5001,-622.4132"/>
</g>
<!-- Frobenius_ident -->
<g id="node23" class="node">
<title>Frobenius_ident</title>
<g id="a_node23"><a xlink:href="Combi.HookFormula.Frobenius_ident.html" xlink:title="Frobenius_ident">
<polygon fill="#dbc3b6" stroke="#dbc3b6" points="1786,-468 1652,-468 1652,-432 1786,-432 1786,-468"/>
<text text-anchor="middle" x="1719" y="-445.6" font-family="Times,serif" font-size="18.00" fill="#000000">Frobenius_ident</text>
</a>
</g>
</g>
<!-- hook -->
<g id="node24" class="node">
<title>hook</title>
<g id="a_node24"><a xlink:href="Combi.HookFormula.hook.html" xlink:title="hook">
<polygon fill="#dbc3b6" stroke="#dbc3b6" points="1807,-396 1753,-396 1753,-360 1807,-360 1807,-396"/>
<text text-anchor="middle" x="1780" y="-373.6" font-family="Times,serif" font-size="18.00" fill="#000000">hook</text>
</a>
</g>
</g>
<!-- Frobenius_ident&#45;&gt;hook -->
<g id="edge33" class="edge">
<title>Frobenius_ident&#45;&gt;hook</title>
<path fill="none" stroke="#000000" d="M1734.3929,-431.8314C1741.4904,-423.454 1750.048,-413.3531 1757.824,-404.1749"/>
<polygon fill="#000000" stroke="#000000" points="1760.6061,-406.3056 1764.3999,-396.4133 1755.2652,-401.7807 1760.6061,-406.3056"/>
</g>
<!-- Schensted -->
<g id="node27" class="node">
<title>Schensted</title>
<g id="a_node27"><a xlink:href="Combi.LRrule.Schensted.html" xlink:title="Schensted">
<polygon fill="#dbc3b6" stroke="#dbc3b6" points="1681,-396 1591,-396 1591,-360 1681,-360 1681,-396"/>
<text text-anchor="middle" x="1636" y="-373.6" font-family="Times,serif" font-size="18.00" fill="#000000">Schensted</text>
</a>
</g>
</g>
<!-- Frobenius_ident&#45;&gt;Schensted -->
<g id="edge34" class="edge">
<title>Frobenius_ident&#45;&gt;Schensted</title>
<path fill="none" stroke="#000000" d="M1698.0556,-431.8314C1687.9309,-423.0485 1675.6223,-412.3712 1664.6452,-402.8489"/>
<polygon fill="#000000" stroke="#000000" points="1666.7851,-400.0718 1656.9377,-396.1628 1662.1981,-405.3595 1666.7851,-400.0718"/>
</g>
<!-- hook&#45;&gt;Qmeasure -->
<g id="edge30" class="edge">
<title>hook&#45;&gt;Qmeasure</title>
<path fill="none" stroke="#000000" d="M1807.4481,-370.1577C1847.9542,-358.5845 1924.5872,-336.6894 1976.9564,-321.7267"/>
<polygon fill="#000000" stroke="#000000" points="1978.1097,-325.0374 1986.7634,-318.9248 1976.1866,-318.3067 1978.1097,-325.0374"/>
</g>
<!-- hook&#45;&gt;stdtab -->
<g id="edge31" class="edge">
<title>hook&#45;&gt;stdtab</title>
<path fill="none" stroke="#000000" d="M1752.7963,-369.8903C1741.7265,-366.6784 1728.7868,-363.0358 1717,-360 1648.9723,-342.4787 1569.1537,-324.725 1522.2324,-314.5722"/>
<polygon fill="#000000" stroke="#000000" points="1522.6834,-311.0891 1512.1703,-312.4024 1521.2078,-317.9318 1522.6834,-311.0891"/>
</g>
<!-- hook&#45;&gt;subseq -->
<g id="edge32" class="edge">
<title>hook&#45;&gt;subseq</title>
<path fill="none" stroke="#000000" d="M1776.2149,-359.8314C1774.6106,-352.131 1772.703,-342.9743 1770.9201,-334.4166"/>
<polygon fill="#000000" stroke="#000000" points="1774.3021,-333.4892 1768.8361,-324.4133 1767.4493,-334.9169 1774.3021,-333.4892"/>
</g>
<!-- Greene -->
<g id="node25" class="node">
<title>Greene</title>
<g id="a_node25"><a xlink:href="Combi.LRrule.Greene.html" xlink:title="Greene">
<polygon fill="#dbc3b6" stroke="#dbc3b6" points="324.5,-540 255.5,-540 255.5,-504 324.5,-504 324.5,-540"/>
<text text-anchor="middle" x="290" y="-517.6" font-family="Times,serif" font-size="18.00" fill="#000000">Greene</text>
</a>
</g>
</g>
<!-- plactic -->
<g id="node32" class="node">
<title>plactic</title>
<g id="a_node32"><a xlink:href="Combi.LRrule.plactic.html" xlink:title="plactic">
<polygon fill="#dbc3b6" stroke="#dbc3b6" points="448,-468 382,-468 382,-432 448,-432 448,-468"/>
<text text-anchor="middle" x="415" y="-445.6" font-family="Times,serif" font-size="18.00" fill="#000000">plactic</text>
</a>
</g>
</g>
<!-- Greene&#45;&gt;plactic -->
<g id="edge48" class="edge">
<title>Greene&#45;&gt;plactic</title>
<path fill="none" stroke="#000000" d="M321.5428,-503.8314C337.6791,-494.5368 357.4986,-483.1208 374.7272,-473.1971"/>
<polygon fill="#000000" stroke="#000000" points="376.5489,-476.187 383.4673,-468.1628 373.055,-470.1212 376.5489,-476.187"/>
</g>
<!-- ordcast -->
<g id="node42" class="node">
<title>ordcast</title>
<g id="a_node42"><a xlink:href="Combi.SSRcomplements.ordcast.html" xlink:title="ordcast">
<polygon fill="#dbc3b6" stroke="#dbc3b6" points="80.5,-468 11.5,-468 11.5,-432 80.5,-432 80.5,-468"/>
<text text-anchor="middle" x="46" y="-445.6" font-family="Times,serif" font-size="18.00" fill="#000000">ordcast</text>
</a>
</g>
</g>
<!-- Greene&#45;&gt;ordcast -->
<g id="edge49" class="edge">
<title>Greene&#45;&gt;ordcast</title>
<path fill="none" stroke="#000000" d="M255.2999,-511.7606C211.9397,-498.9658 137.6837,-477.0542 90.2698,-463.0632"/>
<polygon fill="#000000" stroke="#000000" points="91.1622,-459.6774 80.5804,-460.2041 89.181,-466.3912 91.1622,-459.6774"/>
</g>
<!-- Greene_inv&#45;&gt;Greene -->
<g id="edge47" class="edge">
<title>Greene_inv&#45;&gt;Greene</title>
<path fill="none" stroke="#000000" d="M396.1674,-575.8314C377.2152,-566.2218 353.7905,-554.3445 333.7701,-544.1933"/>
<polygon fill="#000000" stroke="#000000" points="335.3412,-541.0657 324.8394,-539.665 332.1756,-547.3091 335.3412,-541.0657"/>
</g>
<!-- Schensted&#45;&gt;stdtab -->
<g id="edge42" class="edge">
<title>Schensted&#45;&gt;stdtab</title>
<path fill="none" stroke="#000000" d="M1597.1393,-359.8314C1573.9583,-348.9935 1544.6076,-335.2711 1521.342,-324.3937"/>
<polygon fill="#000000" stroke="#000000" points="1522.6453,-321.1394 1512.1041,-320.0747 1519.6806,-327.4806 1522.6453,-321.1394"/>
</g>
<!-- Schensted&#45;&gt;subseq -->
<g id="edge43" class="edge">
<title>Schensted&#45;&gt;subseq</title>
<path fill="none" stroke="#000000" d="M1668.5521,-359.8314C1685.2048,-350.5368 1705.6585,-339.1208 1723.4385,-329.1971"/>
<polygon fill="#000000" stroke="#000000" points="1725.4321,-332.0927 1732.4583,-324.1628 1722.0205,-325.9803 1725.4321,-332.0927"/>
</g>
<!-- Yam_plact -->
<g id="node28" class="node">
<title>Yam_plact</title>
<g id="a_node28"><a xlink:href="Combi.LRrule.Yam_plact.html" xlink:title="Yam_plact">
<polygon fill="#dbc3b6" stroke="#dbc3b6" points="923.5,-756 826.5,-756 826.5,-720 923.5,-720 923.5,-756"/>
<text text-anchor="middle" x="875" y="-733.6" font-family="Times,serif" font-size="18.00" fill="#000000">Yam_plact</text>
</a>
</g>
</g>
<!-- stdplact -->
<g id="node34" class="node">
<title>stdplact</title>
<g id="a_node34"><a xlink:href="Combi.LRrule.stdplact.html" xlink:title="stdplact">
<polygon fill="#dbc3b6" stroke="#dbc3b6" points="912,-684 838,-684 838,-648 912,-648 912,-684"/>
<text text-anchor="middle" x="875" y="-661.6" font-family="Times,serif" font-size="18.00" fill="#000000">stdplact</text>
</a>
</g>
</g>
<!-- Yam_plact&#45;&gt;stdplact -->
<g id="edge37" class="edge">
<title>Yam_plact&#45;&gt;stdplact</title>
<path fill="none" stroke="#000000" d="M875,-719.8314C875,-712.131 875,-702.9743 875,-694.4166"/>
<polygon fill="#000000" stroke="#000000" points="878.5001,-694.4132 875,-684.4133 871.5001,-694.4133 878.5001,-694.4132"/>
</g>
<!-- extract -->
<g id="node29" class="node">
<title>extract</title>
<g id="a_node29"><a xlink:href="Combi.LRrule.extract.html" xlink:title="extract">
<polygon fill="#dbc3b6" stroke="#dbc3b6" points="1062.5,-1044 995.5,-1044 995.5,-1008 1062.5,-1008 1062.5,-1044"/>
<text text-anchor="middle" x="1029" y="-1021.6" font-family="Times,serif" font-size="18.00" fill="#000000">extract</text>
</a>
</g>
</g>
<!-- implem -->
<g id="node31" class="node">
<title>implem</title>
<g id="a_node31"><a xlink:href="Combi.LRrule.implem.html" xlink:title="implem">
<polygon fill="#dbc3b6" stroke="#dbc3b6" points="1065.5,-972 992.5,-972 992.5,-936 1065.5,-936 1065.5,-972"/>
<text text-anchor="middle" x="1029" y="-949.6" font-family="Times,serif" font-size="18.00" fill="#000000">implem</text>
</a>
</g>
</g>
<!-- extract&#45;&gt;implem -->
<g id="edge53" class="edge">
<title>extract&#45;&gt;implem</title>
<path fill="none" stroke="#000000" d="M1029,-1007.8314C1029,-1000.131 1029,-990.9743 1029,-982.4166"/>
<polygon fill="#000000" stroke="#000000" points="1032.5001,-982.4132 1029,-972.4133 1025.5001,-982.4133 1032.5001,-982.4132"/>
</g>
<!-- freeSchur -->
<g id="node30" class="node">
<title>freeSchur</title>
<g id="a_node30"><a xlink:href="Combi.LRrule.freeSchur.html" xlink:title="freeSchur">
<polygon fill="#dbc3b6" stroke="#dbc3b6" points="1072.5,-828 985.5,-828 985.5,-792 1072.5,-792 1072.5,-828"/>
<text text-anchor="middle" x="1029" y="-805.6" font-family="Times,serif" font-size="18.00" fill="#000000">freeSchur</text>
</a>
</g>
</g>
<!-- freeSchur&#45;&gt;Yam_plact -->
<g id="edge50" class="edge">
<title>freeSchur&#45;&gt;Yam_plact</title>
<path fill="none" stroke="#000000" d="M990.1393,-791.8314C969.7258,-782.2874 944.5277,-770.5065 922.914,-760.4013"/>
<polygon fill="#000000" stroke="#000000" points="924.1225,-757.1027 913.5813,-756.038 921.1577,-763.4439 924.1225,-757.1027"/>
</g>
<!-- shuffle -->
<g id="node33" class="node">
<title>shuffle</title>
<g id="a_node33"><a xlink:href="Combi.LRrule.shuffle.html" xlink:title="shuffle">
<polygon fill="#dbc3b6" stroke="#dbc3b6" points="1062.5,-756 995.5,-756 995.5,-720 1062.5,-720 1062.5,-756"/>
<text text-anchor="middle" x="1029" y="-733.6" font-family="Times,serif" font-size="18.00" fill="#000000">shuffle</text>
</a>
</g>
</g>
<!-- freeSchur&#45;&gt;shuffle -->
<g id="edge51" class="edge">
<title>freeSchur&#45;&gt;shuffle</title>
<path fill="none" stroke="#000000" d="M1029,-791.8314C1029,-784.131 1029,-774.9743 1029,-766.4166"/>
<polygon fill="#000000" stroke="#000000" points="1032.5001,-766.4132 1029,-756.4133 1025.5001,-766.4133 1032.5001,-766.4132"/>
</g>
<!-- Schur_mpoly -->
<g id="node38" class="node">
<title>Schur_mpoly</title>
<g id="a_node38"><a xlink:href="Combi.MPoly.Schur_mpoly.html" xlink:title="Schur_mpoly">
<polygon fill="#dbc3b6" stroke="#dbc3b6" points="1229,-612 1115,-612 1115,-576 1229,-576 1229,-612"/>
<text text-anchor="middle" x="1172" y="-589.6" font-family="Times,serif" font-size="18.00" fill="#000000">Schur_mpoly</text>
</a>
</g>
</g>
<!-- freeSchur&#45;&gt;Schur_mpoly -->
<g id="edge52" class="edge">
<title>freeSchur&#45;&gt;Schur_mpoly</title>
<path fill="none" stroke="#000000" d="M1058.6558,-791.9917C1072.2909,-782.5824 1087.8689,-770.092 1099,-756 1131.7512,-714.5368 1153.3554,-656.0375 1164.0677,-621.8597"/>
<polygon fill="#000000" stroke="#000000" points="1167.481,-622.6652 1167.0428,-612.0794 1160.784,-620.6279 1167.481,-622.6652"/>
</g>
<!-- therule -->
<g id="node35" class="node">
<title>therule</title>
<g id="a_node35"><a xlink:href="Combi.LRrule.therule.html" xlink:title="therule">
<polygon fill="#dbc3b6" stroke="#dbc3b6" points="1063,-900 995,-900 995,-864 1063,-864 1063,-900"/>
<text text-anchor="middle" x="1029" y="-877.6" font-family="Times,serif" font-size="18.00" fill="#000000">therule</text>
</a>
</g>
</g>
<!-- implem&#45;&gt;therule -->
<g id="edge46" class="edge">
<title>implem&#45;&gt;therule</title>
<path fill="none" stroke="#000000" d="M1029,-935.8314C1029,-928.131 1029,-918.9743 1029,-910.4166"/>
<polygon fill="#000000" stroke="#000000" points="1032.5001,-910.4132 1029,-900.4133 1025.5001,-910.4133 1032.5001,-910.4132"/>
</g>
<!-- plactic&#45;&gt;congr -->
<g id="edge44" class="edge">
<title>plactic&#45;&gt;congr</title>
<path fill="none" stroke="#000000" d="M440.9912,-431.8314C453.9216,-422.7927 469.7222,-411.7476 483.6383,-402.0198"/>
<polygon fill="#000000" stroke="#000000" points="485.8263,-404.7608 492.0171,-396.1628 481.8157,-399.0235 485.8263,-404.7608"/>
</g>
<!-- plactic&#45;&gt;Schensted -->
<g id="edge45" class="edge">
<title>plactic&#45;&gt;Schensted</title>
<path fill="none" stroke="#000000" d="M448.049,-439.8851C459.3464,-436.8283 472.128,-433.8066 484,-432 490.865,-430.9554 1351.8614,-391.1268 1580.6873,-380.5544"/>
<polygon fill="#000000" stroke="#000000" points="1580.9569,-384.0458 1590.7847,-380.088 1580.6338,-377.0533 1580.9569,-384.0458"/>
</g>
<!-- shuffle&#45;&gt;stdplact -->
<g id="edge41" class="edge">
<title>shuffle&#45;&gt;stdplact</title>
<path fill="none" stroke="#000000" d="M995.204,-722.1993C973.5526,-712.0765 945.1627,-698.8034 921.4103,-687.6983"/>
<polygon fill="#000000" stroke="#000000" points="922.7643,-684.4678 912.2231,-683.403 919.7996,-690.8089 922.7643,-684.4678"/>
</g>
<!-- stdplact&#45;&gt;Greene_inv -->
<g id="edge40" class="edge">
<title>stdplact&#45;&gt;Greene_inv</title>
<path fill="none" stroke="#000000" d="M837.992,-659.9852C761.6257,-647.5735 585.9441,-619.0203 492.7023,-603.8658"/>
<polygon fill="#000000" stroke="#000000" points="493.0053,-600.3692 482.5733,-602.2196 491.8822,-607.2786 493.0053,-600.3692"/>
</g>
<!-- therule&#45;&gt;skewtab -->
<g id="edge38" class="edge">
<title>therule&#45;&gt;skewtab</title>
<path fill="none" stroke="#000000" d="M1063.0013,-874.9652C1125.1897,-862.0987 1257.4183,-834.741 1328.8376,-819.9646"/>
<polygon fill="#000000" stroke="#000000" points="1329.8346,-823.3326 1338.918,-817.879 1328.4163,-816.4777 1329.8346,-823.3326"/>
</g>
<!-- therule&#45;&gt;freeSchur -->
<g id="edge39" class="edge">
<title>therule&#45;&gt;freeSchur</title>
<path fill="none" stroke="#000000" d="M1029,-863.8314C1029,-856.131 1029,-846.9743 1029,-838.4166"/>
<polygon fill="#000000" stroke="#000000" points="1032.5001,-838.4132 1029,-828.4133 1025.5001,-838.4133 1032.5001,-838.4132"/>
</g>
<!-- Cauchy -->
<g id="node36" class="node">
<title>Cauchy</title>
<g id="a_node36"><a xlink:href="Combi.MPoly.Cauchy.html" xlink:title="Cauchy">
<polygon fill="#dbc3b6" stroke="#dbc3b6" points="263,-1188 191,-1188 191,-1152 263,-1152 263,-1188"/>
<text text-anchor="middle" x="227" y="-1165.6" font-family="Times,serif" font-size="18.00" fill="#000000">Cauchy</text>
</a>
</g>
</g>
<!-- homogsym -->
<g id="node40" class="node">
<title>homogsym</title>
<g id="a_node40"><a xlink:href="Combi.MPoly.homogsym.html" xlink:title="homogsym">
<polygon fill="#dbc3b6" stroke="#dbc3b6" points="282.5,-1116 185.5,-1116 185.5,-1080 282.5,-1080 282.5,-1116"/>
<text text-anchor="middle" x="234" y="-1093.6" font-family="Times,serif" font-size="18.00" fill="#000000">homogsym</text>
</a>
</g>
</g>
<!-- Cauchy&#45;&gt;homogsym -->
<g id="edge10" class="edge">
<title>Cauchy&#45;&gt;homogsym</title>
<path fill="none" stroke="#000000" d="M228.7664,-1151.8314C229.515,-1144.131 230.4053,-1134.9743 231.2373,-1126.4166"/>
<polygon fill="#000000" stroke="#000000" points="234.7256,-1126.7051 232.2098,-1116.4133 227.7585,-1126.0276 234.7256,-1126.7051"/>
</g>
<!-- Schur_altdef -->
<g id="node37" class="node">
<title>Schur_altdef</title>
<g id="a_node37"><a xlink:href="Combi.MPoly.Schur_altdef.html" xlink:title="Schur_altdef">
<polygon fill="#dbc3b6" stroke="#dbc3b6" points="772,-972 662,-972 662,-936 772,-936 772,-972"/>
<text text-anchor="middle" x="717" y="-949.6" font-family="Times,serif" font-size="18.00" fill="#000000">Schur_altdef</text>
</a>
</g>
</g>
<!-- Schur_altdef&#45;&gt;unitriginv -->
<g id="edge3" class="edge">
<title>Schur_altdef&#45;&gt;unitriginv</title>
<path fill="none" stroke="#000000" d="M717,-935.8314C717,-928.131 717,-918.9743 717,-910.4166"/>
<polygon fill="#000000" stroke="#000000" points="720.5001,-910.4132 717,-900.4133 713.5001,-910.4133 720.5001,-910.4132"/>
</g>
<!-- Schur_altdef&#45;&gt;therule -->
<g id="edge4" class="edge">
<title>Schur_altdef&#45;&gt;therule</title>
<path fill="none" stroke="#000000" d="M772.0611,-941.2936C832.6667,-927.3077 928.8924,-905.1018 984.787,-892.203"/>
<polygon fill="#000000" stroke="#000000" points="985.7799,-895.5659 994.7367,-889.9069 984.2058,-888.7452 985.7799,-895.5659"/>
</g>
<!-- Schur_mpoly&#45;&gt;stdtab -->
<g id="edge5" class="edge">
<title>Schur_mpoly&#45;&gt;stdtab</title>
<path fill="none" stroke="#000000" d="M1191.3919,-575.9843C1244.7803,-526.3848 1394.0122,-387.7435 1455.2547,-330.8473"/>
<polygon fill="#000000" stroke="#000000" points="1457.6714,-333.3794 1462.6154,-324.0089 1452.9069,-328.251 1457.6714,-333.3794"/>
</g>
<!-- antisym -->
<g id="node39" class="node">
<title>antisym</title>
<g id="a_node39"><a xlink:href="Combi.MPoly.antisym.html" xlink:title="antisym">
<polygon fill="#dbc3b6" stroke="#dbc3b6" points="608,-540 534,-540 534,-504 608,-504 608,-540"/>
<text text-anchor="middle" x="571" y="-517.6" font-family="Times,serif" font-size="18.00" fill="#000000">antisym</text>
</a>
</g>
</g>
<!-- Schur_mpoly&#45;&gt;antisym -->
<g id="edge6" class="edge">
<title>Schur_mpoly&#45;&gt;antisym</title>
<path fill="none" stroke="#000000" d="M1114.9176,-587.1615C996.8356,-573.0153 727.6612,-540.7681 618.4035,-527.679"/>
<polygon fill="#000000" stroke="#000000" points="618.6852,-524.1878 608.3398,-526.4733 617.8525,-531.1381 618.6852,-524.1878"/>
</g>
<!-- presentSn -->
<g id="node50" class="node">
<title>presentSn</title>
<g id="a_node50"><a xlink:href="Combi.SymGroup.presentSn.html" xlink:title="presentSn">
<polygon fill="#dbc3b6" stroke="#dbc3b6" points="608,-468 520,-468 520,-432 608,-432 608,-468"/>
<text text-anchor="middle" x="564" y="-445.6" font-family="Times,serif" font-size="18.00" fill="#000000">presentSn</text>
</a>
</g>
</g>
<!-- antisym&#45;&gt;presentSn -->
<g id="edge11" class="edge">
<title>antisym&#45;&gt;presentSn</title>
<path fill="none" stroke="#000000" d="M569.2336,-503.8314C568.485,-496.131 567.5947,-486.9743 566.7627,-478.4166"/>
<polygon fill="#000000" stroke="#000000" points="570.2415,-478.0276 565.7902,-468.4133 563.2744,-478.7051 570.2415,-478.0276"/>
</g>
<!-- sympoly -->
<g id="node41" class="node">
<title>sympoly</title>
<g id="a_node41"><a xlink:href="Combi.MPoly.sympoly.html" xlink:title="sympoly">
<polygon fill="#dbc3b6" stroke="#dbc3b6" points="273.5,-1044 194.5,-1044 194.5,-1008 273.5,-1008 273.5,-1044"/>
<text text-anchor="middle" x="234" y="-1021.6" font-family="Times,serif" font-size="18.00" fill="#000000">sympoly</text>
</a>
</g>
</g>
<!-- homogsym&#45;&gt;sympoly -->
<g id="edge9" class="edge">
<title>homogsym&#45;&gt;sympoly</title>
<path fill="none" stroke="#000000" d="M234,-1079.8314C234,-1072.131 234,-1062.9743 234,-1054.4166"/>
<polygon fill="#000000" stroke="#000000" points="237.5001,-1054.4132 234,-1044.4133 230.5001,-1054.4133 237.5001,-1054.4132"/>
</g>
<!-- sympoly&#45;&gt;Schur_altdef -->
<g id="edge7" class="edge">
<title>sympoly&#45;&gt;Schur_altdef</title>
<path fill="none" stroke="#000000" d="M273.5259,-1020.1079C356.5158,-1007.7368 549.6293,-978.9497 651.4591,-963.7701"/>
<polygon fill="#000000" stroke="#000000" points="652.2449,-967.1917 661.6195,-962.2555 651.2127,-960.2682 652.2449,-967.1917"/>
</g>
<!-- permcent -->
<g id="node49" class="node">
<title>permcent</title>
<g id="a_node49"><a xlink:href="Combi.SymGroup.permcent.html" xlink:title="permcent">
<polygon fill="#dbc3b6" stroke="#dbc3b6" points="194.5,-972 109.5,-972 109.5,-936 194.5,-936 194.5,-972"/>
<text text-anchor="middle" x="152" y="-949.6" font-family="Times,serif" font-size="18.00" fill="#000000">permcent</text>
</a>
</g>
</g>
<!-- sympoly&#45;&gt;permcent -->
<g id="edge8" class="edge">
<title>sympoly&#45;&gt;permcent</title>
<path fill="none" stroke="#000000" d="M213.3079,-1007.8314C203.3052,-999.0485 191.145,-988.3712 180.3001,-978.8489"/>
<polygon fill="#000000" stroke="#000000" points="182.5092,-976.1308 172.6854,-972.1628 177.8906,-981.3909 182.5092,-976.1308"/>
</g>
<!-- ordcast&#45;&gt;tools -->
<g id="edge36" class="edge">
<title>ordcast&#45;&gt;tools</title>
<path fill="none" stroke="#000000" d="M46,-431.8146C46,-404.4983 46,-351.25 46,-306 46,-306 46,-306 46,-162 46,-71.2233 369.431,-32.0607 480.8275,-21.2644"/>
<polygon fill="#000000" stroke="#000000" points="481.3027,-24.7351 490.928,-20.3074 480.6424,-17.7663 481.3027,-24.7351"/>
</g>
<!-- sorted&#45;&gt;tools -->
<g id="edge35" class="edge">
<title>sorted&#45;&gt;tools</title>
<path fill="none" stroke="#000000" d="M1383.2573,-80.3756C1371.9627,-77.2032 1359.0021,-73.9831 1347,-72 1191.3248,-46.2774 696.1809,-25.0779 555.5662,-19.4599"/>
<polygon fill="#000000" stroke="#000000" points="555.4414,-15.9523 545.3104,-19.0528 555.1637,-22.9468 555.4414,-15.9523"/>
</g>
<!-- Frobenius_char -->
<g id="node46" class="node">
<title>Frobenius_char</title>
<g id="a_node46"><a xlink:href="Combi.SymGroup.Frobenius_char.html" xlink:title="Frobenius_char">
<polygon fill="#dbc3b6" stroke="#dbc3b6" points="212.5,-1260 83.5,-1260 83.5,-1224 212.5,-1224 212.5,-1260"/>
<text text-anchor="middle" x="148" y="-1237.6" font-family="Times,serif" font-size="18.00" fill="#000000">Frobenius_char</text>
</a>
</g>
</g>
<!-- Frobenius_char&#45;&gt;Cauchy -->
<g id="edge18" class="edge">
<title>Frobenius_char&#45;&gt;Cauchy</title>
<path fill="none" stroke="#000000" d="M167.935,-1223.8314C177.4783,-1215.1337 189.0599,-1204.5783 199.4306,-1195.1265"/>
<polygon fill="#000000" stroke="#000000" points="202.038,-1197.4857 207.0713,-1188.1628 197.3228,-1192.3121 202.038,-1197.4857"/>
</g>
<!-- towerSn -->
<g id="node52" class="node">
<title>towerSn</title>
<g id="a_node52"><a xlink:href="Combi.SymGroup.towerSn.html" xlink:title="towerSn">
<polygon fill="#dbc3b6" stroke="#dbc3b6" points="114.5,-1044 37.5,-1044 37.5,-1008 114.5,-1008 114.5,-1044"/>
<text text-anchor="middle" x="76" y="-1021.6" font-family="Times,serif" font-size="18.00" fill="#000000">towerSn</text>
</a>
</g>
</g>
<!-- Frobenius_char&#45;&gt;towerSn -->
<g id="edge19" class="edge">
<title>Frobenius_char&#45;&gt;towerSn</title>
<path fill="none" stroke="#000000" d="M141.9852,-1223.9555C129.4117,-1186.235 100.2729,-1098.8188 85.28,-1053.8399"/>
<polygon fill="#000000" stroke="#000000" points="88.5311,-1052.5251 82.0484,-1044.1451 81.8903,-1054.7387 88.5311,-1052.5251"/>
</g>
<!-- cycles&#45;&gt;permcomp -->
<g id="edge23" class="edge">
<title>cycles&#45;&gt;permcomp</title>
<path fill="none" stroke="#000000" d="M245.3568,-230.2806C342.1695,-218.797 637.391,-183.779 763.2135,-168.8544"/>
<polygon fill="#000000" stroke="#000000" points="763.8971,-172.298 773.4152,-167.6443 763.0725,-165.3467 763.8971,-172.298"/>
</g>
<!-- cycles&#45;&gt;tools -->
<g id="edge24" class="edge">
<title>cycles&#45;&gt;tools</title>
<path fill="none" stroke="#000000" d="M220.8502,-215.9529C228.9954,-196.3627 244.1569,-165.0635 265,-144 327.2552,-81.0866 427.3827,-44.2772 481.1072,-28.0197"/>
<polygon fill="#000000" stroke="#000000" points="482.2938,-31.3188 490.8939,-25.131 480.3121,-24.6052 482.2938,-31.3188"/>
</g>
<!-- cycletype -->
<g id="node48" class="node">
<title>cycletype</title>
<g id="a_node48"><a xlink:href="Combi.SymGroup.cycletype.html" xlink:title="cycletype">
<polygon fill="#dbc3b6" stroke="#dbc3b6" points="309.5,-468 222.5,-468 222.5,-432 309.5,-432 309.5,-468"/>
<text text-anchor="middle" x="266" y="-445.6" font-family="Times,serif" font-size="18.00" fill="#000000">cycletype</text>
</a>
</g>
</g>
<!-- cycletype&#45;&gt;fibered_set -->
<g id="edge20" class="edge">
<title>cycletype&#45;&gt;fibered_set</title>
<path fill="none" stroke="#000000" d="M291.7389,-431.8314C304.5437,-422.7927 320.1909,-411.7476 333.9719,-402.0198"/>
<polygon fill="#000000" stroke="#000000" points="336.118,-404.7891 342.2693,-396.1628 332.0812,-399.0703 336.118,-404.7891"/>
</g>
<!-- cycletype&#45;&gt;partition -->
<g id="edge21" class="edge">
<title>cycletype&#45;&gt;partition</title>
<path fill="none" stroke="#000000" d="M309.8975,-439.5375C321.595,-436.9101 334.248,-434.2118 346,-432 450.7033,-412.2941 478.3511,-415.9929 583,-396 862.5659,-342.5897 936.7684,-341.357 1207,-252 1264.066,-233.1301 1327.0232,-204.393 1368.1317,-184.4894"/>
<polygon fill="#000000" stroke="#000000" points="1369.8714,-187.5352 1377.3273,-180.0079 1366.8047,-181.2427 1369.8714,-187.5352"/>
</g>
<!-- cycletype&#45;&gt;cycles -->
<g id="edge22" class="edge">
<title>cycletype&#45;&gt;cycles</title>
<path fill="none" stroke="#000000" d="M261.6559,-431.9555C252.5942,-394.3144 231.619,-307.1867 220.7707,-262.1246"/>
<polygon fill="#000000" stroke="#000000" points="224.1117,-261.0481 218.3683,-252.1451 217.3061,-262.6865 224.1117,-261.0481"/>
</g>
<!-- permcent&#45;&gt;cycletype -->
<g id="edge17" class="edge">
<title>permcent&#45;&gt;cycletype</title>
<path fill="none" stroke="#000000" d="M150.7568,-935.8247C148.9994,-908.5213 146,-855.2893 146,-810 146,-810 146,-810 146,-594 146,-542.2495 192.3045,-499.2268 227.3862,-474.0578"/>
<polygon fill="#000000" stroke="#000000" points="229.8159,-476.6314 236.0285,-468.0492 225.8199,-470.884 229.8159,-476.6314"/>
</g>
<!-- presentSn&#45;&gt;congr -->
<g id="edge16" class="edge">
<title>presentSn&#45;&gt;congr</title>
<path fill="none" stroke="#000000" d="M552.3923,-431.8314C547.2022,-423.7079 540.9768,-413.9637 535.2575,-405.0118"/>
<polygon fill="#000000" stroke="#000000" points="538.0974,-402.9559 529.764,-396.4133 532.1985,-406.7246 538.0974,-402.9559"/>
</g>
<!-- reprSn -->
<g id="node51" class="node">
<title>reprSn</title>
<g id="a_node51"><a xlink:href="Combi.SymGroup.reprSn.html" xlink:title="reprSn">
<polygon fill="#dbc3b6" stroke="#dbc3b6" points="461.5,-540 396.5,-540 396.5,-504 461.5,-504 461.5,-540"/>
<text text-anchor="middle" x="429" y="-517.6" font-family="Times,serif" font-size="18.00" fill="#000000">reprSn</text>
</a>
</g>
</g>
<!-- reprSn&#45;&gt;cycletype -->
<g id="edge14" class="edge">
<title>reprSn&#45;&gt;cycletype</title>
<path fill="none" stroke="#000000" d="M396.4063,-507.6028C373.4862,-497.4786 342.3772,-483.7372 316.2922,-472.215"/>
<polygon fill="#000000" stroke="#000000" points="317.4953,-468.9202 306.9337,-468.0811 314.6669,-475.3233 317.4953,-468.9202"/>
</g>
<!-- reprSn&#45;&gt;presentSn -->
<g id="edge15" class="edge">
<title>reprSn&#45;&gt;presentSn</title>
<path fill="none" stroke="#000000" d="M461.6797,-504.5708C479.599,-495.0139 502.0267,-483.0524 521.3143,-472.7657"/>
<polygon fill="#000000" stroke="#000000" points="523.0349,-475.8148 530.2114,-468.0206 519.7408,-469.6383 523.0349,-475.8148"/>
</g>
<!-- towerSn&#45;&gt;ordcast -->
<g id="edge12" class="edge">
<title>towerSn&#45;&gt;ordcast</title>
<path fill="none" stroke="#000000" d="M58.7544,-1007.6186C36.3312,-981.719 0,-932.0348 0,-882 0,-882 0,-882 0,-594 0,-551.7421 18.1976,-505.6755 31.7014,-477.3085"/>
<polygon fill="#000000" stroke="#000000" points="34.9822,-478.5675 36.2446,-468.0482 28.6978,-475.4843 34.9822,-478.5675"/>
</g>
<!-- towerSn&#45;&gt;permcent -->
<g id="edge13" class="edge">
<title>towerSn&#45;&gt;permcent</title>
<path fill="none" stroke="#000000" d="M95.178,-1007.8314C104.3588,-999.1337 115.5006,-988.5783 125.4776,-979.1265"/>
<polygon fill="#000000" stroke="#000000" points="127.9757,-981.5811 132.8281,-972.1628 123.1615,-976.4995 127.9757,-981.5811"/>
</g>
</g>
</svg>
