<?xml version="1.0" encoding="UTF-8" standalone="no"?>
<!DOCTYPE svg PUBLIC "-//W3C//DTD SVG 1.1//EN"
 "http://www.w3.org/Graphics/SVG/1.1/DTD/svg11.dtd">
<!-- Generated by graphviz version 2.38.0 (20140413.2041)
 -->
<!-- Title: depend Pages: 1 -->
<svg width="2267pt" height="1124pt"
 viewBox="0.00 0.00 2267.00 1124.00" xmlns="http://www.w3.org/2000/svg" xmlns:xlink="http://www.w3.org/1999/xlink">
<g id="graph0" class="graph" transform="scale(1 1) rotate(0) translate(4 1120)">
<title>depend</title>
<!-- Ccpo -->
<g id="node1" class="node"><title>Ccpo</title>
<g id="a_node1"><a xlink:href="3rdparty.ALEA.Ccpo.html" xlink:title="Ccpo">
<polygon fill="#dbc3b6" stroke="#dbc3b6" points="182,-324 126,-324 126,-288 182,-288 182,-324"/>
<text text-anchor="middle" x="154" y="-301.6" font-family="Times,serif" font-size="18.00">Ccpo</text>
</a>
</g>
</g>
<!-- Misc -->
<g id="node2" class="node"><title>Misc</title>
<g id="a_node2"><a xlink:href="3rdparty.ALEA.Misc.html" xlink:title="Misc">
<polygon fill="#dbc3b6" stroke="#dbc3b6" points="54,-324 0,-324 0,-288 54,-288 54,-324"/>
<text text-anchor="middle" x="27" y="-301.6" font-family="Times,serif" font-size="18.00">Misc</text>
</a>
</g>
</g>
<!-- combclass -->
<g id="node3" class="node"><title>combclass</title>
<g id="a_node3"><a xlink:href="Combi.Basic.combclass.html" xlink:title="combclass">
<polygon fill="#dbc3b6" stroke="#dbc3b6" points="1604,-108 1512,-108 1512,-72 1604,-72 1604,-108"/>
<text text-anchor="middle" x="1558" y="-85.6" font-family="Times,serif" font-size="18.00">combclass</text>
</a>
</g>
</g>
<!-- tools -->
<g id="node43" class="node"><title>tools</title>
<g id="a_node43"><a xlink:href="Combi.SSRcomplements.tools.html" xlink:title="tools">
<polygon fill="#dbc3b6" stroke="#dbc3b6" points="1895,-36 1841,-36 1841,-0 1895,-0 1895,-36"/>
<text text-anchor="middle" x="1868" y="-13.6" font-family="Times,serif" font-size="18.00">tools</text>
</a>
</g>
</g>
<!-- combclass&#45;&gt;tools -->
<g id="edge21" class="edge"><title>combclass&#45;&gt;tools</title>
<path fill="none" stroke="black" d="M1604.08,-78.5959C1665.84,-64.6487 1774.27,-40.1648 1831.01,-27.3521"/>
<polygon fill="black" stroke="black" points="1832,-30.7174 1840.98,-25.1007 1830.46,-23.8893 1832,-30.7174"/>
</g>
<!-- congr -->
<g id="node4" class="node"><title>congr</title>
<g id="a_node4"><a xlink:href="Combi.Basic.congr.html" xlink:title="congr">
<polygon fill="#dbc3b6" stroke="#dbc3b6" points="1827.5,-468 1768.5,-468 1768.5,-432 1827.5,-432 1827.5,-468"/>
<text text-anchor="middle" x="1798" y="-445.6" font-family="Times,serif" font-size="18.00">congr</text>
</a>
</g>
</g>
<!-- permuted -->
<g id="node11" class="node"><title>permuted</title>
<g id="a_node11"><a xlink:href="Combi.Combi.permuted.html" xlink:title="permuted">
<polygon fill="#dbc3b6" stroke="#dbc3b6" points="1840,-396 1754,-396 1754,-360 1840,-360 1840,-396"/>
<text text-anchor="middle" x="1797" y="-373.6" font-family="Times,serif" font-size="18.00">permuted</text>
</a>
</g>
</g>
<!-- congr&#45;&gt;permuted -->
<g id="edge19" class="edge"><title>congr&#45;&gt;permuted</title>
<path fill="none" stroke="black" d="M1797.75,-431.697C1797.64,-423.983 1797.51,-414.712 1797.39,-406.112"/>
<polygon fill="black" stroke="black" points="1800.89,-406.053 1797.24,-396.104 1793.89,-406.153 1800.89,-406.053"/>
</g>
<!-- vectNK -->
<g id="node17" class="node"><title>vectNK</title>
<g id="a_node17"><a xlink:href="Combi.Combi.vectNK.html" xlink:title="vectNK">
<polygon fill="#dbc3b6" stroke="#dbc3b6" points="2150,-180 2076,-180 2076,-144 2150,-144 2150,-180"/>
<text text-anchor="middle" x="2113" y="-157.6" font-family="Times,serif" font-size="18.00">vectNK</text>
</a>
</g>
</g>
<!-- congr&#45;&gt;vectNK -->
<g id="edge20" class="edge"><title>congr&#45;&gt;vectNK</title>
<path fill="none" stroke="black" d="M1827.63,-439.29C1875.11,-422.454 1968.91,-383.809 2028,-324 2066.65,-284.877 2092.03,-224.559 2104.32,-189.932"/>
<polygon fill="black" stroke="black" points="2107.77,-190.657 2107.72,-180.062 2101.15,-188.38 2107.77,-190.657"/>
</g>
<!-- ordtype -->
<g id="node5" class="node"><title>ordtype</title>
<g id="a_node5"><a xlink:href="Combi.Basic.ordtype.html" xlink:title="ordtype">
<polygon fill="#dbc3b6" stroke="#dbc3b6" points="1828,-108 1754,-108 1754,-72 1828,-72 1828,-108"/>
<text text-anchor="middle" x="1791" y="-85.6" font-family="Times,serif" font-size="18.00">ordtype</text>
</a>
</g>
</g>
<!-- ordtype&#45;&gt;tools -->
<g id="edge18" class="edge"><title>ordtype&#45;&gt;tools</title>
<path fill="none" stroke="black" d="M1810.03,-71.6966C1819.54,-63.0503 1831.21,-52.4486 1841.57,-43.027"/>
<polygon fill="black" stroke="black" points="1844.14,-45.4209 1849.19,-36.1043 1839.43,-40.2413 1844.14,-45.4209"/>
</g>
<!-- Yamanouchi -->
<g id="node6" class="node"><title>Yamanouchi</title>
<g id="a_node6"><a xlink:href="Combi.Combi.Yamanouchi.html" xlink:title="Yamanouchi">
<polygon fill="#dbc3b6" stroke="#dbc3b6" points="1106,-252 996,-252 996,-216 1106,-216 1106,-252"/>
<text text-anchor="middle" x="1051" y="-229.6" font-family="Times,serif" font-size="18.00">Yamanouchi</text>
</a>
</g>
</g>
<!-- partition -->
<g id="node10" class="node"><title>partition</title>
<g id="a_node10"><a xlink:href="Combi.Combi.partition.html" xlink:title="partition">
<polygon fill="#dbc3b6" stroke="#dbc3b6" points="1370,-180 1290,-180 1290,-144 1370,-144 1370,-180"/>
<text text-anchor="middle" x="1330" y="-157.6" font-family="Times,serif" font-size="18.00">partition</text>
</a>
</g>
</g>
<!-- Yamanouchi&#45;&gt;partition -->
<g id="edge53" class="edge"><title>Yamanouchi&#45;&gt;partition</title>
<path fill="none" stroke="black" d="M1106.12,-219.17C1156.78,-206.459 1231.23,-187.781 1280.15,-175.506"/>
<polygon fill="black" stroke="black" points="1281.04,-178.893 1289.88,-173.065 1279.33,-172.104 1281.04,-178.893"/>
</g>
<!-- composition -->
<g id="node7" class="node"><title>composition</title>
<g id="a_node7"><a xlink:href="Combi.Combi.composition.html" xlink:title="composition">
<polygon fill="#dbc3b6" stroke="#dbc3b6" points="1428,-252 1320,-252 1320,-216 1428,-216 1428,-252"/>
<text text-anchor="middle" x="1374" y="-229.6" font-family="Times,serif" font-size="18.00">composition</text>
</a>
</g>
</g>
<!-- composition&#45;&gt;partition -->
<g id="edge72" class="edge"><title>composition&#45;&gt;partition</title>
<path fill="none" stroke="black" d="M1363.12,-215.697C1358.01,-207.559 1351.8,-197.689 1346.16,-188.701"/>
<polygon fill="black" stroke="black" points="1349.04,-186.708 1340.75,-180.104 1343.11,-190.433 1349.04,-186.708"/>
</g>
<!-- fibered_set -->
<g id="node8" class="node"><title>fibered_set</title>
<g id="a_node8"><a xlink:href="Combi.Combi.fibered_set.html" xlink:title="fibered_set">
<polygon fill="#dbc3b6" stroke="#dbc3b6" points="2004,-252 1906,-252 1906,-216 2004,-216 2004,-252"/>
<text text-anchor="middle" x="1955" y="-229.6" font-family="Times,serif" font-size="18.00">fibered_set</text>
</a>
</g>
</g>
<!-- multinomial -->
<g id="node9" class="node"><title>multinomial</title>
<g id="a_node9"><a xlink:href="Combi.Combi.multinomial.html" xlink:title="multinomial">
<polygon fill="#dbc3b6" stroke="#dbc3b6" points="2004,-180 1900,-180 1900,-144 2004,-144 2004,-180"/>
<text text-anchor="middle" x="1952" y="-157.6" font-family="Times,serif" font-size="18.00">multinomial</text>
</a>
</g>
</g>
<!-- multinomial&#45;&gt;tools -->
<g id="edge65" class="edge"><title>multinomial&#45;&gt;tools</title>
<path fill="none" stroke="black" d="M1941.87,-143.871C1927.3,-119.244 1900.32,-73.6377 1883.31,-44.8845"/>
<polygon fill="black" stroke="black" points="1886.27,-43.0141 1878.17,-36.1893 1880.25,-46.5781 1886.27,-43.0141"/>
</g>
<!-- partition&#45;&gt;combclass -->
<g id="edge69" class="edge"><title>partition&#45;&gt;combclass</title>
<path fill="none" stroke="black" d="M1370.24,-148.647C1406.85,-137.406 1461.25,-120.704 1502.08,-108.168"/>
<polygon fill="black" stroke="black" points="1503.36,-111.438 1511.89,-105.157 1501.3,-104.746 1503.36,-111.438"/>
</g>
<!-- partition&#45;&gt;ordtype -->
<g id="edge70" class="edge"><title>partition&#45;&gt;ordtype</title>
<path fill="none" stroke="black" d="M1370.1,-151.374C1381.65,-148.78 1394.29,-146.112 1406,-144 1527.04,-122.171 1670.91,-104.557 1743.72,-96.2228"/>
<polygon fill="black" stroke="black" points="1744.4,-99.6686 1753.94,-95.0612 1743.61,-92.7134 1744.4,-99.6686"/>
</g>
<!-- sorted -->
<g id="node42" class="node"><title>sorted</title>
<g id="a_node42"><a xlink:href="Combi.SSRcomplements.sorted.html" xlink:title="sorted">
<polygon fill="#dbc3b6" stroke="#dbc3b6" points="1361,-108 1299,-108 1299,-72 1361,-72 1361,-108"/>
<text text-anchor="middle" x="1330" y="-85.6" font-family="Times,serif" font-size="18.00">sorted</text>
</a>
</g>
</g>
<!-- partition&#45;&gt;sorted -->
<g id="edge71" class="edge"><title>partition&#45;&gt;sorted</title>
<path fill="none" stroke="black" d="M1330,-143.697C1330,-135.983 1330,-126.712 1330,-118.112"/>
<polygon fill="black" stroke="black" points="1333.5,-118.104 1330,-108.104 1326.5,-118.104 1333.5,-118.104"/>
</g>
<!-- permuted&#45;&gt;composition -->
<g id="edge66" class="edge"><title>permuted&#45;&gt;composition</title>
<path fill="none" stroke="black" d="M1753.72,-362.471C1677.89,-337.015 1520.88,-284.307 1434.4,-255.276"/>
<polygon fill="black" stroke="black" points="1435.32,-251.892 1424.72,-252.028 1433.09,-258.528 1435.32,-251.892"/>
</g>
<!-- permuted&#45;&gt;multinomial -->
<g id="edge67" class="edge"><title>permuted&#45;&gt;multinomial</title>
<path fill="none" stroke="black" d="M1801.33,-359.72C1809.93,-328.17 1831.73,-260.403 1870,-216 1880.44,-203.887 1894.32,-193.505 1907.69,-185.222"/>
<polygon fill="black" stroke="black" points="1909.54,-188.194 1916.36,-180.085 1905.97,-182.172 1909.54,-188.194"/>
</g>
<!-- cycletype -->
<g id="node46" class="node"><title>cycletype</title>
<g id="a_node46"><a xlink:href="Combi.SymGroup.cycletype.html" xlink:title="cycletype">
<polygon fill="#dbc3b6" stroke="#dbc3b6" points="1992,-324 1906,-324 1906,-288 1992,-288 1992,-324"/>
<text text-anchor="middle" x="1949" y="-301.6" font-family="Times,serif" font-size="18.00">cycletype</text>
</a>
</g>
</g>
<!-- permuted&#45;&gt;cycletype -->
<g id="edge68" class="edge"><title>permuted&#45;&gt;cycletype</title>
<path fill="none" stroke="black" d="M1834.18,-359.876C1854.87,-350.349 1880.8,-338.407 1902.78,-328.283"/>
<polygon fill="black" stroke="black" points="1904.32,-331.43 1911.94,-324.068 1901.39,-325.072 1904.32,-331.43"/>
</g>
<!-- skewtab -->
<g id="node12" class="node"><title>skewtab</title>
<g id="a_node12"><a xlink:href="Combi.Combi.skewtab.html" xlink:title="skewtab">
<polygon fill="#dbc3b6" stroke="#dbc3b6" points="1284.5,-900 1207.5,-900 1207.5,-864 1284.5,-864 1284.5,-900"/>
<text text-anchor="middle" x="1246" y="-877.6" font-family="Times,serif" font-size="18.00">skewtab</text>
</a>
</g>
</g>
<!-- stdtab -->
<g id="node14" class="node"><title>stdtab</title>
<g id="a_node14"><a xlink:href="Combi.Combi.stdtab.html" xlink:title="stdtab">
<polygon fill="#dbc3b6" stroke="#dbc3b6" points="1242,-324 1180,-324 1180,-288 1242,-288 1242,-324"/>
<text text-anchor="middle" x="1211" y="-301.6" font-family="Times,serif" font-size="18.00">stdtab</text>
</a>
</g>
</g>
<!-- skewtab&#45;&gt;stdtab -->
<g id="edge64" class="edge"><title>skewtab&#45;&gt;stdtab</title>
<path fill="none" stroke="black" d="M1207.2,-881.38C1120.59,-879.994 919,-863.404 919,-739 919,-739 919,-739 919,-449 919,-338.944 1088.83,-314.164 1169.45,-308.601"/>
<polygon fill="black" stroke="black" points="1169.99,-312.075 1179.75,-307.962 1169.55,-305.089 1169.99,-312.075"/>
</g>
<!-- std -->
<g id="node13" class="node"><title>std</title>
<g id="a_node13"><a xlink:href="Combi.Combi.std.html" xlink:title="std">
<polygon fill="#dbc3b6" stroke="#dbc3b6" points="1688,-252 1634,-252 1634,-216 1688,-216 1688,-252"/>
<text text-anchor="middle" x="1661" y="-229.6" font-family="Times,serif" font-size="18.00">std</text>
</a>
</g>
</g>
<!-- std&#45;&gt;combclass -->
<g id="edge61" class="edge"><title>std&#45;&gt;combclass</title>
<path fill="none" stroke="black" d="M1648.58,-215.871C1630.63,-191.137 1597.34,-145.242 1576.51,-116.512"/>
<polygon fill="black" stroke="black" points="1579.17,-114.229 1570.47,-108.189 1573.51,-118.339 1579.17,-114.229"/>
</g>
<!-- std&#45;&gt;ordtype -->
<g id="edge62" class="edge"><title>std&#45;&gt;ordtype</title>
<path fill="none" stroke="black" d="M1676.68,-215.871C1699.52,-190.924 1742.07,-144.45 1768.32,-115.773"/>
<polygon fill="black" stroke="black" points="1771.09,-117.929 1775.26,-108.189 1765.93,-113.202 1771.09,-117.929"/>
</g>
<!-- permcomp -->
<g id="node40" class="node"><title>permcomp</title>
<g id="a_node40"><a xlink:href="Combi.SSRcomplements.permcomp.html" xlink:title="permcomp">
<polygon fill="#dbc3b6" stroke="#dbc3b6" points="1536,-180 1442,-180 1442,-144 1536,-144 1536,-180"/>
<text text-anchor="middle" x="1489" y="-157.6" font-family="Times,serif" font-size="18.00">permcomp</text>
</a>
</g>
</g>
<!-- std&#45;&gt;permcomp -->
<g id="edge63" class="edge"><title>std&#45;&gt;permcomp</title>
<path fill="none" stroke="black" d="M1633.75,-221.908C1608.68,-211.707 1570.86,-196.314 1540.16,-183.822"/>
<polygon fill="black" stroke="black" points="1541.47,-180.575 1530.89,-180.047 1538.83,-187.058 1541.47,-180.575"/>
</g>
<!-- stdtab&#45;&gt;Yamanouchi -->
<g id="edge58" class="edge"><title>stdtab&#45;&gt;Yamanouchi</title>
<path fill="none" stroke="black" d="M1179.77,-291.337C1156.93,-281.344 1125.51,-267.599 1099.43,-256.187"/>
<polygon fill="black" stroke="black" points="1100.65,-252.901 1090.08,-252.099 1097.84,-259.314 1100.65,-252.901"/>
</g>
<!-- stdtab&#45;&gt;std -->
<g id="edge59" class="edge"><title>stdtab&#45;&gt;std</title>
<path fill="none" stroke="black" d="M1242.08,-302.103C1308.07,-295.653 1466.9,-278.553 1598,-252 1606.54,-250.271 1615.63,-248.046 1624.18,-245.78"/>
<polygon fill="black" stroke="black" points="1625.17,-249.138 1633.89,-243.128 1623.32,-242.385 1625.17,-249.138"/>
</g>
<!-- tableau -->
<g id="node16" class="node"><title>tableau</title>
<g id="a_node16"><a xlink:href="Combi.Combi.tableau.html" xlink:title="tableau">
<polygon fill="#dbc3b6" stroke="#dbc3b6" points="1248,-252 1178,-252 1178,-216 1248,-216 1248,-252"/>
<text text-anchor="middle" x="1213" y="-229.6" font-family="Times,serif" font-size="18.00">tableau</text>
</a>
</g>
</g>
<!-- stdtab&#45;&gt;tableau -->
<g id="edge60" class="edge"><title>stdtab&#45;&gt;tableau</title>
<path fill="none" stroke="black" d="M1211.49,-287.697C1211.71,-279.983 1211.98,-270.712 1212.23,-262.112"/>
<polygon fill="black" stroke="black" points="1215.72,-262.2 1212.51,-252.104 1208.73,-262 1215.72,-262.2"/>
</g>
<!-- subseq -->
<g id="node15" class="node"><title>subseq</title>
<g id="a_node15"><a xlink:href="Combi.Combi.subseq.html" xlink:title="subseq">
<polygon fill="#dbc3b6" stroke="#dbc3b6" points="1069.5,-180 1002.5,-180 1002.5,-144 1069.5,-144 1069.5,-180"/>
<text text-anchor="middle" x="1036" y="-157.6" font-family="Times,serif" font-size="18.00">subseq</text>
</a>
</g>
</g>
<!-- subseq&#45;&gt;combclass -->
<g id="edge56" class="edge"><title>subseq&#45;&gt;combclass</title>
<path fill="none" stroke="black" d="M1069.85,-156.461C1157.61,-144.692 1393.21,-113.098 1501.79,-98.5378"/>
<polygon fill="black" stroke="black" points="1502.45,-101.981 1511.89,-97.1831 1501.52,-95.0434 1502.45,-101.981"/>
</g>
<!-- subseq&#45;&gt;sorted -->
<g id="edge57" class="edge"><title>subseq&#45;&gt;sorted</title>
<path fill="none" stroke="black" d="M1069.73,-152.97C1123.94,-140.063 1230.3,-114.739 1288.88,-100.791"/>
<polygon fill="black" stroke="black" points="1289.97,-104.128 1298.89,-98.4074 1288.35,-97.3188 1289.97,-104.128"/>
</g>
<!-- tableau&#45;&gt;partition -->
<g id="edge55" class="edge"><title>tableau&#45;&gt;partition</title>
<path fill="none" stroke="black" d="M1241.62,-215.876C1256.92,-206.724 1275.94,-195.342 1292.42,-185.485"/>
<polygon fill="black" stroke="black" points="1294.48,-188.327 1301.27,-180.19 1290.89,-182.32 1294.48,-188.327"/>
</g>
<!-- vectNK&#45;&gt;tools -->
<g id="edge54" class="edge"><title>vectNK&#45;&gt;tools</title>
<path fill="none" stroke="black" d="M2085.38,-143.924C2055.8,-125.748 2007.39,-96.3147 1965,-72 1945.06,-60.5654 1922.55,-48.2297 1904.24,-38.3388"/>
<polygon fill="black" stroke="black" points="1905.81,-35.2107 1895.34,-33.551 1902.49,-41.3739 1905.81,-35.2107"/>
</g>
<!-- Erdos_Szekeres -->
<g id="node18" class="node"><title>Erdos_Szekeres</title>
<g id="a_node18"><a xlink:href="Combi.Erdos_Szekeres.Erdos_Szekeres.html" xlink:title="Erdos_Szekeres">
<polygon fill="#dbc3b6" stroke="#dbc3b6" points="2160.5,-756 2027.5,-756 2027.5,-720 2160.5,-720 2160.5,-756"/>
<text text-anchor="middle" x="2094" y="-733.6" font-family="Times,serif" font-size="18.00">Erdos_Szekeres</text>
</a>
</g>
</g>
<!-- Greene_inv -->
<g id="node24" class="node"><title>Greene_inv</title>
<g id="a_node24"><a xlink:href="Combi.LRrule.Greene_inv.html" xlink:title="Greene_inv">
<polygon fill="#dbc3b6" stroke="#dbc3b6" points="2111.5,-684 2010.5,-684 2010.5,-648 2111.5,-648 2111.5,-684"/>
<text text-anchor="middle" x="2061" y="-661.6" font-family="Times,serif" font-size="18.00">Greene_inv</text>
</a>
</g>
</g>
<!-- Erdos_Szekeres&#45;&gt;Greene_inv -->
<g id="edge52" class="edge"><title>Erdos_Szekeres&#45;&gt;Greene_inv</title>
<path fill="none" stroke="black" d="M2085.84,-719.697C2082.09,-711.728 2077.55,-702.1 2073.38,-693.264"/>
<polygon fill="black" stroke="black" points="2076.49,-691.657 2069.06,-684.104 2070.16,-694.642 2076.49,-691.657"/>
</g>
<!-- Frobenius_ident -->
<g id="node19" class="node"><title>Frobenius_ident</title>
<g id="a_node19"><a xlink:href="Combi.HookFormula.Frobenius_ident.html" xlink:title="Frobenius_ident">
<polygon fill="#dbc3b6" stroke="#dbc3b6" points="745.5,-540 608.5,-540 608.5,-504 745.5,-504 745.5,-540"/>
<text text-anchor="middle" x="677" y="-517.6" font-family="Times,serif" font-size="18.00">Frobenius_ident</text>
</a>
</g>
</g>
<!-- hook -->
<g id="node21" class="node"><title>hook</title>
<g id="a_node21"><a xlink:href="Combi.HookFormula.hook.html" xlink:title="hook">
<polygon fill="#dbc3b6" stroke="#dbc3b6" points="640,-468 586,-468 586,-432 640,-432 640,-468"/>
<text text-anchor="middle" x="613" y="-445.6" font-family="Times,serif" font-size="18.00">hook</text>
</a>
</g>
</g>
<!-- Frobenius_ident&#45;&gt;hook -->
<g id="edge31" class="edge"><title>Frobenius_ident&#45;&gt;hook</title>
<path fill="none" stroke="black" d="M661.18,-503.697C653.43,-495.22 643.961,-484.864 635.476,-475.583"/>
<polygon fill="black" stroke="black" points="637.969,-473.123 628.638,-468.104 632.803,-477.846 637.969,-473.123"/>
</g>
<!-- Schensted -->
<g id="node25" class="node"><title>Schensted</title>
<g id="a_node25"><a xlink:href="Combi.LRrule.Schensted.html" xlink:title="Schensted">
<polygon fill="#dbc3b6" stroke="#dbc3b6" points="1184,-468 1092,-468 1092,-432 1184,-432 1184,-468"/>
<text text-anchor="middle" x="1138" y="-445.6" font-family="Times,serif" font-size="18.00">Schensted</text>
</a>
</g>
</g>
<!-- Frobenius_ident&#45;&gt;Schensted -->
<g id="edge32" class="edge"><title>Frobenius_ident&#45;&gt;Schensted</title>
<path fill="none" stroke="black" d="M745.519,-510.596C836.987,-496.707 997.267,-472.369 1081.93,-459.513"/>
<polygon fill="black" stroke="black" points="1082.51,-462.966 1091.87,-458.004 1081.46,-456.045 1082.51,-462.966"/>
</g>
<!-- Qmeasure -->
<g id="node20" class="node"><title>Qmeasure</title>
<g id="a_node20"><a xlink:href="Combi.HookFormula.Qmeasure.html" xlink:title="Qmeasure">
<polygon fill="#dbc3b6" stroke="#dbc3b6" points="271.5,-396 182.5,-396 182.5,-360 271.5,-360 271.5,-396"/>
<text text-anchor="middle" x="227" y="-373.6" font-family="Times,serif" font-size="18.00">Qmeasure</text>
</a>
</g>
</g>
<!-- Qmeasure&#45;&gt;Ccpo -->
<g id="edge28" class="edge"><title>Qmeasure&#45;&gt;Ccpo</title>
<path fill="none" stroke="black" d="M208.955,-359.697C199.938,-351.05 188.882,-340.449 179.057,-331.027"/>
<polygon fill="black" stroke="black" points="181.478,-328.499 171.837,-324.104 176.633,-333.552 181.478,-328.499"/>
</g>
<!-- Qmeasure&#45;&gt;Misc -->
<g id="edge29" class="edge"><title>Qmeasure&#45;&gt;Misc</title>
<path fill="none" stroke="black" d="M182.116,-361.291C146.525,-348.834 97.3884,-331.636 64.0237,-319.958"/>
<polygon fill="black" stroke="black" points="64.8027,-316.523 54.2079,-316.523 62.4902,-323.13 64.8027,-316.523"/>
</g>
<!-- rat_coerce -->
<g id="node41" class="node"><title>rat_coerce</title>
<g id="a_node41"><a xlink:href="Combi.SSRcomplements.rat_coerce.html" xlink:title="rat_coerce">
<polygon fill="#dbc3b6" stroke="#dbc3b6" points="348,-324 254,-324 254,-288 348,-288 348,-324"/>
<text text-anchor="middle" x="301" y="-301.6" font-family="Times,serif" font-size="18.00">rat_coerce</text>
</a>
</g>
</g>
<!-- Qmeasure&#45;&gt;rat_coerce -->
<g id="edge30" class="edge"><title>Qmeasure&#45;&gt;rat_coerce</title>
<path fill="none" stroke="black" d="M245.292,-359.697C254.433,-351.05 265.64,-340.449 275.6,-331.027"/>
<polygon fill="black" stroke="black" points="278.059,-333.519 282.918,-324.104 273.248,-328.434 278.059,-333.519"/>
</g>
<!-- hook&#45;&gt;subseq -->
<g id="edge24" class="edge"><title>hook&#45;&gt;subseq</title>
<path fill="none" stroke="black" d="M585.629,-439.67C566.27,-431.466 541.748,-417.441 530,-396 522.312,-381.968 520.969,-373.208 530,-360 637.409,-202.921 890.031,-171.074 992.085,-164.63"/>
<polygon fill="black" stroke="black" points="992.56,-168.108 1002.34,-164.036 992.156,-161.12 992.56,-168.108"/>
</g>
<!-- hook&#45;&gt;Qmeasure -->
<g id="edge25" class="edge"><title>hook&#45;&gt;Qmeasure</title>
<path fill="none" stroke="black" d="M585.857,-444.078C522.782,-432.639 365.327,-404.085 281.507,-388.885"/>
<polygon fill="black" stroke="black" points="282.125,-385.44 271.661,-387.099 280.876,-392.327 282.125,-385.44"/>
</g>
<!-- recyama -->
<g id="node22" class="node"><title>recyama</title>
<g id="a_node22"><a xlink:href="Combi.HookFormula.recyama.html" xlink:title="recyama">
<polygon fill="#dbc3b6" stroke="#dbc3b6" points="810,-396 732,-396 732,-360 810,-360 810,-396"/>
<text text-anchor="middle" x="771" y="-373.6" font-family="Times,serif" font-size="18.00">recyama</text>
</a>
</g>
</g>
<!-- hook&#45;&gt;recyama -->
<g id="edge26" class="edge"><title>hook&#45;&gt;recyama</title>
<path fill="none" stroke="black" d="M640.161,-436.967C662.892,-426.896 695.874,-412.284 723.036,-400.25"/>
<polygon fill="black" stroke="black" points="724.649,-403.363 732.374,-396.113 721.813,-396.963 724.649,-403.363"/>
</g>
<!-- bigallpairs -->
<g id="node38" class="node"><title>bigallpairs</title>
<g id="a_node38"><a xlink:href="Combi.SSRcomplements.bigallpairs.html" xlink:title="bigallpairs">
<polygon fill="#dbc3b6" stroke="#dbc3b6" points="660,-396 566,-396 566,-360 660,-360 660,-396"/>
<text text-anchor="middle" x="613" y="-373.6" font-family="Times,serif" font-size="18.00">bigallpairs</text>
</a>
</g>
</g>
<!-- hook&#45;&gt;bigallpairs -->
<g id="edge27" class="edge"><title>hook&#45;&gt;bigallpairs</title>
<path fill="none" stroke="black" d="M613,-431.697C613,-423.983 613,-414.712 613,-406.112"/>
<polygon fill="black" stroke="black" points="616.5,-406.104 613,-396.104 609.5,-406.104 616.5,-406.104"/>
</g>
<!-- recyama&#45;&gt;stdtab -->
<g id="edge22" class="edge"><title>recyama&#45;&gt;stdtab</title>
<path fill="none" stroke="black" d="M810.324,-369.549C826.877,-366.481 846.356,-362.959 864,-360 974.165,-341.522 1104.47,-322.334 1169.59,-312.925"/>
<polygon fill="black" stroke="black" points="1170.45,-316.338 1179.85,-311.447 1169.45,-309.409 1170.45,-316.338"/>
</g>
<!-- recyama&#45;&gt;rat_coerce -->
<g id="edge23" class="edge"><title>recyama&#45;&gt;rat_coerce</title>
<path fill="none" stroke="black" d="M731.822,-367.424C720.322,-364.802 707.694,-362.106 696,-360 576.413,-338.468 435.015,-321.537 358.007,-313.026"/>
<polygon fill="black" stroke="black" points="358.354,-309.544 348.032,-311.931 357.59,-316.502 358.354,-309.544"/>
</g>
<!-- Greene -->
<g id="node23" class="node"><title>Greene</title>
<g id="a_node23"><a xlink:href="Combi.LRrule.Greene.html" xlink:title="Greene">
<polygon fill="#dbc3b6" stroke="#dbc3b6" points="2095.5,-612 2026.5,-612 2026.5,-576 2095.5,-576 2095.5,-612"/>
<text text-anchor="middle" x="2061" y="-589.6" font-family="Times,serif" font-size="18.00">Greene</text>
</a>
</g>
</g>
<!-- plactic -->
<g id="node30" class="node"><title>plactic</title>
<g id="a_node30"><a xlink:href="Combi.LRrule.plactic.html" xlink:title="plactic">
<polygon fill="#dbc3b6" stroke="#dbc3b6" points="1834.5,-540 1769.5,-540 1769.5,-504 1834.5,-504 1834.5,-540"/>
<text text-anchor="middle" x="1802" y="-517.6" font-family="Times,serif" font-size="18.00">plactic</text>
</a>
</g>
</g>
<!-- Greene&#45;&gt;plactic -->
<g id="edge46" class="edge"><title>Greene&#45;&gt;plactic</title>
<path fill="none" stroke="black" d="M2026.34,-583.632C1979.3,-570.919 1895.31,-548.218 1844.52,-534.491"/>
<polygon fill="black" stroke="black" points="1845.39,-531.101 1834.82,-531.871 1843.56,-537.858 1845.39,-531.101"/>
</g>
<!-- ordcast -->
<g id="node39" class="node"><title>ordcast</title>
<g id="a_node39"><a xlink:href="Combi.SSRcomplements.ordcast.html" xlink:title="ordcast">
<polygon fill="#dbc3b6" stroke="#dbc3b6" points="2131.5,-468 2060.5,-468 2060.5,-432 2131.5,-432 2131.5,-468"/>
<text text-anchor="middle" x="2096" y="-445.6" font-family="Times,serif" font-size="18.00">ordcast</text>
</a>
</g>
</g>
<!-- Greene&#45;&gt;ordcast -->
<g id="edge47" class="edge"><title>Greene&#45;&gt;ordcast</title>
<path fill="none" stroke="black" d="M2065.22,-575.871C2071.21,-551.564 2082.24,-506.819 2089.34,-478.013"/>
<polygon fill="black" stroke="black" points="2092.77,-478.736 2091.76,-468.189 2085.97,-477.061 2092.77,-478.736"/>
</g>
<!-- Greene_inv&#45;&gt;Greene -->
<g id="edge45" class="edge"><title>Greene_inv&#45;&gt;Greene</title>
<path fill="none" stroke="black" d="M2061,-647.697C2061,-639.983 2061,-630.712 2061,-622.112"/>
<polygon fill="black" stroke="black" points="2064.5,-622.104 2061,-612.104 2057.5,-622.104 2064.5,-622.104"/>
</g>
<!-- Schensted&#45;&gt;stdtab -->
<g id="edge40" class="edge"><title>Schensted&#45;&gt;stdtab</title>
<path fill="none" stroke="black" d="M1146.81,-431.871C1159.41,-407.35 1182.71,-362.032 1197.5,-333.259"/>
<polygon fill="black" stroke="black" points="1200.7,-334.683 1202.16,-324.189 1194.48,-331.483 1200.7,-334.683"/>
</g>
<!-- Schensted&#45;&gt;subseq -->
<g id="edge41" class="edge"><title>Schensted&#45;&gt;subseq</title>
<path fill="none" stroke="black" d="M1113.58,-431.804C1072.53,-401.208 991.126,-332.875 960,-252 954.253,-237.068 952.598,-230.185 960,-216 967.386,-201.844 980.47,-190.698 993.723,-182.356"/>
<polygon fill="black" stroke="black" points="995.537,-185.349 1002.4,-177.275 992,-179.309 995.537,-185.349"/>
</g>
<!-- Yam_plact -->
<g id="node26" class="node"><title>Yam_plact</title>
<g id="a_node26"><a xlink:href="Combi.LRrule.Yam_plact.html" xlink:title="Yam_plact">
<polygon fill="#dbc3b6" stroke="#dbc3b6" points="1999,-828 1903,-828 1903,-792 1999,-792 1999,-828"/>
<text text-anchor="middle" x="1951" y="-805.6" font-family="Times,serif" font-size="18.00">Yam_plact</text>
</a>
</g>
</g>
<!-- stdplact -->
<g id="node32" class="node"><title>stdplact</title>
<g id="a_node32"><a xlink:href="Combi.LRrule.stdplact.html" xlink:title="stdplact">
<polygon fill="#dbc3b6" stroke="#dbc3b6" points="1955,-756 1881,-756 1881,-720 1955,-720 1955,-756"/>
<text text-anchor="middle" x="1918" y="-733.6" font-family="Times,serif" font-size="18.00">stdplact</text>
</a>
</g>
</g>
<!-- Yam_plact&#45;&gt;stdplact -->
<g id="edge35" class="edge"><title>Yam_plact&#45;&gt;stdplact</title>
<path fill="none" stroke="black" d="M1942.84,-791.697C1939.09,-783.728 1934.55,-774.1 1930.38,-765.264"/>
<polygon fill="black" stroke="black" points="1933.49,-763.657 1926.06,-756.104 1927.16,-766.642 1933.49,-763.657"/>
</g>
<!-- extract -->
<g id="node27" class="node"><title>extract</title>
<g id="a_node27"><a xlink:href="Combi.LRrule.extract.html" xlink:title="extract">
<polygon fill="#dbc3b6" stroke="#dbc3b6" points="1439.5,-1116 1372.5,-1116 1372.5,-1080 1439.5,-1080 1439.5,-1116"/>
<text text-anchor="middle" x="1406" y="-1093.6" font-family="Times,serif" font-size="18.00">extract</text>
</a>
</g>
</g>
<!-- implem -->
<g id="node29" class="node"><title>implem</title>
<g id="a_node29"><a xlink:href="Combi.LRrule.implem.html" xlink:title="implem">
<polygon fill="#dbc3b6" stroke="#dbc3b6" points="1441.5,-1044 1370.5,-1044 1370.5,-1008 1441.5,-1008 1441.5,-1044"/>
<text text-anchor="middle" x="1406" y="-1021.6" font-family="Times,serif" font-size="18.00">implem</text>
</a>
</g>
</g>
<!-- extract&#45;&gt;implem -->
<g id="edge51" class="edge"><title>extract&#45;&gt;implem</title>
<path fill="none" stroke="black" d="M1406,-1079.7C1406,-1071.98 1406,-1062.71 1406,-1054.11"/>
<polygon fill="black" stroke="black" points="1409.5,-1054.1 1406,-1044.1 1402.5,-1054.1 1409.5,-1054.1"/>
</g>
<!-- freeSchur -->
<g id="node28" class="node"><title>freeSchur</title>
<g id="a_node28"><a xlink:href="Combi.LRrule.freeSchur.html" xlink:title="freeSchur">
<polygon fill="#dbc3b6" stroke="#dbc3b6" points="1770.5,-900 1683.5,-900 1683.5,-864 1770.5,-864 1770.5,-900"/>
<text text-anchor="middle" x="1727" y="-877.6" font-family="Times,serif" font-size="18.00">freeSchur</text>
</a>
</g>
</g>
<!-- freeSchur&#45;&gt;Yam_plact -->
<g id="edge48" class="edge"><title>freeSchur&#45;&gt;Yam_plact</title>
<path fill="none" stroke="black" d="M1770.72,-867.337C1805.55,-856.453 1854.62,-841.117 1892.78,-829.194"/>
<polygon fill="black" stroke="black" points="1894.23,-832.408 1902.73,-826.085 1892.14,-825.727 1894.23,-832.408"/>
</g>
<!-- shuffle -->
<g id="node31" class="node"><title>shuffle</title>
<g id="a_node31"><a xlink:href="Combi.LRrule.shuffle.html" xlink:title="shuffle">
<polygon fill="#dbc3b6" stroke="#dbc3b6" points="1830.5,-828 1765.5,-828 1765.5,-792 1830.5,-792 1830.5,-828"/>
<text text-anchor="middle" x="1798" y="-805.6" font-family="Times,serif" font-size="18.00">shuffle</text>
</a>
</g>
</g>
<!-- freeSchur&#45;&gt;shuffle -->
<g id="edge49" class="edge"><title>freeSchur&#45;&gt;shuffle</title>
<path fill="none" stroke="black" d="M1744.55,-863.697C1753.23,-855.135 1763.86,-844.656 1773.35,-835.304"/>
<polygon fill="black" stroke="black" points="1775.99,-837.617 1780.65,-828.104 1771.07,-832.633 1775.99,-837.617"/>
</g>
<!-- sympoly -->
<g id="node37" class="node"><title>sympoly</title>
<g id="a_node37"><a xlink:href="Combi.MPoly.sympoly.html" xlink:title="sympoly">
<polygon fill="#dbc3b6" stroke="#dbc3b6" points="1695,-684 1617,-684 1617,-648 1695,-648 1695,-684"/>
<text text-anchor="middle" x="1656" y="-661.6" font-family="Times,serif" font-size="18.00">sympoly</text>
</a>
</g>
</g>
<!-- freeSchur&#45;&gt;sympoly -->
<g id="edge50" class="edge"><title>freeSchur&#45;&gt;sympoly</title>
<path fill="none" stroke="black" d="M1721.31,-863.849C1708.98,-826.675 1679.7,-738.439 1664.9,-693.82"/>
<polygon fill="black" stroke="black" points="1668.19,-692.622 1661.72,-684.232 1661.54,-694.826 1668.19,-692.622"/>
</g>
<!-- therule -->
<g id="node33" class="node"><title>therule</title>
<g id="a_node33"><a xlink:href="Combi.LRrule.therule.html" xlink:title="therule">
<polygon fill="#dbc3b6" stroke="#dbc3b6" points="1519.5,-972 1452.5,-972 1452.5,-936 1519.5,-936 1519.5,-972"/>
<text text-anchor="middle" x="1486" y="-949.6" font-family="Times,serif" font-size="18.00">therule</text>
</a>
</g>
</g>
<!-- implem&#45;&gt;therule -->
<g id="edge44" class="edge"><title>implem&#45;&gt;therule</title>
<path fill="none" stroke="black" d="M1425.78,-1007.7C1435.75,-998.965 1448.01,-988.24 1458.86,-978.75"/>
<polygon fill="black" stroke="black" points="1461.23,-981.323 1466.45,-972.104 1456.62,-976.055 1461.23,-981.323"/>
</g>
<!-- plactic&#45;&gt;congr -->
<g id="edge42" class="edge"><title>plactic&#45;&gt;congr</title>
<path fill="none" stroke="black" d="M1801.01,-503.697C1800.57,-495.983 1800.04,-486.712 1799.55,-478.112"/>
<polygon fill="black" stroke="black" points="1803.04,-477.888 1798.98,-468.104 1796.05,-478.288 1803.04,-477.888"/>
</g>
<!-- plactic&#45;&gt;Schensted -->
<g id="edge43" class="edge"><title>plactic&#45;&gt;Schensted</title>
<path fill="none" stroke="black" d="M1769.22,-511.839C1757.83,-508.946 1744.93,-505.988 1733,-504 1536.73,-471.278 1300.45,-457.834 1194.37,-453.152"/>
<polygon fill="black" stroke="black" points="1194.36,-449.648 1184.21,-452.713 1194.05,-456.641 1194.36,-449.648"/>
</g>
<!-- shuffle&#45;&gt;stdplact -->
<g id="edge39" class="edge"><title>shuffle&#45;&gt;stdplact</title>
<path fill="none" stroke="black" d="M1827.36,-791.876C1843.05,-782.724 1862.56,-771.342 1879.45,-761.485"/>
<polygon fill="black" stroke="black" points="1881.66,-764.252 1888.53,-756.19 1878.13,-758.205 1881.66,-764.252"/>
</g>
<!-- stdplact&#45;&gt;Greene_inv -->
<g id="edge38" class="edge"><title>stdplact&#45;&gt;Greene_inv</title>
<path fill="none" stroke="black" d="M1952.98,-719.876C1972.2,-710.469 1996.23,-698.708 2016.74,-688.667"/>
<polygon fill="black" stroke="black" points="2018.44,-691.73 2025.88,-684.19 2015.36,-685.443 2018.44,-691.73"/>
</g>
<!-- therule&#45;&gt;skewtab -->
<g id="edge36" class="edge"><title>therule&#45;&gt;skewtab</title>
<path fill="none" stroke="black" d="M1452.38,-943.193C1411.19,-931.179 1341.11,-910.741 1294.2,-897.057"/>
<polygon fill="black" stroke="black" points="1295.13,-893.685 1284.55,-894.245 1293.17,-900.405 1295.13,-893.685"/>
</g>
<!-- therule&#45;&gt;freeSchur -->
<g id="edge37" class="edge"><title>therule&#45;&gt;freeSchur</title>
<path fill="none" stroke="black" d="M1519.51,-943.267C1559.36,-931.693 1626.38,-912.226 1673.44,-898.556"/>
<polygon fill="black" stroke="black" points="1674.54,-901.883 1683.16,-895.732 1672.59,-895.161 1674.54,-901.883"/>
</g>
<!-- Schur_basis -->
<g id="node34" class="node"><title>Schur_basis</title>
<g id="a_node34"><a xlink:href="Combi.MPoly.Schur_basis.html" xlink:title="Schur_basis">
<polygon fill="#dbc3b6" stroke="#dbc3b6" points="1618.5,-1044 1513.5,-1044 1513.5,-1008 1618.5,-1008 1618.5,-1044"/>
<text text-anchor="middle" x="1566" y="-1021.6" font-family="Times,serif" font-size="18.00">Schur_basis</text>
</a>
</g>
</g>
<!-- Schur_basis&#45;&gt;therule -->
<g id="edge1" class="edge"><title>Schur_basis&#45;&gt;therule</title>
<path fill="none" stroke="black" d="M1546.22,-1007.7C1536.25,-998.965 1523.99,-988.24 1513.14,-978.75"/>
<polygon fill="black" stroke="black" points="1515.38,-976.055 1505.55,-972.104 1510.77,-981.323 1515.38,-976.055"/>
</g>
<!-- antisym -->
<g id="node35" class="node"><title>antisym</title>
<g id="a_node35"><a xlink:href="Combi.MPoly.antisym.html" xlink:title="antisym">
<polygon fill="#dbc3b6" stroke="#dbc3b6" points="1696,-612 1622,-612 1622,-576 1696,-576 1696,-612"/>
<text text-anchor="middle" x="1659" y="-589.6" font-family="Times,serif" font-size="18.00">antisym</text>
</a>
</g>
</g>
<!-- presentSn -->
<g id="node48" class="node"><title>presentSn</title>
<g id="a_node48"><a xlink:href="Combi.SymGroup.presentSn.html" xlink:title="presentSn">
<polygon fill="#dbc3b6" stroke="#dbc3b6" points="1697.5,-540 1608.5,-540 1608.5,-504 1697.5,-504 1697.5,-540"/>
<text text-anchor="middle" x="1653" y="-517.6" font-family="Times,serif" font-size="18.00">presentSn</text>
</a>
</g>
</g>
<!-- antisym&#45;&gt;presentSn -->
<g id="edge6" class="edge"><title>antisym&#45;&gt;presentSn</title>
<path fill="none" stroke="black" d="M1657.52,-575.697C1656.86,-567.983 1656.06,-558.712 1655.32,-550.112"/>
<polygon fill="black" stroke="black" points="1658.81,-549.769 1654.47,-540.104 1651.83,-550.367 1658.81,-549.769"/>
</g>
<!-- symhomog -->
<g id="node36" class="node"><title>symhomog</title>
<g id="a_node36"><a xlink:href="Combi.MPoly.symhomog.html" xlink:title="symhomog">
<polygon fill="#dbc3b6" stroke="#dbc3b6" points="1615,-1116 1517,-1116 1517,-1080 1615,-1080 1615,-1116"/>
<text text-anchor="middle" x="1566" y="-1093.6" font-family="Times,serif" font-size="18.00">symhomog</text>
</a>
</g>
</g>
<!-- symhomog&#45;&gt;Schur_basis -->
<g id="edge5" class="edge"><title>symhomog&#45;&gt;Schur_basis</title>
<path fill="none" stroke="black" d="M1566,-1079.7C1566,-1071.98 1566,-1062.71 1566,-1054.11"/>
<polygon fill="black" stroke="black" points="1569.5,-1054.1 1566,-1044.1 1562.5,-1054.1 1569.5,-1054.1"/>
</g>
<!-- sympoly&#45;&gt;stdtab -->
<g id="edge2" class="edge"><title>sympoly&#45;&gt;stdtab</title>
<path fill="none" stroke="black" d="M1616.84,-656.5C1554.28,-642.826 1437.97,-616.967 1430,-612 1386.58,-584.951 1357,-574.159 1357,-523 1357,-523 1357,-523 1357,-449 1357,-389.87 1294.7,-347.397 1251.49,-325.052"/>
<polygon fill="black" stroke="black" points="1252.83,-321.808 1242.32,-320.46 1249.69,-328.067 1252.83,-321.808"/>
</g>
<!-- sympoly&#45;&gt;antisym -->
<g id="edge3" class="edge"><title>sympoly&#45;&gt;antisym</title>
<path fill="none" stroke="black" d="M1656.74,-647.697C1657.07,-639.983 1657.47,-630.712 1657.84,-622.112"/>
<polygon fill="black" stroke="black" points="1661.34,-622.245 1658.27,-612.104 1654.34,-621.945 1661.34,-622.245"/>
</g>
<!-- permcent -->
<g id="node47" class="node"><title>permcent</title>
<g id="a_node47"><a xlink:href="Combi.SymGroup.permcent.html" xlink:title="permcent">
<polygon fill="#dbc3b6" stroke="#dbc3b6" points="1886,-612 1802,-612 1802,-576 1886,-576 1886,-612"/>
<text text-anchor="middle" x="1844" y="-589.6" font-family="Times,serif" font-size="18.00">permcent</text>
</a>
</g>
</g>
<!-- sympoly&#45;&gt;permcent -->
<g id="edge4" class="edge"><title>sympoly&#45;&gt;permcent</title>
<path fill="none" stroke="black" d="M1695.41,-650.326C1723.49,-639.871 1761.51,-625.714 1792.06,-614.338"/>
<polygon fill="black" stroke="black" points="1793.55,-617.519 1801.7,-610.75 1791.11,-610.959 1793.55,-617.519"/>
</g>
<!-- ordcast&#45;&gt;tools -->
<g id="edge34" class="edge"><title>ordcast&#45;&gt;tools</title>
<path fill="none" stroke="black" d="M2131.77,-436.257C2179.75,-416.599 2259,-373.993 2259,-307 2259,-307 2259,-307 2259,-161 2259,-86.1801 2002.86,-39.4524 1905.21,-24.3563"/>
<polygon fill="black" stroke="black" points="1905.6,-20.8753 1895.18,-22.8323 1904.54,-27.7958 1905.6,-20.8753"/>
</g>
<!-- sorted&#45;&gt;tools -->
<g id="edge33" class="edge"><title>sorted&#45;&gt;tools</title>
<path fill="none" stroke="black" d="M1361.25,-84.9339C1454.5,-72.8017 1730.48,-36.8923 1830.92,-23.8247"/>
<polygon fill="black" stroke="black" points="1831.44,-27.2863 1840.91,-22.5252 1830.54,-20.3448 1831.44,-27.2863"/>
</g>
<!-- Frobenius_char -->
<g id="node44" class="node"><title>Frobenius_char</title>
<g id="a_node44"><a xlink:href="Combi.SymGroup.Frobenius_char.html" xlink:title="Frobenius_char">
<polygon fill="#dbc3b6" stroke="#dbc3b6" points="1546.5,-756 1415.5,-756 1415.5,-720 1546.5,-720 1546.5,-756"/>
<text text-anchor="middle" x="1481" y="-733.6" font-family="Times,serif" font-size="18.00">Frobenius_char</text>
</a>
</g>
</g>
<!-- Frobenius_char&#45;&gt;sympoly -->
<g id="edge13" class="edge"><title>Frobenius_char&#45;&gt;sympoly</title>
<path fill="none" stroke="black" d="M1523.81,-719.876C1549.13,-709.746 1581.28,-696.886 1607.54,-686.385"/>
<polygon fill="black" stroke="black" points="1608.93,-689.596 1616.92,-682.632 1606.34,-683.096 1608.93,-689.596"/>
</g>
<!-- cycles -->
<g id="node45" class="node"><title>cycles</title>
<g id="a_node45"><a xlink:href="Combi.SymGroup.cycles.html" xlink:title="cycles">
<polygon fill="#dbc3b6" stroke="#dbc3b6" points="1562,-252 1500,-252 1500,-216 1562,-216 1562,-252"/>
<text text-anchor="middle" x="1531" y="-229.6" font-family="Times,serif" font-size="18.00">cycles</text>
</a>
</g>
</g>
<!-- cycles&#45;&gt;partition -->
<g id="edge16" class="edge"><title>cycles&#45;&gt;partition</title>
<path fill="none" stroke="black" d="M1499.59,-222.062C1467.57,-210.908 1417.39,-193.435 1379.91,-180.383"/>
<polygon fill="black" stroke="black" points="1380.79,-176.981 1370.19,-176.997 1378.48,-183.592 1380.79,-176.981"/>
</g>
<!-- cycles&#45;&gt;permcomp -->
<g id="edge17" class="edge"><title>cycles&#45;&gt;permcomp</title>
<path fill="none" stroke="black" d="M1520.62,-215.697C1515.74,-207.559 1509.81,-197.689 1504.42,-188.701"/>
<polygon fill="black" stroke="black" points="1507.41,-186.879 1499.26,-180.104 1501.41,-190.48 1507.41,-186.879"/>
</g>
<!-- cycletype&#45;&gt;fibered_set -->
<g id="edge14" class="edge"><title>cycletype&#45;&gt;fibered_set</title>
<path fill="none" stroke="black" d="M1950.48,-287.697C1951.14,-279.983 1951.94,-270.712 1952.68,-262.112"/>
<polygon fill="black" stroke="black" points="1956.17,-262.367 1953.53,-252.104 1949.19,-261.769 1956.17,-262.367"/>
</g>
<!-- cycletype&#45;&gt;cycles -->
<g id="edge15" class="edge"><title>cycletype&#45;&gt;cycles</title>
<path fill="none" stroke="black" d="M1905.8,-299.872C1839.33,-291.666 1708.1,-274.223 1598,-252 1589.55,-250.293 1580.56,-248.205 1572,-246.084"/>
<polygon fill="black" stroke="black" points="1572.77,-242.667 1562.21,-243.599 1571.04,-249.452 1572.77,-242.667"/>
</g>
<!-- towerSn -->
<g id="node51" class="node"><title>towerSn</title>
<g id="a_node51"><a xlink:href="Combi.SymGroup.towerSn.html" xlink:title="towerSn">
<polygon fill="#dbc3b6" stroke="#dbc3b6" points="1986.5,-540 1907.5,-540 1907.5,-504 1986.5,-504 1986.5,-540"/>
<text text-anchor="middle" x="1947" y="-517.6" font-family="Times,serif" font-size="18.00">towerSn</text>
</a>
</g>
</g>
<!-- permcent&#45;&gt;towerSn -->
<g id="edge12" class="edge"><title>permcent&#45;&gt;towerSn</title>
<path fill="none" stroke="black" d="M1869.2,-575.876C1882.41,-566.893 1898.79,-555.763 1913.11,-546.034"/>
<polygon fill="black" stroke="black" points="1915.4,-548.705 1921.71,-540.19 1911.47,-542.916 1915.4,-548.705"/>
</g>
<!-- presentSn&#45;&gt;congr -->
<g id="edge11" class="edge"><title>presentSn&#45;&gt;congr</title>
<path fill="none" stroke="black" d="M1688.47,-503.876C1709.89,-493.535 1737.21,-480.347 1759.2,-469.729"/>
<polygon fill="black" stroke="black" points="1760.79,-472.851 1768.27,-465.352 1757.74,-466.547 1760.79,-472.851"/>
</g>
<!-- reprS2 -->
<g id="node49" class="node"><title>reprS2</title>
<g id="a_node49"><a xlink:href="Combi.SymGroup.reprS2.html" xlink:title="reprS2">
<polygon fill="#dbc3b6" stroke="#dbc3b6" points="1540.5,-684 1475.5,-684 1475.5,-648 1540.5,-648 1540.5,-684"/>
<text text-anchor="middle" x="1508" y="-661.6" font-family="Times,serif" font-size="18.00">reprS2</text>
</a>
</g>
</g>
<!-- reprdim1 -->
<g id="node50" class="node"><title>reprdim1</title>
<g id="a_node50"><a xlink:href="Combi.SymGroup.reprdim1.html" xlink:title="reprdim1">
<polygon fill="#dbc3b6" stroke="#dbc3b6" points="1549.5,-612 1466.5,-612 1466.5,-576 1549.5,-576 1549.5,-612"/>
<text text-anchor="middle" x="1508" y="-589.6" font-family="Times,serif" font-size="18.00">reprdim1</text>
</a>
</g>
</g>
<!-- reprS2&#45;&gt;reprdim1 -->
<g id="edge9" class="edge"><title>reprS2&#45;&gt;reprdim1</title>
<path fill="none" stroke="black" d="M1508,-647.697C1508,-639.983 1508,-630.712 1508,-622.112"/>
<polygon fill="black" stroke="black" points="1511.5,-622.104 1508,-612.104 1504.5,-622.104 1511.5,-622.104"/>
</g>
<!-- reprdim1&#45;&gt;presentSn -->
<g id="edge10" class="edge"><title>reprdim1&#45;&gt;presentSn</title>
<path fill="none" stroke="black" d="M1543.47,-575.876C1563.12,-566.392 1587.72,-554.513 1608.63,-544.419"/>
<polygon fill="black" stroke="black" points="1610.16,-547.568 1617.64,-540.068 1607.12,-541.264 1610.16,-547.568"/>
</g>
<!-- towerSn&#45;&gt;ordcast -->
<g id="edge7" class="edge"><title>towerSn&#45;&gt;ordcast</title>
<path fill="none" stroke="black" d="M1983.45,-503.876C2003.86,-494.286 2029.49,-482.248 2051.13,-472.082"/>
<polygon fill="black" stroke="black" points="2052.88,-475.126 2060.44,-467.706 2049.9,-468.79 2052.88,-475.126"/>
</g>
<!-- towerSn&#45;&gt;cycletype -->
<g id="edge8" class="edge"><title>towerSn&#45;&gt;cycletype</title>
<path fill="none" stroke="black" d="M1947.16,-503.849C1947.51,-466.832 1948.33,-379.181 1948.74,-334.386"/>
<polygon fill="black" stroke="black" points="1952.25,-334.265 1948.84,-324.232 1945.25,-334.199 1952.25,-334.265"/>
</g>
</g>
</svg>
