<?xml version="1.0" encoding="UTF-8" standalone="no"?>
<!DOCTYPE svg PUBLIC "-//W3C//DTD SVG 1.1//EN"
 "http://www.w3.org/Graphics/SVG/1.1/DTD/svg11.dtd">
<!-- Generated by graphviz version 2.38.0 (20140413.2041)
 -->
<!-- Title: depend Pages: 1 -->
<svg width="2292pt" height="1052pt"
 viewBox="0.00 0.00 2291.50 1052.00" xmlns="http://www.w3.org/2000/svg" xmlns:xlink="http://www.w3.org/1999/xlink">
<g id="graph0" class="graph" transform="scale(1 1) rotate(0) translate(4 1048)">
<title>depend</title>
<!-- Ccpo -->
<g id="node1" class="node"><title>Ccpo</title>
<g id="a_node1"><a xlink:href="3rdparty.ALEA.Ccpo.html" xlink:title="Ccpo">
<polygon fill="#dbc3b6" stroke="#dbc3b6" points="56,-324 0,-324 0,-288 56,-288 56,-324"/>
<text text-anchor="middle" x="28" y="-301.6" font-family="Times,serif" font-size="18.00">Ccpo</text>
</a>
</g>
</g>
<!-- Misc -->
<g id="node2" class="node"><title>Misc</title>
<g id="a_node2"><a xlink:href="3rdparty.ALEA.Misc.html" xlink:title="Misc">
<polygon fill="#dbc3b6" stroke="#dbc3b6" points="182,-324 128,-324 128,-288 182,-288 182,-324"/>
<text text-anchor="middle" x="155" y="-301.6" font-family="Times,serif" font-size="18.00">Misc</text>
</a>
</g>
</g>
<!-- combclass -->
<g id="node3" class="node"><title>combclass</title>
<g id="a_node3"><a xlink:href="Combi.Basic.combclass.html" xlink:title="combclass">
<polygon fill="#dbc3b6" stroke="#dbc3b6" points="1563,-108 1471,-108 1471,-72 1563,-72 1563,-108"/>
<text text-anchor="middle" x="1517" y="-85.6" font-family="Times,serif" font-size="18.00">combclass</text>
</a>
</g>
</g>
<!-- tools -->
<g id="node42" class="node"><title>tools</title>
<g id="a_node42"><a xlink:href="Combi.SSRcomplements.tools.html" xlink:title="tools">
<polygon fill="#dbc3b6" stroke="#dbc3b6" points="1544,-36 1490,-36 1490,-0 1544,-0 1544,-36"/>
<text text-anchor="middle" x="1517" y="-13.6" font-family="Times,serif" font-size="18.00">tools</text>
</a>
</g>
</g>
<!-- combclass&#45;&gt;tools -->
<g id="edge15" class="edge"><title>combclass&#45;&gt;tools</title>
<path fill="none" stroke="black" d="M1517,-71.6966C1517,-63.9827 1517,-54.7125 1517,-46.1124"/>
<polygon fill="black" stroke="black" points="1520.5,-46.1043 1517,-36.1043 1513.5,-46.1044 1520.5,-46.1043"/>
</g>
<!-- congr -->
<g id="node4" class="node"><title>congr</title>
<g id="a_node4"><a xlink:href="Combi.Basic.congr.html" xlink:title="congr">
<polygon fill="#dbc3b6" stroke="#dbc3b6" points="1990.5,-252 1931.5,-252 1931.5,-216 1990.5,-216 1990.5,-252"/>
<text text-anchor="middle" x="1961" y="-229.6" font-family="Times,serif" font-size="18.00">congr</text>
</a>
</g>
</g>
<!-- permuted -->
<g id="node10" class="node"><title>permuted</title>
<g id="a_node10"><a xlink:href="Combi.Combi.permuted.html" xlink:title="permuted">
<polygon fill="#dbc3b6" stroke="#dbc3b6" points="1566,-180 1480,-180 1480,-144 1566,-144 1566,-180"/>
<text text-anchor="middle" x="1523" y="-157.6" font-family="Times,serif" font-size="18.00">permuted</text>
</a>
</g>
</g>
<!-- congr&#45;&gt;permuted -->
<g id="edge24" class="edge"><title>congr&#45;&gt;permuted</title>
<path fill="none" stroke="black" d="M1931.26,-224.595C1919.97,-221.601 1906.95,-218.383 1895,-216 1782.5,-193.568 1649.02,-176.945 1576.48,-168.736"/>
<polygon fill="black" stroke="black" points="1576.55,-165.222 1566.22,-167.586 1575.77,-172.179 1576.55,-165.222"/>
</g>
<!-- vectNK -->
<g id="node17" class="node"><title>vectNK</title>
<g id="a_node17"><a xlink:href="Combi.Combi.vectNK.html" xlink:title="vectNK">
<polygon fill="#dbc3b6" stroke="#dbc3b6" points="1855,-180 1781,-180 1781,-144 1855,-144 1855,-180"/>
<text text-anchor="middle" x="1818" y="-157.6" font-family="Times,serif" font-size="18.00">vectNK</text>
</a>
</g>
</g>
<!-- congr&#45;&gt;vectNK -->
<g id="edge25" class="edge"><title>congr&#45;&gt;vectNK</title>
<path fill="none" stroke="black" d="M1931.37,-218.496C1911.31,-208.676 1884.46,-195.533 1861.93,-184.502"/>
<polygon fill="black" stroke="black" points="1863.41,-181.33 1852.89,-180.077 1860.33,-187.617 1863.41,-181.33"/>
</g>
<!-- ordtype -->
<g id="node5" class="node"><title>ordtype</title>
<g id="a_node5"><a xlink:href="Combi.Basic.ordtype.html" xlink:title="ordtype">
<polygon fill="#dbc3b6" stroke="#dbc3b6" points="1265,-108 1191,-108 1191,-72 1265,-72 1265,-108"/>
<text text-anchor="middle" x="1228" y="-85.6" font-family="Times,serif" font-size="18.00">ordtype</text>
</a>
</g>
</g>
<!-- ordtype&#45;&gt;tools -->
<g id="edge23" class="edge"><title>ordtype&#45;&gt;tools</title>
<path fill="none" stroke="black" d="M1265.19,-79.992C1320.73,-66.5392 1424.73,-41.3494 1480.1,-27.9376"/>
<polygon fill="black" stroke="black" points="1480.96,-31.3316 1489.85,-25.5758 1479.31,-24.5283 1480.96,-31.3316"/>
</g>
<!-- Yamanouchi -->
<g id="node6" class="node"><title>Yamanouchi</title>
<g id="a_node6"><a xlink:href="Combi.Combi.Yamanouchi.html" xlink:title="Yamanouchi">
<polygon fill="#dbc3b6" stroke="#dbc3b6" points="841,-252 731,-252 731,-216 841,-216 841,-252"/>
<text text-anchor="middle" x="786" y="-229.6" font-family="Times,serif" font-size="18.00">Yamanouchi</text>
</a>
</g>
</g>
<!-- partition -->
<g id="node9" class="node"><title>partition</title>
<g id="a_node9"><a xlink:href="Combi.Combi.partition.html" xlink:title="partition">
<polygon fill="#dbc3b6" stroke="#dbc3b6" points="1408,-180 1328,-180 1328,-144 1408,-144 1408,-180"/>
<text text-anchor="middle" x="1368" y="-157.6" font-family="Times,serif" font-size="18.00">partition</text>
</a>
</g>
</g>
<!-- Yamanouchi&#45;&gt;partition -->
<g id="edge73" class="edge"><title>Yamanouchi&#45;&gt;partition</title>
<path fill="none" stroke="black" d="M841.201,-221.792C852.981,-219.652 865.375,-217.587 877,-216 1060,-191.012 1108.44,-207.968 1291,-180 1299.75,-178.659 1308.99,-176.911 1317.92,-175.047"/>
<polygon fill="black" stroke="black" points="1318.79,-178.441 1327.82,-172.909 1317.31,-171.599 1318.79,-178.441"/>
</g>
<!-- composition -->
<g id="node7" class="node"><title>composition</title>
<g id="a_node7"><a xlink:href="Combi.Combi.composition.html" xlink:title="composition">
<polygon fill="#dbc3b6" stroke="#dbc3b6" points="1586,-396 1478,-396 1478,-360 1586,-360 1586,-396"/>
<text text-anchor="middle" x="1532" y="-373.6" font-family="Times,serif" font-size="18.00">composition</text>
</a>
</g>
</g>
<!-- composition&#45;&gt;partition -->
<g id="edge68" class="edge"><title>composition&#45;&gt;partition</title>
<path fill="none" stroke="black" d="M1522.12,-359.671C1504.37,-329.181 1465.07,-264.576 1424,-216 1415.49,-205.938 1405.25,-195.777 1395.86,-187.082"/>
<polygon fill="black" stroke="black" points="1397.99,-184.288 1388.23,-180.157 1393.28,-189.47 1397.99,-184.288"/>
</g>
<!-- multinomials -->
<g id="node8" class="node"><title>multinomials</title>
<g id="a_node8"><a xlink:href="Combi.Combi.multinomials.html" xlink:title="multinomials">
<polygon fill="#dbc3b6" stroke="#dbc3b6" points="1709.5,-468 1598.5,-468 1598.5,-432 1709.5,-432 1709.5,-468"/>
<text text-anchor="middle" x="1654" y="-445.6" font-family="Times,serif" font-size="18.00">multinomials</text>
</a>
</g>
</g>
<!-- multinomials&#45;&gt;composition -->
<g id="edge66" class="edge"><title>multinomials&#45;&gt;composition</title>
<path fill="none" stroke="black" d="M1624.16,-431.876C1608.06,-422.639 1588,-411.131 1570.71,-401.212"/>
<polygon fill="black" stroke="black" points="1572.37,-398.131 1561.96,-396.19 1568.89,-404.202 1572.37,-398.131"/>
</g>
<!-- cycletype -->
<g id="node46" class="node"><title>cycletype</title>
<g id="a_node46"><a xlink:href="Combi.SymGroup.cycletype.html" xlink:title="cycletype">
<polygon fill="#dbc3b6" stroke="#dbc3b6" points="1994,-396 1908,-396 1908,-360 1994,-360 1994,-396"/>
<text text-anchor="middle" x="1951" y="-373.6" font-family="Times,serif" font-size="18.00">cycletype</text>
</a>
</g>
</g>
<!-- multinomials&#45;&gt;cycletype -->
<g id="edge67" class="edge"><title>multinomials&#45;&gt;cycletype</title>
<path fill="none" stroke="black" d="M1709.52,-435.916C1763.46,-423.202 1844.79,-404.032 1897.9,-391.515"/>
<polygon fill="black" stroke="black" points="1898.87,-394.882 1907.8,-389.181 1897.27,-388.069 1898.87,-394.882"/>
</g>
<!-- partition&#45;&gt;combclass -->
<g id="edge70" class="edge"><title>partition&#45;&gt;combclass</title>
<path fill="none" stroke="black" d="M1404.45,-143.876C1424.64,-134.392 1449.92,-122.513 1471.41,-112.419"/>
<polygon fill="black" stroke="black" points="1473.11,-115.488 1480.67,-108.068 1470.13,-109.153 1473.11,-115.488"/>
</g>
<!-- partition&#45;&gt;ordtype -->
<g id="edge71" class="edge"><title>partition&#45;&gt;ordtype</title>
<path fill="none" stroke="black" d="M1333.75,-143.876C1314.94,-134.469 1291.42,-122.708 1271.33,-112.667"/>
<polygon fill="black" stroke="black" points="1272.89,-109.531 1262.38,-108.19 1269.76,-115.792 1272.89,-109.531"/>
</g>
<!-- sorted -->
<g id="node41" class="node"><title>sorted</title>
<g id="a_node41"><a xlink:href="Combi.SSRcomplements.sorted.html" xlink:title="sorted">
<polygon fill="#dbc3b6" stroke="#dbc3b6" points="1399,-108 1337,-108 1337,-72 1399,-72 1399,-108"/>
<text text-anchor="middle" x="1368" y="-85.6" font-family="Times,serif" font-size="18.00">sorted</text>
</a>
</g>
</g>
<!-- partition&#45;&gt;sorted -->
<g id="edge72" class="edge"><title>partition&#45;&gt;sorted</title>
<path fill="none" stroke="black" d="M1368,-143.697C1368,-135.983 1368,-126.712 1368,-118.112"/>
<polygon fill="black" stroke="black" points="1371.5,-118.104 1368,-108.104 1364.5,-118.104 1371.5,-118.104"/>
</g>
<!-- permuted&#45;&gt;combclass -->
<g id="edge69" class="edge"><title>permuted&#45;&gt;combclass</title>
<path fill="none" stroke="black" d="M1521.52,-143.697C1520.86,-135.983 1520.06,-126.712 1519.32,-118.112"/>
<polygon fill="black" stroke="black" points="1522.81,-117.769 1518.47,-108.104 1515.83,-118.367 1522.81,-117.769"/>
</g>
<!-- skewtab -->
<g id="node11" class="node"><title>skewtab</title>
<g id="a_node11"><a xlink:href="Combi.Combi.skewtab.html" xlink:title="skewtab">
<polygon fill="#dbc3b6" stroke="#dbc3b6" points="1125.5,-828 1048.5,-828 1048.5,-792 1125.5,-792 1125.5,-828"/>
<text text-anchor="middle" x="1087" y="-805.6" font-family="Times,serif" font-size="18.00">skewtab</text>
</a>
</g>
</g>
<!-- stdtab -->
<g id="node14" class="node"><title>stdtab</title>
<g id="a_node14"><a xlink:href="Combi.Combi.stdtab.html" xlink:title="stdtab">
<polygon fill="#dbc3b6" stroke="#dbc3b6" points="979,-324 917,-324 917,-288 979,-288 979,-324"/>
<text text-anchor="middle" x="948" y="-301.6" font-family="Times,serif" font-size="18.00">stdtab</text>
</a>
</g>
</g>
<!-- skewtab&#45;&gt;stdtab -->
<g id="edge65" class="edge"><title>skewtab&#45;&gt;stdtab</title>
<path fill="none" stroke="black" d="M1048.38,-796.815C997.122,-777.944 913,-736.404 913,-667 913,-667 913,-667 913,-449 913,-407.843 927.032,-361.876 937.327,-333.69"/>
<polygon fill="black" stroke="black" points="940.669,-334.744 940.917,-324.152 934.118,-332.278 940.669,-334.744"/>
</g>
<!-- slicedbij -->
<g id="node12" class="node"><title>slicedbij</title>
<g id="a_node12"><a xlink:href="Combi.Combi.slicedbij.html" xlink:title="slicedbij">
<polygon fill="#dbc3b6" stroke="#dbc3b6" points="1993.5,-324 1914.5,-324 1914.5,-288 1993.5,-288 1993.5,-324"/>
<text text-anchor="middle" x="1954" y="-301.6" font-family="Times,serif" font-size="18.00">slicedbij</text>
</a>
</g>
</g>
<!-- std -->
<g id="node13" class="node"><title>std</title>
<g id="a_node13"><a xlink:href="Combi.Combi.std.html" xlink:title="std">
<polygon fill="#dbc3b6" stroke="#dbc3b6" points="1109,-252 1055,-252 1055,-216 1109,-216 1109,-252"/>
<text text-anchor="middle" x="1082" y="-229.6" font-family="Times,serif" font-size="18.00">std</text>
</a>
</g>
</g>
<!-- std&#45;&gt;ordtype -->
<g id="edge63" class="edge"><title>std&#45;&gt;ordtype</title>
<path fill="none" stroke="black" d="M1093.31,-215.698C1106.15,-196.803 1128.41,-166.267 1152,-144 1163.69,-132.964 1177.83,-122.468 1190.74,-113.771"/>
<polygon fill="black" stroke="black" points="1193,-116.475 1199.42,-108.054 1189.15,-110.627 1193,-116.475"/>
</g>
<!-- std&#45;&gt;permuted -->
<g id="edge64" class="edge"><title>std&#45;&gt;permuted</title>
<path fill="none" stroke="black" d="M1109.35,-229.628C1169.87,-222.029 1319.61,-202.463 1444,-180 1452.34,-178.495 1461.13,-176.754 1469.71,-174.972"/>
<polygon fill="black" stroke="black" points="1470.58,-178.366 1479.64,-172.874 1469.13,-171.517 1470.58,-178.366"/>
</g>
<!-- stdtab&#45;&gt;Yamanouchi -->
<g id="edge59" class="edge"><title>stdtab&#45;&gt;Yamanouchi</title>
<path fill="none" stroke="black" d="M916.765,-291.503C893.591,-281.49 861.543,-267.642 834.975,-256.162"/>
<polygon fill="black" stroke="black" points="836.029,-252.805 825.461,-252.051 833.253,-259.231 836.029,-252.805"/>
</g>
<!-- stdtab&#45;&gt;std -->
<g id="edge60" class="edge"><title>stdtab&#45;&gt;std</title>
<path fill="none" stroke="black" d="M979.079,-288.765C999.014,-278.351 1024.97,-264.79 1045.83,-253.894"/>
<polygon fill="black" stroke="black" points="1047.48,-256.982 1054.72,-249.25 1044.24,-250.778 1047.48,-256.982"/>
</g>
<!-- tableau -->
<g id="node16" class="node"><title>tableau</title>
<g id="a_node16"><a xlink:href="Combi.Combi.tableau.html" xlink:title="tableau">
<polygon fill="#dbc3b6" stroke="#dbc3b6" points="983,-252 913,-252 913,-216 983,-216 983,-252"/>
<text text-anchor="middle" x="948" y="-229.6" font-family="Times,serif" font-size="18.00">tableau</text>
</a>
</g>
</g>
<!-- stdtab&#45;&gt;tableau -->
<g id="edge61" class="edge"><title>stdtab&#45;&gt;tableau</title>
<path fill="none" stroke="black" d="M948,-287.697C948,-279.983 948,-270.712 948,-262.112"/>
<polygon fill="black" stroke="black" points="951.5,-262.104 948,-252.104 944.5,-262.104 951.5,-262.104"/>
</g>
<!-- subseq -->
<g id="node15" class="node"><title>subseq</title>
<g id="a_node15"><a xlink:href="Combi.Combi.subseq.html" xlink:title="subseq">
<polygon fill="#dbc3b6" stroke="#dbc3b6" points="1255.5,-180 1188.5,-180 1188.5,-144 1255.5,-144 1255.5,-180"/>
<text text-anchor="middle" x="1222" y="-157.6" font-family="Times,serif" font-size="18.00">subseq</text>
</a>
</g>
</g>
<!-- subseq&#45;&gt;combclass -->
<g id="edge57" class="edge"><title>subseq&#45;&gt;combclass</title>
<path fill="none" stroke="black" d="M1255.81,-152.738C1267.29,-149.946 1280.2,-146.822 1292,-144 1349.51,-130.243 1415.36,-114.763 1460.9,-104.102"/>
<polygon fill="black" stroke="black" points="1461.93,-107.455 1470.87,-101.768 1460.33,-100.639 1461.93,-107.455"/>
</g>
<!-- subseq&#45;&gt;sorted -->
<g id="edge58" class="edge"><title>subseq&#45;&gt;sorted</title>
<path fill="none" stroke="black" d="M1255.86,-144.765C1277.24,-134.516 1304.97,-121.22 1327.51,-110.415"/>
<polygon fill="black" stroke="black" points="1329.31,-113.432 1336.81,-105.952 1326.28,-107.12 1329.31,-113.432"/>
</g>
<!-- tableau&#45;&gt;partition -->
<g id="edge62" class="edge"><title>tableau&#45;&gt;partition</title>
<path fill="none" stroke="black" d="M983.238,-223.802C994.601,-221.041 1007.29,-218.172 1019,-216 1138.9,-193.773 1170.91,-201.164 1291,-180 1299.72,-178.464 1308.94,-176.619 1317.87,-174.719"/>
<polygon fill="black" stroke="black" points="1318.74,-178.111 1327.77,-172.565 1317.25,-171.271 1318.74,-178.111"/>
</g>
<!-- vectNK&#45;&gt;tools -->
<g id="edge74" class="edge"><title>vectNK&#45;&gt;tools</title>
<path fill="none" stroke="black" d="M1781.69,-143.871C1723.78,-116.55 1611.14,-63.4112 1553.26,-36.1049"/>
<polygon fill="black" stroke="black" points="1554.66,-32.8949 1544.12,-31.7936 1551.67,-39.2258 1554.66,-32.8949"/>
</g>
<!-- Erdos_Szekeres -->
<g id="node18" class="node"><title>Erdos_Szekeres</title>
<g id="a_node18"><a xlink:href="Combi.Erdos_Szekeres.Erdos_Szekeres.html" xlink:title="Erdos_Szekeres">
<polygon fill="#dbc3b6" stroke="#dbc3b6" points="1880.5,-684 1747.5,-684 1747.5,-648 1880.5,-648 1880.5,-684"/>
<text text-anchor="middle" x="1814" y="-661.6" font-family="Times,serif" font-size="18.00">Erdos_Szekeres</text>
</a>
</g>
</g>
<!-- Greene_inv -->
<g id="node24" class="node"><title>Greene_inv</title>
<g id="a_node24"><a xlink:href="Combi.LRrule.Greene_inv.html" xlink:title="Greene_inv">
<polygon fill="#dbc3b6" stroke="#dbc3b6" points="1864.5,-612 1763.5,-612 1763.5,-576 1864.5,-576 1864.5,-612"/>
<text text-anchor="middle" x="1814" y="-589.6" font-family="Times,serif" font-size="18.00">Greene_inv</text>
</a>
</g>
</g>
<!-- Erdos_Szekeres&#45;&gt;Greene_inv -->
<g id="edge56" class="edge"><title>Erdos_Szekeres&#45;&gt;Greene_inv</title>
<path fill="none" stroke="black" d="M1814,-647.697C1814,-639.983 1814,-630.712 1814,-622.112"/>
<polygon fill="black" stroke="black" points="1817.5,-622.104 1814,-612.104 1810.5,-622.104 1817.5,-622.104"/>
</g>
<!-- Qmeasure -->
<g id="node19" class="node"><title>Qmeasure</title>
<g id="a_node19"><a xlink:href="Combi.HookFormula.Qmeasure.html" xlink:title="Qmeasure">
<polygon fill="#dbc3b6" stroke="#dbc3b6" points="196.5,-396 107.5,-396 107.5,-360 196.5,-360 196.5,-396"/>
<text text-anchor="middle" x="152" y="-373.6" font-family="Times,serif" font-size="18.00">Qmeasure</text>
</a>
</g>
</g>
<!-- Qmeasure&#45;&gt;Ccpo -->
<g id="edge34" class="edge"><title>Qmeasure&#45;&gt;Ccpo</title>
<path fill="none" stroke="black" d="M121.666,-359.876C104.693,-350.294 83.3904,-338.269 65.3914,-328.108"/>
<polygon fill="black" stroke="black" points="66.7494,-324.856 56.3206,-322.987 63.3082,-330.951 66.7494,-324.856"/>
</g>
<!-- Qmeasure&#45;&gt;Misc -->
<g id="edge35" class="edge"><title>Qmeasure&#45;&gt;Misc</title>
<path fill="none" stroke="black" d="M152.742,-359.697C153.072,-351.983 153.469,-342.712 153.838,-334.112"/>
<polygon fill="black" stroke="black" points="157.335,-334.245 154.267,-324.104 150.342,-333.945 157.335,-334.245"/>
</g>
<!-- rat_coerce -->
<g id="node40" class="node"><title>rat_coerce</title>
<g id="a_node40"><a xlink:href="Combi.SSRcomplements.rat_coerce.html" xlink:title="rat_coerce">
<polygon fill="#dbc3b6" stroke="#dbc3b6" points="353,-324 259,-324 259,-288 353,-288 353,-324"/>
<text text-anchor="middle" x="306" y="-301.6" font-family="Times,serif" font-size="18.00">rat_coerce</text>
</a>
</g>
</g>
<!-- Qmeasure&#45;&gt;rat_coerce -->
<g id="edge36" class="edge"><title>Qmeasure&#45;&gt;rat_coerce</title>
<path fill="none" stroke="black" d="M189.673,-359.876C210.632,-350.349 236.905,-338.407 259.177,-328.283"/>
<polygon fill="black" stroke="black" points="260.794,-331.393 268.45,-324.068 257.898,-325.02 260.794,-331.393"/>
</g>
<!-- RSident -->
<g id="node20" class="node"><title>RSident</title>
<g id="a_node20"><a xlink:href="Combi.HookFormula.RSident.html" xlink:title="RSident">
<polygon fill="#dbc3b6" stroke="#dbc3b6" points="654,-540 578,-540 578,-504 654,-504 654,-540"/>
<text text-anchor="middle" x="616" y="-517.6" font-family="Times,serif" font-size="18.00">RSident</text>
</a>
</g>
</g>
<!-- hook -->
<g id="node21" class="node"><title>hook</title>
<g id="a_node21"><a xlink:href="Combi.HookFormula.hook.html" xlink:title="hook">
<polygon fill="#dbc3b6" stroke="#dbc3b6" points="493,-468 439,-468 439,-432 493,-432 493,-468"/>
<text text-anchor="middle" x="466" y="-445.6" font-family="Times,serif" font-size="18.00">hook</text>
</a>
</g>
</g>
<!-- RSident&#45;&gt;hook -->
<g id="edge32" class="edge"><title>RSident&#45;&gt;hook</title>
<path fill="none" stroke="black" d="M579.306,-503.876C555.979,-492.99 525.895,-478.951 502.589,-468.075"/>
<polygon fill="black" stroke="black" points="503.919,-464.833 493.377,-463.776 500.959,-471.177 503.919,-464.833"/>
</g>
<!-- Schensted -->
<g id="node25" class="node"><title>Schensted</title>
<g id="a_node25"><a xlink:href="Combi.LRrule.Schensted.html" xlink:title="Schensted">
<polygon fill="#dbc3b6" stroke="#dbc3b6" points="1260,-396 1168,-396 1168,-360 1260,-360 1260,-396"/>
<text text-anchor="middle" x="1214" y="-373.6" font-family="Times,serif" font-size="18.00">Schensted</text>
</a>
</g>
</g>
<!-- RSident&#45;&gt;Schensted -->
<g id="edge33" class="edge"><title>RSident&#45;&gt;Schensted</title>
<path fill="none" stroke="black" d="M654.317,-511.901C756.868,-487.55 1037.94,-420.807 1158.21,-392.248"/>
<polygon fill="black" stroke="black" points="1159.04,-395.648 1167.96,-389.932 1157.42,-388.837 1159.04,-395.648"/>
</g>
<!-- hook&#45;&gt;subseq -->
<g id="edge28" class="edge"><title>hook&#45;&gt;subseq</title>
<path fill="none" stroke="black" d="M493.322,-434.54C510.297,-424.857 532.037,-411.144 549,-396 625.841,-327.399 604.345,-264.911 695,-216 778.102,-171.163 1067.04,-164.156 1178.07,-163.138"/>
<polygon fill="black" stroke="black" points="1178.28,-166.637 1188.25,-163.057 1178.22,-159.637 1178.28,-166.637"/>
</g>
<!-- hook&#45;&gt;Qmeasure -->
<g id="edge29" class="edge"><title>hook&#45;&gt;Qmeasure</title>
<path fill="none" stroke="black" d="M438.957,-442.971C387.523,-431.505 274.696,-406.353 206.848,-391.227"/>
<polygon fill="black" stroke="black" points="207.291,-387.74 196.769,-388.98 205.768,-394.573 207.291,-387.74"/>
</g>
<!-- recyama -->
<g id="node22" class="node"><title>recyama</title>
<g id="a_node22"><a xlink:href="Combi.HookFormula.recyama.html" xlink:title="recyama">
<polygon fill="#dbc3b6" stroke="#dbc3b6" points="347,-396 269,-396 269,-360 347,-360 347,-396"/>
<text text-anchor="middle" x="308" y="-373.6" font-family="Times,serif" font-size="18.00">recyama</text>
</a>
</g>
</g>
<!-- hook&#45;&gt;recyama -->
<g id="edge30" class="edge"><title>hook&#45;&gt;recyama</title>
<path fill="none" stroke="black" d="M438.839,-436.967C416.108,-426.896 383.126,-412.284 355.964,-400.25"/>
<polygon fill="black" stroke="black" points="357.187,-396.963 346.626,-396.113 354.351,-403.363 357.187,-396.963"/>
</g>
<!-- bigallpairs -->
<g id="node37" class="node"><title>bigallpairs</title>
<g id="a_node37"><a xlink:href="Combi.SSRcomplements.bigallpairs.html" xlink:title="bigallpairs">
<polygon fill="#dbc3b6" stroke="#dbc3b6" points="513,-396 419,-396 419,-360 513,-360 513,-396"/>
<text text-anchor="middle" x="466" y="-373.6" font-family="Times,serif" font-size="18.00">bigallpairs</text>
</a>
</g>
</g>
<!-- hook&#45;&gt;bigallpairs -->
<g id="edge31" class="edge"><title>hook&#45;&gt;bigallpairs</title>
<path fill="none" stroke="black" d="M466,-431.697C466,-423.983 466,-414.712 466,-406.112"/>
<polygon fill="black" stroke="black" points="469.5,-406.104 466,-396.104 462.5,-406.104 469.5,-406.104"/>
</g>
<!-- recyama&#45;&gt;stdtab -->
<g id="edge26" class="edge"><title>recyama&#45;&gt;stdtab</title>
<path fill="none" stroke="black" d="M347.128,-367.126C358.626,-364.497 371.266,-361.872 383,-360 577.62,-328.948 813.073,-314.063 906.71,-309.039"/>
<polygon fill="black" stroke="black" points="907.092,-312.524 916.894,-308.502 906.723,-305.534 907.092,-312.524"/>
</g>
<!-- recyama&#45;&gt;rat_coerce -->
<g id="edge27" class="edge"><title>recyama&#45;&gt;rat_coerce</title>
<path fill="none" stroke="black" d="M307.506,-359.697C307.285,-351.983 307.02,-342.712 306.775,-334.112"/>
<polygon fill="black" stroke="black" points="310.273,-334 306.489,-324.104 303.276,-334.2 310.273,-334"/>
</g>
<!-- Greene -->
<g id="node23" class="node"><title>Greene</title>
<g id="a_node23"><a xlink:href="Combi.LRrule.Greene.html" xlink:title="Greene">
<polygon fill="#dbc3b6" stroke="#dbc3b6" points="1848.5,-540 1779.5,-540 1779.5,-504 1848.5,-504 1848.5,-540"/>
<text text-anchor="middle" x="1814" y="-517.6" font-family="Times,serif" font-size="18.00">Greene</text>
</a>
</g>
</g>
<!-- plactic -->
<g id="node30" class="node"><title>plactic</title>
<g id="a_node30"><a xlink:href="Combi.LRrule.plactic.html" xlink:title="plactic">
<polygon fill="#dbc3b6" stroke="#dbc3b6" points="1846.5,-468 1781.5,-468 1781.5,-432 1846.5,-432 1846.5,-468"/>
<text text-anchor="middle" x="1814" y="-445.6" font-family="Times,serif" font-size="18.00">plactic</text>
</a>
</g>
</g>
<!-- Greene&#45;&gt;plactic -->
<g id="edge54" class="edge"><title>Greene&#45;&gt;plactic</title>
<path fill="none" stroke="black" d="M1814,-503.697C1814,-495.983 1814,-486.712 1814,-478.112"/>
<polygon fill="black" stroke="black" points="1817.5,-478.104 1814,-468.104 1810.5,-478.104 1817.5,-478.104"/>
</g>
<!-- ordcast -->
<g id="node38" class="node"><title>ordcast</title>
<g id="a_node38"><a xlink:href="Combi.SSRcomplements.ordcast.html" xlink:title="ordcast">
<polygon fill="#dbc3b6" stroke="#dbc3b6" points="2283.5,-396 2212.5,-396 2212.5,-360 2283.5,-360 2283.5,-396"/>
<text text-anchor="middle" x="2248" y="-373.6" font-family="Times,serif" font-size="18.00">ordcast</text>
</a>
</g>
</g>
<!-- Greene&#45;&gt;ordcast -->
<g id="edge55" class="edge"><title>Greene&#45;&gt;ordcast</title>
<path fill="none" stroke="black" d="M1848.71,-518.912C1927.21,-513.704 2115.81,-498.327 2171,-468 2197.67,-453.343 2219.37,-425.61 2232.86,-404.981"/>
<polygon fill="black" stroke="black" points="2235.93,-406.681 2238.3,-396.355 2230,-402.949 2235.93,-406.681"/>
</g>
<!-- Greene_inv&#45;&gt;Greene -->
<g id="edge53" class="edge"><title>Greene_inv&#45;&gt;Greene</title>
<path fill="none" stroke="black" d="M1814,-575.697C1814,-567.983 1814,-558.712 1814,-550.112"/>
<polygon fill="black" stroke="black" points="1817.5,-550.104 1814,-540.104 1810.5,-550.104 1817.5,-550.104"/>
</g>
<!-- Schensted&#45;&gt;stdtab -->
<g id="edge51" class="edge"><title>Schensted&#45;&gt;stdtab</title>
<path fill="none" stroke="black" d="M1167.97,-364.887C1117.58,-351.626 1037.52,-330.559 989.15,-317.829"/>
<polygon fill="black" stroke="black" points="989.893,-314.405 979.331,-315.245 988.111,-321.175 989.893,-314.405"/>
</g>
<!-- Schensted&#45;&gt;subseq -->
<g id="edge52" class="edge"><title>Schensted&#45;&gt;subseq</title>
<path fill="none" stroke="black" d="M1214.64,-359.849C1216.02,-322.832 1219.3,-235.181 1220.98,-190.386"/>
<polygon fill="black" stroke="black" points="1224.48,-190.356 1221.36,-180.232 1217.48,-190.095 1224.48,-190.356"/>
</g>
<!-- Yam_plact -->
<g id="node26" class="node"><title>Yam_plact</title>
<g id="a_node26"><a xlink:href="Combi.LRrule.Yam_plact.html" xlink:title="Yam_plact">
<polygon fill="#dbc3b6" stroke="#dbc3b6" points="1686,-756 1590,-756 1590,-720 1686,-720 1686,-756"/>
<text text-anchor="middle" x="1638" y="-733.6" font-family="Times,serif" font-size="18.00">Yam_plact</text>
</a>
</g>
</g>
<!-- stdplact -->
<g id="node32" class="node"><title>stdplact</title>
<g id="a_node32"><a xlink:href="Combi.LRrule.stdplact.html" xlink:title="stdplact">
<polygon fill="#dbc3b6" stroke="#dbc3b6" points="1675,-684 1601,-684 1601,-648 1675,-648 1675,-684"/>
<text text-anchor="middle" x="1638" y="-661.6" font-family="Times,serif" font-size="18.00">stdplact</text>
</a>
</g>
</g>
<!-- Yam_plact&#45;&gt;stdplact -->
<g id="edge50" class="edge"><title>Yam_plact&#45;&gt;stdplact</title>
<path fill="none" stroke="black" d="M1638,-719.697C1638,-711.983 1638,-702.712 1638,-694.112"/>
<polygon fill="black" stroke="black" points="1641.5,-694.104 1638,-684.104 1634.5,-694.104 1641.5,-694.104"/>
</g>
<!-- extract -->
<g id="node27" class="node"><title>extract</title>
<g id="a_node27"><a xlink:href="Combi.LRrule.extract.html" xlink:title="extract">
<polygon fill="#dbc3b6" stroke="#dbc3b6" points="1203.5,-1044 1136.5,-1044 1136.5,-1008 1203.5,-1008 1203.5,-1044"/>
<text text-anchor="middle" x="1170" y="-1021.6" font-family="Times,serif" font-size="18.00">extract</text>
</a>
</g>
</g>
<!-- implem -->
<g id="node29" class="node"><title>implem</title>
<g id="a_node29"><a xlink:href="Combi.LRrule.implem.html" xlink:title="implem">
<polygon fill="#dbc3b6" stroke="#dbc3b6" points="1205.5,-972 1134.5,-972 1134.5,-936 1205.5,-936 1205.5,-972"/>
<text text-anchor="middle" x="1170" y="-949.6" font-family="Times,serif" font-size="18.00">implem</text>
</a>
</g>
</g>
<!-- extract&#45;&gt;implem -->
<g id="edge49" class="edge"><title>extract&#45;&gt;implem</title>
<path fill="none" stroke="black" d="M1170,-1007.7C1170,-999.983 1170,-990.712 1170,-982.112"/>
<polygon fill="black" stroke="black" points="1173.5,-982.104 1170,-972.104 1166.5,-982.104 1173.5,-982.104"/>
</g>
<!-- freeSchur -->
<g id="node28" class="node"><title>freeSchur</title>
<g id="a_node28"><a xlink:href="Combi.LRrule.freeSchur.html" xlink:title="freeSchur">
<polygon fill="#dbc3b6" stroke="#dbc3b6" points="1457.5,-828 1370.5,-828 1370.5,-792 1457.5,-792 1457.5,-828"/>
<text text-anchor="middle" x="1414" y="-805.6" font-family="Times,serif" font-size="18.00">freeSchur</text>
</a>
</g>
</g>
<!-- freeSchur&#45;&gt;Yam_plact -->
<g id="edge46" class="edge"><title>freeSchur&#45;&gt;Yam_plact</title>
<path fill="none" stroke="black" d="M1457.72,-795.337C1492.55,-784.453 1541.62,-769.117 1579.78,-757.194"/>
<polygon fill="black" stroke="black" points="1581.23,-760.408 1589.73,-754.085 1579.14,-753.727 1581.23,-760.408"/>
</g>
<!-- shuffle -->
<g id="node31" class="node"><title>shuffle</title>
<g id="a_node31"><a xlink:href="Combi.LRrule.shuffle.html" xlink:title="shuffle">
<polygon fill="#dbc3b6" stroke="#dbc3b6" points="1517.5,-756 1452.5,-756 1452.5,-720 1517.5,-720 1517.5,-756"/>
<text text-anchor="middle" x="1485" y="-733.6" font-family="Times,serif" font-size="18.00">shuffle</text>
</a>
</g>
</g>
<!-- freeSchur&#45;&gt;shuffle -->
<g id="edge47" class="edge"><title>freeSchur&#45;&gt;shuffle</title>
<path fill="none" stroke="black" d="M1431.55,-791.697C1440.23,-783.135 1450.86,-772.656 1460.35,-763.304"/>
<polygon fill="black" stroke="black" points="1462.99,-765.617 1467.65,-756.104 1458.07,-760.633 1462.99,-765.617"/>
</g>
<!-- sympoly -->
<g id="node36" class="node"><title>sympoly</title>
<g id="a_node36"><a xlink:href="Combi.MPoly.sympoly.html" xlink:title="sympoly">
<polygon fill="#dbc3b6" stroke="#dbc3b6" points="1382,-612 1304,-612 1304,-576 1382,-576 1382,-612"/>
<text text-anchor="middle" x="1343" y="-589.6" font-family="Times,serif" font-size="18.00">sympoly</text>
</a>
</g>
</g>
<!-- freeSchur&#45;&gt;sympoly -->
<g id="edge48" class="edge"><title>freeSchur&#45;&gt;sympoly</title>
<path fill="none" stroke="black" d="M1408.31,-791.849C1395.98,-754.675 1366.7,-666.439 1351.9,-621.82"/>
<polygon fill="black" stroke="black" points="1355.19,-620.622 1348.72,-612.232 1348.54,-622.826 1355.19,-620.622"/>
</g>
<!-- therule -->
<g id="node33" class="node"><title>therule</title>
<g id="a_node33"><a xlink:href="Combi.LRrule.therule.html" xlink:title="therule">
<polygon fill="#dbc3b6" stroke="#dbc3b6" points="1283.5,-900 1216.5,-900 1216.5,-864 1283.5,-864 1283.5,-900"/>
<text text-anchor="middle" x="1250" y="-877.6" font-family="Times,serif" font-size="18.00">therule</text>
</a>
</g>
</g>
<!-- implem&#45;&gt;therule -->
<g id="edge45" class="edge"><title>implem&#45;&gt;therule</title>
<path fill="none" stroke="black" d="M1189.78,-935.697C1199.75,-926.965 1212.01,-916.24 1222.86,-906.75"/>
<polygon fill="black" stroke="black" points="1225.23,-909.323 1230.45,-900.104 1220.62,-904.055 1225.23,-909.323"/>
</g>
<!-- plactic&#45;&gt;congr -->
<g id="edge43" class="edge"><title>plactic&#45;&gt;congr</title>
<path fill="none" stroke="black" d="M1846.5,-440.83C1857.74,-438.016 1870.42,-434.856 1882,-432 1947.73,-415.791 1988.17,-449.225 2030,-396 2059.66,-358.26 2051.22,-331.055 2030,-288 2023.27,-274.349 2011.15,-263.234 1998.93,-254.773"/>
<polygon fill="black" stroke="black" points="2000.81,-251.824 1990.51,-249.341 1997.02,-257.705 2000.81,-251.824"/>
</g>
<!-- plactic&#45;&gt;Schensted -->
<g id="edge44" class="edge"><title>plactic&#45;&gt;Schensted</title>
<path fill="none" stroke="black" d="M1781.23,-439.778C1769.84,-436.881 1756.93,-433.936 1745,-432 1547.39,-399.95 1494.17,-424.375 1296,-396 1287.62,-394.8 1278.81,-393.267 1270.2,-391.614"/>
<polygon fill="black" stroke="black" points="1270.71,-388.147 1260.22,-389.631 1269.35,-395.013 1270.71,-388.147"/>
</g>
<!-- shuffle&#45;&gt;stdplact -->
<g id="edge42" class="edge"><title>shuffle&#45;&gt;stdplact</title>
<path fill="none" stroke="black" d="M1517.82,-721.983C1539.37,-712.124 1567.87,-699.083 1591.71,-688.177"/>
<polygon fill="black" stroke="black" points="1593.3,-691.301 1600.93,-683.958 1590.38,-684.936 1593.3,-691.301"/>
</g>
<!-- stdplact&#45;&gt;Greene_inv -->
<g id="edge41" class="edge"><title>stdplact&#45;&gt;Greene_inv</title>
<path fill="none" stroke="black" d="M1675.33,-650.155C1700.42,-640.175 1733.85,-626.878 1761.6,-615.841"/>
<polygon fill="black" stroke="black" points="1763.16,-618.988 1771.16,-612.04 1760.57,-612.484 1763.16,-618.988"/>
</g>
<!-- therule&#45;&gt;skewtab -->
<g id="edge39" class="edge"><title>therule&#45;&gt;skewtab</title>
<path fill="none" stroke="black" d="M1216.23,-866.496C1192.72,-856.403 1161.04,-842.798 1134.93,-831.585"/>
<polygon fill="black" stroke="black" points="1136.16,-828.303 1125.59,-827.573 1133.4,-834.735 1136.16,-828.303"/>
</g>
<!-- therule&#45;&gt;freeSchur -->
<g id="edge40" class="edge"><title>therule&#45;&gt;freeSchur</title>
<path fill="none" stroke="black" d="M1283.58,-866.666C1306.95,-856.691 1338.5,-843.227 1364.71,-832.04"/>
<polygon fill="black" stroke="black" points="1366.27,-835.176 1374.1,-828.032 1363.53,-828.738 1366.27,-835.176"/>
</g>
<!-- Schur_basis -->
<g id="node34" class="node"><title>Schur_basis</title>
<g id="a_node34"><a xlink:href="Combi.MPoly.Schur_basis.html" xlink:title="Schur_basis">
<polygon fill="#dbc3b6" stroke="#dbc3b6" points="1382.5,-972 1277.5,-972 1277.5,-936 1382.5,-936 1382.5,-972"/>
<text text-anchor="middle" x="1330" y="-949.6" font-family="Times,serif" font-size="18.00">Schur_basis</text>
</a>
</g>
</g>
<!-- Schur_basis&#45;&gt;therule -->
<g id="edge7" class="edge"><title>Schur_basis&#45;&gt;therule</title>
<path fill="none" stroke="black" d="M1310.22,-935.697C1300.25,-926.965 1287.99,-916.24 1277.14,-906.75"/>
<polygon fill="black" stroke="black" points="1279.38,-904.055 1269.55,-900.104 1274.77,-909.323 1279.38,-904.055"/>
</g>
<!-- antisym -->
<g id="node35" class="node"><title>antisym</title>
<g id="a_node35"><a xlink:href="Combi.MPoly.antisym.html" xlink:title="antisym">
<polygon fill="#dbc3b6" stroke="#dbc3b6" points="1406,-396 1332,-396 1332,-360 1406,-360 1406,-396"/>
<text text-anchor="middle" x="1369" y="-373.6" font-family="Times,serif" font-size="18.00">antisym</text>
</a>
</g>
</g>
<!-- antisym&#45;&gt;partition -->
<g id="edge5" class="edge"><title>antisym&#45;&gt;partition</title>
<path fill="none" stroke="black" d="M1368.92,-359.849C1368.75,-322.832 1368.34,-235.181 1368.13,-190.386"/>
<polygon fill="black" stroke="black" points="1371.63,-190.216 1368.08,-180.232 1364.63,-190.249 1371.63,-190.216"/>
</g>
<!-- symgroup -->
<g id="node49" class="node"><title>symgroup</title>
<g id="a_node49"><a xlink:href="Combi.SymGroup.symgroup.html" xlink:title="symgroup">
<polygon fill="#dbc3b6" stroke="#dbc3b6" points="1842.5,-324 1753.5,-324 1753.5,-288 1842.5,-288 1842.5,-324"/>
<text text-anchor="middle" x="1798" y="-301.6" font-family="Times,serif" font-size="18.00">symgroup</text>
</a>
</g>
</g>
<!-- antisym&#45;&gt;symgroup -->
<g id="edge6" class="edge"><title>antisym&#45;&gt;symgroup</title>
<path fill="none" stroke="black" d="M1406.36,-367.552C1417.76,-364.873 1430.35,-362.114 1442,-360 1563.28,-337.995 1595.48,-344.675 1717,-324 1725.45,-322.562 1734.36,-320.871 1743.06,-319.124"/>
<polygon fill="black" stroke="black" points="1744.04,-322.496 1753.13,-317.057 1742.63,-315.638 1744.04,-322.496"/>
</g>
<!-- sympoly&#45;&gt;composition -->
<g id="edge1" class="edge"><title>sympoly&#45;&gt;composition</title>
<path fill="none" stroke="black" d="M1365.96,-575.978C1378.65,-566.097 1394.35,-553.054 1407,-540 1449.54,-496.097 1491.59,-438.129 1514.44,-405.072"/>
<polygon fill="black" stroke="black" points="1517.59,-406.668 1520.36,-396.442 1511.82,-402.709 1517.59,-406.668"/>
</g>
<!-- sympoly&#45;&gt;stdtab -->
<g id="edge2" class="edge"><title>sympoly&#45;&gt;stdtab</title>
<path fill="none" stroke="black" d="M1319.47,-575.966C1251.99,-527.102 1057.65,-386.389 980.309,-330.393"/>
<polygon fill="black" stroke="black" points="982.055,-327.336 971.902,-324.306 977.949,-333.006 982.055,-327.336"/>
</g>
<!-- sympoly&#45;&gt;antisym -->
<g id="edge3" class="edge"><title>sympoly&#45;&gt;antisym</title>
<path fill="none" stroke="black" d="M1345.08,-575.849C1349.58,-538.832 1360.23,-451.181 1365.67,-406.386"/>
<polygon fill="black" stroke="black" points="1369.17,-406.582 1366.91,-396.232 1362.23,-405.737 1369.17,-406.582"/>
</g>
<!-- commutant -->
<g id="node44" class="node"><title>commutant</title>
<g id="a_node44"><a xlink:href="Combi.SymGroup.commutant.html" xlink:title="commutant">
<polygon fill="#dbc3b6" stroke="#dbc3b6" points="1702,-540 1604,-540 1604,-504 1702,-504 1702,-540"/>
<text text-anchor="middle" x="1653" y="-517.6" font-family="Times,serif" font-size="18.00">commutant</text>
</a>
</g>
</g>
<!-- sympoly&#45;&gt;commutant -->
<g id="edge4" class="edge"><title>sympoly&#45;&gt;commutant</title>
<path fill="none" stroke="black" d="M1382.26,-584.134C1435.66,-572.077 1531.64,-550.404 1593.8,-536.368"/>
<polygon fill="black" stroke="black" points="1594.87,-539.714 1603.85,-534.098 1593.33,-532.886 1594.87,-539.714"/>
</g>
<!-- ordcast&#45;&gt;tools -->
<g id="edge38" class="edge"><title>ordcast&#45;&gt;tools</title>
<path fill="none" stroke="black" d="M2248.2,-359.951C2248.49,-333.292 2249,-280.116 2249,-235 2249,-235 2249,-235 2249,-161 2249,-89.4946 1703.73,-35.6426 1554.41,-22.2359"/>
<polygon fill="black" stroke="black" points="1554.63,-18.7415 1544.36,-21.3408 1554.01,-25.7139 1554.63,-18.7415"/>
</g>
<!-- permcomp -->
<g id="node39" class="node"><title>permcomp</title>
<g id="a_node39"><a xlink:href="Combi.SSRcomplements.permcomp.html" xlink:title="permcomp">
<polygon fill="#dbc3b6" stroke="#dbc3b6" points="1859,-252 1765,-252 1765,-216 1859,-216 1859,-252"/>
<text text-anchor="middle" x="1812" y="-229.6" font-family="Times,serif" font-size="18.00">permcomp</text>
</a>
</g>
</g>
<!-- sorted&#45;&gt;tools -->
<g id="edge37" class="edge"><title>sorted&#45;&gt;tools</title>
<path fill="none" stroke="black" d="M1399.24,-74.3257C1423,-63.1634 1455.74,-47.7801 1480.67,-36.0676"/>
<polygon fill="black" stroke="black" points="1482.25,-39.1948 1489.81,-31.7748 1479.27,-32.8592 1482.25,-39.1948"/>
</g>
<!-- Frobenius_char -->
<g id="node43" class="node"><title>Frobenius_char</title>
<g id="a_node43"><a xlink:href="Combi.SymGroup.Frobenius_char.html" xlink:title="Frobenius_char">
<polygon fill="#dbc3b6" stroke="#dbc3b6" points="1233.5,-684 1102.5,-684 1102.5,-648 1233.5,-648 1233.5,-684"/>
<text text-anchor="middle" x="1168" y="-661.6" font-family="Times,serif" font-size="18.00">Frobenius_char</text>
</a>
</g>
</g>
<!-- Frobenius_char&#45;&gt;sympoly -->
<g id="edge16" class="edge"><title>Frobenius_char&#45;&gt;sympoly</title>
<path fill="none" stroke="black" d="M1210.81,-647.876C1236.13,-637.746 1268.28,-624.886 1294.54,-614.385"/>
<polygon fill="black" stroke="black" points="1295.93,-617.596 1303.92,-610.632 1293.34,-611.096 1295.93,-617.596"/>
</g>
<!-- towerSn -->
<g id="node50" class="node"><title>towerSn</title>
<g id="a_node50"><a xlink:href="Combi.SymGroup.towerSn.html" xlink:title="towerSn">
<polygon fill="#dbc3b6" stroke="#dbc3b6" points="2134.5,-468 2055.5,-468 2055.5,-432 2134.5,-432 2134.5,-468"/>
<text text-anchor="middle" x="2095" y="-445.6" font-family="Times,serif" font-size="18.00">towerSn</text>
</a>
</g>
</g>
<!-- commutant&#45;&gt;towerSn -->
<g id="edge22" class="edge"><title>commutant&#45;&gt;towerSn</title>
<path fill="none" stroke="black" d="M1702.43,-511.135C1715.58,-508.654 1729.81,-506.101 1743,-504 1865.6,-484.471 1897.77,-489.746 2020,-468 2028.31,-466.521 2037.1,-464.735 2045.61,-462.884"/>
<polygon fill="black" stroke="black" points="2046.44,-466.286 2055.44,-460.696 2044.92,-459.453 2046.44,-466.286"/>
</g>
<!-- cycles -->
<g id="node45" class="node"><title>cycles</title>
<g id="a_node45"><a xlink:href="Combi.SymGroup.cycles.html" xlink:title="cycles">
<polygon fill="#dbc3b6" stroke="#dbc3b6" points="1681,-324 1619,-324 1619,-288 1681,-288 1681,-324"/>
<text text-anchor="middle" x="1650" y="-301.6" font-family="Times,serif" font-size="18.00">cycles</text>
</a>
</g>
</g>
<!-- cycles&#45;&gt;partition -->
<g id="edge20" class="edge"><title>cycles&#45;&gt;partition</title>
<path fill="none" stroke="black" d="M1638.24,-287.892C1623.47,-267.702 1596.24,-234.537 1565,-216 1552.28,-208.449 1472.23,-188.174 1418.17,-175.004"/>
<polygon fill="black" stroke="black" points="1418.94,-171.59 1408.4,-172.632 1417.29,-178.392 1418.94,-171.59"/>
</g>
<!-- cycles&#45;&gt;permcomp -->
<g id="edge21" class="edge"><title>cycles&#45;&gt;permcomp</title>
<path fill="none" stroke="black" d="M1681.24,-291.503C1704.41,-281.49 1736.46,-267.642 1763.02,-256.162"/>
<polygon fill="black" stroke="black" points="1764.75,-259.231 1772.54,-252.051 1761.97,-252.805 1764.75,-259.231"/>
</g>
<!-- cycletype&#45;&gt;slicedbij -->
<g id="edge17" class="edge"><title>cycletype&#45;&gt;slicedbij</title>
<path fill="none" stroke="black" d="M1951.74,-359.697C1952.07,-351.983 1952.47,-342.712 1952.84,-334.112"/>
<polygon fill="black" stroke="black" points="1956.34,-334.245 1953.27,-324.104 1949.34,-333.945 1956.34,-334.245"/>
</g>
<!-- cycletype&#45;&gt;cycles -->
<g id="edge18" class="edge"><title>cycletype&#45;&gt;cycles</title>
<path fill="none" stroke="black" d="M1907.79,-367.564C1860.78,-357.213 1783.43,-339.947 1717,-324 1708.61,-321.987 1699.65,-319.764 1691.11,-317.608"/>
<polygon fill="black" stroke="black" points="1691.87,-314.191 1681.32,-315.124 1690.15,-320.976 1691.87,-314.191"/>
</g>
<!-- cycletype&#45;&gt;symgroup -->
<g id="edge19" class="edge"><title>cycletype&#45;&gt;symgroup</title>
<path fill="none" stroke="black" d="M1913.57,-359.876C1892.75,-350.349 1866.65,-338.407 1844.52,-328.283"/>
<polygon fill="black" stroke="black" points="1845.86,-325.046 1835.31,-324.068 1842.94,-331.411 1845.86,-325.046"/>
</g>
<!-- reprS2 -->
<g id="node47" class="node"><title>reprS2</title>
<g id="a_node47"><a xlink:href="Combi.SymGroup.reprS2.html" xlink:title="reprS2">
<polygon fill="#dbc3b6" stroke="#dbc3b6" points="1983.5,-468 1918.5,-468 1918.5,-432 1983.5,-432 1983.5,-468"/>
<text text-anchor="middle" x="1951" y="-445.6" font-family="Times,serif" font-size="18.00">reprS2</text>
</a>
</g>
</g>
<!-- reprS2&#45;&gt;cycletype -->
<g id="edge10" class="edge"><title>reprS2&#45;&gt;cycletype</title>
<path fill="none" stroke="black" d="M1951,-431.697C1951,-423.983 1951,-414.712 1951,-406.112"/>
<polygon fill="black" stroke="black" points="1954.5,-406.104 1951,-396.104 1947.5,-406.104 1954.5,-406.104"/>
</g>
<!-- reprdim1 -->
<g id="node48" class="node"><title>reprdim1</title>
<g id="a_node48"><a xlink:href="Combi.SymGroup.reprdim1.html" xlink:title="reprdim1">
<polygon fill="#dbc3b6" stroke="#dbc3b6" points="1835.5,-396 1752.5,-396 1752.5,-360 1835.5,-360 1835.5,-396"/>
<text text-anchor="middle" x="1794" y="-373.6" font-family="Times,serif" font-size="18.00">reprdim1</text>
</a>
</g>
</g>
<!-- reprS2&#45;&gt;reprdim1 -->
<g id="edge11" class="edge"><title>reprS2&#45;&gt;reprdim1</title>
<path fill="none" stroke="black" d="M1918.47,-434.496C1896.25,-424.589 1866.44,-411.299 1841.57,-400.208"/>
<polygon fill="black" stroke="black" points="1842.86,-396.953 1832.3,-396.077 1840.01,-403.346 1842.86,-396.953"/>
</g>
<!-- reprdim1&#45;&gt;symgroup -->
<g id="edge12" class="edge"><title>reprdim1&#45;&gt;symgroup</title>
<path fill="none" stroke="black" d="M1794.99,-359.697C1795.43,-351.983 1795.96,-342.712 1796.45,-334.112"/>
<polygon fill="black" stroke="black" points="1799.95,-334.288 1797.02,-324.104 1792.96,-333.888 1799.95,-334.288"/>
</g>
<!-- symgroup&#45;&gt;congr -->
<g id="edge13" class="edge"><title>symgroup&#45;&gt;congr</title>
<path fill="none" stroke="black" d="M1837.87,-287.876C1863.45,-276.894 1896.5,-262.701 1921.91,-251.786"/>
<polygon fill="black" stroke="black" points="1923.44,-254.938 1931.25,-247.776 1920.68,-248.506 1923.44,-254.938"/>
</g>
<!-- symgroup&#45;&gt;permcomp -->
<g id="edge14" class="edge"><title>symgroup&#45;&gt;permcomp</title>
<path fill="none" stroke="black" d="M1801.46,-287.697C1803,-279.983 1804.86,-270.712 1806.58,-262.112"/>
<polygon fill="black" stroke="black" points="1810.05,-262.597 1808.58,-252.104 1803.19,-261.224 1810.05,-262.597"/>
</g>
<!-- towerSn&#45;&gt;ordcast -->
<g id="edge8" class="edge"><title>towerSn&#45;&gt;ordcast</title>
<path fill="none" stroke="black" d="M2132.43,-431.876C2153.72,-422.137 2180.52,-409.873 2202.96,-399.609"/>
<polygon fill="black" stroke="black" points="2204.64,-402.688 2212.27,-395.345 2201.72,-396.323 2204.64,-402.688"/>
</g>
<!-- towerSn&#45;&gt;cycletype -->
<g id="edge9" class="edge"><title>towerSn&#45;&gt;cycletype</title>
<path fill="none" stroke="black" d="M2059.77,-431.876C2040.42,-422.469 2016.23,-410.708 1995.57,-400.667"/>
<polygon fill="black" stroke="black" points="1996.89,-397.414 1986.36,-396.19 1993.83,-403.71 1996.89,-397.414"/>
</g>
</g>
</svg>
