<?xml version="1.0" encoding="UTF-8" standalone="no"?>
<!DOCTYPE svg PUBLIC "-//W3C//DTD SVG 1.1//EN"
 "http://www.w3.org/Graphics/SVG/1.1/DTD/svg11.dtd">
<!-- Generated by graphviz version 2.38.0 (20140413.2041)
 -->
<!-- Title: depend Pages: 1 -->
<svg width="1948pt" height="1268pt"
 viewBox="0.00 0.00 1948.34 1268.00" xmlns="http://www.w3.org/2000/svg" xmlns:xlink="http://www.w3.org/1999/xlink">
<g id="graph0" class="graph" transform="scale(1 1) rotate(0) translate(4 1264)">
<title>depend</title>
<!-- Ccpo -->
<g id="node1" class="node"><title>Ccpo</title>
<g id="a_node1"><a xlink:href="3rdparty.ALEA.Ccpo.html" xlink:title="Ccpo">
<polygon fill="#dbc3b6" stroke="#dbc3b6" points="234.34,-324 178.34,-324 178.34,-288 234.34,-288 234.34,-324"/>
<text text-anchor="middle" x="206.34" y="-301.6" font-family="Times,serif" font-size="18.00">Ccpo</text>
</a>
</g>
</g>
<!-- Misc -->
<g id="node2" class="node"><title>Misc</title>
<g id="a_node2"><a xlink:href="3rdparty.ALEA.Misc.html" xlink:title="Misc">
<polygon fill="#dbc3b6" stroke="#dbc3b6" points="106.34,-324 52.3402,-324 52.3402,-288 106.34,-288 106.34,-324"/>
<text text-anchor="middle" x="79.3402" y="-301.6" font-family="Times,serif" font-size="18.00">Misc</text>
</a>
</g>
</g>
<!-- combclass -->
<g id="node3" class="node"><title>combclass</title>
<g id="a_node3"><a xlink:href="Combi.Basic.combclass.html" xlink:title="combclass">
<polygon fill="#dbc3b6" stroke="#dbc3b6" points="1179.34,-108 1087.34,-108 1087.34,-72 1179.34,-72 1179.34,-108"/>
<text text-anchor="middle" x="1133.34" y="-85.6" font-family="Times,serif" font-size="18.00">combclass</text>
</a>
</g>
</g>
<!-- tools -->
<g id="node45" class="node"><title>tools</title>
<g id="a_node45"><a xlink:href="Combi.SSRcomplements.tools.html" xlink:title="tools">
<polygon fill="#dbc3b6" stroke="#dbc3b6" points="1486.34,-36 1432.34,-36 1432.34,-0 1486.34,-0 1486.34,-36"/>
<text text-anchor="middle" x="1459.34" y="-13.6" font-family="Times,serif" font-size="18.00">tools</text>
</a>
</g>
</g>
<!-- combclass&#45;&gt;tools -->
<g id="edge26" class="edge"><title>combclass&#45;&gt;tools</title>
<path fill="none" stroke="black" d="M1179.36,-79.1192C1244.56,-65.1183 1362.55,-39.783 1422.39,-26.9332"/>
<polygon fill="black" stroke="black" points="1423.13,-30.3545 1432.17,-24.833 1421.66,-23.5105 1423.13,-30.3545"/>
</g>
<!-- congr -->
<g id="node4" class="node"><title>congr</title>
<g id="a_node4"><a xlink:href="Combi.Basic.congr.html" xlink:title="congr">
<polygon fill="#dbc3b6" stroke="#dbc3b6" points="1436.84,-396 1377.84,-396 1377.84,-360 1436.84,-360 1436.84,-396"/>
<text text-anchor="middle" x="1407.34" y="-373.6" font-family="Times,serif" font-size="18.00">congr</text>
</a>
</g>
</g>
<!-- permuted -->
<g id="node11" class="node"><title>permuted</title>
<g id="a_node11"><a xlink:href="Combi.Combi.permuted.html" xlink:title="permuted">
<polygon fill="#dbc3b6" stroke="#dbc3b6" points="1373.34,-324 1287.34,-324 1287.34,-288 1373.34,-288 1373.34,-324"/>
<text text-anchor="middle" x="1330.34" y="-301.6" font-family="Times,serif" font-size="18.00">permuted</text>
</a>
</g>
</g>
<!-- congr&#45;&gt;permuted -->
<g id="edge24" class="edge"><title>congr&#45;&gt;permuted</title>
<path fill="none" stroke="black" d="M1388.31,-359.697C1378.8,-351.05 1367.13,-340.449 1356.77,-331.027"/>
<polygon fill="black" stroke="black" points="1358.91,-328.241 1349.15,-324.104 1354.2,-333.421 1358.91,-328.241"/>
</g>
<!-- vectNK -->
<g id="node17" class="node"><title>vectNK</title>
<g id="a_node17"><a xlink:href="Combi.Combi.vectNK.html" xlink:title="vectNK">
<polygon fill="#dbc3b6" stroke="#dbc3b6" points="1831.34,-180 1757.34,-180 1757.34,-144 1831.34,-144 1831.34,-180"/>
<text text-anchor="middle" x="1794.34" y="-157.6" font-family="Times,serif" font-size="18.00">vectNK</text>
</a>
</g>
</g>
<!-- congr&#45;&gt;vectNK -->
<g id="edge25" class="edge"><title>congr&#45;&gt;vectNK</title>
<path fill="none" stroke="black" d="M1437.06,-360.563C1505.95,-322.473 1676.54,-228.141 1754.42,-185.076"/>
<polygon fill="black" stroke="black" points="1756.39,-187.988 1763.44,-180.085 1753,-181.862 1756.39,-187.988"/>
</g>
<!-- ordtype -->
<g id="node5" class="node"><title>ordtype</title>
<g id="a_node5"><a xlink:href="Combi.Basic.ordtype.html" xlink:title="ordtype">
<polygon fill="#dbc3b6" stroke="#dbc3b6" points="1403.34,-108 1329.34,-108 1329.34,-72 1403.34,-72 1403.34,-108"/>
<text text-anchor="middle" x="1366.34" y="-85.6" font-family="Times,serif" font-size="18.00">ordtype</text>
</a>
</g>
</g>
<!-- ordtype&#45;&gt;tools -->
<g id="edge23" class="edge"><title>ordtype&#45;&gt;tools</title>
<path fill="none" stroke="black" d="M1389.33,-71.6966C1401.15,-62.796 1415.73,-51.8232 1428.52,-42.1989"/>
<polygon fill="black" stroke="black" points="1430.73,-44.9145 1436.62,-36.1043 1426.52,-39.3217 1430.73,-44.9145"/>
</g>
<!-- Yamanouchi -->
<g id="node6" class="node"><title>Yamanouchi</title>
<g id="a_node6"><a xlink:href="Combi.Combi.Yamanouchi.html" xlink:title="Yamanouchi">
<polygon fill="#dbc3b6" stroke="#dbc3b6" points="913.34,-252 803.34,-252 803.34,-216 913.34,-216 913.34,-252"/>
<text text-anchor="middle" x="858.34" y="-229.6" font-family="Times,serif" font-size="18.00">Yamanouchi</text>
</a>
</g>
</g>
<!-- partition -->
<g id="node10" class="node"><title>partition</title>
<g id="a_node10"><a xlink:href="Combi.Combi.partition.html" xlink:title="partition">
<polygon fill="#dbc3b6" stroke="#dbc3b6" points="905.34,-180 825.34,-180 825.34,-144 905.34,-144 905.34,-180"/>
<text text-anchor="middle" x="865.34" y="-157.6" font-family="Times,serif" font-size="18.00">partition</text>
</a>
</g>
</g>
<!-- Yamanouchi&#45;&gt;partition -->
<g id="edge59" class="edge"><title>Yamanouchi&#45;&gt;partition</title>
<path fill="none" stroke="black" d="M860.07,-215.697C860.842,-207.983 861.769,-198.712 862.629,-190.112"/>
<polygon fill="black" stroke="black" points="866.117,-190.403 863.63,-180.104 859.152,-189.706 866.117,-190.403"/>
</g>
<!-- composition -->
<g id="node7" class="node"><title>composition</title>
<g id="a_node7"><a xlink:href="Combi.Combi.composition.html" xlink:title="composition">
<polygon fill="#dbc3b6" stroke="#dbc3b6" points="1227.34,-252 1119.34,-252 1119.34,-216 1227.34,-216 1227.34,-252"/>
<text text-anchor="middle" x="1173.34" y="-229.6" font-family="Times,serif" font-size="18.00">composition</text>
</a>
</g>
</g>
<!-- composition&#45;&gt;partition -->
<g id="edge78" class="edge"><title>composition&#45;&gt;partition</title>
<path fill="none" stroke="black" d="M1119.34,-220.727C1061.84,-207.66 971.585,-187.146 915.573,-174.416"/>
<polygon fill="black" stroke="black" points="916.055,-170.937 905.528,-172.134 914.504,-177.763 916.055,-170.937"/>
</g>
<!-- fibered_set -->
<g id="node8" class="node"><title>fibered_set</title>
<g id="a_node8"><a xlink:href="Combi.Combi.fibered_set.html" xlink:title="fibered_set">
<polygon fill="#dbc3b6" stroke="#dbc3b6" points="1383.34,-468 1285.34,-468 1285.34,-432 1383.34,-432 1383.34,-468"/>
<text text-anchor="middle" x="1334.34" y="-445.6" font-family="Times,serif" font-size="18.00">fibered_set</text>
</a>
</g>
</g>
<!-- multinomial -->
<g id="node9" class="node"><title>multinomial</title>
<g id="a_node9"><a xlink:href="Combi.Combi.multinomial.html" xlink:title="multinomial">
<polygon fill="#dbc3b6" stroke="#dbc3b6" points="1685.34,-180 1581.34,-180 1581.34,-144 1685.34,-144 1685.34,-180"/>
<text text-anchor="middle" x="1633.34" y="-157.6" font-family="Times,serif" font-size="18.00">multinomial</text>
</a>
</g>
</g>
<!-- multinomial&#45;&gt;tools -->
<g id="edge71" class="edge"><title>multinomial&#45;&gt;tools</title>
<path fill="none" stroke="black" d="M1612.35,-143.871C1581.39,-118.604 1523.37,-71.2543 1488.36,-42.6788"/>
<polygon fill="black" stroke="black" points="1490.36,-39.8003 1480.4,-36.1893 1485.94,-45.2236 1490.36,-39.8003"/>
</g>
<!-- partition&#45;&gt;combclass -->
<g id="edge75" class="edge"><title>partition&#45;&gt;combclass</title>
<path fill="none" stroke="black" d="M905.462,-150.52C951.049,-138.613 1025.76,-119.098 1077.14,-105.679"/>
<polygon fill="black" stroke="black" points="1078.3,-108.995 1087.09,-103.081 1076.53,-102.222 1078.3,-108.995"/>
</g>
<!-- partition&#45;&gt;ordtype -->
<g id="edge76" class="edge"><title>partition&#45;&gt;ordtype</title>
<path fill="none" stroke="black" d="M905.428,-151.277C916.974,-148.683 929.618,-146.037 941.34,-144 1013.1,-131.53 1223.92,-107.108 1318.94,-96.3289"/>
<polygon fill="black" stroke="black" points="1319.58,-99.7786 1329.12,-95.1756 1318.79,-92.8231 1319.58,-99.7786"/>
</g>
<!-- sorted -->
<g id="node44" class="node"><title>sorted</title>
<g id="a_node44"><a xlink:href="Combi.SSRcomplements.sorted.html" xlink:title="sorted">
<polygon fill="#dbc3b6" stroke="#dbc3b6" points="896.34,-108 834.34,-108 834.34,-72 896.34,-72 896.34,-108"/>
<text text-anchor="middle" x="865.34" y="-85.6" font-family="Times,serif" font-size="18.00">sorted</text>
</a>
</g>
</g>
<!-- partition&#45;&gt;sorted -->
<g id="edge77" class="edge"><title>partition&#45;&gt;sorted</title>
<path fill="none" stroke="black" d="M865.34,-143.697C865.34,-135.983 865.34,-126.712 865.34,-118.112"/>
<polygon fill="black" stroke="black" points="868.84,-118.104 865.34,-108.104 861.84,-118.104 868.84,-118.104"/>
</g>
<!-- permuted&#45;&gt;composition -->
<g id="edge72" class="edge"><title>permuted&#45;&gt;composition</title>
<path fill="none" stroke="black" d="M1291.93,-287.876C1270.47,-278.307 1243.54,-266.3 1220.77,-256.148"/>
<polygon fill="black" stroke="black" points="1222.18,-252.944 1211.62,-252.068 1219.33,-259.337 1222.18,-252.944"/>
</g>
<!-- permuted&#45;&gt;multinomial -->
<g id="edge73" class="edge"><title>permuted&#45;&gt;multinomial</title>
<path fill="none" stroke="black" d="M1366.89,-287.871C1422.17,-261.964 1526.99,-212.843 1587.37,-184.545"/>
<polygon fill="black" stroke="black" points="1589.09,-187.602 1596.66,-180.189 1586.12,-181.264 1589.09,-187.602"/>
</g>
<!-- cycles -->
<g id="node48" class="node"><title>cycles</title>
<g id="a_node48"><a xlink:href="Combi.SymGroup.cycles.html" xlink:title="cycles">
<polygon fill="#dbc3b6" stroke="#dbc3b6" points="1047.34,-252 985.34,-252 985.34,-216 1047.34,-216 1047.34,-252"/>
<text text-anchor="middle" x="1016.34" y="-229.6" font-family="Times,serif" font-size="18.00">cycles</text>
</a>
</g>
</g>
<!-- permuted&#45;&gt;cycles -->
<g id="edge74" class="edge"><title>permuted&#45;&gt;cycles</title>
<path fill="none" stroke="black" d="M1286.95,-296.198C1237.54,-286.056 1154.44,-268.643 1083.34,-252 1074.94,-250.034 1065.98,-247.832 1057.43,-245.682"/>
<polygon fill="black" stroke="black" points="1058.19,-242.265 1047.64,-243.198 1056.47,-249.05 1058.19,-242.265"/>
</g>
<!-- skewtab -->
<g id="node12" class="node"><title>skewtab</title>
<g id="a_node12"><a xlink:href="Combi.Combi.skewtab.html" xlink:title="skewtab">
<polygon fill="#dbc3b6" stroke="#dbc3b6" points="907.84,-828 830.84,-828 830.84,-792 907.84,-792 907.84,-828"/>
<text text-anchor="middle" x="869.34" y="-805.6" font-family="Times,serif" font-size="18.00">skewtab</text>
</a>
</g>
</g>
<!-- stdtab -->
<g id="node14" class="node"><title>stdtab</title>
<g id="a_node14"><a xlink:href="Combi.Combi.stdtab.html" xlink:title="stdtab">
<polygon fill="#dbc3b6" stroke="#dbc3b6" points="753.34,-324 691.34,-324 691.34,-288 753.34,-288 753.34,-324"/>
<text text-anchor="middle" x="722.34" y="-301.6" font-family="Times,serif" font-size="18.00">stdtab</text>
</a>
</g>
</g>
<!-- skewtab&#45;&gt;stdtab -->
<g id="edge70" class="edge"><title>skewtab&#45;&gt;stdtab</title>
<path fill="none" stroke="black" d="M830.718,-792.114C787.164,-770.148 722.34,-727.322 722.34,-667 722.34,-667 722.34,-667 722.34,-449 722.34,-408.996 722.34,-362.653 722.34,-334.08"/>
<polygon fill="black" stroke="black" points="725.84,-334.049 722.34,-324.049 718.84,-334.049 725.84,-334.049"/>
</g>
<!-- std -->
<g id="node13" class="node"><title>std</title>
<g id="a_node13"><a xlink:href="Combi.Combi.std.html" xlink:title="std">
<polygon fill="#dbc3b6" stroke="#dbc3b6" points="1353.34,-252 1299.34,-252 1299.34,-216 1353.34,-216 1353.34,-252"/>
<text text-anchor="middle" x="1326.34" y="-229.6" font-family="Times,serif" font-size="18.00">std</text>
</a>
</g>
</g>
<!-- std&#45;&gt;combclass -->
<g id="edge67" class="edge"><title>std&#45;&gt;combclass</title>
<path fill="none" stroke="black" d="M1303.06,-215.871C1268.57,-190.497 1203.82,-142.854 1165.03,-114.318"/>
<polygon fill="black" stroke="black" points="1166.83,-111.296 1156.7,-108.189 1162.68,-116.935 1166.83,-111.296"/>
</g>
<!-- std&#45;&gt;ordtype -->
<g id="edge68" class="edge"><title>std&#45;&gt;ordtype</title>
<path fill="none" stroke="black" d="M1331.17,-215.871C1338.01,-191.564 1350.62,-146.819 1358.73,-118.013"/>
<polygon fill="black" stroke="black" points="1362.16,-118.764 1361.5,-108.189 1355.42,-116.866 1362.16,-118.764"/>
</g>
<!-- permcomp -->
<g id="node42" class="node"><title>permcomp</title>
<g id="a_node42"><a xlink:href="Combi.SSRcomplements.permcomp.html" xlink:title="permcomp">
<polygon fill="#dbc3b6" stroke="#dbc3b6" points="1071.34,-180 977.34,-180 977.34,-144 1071.34,-144 1071.34,-180"/>
<text text-anchor="middle" x="1024.34" y="-157.6" font-family="Times,serif" font-size="18.00">permcomp</text>
</a>
</g>
</g>
<!-- std&#45;&gt;permcomp -->
<g id="edge69" class="edge"><title>std&#45;&gt;permcomp</title>
<path fill="none" stroke="black" d="M1299.12,-225.366C1288.05,-222.336 1275.11,-218.892 1263.34,-216 1201.49,-200.807 1130.17,-185.242 1081.65,-174.945"/>
<polygon fill="black" stroke="black" points="1082.16,-171.476 1071.65,-172.83 1080.71,-178.324 1082.16,-171.476"/>
</g>
<!-- stdtab&#45;&gt;Yamanouchi -->
<g id="edge64" class="edge"><title>stdtab&#45;&gt;Yamanouchi</title>
<path fill="none" stroke="black" d="M753.541,-288.941C772.039,-279.42 795.735,-267.223 815.915,-256.837"/>
<polygon fill="black" stroke="black" points="817.618,-259.896 824.908,-252.208 814.414,-253.672 817.618,-259.896"/>
</g>
<!-- stdtab&#45;&gt;std -->
<g id="edge65" class="edge"><title>stdtab&#45;&gt;std</title>
<path fill="none" stroke="black" d="M753.393,-303.762C836.622,-300.055 1071.4,-287.049 1263.34,-252 1271.91,-250.435 1281.02,-248.276 1289.57,-246.021"/>
<polygon fill="black" stroke="black" points="1290.56,-249.379 1299.28,-243.36 1288.71,-242.627 1290.56,-249.379"/>
</g>
<!-- tableau -->
<g id="node16" class="node"><title>tableau</title>
<g id="a_node16"><a xlink:href="Combi.Combi.tableau.html" xlink:title="tableau">
<polygon fill="#dbc3b6" stroke="#dbc3b6" points="731.34,-252 661.34,-252 661.34,-216 731.34,-216 731.34,-252"/>
<text text-anchor="middle" x="696.34" y="-229.6" font-family="Times,serif" font-size="18.00">tableau</text>
</a>
</g>
</g>
<!-- stdtab&#45;&gt;tableau -->
<g id="edge66" class="edge"><title>stdtab&#45;&gt;tableau</title>
<path fill="none" stroke="black" d="M715.913,-287.697C712.985,-279.813 709.453,-270.304 706.2,-261.546"/>
<polygon fill="black" stroke="black" points="709.456,-260.26 702.693,-252.104 702.894,-262.697 709.456,-260.26"/>
</g>
<!-- subseq -->
<g id="node15" class="node"><title>subseq</title>
<g id="a_node15"><a xlink:href="Combi.Combi.subseq.html" xlink:title="subseq">
<polygon fill="#dbc3b6" stroke="#dbc3b6" points="669.84,-180 602.84,-180 602.84,-144 669.84,-144 669.84,-180"/>
<text text-anchor="middle" x="636.34" y="-157.6" font-family="Times,serif" font-size="18.00">subseq</text>
</a>
</g>
</g>
<!-- subseq&#45;&gt;combclass -->
<g id="edge62" class="edge"><title>subseq&#45;&gt;combclass</title>
<path fill="none" stroke="black" d="M670.11,-156.244C754.157,-144.406 973.411,-113.525 1077.25,-98.8999"/>
<polygon fill="black" stroke="black" points="1077.82,-102.355 1087.23,-97.4942 1076.84,-95.4232 1077.82,-102.355"/>
</g>
<!-- subseq&#45;&gt;sorted -->
<g id="edge63" class="edge"><title>subseq&#45;&gt;sorted</title>
<path fill="none" stroke="black" d="M670.13,-150.671C711.105,-138.146 780.139,-117.044 824.179,-103.582"/>
<polygon fill="black" stroke="black" points="825.45,-106.853 833.99,-100.583 823.404,-100.159 825.45,-106.853"/>
</g>
<!-- tableau&#45;&gt;partition -->
<g id="edge61" class="edge"><title>tableau&#45;&gt;partition</title>
<path fill="none" stroke="black" d="M731.357,-218.496C755.832,-208.358 788.859,-194.678 815.998,-183.438"/>
<polygon fill="black" stroke="black" points="817.429,-186.633 825.328,-179.573 814.75,-180.166 817.429,-186.633"/>
</g>
<!-- vectNK&#45;&gt;tools -->
<g id="edge60" class="edge"><title>vectNK&#45;&gt;tools</title>
<path fill="none" stroke="black" d="M1759.47,-143.962C1721.08,-125.431 1657.37,-95.3373 1601.34,-72 1566.03,-57.2932 1525.04,-42.1999 1496.2,-31.9007"/>
<polygon fill="black" stroke="black" points="1497.13,-28.5169 1486.53,-28.4662 1494.78,-35.1128 1497.13,-28.5169"/>
</g>
<!-- Erdos_Szekeres -->
<g id="node18" class="node"><title>Erdos_Szekeres</title>
<g id="a_node18"><a xlink:href="Combi.Erdos_Szekeres.Erdos_Szekeres.html" xlink:title="Erdos_Szekeres">
<polygon fill="#dbc3b6" stroke="#dbc3b6" points="1214.84,-684 1081.84,-684 1081.84,-648 1214.84,-648 1214.84,-684"/>
<text text-anchor="middle" x="1148.34" y="-661.6" font-family="Times,serif" font-size="18.00">Erdos_Szekeres</text>
</a>
</g>
</g>
<!-- Greene_inv -->
<g id="node24" class="node"><title>Greene_inv</title>
<g id="a_node24"><a xlink:href="Combi.LRrule.Greene_inv.html" xlink:title="Greene_inv">
<polygon fill="#dbc3b6" stroke="#dbc3b6" points="1374.84,-612 1273.84,-612 1273.84,-576 1374.84,-576 1374.84,-612"/>
<text text-anchor="middle" x="1324.34" y="-589.6" font-family="Times,serif" font-size="18.00">Greene_inv</text>
</a>
</g>
</g>
<!-- Erdos_Szekeres&#45;&gt;Greene_inv -->
<g id="edge58" class="edge"><title>Erdos_Szekeres&#45;&gt;Greene_inv</title>
<path fill="none" stroke="black" d="M1191.39,-647.876C1215.67,-638.222 1246.18,-626.087 1271.85,-615.878"/>
<polygon fill="black" stroke="black" points="1273.43,-619.016 1281.43,-612.068 1270.84,-612.512 1273.43,-619.016"/>
</g>
<!-- Frobenius_ident -->
<g id="node19" class="node"><title>Frobenius_ident</title>
<g id="a_node19"><a xlink:href="Combi.HookFormula.Frobenius_ident.html" xlink:title="Frobenius_ident">
<polygon fill="#dbc3b6" stroke="#dbc3b6" points="466.84,-540 329.84,-540 329.84,-504 466.84,-504 466.84,-540"/>
<text text-anchor="middle" x="398.34" y="-517.6" font-family="Times,serif" font-size="18.00">Frobenius_ident</text>
</a>
</g>
</g>
<!-- hook -->
<g id="node21" class="node"><title>hook</title>
<g id="a_node21"><a xlink:href="Combi.HookFormula.hook.html" xlink:title="hook">
<polygon fill="#dbc3b6" stroke="#dbc3b6" points="279.34,-468 225.34,-468 225.34,-432 279.34,-432 279.34,-468"/>
<text text-anchor="middle" x="252.34" y="-445.6" font-family="Times,serif" font-size="18.00">hook</text>
</a>
</g>
</g>
<!-- Frobenius_ident&#45;&gt;hook -->
<g id="edge36" class="edge"><title>Frobenius_ident&#45;&gt;hook</title>
<path fill="none" stroke="black" d="M362.625,-503.876C340.169,-493.11 311.279,-479.258 288.701,-468.433"/>
<polygon fill="black" stroke="black" points="289.979,-465.165 279.449,-463.997 286.953,-471.477 289.979,-465.165"/>
</g>
<!-- Schensted -->
<g id="node25" class="node"><title>Schensted</title>
<g id="a_node25"><a xlink:href="Combi.LRrule.Schensted.html" xlink:title="Schensted">
<polygon fill="#dbc3b6" stroke="#dbc3b6" points="613.34,-396 521.34,-396 521.34,-360 613.34,-360 613.34,-396"/>
<text text-anchor="middle" x="567.34" y="-373.6" font-family="Times,serif" font-size="18.00">Schensted</text>
</a>
</g>
</g>
<!-- Frobenius_ident&#45;&gt;Schensted -->
<g id="edge37" class="edge"><title>Frobenius_ident&#45;&gt;Schensted</title>
<path fill="none" stroke="black" d="M418.726,-503.871C448.797,-478.604 505.15,-431.254 539.159,-402.679"/>
<polygon fill="black" stroke="black" points="541.478,-405.302 546.883,-396.189 536.975,-399.943 541.478,-405.302"/>
</g>
<!-- Qmeasure -->
<g id="node20" class="node"><title>Qmeasure</title>
<g id="a_node20"><a xlink:href="Combi.HookFormula.Qmeasure.html" xlink:title="Qmeasure">
<polygon fill="#dbc3b6" stroke="#dbc3b6" points="132.84,-396 43.8402,-396 43.8402,-360 132.84,-360 132.84,-396"/>
<text text-anchor="middle" x="88.3402" y="-373.6" font-family="Times,serif" font-size="18.00">Qmeasure</text>
</a>
</g>
</g>
<!-- Qmeasure&#45;&gt;Ccpo -->
<g id="edge33" class="edge"><title>Qmeasure&#45;&gt;Ccpo</title>
<path fill="none" stroke="black" d="M117.206,-359.876C132.865,-350.587 152.395,-339.001 169.179,-329.045"/>
<polygon fill="black" stroke="black" points="171.364,-331.818 178.179,-323.706 167.793,-325.797 171.364,-331.818"/>
</g>
<!-- Qmeasure&#45;&gt;Misc -->
<g id="edge34" class="edge"><title>Qmeasure&#45;&gt;Misc</title>
<path fill="none" stroke="black" d="M86.1154,-359.697C85.1236,-351.983 83.9318,-342.712 82.826,-334.112"/>
<polygon fill="black" stroke="black" points="86.286,-333.576 81.5393,-324.104 79.3432,-334.469 86.286,-333.576"/>
</g>
<!-- rat_coerce -->
<g id="node43" class="node"><title>rat_coerce</title>
<g id="a_node43"><a xlink:href="Combi.SSRcomplements.rat_coerce.html" xlink:title="rat_coerce">
<polygon fill="#dbc3b6" stroke="#dbc3b6" points="428.34,-324 334.34,-324 334.34,-288 428.34,-288 428.34,-324"/>
<text text-anchor="middle" x="381.34" y="-301.6" font-family="Times,serif" font-size="18.00">rat_coerce</text>
</a>
</g>
</g>
<!-- Qmeasure&#45;&gt;rat_coerce -->
<g id="edge35" class="edge"><title>Qmeasure&#45;&gt;rat_coerce</title>
<path fill="none" stroke="black" d="M132.841,-366.369C184.037,-354.137 268.226,-334.024 324.22,-320.647"/>
<polygon fill="black" stroke="black" points="325.074,-324.041 333.987,-318.313 323.448,-317.233 325.074,-324.041"/>
</g>
<!-- hook&#45;&gt;subseq -->
<g id="edge29" class="edge"><title>hook&#45;&gt;subseq</title>
<path fill="none" stroke="black" d="M224.917,-447.267C166.825,-442.966 34.4614,-429.616 7.34016,-396 -6.56543,-378.765 2.29712,-303.132 16.3402,-288 95.0769,-203.16 464.613,-173.281 592.586,-165.378"/>
<polygon fill="black" stroke="black" points="593.023,-168.858 602.795,-164.763 592.602,-161.871 593.023,-168.858"/>
</g>
<!-- hook&#45;&gt;Qmeasure -->
<g id="edge30" class="edge"><title>hook&#45;&gt;Qmeasure</title>
<path fill="none" stroke="black" d="M225.259,-437.441C201.555,-427.323 166.52,-412.369 137.824,-400.121"/>
<polygon fill="black" stroke="black" points="138.932,-396.789 128.361,-396.082 136.184,-403.227 138.932,-396.789"/>
</g>
<!-- recyama -->
<g id="node22" class="node"><title>recyama</title>
<g id="a_node22"><a xlink:href="Combi.HookFormula.recyama.html" xlink:title="recyama">
<polygon fill="#dbc3b6" stroke="#dbc3b6" points="449.34,-396 371.34,-396 371.34,-360 449.34,-360 449.34,-396"/>
<text text-anchor="middle" x="410.34" y="-373.6" font-family="Times,serif" font-size="18.00">recyama</text>
</a>
</g>
</g>
<!-- hook&#45;&gt;recyama -->
<g id="edge31" class="edge"><title>hook&#45;&gt;recyama</title>
<path fill="none" stroke="black" d="M279.501,-436.967C302.232,-426.896 335.214,-412.284 362.376,-400.25"/>
<polygon fill="black" stroke="black" points="363.989,-403.363 371.714,-396.113 361.154,-396.963 363.989,-403.363"/>
</g>
<!-- bigallpairs -->
<g id="node40" class="node"><title>bigallpairs</title>
<g id="a_node40"><a xlink:href="Combi.SSRcomplements.bigallpairs.html" xlink:title="bigallpairs">
<polygon fill="#dbc3b6" stroke="#dbc3b6" points="299.34,-396 205.34,-396 205.34,-360 299.34,-360 299.34,-396"/>
<text text-anchor="middle" x="252.34" y="-373.6" font-family="Times,serif" font-size="18.00">bigallpairs</text>
</a>
</g>
</g>
<!-- hook&#45;&gt;bigallpairs -->
<g id="edge32" class="edge"><title>hook&#45;&gt;bigallpairs</title>
<path fill="none" stroke="black" d="M252.34,-431.697C252.34,-423.983 252.34,-414.712 252.34,-406.112"/>
<polygon fill="black" stroke="black" points="255.84,-406.104 252.34,-396.104 248.84,-406.104 255.84,-406.104"/>
</g>
<!-- recyama&#45;&gt;stdtab -->
<g id="edge27" class="edge"><title>recyama&#45;&gt;stdtab</title>
<path fill="none" stroke="black" d="M449.649,-368.067C461.151,-365.46 473.748,-362.61 485.34,-360 554.126,-344.513 634.178,-326.643 681.424,-316.112"/>
<polygon fill="black" stroke="black" points="682.278,-319.508 691.277,-313.917 680.755,-312.676 682.278,-319.508"/>
</g>
<!-- recyama&#45;&gt;rat_coerce -->
<g id="edge28" class="edge"><title>recyama&#45;&gt;rat_coerce</title>
<path fill="none" stroke="black" d="M403.172,-359.697C399.906,-351.813 395.966,-342.304 392.338,-333.546"/>
<polygon fill="black" stroke="black" points="395.487,-332.003 388.426,-324.104 389.02,-334.683 395.487,-332.003"/>
</g>
<!-- Greene -->
<g id="node23" class="node"><title>Greene</title>
<g id="a_node23"><a xlink:href="Combi.LRrule.Greene.html" xlink:title="Greene">
<polygon fill="#dbc3b6" stroke="#dbc3b6" points="1520.84,-540 1451.84,-540 1451.84,-504 1520.84,-504 1520.84,-540"/>
<text text-anchor="middle" x="1486.34" y="-517.6" font-family="Times,serif" font-size="18.00">Greene</text>
</a>
</g>
</g>
<!-- plactic -->
<g id="node30" class="node"><title>plactic</title>
<g id="a_node30"><a xlink:href="Combi.LRrule.plactic.html" xlink:title="plactic">
<polygon fill="#dbc3b6" stroke="#dbc3b6" points="1520.84,-468 1455.84,-468 1455.84,-432 1520.84,-432 1520.84,-468"/>
<text text-anchor="middle" x="1488.34" y="-445.6" font-family="Times,serif" font-size="18.00">plactic</text>
</a>
</g>
</g>
<!-- Greene&#45;&gt;plactic -->
<g id="edge52" class="edge"><title>Greene&#45;&gt;plactic</title>
<path fill="none" stroke="black" d="M1486.83,-503.697C1487.05,-495.983 1487.32,-486.712 1487.57,-478.112"/>
<polygon fill="black" stroke="black" points="1491.06,-478.2 1487.85,-468.104 1484.07,-478 1491.06,-478.2"/>
</g>
<!-- ordcast -->
<g id="node41" class="node"><title>ordcast</title>
<g id="a_node41"><a xlink:href="Combi.SSRcomplements.ordcast.html" xlink:title="ordcast">
<polygon fill="#dbc3b6" stroke="#dbc3b6" points="1812.84,-468 1741.84,-468 1741.84,-432 1812.84,-432 1812.84,-468"/>
<text text-anchor="middle" x="1777.34" y="-445.6" font-family="Times,serif" font-size="18.00">ordcast</text>
</a>
</g>
</g>
<!-- Greene&#45;&gt;ordcast -->
<g id="edge53" class="edge"><title>Greene&#45;&gt;ordcast</title>
<path fill="none" stroke="black" d="M1520.86,-512.695C1573.27,-500.089 1672.97,-476.106 1731.43,-462.043"/>
<polygon fill="black" stroke="black" points="1732.59,-465.364 1741.5,-459.622 1730.95,-458.558 1732.59,-465.364"/>
</g>
<!-- Greene_inv&#45;&gt;Greene -->
<g id="edge51" class="edge"><title>Greene_inv&#45;&gt;Greene</title>
<path fill="none" stroke="black" d="M1363.97,-575.876C1387.7,-565.621 1417.91,-552.567 1442.38,-541.996"/>
<polygon fill="black" stroke="black" points="1444,-545.109 1451.79,-537.929 1441.22,-538.683 1444,-545.109"/>
</g>
<!-- Schensted&#45;&gt;stdtab -->
<g id="edge46" class="edge"><title>Schensted&#45;&gt;stdtab</title>
<path fill="none" stroke="black" d="M605.257,-359.876C628.495,-349.382 658.222,-335.956 681.908,-325.26"/>
<polygon fill="black" stroke="black" points="683.648,-328.315 691.321,-321.009 680.766,-321.935 683.648,-328.315"/>
</g>
<!-- Schensted&#45;&gt;subseq -->
<g id="edge47" class="edge"><title>Schensted&#45;&gt;subseq</title>
<path fill="none" stroke="black" d="M572.87,-359.849C584.856,-322.675 613.306,-234.439 627.692,-189.82"/>
<polygon fill="black" stroke="black" points="631.046,-190.824 630.784,-180.232 624.384,-188.676 631.046,-190.824"/>
</g>
<!-- Yam_plact -->
<g id="node26" class="node"><title>Yam_plact</title>
<g id="a_node26"><a xlink:href="Combi.LRrule.Yam_plact.html" xlink:title="Yam_plact">
<polygon fill="#dbc3b6" stroke="#dbc3b6" points="1371.34,-756 1275.34,-756 1275.34,-720 1371.34,-720 1371.34,-756"/>
<text text-anchor="middle" x="1323.34" y="-733.6" font-family="Times,serif" font-size="18.00">Yam_plact</text>
</a>
</g>
</g>
<!-- stdplact -->
<g id="node32" class="node"><title>stdplact</title>
<g id="a_node32"><a xlink:href="Combi.LRrule.stdplact.html" xlink:title="stdplact">
<polygon fill="#dbc3b6" stroke="#dbc3b6" points="1361.34,-684 1287.34,-684 1287.34,-648 1361.34,-648 1361.34,-684"/>
<text text-anchor="middle" x="1324.34" y="-661.6" font-family="Times,serif" font-size="18.00">stdplact</text>
</a>
</g>
</g>
<!-- Yam_plact&#45;&gt;stdplact -->
<g id="edge41" class="edge"><title>Yam_plact&#45;&gt;stdplact</title>
<path fill="none" stroke="black" d="M1323.59,-719.697C1323.7,-711.983 1323.83,-702.712 1323.95,-694.112"/>
<polygon fill="black" stroke="black" points="1327.45,-694.153 1324.1,-684.104 1320.45,-694.053 1327.45,-694.153"/>
</g>
<!-- extract -->
<g id="node27" class="node"><title>extract</title>
<g id="a_node27"><a xlink:href="Combi.LRrule.extract.html" xlink:title="extract">
<polygon fill="#dbc3b6" stroke="#dbc3b6" points="1203.84,-1044 1136.84,-1044 1136.84,-1008 1203.84,-1008 1203.84,-1044"/>
<text text-anchor="middle" x="1170.34" y="-1021.6" font-family="Times,serif" font-size="18.00">extract</text>
</a>
</g>
</g>
<!-- implem -->
<g id="node29" class="node"><title>implem</title>
<g id="a_node29"><a xlink:href="Combi.LRrule.implem.html" xlink:title="implem">
<polygon fill="#dbc3b6" stroke="#dbc3b6" points="1205.84,-972 1134.84,-972 1134.84,-936 1205.84,-936 1205.84,-972"/>
<text text-anchor="middle" x="1170.34" y="-949.6" font-family="Times,serif" font-size="18.00">implem</text>
</a>
</g>
</g>
<!-- extract&#45;&gt;implem -->
<g id="edge57" class="edge"><title>extract&#45;&gt;implem</title>
<path fill="none" stroke="black" d="M1170.34,-1007.7C1170.34,-999.983 1170.34,-990.712 1170.34,-982.112"/>
<polygon fill="black" stroke="black" points="1173.84,-982.104 1170.34,-972.104 1166.84,-982.104 1173.84,-982.104"/>
</g>
<!-- freeSchur -->
<g id="node28" class="node"><title>freeSchur</title>
<g id="a_node28"><a xlink:href="Combi.LRrule.freeSchur.html" xlink:title="freeSchur">
<polygon fill="#dbc3b6" stroke="#dbc3b6" points="1213.84,-828 1126.84,-828 1126.84,-792 1213.84,-792 1213.84,-828"/>
<text text-anchor="middle" x="1170.34" y="-805.6" font-family="Times,serif" font-size="18.00">freeSchur</text>
</a>
</g>
</g>
<!-- freeSchur&#45;&gt;Yam_plact -->
<g id="edge54" class="edge"><title>freeSchur&#45;&gt;Yam_plact</title>
<path fill="none" stroke="black" d="M1207.77,-791.876C1228.59,-782.349 1254.69,-770.407 1276.82,-760.283"/>
<polygon fill="black" stroke="black" points="1278.4,-763.411 1286.03,-756.068 1275.48,-757.046 1278.4,-763.411"/>
</g>
<!-- shuffle -->
<g id="node31" class="node"><title>shuffle</title>
<g id="a_node31"><a xlink:href="Combi.LRrule.shuffle.html" xlink:title="shuffle">
<polygon fill="#dbc3b6" stroke="#dbc3b6" points="1202.84,-756 1137.84,-756 1137.84,-720 1202.84,-720 1202.84,-756"/>
<text text-anchor="middle" x="1170.34" y="-733.6" font-family="Times,serif" font-size="18.00">shuffle</text>
</a>
</g>
</g>
<!-- freeSchur&#45;&gt;shuffle -->
<g id="edge55" class="edge"><title>freeSchur&#45;&gt;shuffle</title>
<path fill="none" stroke="black" d="M1170.34,-791.697C1170.34,-783.983 1170.34,-774.712 1170.34,-766.112"/>
<polygon fill="black" stroke="black" points="1173.84,-766.104 1170.34,-756.104 1166.84,-766.104 1173.84,-766.104"/>
</g>
<!-- Schur_mpoly -->
<g id="node36" class="node"><title>Schur_mpoly</title>
<g id="a_node36"><a xlink:href="Combi.MPoly.Schur_mpoly.html" xlink:title="Schur_mpoly">
<polygon fill="#dbc3b6" stroke="#dbc3b6" points="1029.34,-612 915.34,-612 915.34,-576 1029.34,-576 1029.34,-612"/>
<text text-anchor="middle" x="972.34" y="-589.6" font-family="Times,serif" font-size="18.00">Schur_mpoly</text>
</a>
</g>
</g>
<!-- freeSchur&#45;&gt;Schur_mpoly -->
<g id="edge56" class="edge"><title>freeSchur&#45;&gt;Schur_mpoly</title>
<path fill="none" stroke="black" d="M1145.22,-791.949C1131.59,-782.16 1114.83,-769.214 1101.34,-756 1056.72,-712.282 1013.02,-653.402 989.699,-620.313"/>
<polygon fill="black" stroke="black" points="992.547,-618.279 983.949,-612.089 986.81,-622.291 992.547,-618.279"/>
</g>
<!-- therule -->
<g id="node33" class="node"><title>therule</title>
<g id="a_node33"><a xlink:href="Combi.LRrule.therule.html" xlink:title="therule">
<polygon fill="#dbc3b6" stroke="#dbc3b6" points="1203.84,-900 1136.84,-900 1136.84,-864 1203.84,-864 1203.84,-900"/>
<text text-anchor="middle" x="1170.34" y="-877.6" font-family="Times,serif" font-size="18.00">therule</text>
</a>
</g>
</g>
<!-- implem&#45;&gt;therule -->
<g id="edge50" class="edge"><title>implem&#45;&gt;therule</title>
<path fill="none" stroke="black" d="M1170.34,-935.697C1170.34,-927.983 1170.34,-918.712 1170.34,-910.112"/>
<polygon fill="black" stroke="black" points="1173.84,-910.104 1170.34,-900.104 1166.84,-910.104 1173.84,-910.104"/>
</g>
<!-- plactic&#45;&gt;congr -->
<g id="edge48" class="edge"><title>plactic&#45;&gt;congr</title>
<path fill="none" stroke="black" d="M1468.32,-431.697C1458.21,-422.965 1445.8,-412.24 1434.82,-402.75"/>
<polygon fill="black" stroke="black" points="1436.99,-399.995 1427.13,-396.104 1432.41,-405.291 1436.99,-399.995"/>
</g>
<!-- plactic&#45;&gt;Schensted -->
<g id="edge49" class="edge"><title>plactic&#45;&gt;Schensted</title>
<path fill="none" stroke="black" d="M1455.59,-439.656C1444.2,-436.749 1431.29,-433.829 1419.34,-432 1122.01,-386.501 760.599,-379.833 623.61,-379.023"/>
<polygon fill="black" stroke="black" points="623.384,-375.522 613.366,-378.971 623.348,-382.522 623.384,-375.522"/>
</g>
<!-- shuffle&#45;&gt;stdplact -->
<g id="edge45" class="edge"><title>shuffle&#45;&gt;stdplact</title>
<path fill="none" stroke="black" d="M1203,-722.155C1224.75,-712.27 1253.65,-699.132 1277.79,-688.157"/>
<polygon fill="black" stroke="black" points="1279.47,-691.239 1287.13,-683.914 1276.58,-684.866 1279.47,-691.239"/>
</g>
<!-- stdplact&#45;&gt;Greene_inv -->
<g id="edge44" class="edge"><title>stdplact&#45;&gt;Greene_inv</title>
<path fill="none" stroke="black" d="M1324.34,-647.697C1324.34,-639.983 1324.34,-630.712 1324.34,-622.112"/>
<polygon fill="black" stroke="black" points="1327.84,-622.104 1324.34,-612.104 1320.84,-622.104 1327.84,-622.104"/>
</g>
<!-- therule&#45;&gt;skewtab -->
<g id="edge42" class="edge"><title>therule&#45;&gt;skewtab</title>
<path fill="none" stroke="black" d="M1136.69,-873.174C1083.36,-860.771 979.191,-836.547 917.812,-822.273"/>
<polygon fill="black" stroke="black" points="918.508,-818.841 907.975,-819.985 916.923,-825.659 918.508,-818.841"/>
</g>
<!-- therule&#45;&gt;freeSchur -->
<g id="edge43" class="edge"><title>therule&#45;&gt;freeSchur</title>
<path fill="none" stroke="black" d="M1170.34,-863.697C1170.34,-855.983 1170.34,-846.712 1170.34,-838.112"/>
<polygon fill="black" stroke="black" points="1173.84,-838.104 1170.34,-828.104 1166.84,-838.104 1173.84,-838.104"/>
</g>
<!-- Cauchy -->
<g id="node34" class="node"><title>Cauchy</title>
<g id="a_node34"><a xlink:href="Combi.MPoly.Cauchy.html" xlink:title="Cauchy">
<polygon fill="#dbc3b6" stroke="#dbc3b6" points="1586.34,-1188 1514.34,-1188 1514.34,-1152 1586.34,-1152 1586.34,-1188"/>
<text text-anchor="middle" x="1550.34" y="-1165.6" font-family="Times,serif" font-size="18.00">Cauchy</text>
</a>
</g>
</g>
<!-- homogsym -->
<g id="node38" class="node"><title>homogsym</title>
<g id="a_node38"><a xlink:href="Combi.MPoly.homogsym.html" xlink:title="homogsym">
<polygon fill="#dbc3b6" stroke="#dbc3b6" points="1592.34,-1116 1494.34,-1116 1494.34,-1080 1592.34,-1080 1592.34,-1116"/>
<text text-anchor="middle" x="1543.34" y="-1093.6" font-family="Times,serif" font-size="18.00">homogsym</text>
</a>
</g>
</g>
<!-- Cauchy&#45;&gt;homogsym -->
<g id="edge8" class="edge"><title>Cauchy&#45;&gt;homogsym</title>
<path fill="none" stroke="black" d="M1548.61,-1151.7C1547.84,-1143.98 1546.91,-1134.71 1546.05,-1126.11"/>
<polygon fill="black" stroke="black" points="1549.53,-1125.71 1545.05,-1116.1 1542.56,-1126.4 1549.53,-1125.71"/>
</g>
<!-- Schur_altdef -->
<g id="node35" class="node"><title>Schur_altdef</title>
<g id="a_node35"><a xlink:href="Combi.MPoly.Schur_altdef.html" xlink:title="Schur_altdef">
<polygon fill="#dbc3b6" stroke="#dbc3b6" points="1512.34,-972 1402.34,-972 1402.34,-936 1512.34,-936 1512.34,-972"/>
<text text-anchor="middle" x="1457.34" y="-949.6" font-family="Times,serif" font-size="18.00">Schur_altdef</text>
</a>
</g>
</g>
<!-- Schur_altdef&#45;&gt;therule -->
<g id="edge1" class="edge"><title>Schur_altdef&#45;&gt;therule</title>
<path fill="none" stroke="black" d="M1402,-939.503C1347.14,-926.123 1264.22,-905.896 1213.88,-893.62"/>
<polygon fill="black" stroke="black" points="1214.51,-890.171 1203.97,-891.201 1212.85,-896.971 1214.51,-890.171"/>
</g>
<!-- unitriginv -->
<g id="node46" class="node"><title>unitriginv</title>
<g id="a_node46"><a xlink:href="Combi.SSRcomplements.unitriginv.html" xlink:title="unitriginv">
<polygon fill="#dbc3b6" stroke="#dbc3b6" points="1508.84,-900 1419.84,-900 1419.84,-864 1508.84,-864 1508.84,-900"/>
<text text-anchor="middle" x="1464.34" y="-877.6" font-family="Times,serif" font-size="18.00">unitriginv</text>
</a>
</g>
</g>
<!-- Schur_altdef&#45;&gt;unitriginv -->
<g id="edge2" class="edge"><title>Schur_altdef&#45;&gt;unitriginv</title>
<path fill="none" stroke="black" d="M1459.07,-935.697C1459.84,-927.983 1460.77,-918.712 1461.63,-910.112"/>
<polygon fill="black" stroke="black" points="1465.12,-910.403 1462.63,-900.104 1458.15,-909.706 1465.12,-910.403"/>
</g>
<!-- Schur_mpoly&#45;&gt;stdtab -->
<g id="edge3" class="edge"><title>Schur_mpoly&#45;&gt;stdtab</title>
<path fill="none" stroke="black" d="M958.988,-575.802C928.225,-536.465 849.46,-437.357 777.34,-360 768.298,-350.301 757.927,-340.092 748.646,-331.252"/>
<polygon fill="black" stroke="black" points="750.835,-328.505 741.159,-324.189 746.032,-333.597 750.835,-328.505"/>
</g>
<!-- antisym -->
<g id="node37" class="node"><title>antisym</title>
<g id="a_node37"><a xlink:href="Combi.MPoly.antisym.html" xlink:title="antisym">
<polygon fill="#dbc3b6" stroke="#dbc3b6" points="1053.34,-540 979.34,-540 979.34,-504 1053.34,-504 1053.34,-540"/>
<text text-anchor="middle" x="1016.34" y="-517.6" font-family="Times,serif" font-size="18.00">antisym</text>
</a>
</g>
</g>
<!-- Schur_mpoly&#45;&gt;antisym -->
<g id="edge4" class="edge"><title>Schur_mpoly&#45;&gt;antisym</title>
<path fill="none" stroke="black" d="M983.217,-575.697C988.332,-567.559 994.536,-557.689 1000.19,-548.701"/>
<polygon fill="black" stroke="black" points="1003.23,-550.433 1005.59,-540.104 997.304,-546.708 1003.23,-550.433"/>
</g>
<!-- presentSn -->
<g id="node51" class="node"><title>presentSn</title>
<g id="a_node51"><a xlink:href="Combi.SymGroup.presentSn.html" xlink:title="presentSn">
<polygon fill="#dbc3b6" stroke="#dbc3b6" points="1066.84,-468 977.84,-468 977.84,-432 1066.84,-432 1066.84,-468"/>
<text text-anchor="middle" x="1022.34" y="-445.6" font-family="Times,serif" font-size="18.00">presentSn</text>
</a>
</g>
</g>
<!-- antisym&#45;&gt;presentSn -->
<g id="edge9" class="edge"><title>antisym&#45;&gt;presentSn</title>
<path fill="none" stroke="black" d="M1017.82,-503.697C1018.48,-495.983 1019.28,-486.712 1020.02,-478.112"/>
<polygon fill="black" stroke="black" points="1023.51,-478.367 1020.87,-468.104 1016.53,-477.769 1023.51,-478.367"/>
</g>
<!-- sympoly -->
<g id="node39" class="node"><title>sympoly</title>
<g id="a_node39"><a xlink:href="Combi.MPoly.sympoly.html" xlink:title="sympoly">
<polygon fill="#dbc3b6" stroke="#dbc3b6" points="1582.34,-1044 1504.34,-1044 1504.34,-1008 1582.34,-1008 1582.34,-1044"/>
<text text-anchor="middle" x="1543.34" y="-1021.6" font-family="Times,serif" font-size="18.00">sympoly</text>
</a>
</g>
</g>
<!-- homogsym&#45;&gt;sympoly -->
<g id="edge7" class="edge"><title>homogsym&#45;&gt;sympoly</title>
<path fill="none" stroke="black" d="M1543.34,-1079.7C1543.34,-1071.98 1543.34,-1062.71 1543.34,-1054.11"/>
<polygon fill="black" stroke="black" points="1546.84,-1054.1 1543.34,-1044.1 1539.84,-1054.1 1546.84,-1054.1"/>
</g>
<!-- sympoly&#45;&gt;Schur_altdef -->
<g id="edge5" class="edge"><title>sympoly&#45;&gt;Schur_altdef</title>
<path fill="none" stroke="black" d="M1522.08,-1007.7C1511.25,-998.881 1497.92,-988.032 1486.18,-978.474"/>
<polygon fill="black" stroke="black" points="1488.32,-975.703 1478.35,-972.104 1483.9,-981.132 1488.32,-975.703"/>
</g>
<!-- permcent -->
<g id="node50" class="node"><title>permcent</title>
<g id="a_node50"><a xlink:href="Combi.SymGroup.permcent.html" xlink:title="permcent">
<polygon fill="#dbc3b6" stroke="#dbc3b6" points="1668.34,-972 1584.34,-972 1584.34,-936 1668.34,-936 1668.34,-972"/>
<text text-anchor="middle" x="1626.34" y="-949.6" font-family="Times,serif" font-size="18.00">permcent</text>
</a>
</g>
</g>
<!-- sympoly&#45;&gt;permcent -->
<g id="edge6" class="edge"><title>sympoly&#45;&gt;permcent</title>
<path fill="none" stroke="black" d="M1563.86,-1007.7C1574.21,-998.965 1586.93,-988.24 1598.18,-978.75"/>
<polygon fill="black" stroke="black" points="1600.67,-981.227 1606.06,-972.104 1596.16,-975.876 1600.67,-981.227"/>
</g>
<!-- ordcast&#45;&gt;tools -->
<g id="edge40" class="edge"><title>ordcast&#45;&gt;tools</title>
<path fill="none" stroke="black" d="M1813.11,-436.257C1861.09,-416.599 1940.34,-373.993 1940.34,-307 1940.34,-307 1940.34,-307 1940.34,-161 1940.34,-68.6379 1609.99,-31.8373 1496.83,-21.9412"/>
<polygon fill="black" stroke="black" points="1496.84,-18.4292 1486.58,-21.0665 1496.25,-25.4039 1496.84,-18.4292"/>
</g>
<!-- sorted&#45;&gt;tools -->
<g id="edge39" class="edge"><title>sorted&#45;&gt;tools</title>
<path fill="none" stroke="black" d="M896.44,-85.3351C996.933,-73.4925 1312.72,-36.278 1421.83,-23.4209"/>
<polygon fill="black" stroke="black" points="1422.5,-26.8658 1432.02,-22.2194 1421.68,-19.9139 1422.5,-26.8658"/>
</g>
<!-- unitriginv&#45;&gt;ordtype -->
<g id="edge38" class="edge"><title>unitriginv&#45;&gt;ordtype</title>
<path fill="none" stroke="black" d="M1483.06,-863.98C1526.47,-822.543 1630.34,-711.256 1630.34,-595 1630.34,-595 1630.34,-595 1630.34,-377 1630.34,-249.017 1485.84,-153.862 1410.65,-113.013"/>
<polygon fill="black" stroke="black" points="1411.87,-109.696 1401.4,-108.072 1408.57,-115.871 1411.87,-109.696"/>
</g>
<!-- Frobenius_char -->
<g id="node47" class="node"><title>Frobenius_char</title>
<g id="a_node47"><a xlink:href="Combi.SymGroup.Frobenius_char.html" xlink:title="Frobenius_char">
<polygon fill="#dbc3b6" stroke="#dbc3b6" points="1690.84,-1260 1559.84,-1260 1559.84,-1224 1690.84,-1224 1690.84,-1260"/>
<text text-anchor="middle" x="1625.34" y="-1237.6" font-family="Times,serif" font-size="18.00">Frobenius_char</text>
</a>
</g>
</g>
<!-- Frobenius_char&#45;&gt;Cauchy -->
<g id="edge17" class="edge"><title>Frobenius_char&#45;&gt;Cauchy</title>
<path fill="none" stroke="black" d="M1606.8,-1223.7C1597.54,-1215.05 1586.18,-1204.45 1576.08,-1195.03"/>
<polygon fill="black" stroke="black" points="1578.36,-1192.37 1568.67,-1188.1 1573.59,-1197.49 1578.36,-1192.37"/>
</g>
<!-- towerSn -->
<g id="node54" class="node"><title>towerSn</title>
<g id="a_node54"><a xlink:href="Combi.SymGroup.towerSn.html" xlink:title="towerSn">
<polygon fill="#dbc3b6" stroke="#dbc3b6" points="1740.84,-1044 1661.84,-1044 1661.84,-1008 1740.84,-1008 1740.84,-1044"/>
<text text-anchor="middle" x="1701.34" y="-1021.6" font-family="Times,serif" font-size="18.00">towerSn</text>
</a>
</g>
</g>
<!-- Frobenius_char&#45;&gt;towerSn -->
<g id="edge18" class="edge"><title>Frobenius_char&#45;&gt;towerSn</title>
<path fill="none" stroke="black" d="M1631.43,-1223.85C1644.63,-1186.68 1675.97,-1098.44 1691.82,-1053.82"/>
<polygon fill="black" stroke="black" points="1695.17,-1054.83 1695.22,-1044.23 1688.58,-1052.48 1695.17,-1054.83"/>
</g>
<!-- cycles&#45;&gt;partition -->
<g id="edge21" class="edge"><title>cycles&#45;&gt;partition</title>
<path fill="none" stroke="black" d="M985.053,-218.496C963.776,-208.632 935.266,-195.416 911.406,-184.355"/>
<polygon fill="black" stroke="black" points="912.722,-181.108 902.178,-180.077 909.778,-187.458 912.722,-181.108"/>
</g>
<!-- cycles&#45;&gt;permcomp -->
<g id="edge22" class="edge"><title>cycles&#45;&gt;permcomp</title>
<path fill="none" stroke="black" d="M1018.32,-215.697C1019.2,-207.983 1020.26,-198.712 1021.24,-190.112"/>
<polygon fill="black" stroke="black" points="1024.73,-190.437 1022.39,-180.104 1017.77,-189.642 1024.73,-190.437"/>
</g>
<!-- cycletype -->
<g id="node49" class="node"><title>cycletype</title>
<g id="a_node49"><a xlink:href="Combi.SymGroup.cycletype.html" xlink:title="cycletype">
<polygon fill="#dbc3b6" stroke="#dbc3b6" points="1373.34,-540 1287.34,-540 1287.34,-504 1373.34,-504 1373.34,-540"/>
<text text-anchor="middle" x="1330.34" y="-517.6" font-family="Times,serif" font-size="18.00">cycletype</text>
</a>
</g>
</g>
<!-- cycletype&#45;&gt;fibered_set -->
<g id="edge19" class="edge"><title>cycletype&#45;&gt;fibered_set</title>
<path fill="none" stroke="black" d="M1331.33,-503.697C1331.77,-495.983 1332.3,-486.712 1332.79,-478.112"/>
<polygon fill="black" stroke="black" points="1336.29,-478.288 1333.36,-468.104 1329.3,-477.888 1336.29,-478.288"/>
</g>
<!-- cycletype&#45;&gt;cycles -->
<g id="edge20" class="edge"><title>cycletype&#45;&gt;cycles</title>
<path fill="none" stroke="black" d="M1301.22,-503.976C1285.34,-494.195 1265.64,-481.248 1249.34,-468 1164.91,-399.392 1077.35,-304.144 1037.89,-259.691"/>
<polygon fill="black" stroke="black" points="1040.34,-257.177 1031.1,-252 1035.1,-261.811 1040.34,-257.177"/>
</g>
<!-- permcent&#45;&gt;cycletype -->
<g id="edge16" class="edge"><title>permcent&#45;&gt;cycletype</title>
<path fill="none" stroke="black" d="M1619.87,-935.798C1597.86,-878.954 1520.98,-694.06 1410.34,-576 1399.31,-564.233 1385.19,-553.787 1371.88,-545.346"/>
<polygon fill="black" stroke="black" points="1373.66,-542.328 1363.3,-540.094 1370,-548.299 1373.66,-542.328"/>
</g>
<!-- presentSn&#45;&gt;congr -->
<g id="edge15" class="edge"><title>presentSn&#45;&gt;congr</title>
<path fill="none" stroke="black" d="M1066.88,-440.902C1142.63,-427.13 1295.34,-399.364 1367.65,-386.217"/>
<polygon fill="black" stroke="black" points="1368.5,-389.619 1377.72,-384.386 1367.25,-382.732 1368.5,-389.619"/>
</g>
<!-- reprS2 -->
<g id="node52" class="node"><title>reprS2</title>
<g id="a_node52"><a xlink:href="Combi.SymGroup.reprS2.html" xlink:title="reprS2">
<polygon fill="#dbc3b6" stroke="#dbc3b6" points="1201.84,-612 1136.84,-612 1136.84,-576 1201.84,-576 1201.84,-612"/>
<text text-anchor="middle" x="1169.34" y="-589.6" font-family="Times,serif" font-size="18.00">reprS2</text>
</a>
</g>
</g>
<!-- reprS2&#45;&gt;cycletype -->
<g id="edge12" class="edge"><title>reprS2&#45;&gt;cycletype</title>
<path fill="none" stroke="black" d="M1201.92,-578.834C1224.83,-568.872 1255.89,-555.369 1281.72,-544.137"/>
<polygon fill="black" stroke="black" points="1283.21,-547.31 1290.98,-540.113 1280.41,-540.89 1283.21,-547.31"/>
</g>
<!-- reprdim1 -->
<g id="node53" class="node"><title>reprdim1</title>
<g id="a_node53"><a xlink:href="Combi.SymGroup.reprdim1.html" xlink:title="reprdim1">
<polygon fill="#dbc3b6" stroke="#dbc3b6" points="1209.84,-540 1126.84,-540 1126.84,-504 1209.84,-504 1209.84,-540"/>
<text text-anchor="middle" x="1168.34" y="-517.6" font-family="Times,serif" font-size="18.00">reprdim1</text>
</a>
</g>
</g>
<!-- reprS2&#45;&gt;reprdim1 -->
<g id="edge13" class="edge"><title>reprS2&#45;&gt;reprdim1</title>
<path fill="none" stroke="black" d="M1169.09,-575.697C1168.98,-567.983 1168.85,-558.712 1168.73,-550.112"/>
<polygon fill="black" stroke="black" points="1172.23,-550.053 1168.58,-540.104 1165.23,-550.153 1172.23,-550.053"/>
</g>
<!-- reprdim1&#45;&gt;presentSn -->
<g id="edge14" class="edge"><title>reprdim1&#45;&gt;presentSn</title>
<path fill="none" stroke="black" d="M1132.62,-503.876C1112.84,-494.392 1088.07,-482.513 1067.01,-472.419"/>
<polygon fill="black" stroke="black" points="1068.47,-469.236 1057.94,-468.068 1065.44,-475.548 1068.47,-469.236"/>
</g>
<!-- towerSn&#45;&gt;ordcast -->
<g id="edge10" class="edge"><title>towerSn&#45;&gt;ordcast</title>
<path fill="none" stroke="black" d="M1717.83,-1007.77C1740.18,-982.534 1777.34,-933.051 1777.34,-883 1777.34,-883 1777.34,-883 1777.34,-593 1777.34,-552.996 1777.34,-506.653 1777.34,-478.08"/>
<polygon fill="black" stroke="black" points="1780.84,-478.049 1777.34,-468.049 1773.84,-478.049 1780.84,-478.049"/>
</g>
<!-- towerSn&#45;&gt;permcent -->
<g id="edge11" class="edge"><title>towerSn&#45;&gt;permcent</title>
<path fill="none" stroke="black" d="M1682.8,-1007.7C1673.54,-999.05 1662.18,-988.449 1652.08,-979.027"/>
<polygon fill="black" stroke="black" points="1654.36,-976.369 1644.67,-972.104 1649.59,-981.486 1654.36,-976.369"/>
</g>
</g>
</svg>
