<?xml version="1.0" encoding="UTF-8" standalone="no"?>
<!DOCTYPE svg PUBLIC "-//W3C//DTD SVG 1.1//EN"
 "http://www.w3.org/Graphics/SVG/1.1/DTD/svg11.dtd">
<!-- Generated by graphviz version 2.38.0 (20140413.2041)
 -->
<!-- Title: depend Pages: 1 -->
<svg width="1724pt" height="1052pt"
 viewBox="0.00 0.00 1724.00 1052.00" xmlns="http://www.w3.org/2000/svg" xmlns:xlink="http://www.w3.org/1999/xlink">
<g id="graph0" class="graph" transform="scale(1 1) rotate(0) translate(4 1048)">
<title>depend</title>
<!-- Ccpo -->
<g id="node1" class="node"><title>Ccpo</title>
<g id="a_node1"><a xlink:href="3rdparty.ALEA.Ccpo.html" xlink:title="Ccpo">
<polygon fill="#dbc3b6" stroke="#dbc3b6" points="182,-324 126,-324 126,-288 182,-288 182,-324"/>
<text text-anchor="middle" x="154" y="-301.6" font-family="Times,serif" font-size="18.00">Ccpo</text>
</a>
</g>
</g>
<!-- Misc -->
<g id="node2" class="node"><title>Misc</title>
<g id="a_node2"><a xlink:href="3rdparty.ALEA.Misc.html" xlink:title="Misc">
<polygon fill="#dbc3b6" stroke="#dbc3b6" points="54,-324 0,-324 0,-288 54,-288 54,-324"/>
<text text-anchor="middle" x="27" y="-301.6" font-family="Times,serif" font-size="18.00">Misc</text>
</a>
</g>
</g>
<!-- combclass -->
<g id="node3" class="node"><title>combclass</title>
<g id="a_node3"><a xlink:href="Combi.Basic.combclass.html" xlink:title="combclass">
<polygon fill="#dbc3b6" stroke="#dbc3b6" points="1126,-108 1034,-108 1034,-72 1126,-72 1126,-108"/>
<text text-anchor="middle" x="1080" y="-85.6" font-family="Times,serif" font-size="18.00">combclass</text>
</a>
</g>
</g>
<!-- tools -->
<g id="node38" class="node"><title>tools</title>
<g id="a_node38"><a xlink:href="Combi.SSRcomplements.tools.html" xlink:title="tools">
<polygon fill="#dbc3b6" stroke="#dbc3b6" points="1326,-36 1272,-36 1272,-0 1326,-0 1326,-36"/>
<text text-anchor="middle" x="1299" y="-13.6" font-family="Times,serif" font-size="18.00">tools</text>
</a>
</g>
</g>
<!-- combclass&#45;&gt;tools -->
<g id="edge7" class="edge"><title>combclass&#45;&gt;tools</title>
<path fill="none" stroke="black" d="M1126.18,-74.2403C1166.55,-61.3344 1224.43,-42.8342 1261.87,-30.8675"/>
<polygon fill="black" stroke="black" points="1263.4,-34.0541 1271.86,-27.6756 1261.27,-27.3864 1263.4,-34.0541"/>
</g>
<!-- congr -->
<g id="node4" class="node"><title>congr</title>
<g id="a_node4"><a xlink:href="Combi.Basic.congr.html" xlink:title="congr">
<polygon fill="#dbc3b6" stroke="#dbc3b6" points="1383.5,-252 1324.5,-252 1324.5,-216 1383.5,-216 1383.5,-252"/>
<text text-anchor="middle" x="1354" y="-229.6" font-family="Times,serif" font-size="18.00">congr</text>
</a>
</g>
</g>
<!-- permuted -->
<g id="node8" class="node"><title>permuted</title>
<g id="a_node8"><a xlink:href="Combi.Combi.permuted.html" xlink:title="permuted">
<polygon fill="#dbc3b6" stroke="#dbc3b6" points="1278,-180 1192,-180 1192,-144 1278,-144 1278,-180"/>
<text text-anchor="middle" x="1235" y="-157.6" font-family="Times,serif" font-size="18.00">permuted</text>
</a>
</g>
</g>
<!-- congr&#45;&gt;permuted -->
<g id="edge9" class="edge"><title>congr&#45;&gt;permuted</title>
<path fill="none" stroke="black" d="M1324.89,-215.876C1309.33,-206.724 1289.98,-195.342 1273.22,-185.485"/>
<polygon fill="black" stroke="black" points="1274.62,-182.243 1264.22,-180.19 1271.07,-188.277 1274.62,-182.243"/>
</g>
<!-- vectNK -->
<g id="node14" class="node"><title>vectNK</title>
<g id="a_node14"><a xlink:href="Combi.Combi.vectNK.html" xlink:title="vectNK">
<polygon fill="#dbc3b6" stroke="#dbc3b6" points="1716,-180 1642,-180 1642,-144 1716,-144 1716,-180"/>
<text text-anchor="middle" x="1679" y="-157.6" font-family="Times,serif" font-size="18.00">vectNK</text>
</a>
</g>
</g>
<!-- congr&#45;&gt;vectNK -->
<g id="edge10" class="edge"><title>congr&#45;&gt;vectNK</title>
<path fill="none" stroke="black" d="M1383.7,-226.602C1440.27,-214.419 1563.85,-187.801 1631.84,-173.158"/>
<polygon fill="black" stroke="black" points="1632.82,-176.528 1641.85,-171.001 1631.34,-169.685 1632.82,-176.528"/>
</g>
<!-- ordtype -->
<g id="node5" class="node"><title>ordtype</title>
<g id="a_node5"><a xlink:href="Combi.Basic.ordtype.html" xlink:title="ordtype">
<polygon fill="#dbc3b6" stroke="#dbc3b6" points="1406,-108 1332,-108 1332,-72 1406,-72 1406,-108"/>
<text text-anchor="middle" x="1369" y="-85.6" font-family="Times,serif" font-size="18.00">ordtype</text>
</a>
</g>
</g>
<!-- ordtype&#45;&gt;tools -->
<g id="edge8" class="edge"><title>ordtype&#45;&gt;tools</title>
<path fill="none" stroke="black" d="M1351.7,-71.6966C1343.14,-63.135 1332.66,-52.6562 1323.3,-43.3045"/>
<polygon fill="black" stroke="black" points="1325.65,-40.7005 1316.1,-36.1043 1320.7,-45.6503 1325.65,-40.7005"/>
</g>
<!-- Yamanouchi -->
<g id="node6" class="node"><title>Yamanouchi</title>
<g id="a_node6"><a xlink:href="Combi.Combi.Yamanouchi.html" xlink:title="Yamanouchi">
<polygon fill="#dbc3b6" stroke="#dbc3b6" points="984,-252 874,-252 874,-216 984,-216 984,-252"/>
<text text-anchor="middle" x="929" y="-229.6" font-family="Times,serif" font-size="18.00">Yamanouchi</text>
</a>
</g>
</g>
<!-- partition -->
<g id="node7" class="node"><title>partition</title>
<g id="a_node7"><a xlink:href="Combi.Combi.partition.html" xlink:title="partition">
<polygon fill="#dbc3b6" stroke="#dbc3b6" points="1120,-180 1040,-180 1040,-144 1120,-144 1120,-180"/>
<text text-anchor="middle" x="1080" y="-157.6" font-family="Times,serif" font-size="18.00">partition</text>
</a>
</g>
</g>
<!-- Yamanouchi&#45;&gt;partition -->
<g id="edge54" class="edge"><title>Yamanouchi&#45;&gt;partition</title>
<path fill="none" stroke="black" d="M965.939,-215.876C986.49,-206.349 1012.25,-194.407 1034.09,-184.283"/>
<polygon fill="black" stroke="black" points="1035.58,-187.45 1043.18,-180.068 1032.64,-181.099 1035.58,-187.45"/>
</g>
<!-- partition&#45;&gt;combclass -->
<g id="edge51" class="edge"><title>partition&#45;&gt;combclass</title>
<path fill="none" stroke="black" d="M1080,-143.697C1080,-135.983 1080,-126.712 1080,-118.112"/>
<polygon fill="black" stroke="black" points="1083.5,-118.104 1080,-108.104 1076.5,-118.104 1083.5,-118.104"/>
</g>
<!-- partition&#45;&gt;ordtype -->
<g id="edge52" class="edge"><title>partition&#45;&gt;ordtype</title>
<path fill="none" stroke="black" d="M1120.18,-151.267C1173.04,-138.465 1265.77,-116.005 1321.87,-102.416"/>
<polygon fill="black" stroke="black" points="1323.01,-105.741 1331.9,-99.9857 1321.36,-98.9382 1323.01,-105.741"/>
</g>
<!-- sorted -->
<g id="node37" class="node"><title>sorted</title>
<g id="a_node37"><a xlink:href="Combi.SSRcomplements.sorted.html" xlink:title="sorted">
<polygon fill="#dbc3b6" stroke="#dbc3b6" points="1260,-108 1198,-108 1198,-72 1260,-72 1260,-108"/>
<text text-anchor="middle" x="1229" y="-85.6" font-family="Times,serif" font-size="18.00">sorted</text>
</a>
</g>
</g>
<!-- partition&#45;&gt;sorted -->
<g id="edge53" class="edge"><title>partition&#45;&gt;sorted</title>
<path fill="none" stroke="black" d="M1116.45,-143.876C1138.31,-133.605 1166.15,-120.527 1188.67,-109.948"/>
<polygon fill="black" stroke="black" points="1190.4,-113.002 1197.96,-105.582 1187.42,-106.666 1190.4,-113.002"/>
</g>
<!-- permuted&#45;&gt;combclass -->
<g id="edge50" class="edge"><title>permuted&#45;&gt;combclass</title>
<path fill="none" stroke="black" d="M1197.08,-143.876C1175.99,-134.349 1149.54,-122.407 1127.13,-112.283"/>
<polygon fill="black" stroke="black" points="1128.35,-108.994 1117.79,-108.068 1125.47,-115.374 1128.35,-108.994"/>
</g>
<!-- skewtab -->
<g id="node9" class="node"><title>skewtab</title>
<g id="a_node9"><a xlink:href="Combi.Combi.skewtab.html" xlink:title="skewtab">
<polygon fill="#dbc3b6" stroke="#dbc3b6" points="1384.5,-612 1307.5,-612 1307.5,-576 1384.5,-576 1384.5,-612"/>
<text text-anchor="middle" x="1346" y="-589.6" font-family="Times,serif" font-size="18.00">skewtab</text>
</a>
</g>
</g>
<!-- stdtab -->
<g id="node11" class="node"><title>stdtab</title>
<g id="a_node11"><a xlink:href="Combi.Combi.stdtab.html" xlink:title="stdtab">
<polygon fill="#dbc3b6" stroke="#dbc3b6" points="960,-324 898,-324 898,-288 960,-288 960,-324"/>
<text text-anchor="middle" x="929" y="-301.6" font-family="Times,serif" font-size="18.00">stdtab</text>
</a>
</g>
</g>
<!-- skewtab&#45;&gt;stdtab -->
<g id="edge49" class="edge"><title>skewtab&#45;&gt;stdtab</title>
<path fill="none" stroke="black" d="M1342.69,-575.859C1335.55,-543.314 1315.65,-472.24 1272,-432 1184.46,-351.303 1040.69,-321.729 970.362,-311.702"/>
<polygon fill="black" stroke="black" points="970.51,-308.19 960.129,-310.308 969.565,-315.126 970.51,-308.19"/>
</g>
<!-- std -->
<g id="node10" class="node"><title>std</title>
<g id="a_node10"><a xlink:href="Combi.Combi.std.html" xlink:title="std">
<polygon fill="#dbc3b6" stroke="#dbc3b6" points="1252,-252 1198,-252 1198,-216 1252,-216 1252,-252"/>
<text text-anchor="middle" x="1225" y="-229.6" font-family="Times,serif" font-size="18.00">std</text>
</a>
</g>
</g>
<!-- std&#45;&gt;ordtype -->
<g id="edge47" class="edge"><title>std&#45;&gt;ordtype</title>
<path fill="none" stroke="black" d="M1252.2,-221.091C1271.12,-211.852 1296.05,-197.656 1314,-180 1332.5,-161.802 1347.48,-136.198 1357.11,-117.121"/>
<polygon fill="black" stroke="black" points="1360.28,-118.6 1361.52,-108.078 1353.99,-115.53 1360.28,-118.6"/>
</g>
<!-- std&#45;&gt;permuted -->
<g id="edge48" class="edge"><title>std&#45;&gt;permuted</title>
<path fill="none" stroke="black" d="M1227.47,-215.697C1228.57,-207.983 1229.9,-198.712 1231.13,-190.112"/>
<polygon fill="black" stroke="black" points="1234.61,-190.499 1232.56,-180.104 1227.68,-189.509 1234.61,-190.499"/>
</g>
<!-- stdtab&#45;&gt;Yamanouchi -->
<g id="edge43" class="edge"><title>stdtab&#45;&gt;Yamanouchi</title>
<path fill="none" stroke="black" d="M929,-287.697C929,-279.983 929,-270.712 929,-262.112"/>
<polygon fill="black" stroke="black" points="932.5,-262.104 929,-252.104 925.5,-262.104 932.5,-262.104"/>
</g>
<!-- stdtab&#45;&gt;std -->
<g id="edge44" class="edge"><title>stdtab&#45;&gt;std</title>
<path fill="none" stroke="black" d="M960.374,-298.28C1005.21,-288.582 1090.14,-269.862 1162,-252 1170.46,-249.898 1179.52,-247.525 1188.06,-245.234"/>
<polygon fill="black" stroke="black" points="1189.04,-248.594 1197.77,-242.602 1187.21,-241.838 1189.04,-248.594"/>
</g>
<!-- tableau -->
<g id="node13" class="node"><title>tableau</title>
<g id="a_node13"><a xlink:href="Combi.Combi.tableau.html" xlink:title="tableau">
<polygon fill="#dbc3b6" stroke="#dbc3b6" points="1126,-252 1056,-252 1056,-216 1126,-216 1126,-252"/>
<text text-anchor="middle" x="1091" y="-229.6" font-family="Times,serif" font-size="18.00">tableau</text>
</a>
</g>
</g>
<!-- stdtab&#45;&gt;tableau -->
<g id="edge45" class="edge"><title>stdtab&#45;&gt;tableau</title>
<path fill="none" stroke="black" d="M960.235,-291.503C984.745,-280.913 1019.18,-266.034 1046.56,-254.202"/>
<polygon fill="black" stroke="black" points="1048.13,-257.336 1055.92,-250.157 1045.36,-250.91 1048.13,-257.336"/>
</g>
<!-- subseq -->
<g id="node12" class="node"><title>subseq</title>
<g id="a_node12"><a xlink:href="Combi.Combi.subseq.html" xlink:title="subseq">
<polygon fill="#dbc3b6" stroke="#dbc3b6" points="883.5,-180 816.5,-180 816.5,-144 883.5,-144 883.5,-180"/>
<text text-anchor="middle" x="850" y="-157.6" font-family="Times,serif" font-size="18.00">subseq</text>
</a>
</g>
</g>
<!-- subseq&#45;&gt;combclass -->
<g id="edge41" class="edge"><title>subseq&#45;&gt;combclass</title>
<path fill="none" stroke="black" d="M883.937,-150.671C920.764,-139.463 980.155,-121.388 1023.93,-108.064"/>
<polygon fill="black" stroke="black" points="1025.03,-111.387 1033.58,-105.127 1023,-104.691 1025.03,-111.387"/>
</g>
<!-- subseq&#45;&gt;sorted -->
<g id="edge42" class="edge"><title>subseq&#45;&gt;sorted</title>
<path fill="none" stroke="black" d="M883.872,-156.157C941.335,-147.738 1061.48,-129.255 1162,-108 1170.44,-106.216 1179.42,-104.093 1187.97,-101.963"/>
<polygon fill="black" stroke="black" points="1188.93,-105.332 1197.76,-99.479 1187.21,-98.5466 1188.93,-105.332"/>
</g>
<!-- tableau&#45;&gt;partition -->
<g id="edge46" class="edge"><title>tableau&#45;&gt;partition</title>
<path fill="none" stroke="black" d="M1088.28,-215.697C1087.07,-207.983 1085.61,-198.712 1084.26,-190.112"/>
<polygon fill="black" stroke="black" points="1087.7,-189.44 1082.69,-180.104 1080.78,-190.526 1087.7,-189.44"/>
</g>
<!-- vectNK&#45;&gt;tools -->
<g id="edge55" class="edge"><title>vectNK&#45;&gt;tools</title>
<path fill="none" stroke="black" d="M1641.66,-146.923C1594.99,-129.336 1512.62,-98.3474 1442,-72 1405.94,-58.5472 1364.73,-43.2838 1335.84,-32.6033"/>
<polygon fill="black" stroke="black" points="1336.75,-29.2111 1326.16,-29.0272 1334.33,-35.777 1336.75,-29.2111"/>
</g>
<!-- Erdos_Szekeres -->
<g id="node15" class="node"><title>Erdos_Szekeres</title>
<g id="a_node15"><a xlink:href="Combi.Erdos_Szekeres.Erdos_Szekeres.html" xlink:title="Erdos_Szekeres">
<polygon fill="#dbc3b6" stroke="#dbc3b6" points="1091.5,-684 958.5,-684 958.5,-648 1091.5,-648 1091.5,-684"/>
<text text-anchor="middle" x="1025" y="-661.6" font-family="Times,serif" font-size="18.00">Erdos_Szekeres</text>
</a>
</g>
</g>
<!-- Greene_inv -->
<g id="node21" class="node"><title>Greene_inv</title>
<g id="a_node21"><a xlink:href="Combi.LRrule.Greene_inv.html" xlink:title="Greene_inv">
<polygon fill="#dbc3b6" stroke="#dbc3b6" points="1182.5,-612 1081.5,-612 1081.5,-576 1182.5,-576 1182.5,-612"/>
<text text-anchor="middle" x="1132" y="-589.6" font-family="Times,serif" font-size="18.00">Greene_inv</text>
</a>
</g>
</g>
<!-- Erdos_Szekeres&#45;&gt;Greene_inv -->
<g id="edge40" class="edge"><title>Erdos_Szekeres&#45;&gt;Greene_inv</title>
<path fill="none" stroke="black" d="M1051.18,-647.876C1065.04,-638.808 1082.24,-627.552 1097.21,-617.759"/>
<polygon fill="black" stroke="black" points="1099.27,-620.593 1105.72,-612.19 1095.44,-614.735 1099.27,-620.593"/>
</g>
<!-- Qmeasure -->
<g id="node16" class="node"><title>Qmeasure</title>
<g id="a_node16"><a xlink:href="Combi.HookFormula.Qmeasure.html" xlink:title="Qmeasure">
<polygon fill="#dbc3b6" stroke="#dbc3b6" points="193.5,-396 104.5,-396 104.5,-360 193.5,-360 193.5,-396"/>
<text text-anchor="middle" x="149" y="-373.6" font-family="Times,serif" font-size="18.00">Qmeasure</text>
</a>
</g>
</g>
<!-- Qmeasure&#45;&gt;Ccpo -->
<g id="edge19" class="edge"><title>Qmeasure&#45;&gt;Ccpo</title>
<path fill="none" stroke="black" d="M150.236,-359.697C150.787,-351.983 151.449,-342.712 152.063,-334.112"/>
<polygon fill="black" stroke="black" points="155.557,-334.328 152.778,-324.104 148.575,-333.83 155.557,-334.328"/>
</g>
<!-- Qmeasure&#45;&gt;Misc -->
<g id="edge20" class="edge"><title>Qmeasure&#45;&gt;Misc</title>
<path fill="none" stroke="black" d="M119.155,-359.876C102.215,-350.156 80.8931,-337.922 63.026,-327.671"/>
<polygon fill="black" stroke="black" points="64.4546,-324.455 54.0391,-322.514 60.9709,-330.527 64.4546,-324.455"/>
</g>
<!-- rat_coerce -->
<g id="node36" class="node"><title>rat_coerce</title>
<g id="a_node36"><a xlink:href="Combi.SSRcomplements.rat_coerce.html" xlink:title="rat_coerce">
<polygon fill="#dbc3b6" stroke="#dbc3b6" points="352,-324 258,-324 258,-288 352,-288 352,-324"/>
<text text-anchor="middle" x="305" y="-301.6" font-family="Times,serif" font-size="18.00">rat_coerce</text>
</a>
</g>
</g>
<!-- Qmeasure&#45;&gt;rat_coerce -->
<g id="edge21" class="edge"><title>Qmeasure&#45;&gt;rat_coerce</title>
<path fill="none" stroke="black" d="M187.162,-359.876C208.393,-350.349 235.008,-338.407 257.569,-328.283"/>
<polygon fill="black" stroke="black" points="259.271,-331.356 266.962,-324.068 256.406,-324.969 259.271,-331.356"/>
</g>
<!-- RSident -->
<g id="node17" class="node"><title>RSident</title>
<g id="a_node17"><a xlink:href="Combi.HookFormula.RSident.html" xlink:title="RSident">
<polygon fill="#dbc3b6" stroke="#dbc3b6" points="659,-540 583,-540 583,-504 659,-504 659,-540"/>
<text text-anchor="middle" x="621" y="-517.6" font-family="Times,serif" font-size="18.00">RSident</text>
</a>
</g>
</g>
<!-- hook -->
<g id="node18" class="node"><title>hook</title>
<g id="a_node18"><a xlink:href="Combi.HookFormula.hook.html" xlink:title="hook">
<polygon fill="#dbc3b6" stroke="#dbc3b6" points="496,-468 442,-468 442,-432 496,-432 496,-468"/>
<text text-anchor="middle" x="469" y="-445.6" font-family="Times,serif" font-size="18.00">hook</text>
</a>
</g>
</g>
<!-- RSident&#45;&gt;hook -->
<g id="edge17" class="edge"><title>RSident&#45;&gt;hook</title>
<path fill="none" stroke="black" d="M583.817,-503.876C560.025,-492.919 529.295,-478.767 505.615,-467.862"/>
<polygon fill="black" stroke="black" points="506.812,-464.56 496.265,-463.556 503.884,-470.918 506.812,-464.56"/>
</g>
<!-- Schensted -->
<g id="node22" class="node"><title>Schensted</title>
<g id="a_node22"><a xlink:href="Combi.LRrule.Schensted.html" xlink:title="Schensted">
<polygon fill="#dbc3b6" stroke="#dbc3b6" points="820,-396 728,-396 728,-360 820,-360 820,-396"/>
<text text-anchor="middle" x="774" y="-373.6" font-family="Times,serif" font-size="18.00">Schensted</text>
</a>
</g>
</g>
<!-- RSident&#45;&gt;Schensted -->
<g id="edge18" class="edge"><title>RSident&#45;&gt;Schensted</title>
<path fill="none" stroke="black" d="M639.455,-503.871C666.565,-478.711 717.268,-431.654 748.096,-403.042"/>
<polygon fill="black" stroke="black" points="750.53,-405.557 755.479,-396.189 745.769,-400.427 750.53,-405.557"/>
</g>
<!-- hook&#45;&gt;subseq -->
<g id="edge13" class="edge"><title>hook&#45;&gt;subseq</title>
<path fill="none" stroke="black" d="M480.529,-431.904C493.869,-412.915 517.201,-382.034 542,-360 627.301,-284.207 744.684,-217.716 807.026,-184.838"/>
<polygon fill="black" stroke="black" points="808.946,-187.784 816.18,-180.044 805.698,-181.583 808.946,-187.784"/>
</g>
<!-- hook&#45;&gt;Qmeasure -->
<g id="edge14" class="edge"><title>hook&#45;&gt;Qmeasure</title>
<path fill="none" stroke="black" d="M441.993,-443.092C389.501,-431.61 272.799,-406.081 203.566,-390.936"/>
<polygon fill="black" stroke="black" points="204.226,-387.498 193.709,-388.78 202.73,-394.336 204.226,-387.498"/>
</g>
<!-- recyama -->
<g id="node19" class="node"><title>recyama</title>
<g id="a_node19"><a xlink:href="Combi.HookFormula.recyama.html" xlink:title="recyama">
<polygon fill="#dbc3b6" stroke="#dbc3b6" points="656,-396 578,-396 578,-360 656,-360 656,-396"/>
<text text-anchor="middle" x="617" y="-373.6" font-family="Times,serif" font-size="18.00">recyama</text>
</a>
</g>
</g>
<!-- hook&#45;&gt;recyama -->
<g id="edge15" class="edge"><title>hook&#45;&gt;recyama</title>
<path fill="none" stroke="black" d="M496.145,-436.161C517.235,-426.186 546.948,-412.133 571.635,-400.456"/>
<polygon fill="black" stroke="black" points="573.278,-403.551 580.822,-396.111 570.285,-397.223 573.278,-403.551"/>
</g>
<!-- bigallpairs -->
<g id="node34" class="node"><title>bigallpairs</title>
<g id="a_node34"><a xlink:href="Combi.SSRcomplements.bigallpairs.html" xlink:title="bigallpairs">
<polygon fill="#dbc3b6" stroke="#dbc3b6" points="360,-396 266,-396 266,-360 360,-360 360,-396"/>
<text text-anchor="middle" x="313" y="-373.6" font-family="Times,serif" font-size="18.00">bigallpairs</text>
</a>
</g>
</g>
<!-- hook&#45;&gt;bigallpairs -->
<g id="edge16" class="edge"><title>hook&#45;&gt;bigallpairs</title>
<path fill="none" stroke="black" d="M441.827,-436.807C419.338,-426.716 386.863,-412.144 360.147,-400.156"/>
<polygon fill="black" stroke="black" points="361.519,-396.935 350.962,-396.034 358.653,-403.322 361.519,-396.935"/>
</g>
<!-- recyama&#45;&gt;stdtab -->
<g id="edge11" class="edge"><title>recyama&#45;&gt;stdtab</title>
<path fill="none" stroke="black" d="M656.309,-368.067C667.811,-365.46 680.408,-362.61 692,-360 760.786,-344.513 840.837,-326.643 888.084,-316.112"/>
<polygon fill="black" stroke="black" points="888.938,-319.508 897.937,-313.917 887.415,-312.676 888.938,-319.508"/>
</g>
<!-- recyama&#45;&gt;rat_coerce -->
<g id="edge12" class="edge"><title>recyama&#45;&gt;rat_coerce</title>
<path fill="none" stroke="black" d="M577.801,-368.205C523.461,-356.014 424.88,-333.896 362.287,-319.853"/>
<polygon fill="black" stroke="black" points="362.706,-316.36 352.182,-317.586 361.173,-323.19 362.706,-316.36"/>
</g>
<!-- Greene -->
<g id="node20" class="node"><title>Greene</title>
<g id="a_node20"><a xlink:href="Combi.LRrule.Greene.html" xlink:title="Greene">
<polygon fill="#dbc3b6" stroke="#dbc3b6" points="1166.5,-540 1097.5,-540 1097.5,-504 1166.5,-504 1166.5,-540"/>
<text text-anchor="middle" x="1132" y="-517.6" font-family="Times,serif" font-size="18.00">Greene</text>
</a>
</g>
</g>
<!-- plactic -->
<g id="node27" class="node"><title>plactic</title>
<g id="a_node27"><a xlink:href="Combi.LRrule.plactic.html" xlink:title="plactic">
<polygon fill="#dbc3b6" stroke="#dbc3b6" points="1236.5,-468 1171.5,-468 1171.5,-432 1236.5,-432 1236.5,-468"/>
<text text-anchor="middle" x="1204" y="-445.6" font-family="Times,serif" font-size="18.00">plactic</text>
</a>
</g>
</g>
<!-- Greene&#45;&gt;plactic -->
<g id="edge38" class="edge"><title>Greene&#45;&gt;plactic</title>
<path fill="none" stroke="black" d="M1149.8,-503.697C1158.6,-495.135 1169.38,-484.656 1179,-475.304"/>
<polygon fill="black" stroke="black" points="1181.68,-477.585 1186.41,-468.104 1176.8,-472.566 1181.68,-477.585"/>
</g>
<!-- ordcast -->
<g id="node35" class="node"><title>ordcast</title>
<g id="a_node35"><a xlink:href="Combi.SSRcomplements.ordcast.html" xlink:title="ordcast">
<polygon fill="#dbc3b6" stroke="#dbc3b6" points="1099.5,-468 1028.5,-468 1028.5,-432 1099.5,-432 1099.5,-468"/>
<text text-anchor="middle" x="1064" y="-445.6" font-family="Times,serif" font-size="18.00">ordcast</text>
</a>
</g>
</g>
<!-- Greene&#45;&gt;ordcast -->
<g id="edge39" class="edge"><title>Greene&#45;&gt;ordcast</title>
<path fill="none" stroke="black" d="M1115.19,-503.697C1106.87,-495.135 1096.69,-484.656 1087.61,-475.304"/>
<polygon fill="black" stroke="black" points="1090.09,-472.838 1080.62,-468.104 1085.07,-477.716 1090.09,-472.838"/>
</g>
<!-- Greene_inv&#45;&gt;Greene -->
<g id="edge37" class="edge"><title>Greene_inv&#45;&gt;Greene</title>
<path fill="none" stroke="black" d="M1132,-575.697C1132,-567.983 1132,-558.712 1132,-550.112"/>
<polygon fill="black" stroke="black" points="1135.5,-550.104 1132,-540.104 1128.5,-550.104 1135.5,-550.104"/>
</g>
<!-- Schensted&#45;&gt;stdtab -->
<g id="edge35" class="edge"><title>Schensted&#45;&gt;stdtab</title>
<path fill="none" stroke="black" d="M811.917,-359.876C835.155,-349.382 864.882,-335.956 888.567,-325.26"/>
<polygon fill="black" stroke="black" points="890.307,-328.315 897.981,-321.009 887.426,-321.935 890.307,-328.315"/>
</g>
<!-- Schensted&#45;&gt;subseq -->
<g id="edge36" class="edge"><title>Schensted&#45;&gt;subseq</title>
<path fill="none" stroke="black" d="M780.091,-359.849C793.293,-322.675 824.629,-234.439 840.475,-189.82"/>
<polygon fill="black" stroke="black" points="843.832,-190.827 843.88,-180.232 837.235,-188.484 843.832,-190.827"/>
</g>
<!-- Yam_plact -->
<g id="node23" class="node"><title>Yam_plact</title>
<g id="a_node23"><a xlink:href="Combi.LRrule.Yam_plact.html" xlink:title="Yam_plact">
<polygon fill="#dbc3b6" stroke="#dbc3b6" points="1098,-756 1002,-756 1002,-720 1098,-720 1098,-756"/>
<text text-anchor="middle" x="1050" y="-733.6" font-family="Times,serif" font-size="18.00">Yam_plact</text>
</a>
</g>
</g>
<!-- stdplact -->
<g id="node29" class="node"><title>stdplact</title>
<g id="a_node29"><a xlink:href="Combi.LRrule.stdplact.html" xlink:title="stdplact">
<polygon fill="#dbc3b6" stroke="#dbc3b6" points="1238,-684 1164,-684 1164,-648 1238,-648 1238,-684"/>
<text text-anchor="middle" x="1201" y="-661.6" font-family="Times,serif" font-size="18.00">stdplact</text>
</a>
</g>
</g>
<!-- Yam_plact&#45;&gt;stdplact -->
<g id="edge34" class="edge"><title>Yam_plact&#45;&gt;stdplact</title>
<path fill="none" stroke="black" d="M1086.94,-719.876C1107.49,-710.349 1133.25,-698.407 1155.09,-688.283"/>
<polygon fill="black" stroke="black" points="1156.58,-691.45 1164.18,-684.068 1153.64,-685.099 1156.58,-691.45"/>
</g>
<!-- extract -->
<g id="node24" class="node"><title>extract</title>
<g id="a_node24"><a xlink:href="Combi.LRrule.extract.html" xlink:title="extract">
<polygon fill="#dbc3b6" stroke="#dbc3b6" points="1367.5,-1044 1300.5,-1044 1300.5,-1008 1367.5,-1008 1367.5,-1044"/>
<text text-anchor="middle" x="1334" y="-1021.6" font-family="Times,serif" font-size="18.00">extract</text>
</a>
</g>
</g>
<!-- implem -->
<g id="node26" class="node"><title>implem</title>
<g id="a_node26"><a xlink:href="Combi.LRrule.implem.html" xlink:title="implem">
<polygon fill="#dbc3b6" stroke="#dbc3b6" points="1369.5,-972 1298.5,-972 1298.5,-936 1369.5,-936 1369.5,-972"/>
<text text-anchor="middle" x="1334" y="-949.6" font-family="Times,serif" font-size="18.00">implem</text>
</a>
</g>
</g>
<!-- extract&#45;&gt;implem -->
<g id="edge33" class="edge"><title>extract&#45;&gt;implem</title>
<path fill="none" stroke="black" d="M1334,-1007.7C1334,-999.983 1334,-990.712 1334,-982.112"/>
<polygon fill="black" stroke="black" points="1337.5,-982.104 1334,-972.104 1330.5,-982.104 1337.5,-982.104"/>
</g>
<!-- freeSchur -->
<g id="node25" class="node"><title>freeSchur</title>
<g id="a_node25"><a xlink:href="Combi.LRrule.freeSchur.html" xlink:title="freeSchur">
<polygon fill="#dbc3b6" stroke="#dbc3b6" points="1165.5,-828 1078.5,-828 1078.5,-792 1165.5,-792 1165.5,-828"/>
<text text-anchor="middle" x="1122" y="-805.6" font-family="Times,serif" font-size="18.00">freeSchur</text>
</a>
</g>
</g>
<!-- freeSchur&#45;&gt;Yam_plact -->
<g id="edge30" class="edge"><title>freeSchur&#45;&gt;Yam_plact</title>
<path fill="none" stroke="black" d="M1104.2,-791.697C1095.4,-783.135 1084.62,-772.656 1075,-763.304"/>
<polygon fill="black" stroke="black" points="1077.2,-760.566 1067.59,-756.104 1072.32,-765.585 1077.2,-760.566"/>
</g>
<!-- shuffle -->
<g id="node28" class="node"><title>shuffle</title>
<g id="a_node28"><a xlink:href="Combi.LRrule.shuffle.html" xlink:title="shuffle">
<polygon fill="#dbc3b6" stroke="#dbc3b6" points="1235.5,-756 1170.5,-756 1170.5,-720 1235.5,-720 1235.5,-756"/>
<text text-anchor="middle" x="1203" y="-733.6" font-family="Times,serif" font-size="18.00">shuffle</text>
</a>
</g>
</g>
<!-- freeSchur&#45;&gt;shuffle -->
<g id="edge31" class="edge"><title>freeSchur&#45;&gt;shuffle</title>
<path fill="none" stroke="black" d="M1142.02,-791.697C1152.13,-782.965 1164.54,-772.24 1175.52,-762.75"/>
<polygon fill="black" stroke="black" points="1177.93,-765.291 1183.21,-756.104 1173.35,-759.995 1177.93,-765.291"/>
</g>
<!-- sympoly -->
<g id="node33" class="node"><title>sympoly</title>
<g id="a_node33"><a xlink:href="Combi.MPoly.sympoly.html" xlink:title="sympoly">
<polygon fill="#dbc3b6" stroke="#dbc3b6" points="886,-684 808,-684 808,-648 886,-648 886,-684"/>
<text text-anchor="middle" x="847" y="-661.6" font-family="Times,serif" font-size="18.00">sympoly</text>
</a>
</g>
</g>
<!-- freeSchur&#45;&gt;sympoly -->
<g id="edge32" class="edge"><title>freeSchur&#45;&gt;sympoly</title>
<path fill="none" stroke="black" d="M1078.46,-798.186C1046.31,-789.267 1002.06,-774.997 966,-756 931.698,-737.931 896.66,-710.406 873.571,-690.753"/>
<polygon fill="black" stroke="black" points="875.783,-688.039 865.924,-684.159 871.211,-693.34 875.783,-688.039"/>
</g>
<!-- therule -->
<g id="node30" class="node"><title>therule</title>
<g id="a_node30"><a xlink:href="Combi.LRrule.therule.html" xlink:title="therule">
<polygon fill="#dbc3b6" stroke="#dbc3b6" points="1373.5,-900 1306.5,-900 1306.5,-864 1373.5,-864 1373.5,-900"/>
<text text-anchor="middle" x="1340" y="-877.6" font-family="Times,serif" font-size="18.00">therule</text>
</a>
</g>
</g>
<!-- implem&#45;&gt;therule -->
<g id="edge29" class="edge"><title>implem&#45;&gt;therule</title>
<path fill="none" stroke="black" d="M1335.48,-935.697C1336.14,-927.983 1336.94,-918.712 1337.68,-910.112"/>
<polygon fill="black" stroke="black" points="1341.17,-910.367 1338.53,-900.104 1334.19,-909.769 1341.17,-910.367"/>
</g>
<!-- plactic&#45;&gt;congr -->
<g id="edge27" class="edge"><title>plactic&#45;&gt;congr</title>
<path fill="none" stroke="black" d="M1205.81,-431.759C1209.96,-399.973 1222.75,-331.424 1259,-288 1273.7,-270.387 1295.84,-257.556 1315.05,-248.934"/>
<polygon fill="black" stroke="black" points="1316.65,-252.056 1324.49,-244.921 1313.91,-245.614 1316.65,-252.056"/>
</g>
<!-- plactic&#45;&gt;Schensted -->
<g id="edge28" class="edge"><title>plactic&#45;&gt;Schensted</title>
<path fill="none" stroke="black" d="M1171.5,-440.313C1160.02,-437.426 1146.99,-434.351 1135,-432 1027.91,-410.997 901.467,-394.26 830.217,-385.559"/>
<polygon fill="black" stroke="black" points="830.463,-382.063 820.114,-384.334 829.62,-389.012 830.463,-382.063"/>
</g>
<!-- shuffle&#45;&gt;stdplact -->
<g id="edge26" class="edge"><title>shuffle&#45;&gt;stdplact</title>
<path fill="none" stroke="black" d="M1202.51,-719.697C1202.29,-711.983 1202.02,-702.712 1201.77,-694.112"/>
<polygon fill="black" stroke="black" points="1205.27,-694 1201.49,-684.104 1198.28,-694.2 1205.27,-694"/>
</g>
<!-- stdplact&#45;&gt;Greene_inv -->
<g id="edge25" class="edge"><title>stdplact&#45;&gt;Greene_inv</title>
<path fill="none" stroke="black" d="M1183.94,-647.697C1175.5,-639.135 1165.18,-628.656 1155.96,-619.304"/>
<polygon fill="black" stroke="black" points="1158.37,-616.769 1148.86,-612.104 1153.39,-621.683 1158.37,-616.769"/>
</g>
<!-- therule&#45;&gt;skewtab -->
<g id="edge23" class="edge"><title>therule&#45;&gt;skewtab</title>
<path fill="none" stroke="black" d="M1340.36,-863.966C1341.36,-816.291 1344.19,-681.185 1345.42,-622.63"/>
<polygon fill="black" stroke="black" points="1348.93,-622.378 1345.64,-612.306 1341.93,-622.231 1348.93,-622.378"/>
</g>
<!-- therule&#45;&gt;freeSchur -->
<g id="edge24" class="edge"><title>therule&#45;&gt;freeSchur</title>
<path fill="none" stroke="black" d="M1306.42,-870.216C1271.47,-858.997 1216.26,-841.266 1175.34,-828.127"/>
<polygon fill="black" stroke="black" points="1176.38,-824.787 1165.79,-825.062 1174.24,-831.451 1176.38,-824.787"/>
</g>
<!-- Schur_basis -->
<g id="node31" class="node"><title>Schur_basis</title>
<g id="a_node31"><a xlink:href="Combi.MPoly.Schur_basis.html" xlink:title="Schur_basis">
<polygon fill="#dbc3b6" stroke="#dbc3b6" points="1546.5,-972 1441.5,-972 1441.5,-936 1546.5,-936 1546.5,-972"/>
<text text-anchor="middle" x="1494" y="-949.6" font-family="Times,serif" font-size="18.00">Schur_basis</text>
</a>
</g>
</g>
<!-- Schur_basis&#45;&gt;therule -->
<g id="edge4" class="edge"><title>Schur_basis&#45;&gt;therule</title>
<path fill="none" stroke="black" d="M1456.33,-935.876C1434.1,-925.773 1405.9,-912.954 1382.83,-902.467"/>
<polygon fill="black" stroke="black" points="1384.17,-899.231 1373.61,-898.279 1381.27,-905.604 1384.17,-899.231"/>
</g>
<!-- antisym -->
<g id="node32" class="node"><title>antisym</title>
<g id="a_node32"><a xlink:href="Combi.MPoly.antisym.html" xlink:title="antisym">
<polygon fill="#dbc3b6" stroke="#dbc3b6" points="1531,-396 1457,-396 1457,-360 1531,-360 1531,-396"/>
<text text-anchor="middle" x="1494" y="-373.6" font-family="Times,serif" font-size="18.00">antisym</text>
</a>
</g>
</g>
<!-- Schur_basis&#45;&gt;antisym -->
<g id="edge5" class="edge"><title>Schur_basis&#45;&gt;antisym</title>
<path fill="none" stroke="black" d="M1494,-935.951C1494,-909.292 1494,-856.115 1494,-811 1494,-811 1494,-811 1494,-521 1494,-480.996 1494,-434.653 1494,-406.08"/>
<polygon fill="black" stroke="black" points="1497.5,-406.049 1494,-396.049 1490.5,-406.049 1497.5,-406.049"/>
</g>
<!-- antisym&#45;&gt;sorted -->
<g id="edge2" class="edge"><title>antisym&#45;&gt;sorted</title>
<path fill="none" stroke="black" d="M1489.31,-359.824C1480.08,-328.442 1457.07,-260.938 1419,-216 1377.36,-166.844 1311.62,-129.571 1269.41,-109.001"/>
<polygon fill="black" stroke="black" points="1270.79,-105.781 1260.26,-104.622 1267.77,-112.096 1270.79,-105.781"/>
</g>
<!-- symgroup -->
<g id="node39" class="node"><title>symgroup</title>
<g id="a_node39"><a xlink:href="Combi.SymGroup.symgroup.html" xlink:title="symgroup">
<polygon fill="#dbc3b6" stroke="#dbc3b6" points="1384.5,-324 1295.5,-324 1295.5,-288 1384.5,-288 1384.5,-324"/>
<text text-anchor="middle" x="1340" y="-301.6" font-family="Times,serif" font-size="18.00">symgroup</text>
</a>
</g>
</g>
<!-- antisym&#45;&gt;symgroup -->
<g id="edge3" class="edge"><title>antisym&#45;&gt;symgroup</title>
<path fill="none" stroke="black" d="M1456.72,-360.055C1435.69,-350.496 1409.22,-338.462 1386.8,-328.273"/>
<polygon fill="black" stroke="black" points="1388.02,-324.983 1377.47,-324.032 1385.12,-331.356 1388.02,-324.983"/>
</g>
<!-- sympoly&#45;&gt;stdtab -->
<g id="edge1" class="edge"><title>sympoly&#45;&gt;stdtab</title>
<path fill="none" stroke="black" d="M850.955,-647.733C864.162,-590.075 906.806,-403.894 922.834,-333.918"/>
<polygon fill="black" stroke="black" points="926.264,-334.623 925.085,-324.094 919.44,-333.06 926.264,-334.623"/>
</g>
<!-- sorted&#45;&gt;tools -->
<g id="edge22" class="edge"><title>sorted&#45;&gt;tools</title>
<path fill="none" stroke="black" d="M1246.3,-71.6966C1254.86,-63.135 1265.34,-52.6562 1274.7,-43.3045"/>
<polygon fill="black" stroke="black" points="1277.3,-45.6503 1281.9,-36.1043 1272.35,-40.7005 1277.3,-45.6503"/>
</g>
<!-- symgroup&#45;&gt;congr -->
<g id="edge6" class="edge"><title>symgroup&#45;&gt;congr</title>
<path fill="none" stroke="black" d="M1343.46,-287.697C1345,-279.983 1346.86,-270.712 1348.58,-262.112"/>
<polygon fill="black" stroke="black" points="1352.05,-262.597 1350.58,-252.104 1345.19,-261.224 1352.05,-262.597"/>
</g>
</g>
</svg>
