<?xml version="1.0" encoding="UTF-8" standalone="no"?>
<!DOCTYPE svg PUBLIC "-//W3C//DTD SVG 1.1//EN"
 "http://www.w3.org/Graphics/SVG/1.1/DTD/svg11.dtd">
<!-- Generated by graphviz version 2.38.0 (20140413.2041)
 -->
<!-- Title: depend Pages: 1 -->
<svg width="2252pt" height="1268pt"
 viewBox="0.00 0.00 2252.00 1268.00" xmlns="http://www.w3.org/2000/svg" xmlns:xlink="http://www.w3.org/1999/xlink">
<g id="graph0" class="graph" transform="scale(1 1) rotate(0) translate(4 1264)">
<title>depend</title>
<!-- Ccpo -->
<g id="node1" class="node"><title>Ccpo</title>
<g id="a_node1"><a xlink:href="3rdparty.ALEA.Ccpo.html" xlink:title="Ccpo">
<polygon fill="#dbc3b6" stroke="#dbc3b6" points="56,-324 0,-324 0,-288 56,-288 56,-324"/>
<text text-anchor="middle" x="28" y="-301.6" font-family="Times,serif" font-size="18.00">Ccpo</text>
</a>
</g>
</g>
<!-- Misc -->
<g id="node2" class="node"><title>Misc</title>
<g id="a_node2"><a xlink:href="3rdparty.ALEA.Misc.html" xlink:title="Misc">
<polygon fill="#dbc3b6" stroke="#dbc3b6" points="182,-324 128,-324 128,-288 182,-288 182,-324"/>
<text text-anchor="middle" x="155" y="-301.6" font-family="Times,serif" font-size="18.00">Misc</text>
</a>
</g>
</g>
<!-- combclass -->
<g id="node3" class="node"><title>combclass</title>
<g id="a_node3"><a xlink:href="Combi.Basic.combclass.html" xlink:title="combclass">
<polygon fill="#dbc3b6" stroke="#dbc3b6" points="1213,-108 1121,-108 1121,-72 1213,-72 1213,-108"/>
<text text-anchor="middle" x="1167" y="-85.6" font-family="Times,serif" font-size="18.00">combclass</text>
</a>
</g>
</g>
<!-- tools -->
<g id="node44" class="node"><title>tools</title>
<g id="a_node44"><a xlink:href="Combi.SSRcomplements.tools.html" xlink:title="tools">
<polygon fill="#dbc3b6" stroke="#dbc3b6" points="1495,-36 1441,-36 1441,-0 1495,-0 1495,-36"/>
<text text-anchor="middle" x="1468" y="-13.6" font-family="Times,serif" font-size="18.00">tools</text>
</a>
</g>
</g>
<!-- combclass&#45;&gt;tools -->
<g id="edge26" class="edge"><title>combclass&#45;&gt;tools</title>
<path fill="none" stroke="black" d="M1213.04,-78.2923C1272.76,-64.404 1375.78,-40.4458 1430.81,-27.6488"/>
<polygon fill="black" stroke="black" points="1431.88,-30.9935 1440.83,-25.3193 1430.29,-24.1755 1431.88,-30.9935"/>
</g>
<!-- congr -->
<g id="node4" class="node"><title>congr</title>
<g id="a_node4"><a xlink:href="Combi.Basic.congr.html" xlink:title="congr">
<polygon fill="#dbc3b6" stroke="#dbc3b6" points="1233.5,-396 1174.5,-396 1174.5,-360 1233.5,-360 1233.5,-396"/>
<text text-anchor="middle" x="1204" y="-373.6" font-family="Times,serif" font-size="18.00">congr</text>
</a>
</g>
</g>
<!-- permuted -->
<g id="node11" class="node"><title>permuted</title>
<g id="a_node11"><a xlink:href="Combi.Combi.permuted.html" xlink:title="permuted">
<polygon fill="#dbc3b6" stroke="#dbc3b6" points="1612,-324 1526,-324 1526,-288 1612,-288 1612,-324"/>
<text text-anchor="middle" x="1569" y="-301.6" font-family="Times,serif" font-size="18.00">permuted</text>
</a>
</g>
</g>
<!-- congr&#45;&gt;permuted -->
<g id="edge24" class="edge"><title>congr&#45;&gt;permuted</title>
<path fill="none" stroke="black" d="M1233.56,-371.331C1295.12,-359.525 1437.8,-332.161 1515.78,-317.207"/>
<polygon fill="black" stroke="black" points="1516.71,-320.591 1525.88,-315.27 1515.4,-313.717 1516.71,-320.591"/>
</g>
<!-- vectNK -->
<g id="node17" class="node"><title>vectNK</title>
<g id="a_node17"><a xlink:href="Combi.Combi.vectNK.html" xlink:title="vectNK">
<polygon fill="#dbc3b6" stroke="#dbc3b6" points="1501,-180 1427,-180 1427,-144 1501,-144 1501,-180"/>
<text text-anchor="middle" x="1464" y="-157.6" font-family="Times,serif" font-size="18.00">vectNK</text>
</a>
</g>
</g>
<!-- congr&#45;&gt;vectNK -->
<g id="edge25" class="edge"><title>congr&#45;&gt;vectNK</title>
<path fill="none" stroke="black" d="M1233.71,-371.519C1287.35,-359.922 1399.75,-327.499 1453,-252 1465.59,-234.156 1467.68,-209.15 1467.01,-190.186"/>
<polygon fill="black" stroke="black" points="1470.49,-189.847 1466.37,-180.087 1463.51,-190.288 1470.49,-189.847"/>
</g>
<!-- ordtype -->
<g id="node5" class="node"><title>ordtype</title>
<g id="a_node5"><a xlink:href="Combi.Basic.ordtype.html" xlink:title="ordtype">
<polygon fill="#dbc3b6" stroke="#dbc3b6" points="1359,-108 1285,-108 1285,-72 1359,-72 1359,-108"/>
<text text-anchor="middle" x="1322" y="-85.6" font-family="Times,serif" font-size="18.00">ordtype</text>
</a>
</g>
</g>
<!-- ordtype&#45;&gt;tools -->
<g id="edge23" class="edge"><title>ordtype&#45;&gt;tools</title>
<path fill="none" stroke="black" d="M1357.72,-71.8761C1380.17,-61.1096 1409.06,-47.2583 1431.64,-36.4334"/>
<polygon fill="black" stroke="black" points="1433.39,-39.4767 1440.89,-31.9973 1430.36,-33.1646 1433.39,-39.4767"/>
</g>
<!-- Yamanouchi -->
<g id="node6" class="node"><title>Yamanouchi</title>
<g id="a_node6"><a xlink:href="Combi.Combi.Yamanouchi.html" xlink:title="Yamanouchi">
<polygon fill="#dbc3b6" stroke="#dbc3b6" points="965,-252 855,-252 855,-216 965,-216 965,-252"/>
<text text-anchor="middle" x="910" y="-229.6" font-family="Times,serif" font-size="18.00">Yamanouchi</text>
</a>
</g>
</g>
<!-- partition -->
<g id="node10" class="node"><title>partition</title>
<g id="a_node10"><a xlink:href="Combi.Combi.partition.html" xlink:title="partition">
<polygon fill="#dbc3b6" stroke="#dbc3b6" points="1063,-180 983,-180 983,-144 1063,-144 1063,-180"/>
<text text-anchor="middle" x="1023" y="-157.6" font-family="Times,serif" font-size="18.00">partition</text>
</a>
</g>
</g>
<!-- Yamanouchi&#45;&gt;partition -->
<g id="edge58" class="edge"><title>Yamanouchi&#45;&gt;partition</title>
<path fill="none" stroke="black" d="M937.643,-215.876C952.418,-206.724 970.791,-195.342 986.703,-185.485"/>
<polygon fill="black" stroke="black" points="988.593,-188.431 995.251,-180.19 984.907,-182.481 988.593,-188.431"/>
</g>
<!-- composition -->
<g id="node7" class="node"><title>composition</title>
<g id="a_node7"><a xlink:href="Combi.Combi.composition.html" xlink:title="composition">
<polygon fill="#dbc3b6" stroke="#dbc3b6" points="1291,-252 1183,-252 1183,-216 1291,-216 1291,-252"/>
<text text-anchor="middle" x="1237" y="-229.6" font-family="Times,serif" font-size="18.00">composition</text>
</a>
</g>
</g>
<!-- composition&#45;&gt;partition -->
<g id="edge77" class="edge"><title>composition&#45;&gt;partition</title>
<path fill="none" stroke="black" d="M1184.92,-215.966C1150.8,-204.805 1106.46,-190.301 1072.81,-179.293"/>
<polygon fill="black" stroke="black" points="1073.77,-175.924 1063.18,-176.142 1071.59,-182.577 1073.77,-175.924"/>
</g>
<!-- fibered_set -->
<g id="node8" class="node"><title>fibered_set</title>
<g id="a_node8"><a xlink:href="Combi.Combi.fibered_set.html" xlink:title="fibered_set">
<polygon fill="#dbc3b6" stroke="#dbc3b6" points="1843,-396 1745,-396 1745,-360 1843,-360 1843,-396"/>
<text text-anchor="middle" x="1794" y="-373.6" font-family="Times,serif" font-size="18.00">fibered_set</text>
</a>
</g>
</g>
<!-- multinomial -->
<g id="node9" class="node"><title>multinomial</title>
<g id="a_node9"><a xlink:href="Combi.Combi.multinomial.html" xlink:title="multinomial">
<polygon fill="#dbc3b6" stroke="#dbc3b6" points="1843,-180 1739,-180 1739,-144 1843,-144 1843,-180"/>
<text text-anchor="middle" x="1791" y="-157.6" font-family="Times,serif" font-size="18.00">multinomial</text>
</a>
</g>
</g>
<!-- multinomial&#45;&gt;tools -->
<g id="edge70" class="edge"><title>multinomial&#45;&gt;tools</title>
<path fill="none" stroke="black" d="M1752.04,-143.871C1689.13,-116.214 1566.03,-62.0987 1504.64,-35.1081"/>
<polygon fill="black" stroke="black" points="1505.9,-31.8379 1495.34,-31.0174 1503.08,-38.246 1505.9,-31.8379"/>
</g>
<!-- partition&#45;&gt;combclass -->
<g id="edge74" class="edge"><title>partition&#45;&gt;combclass</title>
<path fill="none" stroke="black" d="M1058.23,-143.876C1077.58,-134.469 1101.77,-122.708 1122.43,-112.667"/>
<polygon fill="black" stroke="black" points="1124.17,-115.71 1131.64,-108.19 1121.11,-109.414 1124.17,-115.71"/>
</g>
<!-- partition&#45;&gt;ordtype -->
<g id="edge75" class="edge"><title>partition&#45;&gt;ordtype</title>
<path fill="none" stroke="black" d="M1063.01,-151.632C1117.81,-138.804 1216.03,-115.808 1274.49,-102.122"/>
<polygon fill="black" stroke="black" points="1275.64,-105.449 1284.58,-99.7614 1274.04,-98.6331 1275.64,-105.449"/>
</g>
<!-- sorted -->
<g id="node43" class="node"><title>sorted</title>
<g id="a_node43"><a xlink:href="Combi.SSRcomplements.sorted.html" xlink:title="sorted">
<polygon fill="#dbc3b6" stroke="#dbc3b6" points="1049,-108 987,-108 987,-72 1049,-72 1049,-108"/>
<text text-anchor="middle" x="1018" y="-85.6" font-family="Times,serif" font-size="18.00">sorted</text>
</a>
</g>
</g>
<!-- partition&#45;&gt;sorted -->
<g id="edge76" class="edge"><title>partition&#45;&gt;sorted</title>
<path fill="none" stroke="black" d="M1021.76,-143.697C1021.21,-135.983 1020.55,-126.712 1019.94,-118.112"/>
<polygon fill="black" stroke="black" points="1023.43,-117.83 1019.22,-108.104 1016.44,-118.328 1023.43,-117.83"/>
</g>
<!-- permuted&#45;&gt;composition -->
<g id="edge71" class="edge"><title>permuted&#45;&gt;composition</title>
<path fill="none" stroke="black" d="M1525.94,-295.92C1468.78,-283.869 1367.38,-262.49 1301.18,-248.532"/>
<polygon fill="black" stroke="black" points="1301.78,-245.082 1291.28,-246.444 1300.34,-251.931 1301.78,-245.082"/>
</g>
<!-- permuted&#45;&gt;multinomial -->
<g id="edge72" class="edge"><title>permuted&#45;&gt;multinomial</title>
<path fill="none" stroke="black" d="M1595.78,-287.871C1635.78,-262.284 1711.19,-214.052 1755.66,-185.603"/>
<polygon fill="black" stroke="black" points="1757.59,-188.526 1764.13,-180.189 1753.82,-182.629 1757.59,-188.526"/>
</g>
<!-- cycles -->
<g id="node47" class="node"><title>cycles</title>
<g id="a_node47"><a xlink:href="Combi.SymGroup.cycles.html" xlink:title="cycles">
<polygon fill="#dbc3b6" stroke="#dbc3b6" points="1843,-252 1781,-252 1781,-216 1843,-216 1843,-252"/>
<text text-anchor="middle" x="1812" y="-229.6" font-family="Times,serif" font-size="18.00">cycles</text>
</a>
</g>
</g>
<!-- permuted&#45;&gt;cycles -->
<g id="edge73" class="edge"><title>permuted&#45;&gt;cycles</title>
<path fill="none" stroke="black" d="M1612.16,-292.566C1657.08,-279.627 1726.9,-259.515 1771,-246.811"/>
<polygon fill="black" stroke="black" points="1772.17,-250.116 1780.81,-243.985 1770.23,-243.39 1772.17,-250.116"/>
</g>
<!-- skewtab -->
<g id="node12" class="node"><title>skewtab</title>
<g id="a_node12"><a xlink:href="Combi.Combi.skewtab.html" xlink:title="skewtab">
<polygon fill="#dbc3b6" stroke="#dbc3b6" points="991.5,-828 914.5,-828 914.5,-792 991.5,-792 991.5,-828"/>
<text text-anchor="middle" x="953" y="-805.6" font-family="Times,serif" font-size="18.00">skewtab</text>
</a>
</g>
</g>
<!-- stdtab -->
<g id="node14" class="node"><title>stdtab</title>
<g id="a_node14"><a xlink:href="Combi.Combi.stdtab.html" xlink:title="stdtab">
<polygon fill="#dbc3b6" stroke="#dbc3b6" points="903,-324 841,-324 841,-288 903,-288 903,-324"/>
<text text-anchor="middle" x="872" y="-301.6" font-family="Times,serif" font-size="18.00">stdtab</text>
</a>
</g>
</g>
<!-- skewtab&#45;&gt;stdtab -->
<g id="edge69" class="edge"><title>skewtab&#45;&gt;stdtab</title>
<path fill="none" stroke="black" d="M914.225,-805.484C841.973,-796.578 694,-766.227 694,-667 694,-667 694,-667 694,-449 694,-379.181 778.724,-338.111 831.268,-319.354"/>
<polygon fill="black" stroke="black" points="832.68,-322.569 840.995,-316.003 830.4,-315.951 832.68,-322.569"/>
</g>
<!-- std -->
<g id="node13" class="node"><title>std</title>
<g id="a_node13"><a xlink:href="Combi.Combi.std.html" xlink:title="std">
<polygon fill="#dbc3b6" stroke="#dbc3b6" points="1417,-252 1363,-252 1363,-216 1417,-216 1417,-252"/>
<text text-anchor="middle" x="1390" y="-229.6" font-family="Times,serif" font-size="18.00">std</text>
</a>
</g>
</g>
<!-- std&#45;&gt;combclass -->
<g id="edge66" class="edge"><title>std&#45;&gt;combclass</title>
<path fill="none" stroke="black" d="M1363.1,-215.871C1322.92,-190.284 1247.17,-142.052 1202.5,-113.603"/>
<polygon fill="black" stroke="black" points="1204.31,-110.608 1193.99,-108.189 1200.55,-116.513 1204.31,-110.608"/>
</g>
<!-- std&#45;&gt;ordtype -->
<g id="edge67" class="edge"><title>std&#45;&gt;ordtype</title>
<path fill="none" stroke="black" d="M1381.8,-215.871C1370.06,-191.35 1348.35,-146.032 1334.57,-117.259"/>
<polygon fill="black" stroke="black" points="1337.71,-115.697 1330.23,-108.189 1331.39,-118.72 1337.71,-115.697"/>
</g>
<!-- permcomp -->
<g id="node41" class="node"><title>permcomp</title>
<g id="a_node41"><a xlink:href="Combi.SSRcomplements.permcomp.html" xlink:title="permcomp">
<polygon fill="#dbc3b6" stroke="#dbc3b6" points="1667,-180 1573,-180 1573,-144 1667,-144 1667,-180"/>
<text text-anchor="middle" x="1620" y="-157.6" font-family="Times,serif" font-size="18.00">permcomp</text>
</a>
</g>
</g>
<!-- std&#45;&gt;permcomp -->
<g id="edge68" class="edge"><title>std&#45;&gt;permcomp</title>
<path fill="none" stroke="black" d="M1417.29,-224.695C1453.06,-213.808 1516.71,-194.437 1563.16,-180.298"/>
<polygon fill="black" stroke="black" points="1564.25,-183.625 1572.8,-177.365 1562.22,-176.928 1564.25,-183.625"/>
</g>
<!-- stdtab&#45;&gt;Yamanouchi -->
<g id="edge63" class="edge"><title>stdtab&#45;&gt;Yamanouchi</title>
<path fill="none" stroke="black" d="M881.393,-287.697C885.765,-279.644 891.057,-269.894 895.895,-260.982"/>
<polygon fill="black" stroke="black" points="899.02,-262.563 900.715,-252.104 892.868,-259.223 899.02,-262.563"/>
</g>
<!-- stdtab&#45;&gt;std -->
<g id="edge64" class="edge"><title>stdtab&#45;&gt;std</title>
<path fill="none" stroke="black" d="M903.136,-302.965C977.153,-297.782 1169.24,-282.302 1327,-252 1335.56,-250.357 1344.66,-248.166 1353.2,-245.906"/>
<polygon fill="black" stroke="black" points="1354.19,-249.264 1362.92,-243.249 1352.35,-242.512 1354.19,-249.264"/>
</g>
<!-- tableau -->
<g id="node16" class="node"><title>tableau</title>
<g id="a_node16"><a xlink:href="Combi.Combi.tableau.html" xlink:title="tableau">
<polygon fill="#dbc3b6" stroke="#dbc3b6" points="783,-252 713,-252 713,-216 783,-216 783,-252"/>
<text text-anchor="middle" x="748" y="-229.6" font-family="Times,serif" font-size="18.00">tableau</text>
</a>
</g>
</g>
<!-- stdtab&#45;&gt;tableau -->
<g id="edge65" class="edge"><title>stdtab&#45;&gt;tableau</title>
<path fill="none" stroke="black" d="M841.666,-287.876C825.303,-278.639 804.917,-267.131 787.346,-257.212"/>
<polygon fill="black" stroke="black" points="788.879,-254.058 778.45,-252.19 785.438,-260.154 788.879,-254.058"/>
</g>
<!-- subseq -->
<g id="node15" class="node"><title>subseq</title>
<g id="a_node15"><a xlink:href="Combi.Combi.subseq.html" xlink:title="subseq">
<polygon fill="#dbc3b6" stroke="#dbc3b6" points="774.5,-180 707.5,-180 707.5,-144 774.5,-144 774.5,-180"/>
<text text-anchor="middle" x="741" y="-157.6" font-family="Times,serif" font-size="18.00">subseq</text>
</a>
</g>
</g>
<!-- subseq&#45;&gt;combclass -->
<g id="edge61" class="edge"><title>subseq&#45;&gt;combclass</title>
<path fill="none" stroke="black" d="M774.788,-156.384C836.543,-147.816 971.719,-128.455 1085,-108 1093.33,-106.496 1102.11,-104.797 1110.71,-103.069"/>
<polygon fill="black" stroke="black" points="1111.58,-106.464 1120.68,-101.038 1110.18,-99.6046 1111.58,-106.464"/>
</g>
<!-- subseq&#45;&gt;sorted -->
<g id="edge62" class="edge"><title>subseq&#45;&gt;sorted</title>
<path fill="none" stroke="black" d="M774.689,-152.487C825.589,-139.624 921.972,-115.267 976.917,-101.382"/>
<polygon fill="black" stroke="black" points="977.837,-104.76 986.674,-98.9162 976.122,-97.973 977.837,-104.76"/>
</g>
<!-- tableau&#45;&gt;partition -->
<g id="edge60" class="edge"><title>tableau&#45;&gt;partition</title>
<path fill="none" stroke="black" d="M783.108,-224.063C831.227,-211.815 917.942,-189.742 972.88,-175.758"/>
<polygon fill="black" stroke="black" points="973.925,-179.104 982.752,-173.245 972.198,-172.32 973.925,-179.104"/>
</g>
<!-- vectNK&#45;&gt;tools -->
<g id="edge59" class="edge"><title>vectNK&#45;&gt;tools</title>
<path fill="none" stroke="black" d="M1464.48,-143.871C1465.16,-119.67 1466.42,-75.2108 1467.23,-46.3932"/>
<polygon fill="black" stroke="black" points="1470.73,-46.2839 1467.52,-36.1893 1463.74,-46.0867 1470.73,-46.2839"/>
</g>
<!-- Erdos_Szekeres -->
<g id="node18" class="node"><title>Erdos_Szekeres</title>
<g id="a_node18"><a xlink:href="Combi.Erdos_Szekeres.Erdos_Szekeres.html" xlink:title="Erdos_Szekeres">
<polygon fill="#dbc3b6" stroke="#dbc3b6" points="1408.5,-684 1275.5,-684 1275.5,-648 1408.5,-648 1408.5,-684"/>
<text text-anchor="middle" x="1342" y="-661.6" font-family="Times,serif" font-size="18.00">Erdos_Szekeres</text>
</a>
</g>
</g>
<!-- Greene_inv -->
<g id="node24" class="node"><title>Greene_inv</title>
<g id="a_node24"><a xlink:href="Combi.LRrule.Greene_inv.html" xlink:title="Greene_inv">
<polygon fill="#dbc3b6" stroke="#dbc3b6" points="1562.5,-612 1461.5,-612 1461.5,-576 1562.5,-576 1562.5,-612"/>
<text text-anchor="middle" x="1512" y="-589.6" font-family="Times,serif" font-size="18.00">Greene_inv</text>
</a>
</g>
</g>
<!-- Erdos_Szekeres&#45;&gt;Greene_inv -->
<g id="edge57" class="edge"><title>Erdos_Szekeres&#45;&gt;Greene_inv</title>
<path fill="none" stroke="black" d="M1383.59,-647.876C1407.03,-638.222 1436.5,-626.087 1461.3,-615.878"/>
<polygon fill="black" stroke="black" points="1462.63,-619.112 1470.55,-612.068 1459.97,-612.639 1462.63,-619.112"/>
</g>
<!-- Frobenius_ident -->
<g id="node19" class="node"><title>Frobenius_ident</title>
<g id="a_node19"><a xlink:href="Combi.HookFormula.Frobenius_ident.html" xlink:title="Frobenius_ident">
<polygon fill="#dbc3b6" stroke="#dbc3b6" points="940.5,-540 803.5,-540 803.5,-504 940.5,-504 940.5,-540"/>
<text text-anchor="middle" x="872" y="-517.6" font-family="Times,serif" font-size="18.00">Frobenius_ident</text>
</a>
</g>
</g>
<!-- hook -->
<g id="node21" class="node"><title>hook</title>
<g id="a_node21"><a xlink:href="Combi.HookFormula.hook.html" xlink:title="hook">
<polygon fill="#dbc3b6" stroke="#dbc3b6" points="411,-468 357,-468 357,-432 411,-432 411,-468"/>
<text text-anchor="middle" x="384" y="-445.6" font-family="Times,serif" font-size="18.00">hook</text>
</a>
</g>
</g>
<!-- Frobenius_ident&#45;&gt;hook -->
<g id="edge35" class="edge"><title>Frobenius_ident&#45;&gt;hook</title>
<path fill="none" stroke="black" d="M803.374,-511.156C698.858,-496.164 503.311,-468.114 421.497,-456.379"/>
<polygon fill="black" stroke="black" points="421.58,-452.855 411.184,-454.899 420.586,-459.784 421.58,-452.855"/>
</g>
<!-- Schensted -->
<g id="node25" class="node"><title>Schensted</title>
<g id="a_node25"><a xlink:href="Combi.LRrule.Schensted.html" xlink:title="Schensted">
<polygon fill="#dbc3b6" stroke="#dbc3b6" points="918,-396 826,-396 826,-360 918,-360 918,-396"/>
<text text-anchor="middle" x="872" y="-373.6" font-family="Times,serif" font-size="18.00">Schensted</text>
</a>
</g>
</g>
<!-- Frobenius_ident&#45;&gt;Schensted -->
<g id="edge36" class="edge"><title>Frobenius_ident&#45;&gt;Schensted</title>
<path fill="none" stroke="black" d="M872,-503.871C872,-479.67 872,-435.211 872,-406.393"/>
<polygon fill="black" stroke="black" points="875.5,-406.189 872,-396.189 868.5,-406.189 875.5,-406.189"/>
</g>
<!-- Qmeasure -->
<g id="node20" class="node"><title>Qmeasure</title>
<g id="a_node20"><a xlink:href="Combi.HookFormula.Qmeasure.html" xlink:title="Qmeasure">
<polygon fill="#dbc3b6" stroke="#dbc3b6" points="198.5,-396 109.5,-396 109.5,-360 198.5,-360 198.5,-396"/>
<text text-anchor="middle" x="154" y="-373.6" font-family="Times,serif" font-size="18.00">Qmeasure</text>
</a>
</g>
</g>
<!-- Qmeasure&#45;&gt;Ccpo -->
<g id="edge32" class="edge"><title>Qmeasure&#45;&gt;Ccpo</title>
<path fill="none" stroke="black" d="M123.177,-359.876C105.646,-350.137 83.5712,-337.873 65.0955,-327.609"/>
<polygon fill="black" stroke="black" points="66.7918,-324.547 56.3505,-322.75 63.3923,-330.666 66.7918,-324.547"/>
</g>
<!-- Qmeasure&#45;&gt;Misc -->
<g id="edge33" class="edge"><title>Qmeasure&#45;&gt;Misc</title>
<path fill="none" stroke="black" d="M154.247,-359.697C154.357,-351.983 154.49,-342.712 154.613,-334.112"/>
<polygon fill="black" stroke="black" points="158.112,-334.153 154.756,-324.104 151.113,-334.053 158.112,-334.153"/>
</g>
<!-- rat_coerce -->
<g id="node42" class="node"><title>rat_coerce</title>
<g id="a_node42"><a xlink:href="Combi.SSRcomplements.rat_coerce.html" xlink:title="rat_coerce">
<polygon fill="#dbc3b6" stroke="#dbc3b6" points="348,-324 254,-324 254,-288 348,-288 348,-324"/>
<text text-anchor="middle" x="301" y="-301.6" font-family="Times,serif" font-size="18.00">rat_coerce</text>
</a>
</g>
</g>
<!-- Qmeasure&#45;&gt;rat_coerce -->
<g id="edge34" class="edge"><title>Qmeasure&#45;&gt;rat_coerce</title>
<path fill="none" stroke="black" d="M189.96,-359.876C209.877,-350.392 234.822,-338.513 256.02,-328.419"/>
<polygon fill="black" stroke="black" points="257.633,-331.528 265.157,-324.068 254.623,-325.208 257.633,-331.528"/>
</g>
<!-- hook&#45;&gt;subseq -->
<g id="edge29" class="edge"><title>hook&#45;&gt;subseq</title>
<path fill="none" stroke="black" d="M401.79,-431.804C443.787,-391.63 553.158,-289.458 654,-216 668.938,-205.119 686.176,-194.29 701.347,-185.284"/>
<polygon fill="black" stroke="black" points="703.153,-188.283 710.009,-180.206 699.612,-182.245 703.153,-188.283"/>
</g>
<!-- hook&#45;&gt;Qmeasure -->
<g id="edge30" class="edge"><title>hook&#45;&gt;Qmeasure</title>
<path fill="none" stroke="black" d="M356.713,-440.695C320.275,-429.605 254.912,-409.712 208.257,-395.513"/>
<polygon fill="black" stroke="black" points="209.188,-392.138 198.602,-392.575 207.15,-398.835 209.188,-392.138"/>
</g>
<!-- recyama -->
<g id="node22" class="node"><title>recyama</title>
<g id="a_node22"><a xlink:href="Combi.HookFormula.recyama.html" xlink:title="recyama">
<polygon fill="#dbc3b6" stroke="#dbc3b6" points="349,-396 271,-396 271,-360 349,-360 349,-396"/>
<text text-anchor="middle" x="310" y="-373.6" font-family="Times,serif" font-size="18.00">recyama</text>
</a>
</g>
</g>
<!-- hook&#45;&gt;recyama -->
<g id="edge31" class="edge"><title>hook&#45;&gt;recyama</title>
<path fill="none" stroke="black" d="M365.708,-431.697C356.567,-423.05 345.36,-412.449 335.4,-403.027"/>
<polygon fill="black" stroke="black" points="337.752,-400.434 328.082,-396.104 332.941,-405.519 337.752,-400.434"/>
</g>
<!-- recyama&#45;&gt;stdtab -->
<g id="edge27" class="edge"><title>recyama&#45;&gt;stdtab</title>
<path fill="none" stroke="black" d="M349.073,-372.133C451.353,-359.394 726.252,-325.154 830.84,-312.127"/>
<polygon fill="black" stroke="black" points="831.508,-315.571 840.999,-310.861 830.643,-308.624 831.508,-315.571"/>
</g>
<!-- recyama&#45;&gt;rat_coerce -->
<g id="edge28" class="edge"><title>recyama&#45;&gt;rat_coerce</title>
<path fill="none" stroke="black" d="M307.775,-359.697C306.783,-351.983 305.592,-342.712 304.486,-334.112"/>
<polygon fill="black" stroke="black" points="307.946,-333.576 303.199,-324.104 301.003,-334.469 307.946,-333.576"/>
</g>
<!-- Greene -->
<g id="node23" class="node"><title>Greene</title>
<g id="a_node23"><a xlink:href="Combi.LRrule.Greene.html" xlink:title="Greene">
<polygon fill="#dbc3b6" stroke="#dbc3b6" points="1546.5,-540 1477.5,-540 1477.5,-504 1546.5,-504 1546.5,-540"/>
<text text-anchor="middle" x="1512" y="-517.6" font-family="Times,serif" font-size="18.00">Greene</text>
</a>
</g>
</g>
<!-- plactic -->
<g id="node30" class="node"><title>plactic</title>
<g id="a_node30"><a xlink:href="Combi.LRrule.plactic.html" xlink:title="plactic">
<polygon fill="#dbc3b6" stroke="#dbc3b6" points="1385.5,-468 1320.5,-468 1320.5,-432 1385.5,-432 1385.5,-468"/>
<text text-anchor="middle" x="1353" y="-445.6" font-family="Times,serif" font-size="18.00">plactic</text>
</a>
</g>
</g>
<!-- Greene&#45;&gt;plactic -->
<g id="edge51" class="edge"><title>Greene&#45;&gt;plactic</title>
<path fill="none" stroke="black" d="M1477.5,-505.811C1453.18,-495.103 1420.48,-480.707 1394.69,-469.355"/>
<polygon fill="black" stroke="black" points="1396.1,-466.149 1385.53,-465.323 1393.28,-472.556 1396.1,-466.149"/>
</g>
<!-- ordcast -->
<g id="node40" class="node"><title>ordcast</title>
<g id="a_node40"><a xlink:href="Combi.SSRcomplements.ordcast.html" xlink:title="ordcast">
<polygon fill="#dbc3b6" stroke="#dbc3b6" points="2133.5,-468 2062.5,-468 2062.5,-432 2133.5,-432 2133.5,-468"/>
<text text-anchor="middle" x="2098" y="-445.6" font-family="Times,serif" font-size="18.00">ordcast</text>
</a>
</g>
</g>
<!-- Greene&#45;&gt;ordcast -->
<g id="edge52" class="edge"><title>Greene&#45;&gt;ordcast</title>
<path fill="none" stroke="black" d="M1546.9,-516.831C1647.61,-504.8 1938.75,-470.023 2052.08,-456.485"/>
<polygon fill="black" stroke="black" points="2052.65,-459.942 2062.17,-455.28 2051.82,-452.991 2052.65,-459.942"/>
</g>
<!-- Greene_inv&#45;&gt;Greene -->
<g id="edge50" class="edge"><title>Greene_inv&#45;&gt;Greene</title>
<path fill="none" stroke="black" d="M1512,-575.697C1512,-567.983 1512,-558.712 1512,-550.112"/>
<polygon fill="black" stroke="black" points="1515.5,-550.104 1512,-540.104 1508.5,-550.104 1515.5,-550.104"/>
</g>
<!-- Schensted&#45;&gt;stdtab -->
<g id="edge45" class="edge"><title>Schensted&#45;&gt;stdtab</title>
<path fill="none" stroke="black" d="M872,-359.697C872,-351.983 872,-342.712 872,-334.112"/>
<polygon fill="black" stroke="black" points="875.5,-334.104 872,-324.104 868.5,-334.104 875.5,-334.104"/>
</g>
<!-- Schensted&#45;&gt;subseq -->
<g id="edge46" class="edge"><title>Schensted&#45;&gt;subseq</title>
<path fill="none" stroke="black" d="M825.944,-362.265C778.903,-344.461 708.446,-309.511 677,-252 669.324,-237.962 670.191,-230.479 677,-216 682.522,-204.257 692.066,-194.222 702.123,-186.146"/>
<polygon fill="black" stroke="black" points="704.311,-188.88 710.231,-180.093 700.124,-183.27 704.311,-188.88"/>
</g>
<!-- Yam_plact -->
<g id="node26" class="node"><title>Yam_plact</title>
<g id="a_node26"><a xlink:href="Combi.LRrule.Yam_plact.html" xlink:title="Yam_plact">
<polygon fill="#dbc3b6" stroke="#dbc3b6" points="1566,-756 1470,-756 1470,-720 1566,-720 1566,-756"/>
<text text-anchor="middle" x="1518" y="-733.6" font-family="Times,serif" font-size="18.00">Yam_plact</text>
</a>
</g>
</g>
<!-- stdplact -->
<g id="node32" class="node"><title>stdplact</title>
<g id="a_node32"><a xlink:href="Combi.LRrule.stdplact.html" xlink:title="stdplact">
<polygon fill="#dbc3b6" stroke="#dbc3b6" points="1555,-684 1481,-684 1481,-648 1555,-648 1555,-684"/>
<text text-anchor="middle" x="1518" y="-661.6" font-family="Times,serif" font-size="18.00">stdplact</text>
</a>
</g>
</g>
<!-- Yam_plact&#45;&gt;stdplact -->
<g id="edge40" class="edge"><title>Yam_plact&#45;&gt;stdplact</title>
<path fill="none" stroke="black" d="M1518,-719.697C1518,-711.983 1518,-702.712 1518,-694.112"/>
<polygon fill="black" stroke="black" points="1521.5,-694.104 1518,-684.104 1514.5,-694.104 1521.5,-694.104"/>
</g>
<!-- extract -->
<g id="node27" class="node"><title>extract</title>
<g id="a_node27"><a xlink:href="Combi.LRrule.extract.html" xlink:title="extract">
<polygon fill="#dbc3b6" stroke="#dbc3b6" points="1398.5,-1044 1331.5,-1044 1331.5,-1008 1398.5,-1008 1398.5,-1044"/>
<text text-anchor="middle" x="1365" y="-1021.6" font-family="Times,serif" font-size="18.00">extract</text>
</a>
</g>
</g>
<!-- implem -->
<g id="node29" class="node"><title>implem</title>
<g id="a_node29"><a xlink:href="Combi.LRrule.implem.html" xlink:title="implem">
<polygon fill="#dbc3b6" stroke="#dbc3b6" points="1400.5,-972 1329.5,-972 1329.5,-936 1400.5,-936 1400.5,-972"/>
<text text-anchor="middle" x="1365" y="-949.6" font-family="Times,serif" font-size="18.00">implem</text>
</a>
</g>
</g>
<!-- extract&#45;&gt;implem -->
<g id="edge56" class="edge"><title>extract&#45;&gt;implem</title>
<path fill="none" stroke="black" d="M1365,-1007.7C1365,-999.983 1365,-990.712 1365,-982.112"/>
<polygon fill="black" stroke="black" points="1368.5,-982.104 1365,-972.104 1361.5,-982.104 1368.5,-982.104"/>
</g>
<!-- freeSchur -->
<g id="node28" class="node"><title>freeSchur</title>
<g id="a_node28"><a xlink:href="Combi.LRrule.freeSchur.html" xlink:title="freeSchur">
<polygon fill="#dbc3b6" stroke="#dbc3b6" points="1408.5,-828 1321.5,-828 1321.5,-792 1408.5,-792 1408.5,-828"/>
<text text-anchor="middle" x="1365" y="-805.6" font-family="Times,serif" font-size="18.00">freeSchur</text>
</a>
</g>
</g>
<!-- freeSchur&#45;&gt;Yam_plact -->
<g id="edge53" class="edge"><title>freeSchur&#45;&gt;Yam_plact</title>
<path fill="none" stroke="black" d="M1402.43,-791.876C1423.25,-782.349 1449.35,-770.407 1471.48,-760.283"/>
<polygon fill="black" stroke="black" points="1473.06,-763.411 1480.69,-756.068 1470.14,-757.046 1473.06,-763.411"/>
</g>
<!-- shuffle -->
<g id="node31" class="node"><title>shuffle</title>
<g id="a_node31"><a xlink:href="Combi.LRrule.shuffle.html" xlink:title="shuffle">
<polygon fill="#dbc3b6" stroke="#dbc3b6" points="1397.5,-756 1332.5,-756 1332.5,-720 1397.5,-720 1397.5,-756"/>
<text text-anchor="middle" x="1365" y="-733.6" font-family="Times,serif" font-size="18.00">shuffle</text>
</a>
</g>
</g>
<!-- freeSchur&#45;&gt;shuffle -->
<g id="edge54" class="edge"><title>freeSchur&#45;&gt;shuffle</title>
<path fill="none" stroke="black" d="M1365,-791.697C1365,-783.983 1365,-774.712 1365,-766.112"/>
<polygon fill="black" stroke="black" points="1368.5,-766.104 1365,-756.104 1361.5,-766.104 1368.5,-766.104"/>
</g>
<!-- Schur_mpoly -->
<g id="node36" class="node"><title>Schur_mpoly</title>
<g id="a_node36"><a xlink:href="Combi.MPoly.Schur_mpoly.html" xlink:title="Schur_mpoly">
<polygon fill="#dbc3b6" stroke="#dbc3b6" points="1223,-612 1109,-612 1109,-576 1223,-576 1223,-612"/>
<text text-anchor="middle" x="1166" y="-589.6" font-family="Times,serif" font-size="18.00">Schur_mpoly</text>
</a>
</g>
</g>
<!-- freeSchur&#45;&gt;Schur_mpoly -->
<g id="edge55" class="edge"><title>freeSchur&#45;&gt;Schur_mpoly</title>
<path fill="none" stroke="black" d="M1339.9,-791.929C1326.28,-782.133 1309.51,-769.188 1296,-756 1251.16,-712.234 1207.08,-653.372 1183.53,-620.298"/>
<polygon fill="black" stroke="black" points="1186.35,-618.228 1177.73,-612.079 1180.64,-622.266 1186.35,-618.228"/>
</g>
<!-- therule -->
<g id="node33" class="node"><title>therule</title>
<g id="a_node33"><a xlink:href="Combi.LRrule.therule.html" xlink:title="therule">
<polygon fill="#dbc3b6" stroke="#dbc3b6" points="1398.5,-900 1331.5,-900 1331.5,-864 1398.5,-864 1398.5,-900"/>
<text text-anchor="middle" x="1365" y="-877.6" font-family="Times,serif" font-size="18.00">therule</text>
</a>
</g>
</g>
<!-- implem&#45;&gt;therule -->
<g id="edge49" class="edge"><title>implem&#45;&gt;therule</title>
<path fill="none" stroke="black" d="M1365,-935.697C1365,-927.983 1365,-918.712 1365,-910.112"/>
<polygon fill="black" stroke="black" points="1368.5,-910.104 1365,-900.104 1361.5,-910.104 1368.5,-910.104"/>
</g>
<!-- plactic&#45;&gt;congr -->
<g id="edge47" class="edge"><title>plactic&#45;&gt;congr</title>
<path fill="none" stroke="black" d="M1320.3,-433.638C1297.46,-422.908 1266.87,-408.538 1242.8,-397.228"/>
<polygon fill="black" stroke="black" points="1244.13,-393.985 1233.59,-392.901 1241.15,-400.321 1244.13,-393.985"/>
</g>
<!-- plactic&#45;&gt;Schensted -->
<g id="edge48" class="edge"><title>plactic&#45;&gt;Schensted</title>
<path fill="none" stroke="black" d="M1320.17,-440.105C1308.78,-437.233 1295.88,-434.221 1284,-432 1157.98,-408.449 1008.31,-392.049 928.604,-384.225"/>
<polygon fill="black" stroke="black" points="928.592,-380.708 918.3,-383.224 927.914,-387.675 928.592,-380.708"/>
</g>
<!-- shuffle&#45;&gt;stdplact -->
<g id="edge44" class="edge"><title>shuffle&#45;&gt;stdplact</title>
<path fill="none" stroke="black" d="M1397.82,-721.983C1419.37,-712.124 1447.87,-699.083 1471.71,-688.177"/>
<polygon fill="black" stroke="black" points="1473.3,-691.301 1480.93,-683.958 1470.38,-684.936 1473.3,-691.301"/>
</g>
<!-- stdplact&#45;&gt;Greene_inv -->
<g id="edge43" class="edge"><title>stdplact&#45;&gt;Greene_inv</title>
<path fill="none" stroke="black" d="M1516.52,-647.697C1515.86,-639.983 1515.06,-630.712 1514.32,-622.112"/>
<polygon fill="black" stroke="black" points="1517.81,-621.769 1513.47,-612.104 1510.83,-622.367 1517.81,-621.769"/>
</g>
<!-- therule&#45;&gt;skewtab -->
<g id="edge41" class="edge"><title>therule&#45;&gt;skewtab</title>
<path fill="none" stroke="black" d="M1331.28,-875.272C1258.43,-862.893 1086.08,-833.611 1001.51,-819.242"/>
<polygon fill="black" stroke="black" points="1002.09,-815.791 991.646,-817.566 1000.92,-822.692 1002.09,-815.791"/>
</g>
<!-- therule&#45;&gt;freeSchur -->
<g id="edge42" class="edge"><title>therule&#45;&gt;freeSchur</title>
<path fill="none" stroke="black" d="M1365,-863.697C1365,-855.983 1365,-846.712 1365,-838.112"/>
<polygon fill="black" stroke="black" points="1368.5,-838.104 1365,-828.104 1361.5,-838.104 1368.5,-838.104"/>
</g>
<!-- Cauchy -->
<g id="node34" class="node"><title>Cauchy</title>
<g id="a_node34"><a xlink:href="Combi.MPoly.Cauchy.html" xlink:title="Cauchy">
<polygon fill="#dbc3b6" stroke="#dbc3b6" points="1786,-1188 1714,-1188 1714,-1152 1786,-1152 1786,-1188"/>
<text text-anchor="middle" x="1750" y="-1165.6" font-family="Times,serif" font-size="18.00">Cauchy</text>
</a>
</g>
</g>
<!-- homogsym -->
<g id="node38" class="node"><title>homogsym</title>
<g id="a_node38"><a xlink:href="Combi.MPoly.homogsym.html" xlink:title="homogsym">
<polygon fill="#dbc3b6" stroke="#dbc3b6" points="1792,-1116 1694,-1116 1694,-1080 1792,-1080 1792,-1116"/>
<text text-anchor="middle" x="1743" y="-1093.6" font-family="Times,serif" font-size="18.00">homogsym</text>
</a>
</g>
</g>
<!-- Cauchy&#45;&gt;homogsym -->
<g id="edge8" class="edge"><title>Cauchy&#45;&gt;homogsym</title>
<path fill="none" stroke="black" d="M1748.27,-1151.7C1747.5,-1143.98 1746.57,-1134.71 1745.71,-1126.11"/>
<polygon fill="black" stroke="black" points="1749.19,-1125.71 1744.71,-1116.1 1742.22,-1126.4 1749.19,-1125.71"/>
</g>
<!-- Schur_altdef -->
<g id="node35" class="node"><title>Schur_altdef</title>
<g id="a_node35"><a xlink:href="Combi.MPoly.Schur_altdef.html" xlink:title="Schur_altdef">
<polygon fill="#dbc3b6" stroke="#dbc3b6" points="1708,-972 1598,-972 1598,-936 1708,-936 1708,-972"/>
<text text-anchor="middle" x="1653" y="-949.6" font-family="Times,serif" font-size="18.00">Schur_altdef</text>
</a>
</g>
</g>
<!-- Schur_altdef&#45;&gt;therule -->
<g id="edge1" class="edge"><title>Schur_altdef&#45;&gt;therule</title>
<path fill="none" stroke="black" d="M1597.81,-939.586C1542.8,-926.216 1459.42,-905.95 1408.8,-893.646"/>
<polygon fill="black" stroke="black" points="1409.37,-890.183 1398.83,-891.222 1407.72,-896.985 1409.37,-890.183"/>
</g>
<!-- unitriginv -->
<g id="node45" class="node"><title>unitriginv</title>
<g id="a_node45"><a xlink:href="Combi.SSRcomplements.unitriginv.html" xlink:title="unitriginv">
<polygon fill="#dbc3b6" stroke="#dbc3b6" points="1933.5,-900 1844.5,-900 1844.5,-864 1933.5,-864 1933.5,-900"/>
<text text-anchor="middle" x="1889" y="-877.6" font-family="Times,serif" font-size="18.00">unitriginv</text>
</a>
</g>
</g>
<!-- Schur_altdef&#45;&gt;unitriginv -->
<g id="edge2" class="edge"><title>Schur_altdef&#45;&gt;unitriginv</title>
<path fill="none" stroke="black" d="M1708.03,-936.676C1746.04,-925.403 1796.38,-910.472 1834.31,-899.221"/>
<polygon fill="black" stroke="black" points="1835.58,-902.497 1844.17,-896.298 1833.59,-895.786 1835.58,-902.497"/>
</g>
<!-- Schur_mpoly&#45;&gt;stdtab -->
<g id="edge3" class="edge"><title>Schur_mpoly&#45;&gt;stdtab</title>
<path fill="none" stroke="black" d="M1152.93,-575.808C1121.55,-535.208 1038.27,-431.437 954,-360 940.83,-348.835 925.158,-338.164 911.061,-329.362"/>
<polygon fill="black" stroke="black" points="912.879,-326.371 902.523,-324.135 909.224,-332.341 912.879,-326.371"/>
</g>
<!-- antisym -->
<g id="node37" class="node"><title>antisym</title>
<g id="a_node37"><a xlink:href="Combi.MPoly.antisym.html" xlink:title="antisym">
<polygon fill="#dbc3b6" stroke="#dbc3b6" points="1237,-540 1163,-540 1163,-504 1237,-504 1237,-540"/>
<text text-anchor="middle" x="1200" y="-517.6" font-family="Times,serif" font-size="18.00">antisym</text>
</a>
</g>
</g>
<!-- Schur_mpoly&#45;&gt;antisym -->
<g id="edge4" class="edge"><title>Schur_mpoly&#45;&gt;antisym</title>
<path fill="none" stroke="black" d="M1174.4,-575.697C1178.27,-567.728 1182.95,-558.1 1187.24,-549.264"/>
<polygon fill="black" stroke="black" points="1190.47,-550.629 1191.69,-540.104 1184.17,-547.57 1190.47,-550.629"/>
</g>
<!-- presentSn -->
<g id="node50" class="node"><title>presentSn</title>
<g id="a_node50"><a xlink:href="Combi.SymGroup.presentSn.html" xlink:title="presentSn">
<polygon fill="#dbc3b6" stroke="#dbc3b6" points="1248.5,-468 1159.5,-468 1159.5,-432 1248.5,-432 1248.5,-468"/>
<text text-anchor="middle" x="1204" y="-445.6" font-family="Times,serif" font-size="18.00">presentSn</text>
</a>
</g>
</g>
<!-- antisym&#45;&gt;presentSn -->
<g id="edge9" class="edge"><title>antisym&#45;&gt;presentSn</title>
<path fill="none" stroke="black" d="M1200.99,-503.697C1201.43,-495.983 1201.96,-486.712 1202.45,-478.112"/>
<polygon fill="black" stroke="black" points="1205.95,-478.288 1203.02,-468.104 1198.96,-477.888 1205.95,-478.288"/>
</g>
<!-- sympoly -->
<g id="node39" class="node"><title>sympoly</title>
<g id="a_node39"><a xlink:href="Combi.MPoly.sympoly.html" xlink:title="sympoly">
<polygon fill="#dbc3b6" stroke="#dbc3b6" points="1782,-1044 1704,-1044 1704,-1008 1782,-1008 1782,-1044"/>
<text text-anchor="middle" x="1743" y="-1021.6" font-family="Times,serif" font-size="18.00">sympoly</text>
</a>
</g>
</g>
<!-- homogsym&#45;&gt;sympoly -->
<g id="edge7" class="edge"><title>homogsym&#45;&gt;sympoly</title>
<path fill="none" stroke="black" d="M1743,-1079.7C1743,-1071.98 1743,-1062.71 1743,-1054.11"/>
<polygon fill="black" stroke="black" points="1746.5,-1054.1 1743,-1044.1 1739.5,-1054.1 1746.5,-1054.1"/>
</g>
<!-- sympoly&#45;&gt;Schur_altdef -->
<g id="edge5" class="edge"><title>sympoly&#45;&gt;Schur_altdef</title>
<path fill="none" stroke="black" d="M1720.75,-1007.7C1709.42,-998.881 1695.47,-988.032 1683.18,-978.474"/>
<polygon fill="black" stroke="black" points="1685.03,-975.481 1674.99,-972.104 1680.74,-981.007 1685.03,-975.481"/>
</g>
<!-- permcent -->
<g id="node49" class="node"><title>permcent</title>
<g id="a_node49"><a xlink:href="Combi.SymGroup.permcent.html" xlink:title="permcent">
<polygon fill="#dbc3b6" stroke="#dbc3b6" points="1864,-972 1780,-972 1780,-936 1864,-936 1864,-972"/>
<text text-anchor="middle" x="1822" y="-949.6" font-family="Times,serif" font-size="18.00">permcent</text>
</a>
</g>
</g>
<!-- sympoly&#45;&gt;permcent -->
<g id="edge6" class="edge"><title>sympoly&#45;&gt;permcent</title>
<path fill="none" stroke="black" d="M1762.53,-1007.7C1772.38,-998.965 1784.49,-988.24 1795.2,-978.75"/>
<polygon fill="black" stroke="black" points="1797.53,-981.356 1802.7,-972.104 1792.89,-976.117 1797.53,-981.356"/>
</g>
<!-- ordcast&#45;&gt;tools -->
<g id="edge39" class="edge"><title>ordcast&#45;&gt;tools</title>
<path fill="none" stroke="black" d="M2133.72,-433.377C2176.94,-411.764 2244,-368.347 2244,-307 2244,-307 2244,-307 2244,-161 2244,-85.0137 1660.84,-34.0582 1505.59,-21.8391"/>
<polygon fill="black" stroke="black" points="1505.41,-18.3144 1495.16,-21.0265 1504.86,-25.2932 1505.41,-18.3144"/>
</g>
<!-- sorted&#45;&gt;tools -->
<g id="edge38" class="edge"><title>sorted&#45;&gt;tools</title>
<path fill="none" stroke="black" d="M1049.2,-80.3196C1060.42,-77.3992 1073.22,-74.3017 1085,-72 1210.7,-47.4354 1361.77,-30.0472 1430.58,-22.7829"/>
<polygon fill="black" stroke="black" points="1431.32,-26.2249 1440.9,-21.7044 1430.59,-19.2628 1431.32,-26.2249"/>
</g>
<!-- unitriginv&#45;&gt;ordtype -->
<g id="edge37" class="edge"><title>unitriginv&#45;&gt;ordtype</title>
<path fill="none" stroke="black" d="M1902.36,-863.721C1920.85,-838.027 1952,-787.546 1952,-739 1952,-739 1952,-739 1952,-233 1952,-181.841 1924.16,-168.048 1879,-144 1791.2,-97.2395 1487.35,-91.3764 1369.36,-90.9011"/>
<polygon fill="black" stroke="black" points="1369.21,-87.4007 1359.2,-90.8718 1369.19,-94.4007 1369.21,-87.4007"/>
</g>
<!-- Frobenius_char -->
<g id="node46" class="node"><title>Frobenius_char</title>
<g id="a_node46"><a xlink:href="Combi.SymGroup.Frobenius_char.html" xlink:title="Frobenius_char">
<polygon fill="#dbc3b6" stroke="#dbc3b6" points="1890.5,-1260 1759.5,-1260 1759.5,-1224 1890.5,-1224 1890.5,-1260"/>
<text text-anchor="middle" x="1825" y="-1237.6" font-family="Times,serif" font-size="18.00">Frobenius_char</text>
</a>
</g>
</g>
<!-- Frobenius_char&#45;&gt;Cauchy -->
<g id="edge16" class="edge"><title>Frobenius_char&#45;&gt;Cauchy</title>
<path fill="none" stroke="black" d="M1806.46,-1223.7C1797.2,-1215.05 1785.84,-1204.45 1775.74,-1195.03"/>
<polygon fill="black" stroke="black" points="1778.02,-1192.37 1768.33,-1188.1 1773.25,-1197.49 1778.02,-1192.37"/>
</g>
<!-- towerSn -->
<g id="node52" class="node"><title>towerSn</title>
<g id="a_node52"><a xlink:href="Combi.SymGroup.towerSn.html" xlink:title="towerSn">
<polygon fill="#dbc3b6" stroke="#dbc3b6" points="1940.5,-1044 1861.5,-1044 1861.5,-1008 1940.5,-1008 1940.5,-1044"/>
<text text-anchor="middle" x="1901" y="-1021.6" font-family="Times,serif" font-size="18.00">towerSn</text>
</a>
</g>
</g>
<!-- Frobenius_char&#45;&gt;towerSn -->
<g id="edge17" class="edge"><title>Frobenius_char&#45;&gt;towerSn</title>
<path fill="none" stroke="black" d="M1831.09,-1223.85C1844.29,-1186.68 1875.63,-1098.44 1891.48,-1053.82"/>
<polygon fill="black" stroke="black" points="1894.83,-1054.83 1894.88,-1044.23 1888.24,-1052.48 1894.83,-1054.83"/>
</g>
<!-- cycles&#45;&gt;permcomp -->
<g id="edge21" class="edge"><title>cycles&#45;&gt;permcomp</title>
<path fill="none" stroke="black" d="M1780.72,-221.597C1752.58,-211.337 1710.55,-196.011 1676.52,-183.607"/>
<polygon fill="black" stroke="black" points="1677.29,-180.163 1666.7,-180.026 1674.9,-186.74 1677.29,-180.163"/>
</g>
<!-- cycles&#45;&gt;tools -->
<g id="edge22" class="edge"><title>cycles&#45;&gt;tools</title>
<path fill="none" stroke="black" d="M1843.12,-216.907C1856.8,-208.032 1871.44,-195.619 1879,-180 1885.97,-165.598 1888.14,-157.135 1879,-144 1835.33,-81.2119 1597.83,-38.7986 1505.11,-24.4139"/>
<polygon fill="black" stroke="black" points="1505.47,-20.9281 1495.05,-22.8761 1504.41,-27.8476 1505.47,-20.9281"/>
</g>
<!-- cycletype -->
<g id="node48" class="node"><title>cycletype</title>
<g id="a_node48"><a xlink:href="Combi.SymGroup.cycletype.html" xlink:title="cycletype">
<polygon fill="#dbc3b6" stroke="#dbc3b6" points="1679,-468 1593,-468 1593,-432 1679,-432 1679,-468"/>
<text text-anchor="middle" x="1636" y="-445.6" font-family="Times,serif" font-size="18.00">cycletype</text>
</a>
</g>
</g>
<!-- cycletype&#45;&gt;fibered_set -->
<g id="edge18" class="edge"><title>cycletype&#45;&gt;fibered_set</title>
<path fill="none" stroke="black" d="M1674.65,-431.876C1696.25,-422.307 1723.35,-410.3 1746.27,-400.148"/>
<polygon fill="black" stroke="black" points="1747.75,-403.319 1755.47,-396.068 1744.91,-396.919 1747.75,-403.319"/>
</g>
<!-- cycletype&#45;&gt;partition -->
<g id="edge19" class="edge"><title>cycletype&#45;&gt;partition</title>
<path fill="none" stroke="black" d="M1592.91,-435.531C1505.77,-407.463 1303.59,-338.107 1147,-252 1112.31,-232.926 1075.88,-205.807 1051.56,-186.527"/>
<polygon fill="black" stroke="black" points="1053.47,-183.578 1043.48,-180.06 1049.1,-189.042 1053.47,-183.578"/>
</g>
<!-- cycletype&#45;&gt;cycles -->
<g id="edge20" class="edge"><title>cycletype&#45;&gt;cycles</title>
<path fill="none" stroke="black" d="M1649.98,-431.929C1664.67,-414.006 1688.44,-385.008 1709,-360 1737.4,-325.458 1770.26,-285.596 1791.08,-260.352"/>
<polygon fill="black" stroke="black" points="1793.99,-262.322 1797.66,-252.38 1788.59,-257.867 1793.99,-262.322"/>
</g>
<!-- permcent&#45;&gt;cycletype -->
<g id="edge15" class="edge"><title>permcent&#45;&gt;cycletype</title>
<path fill="none" stroke="black" d="M1785.06,-935.954C1742.99,-913.694 1680,-870.444 1680,-811 1680,-811 1680,-811 1680,-593 1680,-551.212 1662.4,-505.482 1649.46,-477.511"/>
<polygon fill="black" stroke="black" points="1652.58,-475.915 1645.12,-468.394 1646.26,-478.927 1652.58,-475.915"/>
</g>
<!-- presentSn&#45;&gt;congr -->
<g id="edge14" class="edge"><title>presentSn&#45;&gt;congr</title>
<path fill="none" stroke="black" d="M1204,-431.697C1204,-423.983 1204,-414.712 1204,-406.112"/>
<polygon fill="black" stroke="black" points="1207.5,-406.104 1204,-396.104 1200.5,-406.104 1207.5,-406.104"/>
</g>
<!-- reprSn -->
<g id="node51" class="node"><title>reprSn</title>
<g id="a_node51"><a xlink:href="Combi.SymGroup.reprSn.html" xlink:title="reprSn">
<polygon fill="#dbc3b6" stroke="#dbc3b6" points="1388.5,-540 1323.5,-540 1323.5,-504 1388.5,-504 1388.5,-540"/>
<text text-anchor="middle" x="1356" y="-517.6" font-family="Times,serif" font-size="18.00">reprSn</text>
</a>
</g>
</g>
<!-- reprSn&#45;&gt;cycletype -->
<g id="edge12" class="edge"><title>reprSn&#45;&gt;cycletype</title>
<path fill="none" stroke="black" d="M1388.67,-512.833C1436.3,-500.925 1525.35,-478.662 1582.6,-464.35"/>
<polygon fill="black" stroke="black" points="1583.7,-467.683 1592.55,-461.862 1582,-460.892 1583.7,-467.683"/>
</g>
<!-- reprSn&#45;&gt;presentSn -->
<g id="edge13" class="edge"><title>reprSn&#45;&gt;presentSn</title>
<path fill="none" stroke="black" d="M1323.39,-505.983C1302.06,-496.16 1273.87,-483.177 1250.24,-472.294"/>
<polygon fill="black" stroke="black" points="1251.64,-469.088 1241.1,-468.084 1248.72,-475.446 1251.64,-469.088"/>
</g>
<!-- towerSn&#45;&gt;ordcast -->
<g id="edge10" class="edge"><title>towerSn&#45;&gt;ordcast</title>
<path fill="none" stroke="black" d="M1940.87,-1015.5C1998.43,-999.132 2098,-959.732 2098,-883 2098,-883 2098,-883 2098,-593 2098,-552.996 2098,-506.653 2098,-478.08"/>
<polygon fill="black" stroke="black" points="2101.5,-478.049 2098,-468.049 2094.5,-478.049 2101.5,-478.049"/>
</g>
<!-- towerSn&#45;&gt;permcent -->
<g id="edge11" class="edge"><title>towerSn&#45;&gt;permcent</title>
<path fill="none" stroke="black" d="M1881.47,-1007.7C1871.62,-998.965 1859.51,-988.24 1848.8,-978.75"/>
<polygon fill="black" stroke="black" points="1851.11,-976.117 1841.3,-972.104 1846.47,-981.356 1851.11,-976.117"/>
</g>
</g>
</svg>
