<?xml version="1.0" encoding="UTF-8" standalone="no"?>
<!DOCTYPE svg PUBLIC "-//W3C//DTD SVG 1.1//EN"
 "http://www.w3.org/Graphics/SVG/1.1/DTD/svg11.dtd">
<!-- Generated by graphviz version 2.38.0 (20140413.2041)
 -->
<!-- Title: depend Pages: 1 -->
<svg width="1972pt" height="1268pt"
 viewBox="0.00 0.00 1972.00 1268.00" xmlns="http://www.w3.org/2000/svg" xmlns:xlink="http://www.w3.org/1999/xlink">
<g id="graph0" class="graph" transform="scale(1 1) rotate(0) translate(4 1264)">
<title>depend</title>
<!-- Ccpo -->
<g id="node1" class="node"><title>Ccpo</title>
<g id="a_node1"><a xlink:href="ALEA.Ccpo.html" xlink:title="Ccpo">
<polygon fill="#dbc3b6" stroke="#dbc3b6" points="1838,-252 1782,-252 1782,-216 1838,-216 1838,-252"/>
<text text-anchor="middle" x="1810" y="-229.6" font-family="Times,serif" font-size="18.00">Ccpo</text>
</a>
</g>
</g>
<!-- Misc -->
<g id="node2" class="node"><title>Misc</title>
<g id="a_node2"><a xlink:href="ALEA.Misc.html" xlink:title="Misc">
<polygon fill="#dbc3b6" stroke="#dbc3b6" points="1964,-252 1910,-252 1910,-216 1964,-216 1964,-252"/>
<text text-anchor="middle" x="1937" y="-229.6" font-family="Times,serif" font-size="18.00">Misc</text>
</a>
</g>
</g>
<!-- Qmeasure -->
<g id="node3" class="node"><title>Qmeasure</title>
<g id="a_node3"><a xlink:href="ALEA.Qmeasure.html" xlink:title="Qmeasure">
<polygon fill="#dbc3b6" stroke="#dbc3b6" points="1854.5,-324 1765.5,-324 1765.5,-288 1854.5,-288 1854.5,-324"/>
<text text-anchor="middle" x="1810" y="-301.6" font-family="Times,serif" font-size="18.00">Qmeasure</text>
</a>
</g>
</g>
<!-- Qmeasure&#45;&gt;Ccpo -->
<g id="edge1" class="edge"><title>Qmeasure&#45;&gt;Ccpo</title>
<path fill="none" stroke="black" d="M1810,-287.697C1810,-279.983 1810,-270.712 1810,-262.112"/>
<polygon fill="black" stroke="black" points="1813.5,-262.104 1810,-252.104 1806.5,-262.104 1813.5,-262.104"/>
</g>
<!-- Qmeasure&#45;&gt;Misc -->
<g id="edge2" class="edge"><title>Qmeasure&#45;&gt;Misc</title>
<path fill="none" stroke="black" d="M1841.07,-287.876C1859.12,-277.928 1881.94,-265.346 1900.8,-254.952"/>
<polygon fill="black" stroke="black" points="1902.63,-257.938 1909.7,-250.046 1899.26,-251.808 1902.63,-257.938"/>
</g>
<!-- combclass -->
<g id="node4" class="node"><title>combclass</title>
<g id="a_node4"><a xlink:href="Combi.Basic.combclass.html" xlink:title="combclass">
<polygon fill="#dbc3b6" stroke="#dbc3b6" points="1192,-108 1100,-108 1100,-72 1192,-72 1192,-108"/>
<text text-anchor="middle" x="1146" y="-85.6" font-family="Times,serif" font-size="18.00">combclass</text>
</a>
</g>
</g>
<!-- tools -->
<g id="node44" class="node"><title>tools</title>
<g id="a_node44"><a xlink:href="Combi.SSRcomplements.tools.html" xlink:title="tools">
<polygon fill="#dbc3b6" stroke="#dbc3b6" points="480,-36 426,-36 426,-0 480,-0 480,-36"/>
<text text-anchor="middle" x="453" y="-13.6" font-family="Times,serif" font-size="18.00">tools</text>
</a>
</g>
</g>
<!-- combclass&#45;&gt;tools -->
<g id="edge29" class="edge"><title>combclass&#45;&gt;tools</title>
<path fill="none" stroke="black" d="M1099.99,-84.3529C971.024,-71.3257 607.771,-34.6334 490.212,-22.7588"/>
<polygon fill="black" stroke="black" points="490.554,-19.2756 480.253,-21.7528 489.85,-26.2401 490.554,-19.2756"/>
</g>
<!-- congr -->
<g id="node5" class="node"><title>congr</title>
<g id="a_node5"><a xlink:href="Combi.Basic.congr.html" xlink:title="congr">
<polygon fill="#dbc3b6" stroke="#dbc3b6" points="484.5,-396 425.5,-396 425.5,-360 484.5,-360 484.5,-396"/>
<text text-anchor="middle" x="455" y="-373.6" font-family="Times,serif" font-size="18.00">congr</text>
</a>
</g>
</g>
<!-- permuted -->
<g id="node14" class="node"><title>permuted</title>
<g id="a_node14"><a xlink:href="Combi.Combi.permuted.html" xlink:title="permuted">
<polygon fill="#dbc3b6" stroke="#dbc3b6" points="497,-324 411,-324 411,-288 497,-288 497,-324"/>
<text text-anchor="middle" x="454" y="-301.6" font-family="Times,serif" font-size="18.00">permuted</text>
</a>
</g>
</g>
<!-- congr&#45;&gt;permuted -->
<g id="edge27" class="edge"><title>congr&#45;&gt;permuted</title>
<path fill="none" stroke="black" d="M454.753,-359.697C454.643,-351.983 454.51,-342.712 454.387,-334.112"/>
<polygon fill="black" stroke="black" points="457.887,-334.053 454.244,-324.104 450.888,-334.153 457.887,-334.053"/>
</g>
<!-- vectNK -->
<g id="node20" class="node"><title>vectNK</title>
<g id="a_node20"><a xlink:href="Combi.Combi.vectNK.html" xlink:title="vectNK">
<polygon fill="#dbc3b6" stroke="#dbc3b6" points="183,-108 109,-108 109,-72 183,-72 183,-108"/>
<text text-anchor="middle" x="146" y="-85.6" font-family="Times,serif" font-size="18.00">vectNK</text>
</a>
</g>
</g>
<!-- congr&#45;&gt;vectNK -->
<g id="edge28" class="edge"><title>congr&#45;&gt;vectNK</title>
<path fill="none" stroke="black" d="M425.49,-366.185C380.073,-348.327 292.396,-308.901 236,-252 196.711,-212.359 169.202,-152.066 155.645,-117.618"/>
<polygon fill="black" stroke="black" points="158.888,-116.3 152.04,-108.216 152.352,-118.807 158.888,-116.3"/>
</g>
<!-- ordtype -->
<g id="node6" class="node"><title>ordtype</title>
<g id="a_node6"><a xlink:href="Combi.Basic.ordtype.html" xlink:title="ordtype">
<polygon fill="#dbc3b6" stroke="#dbc3b6" points="877,-108 803,-108 803,-72 877,-72 877,-108"/>
<text text-anchor="middle" x="840" y="-85.6" font-family="Times,serif" font-size="18.00">ordtype</text>
</a>
</g>
</g>
<!-- ordtype&#45;&gt;tools -->
<g id="edge26" class="edge"><title>ordtype&#45;&gt;tools</title>
<path fill="none" stroke="black" d="M802.893,-82.2881C729.143,-68.9483 564.863,-39.2335 490.662,-25.8122"/>
<polygon fill="black" stroke="black" points="490.852,-22.2899 480.389,-23.9541 489.606,-29.1782 490.852,-22.2899"/>
</g>
<!-- unitriginv -->
<g id="node7" class="node"><title>unitriginv</title>
<g id="a_node7"><a xlink:href="Combi.Basic.unitriginv.html" xlink:title="unitriginv">
<polygon fill="#dbc3b6" stroke="#dbc3b6" points="912.5,-900 823.5,-900 823.5,-864 912.5,-864 912.5,-900"/>
<text text-anchor="middle" x="868" y="-877.6" font-family="Times,serif" font-size="18.00">unitriginv</text>
</a>
</g>
</g>
<!-- unitriginv&#45;&gt;ordtype -->
<g id="edge25" class="edge"><title>unitriginv&#45;&gt;ordtype</title>
<path fill="none" stroke="black" d="M911.041,-863.816C957.216,-842.204 1024,-800.344 1024,-739 1024,-739 1024,-739 1024,-593 1024,-377.091 761.35,-451.172 678,-252 668.809,-230.038 682.46,-149.605 687,-144 712.606,-112.389 758.155,-99.5806 792.916,-94.4182"/>
<polygon fill="black" stroke="black" points="793.411,-97.8834 802.865,-93.1022 792.493,-90.9438 793.411,-97.8834"/>
</g>
<!-- Yamanouchi -->
<g id="node8" class="node"><title>Yamanouchi</title>
<g id="a_node8"><a xlink:href="Combi.Combi.Yamanouchi.html" xlink:title="Yamanouchi">
<polygon fill="#dbc3b6" stroke="#dbc3b6" points="1276,-252 1166,-252 1166,-216 1276,-216 1276,-252"/>
<text text-anchor="middle" x="1221" y="-229.6" font-family="Times,serif" font-size="18.00">Yamanouchi</text>
</a>
</g>
</g>
<!-- partition -->
<g id="node13" class="node"><title>partition</title>
<g id="a_node13"><a xlink:href="Combi.Combi.partition.html" xlink:title="partition">
<polygon fill="#dbc3b6" stroke="#dbc3b6" points="1261,-180 1181,-180 1181,-144 1261,-144 1261,-180"/>
<text text-anchor="middle" x="1221" y="-157.6" font-family="Times,serif" font-size="18.00">partition</text>
</a>
</g>
</g>
<!-- Yamanouchi&#45;&gt;partition -->
<g id="edge55" class="edge"><title>Yamanouchi&#45;&gt;partition</title>
<path fill="none" stroke="black" d="M1221,-215.697C1221,-207.983 1221,-198.712 1221,-190.112"/>
<polygon fill="black" stroke="black" points="1224.5,-190.104 1221,-180.104 1217.5,-190.104 1224.5,-190.104"/>
</g>
<!-- bintree -->
<g id="node9" class="node"><title>bintree</title>
<g id="a_node9"><a xlink:href="Combi.Combi.bintree.html" xlink:title="bintree">
<polygon fill="#dbc3b6" stroke="#dbc3b6" points="1564,-180 1496,-180 1496,-144 1564,-144 1564,-180"/>
<text text-anchor="middle" x="1530" y="-157.6" font-family="Times,serif" font-size="18.00">bintree</text>
</a>
</g>
</g>
<!-- bintree&#45;&gt;combclass -->
<g id="edge75" class="edge"><title>bintree&#45;&gt;combclass</title>
<path fill="none" stroke="black" d="M1495.77,-154.188C1479.5,-151.001 1459.76,-147.209 1442,-144 1347.09,-126.852 1322.79,-125.793 1228,-108 1219.68,-106.439 1210.9,-104.708 1202.31,-102.966"/>
<polygon fill="black" stroke="black" points="1202.84,-99.5022 1192.34,-100.926 1201.44,-106.36 1202.84,-99.5022"/>
</g>
<!-- composition -->
<g id="node10" class="node"><title>composition</title>
<g id="a_node10"><a xlink:href="Combi.Combi.composition.html" xlink:title="composition">
<polygon fill="#dbc3b6" stroke="#dbc3b6" points="948,-252 840,-252 840,-216 948,-216 948,-252"/>
<text text-anchor="middle" x="894" y="-229.6" font-family="Times,serif" font-size="18.00">composition</text>
</a>
</g>
</g>
<!-- composition&#45;&gt;partition -->
<g id="edge74" class="edge"><title>composition&#45;&gt;partition</title>
<path fill="none" stroke="black" d="M948.364,-221.362C1010.34,-208.095 1110.82,-186.586 1170.94,-173.716"/>
<polygon fill="black" stroke="black" points="1171.91,-177.088 1180.95,-171.573 1170.44,-170.243 1171.91,-177.088"/>
</g>
<!-- fibered_set -->
<g id="node11" class="node"><title>fibered_set</title>
<g id="a_node11"><a xlink:href="Combi.Combi.fibered_set.html" xlink:title="fibered_set">
<polygon fill="#dbc3b6" stroke="#dbc3b6" points="353,-396 255,-396 255,-360 353,-360 353,-396"/>
<text text-anchor="middle" x="304" y="-373.6" font-family="Times,serif" font-size="18.00">fibered_set</text>
</a>
</g>
</g>
<!-- multinomial -->
<g id="node12" class="node"><title>multinomial</title>
<g id="a_node12"><a xlink:href="Combi.Combi.multinomial.html" xlink:title="multinomial">
<polygon fill="#dbc3b6" stroke="#dbc3b6" points="505,-180 401,-180 401,-144 505,-144 505,-180"/>
<text text-anchor="middle" x="453" y="-157.6" font-family="Times,serif" font-size="18.00">multinomial</text>
</a>
</g>
</g>
<!-- multinomial&#45;&gt;tools -->
<g id="edge67" class="edge"><title>multinomial&#45;&gt;tools</title>
<path fill="none" stroke="black" d="M453,-143.871C453,-119.67 453,-75.2108 453,-46.3932"/>
<polygon fill="black" stroke="black" points="456.5,-46.1892 453,-36.1893 449.5,-46.1893 456.5,-46.1892"/>
</g>
<!-- partition&#45;&gt;combclass -->
<g id="edge71" class="edge"><title>partition&#45;&gt;combclass</title>
<path fill="none" stroke="black" d="M1202.46,-143.697C1193.2,-135.05 1181.84,-124.449 1171.74,-115.027"/>
<polygon fill="black" stroke="black" points="1174.02,-112.369 1164.33,-108.104 1169.25,-117.486 1174.02,-112.369"/>
</g>
<!-- partition&#45;&gt;ordtype -->
<g id="edge72" class="edge"><title>partition&#45;&gt;ordtype</title>
<path fill="none" stroke="black" d="M1180.95,-153.641C1110.15,-140.633 963.23,-113.641 887.467,-99.7209"/>
<polygon fill="black" stroke="black" points="887.732,-96.2111 877.264,-97.8463 886.467,-103.096 887.732,-96.2111"/>
</g>
<!-- sorted -->
<g id="node43" class="node"><title>sorted</title>
<g id="a_node43"><a xlink:href="Combi.SSRcomplements.sorted.html" xlink:title="sorted">
<polygon fill="#dbc3b6" stroke="#dbc3b6" points="1326,-108 1264,-108 1264,-72 1326,-72 1326,-108"/>
<text text-anchor="middle" x="1295" y="-85.6" font-family="Times,serif" font-size="18.00">sorted</text>
</a>
</g>
</g>
<!-- partition&#45;&gt;sorted -->
<g id="edge73" class="edge"><title>partition&#45;&gt;sorted</title>
<path fill="none" stroke="black" d="M1239.29,-143.697C1248.43,-135.05 1259.64,-124.449 1269.6,-115.027"/>
<polygon fill="black" stroke="black" points="1272.06,-117.519 1276.92,-108.104 1267.25,-112.434 1272.06,-117.519"/>
</g>
<!-- permuted&#45;&gt;composition -->
<g id="edge68" class="edge"><title>permuted&#45;&gt;composition</title>
<path fill="none" stroke="black" d="M497.187,-298.976C563.351,-289.632 693.733,-270.757 804,-252 812.338,-250.582 821.096,-249.019 829.74,-247.433"/>
<polygon fill="black" stroke="black" points="830.608,-250.832 839.802,-245.568 829.332,-243.949 830.608,-250.832"/>
</g>
<!-- permuted&#45;&gt;multinomial -->
<g id="edge69" class="edge"><title>permuted&#45;&gt;multinomial</title>
<path fill="none" stroke="black" d="M453.879,-287.871C453.709,-263.67 453.396,-219.211 453.193,-190.393"/>
<polygon fill="black" stroke="black" points="456.691,-190.164 453.121,-180.189 449.692,-190.214 456.691,-190.164"/>
</g>
<!-- cycles -->
<g id="node46" class="node"><title>cycles</title>
<g id="a_node46"><a xlink:href="Combi.SymGroup.cycles.html" xlink:title="cycles">
<polygon fill="#dbc3b6" stroke="#dbc3b6" points="334,-252 272,-252 272,-216 334,-216 334,-252"/>
<text text-anchor="middle" x="303" y="-229.6" font-family="Times,serif" font-size="18.00">cycles</text>
</a>
</g>
</g>
<!-- permuted&#45;&gt;cycles -->
<g id="edge70" class="edge"><title>permuted&#45;&gt;cycles</title>
<path fill="none" stroke="black" d="M417.061,-287.876C394.807,-277.56 366.443,-264.411 343.567,-253.806"/>
<polygon fill="black" stroke="black" points="345,-250.612 334.455,-249.582 342.055,-256.963 345,-250.612"/>
</g>
<!-- skewtab -->
<g id="node15" class="node"><title>skewtab</title>
<g id="a_node15"><a xlink:href="Combi.Combi.skewtab.html" xlink:title="skewtab">
<polygon fill="#dbc3b6" stroke="#dbc3b6" points="1214.5,-828 1137.5,-828 1137.5,-792 1214.5,-792 1214.5,-828"/>
<text text-anchor="middle" x="1176" y="-805.6" font-family="Times,serif" font-size="18.00">skewtab</text>
</a>
</g>
</g>
<!-- stdtab -->
<g id="node17" class="node"><title>stdtab</title>
<g id="a_node17"><a xlink:href="Combi.Combi.stdtab.html" xlink:title="stdtab">
<polygon fill="#dbc3b6" stroke="#dbc3b6" points="1252,-324 1190,-324 1190,-288 1252,-288 1252,-324"/>
<text text-anchor="middle" x="1221" y="-301.6" font-family="Times,serif" font-size="18.00">stdtab</text>
</a>
</g>
</g>
<!-- skewtab&#45;&gt;stdtab -->
<g id="edge66" class="edge"><title>skewtab&#45;&gt;stdtab</title>
<path fill="none" stroke="black" d="M1177.38,-791.964C1179.42,-765.323 1183,-712.169 1183,-667 1183,-667 1183,-667 1183,-449 1183,-407.633 1198.23,-361.722 1209.41,-333.605"/>
<polygon fill="black" stroke="black" points="1212.76,-334.673 1213.31,-324.093 1206.28,-332.019 1212.76,-334.673"/>
</g>
<!-- std -->
<g id="node16" class="node"><title>std</title>
<g id="a_node16"><a xlink:href="Combi.Combi.std.html" xlink:title="std">
<polygon fill="#dbc3b6" stroke="#dbc3b6" points="768,-252 714,-252 714,-216 768,-216 768,-252"/>
<text text-anchor="middle" x="741" y="-229.6" font-family="Times,serif" font-size="18.00">std</text>
</a>
</g>
</g>
<!-- std&#45;&gt;combclass -->
<g id="edge63" class="edge"><title>std&#45;&gt;combclass</title>
<path fill="none" stroke="black" d="M768.122,-225.167C801.989,-215.255 861.607,-197.373 912,-180 975.238,-158.198 1047.01,-130.445 1094.2,-111.775"/>
<polygon fill="black" stroke="black" points="1095.59,-114.99 1103.59,-108.051 1093.01,-108.483 1095.59,-114.99"/>
</g>
<!-- std&#45;&gt;ordtype -->
<g id="edge64" class="edge"><title>std&#45;&gt;ordtype</title>
<path fill="none" stroke="black" d="M768.178,-223.93C798.12,-213.321 843.334,-195.267 853,-180 864.753,-161.435 859.659,-136.39 852.686,-117.598"/>
<polygon fill="black" stroke="black" points="855.849,-116.083 848.832,-108.145 849.367,-118.726 855.849,-116.083"/>
</g>
<!-- permcomp -->
<g id="node42" class="node"><title>permcomp</title>
<g id="a_node42"><a xlink:href="Combi.SSRcomplements.permcomp.html" xlink:title="permcomp">
<polygon fill="#dbc3b6" stroke="#dbc3b6" points="817,-180 723,-180 723,-144 817,-144 817,-180"/>
<text text-anchor="middle" x="770" y="-157.6" font-family="Times,serif" font-size="18.00">permcomp</text>
</a>
</g>
</g>
<!-- std&#45;&gt;permcomp -->
<g id="edge65" class="edge"><title>std&#45;&gt;permcomp</title>
<path fill="none" stroke="black" d="M748.169,-215.697C751.435,-207.813 755.374,-198.304 759.002,-189.546"/>
<polygon fill="black" stroke="black" points="762.32,-190.683 762.914,-180.104 755.853,-188.003 762.32,-190.683"/>
</g>
<!-- stdtab&#45;&gt;Yamanouchi -->
<g id="edge60" class="edge"><title>stdtab&#45;&gt;Yamanouchi</title>
<path fill="none" stroke="black" d="M1221,-287.697C1221,-279.983 1221,-270.712 1221,-262.112"/>
<polygon fill="black" stroke="black" points="1224.5,-262.104 1221,-252.104 1217.5,-262.104 1224.5,-262.104"/>
</g>
<!-- stdtab&#45;&gt;std -->
<g id="edge61" class="edge"><title>stdtab&#45;&gt;std</title>
<path fill="none" stroke="black" d="M1189.9,-302.517C1120.29,-296.639 946.832,-280.21 804,-252 795.453,-250.312 786.355,-248.104 777.809,-245.841"/>
<polygon fill="black" stroke="black" points="778.666,-242.446 768.097,-243.186 776.82,-249.199 778.666,-242.446"/>
</g>
<!-- tableau -->
<g id="node19" class="node"><title>tableau</title>
<g id="a_node19"><a xlink:href="Combi.Combi.tableau.html" xlink:title="tableau">
<polygon fill="#dbc3b6" stroke="#dbc3b6" points="1418,-252 1348,-252 1348,-216 1418,-216 1418,-252"/>
<text text-anchor="middle" x="1383" y="-229.6" font-family="Times,serif" font-size="18.00">tableau</text>
</a>
</g>
</g>
<!-- stdtab&#45;&gt;tableau -->
<g id="edge62" class="edge"><title>stdtab&#45;&gt;tableau</title>
<path fill="none" stroke="black" d="M1252.24,-291.503C1276.74,-280.913 1311.18,-266.034 1338.56,-254.202"/>
<polygon fill="black" stroke="black" points="1340.13,-257.336 1347.92,-250.157 1337.36,-250.91 1340.13,-257.336"/>
</g>
<!-- subseq -->
<g id="node18" class="node"><title>subseq</title>
<g id="a_node18"><a xlink:href="Combi.Combi.subseq.html" xlink:title="subseq">
<polygon fill="#dbc3b6" stroke="#dbc3b6" points="1556.5,-324 1489.5,-324 1489.5,-288 1556.5,-288 1556.5,-324"/>
<text text-anchor="middle" x="1523" y="-301.6" font-family="Times,serif" font-size="18.00">subseq</text>
</a>
</g>
</g>
<!-- subseq&#45;&gt;combclass -->
<g id="edge58" class="edge"><title>subseq&#45;&gt;combclass</title>
<path fill="none" stroke="black" d="M1513.27,-287.917C1501.41,-268.363 1479.73,-236.413 1454,-216 1377.56,-155.362 1267.75,-120.298 1201.98,-103.476"/>
<polygon fill="black" stroke="black" points="1202.76,-100.063 1192.21,-101.028 1201.06,-106.853 1202.76,-100.063"/>
</g>
<!-- subseq&#45;&gt;sorted -->
<g id="edge59" class="edge"><title>subseq&#45;&gt;sorted</title>
<path fill="none" stroke="black" d="M1548.34,-287.77C1560.21,-278.476 1573.55,-266.037 1582,-252 1607.1,-210.311 1631.33,-181.239 1600,-144 1566.75,-104.474 1411.49,-94.4241 1336.18,-91.8698"/>
<polygon fill="black" stroke="black" points="1336.21,-88.3691 1326.11,-91.5569 1335.99,-95.3657 1336.21,-88.3691"/>
</g>
<!-- tableau&#45;&gt;partition -->
<g id="edge57" class="edge"><title>tableau&#45;&gt;partition</title>
<path fill="none" stroke="black" d="M1347.85,-217.811C1324.99,-207.935 1294.87,-194.92 1269.72,-184.051"/>
<polygon fill="black" stroke="black" points="1270.91,-180.755 1260.35,-180.002 1268.14,-187.181 1270.91,-180.755"/>
</g>
<!-- vectNK&#45;&gt;tools -->
<g id="edge56" class="edge"><title>vectNK&#45;&gt;tools</title>
<path fill="none" stroke="black" d="M183.031,-80.5564C242.006,-67.1094 356.622,-40.9754 415.74,-27.4958"/>
<polygon fill="black" stroke="black" points="416.793,-30.8457 425.764,-25.2101 415.236,-24.0208 416.793,-30.8457"/>
</g>
<!-- Erdos_Szekeres -->
<g id="node21" class="node"><title>Erdos_Szekeres</title>
<g id="a_node21"><a xlink:href="Combi.Erdos_Szekeres.Erdos_Szekeres.html" xlink:title="Erdos_Szekeres">
<polygon fill="#dbc3b6" stroke="#dbc3b6" points="547.5,-684 414.5,-684 414.5,-648 547.5,-648 547.5,-684"/>
<text text-anchor="middle" x="481" y="-661.6" font-family="Times,serif" font-size="18.00">Erdos_Szekeres</text>
</a>
</g>
</g>
<!-- Greene_inv -->
<g id="node25" class="node"><title>Greene_inv</title>
<g id="a_node25"><a xlink:href="Combi.LRrule.Greene_inv.html" xlink:title="Greene_inv">
<polygon fill="#dbc3b6" stroke="#dbc3b6" points="531.5,-612 430.5,-612 430.5,-576 531.5,-576 531.5,-612"/>
<text text-anchor="middle" x="481" y="-589.6" font-family="Times,serif" font-size="18.00">Greene_inv</text>
</a>
</g>
</g>
<!-- Erdos_Szekeres&#45;&gt;Greene_inv -->
<g id="edge54" class="edge"><title>Erdos_Szekeres&#45;&gt;Greene_inv</title>
<path fill="none" stroke="black" d="M481,-647.697C481,-639.983 481,-630.712 481,-622.112"/>
<polygon fill="black" stroke="black" points="484.5,-622.104 481,-612.104 477.5,-622.104 484.5,-622.104"/>
</g>
<!-- Frobenius_ident -->
<g id="node22" class="node"><title>Frobenius_ident</title>
<g id="a_node22"><a xlink:href="Combi.HookFormula.Frobenius_ident.html" xlink:title="Frobenius_ident">
<polygon fill="#dbc3b6" stroke="#dbc3b6" points="1433.5,-468 1296.5,-468 1296.5,-432 1433.5,-432 1433.5,-468"/>
<text text-anchor="middle" x="1365" y="-445.6" font-family="Times,serif" font-size="18.00">Frobenius_ident</text>
</a>
</g>
</g>
<!-- hook -->
<g id="node23" class="node"><title>hook</title>
<g id="a_node23"><a xlink:href="Combi.HookFormula.hook.html" xlink:title="hook">
<polygon fill="#dbc3b6" stroke="#dbc3b6" points="1533,-396 1479,-396 1479,-360 1533,-360 1533,-396"/>
<text text-anchor="middle" x="1506" y="-373.6" font-family="Times,serif" font-size="18.00">hook</text>
</a>
</g>
</g>
<!-- Frobenius_ident&#45;&gt;hook -->
<g id="edge33" class="edge"><title>Frobenius_ident&#45;&gt;hook</title>
<path fill="none" stroke="black" d="M1399.49,-431.876C1420.8,-421.299 1448.1,-407.744 1469.73,-397.007"/>
<polygon fill="black" stroke="black" points="1471.52,-400.025 1478.92,-392.444 1468.41,-393.755 1471.52,-400.025"/>
</g>
<!-- Schensted -->
<g id="node26" class="node"><title>Schensted</title>
<g id="a_node26"><a xlink:href="Combi.LRrule.Schensted.html" xlink:title="Schensted">
<polygon fill="#dbc3b6" stroke="#dbc3b6" points="1398,-396 1306,-396 1306,-360 1398,-360 1398,-396"/>
<text text-anchor="middle" x="1352" y="-373.6" font-family="Times,serif" font-size="18.00">Schensted</text>
</a>
</g>
</g>
<!-- Frobenius_ident&#45;&gt;Schensted -->
<g id="edge34" class="edge"><title>Frobenius_ident&#45;&gt;Schensted</title>
<path fill="none" stroke="black" d="M1361.79,-431.697C1360.35,-423.983 1358.63,-414.712 1357.04,-406.112"/>
<polygon fill="black" stroke="black" points="1360.44,-405.297 1355.18,-396.104 1353.56,-406.575 1360.44,-405.297"/>
</g>
<!-- hook&#45;&gt;Qmeasure -->
<g id="edge30" class="edge"><title>hook&#45;&gt;Qmeasure</title>
<path fill="none" stroke="black" d="M1533.25,-370.726C1583.12,-359.243 1689.95,-334.644 1755.32,-319.59"/>
<polygon fill="black" stroke="black" points="1756.49,-322.914 1765.45,-317.259 1754.92,-316.092 1756.49,-322.914"/>
</g>
<!-- hook&#45;&gt;stdtab -->
<g id="edge31" class="edge"><title>hook&#45;&gt;stdtab</title>
<path fill="none" stroke="black" d="M1478.93,-370.351C1428.76,-358.028 1321.05,-331.574 1261.93,-317.053"/>
<polygon fill="black" stroke="black" points="1262.72,-313.644 1252.18,-314.657 1261.05,-320.441 1262.72,-313.644"/>
</g>
<!-- hook&#45;&gt;subseq -->
<g id="edge32" class="edge"><title>hook&#45;&gt;subseq</title>
<path fill="none" stroke="black" d="M1510.2,-359.697C1512.1,-351.898 1514.38,-342.509 1516.48,-333.829"/>
<polygon fill="black" stroke="black" points="1519.89,-334.648 1518.85,-324.104 1513.08,-332.996 1519.89,-334.648"/>
</g>
<!-- Greene -->
<g id="node24" class="node"><title>Greene</title>
<g id="a_node24"><a xlink:href="Combi.LRrule.Greene.html" xlink:title="Greene">
<polygon fill="#dbc3b6" stroke="#dbc3b6" points="485.5,-540 416.5,-540 416.5,-504 485.5,-504 485.5,-540"/>
<text text-anchor="middle" x="451" y="-517.6" font-family="Times,serif" font-size="18.00">Greene</text>
</a>
</g>
</g>
<!-- plactic -->
<g id="node31" class="node"><title>plactic</title>
<g id="a_node31"><a xlink:href="Combi.LRrule.plactic.html" xlink:title="plactic">
<polygon fill="#dbc3b6" stroke="#dbc3b6" points="486.5,-468 421.5,-468 421.5,-432 486.5,-432 486.5,-468"/>
<text text-anchor="middle" x="454" y="-445.6" font-family="Times,serif" font-size="18.00">plactic</text>
</a>
</g>
</g>
<!-- Greene&#45;&gt;plactic -->
<g id="edge48" class="edge"><title>Greene&#45;&gt;plactic</title>
<path fill="none" stroke="black" d="M451.742,-503.697C452.072,-495.983 452.469,-486.712 452.838,-478.112"/>
<polygon fill="black" stroke="black" points="456.335,-478.245 453.267,-468.104 449.342,-477.945 456.335,-478.245"/>
</g>
<!-- ordcast -->
<g id="node41" class="node"><title>ordcast</title>
<g id="a_node41"><a xlink:href="Combi.SSRcomplements.ordcast.html" xlink:title="ordcast">
<polygon fill="#dbc3b6" stroke="#dbc3b6" points="189.5,-468 118.5,-468 118.5,-432 189.5,-432 189.5,-468"/>
<text text-anchor="middle" x="154" y="-445.6" font-family="Times,serif" font-size="18.00">ordcast</text>
</a>
</g>
</g>
<!-- Greene&#45;&gt;ordcast -->
<g id="edge49" class="edge"><title>Greene&#45;&gt;ordcast</title>
<path fill="none" stroke="black" d="M416.308,-512.834C372.114,-502.43 293.379,-483.89 226,-468 217.372,-465.965 208.162,-463.792 199.311,-461.702"/>
<polygon fill="black" stroke="black" points="200.059,-458.283 189.522,-459.391 198.45,-465.095 200.059,-458.283"/>
</g>
<!-- Greene_inv&#45;&gt;Greene -->
<g id="edge47" class="edge"><title>Greene_inv&#45;&gt;Greene</title>
<path fill="none" stroke="black" d="M473.584,-575.697C470.206,-567.813 466.13,-558.304 462.377,-549.546"/>
<polygon fill="black" stroke="black" points="465.487,-547.917 458.33,-540.104 459.053,-550.675 465.487,-547.917"/>
</g>
<!-- Schensted&#45;&gt;stdtab -->
<g id="edge42" class="edge"><title>Schensted&#45;&gt;stdtab</title>
<path fill="none" stroke="black" d="M1319.95,-359.876C1302.25,-350.415 1280.08,-338.572 1261.22,-328.493"/>
<polygon fill="black" stroke="black" points="1262.73,-325.332 1252.26,-323.706 1259.43,-331.505 1262.73,-325.332"/>
</g>
<!-- Schensted&#45;&gt;subseq -->
<g id="edge43" class="edge"><title>Schensted&#45;&gt;subseq</title>
<path fill="none" stroke="black" d="M1393.83,-359.876C1419.99,-349.17 1453.59,-335.413 1479.97,-324.615"/>
<polygon fill="black" stroke="black" points="1481.4,-327.809 1489.33,-320.782 1478.75,-321.331 1481.4,-327.809"/>
</g>
<!-- Yam_plact -->
<g id="node27" class="node"><title>Yam_plact</title>
<g id="a_node27"><a xlink:href="Combi.LRrule.Yam_plact.html" xlink:title="Yam_plact">
<polygon fill="#dbc3b6" stroke="#dbc3b6" points="621,-756 525,-756 525,-720 621,-720 621,-756"/>
<text text-anchor="middle" x="573" y="-733.6" font-family="Times,serif" font-size="18.00">Yam_plact</text>
</a>
</g>
</g>
<!-- stdplact -->
<g id="node33" class="node"><title>stdplact</title>
<g id="a_node33"><a xlink:href="Combi.LRrule.stdplact.html" xlink:title="stdplact">
<polygon fill="#dbc3b6" stroke="#dbc3b6" points="694,-684 620,-684 620,-648 694,-648 694,-684"/>
<text text-anchor="middle" x="657" y="-661.6" font-family="Times,serif" font-size="18.00">stdplact</text>
</a>
</g>
</g>
<!-- Yam_plact&#45;&gt;stdplact -->
<g id="edge37" class="edge"><title>Yam_plact&#45;&gt;stdplact</title>
<path fill="none" stroke="black" d="M593.764,-719.697C604.241,-710.965 617.111,-700.24 628.5,-690.75"/>
<polygon fill="black" stroke="black" points="631.033,-693.195 636.475,-684.104 626.552,-687.817 631.033,-693.195"/>
</g>
<!-- extract -->
<g id="node28" class="node"><title>extract</title>
<g id="a_node28"><a xlink:href="Combi.LRrule.extract.html" xlink:title="extract">
<polygon fill="#dbc3b6" stroke="#dbc3b6" points="1061.5,-1044 994.5,-1044 994.5,-1008 1061.5,-1008 1061.5,-1044"/>
<text text-anchor="middle" x="1028" y="-1021.6" font-family="Times,serif" font-size="18.00">extract</text>
</a>
</g>
</g>
<!-- implem -->
<g id="node30" class="node"><title>implem</title>
<g id="a_node30"><a xlink:href="Combi.LRrule.implem.html" xlink:title="implem">
<polygon fill="#dbc3b6" stroke="#dbc3b6" points="1063.5,-972 992.5,-972 992.5,-936 1063.5,-936 1063.5,-972"/>
<text text-anchor="middle" x="1028" y="-949.6" font-family="Times,serif" font-size="18.00">implem</text>
</a>
</g>
</g>
<!-- extract&#45;&gt;implem -->
<g id="edge53" class="edge"><title>extract&#45;&gt;implem</title>
<path fill="none" stroke="black" d="M1028,-1007.7C1028,-999.983 1028,-990.712 1028,-982.112"/>
<polygon fill="black" stroke="black" points="1031.5,-982.104 1028,-972.104 1024.5,-982.104 1031.5,-982.104"/>
</g>
<!-- freeSchur -->
<g id="node29" class="node"><title>freeSchur</title>
<g id="a_node29"><a xlink:href="Combi.LRrule.freeSchur.html" xlink:title="freeSchur">
<polygon fill="#dbc3b6" stroke="#dbc3b6" points="840.5,-828 753.5,-828 753.5,-792 840.5,-792 840.5,-828"/>
<text text-anchor="middle" x="797" y="-805.6" font-family="Times,serif" font-size="18.00">freeSchur</text>
</a>
</g>
</g>
<!-- freeSchur&#45;&gt;Yam_plact -->
<g id="edge50" class="edge"><title>freeSchur&#45;&gt;Yam_plact</title>
<path fill="none" stroke="black" d="M753.279,-795.337C718.45,-784.453 669.375,-769.117 631.22,-757.194"/>
<polygon fill="black" stroke="black" points="631.86,-753.727 621.271,-754.085 629.772,-760.408 631.86,-753.727"/>
</g>
<!-- shuffle -->
<g id="node32" class="node"><title>shuffle</title>
<g id="a_node32"><a xlink:href="Combi.LRrule.shuffle.html" xlink:title="shuffle">
<polygon fill="#dbc3b6" stroke="#dbc3b6" points="758.5,-756 693.5,-756 693.5,-720 758.5,-720 758.5,-756"/>
<text text-anchor="middle" x="726" y="-733.6" font-family="Times,serif" font-size="18.00">shuffle</text>
</a>
</g>
</g>
<!-- freeSchur&#45;&gt;shuffle -->
<g id="edge51" class="edge"><title>freeSchur&#45;&gt;shuffle</title>
<path fill="none" stroke="black" d="M779.449,-791.697C770.766,-783.135 760.137,-772.656 750.652,-763.304"/>
<polygon fill="black" stroke="black" points="752.927,-760.633 743.349,-756.104 748.012,-765.617 752.927,-760.633"/>
</g>
<!-- Schur_mpoly -->
<g id="node37" class="node"><title>Schur_mpoly</title>
<g id="a_node37"><a xlink:href="Combi.MPoly.Schur_mpoly.html" xlink:title="Schur_mpoly">
<polygon fill="#dbc3b6" stroke="#dbc3b6" points="915,-612 801,-612 801,-576 915,-576 915,-612"/>
<text text-anchor="middle" x="858" y="-589.6" font-family="Times,serif" font-size="18.00">Schur_mpoly</text>
</a>
</g>
</g>
<!-- freeSchur&#45;&gt;Schur_mpoly -->
<g id="edge52" class="edge"><title>freeSchur&#45;&gt;Schur_mpoly</title>
<path fill="none" stroke="black" d="M801.889,-791.849C812.463,-754.753 837.531,-666.81 850.274,-622.103"/>
<polygon fill="black" stroke="black" points="853.713,-622.809 853.088,-612.232 846.981,-620.89 853.713,-622.809"/>
</g>
<!-- therule -->
<g id="node34" class="node"><title>therule</title>
<g id="a_node34"><a xlink:href="Combi.LRrule.therule.html" xlink:title="therule">
<polygon fill="#dbc3b6" stroke="#dbc3b6" points="1055.5,-900 988.5,-900 988.5,-864 1055.5,-864 1055.5,-900"/>
<text text-anchor="middle" x="1022" y="-877.6" font-family="Times,serif" font-size="18.00">therule</text>
</a>
</g>
</g>
<!-- implem&#45;&gt;therule -->
<g id="edge46" class="edge"><title>implem&#45;&gt;therule</title>
<path fill="none" stroke="black" d="M1026.52,-935.697C1025.86,-927.983 1025.06,-918.712 1024.32,-910.112"/>
<polygon fill="black" stroke="black" points="1027.81,-909.769 1023.47,-900.104 1020.83,-910.367 1027.81,-909.769"/>
</g>
<!-- plactic&#45;&gt;congr -->
<g id="edge44" class="edge"><title>plactic&#45;&gt;congr</title>
<path fill="none" stroke="black" d="M454.247,-431.697C454.357,-423.983 454.49,-414.712 454.613,-406.112"/>
<polygon fill="black" stroke="black" points="458.112,-406.153 454.756,-396.104 451.113,-406.053 458.112,-406.153"/>
</g>
<!-- plactic&#45;&gt;Schensted -->
<g id="edge45" class="edge"><title>plactic&#45;&gt;Schensted</title>
<path fill="none" stroke="black" d="M486.612,-439.573C497.749,-436.695 510.337,-433.815 522,-432 671.817,-408.687 1134.42,-387.955 1295.78,-381.259"/>
<polygon fill="black" stroke="black" points="1296.12,-384.748 1305.96,-380.839 1295.83,-377.754 1296.12,-384.748"/>
</g>
<!-- shuffle&#45;&gt;stdplact -->
<g id="edge41" class="edge"><title>shuffle&#45;&gt;stdplact</title>
<path fill="none" stroke="black" d="M708.944,-719.697C700.505,-711.135 690.175,-700.656 680.957,-691.304"/>
<polygon fill="black" stroke="black" points="683.373,-688.769 673.86,-684.104 678.387,-693.683 683.373,-688.769"/>
</g>
<!-- stdplact&#45;&gt;Greene_inv -->
<g id="edge40" class="edge"><title>stdplact&#45;&gt;Greene_inv</title>
<path fill="none" stroke="black" d="M619.675,-650.155C594.582,-640.175 561.15,-626.878 533.399,-615.841"/>
<polygon fill="black" stroke="black" points="534.429,-612.484 523.843,-612.04 531.842,-618.988 534.429,-612.484"/>
</g>
<!-- therule&#45;&gt;skewtab -->
<g id="edge38" class="edge"><title>therule&#45;&gt;skewtab</title>
<path fill="none" stroke="black" d="M1055.8,-865.638C1077.37,-855.832 1105.63,-842.985 1129.33,-832.213"/>
<polygon fill="black" stroke="black" points="1130.85,-835.369 1138.5,-828.044 1127.95,-828.996 1130.85,-835.369"/>
</g>
<!-- therule&#45;&gt;freeSchur -->
<g id="edge39" class="edge"><title>therule&#45;&gt;freeSchur</title>
<path fill="none" stroke="black" d="M988.315,-870.52C951.807,-859.162 893.044,-840.88 850.267,-827.572"/>
<polygon fill="black" stroke="black" points="851.168,-824.187 840.579,-824.558 849.088,-830.871 851.168,-824.187"/>
</g>
<!-- Cauchy -->
<g id="node35" class="node"><title>Cauchy</title>
<g id="a_node35"><a xlink:href="Combi.MPoly.Cauchy.html" xlink:title="Cauchy">
<polygon fill="#dbc3b6" stroke="#dbc3b6" points="416,-1188 344,-1188 344,-1152 416,-1152 416,-1188"/>
<text text-anchor="middle" x="380" y="-1165.6" font-family="Times,serif" font-size="18.00">Cauchy</text>
</a>
</g>
</g>
<!-- homogsym -->
<g id="node39" class="node"><title>homogsym</title>
<g id="a_node39"><a xlink:href="Combi.MPoly.homogsym.html" xlink:title="homogsym">
<polygon fill="#dbc3b6" stroke="#dbc3b6" points="436,-1116 338,-1116 338,-1080 436,-1080 436,-1116"/>
<text text-anchor="middle" x="387" y="-1093.6" font-family="Times,serif" font-size="18.00">homogsym</text>
</a>
</g>
</g>
<!-- Cauchy&#45;&gt;homogsym -->
<g id="edge10" class="edge"><title>Cauchy&#45;&gt;homogsym</title>
<path fill="none" stroke="black" d="M381.73,-1151.7C382.502,-1143.98 383.429,-1134.71 384.289,-1126.11"/>
<polygon fill="black" stroke="black" points="387.777,-1126.4 385.29,-1116.1 380.812,-1125.71 387.777,-1126.4"/>
</g>
<!-- Schur_altdef -->
<g id="node36" class="node"><title>Schur_altdef</title>
<g id="a_node36"><a xlink:href="Combi.MPoly.Schur_altdef.html" xlink:title="Schur_altdef">
<polygon fill="#dbc3b6" stroke="#dbc3b6" points="920,-972 810,-972 810,-936 920,-936 920,-972"/>
<text text-anchor="middle" x="865" y="-949.6" font-family="Times,serif" font-size="18.00">Schur_altdef</text>
</a>
</g>
</g>
<!-- Schur_altdef&#45;&gt;unitriginv -->
<g id="edge3" class="edge"><title>Schur_altdef&#45;&gt;unitriginv</title>
<path fill="none" stroke="black" d="M865.742,-935.697C866.072,-927.983 866.469,-918.712 866.838,-910.112"/>
<polygon fill="black" stroke="black" points="870.335,-910.245 867.267,-900.104 863.342,-909.945 870.335,-910.245"/>
</g>
<!-- Schur_altdef&#45;&gt;therule -->
<g id="edge4" class="edge"><title>Schur_altdef&#45;&gt;therule</title>
<path fill="none" stroke="black" d="M903.407,-935.876C926.226,-925.702 955.224,-912.773 978.833,-902.246"/>
<polygon fill="black" stroke="black" points="980.547,-905.315 988.255,-898.046 977.696,-898.921 980.547,-905.315"/>
</g>
<!-- Schur_mpoly&#45;&gt;stdtab -->
<g id="edge5" class="edge"><title>Schur_mpoly&#45;&gt;stdtab</title>
<path fill="none" stroke="black" d="M875.336,-575.904C916.796,-535.512 1025.84,-432.158 1128,-360 1144.65,-348.24 1164.1,-336.827 1180.9,-327.624"/>
<polygon fill="black" stroke="black" points="1182.79,-330.581 1189.93,-322.749 1179.47,-324.422 1182.79,-330.581"/>
</g>
<!-- antisym -->
<g id="node38" class="node"><title>antisym</title>
<g id="a_node38"><a xlink:href="Combi.MPoly.antisym.html" xlink:title="antisym">
<polygon fill="#dbc3b6" stroke="#dbc3b6" points="769,-540 695,-540 695,-504 769,-504 769,-540"/>
<text text-anchor="middle" x="732" y="-517.6" font-family="Times,serif" font-size="18.00">antisym</text>
</a>
</g>
</g>
<!-- Schur_mpoly&#45;&gt;antisym -->
<g id="edge6" class="edge"><title>Schur_mpoly&#45;&gt;antisym</title>
<path fill="none" stroke="black" d="M827.177,-575.876C810.55,-566.639 789.835,-555.131 771.981,-545.212"/>
<polygon fill="black" stroke="black" points="773.383,-541.987 762.942,-540.19 769.983,-548.106 773.383,-541.987"/>
</g>
<!-- presentSn -->
<g id="node49" class="node"><title>presentSn</title>
<g id="a_node49"><a xlink:href="Combi.SymGroup.presentSn.html" xlink:title="presentSn">
<polygon fill="#dbc3b6" stroke="#dbc3b6" points="647.5,-468 558.5,-468 558.5,-432 647.5,-432 647.5,-468"/>
<text text-anchor="middle" x="603" y="-445.6" font-family="Times,serif" font-size="18.00">presentSn</text>
</a>
</g>
</g>
<!-- antisym&#45;&gt;presentSn -->
<g id="edge11" class="edge"><title>antisym&#45;&gt;presentSn</title>
<path fill="none" stroke="black" d="M700.443,-503.876C683.342,-494.596 662.018,-483.025 643.681,-473.075"/>
<polygon fill="black" stroke="black" points="645.137,-469.883 634.678,-468.19 641.798,-476.035 645.137,-469.883"/>
</g>
<!-- sympoly -->
<g id="node40" class="node"><title>sympoly</title>
<g id="a_node40"><a xlink:href="Combi.MPoly.sympoly.html" xlink:title="sympoly">
<polygon fill="#dbc3b6" stroke="#dbc3b6" points="426,-1044 348,-1044 348,-1008 426,-1008 426,-1044"/>
<text text-anchor="middle" x="387" y="-1021.6" font-family="Times,serif" font-size="18.00">sympoly</text>
</a>
</g>
</g>
<!-- homogsym&#45;&gt;sympoly -->
<g id="edge9" class="edge"><title>homogsym&#45;&gt;sympoly</title>
<path fill="none" stroke="black" d="M387,-1079.7C387,-1071.98 387,-1062.71 387,-1054.11"/>
<polygon fill="black" stroke="black" points="390.5,-1054.1 387,-1044.1 383.5,-1054.1 390.5,-1054.1"/>
</g>
<!-- sympoly&#45;&gt;Schur_altdef -->
<g id="edge7" class="edge"><title>sympoly&#45;&gt;Schur_altdef</title>
<path fill="none" stroke="black" d="M426.117,-1019.27C508.14,-1007.26 698.86,-979.33 799.74,-964.557"/>
<polygon fill="black" stroke="black" points="800.421,-967.995 809.808,-963.082 799.406,-961.068 800.421,-967.995"/>
</g>
<!-- permcent -->
<g id="node48" class="node"><title>permcent</title>
<g id="a_node48"><a xlink:href="Combi.SymGroup.permcent.html" xlink:title="permcent">
<polygon fill="#dbc3b6" stroke="#dbc3b6" points="347,-972 263,-972 263,-936 347,-936 347,-972"/>
<text text-anchor="middle" x="305" y="-949.6" font-family="Times,serif" font-size="18.00">permcent</text>
</a>
</g>
</g>
<!-- sympoly&#45;&gt;permcent -->
<g id="edge8" class="edge"><title>sympoly&#45;&gt;permcent</title>
<path fill="none" stroke="black" d="M366.73,-1007.7C356.502,-998.965 343.939,-988.24 332.822,-978.75"/>
<polygon fill="black" stroke="black" points="334.915,-975.935 325.037,-972.104 330.37,-981.259 334.915,-975.935"/>
</g>
<!-- ordcast&#45;&gt;tools -->
<g id="edge36" class="edge"><title>ordcast&#45;&gt;tools</title>
<path fill="none" stroke="black" d="M118.282,-434.817C72.7891,-414.121 0,-371.006 0,-307 0,-307 0,-307 0,-161 0,-109.841 28.3812,-97.029 73,-72 131.358,-39.2639 332.161,-25.2672 415.886,-20.759"/>
<polygon fill="black" stroke="black" points="416.162,-24.2494 425.966,-20.2319 415.796,-17.259 416.162,-24.2494"/>
</g>
<!-- sorted&#45;&gt;tools -->
<g id="edge35" class="edge"><title>sorted&#45;&gt;tools</title>
<path fill="none" stroke="black" d="M1263.88,-79.864C1252.67,-76.9008 1239.85,-73.8928 1228,-72 947.074,-27.1299 602.904,-20.22 490.461,-19.1776"/>
<polygon fill="black" stroke="black" points="490.341,-15.6766 480.313,-19.094 490.284,-22.6764 490.341,-15.6766"/>
</g>
<!-- Frobenius_char -->
<g id="node45" class="node"><title>Frobenius_char</title>
<g id="a_node45"><a xlink:href="Combi.SymGroup.Frobenius_char.html" xlink:title="Frobenius_char">
<polygon fill="#dbc3b6" stroke="#dbc3b6" points="369.5,-1260 238.5,-1260 238.5,-1224 369.5,-1224 369.5,-1260"/>
<text text-anchor="middle" x="304" y="-1237.6" font-family="Times,serif" font-size="18.00">Frobenius_char</text>
</a>
</g>
</g>
<!-- Frobenius_char&#45;&gt;Cauchy -->
<g id="edge18" class="edge"><title>Frobenius_char&#45;&gt;Cauchy</title>
<path fill="none" stroke="black" d="M322.787,-1223.7C332.174,-1215.05 343.684,-1204.45 353.913,-1195.03"/>
<polygon fill="black" stroke="black" points="356.445,-1197.45 361.43,-1188.1 351.703,-1192.3 356.445,-1197.45"/>
</g>
<!-- towerSn -->
<g id="node51" class="node"><title>towerSn</title>
<g id="a_node51"><a xlink:href="Combi.SymGroup.towerSn.html" xlink:title="towerSn">
<polygon fill="#dbc3b6" stroke="#dbc3b6" points="268.5,-1044 189.5,-1044 189.5,-1008 268.5,-1008 268.5,-1044"/>
<text text-anchor="middle" x="229" y="-1021.6" font-family="Times,serif" font-size="18.00">towerSn</text>
</a>
</g>
</g>
<!-- Frobenius_char&#45;&gt;towerSn -->
<g id="edge19" class="edge"><title>Frobenius_char&#45;&gt;towerSn</title>
<path fill="none" stroke="black" d="M297.989,-1223.85C284.961,-1186.68 254.037,-1098.44 238.4,-1053.82"/>
<polygon fill="black" stroke="black" points="241.65,-1052.51 235.039,-1044.23 235.044,-1054.83 241.65,-1052.51"/>
</g>
<!-- cycles&#45;&gt;permcomp -->
<g id="edge23" class="edge"><title>cycles&#45;&gt;permcomp</title>
<path fill="none" stroke="black" d="M334.003,-228.353C411.228,-216.777 613.108,-186.517 712.72,-171.586"/>
<polygon fill="black" stroke="black" points="713.531,-175.004 722.901,-170.06 712.493,-168.081 713.531,-175.004"/>
</g>
<!-- cycles&#45;&gt;tools -->
<g id="edge24" class="edge"><title>cycles&#45;&gt;tools</title>
<path fill="none" stroke="black" d="M314.861,-215.921C327.321,-197.991 347.501,-168.988 365,-144 389.105,-109.58 417.055,-69.9211 434.873,-44.6701"/>
<polygon fill="black" stroke="black" points="437.823,-46.5599 440.73,-36.3716 432.104,-42.5234 437.823,-46.5599"/>
</g>
<!-- cycletype -->
<g id="node47" class="node"><title>cycletype</title>
<g id="a_node47"><a xlink:href="Combi.SymGroup.cycletype.html" xlink:title="cycletype">
<polygon fill="#dbc3b6" stroke="#dbc3b6" points="348,-468 262,-468 262,-432 348,-432 348,-468"/>
<text text-anchor="middle" x="305" y="-445.6" font-family="Times,serif" font-size="18.00">cycletype</text>
</a>
</g>
</g>
<!-- cycletype&#45;&gt;fibered_set -->
<g id="edge20" class="edge"><title>cycletype&#45;&gt;fibered_set</title>
<path fill="none" stroke="black" d="M304.753,-431.697C304.643,-423.983 304.51,-414.712 304.387,-406.112"/>
<polygon fill="black" stroke="black" points="307.887,-406.053 304.244,-396.104 300.888,-406.153 307.887,-406.053"/>
</g>
<!-- cycletype&#45;&gt;partition -->
<g id="edge21" class="edge"><title>cycletype&#45;&gt;partition</title>
<path fill="none" stroke="black" d="M348.027,-439.185C391.571,-429.066 460.74,-412.484 520,-396 728.027,-338.134 779.731,-321.985 984,-252 1049.16,-229.677 1123.35,-201.335 1171.1,-182.707"/>
<polygon fill="black" stroke="black" points="1172.54,-185.901 1180.58,-179 1169.99,-179.382 1172.54,-185.901"/>
</g>
<!-- cycletype&#45;&gt;cycles -->
<g id="edge22" class="edge"><title>cycletype&#45;&gt;cycles</title>
<path fill="none" stroke="black" d="M261.715,-433.153C245.294,-424.777 228.32,-412.691 219,-396 192.249,-348.091 240.699,-290.908 274.461,-259.205"/>
<polygon fill="black" stroke="black" points="277.229,-261.418 282.252,-252.09 272.508,-256.25 277.229,-261.418"/>
</g>
<!-- permcent&#45;&gt;cycletype -->
<g id="edge17" class="edge"><title>permcent&#45;&gt;cycletype</title>
<path fill="none" stroke="black" d="M305,-935.951C305,-909.292 305,-856.115 305,-811 305,-811 305,-811 305,-593 305,-552.996 305,-506.653 305,-478.08"/>
<polygon fill="black" stroke="black" points="308.5,-478.049 305,-468.049 301.5,-478.049 308.5,-478.049"/>
</g>
<!-- presentSn&#45;&gt;congr -->
<g id="edge16" class="edge"><title>presentSn&#45;&gt;congr</title>
<path fill="none" stroke="black" d="M566.795,-431.876C544.781,-421.464 516.666,-408.166 494.138,-397.511"/>
<polygon fill="black" stroke="black" points="495.396,-394.234 484.86,-393.123 492.403,-400.562 495.396,-394.234"/>
</g>
<!-- reprSn -->
<g id="node50" class="node"><title>reprSn</title>
<g id="a_node50"><a xlink:href="Combi.SymGroup.reprSn.html" xlink:title="reprSn">
<polygon fill="#dbc3b6" stroke="#dbc3b6" points="622.5,-540 557.5,-540 557.5,-504 622.5,-504 622.5,-540"/>
<text text-anchor="middle" x="590" y="-517.6" font-family="Times,serif" font-size="18.00">reprSn</text>
</a>
</g>
</g>
<!-- reprSn&#45;&gt;cycletype -->
<g id="edge14" class="edge"><title>reprSn&#45;&gt;cycletype</title>
<path fill="none" stroke="black" d="M557.359,-512.951C545.867,-510.119 532.861,-506.916 521,-504 465.342,-490.315 401.608,-474.681 357.876,-463.959"/>
<polygon fill="black" stroke="black" points="358.58,-460.528 348.034,-461.547 356.913,-467.327 358.58,-460.528"/>
</g>
<!-- reprSn&#45;&gt;presentSn -->
<g id="edge15" class="edge"><title>reprSn&#45;&gt;presentSn</title>
<path fill="none" stroke="black" d="M593.213,-503.697C594.646,-495.983 596.368,-486.712 597.965,-478.112"/>
<polygon fill="black" stroke="black" points="601.439,-478.575 599.823,-468.104 594.556,-477.297 601.439,-478.575"/>
</g>
<!-- towerSn&#45;&gt;ordcast -->
<g id="edge12" class="edge"><title>towerSn&#45;&gt;ordcast</title>
<path fill="none" stroke="black" d="M212.726,-1007.73C190.668,-982.446 154,-932.905 154,-883 154,-883 154,-883 154,-593 154,-552.996 154,-506.653 154,-478.08"/>
<polygon fill="black" stroke="black" points="157.5,-478.049 154,-468.049 150.5,-478.049 157.5,-478.049"/>
</g>
<!-- towerSn&#45;&gt;permcent -->
<g id="edge13" class="edge"><title>towerSn&#45;&gt;permcent</title>
<path fill="none" stroke="black" d="M247.787,-1007.7C257.174,-999.05 268.684,-988.449 278.913,-979.027"/>
<polygon fill="black" stroke="black" points="281.445,-981.454 286.43,-972.104 276.703,-976.305 281.445,-981.454"/>
</g>
</g>
</svg>
