<?xml version="1.0" encoding="UTF-8" standalone="no"?>
<!DOCTYPE svg PUBLIC "-//W3C//DTD SVG 1.1//EN"
 "http://www.w3.org/Graphics/SVG/1.1/DTD/svg11.dtd">
<!-- Generated by graphviz version 2.38.0 (20140413.2041)
 -->
<!-- Title: depend Pages: 1 -->
<svg width="2269pt" height="1124pt"
 viewBox="0.00 0.00 2269.00 1124.00" xmlns="http://www.w3.org/2000/svg" xmlns:xlink="http://www.w3.org/1999/xlink">
<g id="graph0" class="graph" transform="scale(1 1) rotate(0) translate(4 1120)">
<title>depend</title>
<!-- Ccpo -->
<g id="node1" class="node"><title>Ccpo</title>
<g id="a_node1"><a xlink:href="3rdparty.ALEA.Ccpo.html" xlink:title="Ccpo">
<polygon fill="#dbc3b6" stroke="#dbc3b6" points="182,-324 126,-324 126,-288 182,-288 182,-324"/>
<text text-anchor="middle" x="154" y="-301.6" font-family="Times,serif" font-size="18.00">Ccpo</text>
</a>
</g>
</g>
<!-- Misc -->
<g id="node2" class="node"><title>Misc</title>
<g id="a_node2"><a xlink:href="3rdparty.ALEA.Misc.html" xlink:title="Misc">
<polygon fill="#dbc3b6" stroke="#dbc3b6" points="54,-324 0,-324 0,-288 54,-288 54,-324"/>
<text text-anchor="middle" x="27" y="-301.6" font-family="Times,serif" font-size="18.00">Misc</text>
</a>
</g>
</g>
<!-- combclass -->
<g id="node3" class="node"><title>combclass</title>
<g id="a_node3"><a xlink:href="Combi.Basic.combclass.html" xlink:title="combclass">
<polygon fill="#dbc3b6" stroke="#dbc3b6" points="1606,-108 1514,-108 1514,-72 1606,-72 1606,-108"/>
<text text-anchor="middle" x="1560" y="-85.6" font-family="Times,serif" font-size="18.00">combclass</text>
</a>
</g>
</g>
<!-- tools -->
<g id="node42" class="node"><title>tools</title>
<g id="a_node42"><a xlink:href="Combi.SSRcomplements.tools.html" xlink:title="tools">
<polygon fill="#dbc3b6" stroke="#dbc3b6" points="1897,-36 1843,-36 1843,-0 1897,-0 1897,-36"/>
<text text-anchor="middle" x="1870" y="-13.6" font-family="Times,serif" font-size="18.00">tools</text>
</a>
</g>
</g>
<!-- combclass&#45;&gt;tools -->
<g id="edge20" class="edge"><title>combclass&#45;&gt;tools</title>
<path fill="none" stroke="black" d="M1606.08,-78.5959C1667.84,-64.6487 1776.27,-40.1648 1833.01,-27.3521"/>
<polygon fill="black" stroke="black" points="1834,-30.7174 1842.98,-25.1007 1832.46,-23.8893 1834,-30.7174"/>
</g>
<!-- congr -->
<g id="node4" class="node"><title>congr</title>
<g id="a_node4"><a xlink:href="Combi.Basic.congr.html" xlink:title="congr">
<polygon fill="#dbc3b6" stroke="#dbc3b6" points="1830.5,-468 1771.5,-468 1771.5,-432 1830.5,-432 1830.5,-468"/>
<text text-anchor="middle" x="1801" y="-445.6" font-family="Times,serif" font-size="18.00">congr</text>
</a>
</g>
</g>
<!-- permuted -->
<g id="node11" class="node"><title>permuted</title>
<g id="a_node11"><a xlink:href="Combi.Combi.permuted.html" xlink:title="permuted">
<polygon fill="#dbc3b6" stroke="#dbc3b6" points="1842,-396 1756,-396 1756,-360 1842,-360 1842,-396"/>
<text text-anchor="middle" x="1799" y="-373.6" font-family="Times,serif" font-size="18.00">permuted</text>
</a>
</g>
</g>
<!-- congr&#45;&gt;permuted -->
<g id="edge18" class="edge"><title>congr&#45;&gt;permuted</title>
<path fill="none" stroke="black" d="M1800.51,-431.697C1800.29,-423.983 1800.02,-414.712 1799.77,-406.112"/>
<polygon fill="black" stroke="black" points="1803.27,-406 1799.49,-396.104 1796.28,-406.2 1803.27,-406"/>
</g>
<!-- vectNK -->
<g id="node17" class="node"><title>vectNK</title>
<g id="a_node17"><a xlink:href="Combi.Combi.vectNK.html" xlink:title="vectNK">
<polygon fill="#dbc3b6" stroke="#dbc3b6" points="2152,-180 2078,-180 2078,-144 2152,-144 2152,-180"/>
<text text-anchor="middle" x="2115" y="-157.6" font-family="Times,serif" font-size="18.00">vectNK</text>
</a>
</g>
</g>
<!-- congr&#45;&gt;vectNK -->
<g id="edge19" class="edge"><title>congr&#45;&gt;vectNK</title>
<path fill="none" stroke="black" d="M1830.88,-439.119C1878.28,-422.163 1971.32,-383.5 2030,-324 2068.62,-284.842 2094.01,-224.536 2106.31,-189.921"/>
<polygon fill="black" stroke="black" points="2109.76,-190.649 2109.71,-180.055 2103.14,-188.37 2109.76,-190.649"/>
</g>
<!-- ordtype -->
<g id="node5" class="node"><title>ordtype</title>
<g id="a_node5"><a xlink:href="Combi.Basic.ordtype.html" xlink:title="ordtype">
<polygon fill="#dbc3b6" stroke="#dbc3b6" points="1830,-108 1756,-108 1756,-72 1830,-72 1830,-108"/>
<text text-anchor="middle" x="1793" y="-85.6" font-family="Times,serif" font-size="18.00">ordtype</text>
</a>
</g>
</g>
<!-- ordtype&#45;&gt;tools -->
<g id="edge17" class="edge"><title>ordtype&#45;&gt;tools</title>
<path fill="none" stroke="black" d="M1812.03,-71.6966C1821.54,-63.0503 1833.21,-52.4486 1843.57,-43.027"/>
<polygon fill="black" stroke="black" points="1846.14,-45.4209 1851.19,-36.1043 1841.43,-40.2413 1846.14,-45.4209"/>
</g>
<!-- Yamanouchi -->
<g id="node6" class="node"><title>Yamanouchi</title>
<g id="a_node6"><a xlink:href="Combi.Combi.Yamanouchi.html" xlink:title="Yamanouchi">
<polygon fill="#dbc3b6" stroke="#dbc3b6" points="1108,-252 998,-252 998,-216 1108,-216 1108,-252"/>
<text text-anchor="middle" x="1053" y="-229.6" font-family="Times,serif" font-size="18.00">Yamanouchi</text>
</a>
</g>
</g>
<!-- partition -->
<g id="node10" class="node"><title>partition</title>
<g id="a_node10"><a xlink:href="Combi.Combi.partition.html" xlink:title="partition">
<polygon fill="#dbc3b6" stroke="#dbc3b6" points="1372,-180 1292,-180 1292,-144 1372,-144 1372,-180"/>
<text text-anchor="middle" x="1332" y="-157.6" font-family="Times,serif" font-size="18.00">partition</text>
</a>
</g>
</g>
<!-- Yamanouchi&#45;&gt;partition -->
<g id="edge52" class="edge"><title>Yamanouchi&#45;&gt;partition</title>
<path fill="none" stroke="black" d="M1108.12,-219.17C1158.78,-206.459 1233.23,-187.781 1282.15,-175.506"/>
<polygon fill="black" stroke="black" points="1283.04,-178.893 1291.88,-173.065 1281.33,-172.104 1283.04,-178.893"/>
</g>
<!-- composition -->
<g id="node7" class="node"><title>composition</title>
<g id="a_node7"><a xlink:href="Combi.Combi.composition.html" xlink:title="composition">
<polygon fill="#dbc3b6" stroke="#dbc3b6" points="1430,-252 1322,-252 1322,-216 1430,-216 1430,-252"/>
<text text-anchor="middle" x="1376" y="-229.6" font-family="Times,serif" font-size="18.00">composition</text>
</a>
</g>
</g>
<!-- composition&#45;&gt;partition -->
<g id="edge71" class="edge"><title>composition&#45;&gt;partition</title>
<path fill="none" stroke="black" d="M1365.12,-215.697C1360.01,-207.559 1353.8,-197.689 1348.16,-188.701"/>
<polygon fill="black" stroke="black" points="1351.04,-186.708 1342.75,-180.104 1345.11,-190.433 1351.04,-186.708"/>
</g>
<!-- fibered_set -->
<g id="node8" class="node"><title>fibered_set</title>
<g id="a_node8"><a xlink:href="Combi.Combi.fibered_set.html" xlink:title="fibered_set">
<polygon fill="#dbc3b6" stroke="#dbc3b6" points="2006,-252 1908,-252 1908,-216 2006,-216 2006,-252"/>
<text text-anchor="middle" x="1957" y="-229.6" font-family="Times,serif" font-size="18.00">fibered_set</text>
</a>
</g>
</g>
<!-- multinomial -->
<g id="node9" class="node"><title>multinomial</title>
<g id="a_node9"><a xlink:href="Combi.Combi.multinomial.html" xlink:title="multinomial">
<polygon fill="#dbc3b6" stroke="#dbc3b6" points="2006,-180 1902,-180 1902,-144 2006,-144 2006,-180"/>
<text text-anchor="middle" x="1954" y="-157.6" font-family="Times,serif" font-size="18.00">multinomial</text>
</a>
</g>
</g>
<!-- multinomial&#45;&gt;tools -->
<g id="edge64" class="edge"><title>multinomial&#45;&gt;tools</title>
<path fill="none" stroke="black" d="M1943.87,-143.871C1929.3,-119.244 1902.32,-73.6377 1885.31,-44.8845"/>
<polygon fill="black" stroke="black" points="1888.27,-43.0141 1880.17,-36.1893 1882.25,-46.5781 1888.27,-43.0141"/>
</g>
<!-- partition&#45;&gt;combclass -->
<g id="edge68" class="edge"><title>partition&#45;&gt;combclass</title>
<path fill="none" stroke="black" d="M1372.24,-148.647C1408.85,-137.406 1463.25,-120.704 1504.08,-108.168"/>
<polygon fill="black" stroke="black" points="1505.36,-111.438 1513.89,-105.157 1503.3,-104.746 1505.36,-111.438"/>
</g>
<!-- partition&#45;&gt;ordtype -->
<g id="edge69" class="edge"><title>partition&#45;&gt;ordtype</title>
<path fill="none" stroke="black" d="M1372.1,-151.374C1383.65,-148.78 1396.29,-146.112 1408,-144 1529.04,-122.171 1672.91,-104.557 1745.72,-96.2228"/>
<polygon fill="black" stroke="black" points="1746.4,-99.6686 1755.94,-95.0612 1745.61,-92.7134 1746.4,-99.6686"/>
</g>
<!-- sorted -->
<g id="node41" class="node"><title>sorted</title>
<g id="a_node41"><a xlink:href="Combi.SSRcomplements.sorted.html" xlink:title="sorted">
<polygon fill="#dbc3b6" stroke="#dbc3b6" points="1363,-108 1301,-108 1301,-72 1363,-72 1363,-108"/>
<text text-anchor="middle" x="1332" y="-85.6" font-family="Times,serif" font-size="18.00">sorted</text>
</a>
</g>
</g>
<!-- partition&#45;&gt;sorted -->
<g id="edge70" class="edge"><title>partition&#45;&gt;sorted</title>
<path fill="none" stroke="black" d="M1332,-143.697C1332,-135.983 1332,-126.712 1332,-118.112"/>
<polygon fill="black" stroke="black" points="1335.5,-118.104 1332,-108.104 1328.5,-118.104 1335.5,-118.104"/>
</g>
<!-- permuted&#45;&gt;composition -->
<g id="edge65" class="edge"><title>permuted&#45;&gt;composition</title>
<path fill="none" stroke="black" d="M1755.72,-362.471C1679.89,-337.015 1522.88,-284.307 1436.4,-255.276"/>
<polygon fill="black" stroke="black" points="1437.32,-251.892 1426.72,-252.028 1435.09,-258.528 1437.32,-251.892"/>
</g>
<!-- permuted&#45;&gt;multinomial -->
<g id="edge66" class="edge"><title>permuted&#45;&gt;multinomial</title>
<path fill="none" stroke="black" d="M1803.33,-359.72C1811.93,-328.17 1833.73,-260.403 1872,-216 1882.44,-203.887 1896.32,-193.505 1909.69,-185.222"/>
<polygon fill="black" stroke="black" points="1911.54,-188.194 1918.36,-180.085 1907.97,-182.172 1911.54,-188.194"/>
</g>
<!-- cycletype -->
<g id="node45" class="node"><title>cycletype</title>
<g id="a_node45"><a xlink:href="Combi.SymGroup.cycletype.html" xlink:title="cycletype">
<polygon fill="#dbc3b6" stroke="#dbc3b6" points="1994,-324 1908,-324 1908,-288 1994,-288 1994,-324"/>
<text text-anchor="middle" x="1951" y="-301.6" font-family="Times,serif" font-size="18.00">cycletype</text>
</a>
</g>
</g>
<!-- permuted&#45;&gt;cycletype -->
<g id="edge67" class="edge"><title>permuted&#45;&gt;cycletype</title>
<path fill="none" stroke="black" d="M1836.18,-359.876C1856.87,-350.349 1882.8,-338.407 1904.78,-328.283"/>
<polygon fill="black" stroke="black" points="1906.32,-331.43 1913.94,-324.068 1903.39,-325.072 1906.32,-331.43"/>
</g>
<!-- skewtab -->
<g id="node12" class="node"><title>skewtab</title>
<g id="a_node12"><a xlink:href="Combi.Combi.skewtab.html" xlink:title="skewtab">
<polygon fill="#dbc3b6" stroke="#dbc3b6" points="1284.5,-900 1207.5,-900 1207.5,-864 1284.5,-864 1284.5,-900"/>
<text text-anchor="middle" x="1246" y="-877.6" font-family="Times,serif" font-size="18.00">skewtab</text>
</a>
</g>
</g>
<!-- stdtab -->
<g id="node14" class="node"><title>stdtab</title>
<g id="a_node14"><a xlink:href="Combi.Combi.stdtab.html" xlink:title="stdtab">
<polygon fill="#dbc3b6" stroke="#dbc3b6" points="1242,-324 1180,-324 1180,-288 1242,-288 1242,-324"/>
<text text-anchor="middle" x="1211" y="-301.6" font-family="Times,serif" font-size="18.00">stdtab</text>
</a>
</g>
</g>
<!-- skewtab&#45;&gt;stdtab -->
<g id="edge63" class="edge"><title>skewtab&#45;&gt;stdtab</title>
<path fill="none" stroke="black" d="M1207.2,-881.38C1120.59,-879.994 919,-863.404 919,-739 919,-739 919,-739 919,-449 919,-338.944 1088.83,-314.164 1169.45,-308.601"/>
<polygon fill="black" stroke="black" points="1169.99,-312.075 1179.75,-307.962 1169.55,-305.089 1169.99,-312.075"/>
</g>
<!-- std -->
<g id="node13" class="node"><title>std</title>
<g id="a_node13"><a xlink:href="Combi.Combi.std.html" xlink:title="std">
<polygon fill="#dbc3b6" stroke="#dbc3b6" points="1690,-252 1636,-252 1636,-216 1690,-216 1690,-252"/>
<text text-anchor="middle" x="1663" y="-229.6" font-family="Times,serif" font-size="18.00">std</text>
</a>
</g>
</g>
<!-- std&#45;&gt;combclass -->
<g id="edge60" class="edge"><title>std&#45;&gt;combclass</title>
<path fill="none" stroke="black" d="M1650.58,-215.871C1632.63,-191.137 1599.34,-145.242 1578.51,-116.512"/>
<polygon fill="black" stroke="black" points="1581.17,-114.229 1572.47,-108.189 1575.51,-118.339 1581.17,-114.229"/>
</g>
<!-- std&#45;&gt;ordtype -->
<g id="edge61" class="edge"><title>std&#45;&gt;ordtype</title>
<path fill="none" stroke="black" d="M1678.68,-215.871C1701.52,-190.924 1744.07,-144.45 1770.32,-115.773"/>
<polygon fill="black" stroke="black" points="1773.09,-117.929 1777.26,-108.189 1767.93,-113.202 1773.09,-117.929"/>
</g>
<!-- permcomp -->
<g id="node39" class="node"><title>permcomp</title>
<g id="a_node39"><a xlink:href="Combi.SSRcomplements.permcomp.html" xlink:title="permcomp">
<polygon fill="#dbc3b6" stroke="#dbc3b6" points="1538,-180 1444,-180 1444,-144 1538,-144 1538,-180"/>
<text text-anchor="middle" x="1491" y="-157.6" font-family="Times,serif" font-size="18.00">permcomp</text>
</a>
</g>
</g>
<!-- std&#45;&gt;permcomp -->
<g id="edge62" class="edge"><title>std&#45;&gt;permcomp</title>
<path fill="none" stroke="black" d="M1635.75,-221.908C1610.68,-211.707 1572.86,-196.314 1542.16,-183.822"/>
<polygon fill="black" stroke="black" points="1543.47,-180.575 1532.89,-180.047 1540.83,-187.058 1543.47,-180.575"/>
</g>
<!-- stdtab&#45;&gt;Yamanouchi -->
<g id="edge57" class="edge"><title>stdtab&#45;&gt;Yamanouchi</title>
<path fill="none" stroke="black" d="M1179.78,-291.17C1157.2,-281.163 1126.26,-267.458 1100.6,-256.09"/>
<polygon fill="black" stroke="black" points="1101.98,-252.87 1091.41,-252.019 1099.14,-259.27 1101.98,-252.87"/>
</g>
<!-- stdtab&#45;&gt;std -->
<g id="edge58" class="edge"><title>stdtab&#45;&gt;std</title>
<path fill="none" stroke="black" d="M1242.24,-302.117C1308.57,-295.694 1468.22,-278.642 1600,-252 1608.54,-250.273 1617.63,-248.05 1626.18,-245.784"/>
<polygon fill="black" stroke="black" points="1627.17,-249.143 1635.89,-243.132 1625.32,-242.39 1627.17,-249.143"/>
</g>
<!-- tableau -->
<g id="node16" class="node"><title>tableau</title>
<g id="a_node16"><a xlink:href="Combi.Combi.tableau.html" xlink:title="tableau">
<polygon fill="#dbc3b6" stroke="#dbc3b6" points="1250,-252 1180,-252 1180,-216 1250,-216 1250,-252"/>
<text text-anchor="middle" x="1215" y="-229.6" font-family="Times,serif" font-size="18.00">tableau</text>
</a>
</g>
</g>
<!-- stdtab&#45;&gt;tableau -->
<g id="edge59" class="edge"><title>stdtab&#45;&gt;tableau</title>
<path fill="none" stroke="black" d="M1211.99,-287.697C1212.43,-279.983 1212.96,-270.712 1213.45,-262.112"/>
<polygon fill="black" stroke="black" points="1216.95,-262.288 1214.02,-252.104 1209.96,-261.888 1216.95,-262.288"/>
</g>
<!-- subseq -->
<g id="node15" class="node"><title>subseq</title>
<g id="a_node15"><a xlink:href="Combi.Combi.subseq.html" xlink:title="subseq">
<polygon fill="#dbc3b6" stroke="#dbc3b6" points="1071.5,-180 1004.5,-180 1004.5,-144 1071.5,-144 1071.5,-180"/>
<text text-anchor="middle" x="1038" y="-157.6" font-family="Times,serif" font-size="18.00">subseq</text>
</a>
</g>
</g>
<!-- subseq&#45;&gt;combclass -->
<g id="edge55" class="edge"><title>subseq&#45;&gt;combclass</title>
<path fill="none" stroke="black" d="M1071.85,-156.461C1159.61,-144.692 1395.21,-113.098 1503.79,-98.5378"/>
<polygon fill="black" stroke="black" points="1504.45,-101.981 1513.89,-97.1831 1503.52,-95.0434 1504.45,-101.981"/>
</g>
<!-- subseq&#45;&gt;sorted -->
<g id="edge56" class="edge"><title>subseq&#45;&gt;sorted</title>
<path fill="none" stroke="black" d="M1071.73,-152.97C1125.94,-140.063 1232.3,-114.739 1290.88,-100.791"/>
<polygon fill="black" stroke="black" points="1291.97,-104.128 1300.89,-98.4074 1290.35,-97.3188 1291.97,-104.128"/>
</g>
<!-- tableau&#45;&gt;partition -->
<g id="edge54" class="edge"><title>tableau&#45;&gt;partition</title>
<path fill="none" stroke="black" d="M1243.62,-215.876C1258.92,-206.724 1277.94,-195.342 1294.42,-185.485"/>
<polygon fill="black" stroke="black" points="1296.48,-188.327 1303.27,-180.19 1292.89,-182.32 1296.48,-188.327"/>
</g>
<!-- vectNK&#45;&gt;tools -->
<g id="edge53" class="edge"><title>vectNK&#45;&gt;tools</title>
<path fill="none" stroke="black" d="M2087.38,-143.924C2057.8,-125.748 2009.39,-96.3147 1967,-72 1947.06,-60.5654 1924.55,-48.2297 1906.24,-38.3388"/>
<polygon fill="black" stroke="black" points="1907.81,-35.2107 1897.34,-33.551 1904.49,-41.3739 1907.81,-35.2107"/>
</g>
<!-- Erdos_Szekeres -->
<g id="node18" class="node"><title>Erdos_Szekeres</title>
<g id="a_node18"><a xlink:href="Combi.Erdos_Szekeres.Erdos_Szekeres.html" xlink:title="Erdos_Szekeres">
<polygon fill="#dbc3b6" stroke="#dbc3b6" points="2161.5,-756 2028.5,-756 2028.5,-720 2161.5,-720 2161.5,-756"/>
<text text-anchor="middle" x="2095" y="-733.6" font-family="Times,serif" font-size="18.00">Erdos_Szekeres</text>
</a>
</g>
</g>
<!-- Greene_inv -->
<g id="node24" class="node"><title>Greene_inv</title>
<g id="a_node24"><a xlink:href="Combi.LRrule.Greene_inv.html" xlink:title="Greene_inv">
<polygon fill="#dbc3b6" stroke="#dbc3b6" points="2113.5,-684 2012.5,-684 2012.5,-648 2113.5,-648 2113.5,-684"/>
<text text-anchor="middle" x="2063" y="-661.6" font-family="Times,serif" font-size="18.00">Greene_inv</text>
</a>
</g>
</g>
<!-- Erdos_Szekeres&#45;&gt;Greene_inv -->
<g id="edge51" class="edge"><title>Erdos_Szekeres&#45;&gt;Greene_inv</title>
<path fill="none" stroke="black" d="M2087.09,-719.697C2083.45,-711.728 2079.05,-702.1 2075.01,-693.264"/>
<polygon fill="black" stroke="black" points="2078.16,-691.744 2070.82,-684.104 2071.79,-694.654 2078.16,-691.744"/>
</g>
<!-- Qmeasure -->
<g id="node19" class="node"><title>Qmeasure</title>
<g id="a_node19"><a xlink:href="Combi.HookFormula.Qmeasure.html" xlink:title="Qmeasure">
<polygon fill="#dbc3b6" stroke="#dbc3b6" points="271.5,-396 182.5,-396 182.5,-360 271.5,-360 271.5,-396"/>
<text text-anchor="middle" x="227" y="-373.6" font-family="Times,serif" font-size="18.00">Qmeasure</text>
</a>
</g>
</g>
<!-- Qmeasure&#45;&gt;Ccpo -->
<g id="edge29" class="edge"><title>Qmeasure&#45;&gt;Ccpo</title>
<path fill="none" stroke="black" d="M208.955,-359.697C199.938,-351.05 188.882,-340.449 179.057,-331.027"/>
<polygon fill="black" stroke="black" points="181.478,-328.499 171.837,-324.104 176.633,-333.552 181.478,-328.499"/>
</g>
<!-- Qmeasure&#45;&gt;Misc -->
<g id="edge30" class="edge"><title>Qmeasure&#45;&gt;Misc</title>
<path fill="none" stroke="black" d="M182.116,-361.291C146.525,-348.834 97.3884,-331.636 64.0237,-319.958"/>
<polygon fill="black" stroke="black" points="64.8027,-316.523 54.2079,-316.523 62.4902,-323.13 64.8027,-316.523"/>
</g>
<!-- rat_coerce -->
<g id="node40" class="node"><title>rat_coerce</title>
<g id="a_node40"><a xlink:href="Combi.SSRcomplements.rat_coerce.html" xlink:title="rat_coerce">
<polygon fill="#dbc3b6" stroke="#dbc3b6" points="348,-324 254,-324 254,-288 348,-288 348,-324"/>
<text text-anchor="middle" x="301" y="-301.6" font-family="Times,serif" font-size="18.00">rat_coerce</text>
</a>
</g>
</g>
<!-- Qmeasure&#45;&gt;rat_coerce -->
<g id="edge31" class="edge"><title>Qmeasure&#45;&gt;rat_coerce</title>
<path fill="none" stroke="black" d="M245.292,-359.697C254.433,-351.05 265.64,-340.449 275.6,-331.027"/>
<polygon fill="black" stroke="black" points="278.059,-333.519 282.918,-324.104 273.248,-328.434 278.059,-333.519"/>
</g>
<!-- RSident -->
<g id="node20" class="node"><title>RSident</title>
<g id="a_node20"><a xlink:href="Combi.HookFormula.RSident.html" xlink:title="RSident">
<polygon fill="#dbc3b6" stroke="#dbc3b6" points="731,-540 655,-540 655,-504 731,-504 731,-540"/>
<text text-anchor="middle" x="693" y="-517.6" font-family="Times,serif" font-size="18.00">RSident</text>
</a>
</g>
</g>
<!-- hook -->
<g id="node21" class="node"><title>hook</title>
<g id="a_node21"><a xlink:href="Combi.HookFormula.hook.html" xlink:title="hook">
<polygon fill="#dbc3b6" stroke="#dbc3b6" points="640,-468 586,-468 586,-432 640,-432 640,-468"/>
<text text-anchor="middle" x="613" y="-445.6" font-family="Times,serif" font-size="18.00">hook</text>
</a>
</g>
</g>
<!-- RSident&#45;&gt;hook -->
<g id="edge27" class="edge"><title>RSident&#45;&gt;hook</title>
<path fill="none" stroke="black" d="M673.225,-503.697C663.246,-494.965 650.989,-484.24 640.143,-474.75"/>
<polygon fill="black" stroke="black" points="642.378,-472.055 632.548,-468.104 637.769,-477.323 642.378,-472.055"/>
</g>
<!-- Schensted -->
<g id="node25" class="node"><title>Schensted</title>
<g id="a_node25"><a xlink:href="Combi.LRrule.Schensted.html" xlink:title="Schensted">
<polygon fill="#dbc3b6" stroke="#dbc3b6" points="1184,-468 1092,-468 1092,-432 1184,-432 1184,-468"/>
<text text-anchor="middle" x="1138" y="-445.6" font-family="Times,serif" font-size="18.00">Schensted</text>
</a>
</g>
</g>
<!-- RSident&#45;&gt;Schensted -->
<g id="edge28" class="edge"><title>RSident&#45;&gt;Schensted</title>
<path fill="none" stroke="black" d="M731.326,-514.971C809.966,-502.601 989.875,-474.301 1081.75,-459.848"/>
<polygon fill="black" stroke="black" points="1082.37,-463.294 1091.71,-458.282 1081.28,-456.379 1082.37,-463.294"/>
</g>
<!-- hook&#45;&gt;subseq -->
<g id="edge23" class="edge"><title>hook&#45;&gt;subseq</title>
<path fill="none" stroke="black" d="M585.629,-439.67C566.27,-431.466 541.748,-417.441 530,-396 522.312,-381.968 520.96,-373.202 530,-360 637.991,-202.294 891.988,-170.813 994.229,-164.548"/>
<polygon fill="black" stroke="black" points="994.425,-168.042 1004.21,-163.988 994.033,-161.053 994.425,-168.042"/>
</g>
<!-- hook&#45;&gt;Qmeasure -->
<g id="edge24" class="edge"><title>hook&#45;&gt;Qmeasure</title>
<path fill="none" stroke="black" d="M585.857,-444.078C522.782,-432.639 365.327,-404.085 281.507,-388.885"/>
<polygon fill="black" stroke="black" points="282.125,-385.44 271.661,-387.099 280.876,-392.327 282.125,-385.44"/>
</g>
<!-- recyama -->
<g id="node22" class="node"><title>recyama</title>
<g id="a_node22"><a xlink:href="Combi.HookFormula.recyama.html" xlink:title="recyama">
<polygon fill="#dbc3b6" stroke="#dbc3b6" points="810,-396 732,-396 732,-360 810,-360 810,-396"/>
<text text-anchor="middle" x="771" y="-373.6" font-family="Times,serif" font-size="18.00">recyama</text>
</a>
</g>
</g>
<!-- hook&#45;&gt;recyama -->
<g id="edge25" class="edge"><title>hook&#45;&gt;recyama</title>
<path fill="none" stroke="black" d="M640.161,-436.967C662.892,-426.896 695.874,-412.284 723.036,-400.25"/>
<polygon fill="black" stroke="black" points="724.649,-403.363 732.374,-396.113 721.813,-396.963 724.649,-403.363"/>
</g>
<!-- bigallpairs -->
<g id="node37" class="node"><title>bigallpairs</title>
<g id="a_node37"><a xlink:href="Combi.SSRcomplements.bigallpairs.html" xlink:title="bigallpairs">
<polygon fill="#dbc3b6" stroke="#dbc3b6" points="660,-396 566,-396 566,-360 660,-360 660,-396"/>
<text text-anchor="middle" x="613" y="-373.6" font-family="Times,serif" font-size="18.00">bigallpairs</text>
</a>
</g>
</g>
<!-- hook&#45;&gt;bigallpairs -->
<g id="edge26" class="edge"><title>hook&#45;&gt;bigallpairs</title>
<path fill="none" stroke="black" d="M613,-431.697C613,-423.983 613,-414.712 613,-406.112"/>
<polygon fill="black" stroke="black" points="616.5,-406.104 613,-396.104 609.5,-406.104 616.5,-406.104"/>
</g>
<!-- recyama&#45;&gt;stdtab -->
<g id="edge21" class="edge"><title>recyama&#45;&gt;stdtab</title>
<path fill="none" stroke="black" d="M810.324,-369.549C826.877,-366.481 846.356,-362.959 864,-360 974.165,-341.522 1104.47,-322.334 1169.59,-312.925"/>
<polygon fill="black" stroke="black" points="1170.45,-316.338 1179.85,-311.447 1169.45,-309.409 1170.45,-316.338"/>
</g>
<!-- recyama&#45;&gt;rat_coerce -->
<g id="edge22" class="edge"><title>recyama&#45;&gt;rat_coerce</title>
<path fill="none" stroke="black" d="M731.822,-367.424C720.322,-364.802 707.694,-362.106 696,-360 576.413,-338.468 435.015,-321.537 358.007,-313.026"/>
<polygon fill="black" stroke="black" points="358.354,-309.544 348.032,-311.931 357.59,-316.502 358.354,-309.544"/>
</g>
<!-- Greene -->
<g id="node23" class="node"><title>Greene</title>
<g id="a_node23"><a xlink:href="Combi.LRrule.Greene.html" xlink:title="Greene">
<polygon fill="#dbc3b6" stroke="#dbc3b6" points="2097.5,-612 2028.5,-612 2028.5,-576 2097.5,-576 2097.5,-612"/>
<text text-anchor="middle" x="2063" y="-589.6" font-family="Times,serif" font-size="18.00">Greene</text>
</a>
</g>
</g>
<!-- plactic -->
<g id="node30" class="node"><title>plactic</title>
<g id="a_node30"><a xlink:href="Combi.LRrule.plactic.html" xlink:title="plactic">
<polygon fill="#dbc3b6" stroke="#dbc3b6" points="1835.5,-540 1770.5,-540 1770.5,-504 1835.5,-504 1835.5,-540"/>
<text text-anchor="middle" x="1803" y="-517.6" font-family="Times,serif" font-size="18.00">plactic</text>
</a>
</g>
</g>
<!-- Greene&#45;&gt;plactic -->
<g id="edge45" class="edge"><title>Greene&#45;&gt;plactic</title>
<path fill="none" stroke="black" d="M2028.47,-583.705C1981.21,-570.979 1896.41,-548.148 1845.36,-534.404"/>
<polygon fill="black" stroke="black" points="1846.18,-531.002 1835.62,-531.782 1844.36,-537.761 1846.18,-531.002"/>
</g>
<!-- ordcast -->
<g id="node38" class="node"><title>ordcast</title>
<g id="a_node38"><a xlink:href="Combi.SSRcomplements.ordcast.html" xlink:title="ordcast">
<polygon fill="#dbc3b6" stroke="#dbc3b6" points="2133.5,-468 2062.5,-468 2062.5,-432 2133.5,-432 2133.5,-468"/>
<text text-anchor="middle" x="2098" y="-445.6" font-family="Times,serif" font-size="18.00">ordcast</text>
</a>
</g>
</g>
<!-- Greene&#45;&gt;ordcast -->
<g id="edge46" class="edge"><title>Greene&#45;&gt;ordcast</title>
<path fill="none" stroke="black" d="M2067.22,-575.871C2073.21,-551.564 2084.24,-506.819 2091.34,-478.013"/>
<polygon fill="black" stroke="black" points="2094.77,-478.736 2093.76,-468.189 2087.97,-477.061 2094.77,-478.736"/>
</g>
<!-- Greene_inv&#45;&gt;Greene -->
<g id="edge44" class="edge"><title>Greene_inv&#45;&gt;Greene</title>
<path fill="none" stroke="black" d="M2063,-647.697C2063,-639.983 2063,-630.712 2063,-622.112"/>
<polygon fill="black" stroke="black" points="2066.5,-622.104 2063,-612.104 2059.5,-622.104 2066.5,-622.104"/>
</g>
<!-- Schensted&#45;&gt;stdtab -->
<g id="edge39" class="edge"><title>Schensted&#45;&gt;stdtab</title>
<path fill="none" stroke="black" d="M1146.81,-431.871C1159.41,-407.35 1182.71,-362.032 1197.5,-333.259"/>
<polygon fill="black" stroke="black" points="1200.7,-334.683 1202.16,-324.189 1194.48,-331.483 1200.7,-334.683"/>
</g>
<!-- Schensted&#45;&gt;subseq -->
<g id="edge40" class="edge"><title>Schensted&#45;&gt;subseq</title>
<path fill="none" stroke="black" d="M1114.17,-431.98C1073.68,-401.402 992.825,-332.769 962,-252 956.295,-237.052 954.598,-230.185 962,-216 969.386,-201.844 982.47,-190.698 995.723,-182.356"/>
<polygon fill="black" stroke="black" points="997.537,-185.349 1004.4,-177.275 994,-179.309 997.537,-185.349"/>
</g>
<!-- Yam_plact -->
<g id="node26" class="node"><title>Yam_plact</title>
<g id="a_node26"><a xlink:href="Combi.LRrule.Yam_plact.html" xlink:title="Yam_plact">
<polygon fill="#dbc3b6" stroke="#dbc3b6" points="1999,-828 1903,-828 1903,-792 1999,-792 1999,-828"/>
<text text-anchor="middle" x="1951" y="-805.6" font-family="Times,serif" font-size="18.00">Yam_plact</text>
</a>
</g>
</g>
<!-- stdplact -->
<g id="node32" class="node"><title>stdplact</title>
<g id="a_node32"><a xlink:href="Combi.LRrule.stdplact.html" xlink:title="stdplact">
<polygon fill="#dbc3b6" stroke="#dbc3b6" points="1956,-756 1882,-756 1882,-720 1956,-720 1956,-756"/>
<text text-anchor="middle" x="1919" y="-733.6" font-family="Times,serif" font-size="18.00">stdplact</text>
</a>
</g>
</g>
<!-- Yam_plact&#45;&gt;stdplact -->
<g id="edge34" class="edge"><title>Yam_plact&#45;&gt;stdplact</title>
<path fill="none" stroke="black" d="M1943.09,-791.697C1939.45,-783.728 1935.05,-774.1 1931.01,-765.264"/>
<polygon fill="black" stroke="black" points="1934.16,-763.744 1926.82,-756.104 1927.79,-766.654 1934.16,-763.744"/>
</g>
<!-- extract -->
<g id="node27" class="node"><title>extract</title>
<g id="a_node27"><a xlink:href="Combi.LRrule.extract.html" xlink:title="extract">
<polygon fill="#dbc3b6" stroke="#dbc3b6" points="1439.5,-1116 1372.5,-1116 1372.5,-1080 1439.5,-1080 1439.5,-1116"/>
<text text-anchor="middle" x="1406" y="-1093.6" font-family="Times,serif" font-size="18.00">extract</text>
</a>
</g>
</g>
<!-- implem -->
<g id="node29" class="node"><title>implem</title>
<g id="a_node29"><a xlink:href="Combi.LRrule.implem.html" xlink:title="implem">
<polygon fill="#dbc3b6" stroke="#dbc3b6" points="1441.5,-1044 1370.5,-1044 1370.5,-1008 1441.5,-1008 1441.5,-1044"/>
<text text-anchor="middle" x="1406" y="-1021.6" font-family="Times,serif" font-size="18.00">implem</text>
</a>
</g>
</g>
<!-- extract&#45;&gt;implem -->
<g id="edge50" class="edge"><title>extract&#45;&gt;implem</title>
<path fill="none" stroke="black" d="M1406,-1079.7C1406,-1071.98 1406,-1062.71 1406,-1054.11"/>
<polygon fill="black" stroke="black" points="1409.5,-1054.1 1406,-1044.1 1402.5,-1054.1 1409.5,-1054.1"/>
</g>
<!-- freeSchur -->
<g id="node28" class="node"><title>freeSchur</title>
<g id="a_node28"><a xlink:href="Combi.LRrule.freeSchur.html" xlink:title="freeSchur">
<polygon fill="#dbc3b6" stroke="#dbc3b6" points="1770.5,-900 1683.5,-900 1683.5,-864 1770.5,-864 1770.5,-900"/>
<text text-anchor="middle" x="1727" y="-877.6" font-family="Times,serif" font-size="18.00">freeSchur</text>
</a>
</g>
</g>
<!-- freeSchur&#45;&gt;Yam_plact -->
<g id="edge47" class="edge"><title>freeSchur&#45;&gt;Yam_plact</title>
<path fill="none" stroke="black" d="M1770.72,-867.337C1805.55,-856.453 1854.62,-841.117 1892.78,-829.194"/>
<polygon fill="black" stroke="black" points="1894.23,-832.408 1902.73,-826.085 1892.14,-825.727 1894.23,-832.408"/>
</g>
<!-- shuffle -->
<g id="node31" class="node"><title>shuffle</title>
<g id="a_node31"><a xlink:href="Combi.LRrule.shuffle.html" xlink:title="shuffle">
<polygon fill="#dbc3b6" stroke="#dbc3b6" points="1830.5,-828 1765.5,-828 1765.5,-792 1830.5,-792 1830.5,-828"/>
<text text-anchor="middle" x="1798" y="-805.6" font-family="Times,serif" font-size="18.00">shuffle</text>
</a>
</g>
</g>
<!-- freeSchur&#45;&gt;shuffle -->
<g id="edge48" class="edge"><title>freeSchur&#45;&gt;shuffle</title>
<path fill="none" stroke="black" d="M1744.55,-863.697C1753.23,-855.135 1763.86,-844.656 1773.35,-835.304"/>
<polygon fill="black" stroke="black" points="1775.99,-837.617 1780.65,-828.104 1771.07,-832.633 1775.99,-837.617"/>
</g>
<!-- sympoly -->
<g id="node36" class="node"><title>sympoly</title>
<g id="a_node36"><a xlink:href="Combi.MPoly.sympoly.html" xlink:title="sympoly">
<polygon fill="#dbc3b6" stroke="#dbc3b6" points="1695,-684 1617,-684 1617,-648 1695,-648 1695,-684"/>
<text text-anchor="middle" x="1656" y="-661.6" font-family="Times,serif" font-size="18.00">sympoly</text>
</a>
</g>
</g>
<!-- freeSchur&#45;&gt;sympoly -->
<g id="edge49" class="edge"><title>freeSchur&#45;&gt;sympoly</title>
<path fill="none" stroke="black" d="M1721.31,-863.849C1708.98,-826.675 1679.7,-738.439 1664.9,-693.82"/>
<polygon fill="black" stroke="black" points="1668.19,-692.622 1661.72,-684.232 1661.54,-694.826 1668.19,-692.622"/>
</g>
<!-- therule -->
<g id="node33" class="node"><title>therule</title>
<g id="a_node33"><a xlink:href="Combi.LRrule.therule.html" xlink:title="therule">
<polygon fill="#dbc3b6" stroke="#dbc3b6" points="1519.5,-972 1452.5,-972 1452.5,-936 1519.5,-936 1519.5,-972"/>
<text text-anchor="middle" x="1486" y="-949.6" font-family="Times,serif" font-size="18.00">therule</text>
</a>
</g>
</g>
<!-- implem&#45;&gt;therule -->
<g id="edge43" class="edge"><title>implem&#45;&gt;therule</title>
<path fill="none" stroke="black" d="M1425.78,-1007.7C1435.75,-998.965 1448.01,-988.24 1458.86,-978.75"/>
<polygon fill="black" stroke="black" points="1461.23,-981.323 1466.45,-972.104 1456.62,-976.055 1461.23,-981.323"/>
</g>
<!-- plactic&#45;&gt;congr -->
<g id="edge41" class="edge"><title>plactic&#45;&gt;congr</title>
<path fill="none" stroke="black" d="M1802.51,-503.697C1802.29,-495.983 1802.02,-486.712 1801.77,-478.112"/>
<polygon fill="black" stroke="black" points="1805.27,-478 1801.49,-468.104 1798.28,-478.2 1805.27,-478"/>
</g>
<!-- plactic&#45;&gt;Schensted -->
<g id="edge42" class="edge"><title>plactic&#45;&gt;Schensted</title>
<path fill="none" stroke="black" d="M1770.22,-511.838C1758.83,-508.945 1745.93,-505.987 1734,-504 1537.4,-471.238 1300.72,-457.814 1194.47,-453.144"/>
<polygon fill="black" stroke="black" points="1194.43,-449.639 1184.29,-452.706 1194.13,-456.633 1194.43,-449.639"/>
</g>
<!-- shuffle&#45;&gt;stdplact -->
<g id="edge38" class="edge"><title>shuffle&#45;&gt;stdplact</title>
<path fill="none" stroke="black" d="M1827.6,-791.876C1843.57,-782.639 1863.46,-771.131 1880.61,-761.212"/>
<polygon fill="black" stroke="black" points="1882.38,-764.227 1889.29,-756.19 1878.88,-758.168 1882.38,-764.227"/>
</g>
<!-- stdplact&#45;&gt;Greene_inv -->
<g id="edge37" class="edge"><title>stdplact&#45;&gt;Greene_inv</title>
<path fill="none" stroke="black" d="M1954.23,-719.876C1973.58,-710.469 1997.77,-698.708 2018.43,-688.667"/>
<polygon fill="black" stroke="black" points="2020.17,-691.71 2027.64,-684.19 2017.11,-685.414 2020.17,-691.71"/>
</g>
<!-- therule&#45;&gt;skewtab -->
<g id="edge35" class="edge"><title>therule&#45;&gt;skewtab</title>
<path fill="none" stroke="black" d="M1452.38,-943.193C1411.19,-931.179 1341.11,-910.741 1294.2,-897.057"/>
<polygon fill="black" stroke="black" points="1295.13,-893.685 1284.55,-894.245 1293.17,-900.405 1295.13,-893.685"/>
</g>
<!-- therule&#45;&gt;freeSchur -->
<g id="edge36" class="edge"><title>therule&#45;&gt;freeSchur</title>
<path fill="none" stroke="black" d="M1519.51,-943.267C1559.36,-931.693 1626.38,-912.226 1673.44,-898.556"/>
<polygon fill="black" stroke="black" points="1674.54,-901.883 1683.16,-895.732 1672.59,-895.161 1674.54,-901.883"/>
</g>
<!-- Schur_basis -->
<g id="node34" class="node"><title>Schur_basis</title>
<g id="a_node34"><a xlink:href="Combi.MPoly.Schur_basis.html" xlink:title="Schur_basis">
<polygon fill="#dbc3b6" stroke="#dbc3b6" points="1618.5,-1044 1513.5,-1044 1513.5,-1008 1618.5,-1008 1618.5,-1044"/>
<text text-anchor="middle" x="1566" y="-1021.6" font-family="Times,serif" font-size="18.00">Schur_basis</text>
</a>
</g>
</g>
<!-- Schur_basis&#45;&gt;therule -->
<g id="edge1" class="edge"><title>Schur_basis&#45;&gt;therule</title>
<path fill="none" stroke="black" d="M1546.22,-1007.7C1536.25,-998.965 1523.99,-988.24 1513.14,-978.75"/>
<polygon fill="black" stroke="black" points="1515.38,-976.055 1505.55,-972.104 1510.77,-981.323 1515.38,-976.055"/>
</g>
<!-- antisym -->
<g id="node35" class="node"><title>antisym</title>
<g id="a_node35"><a xlink:href="Combi.MPoly.antisym.html" xlink:title="antisym">
<polygon fill="#dbc3b6" stroke="#dbc3b6" points="1696,-612 1622,-612 1622,-576 1696,-576 1696,-612"/>
<text text-anchor="middle" x="1659" y="-589.6" font-family="Times,serif" font-size="18.00">antisym</text>
</a>
</g>
</g>
<!-- presentSn -->
<g id="node47" class="node"><title>presentSn</title>
<g id="a_node47"><a xlink:href="Combi.SymGroup.presentSn.html" xlink:title="presentSn">
<polygon fill="#dbc3b6" stroke="#dbc3b6" points="1698.5,-540 1609.5,-540 1609.5,-504 1698.5,-504 1698.5,-540"/>
<text text-anchor="middle" x="1654" y="-517.6" font-family="Times,serif" font-size="18.00">presentSn</text>
</a>
</g>
</g>
<!-- antisym&#45;&gt;presentSn -->
<g id="edge5" class="edge"><title>antisym&#45;&gt;presentSn</title>
<path fill="none" stroke="black" d="M1657.76,-575.697C1657.21,-567.983 1656.55,-558.712 1655.94,-550.112"/>
<polygon fill="black" stroke="black" points="1659.43,-549.83 1655.22,-540.104 1652.44,-550.328 1659.43,-549.83"/>
</g>
<!-- sympoly&#45;&gt;stdtab -->
<g id="edge2" class="edge"><title>sympoly&#45;&gt;stdtab</title>
<path fill="none" stroke="black" d="M1616.84,-656.5C1554.28,-642.826 1437.97,-616.967 1430,-612 1386.58,-584.951 1357,-574.159 1357,-523 1357,-523 1357,-523 1357,-449 1357,-389.87 1294.7,-347.397 1251.49,-325.052"/>
<polygon fill="black" stroke="black" points="1252.83,-321.808 1242.32,-320.46 1249.69,-328.067 1252.83,-321.808"/>
</g>
<!-- sympoly&#45;&gt;antisym -->
<g id="edge3" class="edge"><title>sympoly&#45;&gt;antisym</title>
<path fill="none" stroke="black" d="M1656.74,-647.697C1657.07,-639.983 1657.47,-630.712 1657.84,-622.112"/>
<polygon fill="black" stroke="black" points="1661.34,-622.245 1658.27,-612.104 1654.34,-621.945 1661.34,-622.245"/>
</g>
<!-- permcent -->
<g id="node46" class="node"><title>permcent</title>
<g id="a_node46"><a xlink:href="Combi.SymGroup.permcent.html" xlink:title="permcent">
<polygon fill="#dbc3b6" stroke="#dbc3b6" points="1887,-612 1803,-612 1803,-576 1887,-576 1887,-612"/>
<text text-anchor="middle" x="1845" y="-589.6" font-family="Times,serif" font-size="18.00">permcent</text>
</a>
</g>
</g>
<!-- sympoly&#45;&gt;permcent -->
<g id="edge4" class="edge"><title>sympoly&#45;&gt;permcent</title>
<path fill="none" stroke="black" d="M1695.16,-650.496C1723.55,-639.981 1762.23,-625.654 1793.18,-614.192"/>
<polygon fill="black" stroke="black" points="1794.77,-617.335 1802.94,-610.579 1792.34,-610.77 1794.77,-617.335"/>
</g>
<!-- ordcast&#45;&gt;tools -->
<g id="edge33" class="edge"><title>ordcast&#45;&gt;tools</title>
<path fill="none" stroke="black" d="M2133.77,-436.257C2181.75,-416.599 2261,-373.993 2261,-307 2261,-307 2261,-307 2261,-161 2261,-86.1801 2004.86,-39.4524 1907.21,-24.3563"/>
<polygon fill="black" stroke="black" points="1907.6,-20.8753 1897.18,-22.8323 1906.54,-27.7958 1907.6,-20.8753"/>
</g>
<!-- sorted&#45;&gt;tools -->
<g id="edge32" class="edge"><title>sorted&#45;&gt;tools</title>
<path fill="none" stroke="black" d="M1363.25,-84.9339C1456.5,-72.8017 1732.48,-36.8923 1832.92,-23.8247"/>
<polygon fill="black" stroke="black" points="1833.44,-27.2863 1842.91,-22.5252 1832.54,-20.3448 1833.44,-27.2863"/>
</g>
<!-- Frobenius_char -->
<g id="node43" class="node"><title>Frobenius_char</title>
<g id="a_node43"><a xlink:href="Combi.SymGroup.Frobenius_char.html" xlink:title="Frobenius_char">
<polygon fill="#dbc3b6" stroke="#dbc3b6" points="1546.5,-756 1415.5,-756 1415.5,-720 1546.5,-720 1546.5,-756"/>
<text text-anchor="middle" x="1481" y="-733.6" font-family="Times,serif" font-size="18.00">Frobenius_char</text>
</a>
</g>
</g>
<!-- Frobenius_char&#45;&gt;sympoly -->
<g id="edge12" class="edge"><title>Frobenius_char&#45;&gt;sympoly</title>
<path fill="none" stroke="black" d="M1523.81,-719.876C1549.13,-709.746 1581.28,-696.886 1607.54,-686.385"/>
<polygon fill="black" stroke="black" points="1608.93,-689.596 1616.92,-682.632 1606.34,-683.096 1608.93,-689.596"/>
</g>
<!-- cycles -->
<g id="node44" class="node"><title>cycles</title>
<g id="a_node44"><a xlink:href="Combi.SymGroup.cycles.html" xlink:title="cycles">
<polygon fill="#dbc3b6" stroke="#dbc3b6" points="1564,-252 1502,-252 1502,-216 1564,-216 1564,-252"/>
<text text-anchor="middle" x="1533" y="-229.6" font-family="Times,serif" font-size="18.00">cycles</text>
</a>
</g>
</g>
<!-- cycles&#45;&gt;partition -->
<g id="edge15" class="edge"><title>cycles&#45;&gt;partition</title>
<path fill="none" stroke="black" d="M1501.59,-222.062C1469.57,-210.908 1419.39,-193.435 1381.91,-180.383"/>
<polygon fill="black" stroke="black" points="1382.79,-176.981 1372.19,-176.997 1380.48,-183.592 1382.79,-176.981"/>
</g>
<!-- cycles&#45;&gt;permcomp -->
<g id="edge16" class="edge"><title>cycles&#45;&gt;permcomp</title>
<path fill="none" stroke="black" d="M1522.62,-215.697C1517.74,-207.559 1511.81,-197.689 1506.42,-188.701"/>
<polygon fill="black" stroke="black" points="1509.41,-186.879 1501.26,-180.104 1503.41,-190.48 1509.41,-186.879"/>
</g>
<!-- cycletype&#45;&gt;fibered_set -->
<g id="edge13" class="edge"><title>cycletype&#45;&gt;fibered_set</title>
<path fill="none" stroke="black" d="M1952.48,-287.697C1953.14,-279.983 1953.94,-270.712 1954.68,-262.112"/>
<polygon fill="black" stroke="black" points="1958.17,-262.367 1955.53,-252.104 1951.19,-261.769 1958.17,-262.367"/>
</g>
<!-- cycletype&#45;&gt;cycles -->
<g id="edge14" class="edge"><title>cycletype&#45;&gt;cycles</title>
<path fill="none" stroke="black" d="M1907.8,-299.872C1841.33,-291.666 1710.1,-274.223 1600,-252 1591.55,-250.293 1582.56,-248.205 1574,-246.084"/>
<polygon fill="black" stroke="black" points="1574.77,-242.667 1564.21,-243.599 1573.04,-249.452 1574.77,-242.667"/>
</g>
<!-- towerSn -->
<g id="node50" class="node"><title>towerSn</title>
<g id="a_node50"><a xlink:href="Combi.SymGroup.towerSn.html" xlink:title="towerSn">
<polygon fill="#dbc3b6" stroke="#dbc3b6" points="1988.5,-540 1909.5,-540 1909.5,-504 1988.5,-504 1988.5,-540"/>
<text text-anchor="middle" x="1949" y="-517.6" font-family="Times,serif" font-size="18.00">towerSn</text>
</a>
</g>
</g>
<!-- permcent&#45;&gt;towerSn -->
<g id="edge11" class="edge"><title>permcent&#45;&gt;towerSn</title>
<path fill="none" stroke="black" d="M1870.44,-575.876C1883.79,-566.893 1900.32,-555.763 1914.78,-546.034"/>
<polygon fill="black" stroke="black" points="1917.12,-548.677 1923.46,-540.19 1913.21,-542.87 1917.12,-548.677"/>
</g>
<!-- presentSn&#45;&gt;congr -->
<g id="edge10" class="edge"><title>presentSn&#45;&gt;congr</title>
<path fill="none" stroke="black" d="M1689.96,-503.876C1711.83,-493.464 1739.75,-480.166 1762.13,-469.511"/>
<polygon fill="black" stroke="black" points="1763.82,-472.582 1771.34,-465.123 1760.81,-466.262 1763.82,-472.582"/>
</g>
<!-- reprS2 -->
<g id="node48" class="node"><title>reprS2</title>
<g id="a_node48"><a xlink:href="Combi.SymGroup.reprS2.html" xlink:title="reprS2">
<polygon fill="#dbc3b6" stroke="#dbc3b6" points="1540.5,-684 1475.5,-684 1475.5,-648 1540.5,-648 1540.5,-684"/>
<text text-anchor="middle" x="1508" y="-661.6" font-family="Times,serif" font-size="18.00">reprS2</text>
</a>
</g>
</g>
<!-- reprdim1 -->
<g id="node49" class="node"><title>reprdim1</title>
<g id="a_node49"><a xlink:href="Combi.SymGroup.reprdim1.html" xlink:title="reprdim1">
<polygon fill="#dbc3b6" stroke="#dbc3b6" points="1549.5,-612 1466.5,-612 1466.5,-576 1549.5,-576 1549.5,-612"/>
<text text-anchor="middle" x="1508" y="-589.6" font-family="Times,serif" font-size="18.00">reprdim1</text>
</a>
</g>
</g>
<!-- reprS2&#45;&gt;reprdim1 -->
<g id="edge8" class="edge"><title>reprS2&#45;&gt;reprdim1</title>
<path fill="none" stroke="black" d="M1508,-647.697C1508,-639.983 1508,-630.712 1508,-622.112"/>
<polygon fill="black" stroke="black" points="1511.5,-622.104 1508,-612.104 1504.5,-622.104 1511.5,-622.104"/>
</g>
<!-- reprdim1&#45;&gt;presentSn -->
<g id="edge9" class="edge"><title>reprdim1&#45;&gt;presentSn</title>
<path fill="none" stroke="black" d="M1543.72,-575.876C1563.5,-566.392 1588.27,-554.513 1609.33,-544.419"/>
<polygon fill="black" stroke="black" points="1610.9,-547.548 1618.4,-540.068 1607.87,-541.236 1610.9,-547.548"/>
</g>
<!-- towerSn&#45;&gt;ordcast -->
<g id="edge6" class="edge"><title>towerSn&#45;&gt;ordcast</title>
<path fill="none" stroke="black" d="M1985.45,-503.876C2005.86,-494.286 2031.49,-482.248 2053.13,-472.082"/>
<polygon fill="black" stroke="black" points="2054.88,-475.126 2062.44,-467.706 2051.9,-468.79 2054.88,-475.126"/>
</g>
<!-- towerSn&#45;&gt;cycletype -->
<g id="edge7" class="edge"><title>towerSn&#45;&gt;cycletype</title>
<path fill="none" stroke="black" d="M1949.16,-503.849C1949.51,-466.832 1950.33,-379.181 1950.74,-334.386"/>
<polygon fill="black" stroke="black" points="1954.25,-334.265 1950.84,-324.232 1947.25,-334.199 1954.25,-334.265"/>
</g>
</g>
</svg>
