<?xml version="1.0" encoding="UTF-8" standalone="no"?>
<!DOCTYPE svg PUBLIC "-//W3C//DTD SVG 1.1//EN"
 "http://www.w3.org/Graphics/SVG/1.1/DTD/svg11.dtd">
<!-- Generated by graphviz version 2.38.0 (20140413.2041)
 -->
<!-- Title: depend Pages: 1 -->
<svg width="2309pt" height="1196pt"
 viewBox="0.00 0.00 2309.00 1196.00" xmlns="http://www.w3.org/2000/svg" xmlns:xlink="http://www.w3.org/1999/xlink">
<g id="graph0" class="graph" transform="scale(1 1) rotate(0) translate(4 1192)">
<title>depend</title>
<!-- Ccpo -->
<g id="node1" class="node"><title>Ccpo</title>
<g id="a_node1"><a xlink:href="3rdparty.ALEA.Ccpo.html" xlink:title="Ccpo">
<polygon fill="#dbc3b6" stroke="#dbc3b6" points="56,-324 0,-324 0,-288 56,-288 56,-324"/>
<text text-anchor="middle" x="28" y="-301.6" font-family="Times,serif" font-size="18.00">Ccpo</text>
</a>
</g>
</g>
<!-- Misc -->
<g id="node2" class="node"><title>Misc</title>
<g id="a_node2"><a xlink:href="3rdparty.ALEA.Misc.html" xlink:title="Misc">
<polygon fill="#dbc3b6" stroke="#dbc3b6" points="182,-324 128,-324 128,-288 182,-288 182,-324"/>
<text text-anchor="middle" x="155" y="-301.6" font-family="Times,serif" font-size="18.00">Misc</text>
</a>
</g>
</g>
<!-- combclass -->
<g id="node3" class="node"><title>combclass</title>
<g id="a_node3"><a xlink:href="Combi.Basic.combclass.html" xlink:title="combclass">
<polygon fill="#dbc3b6" stroke="#dbc3b6" points="1385,-108 1293,-108 1293,-72 1385,-72 1385,-108"/>
<text text-anchor="middle" x="1339" y="-85.6" font-family="Times,serif" font-size="18.00">combclass</text>
</a>
</g>
</g>
<!-- tools -->
<g id="node45" class="node"><title>tools</title>
<g id="a_node45"><a xlink:href="Combi.SSRcomplements.tools.html" xlink:title="tools">
<polygon fill="#dbc3b6" stroke="#dbc3b6" points="1692,-36 1638,-36 1638,-0 1692,-0 1692,-36"/>
<text text-anchor="middle" x="1665" y="-13.6" font-family="Times,serif" font-size="18.00">tools</text>
</a>
</g>
</g>
<!-- combclass&#45;&gt;tools -->
<g id="edge25" class="edge"><title>combclass&#45;&gt;tools</title>
<path fill="none" stroke="black" d="M1385.02,-79.1192C1450.22,-65.1183 1568.21,-39.783 1628.05,-26.9332"/>
<polygon fill="black" stroke="black" points="1628.79,-30.3545 1637.83,-24.833 1627.32,-23.5105 1628.79,-30.3545"/>
</g>
<!-- congr -->
<g id="node4" class="node"><title>congr</title>
<g id="a_node4"><a xlink:href="Combi.Basic.congr.html" xlink:title="congr">
<polygon fill="#dbc3b6" stroke="#dbc3b6" points="1850.5,-468 1791.5,-468 1791.5,-432 1850.5,-432 1850.5,-468"/>
<text text-anchor="middle" x="1821" y="-445.6" font-family="Times,serif" font-size="18.00">congr</text>
</a>
</g>
</g>
<!-- permuted -->
<g id="node11" class="node"><title>permuted</title>
<g id="a_node11"><a xlink:href="Combi.Combi.permuted.html" xlink:title="permuted">
<polygon fill="#dbc3b6" stroke="#dbc3b6" points="1872,-396 1786,-396 1786,-360 1872,-360 1872,-396"/>
<text text-anchor="middle" x="1829" y="-373.6" font-family="Times,serif" font-size="18.00">permuted</text>
</a>
</g>
</g>
<!-- congr&#45;&gt;permuted -->
<g id="edge23" class="edge"><title>congr&#45;&gt;permuted</title>
<path fill="none" stroke="black" d="M1822.98,-431.697C1823.86,-423.983 1824.92,-414.712 1825.9,-406.112"/>
<polygon fill="black" stroke="black" points="1829.39,-406.437 1827.05,-396.104 1822.43,-405.642 1829.39,-406.437"/>
</g>
<!-- vectNK -->
<g id="node17" class="node"><title>vectNK</title>
<g id="a_node17"><a xlink:href="Combi.Combi.vectNK.html" xlink:title="vectNK">
<polygon fill="#dbc3b6" stroke="#dbc3b6" points="2192,-180 2118,-180 2118,-144 2192,-144 2192,-180"/>
<text text-anchor="middle" x="2155" y="-157.6" font-family="Times,serif" font-size="18.00">vectNK</text>
</a>
</g>
</g>
<!-- congr&#45;&gt;vectNK -->
<g id="edge24" class="edge"><title>congr&#45;&gt;vectNK</title>
<path fill="none" stroke="black" d="M1850.71,-441.333C1902.51,-426.615 2010.1,-389.878 2076,-324 2114.31,-285.7 2137.04,-225.086 2147.67,-190.185"/>
<polygon fill="black" stroke="black" points="2151.13,-190.813 2150.58,-180.232 2144.41,-188.846 2151.13,-190.813"/>
</g>
<!-- ordtype -->
<g id="node5" class="node"><title>ordtype</title>
<g id="a_node5"><a xlink:href="Combi.Basic.ordtype.html" xlink:title="ordtype">
<polygon fill="#dbc3b6" stroke="#dbc3b6" points="1609,-108 1535,-108 1535,-72 1609,-72 1609,-108"/>
<text text-anchor="middle" x="1572" y="-85.6" font-family="Times,serif" font-size="18.00">ordtype</text>
</a>
</g>
</g>
<!-- ordtype&#45;&gt;tools -->
<g id="edge22" class="edge"><title>ordtype&#45;&gt;tools</title>
<path fill="none" stroke="black" d="M1594.99,-71.6966C1606.81,-62.796 1621.39,-51.8232 1634.18,-42.1989"/>
<polygon fill="black" stroke="black" points="1636.39,-44.9145 1642.28,-36.1043 1632.18,-39.3217 1636.39,-44.9145"/>
</g>
<!-- Yamanouchi -->
<g id="node6" class="node"><title>Yamanouchi</title>
<g id="a_node6"><a xlink:href="Combi.Combi.Yamanouchi.html" xlink:title="Yamanouchi">
<polygon fill="#dbc3b6" stroke="#dbc3b6" points="971,-252 861,-252 861,-216 971,-216 971,-252"/>
<text text-anchor="middle" x="916" y="-229.6" font-family="Times,serif" font-size="18.00">Yamanouchi</text>
</a>
</g>
</g>
<!-- partition -->
<g id="node10" class="node"><title>partition</title>
<g id="a_node10"><a xlink:href="Combi.Combi.partition.html" xlink:title="partition">
<polygon fill="#dbc3b6" stroke="#dbc3b6" points="1111,-180 1031,-180 1031,-144 1111,-144 1111,-180"/>
<text text-anchor="middle" x="1071" y="-157.6" font-family="Times,serif" font-size="18.00">partition</text>
</a>
</g>
</g>
<!-- Yamanouchi&#45;&gt;partition -->
<g id="edge58" class="edge"><title>Yamanouchi&#45;&gt;partition</title>
<path fill="none" stroke="black" d="M953.917,-215.876C975.013,-206.349 1001.46,-194.407 1023.87,-184.283"/>
<polygon fill="black" stroke="black" points="1025.53,-187.374 1033.21,-180.068 1022.65,-180.994 1025.53,-187.374"/>
</g>
<!-- composition -->
<g id="node7" class="node"><title>composition</title>
<g id="a_node7"><a xlink:href="Combi.Combi.composition.html" xlink:title="composition">
<polygon fill="#dbc3b6" stroke="#dbc3b6" points="1293,-252 1185,-252 1185,-216 1293,-216 1293,-252"/>
<text text-anchor="middle" x="1239" y="-229.6" font-family="Times,serif" font-size="18.00">composition</text>
</a>
</g>
</g>
<!-- composition&#45;&gt;partition -->
<g id="edge77" class="edge"><title>composition&#45;&gt;partition</title>
<path fill="none" stroke="black" d="M1197.9,-215.876C1174.58,-206.157 1145.22,-193.924 1120.61,-183.673"/>
<polygon fill="black" stroke="black" points="1121.67,-180.321 1111.09,-179.706 1118.98,-186.783 1121.67,-180.321"/>
</g>
<!-- fibered_set -->
<g id="node8" class="node"><title>fibered_set</title>
<g id="a_node8"><a xlink:href="Combi.Combi.fibered_set.html" xlink:title="fibered_set">
<polygon fill="#dbc3b6" stroke="#dbc3b6" points="2046,-252 1948,-252 1948,-216 2046,-216 2046,-252"/>
<text text-anchor="middle" x="1997" y="-229.6" font-family="Times,serif" font-size="18.00">fibered_set</text>
</a>
</g>
</g>
<!-- multinomial -->
<g id="node9" class="node"><title>multinomial</title>
<g id="a_node9"><a xlink:href="Combi.Combi.multinomial.html" xlink:title="multinomial">
<polygon fill="#dbc3b6" stroke="#dbc3b6" points="1891,-180 1787,-180 1787,-144 1891,-144 1891,-180"/>
<text text-anchor="middle" x="1839" y="-157.6" font-family="Times,serif" font-size="18.00">multinomial</text>
</a>
</g>
</g>
<!-- multinomial&#45;&gt;tools -->
<g id="edge70" class="edge"><title>multinomial&#45;&gt;tools</title>
<path fill="none" stroke="black" d="M1818.01,-143.871C1787.05,-118.604 1729.03,-71.2543 1694.01,-42.6788"/>
<polygon fill="black" stroke="black" points="1696.02,-39.8003 1686.06,-36.1893 1691.6,-45.2236 1696.02,-39.8003"/>
</g>
<!-- partition&#45;&gt;combclass -->
<g id="edge74" class="edge"><title>partition&#45;&gt;combclass</title>
<path fill="none" stroke="black" d="M1111.12,-150.52C1156.71,-138.613 1231.42,-119.098 1282.8,-105.679"/>
<polygon fill="black" stroke="black" points="1283.96,-108.995 1292.75,-103.081 1282.19,-102.222 1283.96,-108.995"/>
</g>
<!-- partition&#45;&gt;ordtype -->
<g id="edge75" class="edge"><title>partition&#45;&gt;ordtype</title>
<path fill="none" stroke="black" d="M1111.09,-151.277C1122.63,-148.683 1135.28,-146.037 1147,-144 1218.76,-131.53 1429.58,-107.108 1524.6,-96.3289"/>
<polygon fill="black" stroke="black" points="1525.24,-99.7786 1534.78,-95.1756 1524.45,-92.8231 1525.24,-99.7786"/>
</g>
<!-- sorted -->
<g id="node44" class="node"><title>sorted</title>
<g id="a_node44"><a xlink:href="Combi.SSRcomplements.sorted.html" xlink:title="sorted">
<polygon fill="#dbc3b6" stroke="#dbc3b6" points="1102,-108 1040,-108 1040,-72 1102,-72 1102,-108"/>
<text text-anchor="middle" x="1071" y="-85.6" font-family="Times,serif" font-size="18.00">sorted</text>
</a>
</g>
</g>
<!-- partition&#45;&gt;sorted -->
<g id="edge76" class="edge"><title>partition&#45;&gt;sorted</title>
<path fill="none" stroke="black" d="M1071,-143.697C1071,-135.983 1071,-126.712 1071,-118.112"/>
<polygon fill="black" stroke="black" points="1074.5,-118.104 1071,-108.104 1067.5,-118.104 1074.5,-118.104"/>
</g>
<!-- permuted&#45;&gt;composition -->
<g id="edge71" class="edge"><title>permuted&#45;&gt;composition</title>
<path fill="none" stroke="black" d="M1785.62,-366.558C1682.86,-341.826 1424.18,-279.569 1303.22,-250.456"/>
<polygon fill="black" stroke="black" points="1303.89,-247.018 1293.35,-248.081 1302.25,-253.824 1303.89,-247.018"/>
</g>
<!-- permuted&#45;&gt;multinomial -->
<g id="edge72" class="edge"><title>permuted&#45;&gt;multinomial</title>
<path fill="none" stroke="black" d="M1829.8,-359.849C1831.53,-322.832 1835.63,-235.181 1837.72,-190.386"/>
<polygon fill="black" stroke="black" points="1841.22,-190.385 1838.19,-180.232 1834.23,-190.058 1841.22,-190.385"/>
</g>
<!-- cycletype -->
<g id="node49" class="node"><title>cycletype</title>
<g id="a_node49"><a xlink:href="Combi.SymGroup.cycletype.html" xlink:title="cycletype">
<polygon fill="#dbc3b6" stroke="#dbc3b6" points="2040,-324 1954,-324 1954,-288 2040,-288 2040,-324"/>
<text text-anchor="middle" x="1997" y="-301.6" font-family="Times,serif" font-size="18.00">cycletype</text>
</a>
</g>
</g>
<!-- permuted&#45;&gt;cycletype -->
<g id="edge73" class="edge"><title>permuted&#45;&gt;cycletype</title>
<path fill="none" stroke="black" d="M1870.1,-359.876C1893.17,-350.264 1922.14,-338.193 1946.57,-328.013"/>
<polygon fill="black" stroke="black" points="1948.15,-331.145 1956.04,-324.068 1945.46,-324.684 1948.15,-331.145"/>
</g>
<!-- skewtab -->
<g id="node12" class="node"><title>skewtab</title>
<g id="a_node12"><a xlink:href="Combi.Combi.skewtab.html" xlink:title="skewtab">
<polygon fill="#dbc3b6" stroke="#dbc3b6" points="1149.5,-900 1072.5,-900 1072.5,-864 1149.5,-864 1149.5,-900"/>
<text text-anchor="middle" x="1111" y="-877.6" font-family="Times,serif" font-size="18.00">skewtab</text>
</a>
</g>
</g>
<!-- stdtab -->
<g id="node14" class="node"><title>stdtab</title>
<g id="a_node14"><a xlink:href="Combi.Combi.stdtab.html" xlink:title="stdtab">
<polygon fill="#dbc3b6" stroke="#dbc3b6" points="1075,-324 1013,-324 1013,-288 1075,-288 1075,-324"/>
<text text-anchor="middle" x="1044" y="-301.6" font-family="Times,serif" font-size="18.00">stdtab</text>
</a>
</g>
</g>
<!-- skewtab&#45;&gt;stdtab -->
<g id="edge69" class="edge"><title>skewtab&#45;&gt;stdtab</title>
<path fill="none" stroke="black" d="M1096.79,-863.859C1077.12,-838.336 1044,-788.066 1044,-739 1044,-739 1044,-739 1044,-449 1044,-408.996 1044,-362.653 1044,-334.08"/>
<polygon fill="black" stroke="black" points="1047.5,-334.049 1044,-324.049 1040.5,-334.049 1047.5,-334.049"/>
</g>
<!-- std -->
<g id="node13" class="node"><title>std</title>
<g id="a_node13"><a xlink:href="Combi.Combi.std.html" xlink:title="std">
<polygon fill="#dbc3b6" stroke="#dbc3b6" points="1553,-252 1499,-252 1499,-216 1553,-216 1553,-252"/>
<text text-anchor="middle" x="1526" y="-229.6" font-family="Times,serif" font-size="18.00">std</text>
</a>
</g>
</g>
<!-- std&#45;&gt;combclass -->
<g id="edge66" class="edge"><title>std&#45;&gt;combclass</title>
<path fill="none" stroke="black" d="M1503.44,-215.871C1470.03,-190.497 1407.29,-142.854 1369.71,-114.318"/>
<polygon fill="black" stroke="black" points="1371.72,-111.449 1361.64,-108.189 1367.48,-117.024 1371.72,-111.449"/>
</g>
<!-- std&#45;&gt;ordtype -->
<g id="edge67" class="edge"><title>std&#45;&gt;ordtype</title>
<path fill="none" stroke="black" d="M1531.55,-215.871C1539.42,-191.564 1553.92,-146.819 1563.25,-118.013"/>
<polygon fill="black" stroke="black" points="1566.68,-118.781 1566.43,-108.189 1560.02,-116.624 1566.68,-118.781"/>
</g>
<!-- permcomp -->
<g id="node42" class="node"><title>permcomp</title>
<g id="a_node42"><a xlink:href="Combi.SSRcomplements.permcomp.html" xlink:title="permcomp">
<polygon fill="#dbc3b6" stroke="#dbc3b6" points="1277,-180 1183,-180 1183,-144 1277,-144 1277,-180"/>
<text text-anchor="middle" x="1230" y="-157.6" font-family="Times,serif" font-size="18.00">permcomp</text>
</a>
</g>
</g>
<!-- std&#45;&gt;permcomp -->
<g id="edge68" class="edge"><title>std&#45;&gt;permcomp</title>
<path fill="none" stroke="black" d="M1498.77,-225.398C1487.7,-222.373 1474.76,-218.924 1463,-216 1403.36,-201.177 1334.73,-185.763 1287.48,-175.405"/>
<polygon fill="black" stroke="black" points="1287.95,-171.926 1277.43,-173.209 1286.46,-178.764 1287.95,-171.926"/>
</g>
<!-- stdtab&#45;&gt;Yamanouchi -->
<g id="edge63" class="edge"><title>stdtab&#45;&gt;Yamanouchi</title>
<path fill="none" stroke="black" d="M1012.69,-287.876C995.797,-278.639 974.753,-267.131 956.615,-257.212"/>
<polygon fill="black" stroke="black" points="957.886,-253.917 947.433,-252.19 954.527,-260.059 957.886,-253.917"/>
</g>
<!-- stdtab&#45;&gt;std -->
<g id="edge64" class="edge"><title>stdtab&#45;&gt;std</title>
<path fill="none" stroke="black" d="M1075.25,-302.53C1145.19,-296.679 1319.48,-280.3 1463,-252 1471.55,-250.314 1480.65,-248.107 1489.19,-245.844"/>
<polygon fill="black" stroke="black" points="1490.18,-249.202 1498.9,-243.19 1488.33,-242.45 1490.18,-249.202"/>
</g>
<!-- tableau -->
<g id="node16" class="node"><title>tableau</title>
<g id="a_node16"><a xlink:href="Combi.Combi.tableau.html" xlink:title="tableau">
<polygon fill="#dbc3b6" stroke="#dbc3b6" points="1113,-252 1043,-252 1043,-216 1113,-216 1113,-252"/>
<text text-anchor="middle" x="1078" y="-229.6" font-family="Times,serif" font-size="18.00">tableau</text>
</a>
</g>
</g>
<!-- stdtab&#45;&gt;tableau -->
<g id="edge65" class="edge"><title>stdtab&#45;&gt;tableau</title>
<path fill="none" stroke="black" d="M1052.4,-287.697C1056.27,-279.728 1060.95,-270.1 1065.24,-261.264"/>
<polygon fill="black" stroke="black" points="1068.47,-262.629 1069.69,-252.104 1062.17,-259.57 1068.47,-262.629"/>
</g>
<!-- subseq -->
<g id="node15" class="node"><title>subseq</title>
<g id="a_node15"><a xlink:href="Combi.Combi.subseq.html" xlink:title="subseq">
<polygon fill="#dbc3b6" stroke="#dbc3b6" points="872.5,-180 805.5,-180 805.5,-144 872.5,-144 872.5,-180"/>
<text text-anchor="middle" x="839" y="-157.6" font-family="Times,serif" font-size="18.00">subseq</text>
</a>
</g>
</g>
<!-- subseq&#45;&gt;combclass -->
<g id="edge61" class="edge"><title>subseq&#45;&gt;combclass</title>
<path fill="none" stroke="black" d="M872.583,-156.298C956.919,-144.491 1178.33,-113.494 1282.85,-98.8616"/>
<polygon fill="black" stroke="black" points="1283.47,-102.308 1292.89,-97.4556 1282.5,-95.3759 1283.47,-102.308"/>
</g>
<!-- subseq&#45;&gt;sorted -->
<g id="edge62" class="edge"><title>subseq&#45;&gt;sorted</title>
<path fill="none" stroke="black" d="M872.735,-150.821C914.446,-138.236 985.393,-116.83 1030.14,-103.327"/>
<polygon fill="black" stroke="black" points="1031.26,-106.646 1039.83,-100.406 1029.24,-99.944 1031.26,-106.646"/>
</g>
<!-- tableau&#45;&gt;partition -->
<g id="edge60" class="edge"><title>tableau&#45;&gt;partition</title>
<path fill="none" stroke="black" d="M1076.27,-215.697C1075.5,-207.983 1074.57,-198.712 1073.71,-190.112"/>
<polygon fill="black" stroke="black" points="1077.19,-189.706 1072.71,-180.104 1070.22,-190.403 1077.19,-189.706"/>
</g>
<!-- vectNK&#45;&gt;tools -->
<g id="edge59" class="edge"><title>vectNK&#45;&gt;tools</title>
<path fill="none" stroke="black" d="M2117.77,-150.21C2026.59,-123.786 1792.93,-56.0747 1702,-29.7217"/>
<polygon fill="black" stroke="black" points="1702.71,-26.2857 1692.14,-26.8638 1700.77,-33.009 1702.71,-26.2857"/>
</g>
<!-- Erdos_Szekeres -->
<g id="node18" class="node"><title>Erdos_Szekeres</title>
<g id="a_node18"><a xlink:href="Combi.Erdos_Szekeres.Erdos_Szekeres.html" xlink:title="Erdos_Szekeres">
<polygon fill="#dbc3b6" stroke="#dbc3b6" points="1578.5,-756 1445.5,-756 1445.5,-720 1578.5,-720 1578.5,-756"/>
<text text-anchor="middle" x="1512" y="-733.6" font-family="Times,serif" font-size="18.00">Erdos_Szekeres</text>
</a>
</g>
</g>
<!-- Greene_inv -->
<g id="node24" class="node"><title>Greene_inv</title>
<g id="a_node24"><a xlink:href="Combi.LRrule.Greene_inv.html" xlink:title="Greene_inv">
<polygon fill="#dbc3b6" stroke="#dbc3b6" points="1562.5,-684 1461.5,-684 1461.5,-648 1562.5,-648 1562.5,-684"/>
<text text-anchor="middle" x="1512" y="-661.6" font-family="Times,serif" font-size="18.00">Greene_inv</text>
</a>
</g>
</g>
<!-- Erdos_Szekeres&#45;&gt;Greene_inv -->
<g id="edge57" class="edge"><title>Erdos_Szekeres&#45;&gt;Greene_inv</title>
<path fill="none" stroke="black" d="M1512,-719.697C1512,-711.983 1512,-702.712 1512,-694.112"/>
<polygon fill="black" stroke="black" points="1515.5,-694.104 1512,-684.104 1508.5,-694.104 1515.5,-694.104"/>
</g>
<!-- Frobenius_ident -->
<g id="node19" class="node"><title>Frobenius_ident</title>
<g id="a_node19"><a xlink:href="Combi.HookFormula.Frobenius_ident.html" xlink:title="Frobenius_ident">
<polygon fill="#dbc3b6" stroke="#dbc3b6" points="872.5,-540 735.5,-540 735.5,-504 872.5,-504 872.5,-540"/>
<text text-anchor="middle" x="804" y="-517.6" font-family="Times,serif" font-size="18.00">Frobenius_ident</text>
</a>
</g>
</g>
<!-- hook -->
<g id="node21" class="node"><title>hook</title>
<g id="a_node21"><a xlink:href="Combi.HookFormula.hook.html" xlink:title="hook">
<polygon fill="#dbc3b6" stroke="#dbc3b6" points="483,-468 429,-468 429,-432 483,-432 483,-468"/>
<text text-anchor="middle" x="456" y="-445.6" font-family="Times,serif" font-size="18.00">hook</text>
</a>
</g>
</g>
<!-- Frobenius_ident&#45;&gt;hook -->
<g id="edge35" class="edge"><title>Frobenius_ident&#45;&gt;hook</title>
<path fill="none" stroke="black" d="M735.246,-507.17C662.707,-492.579 551.078,-470.125 493.387,-458.52"/>
<polygon fill="black" stroke="black" points="493.758,-455.025 483.264,-456.484 492.377,-461.887 493.758,-455.025"/>
</g>
<!-- Schensted -->
<g id="node25" class="node"><title>Schensted</title>
<g id="a_node25"><a xlink:href="Combi.LRrule.Schensted.html" xlink:title="Schensted">
<polygon fill="#dbc3b6" stroke="#dbc3b6" points="861,-468 769,-468 769,-432 861,-432 861,-468"/>
<text text-anchor="middle" x="815" y="-445.6" font-family="Times,serif" font-size="18.00">Schensted</text>
</a>
</g>
</g>
<!-- Frobenius_ident&#45;&gt;Schensted -->
<g id="edge36" class="edge"><title>Frobenius_ident&#45;&gt;Schensted</title>
<path fill="none" stroke="black" d="M806.719,-503.697C807.931,-495.983 809.388,-486.712 810.739,-478.112"/>
<polygon fill="black" stroke="black" points="814.217,-478.526 812.312,-468.104 807.302,-477.44 814.217,-478.526"/>
</g>
<!-- Qmeasure -->
<g id="node20" class="node"><title>Qmeasure</title>
<g id="a_node20"><a xlink:href="Combi.HookFormula.Qmeasure.html" xlink:title="Qmeasure">
<polygon fill="#dbc3b6" stroke="#dbc3b6" points="345.5,-396 256.5,-396 256.5,-360 345.5,-360 345.5,-396"/>
<text text-anchor="middle" x="301" y="-373.6" font-family="Times,serif" font-size="18.00">Qmeasure</text>
</a>
</g>
</g>
<!-- Qmeasure&#45;&gt;Ccpo -->
<g id="edge32" class="edge"><title>Qmeasure&#45;&gt;Ccpo</title>
<path fill="none" stroke="black" d="M256.116,-365.773C213.768,-355.144 148.522,-338.673 92,-324 83.5222,-321.799 74.422,-319.403 65.8208,-317.122"/>
<polygon fill="black" stroke="black" points="66.5836,-313.703 56.0201,-314.516 64.785,-320.468 66.5836,-313.703"/>
</g>
<!-- Qmeasure&#45;&gt;Misc -->
<g id="edge33" class="edge"><title>Qmeasure&#45;&gt;Misc</title>
<path fill="none" stroke="black" d="M265.284,-359.876C242.829,-349.11 213.939,-335.258 191.361,-324.433"/>
<polygon fill="black" stroke="black" points="192.639,-321.165 182.109,-319.997 189.613,-327.477 192.639,-321.165"/>
</g>
<!-- rat_coerce -->
<g id="node43" class="node"><title>rat_coerce</title>
<g id="a_node43"><a xlink:href="Combi.SSRcomplements.rat_coerce.html" xlink:title="rat_coerce">
<polygon fill="#dbc3b6" stroke="#dbc3b6" points="348,-324 254,-324 254,-288 348,-288 348,-324"/>
<text text-anchor="middle" x="301" y="-301.6" font-family="Times,serif" font-size="18.00">rat_coerce</text>
</a>
</g>
</g>
<!-- Qmeasure&#45;&gt;rat_coerce -->
<g id="edge34" class="edge"><title>Qmeasure&#45;&gt;rat_coerce</title>
<path fill="none" stroke="black" d="M301,-359.697C301,-351.983 301,-342.712 301,-334.112"/>
<polygon fill="black" stroke="black" points="304.5,-334.104 301,-324.104 297.5,-334.104 304.5,-334.104"/>
</g>
<!-- hook&#45;&gt;subseq -->
<g id="edge28" class="edge"><title>hook&#45;&gt;subseq</title>
<path fill="none" stroke="black" d="M467.517,-431.891C480.846,-412.889 504.169,-381.998 529,-360 615.034,-283.782 733.597,-217.232 796.231,-184.519"/>
<polygon fill="black" stroke="black" points="798.157,-187.463 805.423,-179.752 794.935,-181.249 798.157,-187.463"/>
</g>
<!-- hook&#45;&gt;Qmeasure -->
<g id="edge29" class="edge"><title>hook&#45;&gt;Qmeasure</title>
<path fill="none" stroke="black" d="M428.646,-436.647C406.431,-426.614 374.583,-412.231 348.257,-400.342"/>
<polygon fill="black" stroke="black" points="349.39,-397.013 338.836,-396.087 346.509,-403.393 349.39,-397.013"/>
</g>
<!-- recyama -->
<g id="node22" class="node"><title>recyama</title>
<g id="a_node22"><a xlink:href="Combi.HookFormula.recyama.html" xlink:title="recyama">
<polygon fill="#dbc3b6" stroke="#dbc3b6" points="643,-396 565,-396 565,-360 643,-360 643,-396"/>
<text text-anchor="middle" x="604" y="-373.6" font-family="Times,serif" font-size="18.00">recyama</text>
</a>
</g>
</g>
<!-- hook&#45;&gt;recyama -->
<g id="edge30" class="edge"><title>hook&#45;&gt;recyama</title>
<path fill="none" stroke="black" d="M483.145,-436.161C504.235,-426.186 533.948,-412.133 558.635,-400.456"/>
<polygon fill="black" stroke="black" points="560.278,-403.551 567.822,-396.111 557.285,-397.223 560.278,-403.551"/>
</g>
<!-- bigallpairs -->
<g id="node40" class="node"><title>bigallpairs</title>
<g id="a_node40"><a xlink:href="Combi.SSRcomplements.bigallpairs.html" xlink:title="bigallpairs">
<polygon fill="#dbc3b6" stroke="#dbc3b6" points="184,-396 90,-396 90,-360 184,-360 184,-396"/>
<text text-anchor="middle" x="137" y="-373.6" font-family="Times,serif" font-size="18.00">bigallpairs</text>
</a>
</g>
</g>
<!-- hook&#45;&gt;bigallpairs -->
<g id="edge31" class="edge"><title>hook&#45;&gt;bigallpairs</title>
<path fill="none" stroke="black" d="M428.802,-443.032C377.032,-431.672 263.328,-406.721 194.133,-391.537"/>
<polygon fill="black" stroke="black" points="194.778,-388.095 184.26,-389.371 193.277,-394.933 194.778,-388.095"/>
</g>
<!-- recyama&#45;&gt;stdtab -->
<g id="edge26" class="edge"><title>recyama&#45;&gt;stdtab</title>
<path fill="none" stroke="black" d="M643.047,-370.788C725.826,-357.619 918.272,-327.002 1002.86,-313.545"/>
<polygon fill="black" stroke="black" points="1003.54,-316.981 1012.87,-311.953 1002.44,-310.067 1003.54,-316.981"/>
</g>
<!-- recyama&#45;&gt;rat_coerce -->
<g id="edge27" class="edge"><title>recyama&#45;&gt;rat_coerce</title>
<path fill="none" stroke="black" d="M564.699,-367.92C512.065,-355.761 418.327,-334.105 357.956,-320.158"/>
<polygon fill="black" stroke="black" points="358.727,-316.744 348.196,-317.903 357.152,-323.565 358.727,-316.744"/>
</g>
<!-- Greene -->
<g id="node23" class="node"><title>Greene</title>
<g id="a_node23"><a xlink:href="Combi.LRrule.Greene.html" xlink:title="Greene">
<polygon fill="#dbc3b6" stroke="#dbc3b6" points="1547.5,-612 1478.5,-612 1478.5,-576 1547.5,-576 1547.5,-612"/>
<text text-anchor="middle" x="1513" y="-589.6" font-family="Times,serif" font-size="18.00">Greene</text>
</a>
</g>
</g>
<!-- plactic -->
<g id="node30" class="node"><title>plactic</title>
<g id="a_node30"><a xlink:href="Combi.LRrule.plactic.html" xlink:title="plactic">
<polygon fill="#dbc3b6" stroke="#dbc3b6" points="1545.5,-540 1480.5,-540 1480.5,-504 1545.5,-504 1545.5,-540"/>
<text text-anchor="middle" x="1513" y="-517.6" font-family="Times,serif" font-size="18.00">plactic</text>
</a>
</g>
</g>
<!-- Greene&#45;&gt;plactic -->
<g id="edge51" class="edge"><title>Greene&#45;&gt;plactic</title>
<path fill="none" stroke="black" d="M1513,-575.697C1513,-567.983 1513,-558.712 1513,-550.112"/>
<polygon fill="black" stroke="black" points="1516.5,-550.104 1513,-540.104 1509.5,-550.104 1516.5,-550.104"/>
</g>
<!-- ordcast -->
<g id="node41" class="node"><title>ordcast</title>
<g id="a_node41"><a xlink:href="Combi.SSRcomplements.ordcast.html" xlink:title="ordcast">
<polygon fill="#dbc3b6" stroke="#dbc3b6" points="2166.5,-540 2095.5,-540 2095.5,-504 2166.5,-504 2166.5,-540"/>
<text text-anchor="middle" x="2131" y="-517.6" font-family="Times,serif" font-size="18.00">ordcast</text>
</a>
</g>
</g>
<!-- Greene&#45;&gt;ordcast -->
<g id="edge52" class="edge"><title>Greene&#45;&gt;ordcast</title>
<path fill="none" stroke="black" d="M1547.55,-589.087C1652.29,-577.222 1966.35,-541.649 2084.96,-528.214"/>
<polygon fill="black" stroke="black" points="2085.62,-531.663 2095.16,-527.06 2084.83,-524.708 2085.62,-531.663"/>
</g>
<!-- Greene_inv&#45;&gt;Greene -->
<g id="edge50" class="edge"><title>Greene_inv&#45;&gt;Greene</title>
<path fill="none" stroke="black" d="M1512.25,-647.697C1512.36,-639.983 1512.49,-630.712 1512.61,-622.112"/>
<polygon fill="black" stroke="black" points="1516.11,-622.153 1512.76,-612.104 1509.11,-622.053 1516.11,-622.153"/>
</g>
<!-- Schensted&#45;&gt;stdtab -->
<g id="edge45" class="edge"><title>Schensted&#45;&gt;stdtab</title>
<path fill="none" stroke="black" d="M842.623,-431.871C883.887,-406.284 961.67,-358.052 1007.55,-329.603"/>
<polygon fill="black" stroke="black" points="1009.63,-332.434 1016.28,-324.189 1005.94,-326.485 1009.63,-332.434"/>
</g>
<!-- Schensted&#45;&gt;subseq -->
<g id="edge46" class="edge"><title>Schensted&#45;&gt;subseq</title>
<path fill="none" stroke="black" d="M814.482,-431.923C813.582,-393.239 812.853,-296.061 825,-216 826.285,-207.532 828.397,-198.467 830.595,-190.272"/>
<polygon fill="black" stroke="black" points="834.014,-191.042 833.37,-180.467 827.279,-189.136 834.014,-191.042"/>
</g>
<!-- Yam_plact -->
<g id="node26" class="node"><title>Yam_plact</title>
<g id="a_node26"><a xlink:href="Combi.LRrule.Yam_plact.html" xlink:title="Yam_plact">
<polygon fill="#dbc3b6" stroke="#dbc3b6" points="1533,-828 1437,-828 1437,-792 1533,-792 1533,-828"/>
<text text-anchor="middle" x="1485" y="-805.6" font-family="Times,serif" font-size="18.00">Yam_plact</text>
</a>
</g>
</g>
<!-- stdplact -->
<g id="node32" class="node"><title>stdplact</title>
<g id="a_node32"><a xlink:href="Combi.LRrule.stdplact.html" xlink:title="stdplact">
<polygon fill="#dbc3b6" stroke="#dbc3b6" points="1373,-756 1299,-756 1299,-720 1373,-720 1373,-756"/>
<text text-anchor="middle" x="1336" y="-733.6" font-family="Times,serif" font-size="18.00">stdplact</text>
</a>
</g>
</g>
<!-- Yam_plact&#45;&gt;stdplact -->
<g id="edge40" class="edge"><title>Yam_plact&#45;&gt;stdplact</title>
<path fill="none" stroke="black" d="M1448.55,-791.876C1428.36,-782.392 1403.08,-770.513 1381.59,-760.419"/>
<polygon fill="black" stroke="black" points="1382.87,-757.153 1372.33,-756.068 1379.89,-763.488 1382.87,-757.153"/>
</g>
<!-- extract -->
<g id="node27" class="node"><title>extract</title>
<g id="a_node27"><a xlink:href="Combi.LRrule.extract.html" xlink:title="extract">
<polygon fill="#dbc3b6" stroke="#dbc3b6" points="1365.5,-1116 1298.5,-1116 1298.5,-1080 1365.5,-1080 1365.5,-1116"/>
<text text-anchor="middle" x="1332" y="-1093.6" font-family="Times,serif" font-size="18.00">extract</text>
</a>
</g>
</g>
<!-- implem -->
<g id="node29" class="node"><title>implem</title>
<g id="a_node29"><a xlink:href="Combi.LRrule.implem.html" xlink:title="implem">
<polygon fill="#dbc3b6" stroke="#dbc3b6" points="1367.5,-1044 1296.5,-1044 1296.5,-1008 1367.5,-1008 1367.5,-1044"/>
<text text-anchor="middle" x="1332" y="-1021.6" font-family="Times,serif" font-size="18.00">implem</text>
</a>
</g>
</g>
<!-- extract&#45;&gt;implem -->
<g id="edge56" class="edge"><title>extract&#45;&gt;implem</title>
<path fill="none" stroke="black" d="M1332,-1079.7C1332,-1071.98 1332,-1062.71 1332,-1054.11"/>
<polygon fill="black" stroke="black" points="1335.5,-1054.1 1332,-1044.1 1328.5,-1054.1 1335.5,-1054.1"/>
</g>
<!-- freeSchur -->
<g id="node28" class="node"><title>freeSchur</title>
<g id="a_node28"><a xlink:href="Combi.LRrule.freeSchur.html" xlink:title="freeSchur">
<polygon fill="#dbc3b6" stroke="#dbc3b6" points="1375.5,-900 1288.5,-900 1288.5,-864 1375.5,-864 1375.5,-900"/>
<text text-anchor="middle" x="1332" y="-877.6" font-family="Times,serif" font-size="18.00">freeSchur</text>
</a>
</g>
</g>
<!-- freeSchur&#45;&gt;Yam_plact -->
<g id="edge53" class="edge"><title>freeSchur&#45;&gt;Yam_plact</title>
<path fill="none" stroke="black" d="M1369.43,-863.876C1390.25,-854.349 1416.35,-842.407 1438.48,-832.283"/>
<polygon fill="black" stroke="black" points="1440.06,-835.411 1447.69,-828.068 1437.14,-829.046 1440.06,-835.411"/>
</g>
<!-- shuffle -->
<g id="node31" class="node"><title>shuffle</title>
<g id="a_node31"><a xlink:href="Combi.LRrule.shuffle.html" xlink:title="shuffle">
<polygon fill="#dbc3b6" stroke="#dbc3b6" points="1364.5,-828 1299.5,-828 1299.5,-792 1364.5,-792 1364.5,-828"/>
<text text-anchor="middle" x="1332" y="-805.6" font-family="Times,serif" font-size="18.00">shuffle</text>
</a>
</g>
</g>
<!-- freeSchur&#45;&gt;shuffle -->
<g id="edge54" class="edge"><title>freeSchur&#45;&gt;shuffle</title>
<path fill="none" stroke="black" d="M1332,-863.697C1332,-855.983 1332,-846.712 1332,-838.112"/>
<polygon fill="black" stroke="black" points="1335.5,-838.104 1332,-828.104 1328.5,-838.104 1335.5,-838.104"/>
</g>
<!-- Schur_mpoly -->
<g id="node36" class="node"><title>Schur_mpoly</title>
<g id="a_node36"><a xlink:href="Combi.MPoly.Schur_mpoly.html" xlink:title="Schur_mpoly">
<polygon fill="#dbc3b6" stroke="#dbc3b6" points="1267,-684 1153,-684 1153,-648 1267,-648 1267,-684"/>
<text text-anchor="middle" x="1210" y="-661.6" font-family="Times,serif" font-size="18.00">Schur_mpoly</text>
</a>
</g>
</g>
<!-- freeSchur&#45;&gt;Schur_mpoly -->
<g id="edge55" class="edge"><title>freeSchur&#45;&gt;Schur_mpoly</title>
<path fill="none" stroke="black" d="M1302.11,-863.842C1288.52,-854.725 1273.22,-842.415 1263,-828 1233.66,-786.632 1219.8,-727.992 1213.88,-694.087"/>
<polygon fill="black" stroke="black" points="1217.3,-693.303 1212.23,-684.001 1210.39,-694.435 1217.3,-693.303"/>
</g>
<!-- therule -->
<g id="node33" class="node"><title>therule</title>
<g id="a_node33"><a xlink:href="Combi.LRrule.therule.html" xlink:title="therule">
<polygon fill="#dbc3b6" stroke="#dbc3b6" points="1365.5,-972 1298.5,-972 1298.5,-936 1365.5,-936 1365.5,-972"/>
<text text-anchor="middle" x="1332" y="-949.6" font-family="Times,serif" font-size="18.00">therule</text>
</a>
</g>
</g>
<!-- implem&#45;&gt;therule -->
<g id="edge49" class="edge"><title>implem&#45;&gt;therule</title>
<path fill="none" stroke="black" d="M1332,-1007.7C1332,-999.983 1332,-990.712 1332,-982.112"/>
<polygon fill="black" stroke="black" points="1335.5,-982.104 1332,-972.104 1328.5,-982.104 1335.5,-982.104"/>
</g>
<!-- plactic&#45;&gt;congr -->
<g id="edge47" class="edge"><title>plactic&#45;&gt;congr</title>
<path fill="none" stroke="black" d="M1545.67,-513.575C1602.6,-500.636 1719.78,-474.005 1781.3,-460.024"/>
<polygon fill="black" stroke="black" points="1782.42,-463.358 1791.39,-457.729 1780.86,-456.532 1782.42,-463.358"/>
</g>
<!-- plactic&#45;&gt;Schensted -->
<g id="edge48" class="edge"><title>plactic&#45;&gt;Schensted</title>
<path fill="none" stroke="black" d="M1480.27,-517.718C1369.96,-506.655 1010.94,-470.65 871.29,-456.645"/>
<polygon fill="black" stroke="black" points="871.524,-453.151 861.225,-455.636 870.826,-460.116 871.524,-453.151"/>
</g>
<!-- shuffle&#45;&gt;stdplact -->
<g id="edge44" class="edge"><title>shuffle&#45;&gt;stdplact</title>
<path fill="none" stroke="black" d="M1332.99,-791.697C1333.43,-783.983 1333.96,-774.712 1334.45,-766.112"/>
<polygon fill="black" stroke="black" points="1337.95,-766.288 1335.02,-756.104 1330.96,-765.888 1337.95,-766.288"/>
</g>
<!-- stdplact&#45;&gt;Greene_inv -->
<g id="edge43" class="edge"><title>stdplact&#45;&gt;Greene_inv</title>
<path fill="none" stroke="black" d="M1373.33,-722.155C1398.42,-712.175 1431.85,-698.878 1459.6,-687.841"/>
<polygon fill="black" stroke="black" points="1461.16,-690.988 1469.16,-684.04 1458.57,-684.484 1461.16,-690.988"/>
</g>
<!-- therule&#45;&gt;skewtab -->
<g id="edge41" class="edge"><title>therule&#45;&gt;skewtab</title>
<path fill="none" stroke="black" d="M1298.43,-942.369C1261.43,-930.648 1201.58,-911.691 1159.49,-898.358"/>
<polygon fill="black" stroke="black" points="1160.32,-894.949 1149.73,-895.266 1158.2,-901.623 1160.32,-894.949"/>
</g>
<!-- therule&#45;&gt;freeSchur -->
<g id="edge42" class="edge"><title>therule&#45;&gt;freeSchur</title>
<path fill="none" stroke="black" d="M1332,-935.697C1332,-927.983 1332,-918.712 1332,-910.112"/>
<polygon fill="black" stroke="black" points="1335.5,-910.104 1332,-900.104 1328.5,-910.104 1335.5,-910.104"/>
</g>
<!-- Cauchy -->
<g id="node34" class="node"><title>Cauchy</title>
<g id="a_node34"><a xlink:href="Combi.MPoly.Cauchy.html" xlink:title="Cauchy">
<polygon fill="#dbc3b6" stroke="#dbc3b6" points="1747,-1188 1675,-1188 1675,-1152 1747,-1152 1747,-1188"/>
<text text-anchor="middle" x="1711" y="-1165.6" font-family="Times,serif" font-size="18.00">Cauchy</text>
</a>
</g>
</g>
<!-- sympoly -->
<g id="node39" class="node"><title>sympoly</title>
<g id="a_node39"><a xlink:href="Combi.MPoly.sympoly.html" xlink:title="sympoly">
<polygon fill="#dbc3b6" stroke="#dbc3b6" points="1907,-1116 1829,-1116 1829,-1080 1907,-1080 1907,-1116"/>
<text text-anchor="middle" x="1868" y="-1093.6" font-family="Times,serif" font-size="18.00">sympoly</text>
</a>
</g>
</g>
<!-- Cauchy&#45;&gt;sympoly -->
<g id="edge8" class="edge"><title>Cauchy&#45;&gt;sympoly</title>
<path fill="none" stroke="black" d="M1747.02,-1152.94C1768.84,-1143.21 1796.92,-1130.69 1820.54,-1120.16"/>
<polygon fill="black" stroke="black" points="1821.97,-1123.35 1829.68,-1116.08 1819.12,-1116.96 1821.97,-1123.35"/>
</g>
<!-- Schur_altdef -->
<g id="node35" class="node"><title>Schur_altdef</title>
<g id="a_node35"><a xlink:href="Combi.MPoly.Schur_altdef.html" xlink:title="Schur_altdef">
<polygon fill="#dbc3b6" stroke="#dbc3b6" points="1743,-1044 1633,-1044 1633,-1008 1743,-1008 1743,-1044"/>
<text text-anchor="middle" x="1688" y="-1021.6" font-family="Times,serif" font-size="18.00">Schur_altdef</text>
</a>
</g>
</g>
<!-- Schur_altdef&#45;&gt;therule -->
<g id="edge1" class="edge"><title>Schur_altdef&#45;&gt;therule</title>
<path fill="none" stroke="black" d="M1632.77,-1014.14C1561.95,-1000.21 1440.59,-976.351 1375.79,-963.611"/>
<polygon fill="black" stroke="black" points="1376.38,-960.16 1365.89,-961.665 1375.03,-967.028 1376.38,-960.16"/>
</g>
<!-- unitriginv -->
<g id="node46" class="node"><title>unitriginv</title>
<g id="a_node46"><a xlink:href="Combi.SSRcomplements.unitriginv.html" xlink:title="unitriginv">
<polygon fill="#dbc3b6" stroke="#dbc3b6" points="1732.5,-972 1643.5,-972 1643.5,-936 1732.5,-936 1732.5,-972"/>
<text text-anchor="middle" x="1688" y="-949.6" font-family="Times,serif" font-size="18.00">unitriginv</text>
</a>
</g>
</g>
<!-- Schur_altdef&#45;&gt;unitriginv -->
<g id="edge2" class="edge"><title>Schur_altdef&#45;&gt;unitriginv</title>
<path fill="none" stroke="black" d="M1688,-1007.7C1688,-999.983 1688,-990.712 1688,-982.112"/>
<polygon fill="black" stroke="black" points="1691.5,-982.104 1688,-972.104 1684.5,-982.104 1691.5,-982.104"/>
</g>
<!-- Schur_mpoly&#45;&gt;stdtab -->
<g id="edge3" class="edge"><title>Schur_mpoly&#45;&gt;stdtab</title>
<path fill="none" stroke="black" d="M1208.02,-647.978C1205.11,-621.355 1200,-568.226 1200,-523 1200,-523 1200,-523 1200,-449 1200,-386.47 1130.61,-344.185 1084.39,-322.954"/>
<polygon fill="black" stroke="black" points="1085.75,-319.731 1075.19,-318.866 1082.91,-326.127 1085.75,-319.731"/>
</g>
<!-- antisym -->
<g id="node37" class="node"><title>antisym</title>
<g id="a_node37"><a xlink:href="Combi.MPoly.antisym.html" xlink:title="antisym">
<polygon fill="#dbc3b6" stroke="#dbc3b6" points="1394,-612 1320,-612 1320,-576 1394,-576 1394,-612"/>
<text text-anchor="middle" x="1357" y="-589.6" font-family="Times,serif" font-size="18.00">antisym</text>
</a>
</g>
</g>
<!-- Schur_mpoly&#45;&gt;antisym -->
<g id="edge4" class="edge"><title>Schur_mpoly&#45;&gt;antisym</title>
<path fill="none" stroke="black" d="M1245.96,-647.876C1265.88,-638.392 1290.82,-626.513 1312.02,-616.419"/>
<polygon fill="black" stroke="black" points="1313.63,-619.528 1321.16,-612.068 1310.62,-613.208 1313.63,-619.528"/>
</g>
<!-- presentSn -->
<g id="node51" class="node"><title>presentSn</title>
<g id="a_node51"><a xlink:href="Combi.SymGroup.presentSn.html" xlink:title="presentSn">
<polygon fill="#dbc3b6" stroke="#dbc3b6" points="1861.5,-540 1772.5,-540 1772.5,-504 1861.5,-504 1861.5,-540"/>
<text text-anchor="middle" x="1817" y="-517.6" font-family="Times,serif" font-size="18.00">presentSn</text>
</a>
</g>
</g>
<!-- antisym&#45;&gt;presentSn -->
<g id="edge9" class="edge"><title>antisym&#45;&gt;presentSn</title>
<path fill="none" stroke="black" d="M1394.15,-585.092C1409,-582.057 1426.27,-578.682 1442,-576 1555.36,-556.669 1688.86,-539.014 1762.07,-529.767"/>
<polygon fill="black" stroke="black" points="1762.94,-533.186 1772.42,-528.465 1762.06,-526.24 1762.94,-533.186"/>
</g>
<!-- homogsym -->
<g id="node38" class="node"><title>homogsym</title>
<g id="a_node38"><a xlink:href="Combi.MPoly.homogsym.html" xlink:title="homogsym">
<polygon fill="#dbc3b6" stroke="#dbc3b6" points="1917,-1188 1819,-1188 1819,-1152 1917,-1152 1917,-1188"/>
<text text-anchor="middle" x="1868" y="-1165.6" font-family="Times,serif" font-size="18.00">homogsym</text>
</a>
</g>
</g>
<!-- homogsym&#45;&gt;sympoly -->
<g id="edge7" class="edge"><title>homogsym&#45;&gt;sympoly</title>
<path fill="none" stroke="black" d="M1868,-1151.7C1868,-1143.98 1868,-1134.71 1868,-1126.11"/>
<polygon fill="black" stroke="black" points="1871.5,-1126.1 1868,-1116.1 1864.5,-1126.1 1871.5,-1126.1"/>
</g>
<!-- sympoly&#45;&gt;Schur_altdef -->
<g id="edge5" class="edge"><title>sympoly&#45;&gt;Schur_altdef</title>
<path fill="none" stroke="black" d="M1828.94,-1081.81C1803.32,-1071.85 1769.49,-1058.69 1741.39,-1047.76"/>
<polygon fill="black" stroke="black" points="1742.31,-1044.36 1731.72,-1044 1739.77,-1050.89 1742.31,-1044.36"/>
</g>
<!-- permcent -->
<g id="node50" class="node"><title>permcent</title>
<g id="a_node50"><a xlink:href="Combi.SymGroup.permcent.html" xlink:title="permcent">
<polygon fill="#dbc3b6" stroke="#dbc3b6" points="2022,-1044 1938,-1044 1938,-1008 2022,-1008 2022,-1044"/>
<text text-anchor="middle" x="1980" y="-1021.6" font-family="Times,serif" font-size="18.00">permcent</text>
</a>
</g>
</g>
<!-- sympoly&#45;&gt;permcent -->
<g id="edge6" class="edge"><title>sympoly&#45;&gt;permcent</title>
<path fill="none" stroke="black" d="M1895.4,-1079.88C1909.91,-1070.81 1927.92,-1059.55 1943.59,-1049.76"/>
<polygon fill="black" stroke="black" points="1945.87,-1052.46 1952.5,-1044.19 1942.16,-1046.52 1945.87,-1052.46"/>
</g>
<!-- ordcast&#45;&gt;tools -->
<g id="edge39" class="edge"><title>ordcast&#45;&gt;tools</title>
<path fill="none" stroke="black" d="M2166.64,-509.344C2216.49,-490.536 2301,-448.412 2301,-379 2301,-379 2301,-379 2301,-161 2301,-37.6295 1839.4,-21.4036 1702.7,-19.3034"/>
<polygon fill="black" stroke="black" points="1702.37,-15.7987 1692.33,-19.162 1702.28,-22.798 1702.37,-15.7987"/>
</g>
<!-- sorted&#45;&gt;tools -->
<g id="edge38" class="edge"><title>sorted&#45;&gt;tools</title>
<path fill="none" stroke="black" d="M1102.1,-85.3351C1202.59,-73.4925 1518.38,-36.278 1627.49,-23.4209"/>
<polygon fill="black" stroke="black" points="1628.16,-26.8658 1637.68,-22.2194 1627.34,-19.9139 1628.16,-26.8658"/>
</g>
<!-- unitriginv&#45;&gt;ordtype -->
<g id="edge37" class="edge"><title>unitriginv&#45;&gt;ordtype</title>
<path fill="none" stroke="black" d="M1688.93,-935.908C1693.12,-848.952 1705.84,-447.93 1604,-144 1600.84,-134.57 1595.78,-125.032 1590.61,-116.697"/>
<polygon fill="black" stroke="black" points="1593.45,-114.638 1585.05,-108.187 1587.59,-118.471 1593.45,-114.638"/>
</g>
<!-- Frobenius_char -->
<g id="node47" class="node"><title>Frobenius_char</title>
<g id="a_node47"><a xlink:href="Combi.SymGroup.Frobenius_char.html" xlink:title="Frobenius_char">
<polygon fill="#dbc3b6" stroke="#dbc3b6" points="2120.5,-1188 1989.5,-1188 1989.5,-1152 2120.5,-1152 2120.5,-1188"/>
<text text-anchor="middle" x="2055" y="-1165.6" font-family="Times,serif" font-size="18.00">Frobenius_char</text>
</a>
</g>
</g>
<!-- Frobenius_char&#45;&gt;sympoly -->
<g id="edge16" class="edge"><title>Frobenius_char&#45;&gt;sympoly</title>
<path fill="none" stroke="black" d="M2009.25,-1151.88C1981.18,-1141.37 1945.25,-1127.92 1916.66,-1117.21"/>
<polygon fill="black" stroke="black" points="1917.86,-1113.93 1907.26,-1113.7 1915.4,-1120.48 1917.86,-1113.93"/>
</g>
<!-- towerSn -->
<g id="node54" class="node"><title>towerSn</title>
<g id="a_node54"><a xlink:href="Combi.SymGroup.towerSn.html" xlink:title="towerSn">
<polygon fill="#dbc3b6" stroke="#dbc3b6" points="2094.5,-1116 2015.5,-1116 2015.5,-1080 2094.5,-1080 2094.5,-1116"/>
<text text-anchor="middle" x="2055" y="-1093.6" font-family="Times,serif" font-size="18.00">towerSn</text>
</a>
</g>
</g>
<!-- Frobenius_char&#45;&gt;towerSn -->
<g id="edge17" class="edge"><title>Frobenius_char&#45;&gt;towerSn</title>
<path fill="none" stroke="black" d="M2055,-1151.7C2055,-1143.98 2055,-1134.71 2055,-1126.11"/>
<polygon fill="black" stroke="black" points="2058.5,-1126.1 2055,-1116.1 2051.5,-1126.1 2058.5,-1126.1"/>
</g>
<!-- cycles -->
<g id="node48" class="node"><title>cycles</title>
<g id="a_node48"><a xlink:href="Combi.SymGroup.cycles.html" xlink:title="cycles">
<polygon fill="#dbc3b6" stroke="#dbc3b6" points="1427,-252 1365,-252 1365,-216 1427,-216 1427,-252"/>
<text text-anchor="middle" x="1396" y="-229.6" font-family="Times,serif" font-size="18.00">cycles</text>
</a>
</g>
</g>
<!-- cycles&#45;&gt;partition -->
<g id="edge20" class="edge"><title>cycles&#45;&gt;partition</title>
<path fill="none" stroke="black" d="M1364.72,-224.697C1353.49,-221.813 1340.71,-218.641 1329,-216 1248.57,-197.854 1227.68,-197.001 1147,-180 1138.63,-178.237 1129.76,-176.307 1121.14,-174.401"/>
<polygon fill="black" stroke="black" points="1121.71,-170.942 1111.19,-172.185 1120.19,-177.775 1121.71,-170.942"/>
</g>
<!-- cycles&#45;&gt;permcomp -->
<g id="edge21" class="edge"><title>cycles&#45;&gt;permcomp</title>
<path fill="none" stroke="black" d="M1364.78,-219.834C1340.92,-209.772 1307.55,-195.703 1279.99,-184.08"/>
<polygon fill="black" stroke="black" points="1281.08,-180.743 1270.51,-180.082 1278.36,-187.193 1281.08,-180.743"/>
</g>
<!-- cycletype&#45;&gt;fibered_set -->
<g id="edge18" class="edge"><title>cycletype&#45;&gt;fibered_set</title>
<path fill="none" stroke="black" d="M1997,-287.697C1997,-279.983 1997,-270.712 1997,-262.112"/>
<polygon fill="black" stroke="black" points="2000.5,-262.104 1997,-252.104 1993.5,-262.104 2000.5,-262.104"/>
</g>
<!-- cycletype&#45;&gt;cycles -->
<g id="edge19" class="edge"><title>cycletype&#45;&gt;cycles</title>
<path fill="none" stroke="black" d="M1953.87,-301.558C1844.3,-292.68 1557.29,-268.545 1463,-252 1454.5,-250.509 1445.5,-248.516 1436.94,-246.419"/>
<polygon fill="black" stroke="black" points="1437.7,-243.002 1427.15,-243.934 1435.98,-249.787 1437.7,-243.002"/>
</g>
<!-- permcent&#45;&gt;cycletype -->
<g id="edge15" class="edge"><title>permcent&#45;&gt;cycletype</title>
<path fill="none" stroke="black" d="M1980.59,-1007.95C1981.47,-981.297 1983,-928.125 1983,-883 1983,-883 1983,-883 1983,-449 1983,-409.022 1988.56,-363.017 1992.68,-334.471"/>
<polygon fill="black" stroke="black" points="1996.16,-334.84 1994.17,-324.434 1989.24,-333.811 1996.16,-334.84"/>
</g>
<!-- presentSn&#45;&gt;congr -->
<g id="edge14" class="edge"><title>presentSn&#45;&gt;congr</title>
<path fill="none" stroke="black" d="M1817.99,-503.697C1818.43,-495.983 1818.96,-486.712 1819.45,-478.112"/>
<polygon fill="black" stroke="black" points="1822.95,-478.288 1820.02,-468.104 1815.96,-477.888 1822.95,-478.288"/>
</g>
<!-- reprS2 -->
<g id="node52" class="node"><title>reprS2</title>
<g id="a_node52"><a xlink:href="Combi.SymGroup.reprS2.html" xlink:title="reprS2">
<polygon fill="#dbc3b6" stroke="#dbc3b6" points="1849.5,-684 1784.5,-684 1784.5,-648 1849.5,-648 1849.5,-684"/>
<text text-anchor="middle" x="1817" y="-661.6" font-family="Times,serif" font-size="18.00">reprS2</text>
</a>
</g>
</g>
<!-- reprdim1 -->
<g id="node53" class="node"><title>reprdim1</title>
<g id="a_node53"><a xlink:href="Combi.SymGroup.reprdim1.html" xlink:title="reprdim1">
<polygon fill="#dbc3b6" stroke="#dbc3b6" points="1858.5,-612 1775.5,-612 1775.5,-576 1858.5,-576 1858.5,-612"/>
<text text-anchor="middle" x="1817" y="-589.6" font-family="Times,serif" font-size="18.00">reprdim1</text>
</a>
</g>
</g>
<!-- reprS2&#45;&gt;reprdim1 -->
<g id="edge12" class="edge"><title>reprS2&#45;&gt;reprdim1</title>
<path fill="none" stroke="black" d="M1817,-647.697C1817,-639.983 1817,-630.712 1817,-622.112"/>
<polygon fill="black" stroke="black" points="1820.5,-622.104 1817,-612.104 1813.5,-622.104 1820.5,-622.104"/>
</g>
<!-- reprdim1&#45;&gt;presentSn -->
<g id="edge13" class="edge"><title>reprdim1&#45;&gt;presentSn</title>
<path fill="none" stroke="black" d="M1817,-575.697C1817,-567.983 1817,-558.712 1817,-550.112"/>
<polygon fill="black" stroke="black" points="1820.5,-550.104 1817,-540.104 1813.5,-550.104 1820.5,-550.104"/>
</g>
<!-- towerSn&#45;&gt;ordcast -->
<g id="edge10" class="edge"><title>towerSn&#45;&gt;ordcast</title>
<path fill="none" stroke="black" d="M2071.49,-1079.77C2093.84,-1054.53 2131,-1005.05 2131,-955 2131,-955 2131,-955 2131,-665 2131,-624.996 2131,-578.653 2131,-550.08"/>
<polygon fill="black" stroke="black" points="2134.5,-550.049 2131,-540.049 2127.5,-550.049 2134.5,-550.049"/>
</g>
<!-- towerSn&#45;&gt;permcent -->
<g id="edge11" class="edge"><title>towerSn&#45;&gt;permcent</title>
<path fill="none" stroke="black" d="M2036.46,-1079.7C2027.2,-1071.05 2015.84,-1060.45 2005.74,-1051.03"/>
<polygon fill="black" stroke="black" points="2008.02,-1048.37 1998.33,-1044.1 2003.25,-1053.49 2008.02,-1048.37"/>
</g>
</g>
</svg>
