<?xml version="1.0" encoding="UTF-8" standalone="no"?>
<!DOCTYPE svg PUBLIC "-//W3C//DTD SVG 1.1//EN"
 "http://www.w3.org/Graphics/SVG/1.1/DTD/svg11.dtd">
<!-- Generated by graphviz version 2.38.0 (20140413.2041)
 -->
<!-- Title: depend Pages: 1 -->
<svg width="2255pt" height="1124pt"
 viewBox="0.00 0.00 2255.00 1124.00" xmlns="http://www.w3.org/2000/svg" xmlns:xlink="http://www.w3.org/1999/xlink">
<g id="graph0" class="graph" transform="scale(1 1) rotate(0) translate(4 1120)">
<title>depend</title>
<!-- Ccpo -->
<g id="node1" class="node"><title>Ccpo</title>
<g id="a_node1"><a xlink:href="3rdparty.ALEA.Ccpo.html" xlink:title="Ccpo">
<polygon fill="#dbc3b6" stroke="#dbc3b6" points="182,-324 126,-324 126,-288 182,-288 182,-324"/>
<text text-anchor="middle" x="154" y="-301.6" font-family="Times,serif" font-size="18.00">Ccpo</text>
</a>
</g>
</g>
<!-- Misc -->
<g id="node2" class="node"><title>Misc</title>
<g id="a_node2"><a xlink:href="3rdparty.ALEA.Misc.html" xlink:title="Misc">
<polygon fill="#dbc3b6" stroke="#dbc3b6" points="54,-324 0,-324 0,-288 54,-288 54,-324"/>
<text text-anchor="middle" x="27" y="-301.6" font-family="Times,serif" font-size="18.00">Misc</text>
</a>
</g>
</g>
<!-- combclass -->
<g id="node3" class="node"><title>combclass</title>
<g id="a_node3"><a xlink:href="Combi.Basic.combclass.html" xlink:title="combclass">
<polygon fill="#dbc3b6" stroke="#dbc3b6" points="1592,-108 1500,-108 1500,-72 1592,-72 1592,-108"/>
<text text-anchor="middle" x="1546" y="-85.6" font-family="Times,serif" font-size="18.00">combclass</text>
</a>
</g>
</g>
<!-- tools -->
<g id="node42" class="node"><title>tools</title>
<g id="a_node42"><a xlink:href="Combi.SSRcomplements.tools.html" xlink:title="tools">
<polygon fill="#dbc3b6" stroke="#dbc3b6" points="1883,-36 1829,-36 1829,-0 1883,-0 1883,-36"/>
<text text-anchor="middle" x="1856" y="-13.6" font-family="Times,serif" font-size="18.00">tools</text>
</a>
</g>
</g>
<!-- combclass&#45;&gt;tools -->
<g id="edge20" class="edge"><title>combclass&#45;&gt;tools</title>
<path fill="none" stroke="black" d="M1592.08,-78.5959C1653.84,-64.6487 1762.27,-40.1648 1819.01,-27.3521"/>
<polygon fill="black" stroke="black" points="1820,-30.7174 1828.98,-25.1007 1818.46,-23.8893 1820,-30.7174"/>
</g>
<!-- congr -->
<g id="node4" class="node"><title>congr</title>
<g id="a_node4"><a xlink:href="Combi.Basic.congr.html" xlink:title="congr">
<polygon fill="#dbc3b6" stroke="#dbc3b6" points="1828.5,-468 1769.5,-468 1769.5,-432 1828.5,-432 1828.5,-468"/>
<text text-anchor="middle" x="1799" y="-445.6" font-family="Times,serif" font-size="18.00">congr</text>
</a>
</g>
</g>
<!-- permuted -->
<g id="node10" class="node"><title>permuted</title>
<g id="a_node10"><a xlink:href="Combi.Combi.permuted.html" xlink:title="permuted">
<polygon fill="#dbc3b6" stroke="#dbc3b6" points="1840,-396 1754,-396 1754,-360 1840,-360 1840,-396"/>
<text text-anchor="middle" x="1797" y="-373.6" font-family="Times,serif" font-size="18.00">permuted</text>
</a>
</g>
</g>
<!-- congr&#45;&gt;permuted -->
<g id="edge18" class="edge"><title>congr&#45;&gt;permuted</title>
<path fill="none" stroke="black" d="M1798.51,-431.697C1798.29,-423.983 1798.02,-414.712 1797.77,-406.112"/>
<polygon fill="black" stroke="black" points="1801.27,-406 1797.49,-396.104 1794.28,-406.2 1801.27,-406"/>
</g>
<!-- vectNK -->
<g id="node17" class="node"><title>vectNK</title>
<g id="a_node17"><a xlink:href="Combi.Combi.vectNK.html" xlink:title="vectNK">
<polygon fill="#dbc3b6" stroke="#dbc3b6" points="2138,-180 2064,-180 2064,-144 2138,-144 2138,-180"/>
<text text-anchor="middle" x="2101" y="-157.6" font-family="Times,serif" font-size="18.00">vectNK</text>
</a>
</g>
</g>
<!-- congr&#45;&gt;vectNK -->
<g id="edge19" class="edge"><title>congr&#45;&gt;vectNK</title>
<path fill="none" stroke="black" d="M1828.53,-439.789C1876.27,-423.543 1970.83,-385.568 2028,-324 2064.34,-284.869 2085,-224.554 2094.51,-189.929"/>
<polygon fill="black" stroke="black" points="2097.95,-190.622 2097.11,-180.06 2091.18,-188.84 2097.95,-190.622"/>
</g>
<!-- ordtype -->
<g id="node5" class="node"><title>ordtype</title>
<g id="a_node5"><a xlink:href="Combi.Basic.ordtype.html" xlink:title="ordtype">
<polygon fill="#dbc3b6" stroke="#dbc3b6" points="1816,-108 1742,-108 1742,-72 1816,-72 1816,-108"/>
<text text-anchor="middle" x="1779" y="-85.6" font-family="Times,serif" font-size="18.00">ordtype</text>
</a>
</g>
</g>
<!-- ordtype&#45;&gt;tools -->
<g id="edge17" class="edge"><title>ordtype&#45;&gt;tools</title>
<path fill="none" stroke="black" d="M1798.03,-71.6966C1807.54,-63.0503 1819.21,-52.4486 1829.57,-43.027"/>
<polygon fill="black" stroke="black" points="1832.14,-45.4209 1837.19,-36.1043 1827.43,-40.2413 1832.14,-45.4209"/>
</g>
<!-- Yamanouchi -->
<g id="node6" class="node"><title>Yamanouchi</title>
<g id="a_node6"><a xlink:href="Combi.Combi.Yamanouchi.html" xlink:title="Yamanouchi">
<polygon fill="#dbc3b6" stroke="#dbc3b6" points="1111,-252 1001,-252 1001,-216 1111,-216 1111,-252"/>
<text text-anchor="middle" x="1056" y="-229.6" font-family="Times,serif" font-size="18.00">Yamanouchi</text>
</a>
</g>
</g>
<!-- partition -->
<g id="node9" class="node"><title>partition</title>
<g id="a_node9"><a xlink:href="Combi.Combi.partition.html" xlink:title="partition">
<polygon fill="#dbc3b6" stroke="#dbc3b6" points="1358,-180 1278,-180 1278,-144 1358,-144 1358,-180"/>
<text text-anchor="middle" x="1318" y="-157.6" font-family="Times,serif" font-size="18.00">partition</text>
</a>
</g>
</g>
<!-- Yamanouchi&#45;&gt;partition -->
<g id="edge70" class="edge"><title>Yamanouchi&#45;&gt;partition</title>
<path fill="none" stroke="black" d="M1111.24,-218.24C1157.58,-205.86 1223.19,-188.331 1268,-176.36"/>
<polygon fill="black" stroke="black" points="1269.03,-179.707 1277.79,-173.744 1267.22,-172.944 1269.03,-179.707"/>
</g>
<!-- composition -->
<g id="node7" class="node"><title>composition</title>
<g id="a_node7"><a xlink:href="Combi.Combi.composition.html" xlink:title="composition">
<polygon fill="#dbc3b6" stroke="#dbc3b6" points="1433,-252 1325,-252 1325,-216 1433,-216 1433,-252"/>
<text text-anchor="middle" x="1379" y="-229.6" font-family="Times,serif" font-size="18.00">composition</text>
</a>
</g>
</g>
<!-- composition&#45;&gt;partition -->
<g id="edge63" class="edge"><title>composition&#45;&gt;partition</title>
<path fill="none" stroke="black" d="M1363.92,-215.697C1356.61,-207.305 1347.69,-197.07 1339.66,-187.861"/>
<polygon fill="black" stroke="black" points="1342.11,-185.344 1332.91,-180.104 1336.84,-189.943 1342.11,-185.344"/>
</g>
<!-- multinomial -->
<g id="node8" class="node"><title>multinomial</title>
<g id="a_node8"><a xlink:href="Combi.Combi.multinomial.html" xlink:title="multinomial">
<polygon fill="#dbc3b6" stroke="#dbc3b6" points="1992,-180 1888,-180 1888,-144 1992,-144 1992,-180"/>
<text text-anchor="middle" x="1940" y="-157.6" font-family="Times,serif" font-size="18.00">multinomial</text>
</a>
</g>
</g>
<!-- multinomial&#45;&gt;tools -->
<g id="edge62" class="edge"><title>multinomial&#45;&gt;tools</title>
<path fill="none" stroke="black" d="M1929.87,-143.871C1915.3,-119.244 1888.32,-73.6377 1871.31,-44.8845"/>
<polygon fill="black" stroke="black" points="1874.27,-43.0141 1866.17,-36.1893 1868.25,-46.5781 1874.27,-43.0141"/>
</g>
<!-- partition&#45;&gt;combclass -->
<g id="edge67" class="edge"><title>partition&#45;&gt;combclass</title>
<path fill="none" stroke="black" d="M1358.24,-148.647C1394.85,-137.406 1449.25,-120.704 1490.08,-108.168"/>
<polygon fill="black" stroke="black" points="1491.36,-111.438 1499.89,-105.157 1489.3,-104.746 1491.36,-111.438"/>
</g>
<!-- partition&#45;&gt;ordtype -->
<g id="edge68" class="edge"><title>partition&#45;&gt;ordtype</title>
<path fill="none" stroke="black" d="M1358.1,-151.374C1369.65,-148.78 1382.29,-146.112 1394,-144 1515.04,-122.171 1658.91,-104.557 1731.72,-96.2228"/>
<polygon fill="black" stroke="black" points="1732.4,-99.6686 1741.94,-95.0612 1731.61,-92.7134 1732.4,-99.6686"/>
</g>
<!-- sorted -->
<g id="node41" class="node"><title>sorted</title>
<g id="a_node41"><a xlink:href="Combi.SSRcomplements.sorted.html" xlink:title="sorted">
<polygon fill="#dbc3b6" stroke="#dbc3b6" points="1349,-108 1287,-108 1287,-72 1349,-72 1349,-108"/>
<text text-anchor="middle" x="1318" y="-85.6" font-family="Times,serif" font-size="18.00">sorted</text>
</a>
</g>
</g>
<!-- partition&#45;&gt;sorted -->
<g id="edge69" class="edge"><title>partition&#45;&gt;sorted</title>
<path fill="none" stroke="black" d="M1318,-143.697C1318,-135.983 1318,-126.712 1318,-118.112"/>
<polygon fill="black" stroke="black" points="1321.5,-118.104 1318,-108.104 1314.5,-118.104 1321.5,-118.104"/>
</g>
<!-- permuted&#45;&gt;composition -->
<g id="edge64" class="edge"><title>permuted&#45;&gt;composition</title>
<path fill="none" stroke="black" d="M1753.84,-362.338C1678.82,-336.854 1524.25,-284.343 1438.9,-255.347"/>
<polygon fill="black" stroke="black" points="1439.94,-252.005 1429.34,-252.103 1437.69,-258.633 1439.94,-252.005"/>
</g>
<!-- permuted&#45;&gt;multinomial -->
<g id="edge65" class="edge"><title>permuted&#45;&gt;multinomial</title>
<path fill="none" stroke="black" d="M1802.58,-359.645C1813.16,-328.556 1838.4,-262.293 1875,-216 1883.71,-204.986 1895.08,-194.75 1905.87,-186.269"/>
<polygon fill="black" stroke="black" points="1908.1,-188.971 1913.95,-180.141 1903.87,-183.392 1908.1,-188.971"/>
</g>
<!-- cycletype -->
<g id="node45" class="node"><title>cycletype</title>
<g id="a_node45"><a xlink:href="Combi.SymGroup.cycletype.html" xlink:title="cycletype">
<polygon fill="#dbc3b6" stroke="#dbc3b6" points="1992,-324 1906,-324 1906,-288 1992,-288 1992,-324"/>
<text text-anchor="middle" x="1949" y="-301.6" font-family="Times,serif" font-size="18.00">cycletype</text>
</a>
</g>
</g>
<!-- permuted&#45;&gt;cycletype -->
<g id="edge66" class="edge"><title>permuted&#45;&gt;cycletype</title>
<path fill="none" stroke="black" d="M1834.18,-359.876C1854.87,-350.349 1880.8,-338.407 1902.78,-328.283"/>
<polygon fill="black" stroke="black" points="1904.32,-331.43 1911.94,-324.068 1901.39,-325.072 1904.32,-331.43"/>
</g>
<!-- skewtab -->
<g id="node11" class="node"><title>skewtab</title>
<g id="a_node11"><a xlink:href="Combi.Combi.skewtab.html" xlink:title="skewtab">
<polygon fill="#dbc3b6" stroke="#dbc3b6" points="1284.5,-900 1207.5,-900 1207.5,-864 1284.5,-864 1284.5,-900"/>
<text text-anchor="middle" x="1246" y="-877.6" font-family="Times,serif" font-size="18.00">skewtab</text>
</a>
</g>
</g>
<!-- stdtab -->
<g id="node14" class="node"><title>stdtab</title>
<g id="a_node14"><a xlink:href="Combi.Combi.stdtab.html" xlink:title="stdtab">
<polygon fill="#dbc3b6" stroke="#dbc3b6" points="1242,-324 1180,-324 1180,-288 1242,-288 1242,-324"/>
<text text-anchor="middle" x="1211" y="-301.6" font-family="Times,serif" font-size="18.00">stdtab</text>
</a>
</g>
</g>
<!-- skewtab&#45;&gt;stdtab -->
<g id="edge61" class="edge"><title>skewtab&#45;&gt;stdtab</title>
<path fill="none" stroke="black" d="M1207.2,-881.38C1120.59,-879.994 919,-863.404 919,-739 919,-739 919,-739 919,-449 919,-338.944 1088.83,-314.164 1169.45,-308.601"/>
<polygon fill="black" stroke="black" points="1169.99,-312.075 1179.75,-307.962 1169.55,-305.089 1169.99,-312.075"/>
</g>
<!-- slicedbij -->
<g id="node12" class="node"><title>slicedbij</title>
<g id="a_node12"><a xlink:href="Combi.Combi.slicedbij.html" xlink:title="slicedbij">
<polygon fill="#dbc3b6" stroke="#dbc3b6" points="1990.5,-252 1911.5,-252 1911.5,-216 1990.5,-216 1990.5,-252"/>
<text text-anchor="middle" x="1951" y="-229.6" font-family="Times,serif" font-size="18.00">slicedbij</text>
</a>
</g>
</g>
<!-- std -->
<g id="node13" class="node"><title>std</title>
<g id="a_node13"><a xlink:href="Combi.Combi.std.html" xlink:title="std">
<polygon fill="#dbc3b6" stroke="#dbc3b6" points="1693,-252 1639,-252 1639,-216 1693,-216 1693,-252"/>
<text text-anchor="middle" x="1666" y="-229.6" font-family="Times,serif" font-size="18.00">std</text>
</a>
</g>
</g>
<!-- std&#45;&gt;combclass -->
<g id="edge58" class="edge"><title>std&#45;&gt;combclass</title>
<path fill="none" stroke="black" d="M1651.53,-215.871C1630.53,-191.031 1591.5,-144.846 1567.25,-116.142"/>
<polygon fill="black" stroke="black" points="1569.65,-113.568 1560.53,-108.189 1564.31,-118.086 1569.65,-113.568"/>
</g>
<!-- std&#45;&gt;ordtype -->
<g id="edge59" class="edge"><title>std&#45;&gt;ordtype</title>
<path fill="none" stroke="black" d="M1679.63,-215.871C1699.4,-191.031 1736.15,-144.846 1758.99,-116.142"/>
<polygon fill="black" stroke="black" points="1761.83,-118.193 1765.32,-108.189 1756.36,-113.835 1761.83,-118.193"/>
</g>
<!-- permcomp -->
<g id="node39" class="node"><title>permcomp</title>
<g id="a_node39"><a xlink:href="Combi.SSRcomplements.permcomp.html" xlink:title="permcomp">
<polygon fill="#dbc3b6" stroke="#dbc3b6" points="1524,-180 1430,-180 1430,-144 1524,-144 1524,-180"/>
<text text-anchor="middle" x="1477" y="-157.6" font-family="Times,serif" font-size="18.00">permcomp</text>
</a>
</g>
</g>
<!-- std&#45;&gt;permcomp -->
<g id="edge60" class="edge"><title>std&#45;&gt;permcomp</title>
<path fill="none" stroke="black" d="M1638.92,-222.971C1611.3,-212.742 1567.66,-196.577 1532.64,-183.606"/>
<polygon fill="black" stroke="black" points="1533.6,-180.231 1523.01,-180.04 1531.17,-186.795 1533.6,-180.231"/>
</g>
<!-- stdtab&#45;&gt;Yamanouchi -->
<g id="edge54" class="edge"><title>stdtab&#45;&gt;Yamanouchi</title>
<path fill="none" stroke="black" d="M1179.63,-290.834C1157.67,-280.916 1127.94,-267.487 1103.13,-256.285"/>
<polygon fill="black" stroke="black" points="1104.45,-253.039 1093.89,-252.113 1101.57,-259.418 1104.45,-253.039"/>
</g>
<!-- stdtab&#45;&gt;std -->
<g id="edge55" class="edge"><title>stdtab&#45;&gt;std</title>
<path fill="none" stroke="black" d="M1242.23,-302.162C1308.92,-295.798 1470.04,-278.81 1603,-252 1611.54,-250.278 1620.64,-248.056 1629.18,-245.791"/>
<polygon fill="black" stroke="black" points="1630.17,-249.149 1638.89,-243.138 1628.32,-242.396 1630.17,-249.149"/>
</g>
<!-- tableau -->
<g id="node16" class="node"><title>tableau</title>
<g id="a_node16"><a xlink:href="Combi.Combi.tableau.html" xlink:title="tableau">
<polygon fill="#dbc3b6" stroke="#dbc3b6" points="1253,-252 1183,-252 1183,-216 1253,-216 1253,-252"/>
<text text-anchor="middle" x="1218" y="-229.6" font-family="Times,serif" font-size="18.00">tableau</text>
</a>
</g>
</g>
<!-- stdtab&#45;&gt;tableau -->
<g id="edge56" class="edge"><title>stdtab&#45;&gt;tableau</title>
<path fill="none" stroke="black" d="M1212.73,-287.697C1213.5,-279.983 1214.43,-270.712 1215.29,-262.112"/>
<polygon fill="black" stroke="black" points="1218.78,-262.403 1216.29,-252.104 1211.81,-261.706 1218.78,-262.403"/>
</g>
<!-- subseq -->
<g id="node15" class="node"><title>subseq</title>
<g id="a_node15"><a xlink:href="Combi.Combi.subseq.html" xlink:title="subseq">
<polygon fill="#dbc3b6" stroke="#dbc3b6" points="1066.5,-180 999.5,-180 999.5,-144 1066.5,-144 1066.5,-180"/>
<text text-anchor="middle" x="1033" y="-157.6" font-family="Times,serif" font-size="18.00">subseq</text>
</a>
</g>
</g>
<!-- subseq&#45;&gt;combclass -->
<g id="edge52" class="edge"><title>subseq&#45;&gt;combclass</title>
<path fill="none" stroke="black" d="M1066.66,-156.407C1152.93,-144.636 1382.66,-113.288 1489.68,-98.6855"/>
<polygon fill="black" stroke="black" points="1490.21,-102.146 1499.64,-97.3258 1489.26,-95.21 1490.21,-102.146"/>
</g>
<!-- subseq&#45;&gt;sorted -->
<g id="edge53" class="edge"><title>subseq&#45;&gt;sorted</title>
<path fill="none" stroke="black" d="M1066.53,-152.764C1118.89,-139.904 1219.94,-115.084 1276.71,-101.142"/>
<polygon fill="black" stroke="black" points="1277.89,-104.455 1286.77,-98.6702 1276.22,-97.6566 1277.89,-104.455"/>
</g>
<!-- tableau&#45;&gt;partition -->
<g id="edge57" class="edge"><title>tableau&#45;&gt;partition</title>
<path fill="none" stroke="black" d="M1242.46,-215.876C1255.3,-206.893 1271.2,-195.763 1285.09,-186.034"/>
<polygon fill="black" stroke="black" points="1287.26,-188.792 1293.44,-180.19 1283.24,-183.057 1287.26,-188.792"/>
</g>
<!-- vectNK&#45;&gt;tools -->
<g id="edge71" class="edge"><title>vectNK&#45;&gt;tools</title>
<path fill="none" stroke="black" d="M2073.6,-143.865C2044.26,-125.64 1996.2,-96.1666 1954,-72 1933.75,-60.4053 1910.83,-47.9706 1892.25,-38.0615"/>
<polygon fill="black" stroke="black" points="1893.71,-34.8736 1883.23,-33.2715 1890.42,-41.055 1893.71,-34.8736"/>
</g>
<!-- Erdos_Szekeres -->
<g id="node18" class="node"><title>Erdos_Szekeres</title>
<g id="a_node18"><a xlink:href="Combi.Erdos_Szekeres.Erdos_Szekeres.html" xlink:title="Erdos_Szekeres">
<polygon fill="#dbc3b6" stroke="#dbc3b6" points="2160.5,-756 2027.5,-756 2027.5,-720 2160.5,-720 2160.5,-756"/>
<text text-anchor="middle" x="2094" y="-733.6" font-family="Times,serif" font-size="18.00">Erdos_Szekeres</text>
</a>
</g>
</g>
<!-- Greene_inv -->
<g id="node24" class="node"><title>Greene_inv</title>
<g id="a_node24"><a xlink:href="Combi.LRrule.Greene_inv.html" xlink:title="Greene_inv">
<polygon fill="#dbc3b6" stroke="#dbc3b6" points="2111.5,-684 2010.5,-684 2010.5,-648 2111.5,-648 2111.5,-684"/>
<text text-anchor="middle" x="2061" y="-661.6" font-family="Times,serif" font-size="18.00">Greene_inv</text>
</a>
</g>
</g>
<!-- Erdos_Szekeres&#45;&gt;Greene_inv -->
<g id="edge51" class="edge"><title>Erdos_Szekeres&#45;&gt;Greene_inv</title>
<path fill="none" stroke="black" d="M2085.84,-719.697C2082.09,-711.728 2077.55,-702.1 2073.38,-693.264"/>
<polygon fill="black" stroke="black" points="2076.49,-691.657 2069.06,-684.104 2070.16,-694.642 2076.49,-691.657"/>
</g>
<!-- Qmeasure -->
<g id="node19" class="node"><title>Qmeasure</title>
<g id="a_node19"><a xlink:href="Combi.HookFormula.Qmeasure.html" xlink:title="Qmeasure">
<polygon fill="#dbc3b6" stroke="#dbc3b6" points="271.5,-396 182.5,-396 182.5,-360 271.5,-360 271.5,-396"/>
<text text-anchor="middle" x="227" y="-373.6" font-family="Times,serif" font-size="18.00">Qmeasure</text>
</a>
</g>
</g>
<!-- Qmeasure&#45;&gt;Ccpo -->
<g id="edge29" class="edge"><title>Qmeasure&#45;&gt;Ccpo</title>
<path fill="none" stroke="black" d="M208.955,-359.697C199.938,-351.05 188.882,-340.449 179.057,-331.027"/>
<polygon fill="black" stroke="black" points="181.478,-328.499 171.837,-324.104 176.633,-333.552 181.478,-328.499"/>
</g>
<!-- Qmeasure&#45;&gt;Misc -->
<g id="edge30" class="edge"><title>Qmeasure&#45;&gt;Misc</title>
<path fill="none" stroke="black" d="M182.116,-361.291C146.525,-348.834 97.3884,-331.636 64.0237,-319.958"/>
<polygon fill="black" stroke="black" points="64.8027,-316.523 54.2079,-316.523 62.4902,-323.13 64.8027,-316.523"/>
</g>
<!-- rat_coerce -->
<g id="node40" class="node"><title>rat_coerce</title>
<g id="a_node40"><a xlink:href="Combi.SSRcomplements.rat_coerce.html" xlink:title="rat_coerce">
<polygon fill="#dbc3b6" stroke="#dbc3b6" points="348,-324 254,-324 254,-288 348,-288 348,-324"/>
<text text-anchor="middle" x="301" y="-301.6" font-family="Times,serif" font-size="18.00">rat_coerce</text>
</a>
</g>
</g>
<!-- Qmeasure&#45;&gt;rat_coerce -->
<g id="edge31" class="edge"><title>Qmeasure&#45;&gt;rat_coerce</title>
<path fill="none" stroke="black" d="M245.292,-359.697C254.433,-351.05 265.64,-340.449 275.6,-331.027"/>
<polygon fill="black" stroke="black" points="278.059,-333.519 282.918,-324.104 273.248,-328.434 278.059,-333.519"/>
</g>
<!-- RSident -->
<g id="node20" class="node"><title>RSident</title>
<g id="a_node20"><a xlink:href="Combi.HookFormula.RSident.html" xlink:title="RSident">
<polygon fill="#dbc3b6" stroke="#dbc3b6" points="731,-540 655,-540 655,-504 731,-504 731,-540"/>
<text text-anchor="middle" x="693" y="-517.6" font-family="Times,serif" font-size="18.00">RSident</text>
</a>
</g>
</g>
<!-- hook -->
<g id="node21" class="node"><title>hook</title>
<g id="a_node21"><a xlink:href="Combi.HookFormula.hook.html" xlink:title="hook">
<polygon fill="#dbc3b6" stroke="#dbc3b6" points="640,-468 586,-468 586,-432 640,-432 640,-468"/>
<text text-anchor="middle" x="613" y="-445.6" font-family="Times,serif" font-size="18.00">hook</text>
</a>
</g>
</g>
<!-- RSident&#45;&gt;hook -->
<g id="edge27" class="edge"><title>RSident&#45;&gt;hook</title>
<path fill="none" stroke="black" d="M673.225,-503.697C663.246,-494.965 650.989,-484.24 640.143,-474.75"/>
<polygon fill="black" stroke="black" points="642.378,-472.055 632.548,-468.104 637.769,-477.323 642.378,-472.055"/>
</g>
<!-- Schensted -->
<g id="node25" class="node"><title>Schensted</title>
<g id="a_node25"><a xlink:href="Combi.LRrule.Schensted.html" xlink:title="Schensted">
<polygon fill="#dbc3b6" stroke="#dbc3b6" points="1184,-468 1092,-468 1092,-432 1184,-432 1184,-468"/>
<text text-anchor="middle" x="1138" y="-445.6" font-family="Times,serif" font-size="18.00">Schensted</text>
</a>
</g>
</g>
<!-- RSident&#45;&gt;Schensted -->
<g id="edge28" class="edge"><title>RSident&#45;&gt;Schensted</title>
<path fill="none" stroke="black" d="M731.326,-514.971C809.966,-502.601 989.875,-474.301 1081.75,-459.848"/>
<polygon fill="black" stroke="black" points="1082.37,-463.294 1091.71,-458.282 1081.28,-456.379 1082.37,-463.294"/>
</g>
<!-- hook&#45;&gt;subseq -->
<g id="edge23" class="edge"><title>hook&#45;&gt;subseq</title>
<path fill="none" stroke="black" d="M585.629,-439.67C566.27,-431.466 541.748,-417.441 530,-396 522.312,-381.968 520.982,-373.217 530,-360 636.571,-203.809 887.265,-171.448 988.971,-164.748"/>
<polygon fill="black" stroke="black" points="989.426,-168.227 999.196,-164.128 989.003,-161.239 989.426,-168.227"/>
</g>
<!-- hook&#45;&gt;Qmeasure -->
<g id="edge24" class="edge"><title>hook&#45;&gt;Qmeasure</title>
<path fill="none" stroke="black" d="M585.857,-444.078C522.782,-432.639 365.327,-404.085 281.507,-388.885"/>
<polygon fill="black" stroke="black" points="282.125,-385.44 271.661,-387.099 280.876,-392.327 282.125,-385.44"/>
</g>
<!-- recyama -->
<g id="node22" class="node"><title>recyama</title>
<g id="a_node22"><a xlink:href="Combi.HookFormula.recyama.html" xlink:title="recyama">
<polygon fill="#dbc3b6" stroke="#dbc3b6" points="810,-396 732,-396 732,-360 810,-360 810,-396"/>
<text text-anchor="middle" x="771" y="-373.6" font-family="Times,serif" font-size="18.00">recyama</text>
</a>
</g>
</g>
<!-- hook&#45;&gt;recyama -->
<g id="edge25" class="edge"><title>hook&#45;&gt;recyama</title>
<path fill="none" stroke="black" d="M640.161,-436.967C662.892,-426.896 695.874,-412.284 723.036,-400.25"/>
<polygon fill="black" stroke="black" points="724.649,-403.363 732.374,-396.113 721.813,-396.963 724.649,-403.363"/>
</g>
<!-- bigallpairs -->
<g id="node37" class="node"><title>bigallpairs</title>
<g id="a_node37"><a xlink:href="Combi.SSRcomplements.bigallpairs.html" xlink:title="bigallpairs">
<polygon fill="#dbc3b6" stroke="#dbc3b6" points="660,-396 566,-396 566,-360 660,-360 660,-396"/>
<text text-anchor="middle" x="613" y="-373.6" font-family="Times,serif" font-size="18.00">bigallpairs</text>
</a>
</g>
</g>
<!-- hook&#45;&gt;bigallpairs -->
<g id="edge26" class="edge"><title>hook&#45;&gt;bigallpairs</title>
<path fill="none" stroke="black" d="M613,-431.697C613,-423.983 613,-414.712 613,-406.112"/>
<polygon fill="black" stroke="black" points="616.5,-406.104 613,-396.104 609.5,-406.104 616.5,-406.104"/>
</g>
<!-- recyama&#45;&gt;stdtab -->
<g id="edge21" class="edge"><title>recyama&#45;&gt;stdtab</title>
<path fill="none" stroke="black" d="M810.324,-369.549C826.877,-366.481 846.356,-362.959 864,-360 974.165,-341.522 1104.47,-322.334 1169.59,-312.925"/>
<polygon fill="black" stroke="black" points="1170.45,-316.338 1179.85,-311.447 1169.45,-309.409 1170.45,-316.338"/>
</g>
<!-- recyama&#45;&gt;rat_coerce -->
<g id="edge22" class="edge"><title>recyama&#45;&gt;rat_coerce</title>
<path fill="none" stroke="black" d="M731.822,-367.424C720.322,-364.802 707.694,-362.106 696,-360 576.413,-338.468 435.015,-321.537 358.007,-313.026"/>
<polygon fill="black" stroke="black" points="358.354,-309.544 348.032,-311.931 357.59,-316.502 358.354,-309.544"/>
</g>
<!-- Greene -->
<g id="node23" class="node"><title>Greene</title>
<g id="a_node23"><a xlink:href="Combi.LRrule.Greene.html" xlink:title="Greene">
<polygon fill="#dbc3b6" stroke="#dbc3b6" points="2095.5,-612 2026.5,-612 2026.5,-576 2095.5,-576 2095.5,-612"/>
<text text-anchor="middle" x="2061" y="-589.6" font-family="Times,serif" font-size="18.00">Greene</text>
</a>
</g>
</g>
<!-- plactic -->
<g id="node30" class="node"><title>plactic</title>
<g id="a_node30"><a xlink:href="Combi.LRrule.plactic.html" xlink:title="plactic">
<polygon fill="#dbc3b6" stroke="#dbc3b6" points="1833.5,-540 1768.5,-540 1768.5,-504 1833.5,-504 1833.5,-540"/>
<text text-anchor="middle" x="1801" y="-517.6" font-family="Times,serif" font-size="18.00">plactic</text>
</a>
</g>
</g>
<!-- Greene&#45;&gt;plactic -->
<g id="edge49" class="edge"><title>Greene&#45;&gt;plactic</title>
<path fill="none" stroke="black" d="M2026.47,-583.705C1979.21,-570.979 1894.41,-548.148 1843.36,-534.404"/>
<polygon fill="black" stroke="black" points="1844.18,-531.002 1833.62,-531.782 1842.36,-537.761 1844.18,-531.002"/>
</g>
<!-- ordcast -->
<g id="node38" class="node"><title>ordcast</title>
<g id="a_node38"><a xlink:href="Combi.SSRcomplements.ordcast.html" xlink:title="ordcast">
<polygon fill="#dbc3b6" stroke="#dbc3b6" points="2131.5,-468 2060.5,-468 2060.5,-432 2131.5,-432 2131.5,-468"/>
<text text-anchor="middle" x="2096" y="-445.6" font-family="Times,serif" font-size="18.00">ordcast</text>
</a>
</g>
</g>
<!-- Greene&#45;&gt;ordcast -->
<g id="edge50" class="edge"><title>Greene&#45;&gt;ordcast</title>
<path fill="none" stroke="black" d="M2065.22,-575.871C2071.21,-551.564 2082.24,-506.819 2089.34,-478.013"/>
<polygon fill="black" stroke="black" points="2092.77,-478.736 2091.76,-468.189 2085.97,-477.061 2092.77,-478.736"/>
</g>
<!-- Greene_inv&#45;&gt;Greene -->
<g id="edge48" class="edge"><title>Greene_inv&#45;&gt;Greene</title>
<path fill="none" stroke="black" d="M2061,-647.697C2061,-639.983 2061,-630.712 2061,-622.112"/>
<polygon fill="black" stroke="black" points="2064.5,-622.104 2061,-612.104 2057.5,-622.104 2064.5,-622.104"/>
</g>
<!-- Schensted&#45;&gt;stdtab -->
<g id="edge46" class="edge"><title>Schensted&#45;&gt;stdtab</title>
<path fill="none" stroke="black" d="M1146.81,-431.871C1159.41,-407.35 1182.71,-362.032 1197.5,-333.259"/>
<polygon fill="black" stroke="black" points="1200.7,-334.683 1202.16,-324.189 1194.48,-331.483 1200.7,-334.683"/>
</g>
<!-- Schensted&#45;&gt;subseq -->
<g id="edge47" class="edge"><title>Schensted&#45;&gt;subseq</title>
<path fill="none" stroke="black" d="M1114.57,-431.881C1074.75,-401.15 995.25,-332.291 965,-252 959.359,-237.027 957.978,-230.377 965,-216 970.806,-204.114 980.707,-194.119 991.184,-186.125"/>
<polygon fill="black" stroke="black" points="993.497,-188.775 999.642,-180.145 989.456,-183.059 993.497,-188.775"/>
</g>
<!-- Yam_plact -->
<g id="node26" class="node"><title>Yam_plact</title>
<g id="a_node26"><a xlink:href="Combi.LRrule.Yam_plact.html" xlink:title="Yam_plact">
<polygon fill="#dbc3b6" stroke="#dbc3b6" points="1999,-828 1903,-828 1903,-792 1999,-792 1999,-828"/>
<text text-anchor="middle" x="1951" y="-805.6" font-family="Times,serif" font-size="18.00">Yam_plact</text>
</a>
</g>
</g>
<!-- stdplact -->
<g id="node32" class="node"><title>stdplact</title>
<g id="a_node32"><a xlink:href="Combi.LRrule.stdplact.html" xlink:title="stdplact">
<polygon fill="#dbc3b6" stroke="#dbc3b6" points="1955,-756 1881,-756 1881,-720 1955,-720 1955,-756"/>
<text text-anchor="middle" x="1918" y="-733.6" font-family="Times,serif" font-size="18.00">stdplact</text>
</a>
</g>
</g>
<!-- Yam_plact&#45;&gt;stdplact -->
<g id="edge45" class="edge"><title>Yam_plact&#45;&gt;stdplact</title>
<path fill="none" stroke="black" d="M1942.84,-791.697C1939.09,-783.728 1934.55,-774.1 1930.38,-765.264"/>
<polygon fill="black" stroke="black" points="1933.49,-763.657 1926.06,-756.104 1927.16,-766.642 1933.49,-763.657"/>
</g>
<!-- extract -->
<g id="node27" class="node"><title>extract</title>
<g id="a_node27"><a xlink:href="Combi.LRrule.extract.html" xlink:title="extract">
<polygon fill="#dbc3b6" stroke="#dbc3b6" points="1439.5,-1116 1372.5,-1116 1372.5,-1080 1439.5,-1080 1439.5,-1116"/>
<text text-anchor="middle" x="1406" y="-1093.6" font-family="Times,serif" font-size="18.00">extract</text>
</a>
</g>
</g>
<!-- implem -->
<g id="node29" class="node"><title>implem</title>
<g id="a_node29"><a xlink:href="Combi.LRrule.implem.html" xlink:title="implem">
<polygon fill="#dbc3b6" stroke="#dbc3b6" points="1441.5,-1044 1370.5,-1044 1370.5,-1008 1441.5,-1008 1441.5,-1044"/>
<text text-anchor="middle" x="1406" y="-1021.6" font-family="Times,serif" font-size="18.00">implem</text>
</a>
</g>
</g>
<!-- extract&#45;&gt;implem -->
<g id="edge44" class="edge"><title>extract&#45;&gt;implem</title>
<path fill="none" stroke="black" d="M1406,-1079.7C1406,-1071.98 1406,-1062.71 1406,-1054.11"/>
<polygon fill="black" stroke="black" points="1409.5,-1054.1 1406,-1044.1 1402.5,-1054.1 1409.5,-1054.1"/>
</g>
<!-- freeSchur -->
<g id="node28" class="node"><title>freeSchur</title>
<g id="a_node28"><a xlink:href="Combi.LRrule.freeSchur.html" xlink:title="freeSchur">
<polygon fill="#dbc3b6" stroke="#dbc3b6" points="1770.5,-900 1683.5,-900 1683.5,-864 1770.5,-864 1770.5,-900"/>
<text text-anchor="middle" x="1727" y="-877.6" font-family="Times,serif" font-size="18.00">freeSchur</text>
</a>
</g>
</g>
<!-- freeSchur&#45;&gt;Yam_plact -->
<g id="edge41" class="edge"><title>freeSchur&#45;&gt;Yam_plact</title>
<path fill="none" stroke="black" d="M1770.72,-867.337C1805.55,-856.453 1854.62,-841.117 1892.78,-829.194"/>
<polygon fill="black" stroke="black" points="1894.23,-832.408 1902.73,-826.085 1892.14,-825.727 1894.23,-832.408"/>
</g>
<!-- shuffle -->
<g id="node31" class="node"><title>shuffle</title>
<g id="a_node31"><a xlink:href="Combi.LRrule.shuffle.html" xlink:title="shuffle">
<polygon fill="#dbc3b6" stroke="#dbc3b6" points="1830.5,-828 1765.5,-828 1765.5,-792 1830.5,-792 1830.5,-828"/>
<text text-anchor="middle" x="1798" y="-805.6" font-family="Times,serif" font-size="18.00">shuffle</text>
</a>
</g>
</g>
<!-- freeSchur&#45;&gt;shuffle -->
<g id="edge42" class="edge"><title>freeSchur&#45;&gt;shuffle</title>
<path fill="none" stroke="black" d="M1744.55,-863.697C1753.23,-855.135 1763.86,-844.656 1773.35,-835.304"/>
<polygon fill="black" stroke="black" points="1775.99,-837.617 1780.65,-828.104 1771.07,-832.633 1775.99,-837.617"/>
</g>
<!-- sympoly -->
<g id="node36" class="node"><title>sympoly</title>
<g id="a_node36"><a xlink:href="Combi.MPoly.sympoly.html" xlink:title="sympoly">
<polygon fill="#dbc3b6" stroke="#dbc3b6" points="1695,-684 1617,-684 1617,-648 1695,-648 1695,-684"/>
<text text-anchor="middle" x="1656" y="-661.6" font-family="Times,serif" font-size="18.00">sympoly</text>
</a>
</g>
</g>
<!-- freeSchur&#45;&gt;sympoly -->
<g id="edge43" class="edge"><title>freeSchur&#45;&gt;sympoly</title>
<path fill="none" stroke="black" d="M1721.31,-863.849C1708.98,-826.675 1679.7,-738.439 1664.9,-693.82"/>
<polygon fill="black" stroke="black" points="1668.19,-692.622 1661.72,-684.232 1661.54,-694.826 1668.19,-692.622"/>
</g>
<!-- therule -->
<g id="node33" class="node"><title>therule</title>
<g id="a_node33"><a xlink:href="Combi.LRrule.therule.html" xlink:title="therule">
<polygon fill="#dbc3b6" stroke="#dbc3b6" points="1519.5,-972 1452.5,-972 1452.5,-936 1519.5,-936 1519.5,-972"/>
<text text-anchor="middle" x="1486" y="-949.6" font-family="Times,serif" font-size="18.00">therule</text>
</a>
</g>
</g>
<!-- implem&#45;&gt;therule -->
<g id="edge40" class="edge"><title>implem&#45;&gt;therule</title>
<path fill="none" stroke="black" d="M1425.78,-1007.7C1435.75,-998.965 1448.01,-988.24 1458.86,-978.75"/>
<polygon fill="black" stroke="black" points="1461.23,-981.323 1466.45,-972.104 1456.62,-976.055 1461.23,-981.323"/>
</g>
<!-- plactic&#45;&gt;congr -->
<g id="edge38" class="edge"><title>plactic&#45;&gt;congr</title>
<path fill="none" stroke="black" d="M1800.51,-503.697C1800.29,-495.983 1800.02,-486.712 1799.77,-478.112"/>
<polygon fill="black" stroke="black" points="1803.27,-478 1799.49,-468.104 1796.28,-478.2 1803.27,-478"/>
</g>
<!-- plactic&#45;&gt;Schensted -->
<g id="edge39" class="edge"><title>plactic&#45;&gt;Schensted</title>
<path fill="none" stroke="black" d="M1768.22,-511.84C1756.83,-508.947 1743.93,-505.989 1732,-504 1536.06,-471.318 1300.18,-457.854 1194.28,-453.159"/>
<polygon fill="black" stroke="black" points="1194.28,-449.656 1184.14,-452.719 1193.98,-456.649 1194.28,-449.656"/>
</g>
<!-- shuffle&#45;&gt;stdplact -->
<g id="edge37" class="edge"><title>shuffle&#45;&gt;stdplact</title>
<path fill="none" stroke="black" d="M1827.36,-791.876C1843.05,-782.724 1862.56,-771.342 1879.45,-761.485"/>
<polygon fill="black" stroke="black" points="1881.66,-764.252 1888.53,-756.19 1878.13,-758.205 1881.66,-764.252"/>
</g>
<!-- stdplact&#45;&gt;Greene_inv -->
<g id="edge36" class="edge"><title>stdplact&#45;&gt;Greene_inv</title>
<path fill="none" stroke="black" d="M1952.98,-719.876C1972.2,-710.469 1996.23,-698.708 2016.74,-688.667"/>
<polygon fill="black" stroke="black" points="2018.44,-691.73 2025.88,-684.19 2015.36,-685.443 2018.44,-691.73"/>
</g>
<!-- therule&#45;&gt;skewtab -->
<g id="edge34" class="edge"><title>therule&#45;&gt;skewtab</title>
<path fill="none" stroke="black" d="M1452.38,-943.193C1411.19,-931.179 1341.11,-910.741 1294.2,-897.057"/>
<polygon fill="black" stroke="black" points="1295.13,-893.685 1284.55,-894.245 1293.17,-900.405 1295.13,-893.685"/>
</g>
<!-- therule&#45;&gt;freeSchur -->
<g id="edge35" class="edge"><title>therule&#45;&gt;freeSchur</title>
<path fill="none" stroke="black" d="M1519.51,-943.267C1559.36,-931.693 1626.38,-912.226 1673.44,-898.556"/>
<polygon fill="black" stroke="black" points="1674.54,-901.883 1683.16,-895.732 1672.59,-895.161 1674.54,-901.883"/>
</g>
<!-- Schur_basis -->
<g id="node34" class="node"><title>Schur_basis</title>
<g id="a_node34"><a xlink:href="Combi.MPoly.Schur_basis.html" xlink:title="Schur_basis">
<polygon fill="#dbc3b6" stroke="#dbc3b6" points="1618.5,-1044 1513.5,-1044 1513.5,-1008 1618.5,-1008 1618.5,-1044"/>
<text text-anchor="middle" x="1566" y="-1021.6" font-family="Times,serif" font-size="18.00">Schur_basis</text>
</a>
</g>
</g>
<!-- Schur_basis&#45;&gt;therule -->
<g id="edge1" class="edge"><title>Schur_basis&#45;&gt;therule</title>
<path fill="none" stroke="black" d="M1546.22,-1007.7C1536.25,-998.965 1523.99,-988.24 1513.14,-978.75"/>
<polygon fill="black" stroke="black" points="1515.38,-976.055 1505.55,-972.104 1510.77,-981.323 1515.38,-976.055"/>
</g>
<!-- antisym -->
<g id="node35" class="node"><title>antisym</title>
<g id="a_node35"><a xlink:href="Combi.MPoly.antisym.html" xlink:title="antisym">
<polygon fill="#dbc3b6" stroke="#dbc3b6" points="1696,-612 1622,-612 1622,-576 1696,-576 1696,-612"/>
<text text-anchor="middle" x="1659" y="-589.6" font-family="Times,serif" font-size="18.00">antisym</text>
</a>
</g>
</g>
<!-- presentSn -->
<g id="node47" class="node"><title>presentSn</title>
<g id="a_node47"><a xlink:href="Combi.SymGroup.presentSn.html" xlink:title="presentSn">
<polygon fill="#dbc3b6" stroke="#dbc3b6" points="1696.5,-540 1607.5,-540 1607.5,-504 1696.5,-504 1696.5,-540"/>
<text text-anchor="middle" x="1652" y="-517.6" font-family="Times,serif" font-size="18.00">presentSn</text>
</a>
</g>
</g>
<!-- antisym&#45;&gt;presentSn -->
<g id="edge5" class="edge"><title>antisym&#45;&gt;presentSn</title>
<path fill="none" stroke="black" d="M1657.27,-575.697C1656.5,-567.983 1655.57,-558.712 1654.71,-550.112"/>
<polygon fill="black" stroke="black" points="1658.19,-549.706 1653.71,-540.104 1651.22,-550.403 1658.19,-549.706"/>
</g>
<!-- sympoly&#45;&gt;stdtab -->
<g id="edge2" class="edge"><title>sympoly&#45;&gt;stdtab</title>
<path fill="none" stroke="black" d="M1616.84,-656.5C1554.28,-642.826 1437.97,-616.967 1430,-612 1386.58,-584.951 1357,-574.159 1357,-523 1357,-523 1357,-523 1357,-449 1357,-389.87 1294.7,-347.397 1251.49,-325.052"/>
<polygon fill="black" stroke="black" points="1252.83,-321.808 1242.32,-320.46 1249.69,-328.067 1252.83,-321.808"/>
</g>
<!-- sympoly&#45;&gt;antisym -->
<g id="edge3" class="edge"><title>sympoly&#45;&gt;antisym</title>
<path fill="none" stroke="black" d="M1656.74,-647.697C1657.07,-639.983 1657.47,-630.712 1657.84,-622.112"/>
<polygon fill="black" stroke="black" points="1661.34,-622.245 1658.27,-612.104 1654.34,-621.945 1661.34,-622.245"/>
</g>
<!-- permcent -->
<g id="node46" class="node"><title>permcent</title>
<g id="a_node46"><a xlink:href="Combi.SymGroup.permcent.html" xlink:title="permcent">
<polygon fill="#dbc3b6" stroke="#dbc3b6" points="1886,-612 1802,-612 1802,-576 1886,-576 1886,-612"/>
<text text-anchor="middle" x="1844" y="-589.6" font-family="Times,serif" font-size="18.00">permcent</text>
</a>
</g>
</g>
<!-- sympoly&#45;&gt;permcent -->
<g id="edge4" class="edge"><title>sympoly&#45;&gt;permcent</title>
<path fill="none" stroke="black" d="M1695.41,-650.326C1723.49,-639.871 1761.51,-625.714 1792.06,-614.338"/>
<polygon fill="black" stroke="black" points="1793.55,-617.519 1801.7,-610.75 1791.11,-610.959 1793.55,-617.519"/>
</g>
<!-- ordcast&#45;&gt;tools -->
<g id="edge33" class="edge"><title>ordcast&#45;&gt;tools</title>
<path fill="none" stroke="black" d="M2131.78,-434.262C2176.44,-413.208 2247,-369.976 2247,-307 2247,-307 2247,-307 2247,-161 2247,-86.1801 1990.86,-39.4524 1893.21,-24.3563"/>
<polygon fill="black" stroke="black" points="1893.6,-20.8753 1883.18,-22.8323 1892.54,-27.7958 1893.6,-20.8753"/>
</g>
<!-- sorted&#45;&gt;tools -->
<g id="edge32" class="edge"><title>sorted&#45;&gt;tools</title>
<path fill="none" stroke="black" d="M1349.25,-84.9339C1442.5,-72.8017 1718.48,-36.8923 1818.92,-23.8247"/>
<polygon fill="black" stroke="black" points="1819.44,-27.2863 1828.91,-22.5252 1818.54,-20.3448 1819.44,-27.2863"/>
</g>
<!-- Frobenius_char -->
<g id="node43" class="node"><title>Frobenius_char</title>
<g id="a_node43"><a xlink:href="Combi.SymGroup.Frobenius_char.html" xlink:title="Frobenius_char">
<polygon fill="#dbc3b6" stroke="#dbc3b6" points="1546.5,-756 1415.5,-756 1415.5,-720 1546.5,-720 1546.5,-756"/>
<text text-anchor="middle" x="1481" y="-733.6" font-family="Times,serif" font-size="18.00">Frobenius_char</text>
</a>
</g>
</g>
<!-- Frobenius_char&#45;&gt;sympoly -->
<g id="edge12" class="edge"><title>Frobenius_char&#45;&gt;sympoly</title>
<path fill="none" stroke="black" d="M1523.81,-719.876C1549.13,-709.746 1581.28,-696.886 1607.54,-686.385"/>
<polygon fill="black" stroke="black" points="1608.93,-689.596 1616.92,-682.632 1606.34,-683.096 1608.93,-689.596"/>
</g>
<!-- cycles -->
<g id="node44" class="node"><title>cycles</title>
<g id="a_node44"><a xlink:href="Combi.SymGroup.cycles.html" xlink:title="cycles">
<polygon fill="#dbc3b6" stroke="#dbc3b6" points="1567,-252 1505,-252 1505,-216 1567,-216 1567,-252"/>
<text text-anchor="middle" x="1536" y="-229.6" font-family="Times,serif" font-size="18.00">cycles</text>
</a>
</g>
</g>
<!-- cycles&#45;&gt;partition -->
<g id="edge15" class="edge"><title>cycles&#45;&gt;partition</title>
<path fill="none" stroke="black" d="M1504.77,-222.971C1469.02,-211.491 1409.98,-192.534 1367.85,-179.007"/>
<polygon fill="black" stroke="black" points="1368.66,-175.589 1358.06,-175.865 1366.52,-182.254 1368.66,-175.589"/>
</g>
<!-- cycles&#45;&gt;permcomp -->
<g id="edge16" class="edge"><title>cycles&#45;&gt;permcomp</title>
<path fill="none" stroke="black" d="M1521.42,-215.697C1514.34,-207.305 1505.72,-197.07 1497.95,-187.861"/>
<polygon fill="black" stroke="black" points="1500.54,-185.495 1491.42,-180.104 1495.19,-190.006 1500.54,-185.495"/>
</g>
<!-- cycletype&#45;&gt;slicedbij -->
<g id="edge13" class="edge"><title>cycletype&#45;&gt;slicedbij</title>
<path fill="none" stroke="black" d="M1949.49,-287.697C1949.71,-279.983 1949.98,-270.712 1950.23,-262.112"/>
<polygon fill="black" stroke="black" points="1953.72,-262.2 1950.51,-252.104 1946.73,-262 1953.72,-262.2"/>
</g>
<!-- cycletype&#45;&gt;cycles -->
<g id="edge14" class="edge"><title>cycletype&#45;&gt;cycles</title>
<path fill="none" stroke="black" d="M1905.88,-299.755C1840.19,-291.458 1711.24,-273.969 1603,-252 1594.55,-250.284 1585.56,-248.192 1577,-246.07"/>
<polygon fill="black" stroke="black" points="1577.77,-242.653 1567.22,-243.585 1576.05,-249.438 1577.77,-242.653"/>
</g>
<!-- towerSn -->
<g id="node50" class="node"><title>towerSn</title>
<g id="a_node50"><a xlink:href="Combi.SymGroup.towerSn.html" xlink:title="towerSn">
<polygon fill="#dbc3b6" stroke="#dbc3b6" points="1986.5,-540 1907.5,-540 1907.5,-504 1986.5,-504 1986.5,-540"/>
<text text-anchor="middle" x="1947" y="-517.6" font-family="Times,serif" font-size="18.00">towerSn</text>
</a>
</g>
</g>
<!-- permcent&#45;&gt;towerSn -->
<g id="edge11" class="edge"><title>permcent&#45;&gt;towerSn</title>
<path fill="none" stroke="black" d="M1869.2,-575.876C1882.41,-566.893 1898.79,-555.763 1913.11,-546.034"/>
<polygon fill="black" stroke="black" points="1915.4,-548.705 1921.71,-540.19 1911.47,-542.916 1915.4,-548.705"/>
</g>
<!-- presentSn&#45;&gt;congr -->
<g id="edge10" class="edge"><title>presentSn&#45;&gt;congr</title>
<path fill="none" stroke="black" d="M1687.96,-503.876C1709.83,-493.464 1737.75,-480.166 1760.13,-469.511"/>
<polygon fill="black" stroke="black" points="1761.82,-472.582 1769.34,-465.123 1758.81,-466.262 1761.82,-472.582"/>
</g>
<!-- reprS2 -->
<g id="node48" class="node"><title>reprS2</title>
<g id="a_node48"><a xlink:href="Combi.SymGroup.reprS2.html" xlink:title="reprS2">
<polygon fill="#dbc3b6" stroke="#dbc3b6" points="1540.5,-684 1475.5,-684 1475.5,-648 1540.5,-648 1540.5,-684"/>
<text text-anchor="middle" x="1508" y="-661.6" font-family="Times,serif" font-size="18.00">reprS2</text>
</a>
</g>
</g>
<!-- reprdim1 -->
<g id="node49" class="node"><title>reprdim1</title>
<g id="a_node49"><a xlink:href="Combi.SymGroup.reprdim1.html" xlink:title="reprdim1">
<polygon fill="#dbc3b6" stroke="#dbc3b6" points="1549.5,-612 1466.5,-612 1466.5,-576 1549.5,-576 1549.5,-612"/>
<text text-anchor="middle" x="1508" y="-589.6" font-family="Times,serif" font-size="18.00">reprdim1</text>
</a>
</g>
</g>
<!-- reprS2&#45;&gt;reprdim1 -->
<g id="edge8" class="edge"><title>reprS2&#45;&gt;reprdim1</title>
<path fill="none" stroke="black" d="M1508,-647.697C1508,-639.983 1508,-630.712 1508,-622.112"/>
<polygon fill="black" stroke="black" points="1511.5,-622.104 1508,-612.104 1504.5,-622.104 1511.5,-622.104"/>
</g>
<!-- reprdim1&#45;&gt;presentSn -->
<g id="edge9" class="edge"><title>reprdim1&#45;&gt;presentSn</title>
<path fill="none" stroke="black" d="M1543.23,-575.876C1562.58,-566.469 1586.77,-554.708 1607.43,-544.667"/>
<polygon fill="black" stroke="black" points="1609.17,-547.71 1616.64,-540.19 1606.11,-541.414 1609.17,-547.71"/>
</g>
<!-- towerSn&#45;&gt;ordcast -->
<g id="edge6" class="edge"><title>towerSn&#45;&gt;ordcast</title>
<path fill="none" stroke="black" d="M1983.45,-503.876C2003.86,-494.286 2029.49,-482.248 2051.13,-472.082"/>
<polygon fill="black" stroke="black" points="2052.88,-475.126 2060.44,-467.706 2049.9,-468.79 2052.88,-475.126"/>
</g>
<!-- towerSn&#45;&gt;cycletype -->
<g id="edge7" class="edge"><title>towerSn&#45;&gt;cycletype</title>
<path fill="none" stroke="black" d="M1947.16,-503.849C1947.51,-466.832 1948.33,-379.181 1948.74,-334.386"/>
<polygon fill="black" stroke="black" points="1952.25,-334.265 1948.84,-324.232 1945.25,-334.199 1952.25,-334.265"/>
</g>
</g>
</svg>
