<?xml version="1.0" encoding="UTF-8" standalone="no"?>
<!DOCTYPE svg PUBLIC "-//W3C//DTD SVG 1.1//EN"
 "http://www.w3.org/Graphics/SVG/1.1/DTD/svg11.dtd">
<!-- Generated by graphviz version 2.38.0 (20140413.2041)
 -->
<!-- Title: depend Pages: 1 -->
<svg width="2081pt" height="1196pt"
 viewBox="0.00 0.00 2081.04 1196.00" xmlns="http://www.w3.org/2000/svg" xmlns:xlink="http://www.w3.org/1999/xlink">
<g id="graph0" class="graph" transform="scale(1 1) rotate(0) translate(4 1192)">
<title>depend</title>
<!-- Ccpo -->
<g id="node1" class="node"><title>Ccpo</title>
<g id="a_node1"><a xlink:href="3rdparty.ALEA.Ccpo.html" xlink:title="Ccpo">
<polygon fill="#dbc3b6" stroke="#dbc3b6" points="1848,-324 1792,-324 1792,-288 1848,-288 1848,-324"/>
<text text-anchor="middle" x="1820" y="-301.6" font-family="Times,serif" font-size="18.00">Ccpo</text>
</a>
</g>
</g>
<!-- Misc -->
<g id="node2" class="node"><title>Misc</title>
<g id="a_node2"><a xlink:href="3rdparty.ALEA.Misc.html" xlink:title="Misc">
<polygon fill="#dbc3b6" stroke="#dbc3b6" points="1974,-324 1920,-324 1920,-288 1974,-288 1974,-324"/>
<text text-anchor="middle" x="1947" y="-301.6" font-family="Times,serif" font-size="18.00">Misc</text>
</a>
</g>
</g>
<!-- combclass -->
<g id="node3" class="node"><title>combclass</title>
<g id="a_node3"><a xlink:href="Combi.Basic.combclass.html" xlink:title="combclass">
<polygon fill="#dbc3b6" stroke="#dbc3b6" points="1267,-108 1175,-108 1175,-72 1267,-72 1267,-108"/>
<text text-anchor="middle" x="1221" y="-85.6" font-family="Times,serif" font-size="18.00">combclass</text>
</a>
</g>
</g>
<!-- tools -->
<g id="node45" class="node"><title>tools</title>
<g id="a_node45"><a xlink:href="Combi.SSRcomplements.tools.html" xlink:title="tools">
<polygon fill="#dbc3b6" stroke="#dbc3b6" points="675,-36 621,-36 621,-0 675,-0 675,-36"/>
<text text-anchor="middle" x="648" y="-13.6" font-family="Times,serif" font-size="18.00">tools</text>
</a>
</g>
</g>
<!-- combclass&#45;&gt;tools -->
<g id="edge25" class="edge"><title>combclass&#45;&gt;tools</title>
<path fill="none" stroke="black" d="M1174.59,-83.3309C1063.82,-69.7979 785.684,-35.82 685.063,-23.5277"/>
<polygon fill="black" stroke="black" points="685.413,-20.0446 675.062,-22.306 684.564,-26.9929 685.413,-20.0446"/>
</g>
<!-- congr -->
<g id="node4" class="node"><title>congr</title>
<g id="a_node4"><a xlink:href="Combi.Basic.congr.html" xlink:title="congr">
<polygon fill="#dbc3b6" stroke="#dbc3b6" points="592.5,-468 533.5,-468 533.5,-432 592.5,-432 592.5,-468"/>
<text text-anchor="middle" x="563" y="-445.6" font-family="Times,serif" font-size="18.00">congr</text>
</a>
</g>
</g>
<!-- permuted -->
<g id="node11" class="node"><title>permuted</title>
<g id="a_node11"><a xlink:href="Combi.Combi.permuted.html" xlink:title="permuted">
<polygon fill="#dbc3b6" stroke="#dbc3b6" points="625,-396 539,-396 539,-360 625,-360 625,-396"/>
<text text-anchor="middle" x="582" y="-373.6" font-family="Times,serif" font-size="18.00">permuted</text>
</a>
</g>
</g>
<!-- congr&#45;&gt;permuted -->
<g id="edge23" class="edge"><title>congr&#45;&gt;permuted</title>
<path fill="none" stroke="black" d="M567.697,-431.697C569.813,-423.898 572.362,-414.509 574.718,-405.829"/>
<polygon fill="black" stroke="black" points="578.116,-406.672 577.357,-396.104 571.36,-404.838 578.116,-406.672"/>
</g>
<!-- vectNK -->
<g id="node17" class="node"><title>vectNK</title>
<g id="a_node17"><a xlink:href="Combi.Combi.vectNK.html" xlink:title="vectNK">
<polygon fill="#dbc3b6" stroke="#dbc3b6" points="346,-108 272,-108 272,-72 346,-72 346,-108"/>
<text text-anchor="middle" x="309" y="-85.6" font-family="Times,serif" font-size="18.00">vectNK</text>
</a>
</g>
</g>
<!-- congr&#45;&gt;vectNK -->
<g id="edge24" class="edge"><title>congr&#45;&gt;vectNK</title>
<path fill="none" stroke="black" d="M533.345,-445.439C438.077,-433.183 146,-388.927 146,-307 146,-307 146,-307 146,-233 146,-170.898 214.099,-129.751 262.263,-108.416"/>
<polygon fill="black" stroke="black" points="263.792,-111.569 271.605,-104.413 261.034,-105.135 263.792,-111.569"/>
</g>
<!-- ordtype -->
<g id="node5" class="node"><title>ordtype</title>
<g id="a_node5"><a xlink:href="Combi.Basic.ordtype.html" xlink:title="ordtype">
<polygon fill="#dbc3b6" stroke="#dbc3b6" points="801,-108 727,-108 727,-72 801,-72 801,-108"/>
<text text-anchor="middle" x="764" y="-85.6" font-family="Times,serif" font-size="18.00">ordtype</text>
</a>
</g>
</g>
<!-- ordtype&#45;&gt;tools -->
<g id="edge22" class="edge"><title>ordtype&#45;&gt;tools</title>
<path fill="none" stroke="black" d="M735.623,-71.8761C720.117,-62.5187 700.748,-50.831 684.168,-40.8253"/>
<polygon fill="black" stroke="black" points="685.655,-37.6351 675.285,-35.4651 682.039,-43.6285 685.655,-37.6351"/>
</g>
<!-- Yamanouchi -->
<g id="node6" class="node"><title>Yamanouchi</title>
<g id="a_node6"><a xlink:href="Combi.Combi.Yamanouchi.html" xlink:title="Yamanouchi">
<polygon fill="#dbc3b6" stroke="#dbc3b6" points="1283,-252 1173,-252 1173,-216 1283,-216 1283,-252"/>
<text text-anchor="middle" x="1228" y="-229.6" font-family="Times,serif" font-size="18.00">Yamanouchi</text>
</a>
</g>
</g>
<!-- partition -->
<g id="node10" class="node"><title>partition</title>
<g id="a_node10"><a xlink:href="Combi.Combi.partition.html" xlink:title="partition">
<polygon fill="#dbc3b6" stroke="#dbc3b6" points="957,-180 877,-180 877,-144 957,-144 957,-180"/>
<text text-anchor="middle" x="917" y="-157.6" font-family="Times,serif" font-size="18.00">partition</text>
</a>
</g>
</g>
<!-- Yamanouchi&#45;&gt;partition -->
<g id="edge59" class="edge"><title>Yamanouchi&#45;&gt;partition</title>
<path fill="none" stroke="black" d="M1172.76,-220.566C1114.59,-207.473 1023.79,-187.036 967.479,-174.362"/>
<polygon fill="black" stroke="black" points="967.907,-170.871 957.383,-172.089 966.37,-177.7 967.907,-170.871"/>
</g>
<!-- composition -->
<g id="node7" class="node"><title>composition</title>
<g id="a_node7"><a xlink:href="Combi.Combi.composition.html" xlink:title="composition">
<polygon fill="#dbc3b6" stroke="#dbc3b6" points="655,-252 547,-252 547,-216 655,-216 655,-252"/>
<text text-anchor="middle" x="601" y="-229.6" font-family="Times,serif" font-size="18.00">composition</text>
</a>
</g>
</g>
<!-- composition&#45;&gt;partition -->
<g id="edge78" class="edge"><title>composition&#45;&gt;partition</title>
<path fill="none" stroke="black" d="M655.322,-220.967C714.751,-207.802 809.217,-186.876 866.915,-174.095"/>
<polygon fill="black" stroke="black" points="867.888,-177.464 876.894,-171.884 866.374,-170.63 867.888,-177.464"/>
</g>
<!-- fibered_set -->
<g id="node8" class="node"><title>fibered_set</title>
<g id="a_node8"><a xlink:href="Combi.Combi.fibered_set.html" xlink:title="fibered_set">
<polygon fill="#dbc3b6" stroke="#dbc3b6" points="825,-252 727,-252 727,-216 825,-216 825,-252"/>
<text text-anchor="middle" x="776" y="-229.6" font-family="Times,serif" font-size="18.00">fibered_set</text>
</a>
</g>
</g>
<!-- multinomial -->
<g id="node9" class="node"><title>multinomial</title>
<g id="a_node9"><a xlink:href="Combi.Combi.multinomial.html" xlink:title="multinomial">
<polygon fill="#dbc3b6" stroke="#dbc3b6" points="501,-180 397,-180 397,-144 501,-144 501,-180"/>
<text text-anchor="middle" x="449" y="-157.6" font-family="Times,serif" font-size="18.00">multinomial</text>
</a>
</g>
</g>
<!-- multinomial&#45;&gt;tools -->
<g id="edge71" class="edge"><title>multinomial&#45;&gt;tools</title>
<path fill="none" stroke="black" d="M473.004,-143.871C508.638,-118.444 575.612,-70.6541 615.573,-42.1385"/>
<polygon fill="black" stroke="black" points="617.804,-44.8469 623.911,-36.1893 613.738,-39.1488 617.804,-44.8469"/>
</g>
<!-- partition&#45;&gt;combclass -->
<g id="edge75" class="edge"><title>partition&#45;&gt;combclass</title>
<path fill="none" stroke="black" d="M957.055,-151.777C1010.25,-139.529 1104.48,-117.83 1164.78,-103.946"/>
<polygon fill="black" stroke="black" points="1165.93,-107.273 1174.89,-101.618 1164.36,-100.451 1165.93,-107.273"/>
</g>
<!-- partition&#45;&gt;ordtype -->
<g id="edge76" class="edge"><title>partition&#45;&gt;ordtype</title>
<path fill="none" stroke="black" d="M879.572,-143.876C858.672,-134.314 832.452,-122.318 810.273,-112.17"/>
<polygon fill="black" stroke="black" points="811.591,-108.925 801.042,-107.947 808.679,-115.29 811.591,-108.925"/>
</g>
<!-- sorted -->
<g id="node44" class="node"><title>sorted</title>
<g id="a_node44"><a xlink:href="Combi.SSRcomplements.sorted.html" xlink:title="sorted">
<polygon fill="#dbc3b6" stroke="#dbc3b6" points="943,-108 881,-108 881,-72 943,-72 943,-108"/>
<text text-anchor="middle" x="912" y="-85.6" font-family="Times,serif" font-size="18.00">sorted</text>
</a>
</g>
</g>
<!-- partition&#45;&gt;sorted -->
<g id="edge77" class="edge"><title>partition&#45;&gt;sorted</title>
<path fill="none" stroke="black" d="M915.764,-143.697C915.213,-135.983 914.551,-126.712 913.937,-118.112"/>
<polygon fill="black" stroke="black" points="917.425,-117.83 913.222,-108.104 910.443,-118.328 917.425,-117.83"/>
</g>
<!-- permuted&#45;&gt;composition -->
<g id="edge72" class="edge"><title>permuted&#45;&gt;composition</title>
<path fill="none" stroke="black" d="M584.292,-359.871C587.53,-335.67 593.479,-291.211 597.335,-262.393"/>
<polygon fill="black" stroke="black" points="600.843,-262.565 598.7,-252.189 593.905,-261.637 600.843,-262.565"/>
</g>
<!-- permuted&#45;&gt;multinomial -->
<g id="edge73" class="edge"><title>permuted&#45;&gt;multinomial</title>
<path fill="none" stroke="black" d="M571.341,-359.849C548.091,-322.44 492.705,-233.322 465.147,-188.98"/>
<polygon fill="black" stroke="black" points="467.961,-186.878 459.71,-180.232 462.016,-190.573 467.961,-186.878"/>
</g>
<!-- cycletype -->
<g id="node49" class="node"><title>cycletype</title>
<g id="a_node49"><a xlink:href="Combi.SymGroup.cycletype.html" xlink:title="cycletype">
<polygon fill="#dbc3b6" stroke="#dbc3b6" points="880,-324 794,-324 794,-288 880,-288 880,-324"/>
<text text-anchor="middle" x="837" y="-301.6" font-family="Times,serif" font-size="18.00">cycletype</text>
</a>
</g>
</g>
<!-- permuted&#45;&gt;cycletype -->
<g id="edge74" class="edge"><title>permuted&#45;&gt;cycletype</title>
<path fill="none" stroke="black" d="M625.257,-365.125C669.167,-353.072 737.206,-334.394 784.253,-321.48"/>
<polygon fill="black" stroke="black" points="785.24,-324.838 793.957,-318.816 783.387,-318.088 785.24,-324.838"/>
</g>
<!-- skewtab -->
<g id="node12" class="node"><title>skewtab</title>
<g id="a_node12"><a xlink:href="Combi.Combi.skewtab.html" xlink:title="skewtab">
<polygon fill="#dbc3b6" stroke="#dbc3b6" points="1154.5,-900 1077.5,-900 1077.5,-864 1154.5,-864 1154.5,-900"/>
<text text-anchor="middle" x="1116" y="-877.6" font-family="Times,serif" font-size="18.00">skewtab</text>
</a>
</g>
</g>
<!-- stdtab -->
<g id="node14" class="node"><title>stdtab</title>
<g id="a_node14"><a xlink:href="Combi.Combi.stdtab.html" xlink:title="stdtab">
<polygon fill="#dbc3b6" stroke="#dbc3b6" points="1259,-324 1197,-324 1197,-288 1259,-288 1259,-324"/>
<text text-anchor="middle" x="1228" y="-301.6" font-family="Times,serif" font-size="18.00">stdtab</text>
</a>
</g>
</g>
<!-- skewtab&#45;&gt;stdtab -->
<g id="edge70" class="edge"><title>skewtab&#45;&gt;stdtab</title>
<path fill="none" stroke="black" d="M1137.56,-863.777C1165.59,-839.284 1211,-791.5 1211,-739 1211,-739 1211,-739 1211,-449 1211,-408.931 1217.76,-362.949 1222.75,-334.433"/>
<polygon fill="black" stroke="black" points="1226.23,-334.871 1224.56,-324.408 1219.34,-333.627 1226.23,-334.871"/>
</g>
<!-- std -->
<g id="node13" class="node"><title>std</title>
<g id="a_node13"><a xlink:href="Combi.Combi.std.html" xlink:title="std">
<polygon fill="#dbc3b6" stroke="#dbc3b6" points="1409,-252 1355,-252 1355,-216 1409,-216 1409,-252"/>
<text text-anchor="middle" x="1382" y="-229.6" font-family="Times,serif" font-size="18.00">std</text>
</a>
</g>
</g>
<!-- std&#45;&gt;combclass -->
<g id="edge67" class="edge"><title>std&#45;&gt;combclass</title>
<path fill="none" stroke="black" d="M1364.51,-215.856C1345.73,-197.623 1314.82,-168.143 1287,-144 1275.48,-134.002 1262.45,-123.398 1251.03,-114.323"/>
<polygon fill="black" stroke="black" points="1253.06,-111.467 1243.04,-108.016 1248.72,-116.961 1253.06,-111.467"/>
</g>
<!-- std&#45;&gt;ordtype -->
<g id="edge68" class="edge"><title>std&#45;&gt;ordtype</title>
<path fill="none" stroke="black" d="M1354.97,-219.473C1313.79,-199.501 1232.36,-162.494 1159,-144 1022.79,-109.664 983.664,-130.45 845,-108 834.032,-106.224 822.299,-103.97 811.264,-101.689"/>
<polygon fill="black" stroke="black" points="811.876,-98.2407 801.369,-99.5987 810.43,-105.09 811.876,-98.2407"/>
</g>
<!-- permcomp -->
<g id="node42" class="node"><title>permcomp</title>
<g id="a_node42"><a xlink:href="Combi.SSRcomplements.permcomp.html" xlink:title="permcomp">
<polygon fill="#dbc3b6" stroke="#dbc3b6" points="1123,-180 1029,-180 1029,-144 1123,-144 1123,-180"/>
<text text-anchor="middle" x="1076" y="-157.6" font-family="Times,serif" font-size="18.00">permcomp</text>
</a>
</g>
</g>
<!-- std&#45;&gt;permcomp -->
<g id="edge69" class="edge"><title>std&#45;&gt;permcomp</title>
<path fill="none" stroke="black" d="M1354.79,-225.345C1343.71,-222.312 1330.78,-218.871 1319,-216 1255.62,-200.546 1182.41,-184.872 1133.05,-174.621"/>
<polygon fill="black" stroke="black" points="1133.7,-171.182 1123.2,-172.581 1132.28,-178.036 1133.7,-171.182"/>
</g>
<!-- stdtab&#45;&gt;Yamanouchi -->
<g id="edge64" class="edge"><title>stdtab&#45;&gt;Yamanouchi</title>
<path fill="none" stroke="black" d="M1228,-287.697C1228,-279.983 1228,-270.712 1228,-262.112"/>
<polygon fill="black" stroke="black" points="1231.5,-262.104 1228,-252.104 1224.5,-262.104 1231.5,-262.104"/>
</g>
<!-- stdtab&#45;&gt;std -->
<g id="edge65" class="edge"><title>stdtab&#45;&gt;std</title>
<path fill="none" stroke="black" d="M1259.16,-290.834C1284.21,-279.449 1319.44,-263.438 1345.74,-251.48"/>
<polygon fill="black" stroke="black" points="1347.34,-254.598 1355,-247.273 1344.45,-248.225 1347.34,-254.598"/>
</g>
<!-- tableau -->
<g id="node16" class="node"><title>tableau</title>
<g id="a_node16"><a xlink:href="Combi.Combi.tableau.html" xlink:title="tableau">
<polygon fill="#dbc3b6" stroke="#dbc3b6" points="967,-252 897,-252 897,-216 967,-216 967,-252"/>
<text text-anchor="middle" x="932" y="-229.6" font-family="Times,serif" font-size="18.00">tableau</text>
</a>
</g>
</g>
<!-- stdtab&#45;&gt;tableau -->
<g id="edge66" class="edge"><title>stdtab&#45;&gt;tableau</title>
<path fill="none" stroke="black" d="M1196.69,-297.663C1153.21,-287.466 1072.11,-268.413 1003,-252 994.58,-250 985.6,-247.858 976.959,-245.791"/>
<polygon fill="black" stroke="black" points="977.564,-242.337 967.023,-243.413 975.934,-249.145 977.564,-242.337"/>
</g>
<!-- subseq -->
<g id="node15" class="node"><title>subseq</title>
<g id="a_node15"><a xlink:href="Combi.Combi.subseq.html" xlink:title="subseq">
<polygon fill="#dbc3b6" stroke="#dbc3b6" points="1554.5,-180 1487.5,-180 1487.5,-144 1554.5,-144 1554.5,-180"/>
<text text-anchor="middle" x="1521" y="-157.6" font-family="Times,serif" font-size="18.00">subseq</text>
</a>
</g>
</g>
<!-- subseq&#45;&gt;combclass -->
<g id="edge62" class="edge"><title>subseq&#45;&gt;combclass</title>
<path fill="none" stroke="black" d="M1487.46,-153.174C1436.48,-141.278 1338.89,-118.507 1277.02,-104.071"/>
<polygon fill="black" stroke="black" points="1277.57,-100.605 1267.03,-101.741 1275.98,-107.422 1277.57,-100.605"/>
</g>
<!-- subseq&#45;&gt;sorted -->
<g id="edge63" class="edge"><title>subseq&#45;&gt;sorted</title>
<path fill="none" stroke="black" d="M1487.39,-157.137C1383.41,-145.185 1067.15,-108.834 953.352,-95.7531"/>
<polygon fill="black" stroke="black" points="953.632,-92.2624 943.298,-94.5975 952.833,-99.2166 953.632,-92.2624"/>
</g>
<!-- tableau&#45;&gt;partition -->
<g id="edge61" class="edge"><title>tableau&#45;&gt;partition</title>
<path fill="none" stroke="black" d="M928.292,-215.697C926.639,-207.983 924.653,-198.712 922.81,-190.112"/>
<polygon fill="black" stroke="black" points="926.183,-189.149 920.665,-180.104 919.338,-190.616 926.183,-189.149"/>
</g>
<!-- vectNK&#45;&gt;tools -->
<g id="edge60" class="edge"><title>vectNK&#45;&gt;tools</title>
<path fill="none" stroke="black" d="M346.249,-81.3085C411.554,-67.8236 545.946,-40.0732 611.044,-26.631"/>
<polygon fill="black" stroke="black" points="611.79,-30.0509 620.876,-24.6009 610.375,-23.1955 611.79,-30.0509"/>
</g>
<!-- Erdos_Szekeres -->
<g id="node18" class="node"><title>Erdos_Szekeres</title>
<g id="a_node18"><a xlink:href="Combi.Erdos_Szekeres.Erdos_Szekeres.html" xlink:title="Erdos_Szekeres">
<polygon fill="#dbc3b6" stroke="#dbc3b6" points="569.5,-756 436.5,-756 436.5,-720 569.5,-720 569.5,-756"/>
<text text-anchor="middle" x="503" y="-733.6" font-family="Times,serif" font-size="18.00">Erdos_Szekeres</text>
</a>
</g>
</g>
<!-- Greene_inv -->
<g id="node24" class="node"><title>Greene_inv</title>
<g id="a_node24"><a xlink:href="Combi.LRrule.Greene_inv.html" xlink:title="Greene_inv">
<polygon fill="#dbc3b6" stroke="#dbc3b6" points="545.5,-684 444.5,-684 444.5,-648 545.5,-648 545.5,-684"/>
<text text-anchor="middle" x="495" y="-661.6" font-family="Times,serif" font-size="18.00">Greene_inv</text>
</a>
</g>
</g>
<!-- Erdos_Szekeres&#45;&gt;Greene_inv -->
<g id="edge58" class="edge"><title>Erdos_Szekeres&#45;&gt;Greene_inv</title>
<path fill="none" stroke="black" d="M501.022,-719.697C500.141,-711.983 499.081,-702.712 498.099,-694.112"/>
<polygon fill="black" stroke="black" points="501.568,-693.642 496.955,-684.104 494.613,-694.437 501.568,-693.642"/>
</g>
<!-- Frobenius_ident -->
<g id="node19" class="node"><title>Frobenius_ident</title>
<g id="a_node19"><a xlink:href="Combi.HookFormula.Frobenius_ident.html" xlink:title="Frobenius_ident">
<polygon fill="#dbc3b6" stroke="#dbc3b6" points="1526.5,-540 1389.5,-540 1389.5,-504 1526.5,-504 1526.5,-540"/>
<text text-anchor="middle" x="1458" y="-517.6" font-family="Times,serif" font-size="18.00">Frobenius_ident</text>
</a>
</g>
</g>
<!-- hook -->
<g id="node21" class="node"><title>hook</title>
<g id="a_node21"><a xlink:href="Combi.HookFormula.hook.html" xlink:title="hook">
<polygon fill="#dbc3b6" stroke="#dbc3b6" points="1847,-468 1793,-468 1793,-432 1847,-432 1847,-468"/>
<text text-anchor="middle" x="1820" y="-445.6" font-family="Times,serif" font-size="18.00">hook</text>
</a>
</g>
</g>
<!-- Frobenius_ident&#45;&gt;hook -->
<g id="edge35" class="edge"><title>Frobenius_ident&#45;&gt;hook</title>
<path fill="none" stroke="black" d="M1526.52,-507.751C1602.67,-493.026 1722.82,-469.791 1783.03,-458.148"/>
<polygon fill="black" stroke="black" points="1783.71,-461.583 1792.86,-456.248 1782.38,-454.71 1783.71,-461.583"/>
</g>
<!-- Schensted -->
<g id="node25" class="node"><title>Schensted</title>
<g id="a_node25"><a xlink:href="Combi.LRrule.Schensted.html" xlink:title="Schensted">
<polygon fill="#dbc3b6" stroke="#dbc3b6" points="1493,-468 1401,-468 1401,-432 1493,-432 1493,-468"/>
<text text-anchor="middle" x="1447" y="-445.6" font-family="Times,serif" font-size="18.00">Schensted</text>
</a>
</g>
</g>
<!-- Frobenius_ident&#45;&gt;Schensted -->
<g id="edge36" class="edge"><title>Frobenius_ident&#45;&gt;Schensted</title>
<path fill="none" stroke="black" d="M1455.28,-503.697C1454.07,-495.983 1452.61,-486.712 1451.26,-478.112"/>
<polygon fill="black" stroke="black" points="1454.7,-477.44 1449.69,-468.104 1447.78,-478.526 1454.7,-477.44"/>
</g>
<!-- Qmeasure -->
<g id="node20" class="node"><title>Qmeasure</title>
<g id="a_node20"><a xlink:href="Combi.HookFormula.Qmeasure.html" xlink:title="Qmeasure">
<polygon fill="#dbc3b6" stroke="#dbc3b6" points="1864.5,-396 1775.5,-396 1775.5,-360 1864.5,-360 1864.5,-396"/>
<text text-anchor="middle" x="1820" y="-373.6" font-family="Times,serif" font-size="18.00">Qmeasure</text>
</a>
</g>
</g>
<!-- Qmeasure&#45;&gt;Ccpo -->
<g id="edge32" class="edge"><title>Qmeasure&#45;&gt;Ccpo</title>
<path fill="none" stroke="black" d="M1820,-359.697C1820,-351.983 1820,-342.712 1820,-334.112"/>
<polygon fill="black" stroke="black" points="1823.5,-334.104 1820,-324.104 1816.5,-334.104 1823.5,-334.104"/>
</g>
<!-- Qmeasure&#45;&gt;Misc -->
<g id="edge33" class="edge"><title>Qmeasure&#45;&gt;Misc</title>
<path fill="none" stroke="black" d="M1851.07,-359.876C1869.12,-349.928 1891.94,-337.346 1910.8,-326.952"/>
<polygon fill="black" stroke="black" points="1912.63,-329.938 1919.7,-322.046 1909.26,-323.808 1912.63,-329.938"/>
</g>
<!-- rat_coerce -->
<g id="node43" class="node"><title>rat_coerce</title>
<g id="a_node43"><a xlink:href="Combi.SSRcomplements.rat_coerce.html" xlink:title="rat_coerce">
<polygon fill="#dbc3b6" stroke="#dbc3b6" points="1720,-324 1626,-324 1626,-288 1720,-288 1720,-324"/>
<text text-anchor="middle" x="1673" y="-301.6" font-family="Times,serif" font-size="18.00">rat_coerce</text>
</a>
</g>
</g>
<!-- Qmeasure&#45;&gt;rat_coerce -->
<g id="edge34" class="edge"><title>Qmeasure&#45;&gt;rat_coerce</title>
<path fill="none" stroke="black" d="M1784.04,-359.876C1764.12,-350.392 1739.18,-338.513 1717.98,-328.419"/>
<polygon fill="black" stroke="black" points="1719.38,-325.208 1708.84,-324.068 1716.37,-331.528 1719.38,-325.208"/>
</g>
<!-- hook&#45;&gt;subseq -->
<g id="edge28" class="edge"><title>hook&#45;&gt;subseq</title>
<path fill="none" stroke="black" d="M1847.2,-447.335C1905.53,-443.14 2039.57,-429.94 2067,-396 2077.06,-383.556 2072.26,-375.112 2067,-360 2053.59,-321.452 2044.23,-310.22 2010,-288 1865.77,-194.386 1655.33,-170.842 1564.93,-164.951"/>
<polygon fill="black" stroke="black" points="1564.97,-161.446 1554.77,-164.331 1564.54,-168.433 1564.97,-161.446"/>
</g>
<!-- hook&#45;&gt;Qmeasure -->
<g id="edge29" class="edge"><title>hook&#45;&gt;Qmeasure</title>
<path fill="none" stroke="black" d="M1820,-431.697C1820,-423.983 1820,-414.712 1820,-406.112"/>
<polygon fill="black" stroke="black" points="1823.5,-406.104 1820,-396.104 1816.5,-406.104 1823.5,-406.104"/>
</g>
<!-- recyama -->
<g id="node22" class="node"><title>recyama</title>
<g id="a_node22"><a xlink:href="Combi.HookFormula.recyama.html" xlink:title="recyama">
<polygon fill="#dbc3b6" stroke="#dbc3b6" points="1703,-396 1625,-396 1625,-360 1703,-360 1703,-396"/>
<text text-anchor="middle" x="1664" y="-373.6" font-family="Times,serif" font-size="18.00">recyama</text>
</a>
</g>
</g>
<!-- hook&#45;&gt;recyama -->
<g id="edge30" class="edge"><title>hook&#45;&gt;recyama</title>
<path fill="none" stroke="black" d="M1792.83,-436.807C1770.34,-426.716 1737.86,-412.144 1711.15,-400.156"/>
<polygon fill="black" stroke="black" points="1712.52,-396.935 1701.96,-396.034 1709.65,-403.322 1712.52,-396.935"/>
</g>
<!-- bigallpairs -->
<g id="node40" class="node"><title>bigallpairs</title>
<g id="a_node40"><a xlink:href="Combi.SSRcomplements.bigallpairs.html" xlink:title="bigallpairs">
<polygon fill="#dbc3b6" stroke="#dbc3b6" points="2031,-396 1937,-396 1937,-360 2031,-360 2031,-396"/>
<text text-anchor="middle" x="1984" y="-373.6" font-family="Times,serif" font-size="18.00">bigallpairs</text>
</a>
</g>
</g>
<!-- hook&#45;&gt;bigallpairs -->
<g id="edge31" class="edge"><title>hook&#45;&gt;bigallpairs</title>
<path fill="none" stroke="black" d="M1847.08,-437.441C1870.79,-427.323 1905.82,-412.369 1934.52,-400.121"/>
<polygon fill="black" stroke="black" points="1936.16,-403.227 1943.98,-396.082 1933.41,-396.789 1936.16,-403.227"/>
</g>
<!-- recyama&#45;&gt;stdtab -->
<g id="edge26" class="edge"><title>recyama&#45;&gt;stdtab</title>
<path fill="none" stroke="black" d="M1624.92,-370.726C1542.76,-357.535 1352.78,-327.034 1268.98,-313.579"/>
<polygon fill="black" stroke="black" points="1269.49,-310.117 1259.06,-311.987 1268.38,-317.028 1269.49,-310.117"/>
</g>
<!-- recyama&#45;&gt;rat_coerce -->
<g id="edge27" class="edge"><title>recyama&#45;&gt;rat_coerce</title>
<path fill="none" stroke="black" d="M1666.22,-359.697C1667.22,-351.983 1668.41,-342.712 1669.51,-334.112"/>
<polygon fill="black" stroke="black" points="1673,-334.469 1670.8,-324.104 1666.05,-333.576 1673,-334.469"/>
</g>
<!-- Greene -->
<g id="node23" class="node"><title>Greene</title>
<g id="a_node23"><a xlink:href="Combi.LRrule.Greene.html" xlink:title="Greene">
<polygon fill="#dbc3b6" stroke="#dbc3b6" points="505.5,-612 436.5,-612 436.5,-576 505.5,-576 505.5,-612"/>
<text text-anchor="middle" x="471" y="-589.6" font-family="Times,serif" font-size="18.00">Greene</text>
</a>
</g>
</g>
<!-- plactic -->
<g id="node30" class="node"><title>plactic</title>
<g id="a_node30"><a xlink:href="Combi.LRrule.plactic.html" xlink:title="plactic">
<polygon fill="#dbc3b6" stroke="#dbc3b6" points="521.5,-540 456.5,-540 456.5,-504 521.5,-504 521.5,-540"/>
<text text-anchor="middle" x="489" y="-517.6" font-family="Times,serif" font-size="18.00">plactic</text>
</a>
</g>
</g>
<!-- Greene&#45;&gt;plactic -->
<g id="edge52" class="edge"><title>Greene&#45;&gt;plactic</title>
<path fill="none" stroke="black" d="M475.449,-575.697C477.455,-567.898 479.869,-558.509 482.101,-549.829"/>
<polygon fill="black" stroke="black" points="485.501,-550.661 484.602,-540.104 478.722,-548.918 485.501,-550.661"/>
</g>
<!-- ordcast -->
<g id="node41" class="node"><title>ordcast</title>
<g id="a_node41"><a xlink:href="Combi.SSRcomplements.ordcast.html" xlink:title="ordcast">
<polygon fill="#dbc3b6" stroke="#dbc3b6" points="216.5,-540 145.5,-540 145.5,-504 216.5,-504 216.5,-540"/>
<text text-anchor="middle" x="181" y="-517.6" font-family="Times,serif" font-size="18.00">ordcast</text>
</a>
</g>
</g>
<!-- Greene&#45;&gt;ordcast -->
<g id="edge53" class="edge"><title>Greene&#45;&gt;ordcast</title>
<path fill="none" stroke="black" d="M436.307,-584.626C383.973,-571.994 284.788,-548.052 226.649,-534.019"/>
<polygon fill="black" stroke="black" points="227.182,-530.547 216.64,-531.603 225.539,-537.351 227.182,-530.547"/>
</g>
<!-- Greene_inv&#45;&gt;Greene -->
<g id="edge51" class="edge"><title>Greene_inv&#45;&gt;Greene</title>
<path fill="none" stroke="black" d="M489.067,-647.697C486.394,-639.898 483.174,-630.509 480.199,-621.829"/>
<polygon fill="black" stroke="black" points="483.418,-620.429 476.864,-612.104 476.797,-622.699 483.418,-620.429"/>
</g>
<!-- Schensted&#45;&gt;stdtab -->
<g id="edge46" class="edge"><title>Schensted&#45;&gt;stdtab</title>
<path fill="none" stroke="black" d="M1420.58,-431.871C1381.2,-406.338 1307.05,-358.253 1263.13,-329.781"/>
<polygon fill="black" stroke="black" points="1264.8,-326.693 1254.51,-324.189 1261,-332.566 1264.8,-326.693"/>
</g>
<!-- Schensted&#45;&gt;subseq -->
<g id="edge47" class="edge"><title>Schensted&#45;&gt;subseq</title>
<path fill="none" stroke="black" d="M1451.41,-431.966C1463.77,-384.192 1498.85,-248.623 1513.95,-190.266"/>
<polygon fill="black" stroke="black" points="1517.41,-190.864 1516.52,-180.306 1510.63,-189.111 1517.41,-190.864"/>
</g>
<!-- Yam_plact -->
<g id="node26" class="node"><title>Yam_plact</title>
<g id="a_node26"><a xlink:href="Combi.LRrule.Yam_plact.html" xlink:title="Yam_plact">
<polygon fill="#dbc3b6" stroke="#dbc3b6" points="916,-828 820,-828 820,-792 916,-792 916,-828"/>
<text text-anchor="middle" x="868" y="-805.6" font-family="Times,serif" font-size="18.00">Yam_plact</text>
</a>
</g>
</g>
<!-- stdplact -->
<g id="node32" class="node"><title>stdplact</title>
<g id="a_node32"><a xlink:href="Combi.LRrule.stdplact.html" xlink:title="stdplact">
<polygon fill="#dbc3b6" stroke="#dbc3b6" points="862,-756 788,-756 788,-720 862,-720 862,-756"/>
<text text-anchor="middle" x="825" y="-733.6" font-family="Times,serif" font-size="18.00">stdplact</text>
</a>
</g>
</g>
<!-- Yam_plact&#45;&gt;stdplact -->
<g id="edge41" class="edge"><title>Yam_plact&#45;&gt;stdplact</title>
<path fill="none" stroke="black" d="M857.371,-791.697C852.372,-783.559 846.309,-773.689 840.788,-764.701"/>
<polygon fill="black" stroke="black" points="843.723,-762.793 835.507,-756.104 837.759,-766.457 843.723,-762.793"/>
</g>
<!-- extract -->
<g id="node27" class="node"><title>extract</title>
<g id="a_node27"><a xlink:href="Combi.LRrule.extract.html" xlink:title="extract">
<polygon fill="#dbc3b6" stroke="#dbc3b6" points="901.5,-1116 834.5,-1116 834.5,-1080 901.5,-1080 901.5,-1116"/>
<text text-anchor="middle" x="868" y="-1093.6" font-family="Times,serif" font-size="18.00">extract</text>
</a>
</g>
</g>
<!-- implem -->
<g id="node29" class="node"><title>implem</title>
<g id="a_node29"><a xlink:href="Combi.LRrule.implem.html" xlink:title="implem">
<polygon fill="#dbc3b6" stroke="#dbc3b6" points="903.5,-1044 832.5,-1044 832.5,-1008 903.5,-1008 903.5,-1044"/>
<text text-anchor="middle" x="868" y="-1021.6" font-family="Times,serif" font-size="18.00">implem</text>
</a>
</g>
</g>
<!-- extract&#45;&gt;implem -->
<g id="edge57" class="edge"><title>extract&#45;&gt;implem</title>
<path fill="none" stroke="black" d="M868,-1079.7C868,-1071.98 868,-1062.71 868,-1054.11"/>
<polygon fill="black" stroke="black" points="871.5,-1054.1 868,-1044.1 864.5,-1054.1 871.5,-1054.1"/>
</g>
<!-- freeSchur -->
<g id="node28" class="node"><title>freeSchur</title>
<g id="a_node28"><a xlink:href="Combi.LRrule.freeSchur.html" xlink:title="freeSchur">
<polygon fill="#dbc3b6" stroke="#dbc3b6" points="911.5,-900 824.5,-900 824.5,-864 911.5,-864 911.5,-900"/>
<text text-anchor="middle" x="868" y="-877.6" font-family="Times,serif" font-size="18.00">freeSchur</text>
</a>
</g>
</g>
<!-- freeSchur&#45;&gt;Yam_plact -->
<g id="edge54" class="edge"><title>freeSchur&#45;&gt;Yam_plact</title>
<path fill="none" stroke="black" d="M868,-863.697C868,-855.983 868,-846.712 868,-838.112"/>
<polygon fill="black" stroke="black" points="871.5,-838.104 868,-828.104 864.5,-838.104 871.5,-838.104"/>
</g>
<!-- shuffle -->
<g id="node31" class="node"><title>shuffle</title>
<g id="a_node31"><a xlink:href="Combi.LRrule.shuffle.html" xlink:title="shuffle">
<polygon fill="#dbc3b6" stroke="#dbc3b6" points="747.5,-828 682.5,-828 682.5,-792 747.5,-792 747.5,-828"/>
<text text-anchor="middle" x="715" y="-805.6" font-family="Times,serif" font-size="18.00">shuffle</text>
</a>
</g>
</g>
<!-- freeSchur&#45;&gt;shuffle -->
<g id="edge55" class="edge"><title>freeSchur&#45;&gt;shuffle</title>
<path fill="none" stroke="black" d="M830.572,-863.876C808.256,-853.666 779.877,-840.682 756.826,-830.136"/>
<polygon fill="black" stroke="black" points="758.181,-826.907 747.631,-825.929 755.268,-833.272 758.181,-826.907"/>
</g>
<!-- Schur_mpoly -->
<g id="node36" class="node"><title>Schur_mpoly</title>
<g id="a_node36"><a xlink:href="Combi.MPoly.Schur_mpoly.html" xlink:title="Schur_mpoly">
<polygon fill="#dbc3b6" stroke="#dbc3b6" points="1082,-684 968,-684 968,-648 1082,-648 1082,-684"/>
<text text-anchor="middle" x="1025" y="-661.6" font-family="Times,serif" font-size="18.00">Schur_mpoly</text>
</a>
</g>
</g>
<!-- freeSchur&#45;&gt;Schur_mpoly -->
<g id="edge56" class="edge"><title>freeSchur&#45;&gt;Schur_mpoly</title>
<path fill="none" stroke="black" d="M904.942,-863.849C921.015,-854.951 939.085,-842.82 952,-828 986.901,-787.95 1007.98,-728.454 1017.97,-694.119"/>
<polygon fill="black" stroke="black" points="1021.39,-694.894 1020.72,-684.32 1014.65,-693.004 1021.39,-694.894"/>
</g>
<!-- therule -->
<g id="node33" class="node"><title>therule</title>
<g id="a_node33"><a xlink:href="Combi.LRrule.therule.html" xlink:title="therule">
<polygon fill="#dbc3b6" stroke="#dbc3b6" points="901.5,-972 834.5,-972 834.5,-936 901.5,-936 901.5,-972"/>
<text text-anchor="middle" x="868" y="-949.6" font-family="Times,serif" font-size="18.00">therule</text>
</a>
</g>
</g>
<!-- implem&#45;&gt;therule -->
<g id="edge50" class="edge"><title>implem&#45;&gt;therule</title>
<path fill="none" stroke="black" d="M868,-1007.7C868,-999.983 868,-990.712 868,-982.112"/>
<polygon fill="black" stroke="black" points="871.5,-982.104 868,-972.104 864.5,-982.104 871.5,-982.104"/>
</g>
<!-- plactic&#45;&gt;congr -->
<g id="edge48" class="edge"><title>plactic&#45;&gt;congr</title>
<path fill="none" stroke="black" d="M507.292,-503.697C516.433,-495.05 527.64,-484.449 537.6,-475.027"/>
<polygon fill="black" stroke="black" points="540.059,-477.519 544.918,-468.104 535.248,-472.434 540.059,-477.519"/>
</g>
<!-- plactic&#45;&gt;Schensted -->
<g id="edge49" class="edge"><title>plactic&#45;&gt;Schensted</title>
<path fill="none" stroke="black" d="M521.608,-511.544C532.744,-508.664 545.333,-505.79 557,-504 869.331,-456.083 1249.48,-450.885 1390.68,-450.745"/>
<polygon fill="black" stroke="black" points="1390.83,-454.245 1400.83,-450.743 1390.83,-447.245 1390.83,-454.245"/>
</g>
<!-- shuffle&#45;&gt;stdplact -->
<g id="edge45" class="edge"><title>shuffle&#45;&gt;stdplact</title>
<path fill="none" stroke="black" d="M741.909,-791.876C756.158,-782.808 773.846,-771.552 789.236,-761.759"/>
<polygon fill="black" stroke="black" points="791.43,-764.511 797.988,-756.19 787.672,-758.606 791.43,-764.511"/>
</g>
<!-- stdplact&#45;&gt;Greene_inv -->
<g id="edge44" class="edge"><title>stdplact&#45;&gt;Greene_inv</title>
<path fill="none" stroke="black" d="M787.786,-729.106C731.35,-717.135 623.522,-694.262 555.649,-679.865"/>
<polygon fill="black" stroke="black" points="556.033,-676.369 545.524,-677.717 554.58,-683.216 556.033,-676.369"/>
</g>
<!-- therule&#45;&gt;skewtab -->
<g id="edge42" class="edge"><title>therule&#45;&gt;skewtab</title>
<path fill="none" stroke="black" d="M901.704,-943.487C944.574,-931.386 1018.89,-910.409 1067.76,-896.616"/>
<polygon fill="black" stroke="black" points="1068.81,-899.958 1077.48,-893.873 1066.9,-893.221 1068.81,-899.958"/>
</g>
<!-- therule&#45;&gt;freeSchur -->
<g id="edge43" class="edge"><title>therule&#45;&gt;freeSchur</title>
<path fill="none" stroke="black" d="M868,-935.697C868,-927.983 868,-918.712 868,-910.112"/>
<polygon fill="black" stroke="black" points="871.5,-910.104 868,-900.104 864.5,-910.104 871.5,-910.104"/>
</g>
<!-- Cauchy -->
<g id="node34" class="node"><title>Cauchy</title>
<g id="a_node34"><a xlink:href="Combi.MPoly.Cauchy.html" xlink:title="Cauchy">
<polygon fill="#dbc3b6" stroke="#dbc3b6" points="555,-1188 483,-1188 483,-1152 555,-1152 555,-1188"/>
<text text-anchor="middle" x="519" y="-1165.6" font-family="Times,serif" font-size="18.00">Cauchy</text>
</a>
</g>
</g>
<!-- sympoly -->
<g id="node39" class="node"><title>sympoly</title>
<g id="a_node39"><a xlink:href="Combi.MPoly.sympoly.html" xlink:title="sympoly">
<polygon fill="#dbc3b6" stroke="#dbc3b6" points="558,-1116 480,-1116 480,-1080 558,-1080 558,-1116"/>
<text text-anchor="middle" x="519" y="-1093.6" font-family="Times,serif" font-size="18.00">sympoly</text>
</a>
</g>
</g>
<!-- Cauchy&#45;&gt;sympoly -->
<g id="edge8" class="edge"><title>Cauchy&#45;&gt;sympoly</title>
<path fill="none" stroke="black" d="M519,-1151.7C519,-1143.98 519,-1134.71 519,-1126.11"/>
<polygon fill="black" stroke="black" points="522.5,-1126.1 519,-1116.1 515.5,-1126.1 522.5,-1126.1"/>
</g>
<!-- Schur_altdef -->
<g id="node35" class="node"><title>Schur_altdef</title>
<g id="a_node35"><a xlink:href="Combi.MPoly.Schur_altdef.html" xlink:title="Schur_altdef">
<polygon fill="#dbc3b6" stroke="#dbc3b6" points="658,-1044 548,-1044 548,-1008 658,-1008 658,-1044"/>
<text text-anchor="middle" x="603" y="-1021.6" font-family="Times,serif" font-size="18.00">Schur_altdef</text>
</a>
</g>
</g>
<!-- Schur_altdef&#45;&gt;therule -->
<g id="edge1" class="edge"><title>Schur_altdef&#45;&gt;therule</title>
<path fill="none" stroke="black" d="M658.23,-1010.41C707.588,-997.373 778.934,-978.527 824.385,-966.521"/>
<polygon fill="black" stroke="black" points="825.458,-969.858 834.233,-963.92 823.67,-963.09 825.458,-969.858"/>
</g>
<!-- unitriginv -->
<g id="node46" class="node"><title>unitriginv</title>
<g id="a_node46"><a xlink:href="Combi.SSRcomplements.unitriginv.html" xlink:title="unitriginv">
<polygon fill="#dbc3b6" stroke="#dbc3b6" points="804.5,-180 715.5,-180 715.5,-144 804.5,-144 804.5,-180"/>
<text text-anchor="middle" x="760" y="-157.6" font-family="Times,serif" font-size="18.00">unitriginv</text>
</a>
</g>
</g>
<!-- Schur_altdef&#45;&gt;unitriginv -->
<g id="edge2" class="edge"><title>Schur_altdef&#45;&gt;unitriginv</title>
<path fill="none" stroke="black" d="M575.527,-1007.87C505.716,-961.964 327,-828.667 327,-667 327,-667 327,-667 327,-377 327,-210.137 588.631,-173.381 705.15,-165.286"/>
<polygon fill="black" stroke="black" points="705.54,-168.768 715.292,-164.629 705.087,-161.783 705.54,-168.768"/>
</g>
<!-- Schur_mpoly&#45;&gt;stdtab -->
<g id="edge3" class="edge"><title>Schur_mpoly&#45;&gt;stdtab</title>
<path fill="none" stroke="black" d="M1032.69,-647.907C1043.79,-621.623 1063,-569.447 1063,-523 1063,-523 1063,-523 1063,-449 1063,-383.452 1138.73,-341.543 1187.58,-321.329"/>
<polygon fill="black" stroke="black" points="1188.98,-324.54 1196.96,-317.575 1186.38,-318.041 1188.98,-324.54"/>
</g>
<!-- antisym -->
<g id="node37" class="node"><title>antisym</title>
<g id="a_node37"><a xlink:href="Combi.MPoly.antisym.html" xlink:title="antisym">
<polygon fill="#dbc3b6" stroke="#dbc3b6" points="807,-612 733,-612 733,-576 807,-576 807,-612"/>
<text text-anchor="middle" x="770" y="-589.6" font-family="Times,serif" font-size="18.00">antisym</text>
</a>
</g>
</g>
<!-- Schur_mpoly&#45;&gt;antisym -->
<g id="edge4" class="edge"><title>Schur_mpoly&#45;&gt;antisym</title>
<path fill="none" stroke="black" d="M967.773,-649.291C922.368,-636.827 859.672,-619.616 817.131,-607.938"/>
<polygon fill="black" stroke="black" points="817.877,-604.513 807.307,-605.241 816.024,-611.264 817.877,-604.513"/>
</g>
<!-- presentSn -->
<g id="node51" class="node"><title>presentSn</title>
<g id="a_node51"><a xlink:href="Combi.SymGroup.presentSn.html" xlink:title="presentSn">
<polygon fill="#dbc3b6" stroke="#dbc3b6" points="682.5,-540 593.5,-540 593.5,-504 682.5,-504 682.5,-540"/>
<text text-anchor="middle" x="638" y="-517.6" font-family="Times,serif" font-size="18.00">presentSn</text>
</a>
</g>
</g>
<!-- antisym&#45;&gt;presentSn -->
<g id="edge9" class="edge"><title>antisym&#45;&gt;presentSn</title>
<path fill="none" stroke="black" d="M737.709,-575.876C720.131,-566.554 698.191,-554.919 679.371,-544.939"/>
<polygon fill="black" stroke="black" points="680.889,-541.783 670.415,-540.19 677.61,-547.967 680.889,-541.783"/>
</g>
<!-- homogsym -->
<g id="node38" class="node"><title>homogsym</title>
<g id="a_node38"><a xlink:href="Combi.MPoly.homogsym.html" xlink:title="homogsym">
<polygon fill="#dbc3b6" stroke="#dbc3b6" points="725,-1188 627,-1188 627,-1152 725,-1152 725,-1188"/>
<text text-anchor="middle" x="676" y="-1165.6" font-family="Times,serif" font-size="18.00">homogsym</text>
</a>
</g>
</g>
<!-- homogsym&#45;&gt;sympoly -->
<g id="edge7" class="edge"><title>homogsym&#45;&gt;sympoly</title>
<path fill="none" stroke="black" d="M637.593,-1151.88C616.131,-1142.31 589.202,-1130.3 566.432,-1120.15"/>
<polygon fill="black" stroke="black" points="567.84,-1116.94 557.282,-1116.07 564.99,-1123.34 567.84,-1116.94"/>
</g>
<!-- sympoly&#45;&gt;Schur_altdef -->
<g id="edge5" class="edge"><title>sympoly&#45;&gt;Schur_altdef</title>
<path fill="none" stroke="black" d="M539.764,-1079.7C550.241,-1070.97 563.111,-1060.24 574.5,-1050.75"/>
<polygon fill="black" stroke="black" points="577.033,-1053.19 582.475,-1044.1 572.552,-1047.82 577.033,-1053.19"/>
</g>
<!-- permcent -->
<g id="node50" class="node"><title>permcent</title>
<g id="a_node50"><a xlink:href="Combi.SymGroup.permcent.html" xlink:title="permcent">
<polygon fill="#dbc3b6" stroke="#dbc3b6" points="476,-1044 392,-1044 392,-1008 476,-1008 476,-1044"/>
<text text-anchor="middle" x="434" y="-1021.6" font-family="Times,serif" font-size="18.00">permcent</text>
</a>
</g>
</g>
<!-- sympoly&#45;&gt;permcent -->
<g id="edge6" class="edge"><title>sympoly&#45;&gt;permcent</title>
<path fill="none" stroke="black" d="M497.989,-1079.7C487.284,-1070.88 474.11,-1060.03 462.504,-1050.47"/>
<polygon fill="black" stroke="black" points="464.714,-1047.76 454.77,-1044.1 460.264,-1053.16 464.714,-1047.76"/>
</g>
<!-- ordcast&#45;&gt;tools -->
<g id="edge40" class="edge"><title>ordcast&#45;&gt;tools</title>
<path fill="none" stroke="black" d="M145.24,-510.775C92.4913,-493.246 0,-452.09 0,-379 0,-379 0,-379 0,-161 0,-35.0047 473.357,-20.6529 610.927,-19.1424"/>
<polygon fill="black" stroke="black" points="611.014,-22.6419 620.981,-19.0488 610.949,-15.6422 611.014,-22.6419"/>
</g>
<!-- sorted&#45;&gt;tools -->
<g id="edge39" class="edge"><title>sorted&#45;&gt;tools</title>
<path fill="none" stroke="black" d="M880.94,-80.7643C832.127,-67.8215 737.634,-42.7666 685.246,-28.8758"/>
<polygon fill="black" stroke="black" points="685.919,-25.4333 675.356,-26.2534 684.125,-32.1995 685.919,-25.4333"/>
</g>
<!-- unitriginv&#45;&gt;ordtype -->
<g id="edge37" class="edge"><title>unitriginv&#45;&gt;ordtype</title>
<path fill="none" stroke="black" d="M760.989,-143.697C761.43,-135.983 761.959,-126.712 762.451,-118.112"/>
<polygon fill="black" stroke="black" points="765.946,-118.288 763.023,-108.104 758.958,-117.888 765.946,-118.288"/>
</g>
<!-- unitriginv&#45;&gt;sorted -->
<g id="edge38" class="edge"><title>unitriginv&#45;&gt;sorted</title>
<path fill="none" stroke="black" d="M797.183,-143.876C819.739,-133.488 848.531,-120.229 871.64,-109.587"/>
<polygon fill="black" stroke="black" points="873.217,-112.714 880.836,-105.352 870.289,-106.356 873.217,-112.714"/>
</g>
<!-- Frobenius_char -->
<g id="node47" class="node"><title>Frobenius_char</title>
<g id="a_node47"><a xlink:href="Combi.SymGroup.Frobenius_char.html" xlink:title="Frobenius_char">
<polygon fill="#dbc3b6" stroke="#dbc3b6" points="410.5,-1188 279.5,-1188 279.5,-1152 410.5,-1152 410.5,-1188"/>
<text text-anchor="middle" x="345" y="-1165.6" font-family="Times,serif" font-size="18.00">Frobenius_char</text>
</a>
</g>
</g>
<!-- Frobenius_char&#45;&gt;sympoly -->
<g id="edge16" class="edge"><title>Frobenius_char&#45;&gt;sympoly</title>
<path fill="none" stroke="black" d="M387.565,-1151.88C412.655,-1141.78 444.484,-1128.98 470.536,-1118.5"/>
<polygon fill="black" stroke="black" points="471.878,-1121.73 479.849,-1114.75 469.266,-1115.24 471.878,-1121.73"/>
</g>
<!-- towerSn -->
<g id="node54" class="node"><title>towerSn</title>
<g id="a_node54"><a xlink:href="Combi.SymGroup.towerSn.html" xlink:title="towerSn">
<polygon fill="#dbc3b6" stroke="#dbc3b6" points="384.5,-1116 305.5,-1116 305.5,-1080 384.5,-1080 384.5,-1116"/>
<text text-anchor="middle" x="345" y="-1093.6" font-family="Times,serif" font-size="18.00">towerSn</text>
</a>
</g>
</g>
<!-- Frobenius_char&#45;&gt;towerSn -->
<g id="edge17" class="edge"><title>Frobenius_char&#45;&gt;towerSn</title>
<path fill="none" stroke="black" d="M345,-1151.7C345,-1143.98 345,-1134.71 345,-1126.11"/>
<polygon fill="black" stroke="black" points="348.5,-1126.1 345,-1116.1 341.5,-1126.1 348.5,-1126.1"/>
</g>
<!-- cycles -->
<g id="node48" class="node"><title>cycles</title>
<g id="a_node48"><a xlink:href="Combi.SymGroup.cycles.html" xlink:title="cycles">
<polygon fill="#dbc3b6" stroke="#dbc3b6" points="1101,-252 1039,-252 1039,-216 1101,-216 1101,-252"/>
<text text-anchor="middle" x="1070" y="-229.6" font-family="Times,serif" font-size="18.00">cycles</text>
</a>
</g>
</g>
<!-- cycles&#45;&gt;partition -->
<g id="edge20" class="edge"><title>cycles&#45;&gt;partition</title>
<path fill="none" stroke="black" d="M1038.67,-218.666C1017.06,-208.778 987.955,-195.463 963.631,-184.335"/>
<polygon fill="black" stroke="black" points="964.776,-181.009 954.226,-180.032 961.864,-187.375 964.776,-181.009"/>
</g>
<!-- cycles&#45;&gt;permcomp -->
<g id="edge21" class="edge"><title>cycles&#45;&gt;permcomp</title>
<path fill="none" stroke="black" d="M1071.48,-215.697C1072.14,-207.983 1072.94,-198.712 1073.68,-190.112"/>
<polygon fill="black" stroke="black" points="1077.17,-190.367 1074.53,-180.104 1070.19,-189.769 1077.17,-190.367"/>
</g>
<!-- cycletype&#45;&gt;fibered_set -->
<g id="edge18" class="edge"><title>cycletype&#45;&gt;fibered_set</title>
<path fill="none" stroke="black" d="M821.921,-287.697C814.608,-279.305 805.69,-269.07 797.665,-259.861"/>
<polygon fill="black" stroke="black" points="800.114,-257.344 790.905,-252.104 794.836,-261.943 800.114,-257.344"/>
</g>
<!-- cycletype&#45;&gt;cycles -->
<g id="edge19" class="edge"><title>cycletype&#45;&gt;cycles</title>
<path fill="none" stroke="black" d="M880.007,-292.079C922.614,-279.279 987.387,-259.82 1029.2,-247.256"/>
<polygon fill="black" stroke="black" points="1030.23,-250.604 1038.8,-244.374 1028.21,-243.9 1030.23,-250.604"/>
</g>
<!-- permcent&#45;&gt;cycletype -->
<g id="edge15" class="edge"><title>permcent&#45;&gt;cycletype</title>
<path fill="none" stroke="black" d="M448.651,-1007.84C482.374,-968.578 568.545,-869.617 646,-792 729.775,-708.049 761.405,-698.071 843,-612 878.197,-574.872 916,-574.159 916,-523 916,-523 916,-523 916,-449 916,-403.236 884.279,-358.453 861.038,-331.783"/>
<polygon fill="black" stroke="black" points="863.428,-329.206 854.142,-324.106 858.221,-333.884 863.428,-329.206"/>
</g>
<!-- presentSn&#45;&gt;congr -->
<g id="edge14" class="edge"><title>presentSn&#45;&gt;congr</title>
<path fill="none" stroke="black" d="M619.461,-503.697C610.197,-495.05 598.838,-484.449 588.743,-475.027"/>
<polygon fill="black" stroke="black" points="591.025,-472.369 581.326,-468.104 586.249,-477.486 591.025,-472.369"/>
</g>
<!-- reprS2 -->
<g id="node52" class="node"><title>reprS2</title>
<g id="a_node52"><a xlink:href="Combi.SymGroup.reprS2.html" xlink:title="reprS2">
<polygon fill="#dbc3b6" stroke="#dbc3b6" points="682.5,-684 617.5,-684 617.5,-648 682.5,-648 682.5,-684"/>
<text text-anchor="middle" x="650" y="-661.6" font-family="Times,serif" font-size="18.00">reprS2</text>
</a>
</g>
</g>
<!-- reprdim1 -->
<g id="node53" class="node"><title>reprdim1</title>
<g id="a_node53"><a xlink:href="Combi.SymGroup.reprdim1.html" xlink:title="reprdim1">
<polygon fill="#dbc3b6" stroke="#dbc3b6" points="660.5,-612 577.5,-612 577.5,-576 660.5,-576 660.5,-612"/>
<text text-anchor="middle" x="619" y="-589.6" font-family="Times,serif" font-size="18.00">reprdim1</text>
</a>
</g>
</g>
<!-- reprS2&#45;&gt;reprdim1 -->
<g id="edge12" class="edge"><title>reprS2&#45;&gt;reprdim1</title>
<path fill="none" stroke="black" d="M642.337,-647.697C638.808,-639.728 634.544,-630.1 630.631,-621.264"/>
<polygon fill="black" stroke="black" points="633.824,-619.831 626.575,-612.104 627.424,-622.665 633.824,-619.831"/>
</g>
<!-- reprdim1&#45;&gt;presentSn -->
<g id="edge13" class="edge"><title>reprdim1&#45;&gt;presentSn</title>
<path fill="none" stroke="black" d="M623.697,-575.697C625.813,-567.898 628.362,-558.509 630.718,-549.829"/>
<polygon fill="black" stroke="black" points="634.116,-550.672 633.357,-540.104 627.36,-548.838 634.116,-550.672"/>
</g>
<!-- towerSn&#45;&gt;ordcast -->
<g id="edge10" class="edge"><title>towerSn&#45;&gt;ordcast</title>
<path fill="none" stroke="black" d="M305.3,-1082.8C256.764,-1062.58 181,-1020.53 181,-955 181,-955 181,-955 181,-665 181,-624.996 181,-578.653 181,-550.08"/>
<polygon fill="black" stroke="black" points="184.5,-550.049 181,-540.049 177.5,-550.049 184.5,-550.049"/>
</g>
<!-- towerSn&#45;&gt;permcent -->
<g id="edge11" class="edge"><title>towerSn&#45;&gt;permcent</title>
<path fill="none" stroke="black" d="M367,-1079.7C378.209,-1070.88 392.002,-1060.03 404.154,-1050.47"/>
<polygon fill="black" stroke="black" points="406.557,-1053.04 412.253,-1044.1 402.229,-1047.54 406.557,-1053.04"/>
</g>
</g>
</svg>
