<?xml version="1.0" encoding="UTF-8" standalone="no"?>
<!DOCTYPE svg PUBLIC "-//W3C//DTD SVG 1.1//EN"
 "http://www.w3.org/Graphics/SVG/1.1/DTD/svg11.dtd">
<!-- Generated by graphviz version 2.38.0 (20140413.2041)
 -->
<!-- Title: depend Pages: 1 -->
<svg width="2329pt" height="1268pt"
 viewBox="0.00 0.00 2329.00 1268.00" xmlns="http://www.w3.org/2000/svg" xmlns:xlink="http://www.w3.org/1999/xlink">
<g id="graph0" class="graph" transform="scale(1 1) rotate(0) translate(4 1264)">
<title>depend</title>
<!-- Ccpo -->
<g id="node1" class="node"><title>Ccpo</title>
<g id="a_node1"><a xlink:href="3rdparty.ALEA.Ccpo.html" xlink:title="Ccpo">
<polygon fill="#dbc3b6" stroke="#dbc3b6" points="56,-324 0,-324 0,-288 56,-288 56,-324"/>
<text text-anchor="middle" x="28" y="-301.6" font-family="Times,serif" font-size="18.00">Ccpo</text>
</a>
</g>
</g>
<!-- Misc -->
<g id="node2" class="node"><title>Misc</title>
<g id="a_node2"><a xlink:href="3rdparty.ALEA.Misc.html" xlink:title="Misc">
<polygon fill="#dbc3b6" stroke="#dbc3b6" points="182,-324 128,-324 128,-288 182,-288 182,-324"/>
<text text-anchor="middle" x="155" y="-301.6" font-family="Times,serif" font-size="18.00">Misc</text>
</a>
</g>
</g>
<!-- combclass -->
<g id="node3" class="node"><title>combclass</title>
<g id="a_node3"><a xlink:href="Combi.Basic.combclass.html" xlink:title="combclass">
<polygon fill="#dbc3b6" stroke="#dbc3b6" points="1257,-108 1165,-108 1165,-72 1257,-72 1257,-108"/>
<text text-anchor="middle" x="1211" y="-85.6" font-family="Times,serif" font-size="18.00">combclass</text>
</a>
</g>
</g>
<!-- tools -->
<g id="node44" class="node"><title>tools</title>
<g id="a_node44"><a xlink:href="Combi.SSRcomplements.tools.html" xlink:title="tools">
<polygon fill="#dbc3b6" stroke="#dbc3b6" points="1857,-36 1803,-36 1803,-0 1857,-0 1857,-36"/>
<text text-anchor="middle" x="1830" y="-13.6" font-family="Times,serif" font-size="18.00">tools</text>
</a>
</g>
</g>
<!-- combclass&#45;&gt;tools -->
<g id="edge27" class="edge"><title>combclass&#45;&gt;tools</title>
<path fill="none" stroke="black" d="M1257.02,-83.7958C1374.84,-70.4724 1685.61,-35.3283 1792.93,-23.1923"/>
<polygon fill="black" stroke="black" points="1793.41,-26.6597 1802.96,-22.0581 1792.63,-19.704 1793.41,-26.6597"/>
</g>
<!-- congr -->
<g id="node4" class="node"><title>congr</title>
<g id="a_node4"><a xlink:href="Combi.Basic.congr.html" xlink:title="congr">
<polygon fill="#dbc3b6" stroke="#dbc3b6" points="1701.5,-396 1642.5,-396 1642.5,-360 1701.5,-360 1701.5,-396"/>
<text text-anchor="middle" x="1672" y="-373.6" font-family="Times,serif" font-size="18.00">congr</text>
</a>
</g>
</g>
<!-- permuted -->
<g id="node11" class="node"><title>permuted</title>
<g id="a_node11"><a xlink:href="Combi.Combi.permuted.html" xlink:title="permuted">
<polygon fill="#dbc3b6" stroke="#dbc3b6" points="1724,-324 1638,-324 1638,-288 1724,-288 1724,-324"/>
<text text-anchor="middle" x="1681" y="-301.6" font-family="Times,serif" font-size="18.00">permuted</text>
</a>
</g>
</g>
<!-- congr&#45;&gt;permuted -->
<g id="edge25" class="edge"><title>congr&#45;&gt;permuted</title>
<path fill="none" stroke="black" d="M1674.22,-359.697C1675.22,-351.983 1676.41,-342.712 1677.51,-334.112"/>
<polygon fill="black" stroke="black" points="1681,-334.469 1678.8,-324.104 1674.05,-333.576 1681,-334.469"/>
</g>
<!-- vectNK -->
<g id="node17" class="node"><title>vectNK</title>
<g id="a_node17"><a xlink:href="Combi.Combi.vectNK.html" xlink:title="vectNK">
<polygon fill="#dbc3b6" stroke="#dbc3b6" points="2174,-180 2100,-180 2100,-144 2174,-144 2174,-180"/>
<text text-anchor="middle" x="2137" y="-157.6" font-family="Times,serif" font-size="18.00">vectNK</text>
</a>
</g>
</g>
<!-- congr&#45;&gt;vectNK -->
<g id="edge26" class="edge"><title>congr&#45;&gt;vectNK</title>
<path fill="none" stroke="black" d="M1701.63,-366.279C1756.88,-345.987 1879,-299.707 1978,-252 2020.8,-231.377 2068.1,-204.322 2099.89,-185.479"/>
<polygon fill="black" stroke="black" points="2102.03,-188.277 2108.84,-180.153 2098.45,-182.263 2102.03,-188.277"/>
</g>
<!-- ordtype -->
<g id="node5" class="node"><title>ordtype</title>
<g id="a_node5"><a xlink:href="Combi.Basic.ordtype.html" xlink:title="ordtype">
<polygon fill="#dbc3b6" stroke="#dbc3b6" points="1472,-108 1398,-108 1398,-72 1472,-72 1472,-108"/>
<text text-anchor="middle" x="1435" y="-85.6" font-family="Times,serif" font-size="18.00">ordtype</text>
</a>
</g>
</g>
<!-- ordtype&#45;&gt;tools -->
<g id="edge24" class="edge"><title>ordtype&#45;&gt;tools</title>
<path fill="none" stroke="black" d="M1472.16,-82.4146C1547.55,-69.0549 1717.67,-38.9058 1792.96,-25.5641"/>
<polygon fill="black" stroke="black" points="1793.7,-28.9879 1802.93,-23.7965 1792.48,-22.0953 1793.7,-28.9879"/>
</g>
<!-- Yamanouchi -->
<g id="node6" class="node"><title>Yamanouchi</title>
<g id="a_node6"><a xlink:href="Combi.Combi.Yamanouchi.html" xlink:title="Yamanouchi">
<polygon fill="#dbc3b6" stroke="#dbc3b6" points="830,-252 720,-252 720,-216 830,-216 830,-252"/>
<text text-anchor="middle" x="775" y="-229.6" font-family="Times,serif" font-size="18.00">Yamanouchi</text>
</a>
</g>
</g>
<!-- partition -->
<g id="node10" class="node"><title>partition</title>
<g id="a_node10"><a xlink:href="Combi.Combi.partition.html" xlink:title="partition">
<polygon fill="#dbc3b6" stroke="#dbc3b6" points="1102,-180 1022,-180 1022,-144 1102,-144 1102,-180"/>
<text text-anchor="middle" x="1062" y="-157.6" font-family="Times,serif" font-size="18.00">partition</text>
</a>
</g>
</g>
<!-- Yamanouchi&#45;&gt;partition -->
<g id="edge59" class="edge"><title>Yamanouchi&#45;&gt;partition</title>
<path fill="none" stroke="black" d="M830.336,-219.503C882.868,-206.691 961.135,-187.601 1011.88,-175.226"/>
<polygon fill="black" stroke="black" points="1012.75,-178.614 1021.64,-172.844 1011.1,-171.813 1012.75,-178.614"/>
</g>
<!-- composition -->
<g id="node7" class="node"><title>composition</title>
<g id="a_node7"><a xlink:href="Combi.Combi.composition.html" xlink:title="composition">
<polygon fill="#dbc3b6" stroke="#dbc3b6" points="1298,-252 1190,-252 1190,-216 1298,-216 1298,-252"/>
<text text-anchor="middle" x="1244" y="-229.6" font-family="Times,serif" font-size="18.00">composition</text>
</a>
</g>
</g>
<!-- composition&#45;&gt;partition -->
<g id="edge78" class="edge"><title>composition&#45;&gt;partition</title>
<path fill="none" stroke="black" d="M1199.48,-215.876C1172.84,-205.63 1138.93,-192.589 1111.46,-182.022"/>
<polygon fill="black" stroke="black" points="1112.62,-178.72 1102.03,-178.397 1110.11,-185.253 1112.62,-178.72"/>
</g>
<!-- fibered_set -->
<g id="node8" class="node"><title>fibered_set</title>
<g id="a_node8"><a xlink:href="Combi.Combi.fibered_set.html" xlink:title="fibered_set">
<polygon fill="#dbc3b6" stroke="#dbc3b6" points="2321,-468 2223,-468 2223,-432 2321,-432 2321,-468"/>
<text text-anchor="middle" x="2272" y="-445.6" font-family="Times,serif" font-size="18.00">fibered_set</text>
</a>
</g>
</g>
<!-- multinomial -->
<g id="node9" class="node"><title>multinomial</title>
<g id="a_node9"><a xlink:href="Combi.Combi.multinomial.html" xlink:title="multinomial">
<polygon fill="#dbc3b6" stroke="#dbc3b6" points="1882,-180 1778,-180 1778,-144 1882,-144 1882,-180"/>
<text text-anchor="middle" x="1830" y="-157.6" font-family="Times,serif" font-size="18.00">multinomial</text>
</a>
</g>
</g>
<!-- multinomial&#45;&gt;tools -->
<g id="edge71" class="edge"><title>multinomial&#45;&gt;tools</title>
<path fill="none" stroke="black" d="M1830,-143.871C1830,-119.67 1830,-75.2108 1830,-46.3932"/>
<polygon fill="black" stroke="black" points="1833.5,-46.1892 1830,-36.1893 1826.5,-46.1893 1833.5,-46.1892"/>
</g>
<!-- partition&#45;&gt;combclass -->
<g id="edge75" class="edge"><title>partition&#45;&gt;combclass</title>
<path fill="none" stroke="black" d="M1098.45,-143.876C1118.64,-134.392 1143.92,-122.513 1165.41,-112.419"/>
<polygon fill="black" stroke="black" points="1167.11,-115.488 1174.67,-108.068 1164.13,-109.153 1167.11,-115.488"/>
</g>
<!-- partition&#45;&gt;ordtype -->
<g id="edge76" class="edge"><title>partition&#45;&gt;ordtype</title>
<path fill="none" stroke="black" d="M1102.27,-153.442C1171.81,-140.392 1314.03,-113.702 1387.98,-99.8235"/>
<polygon fill="black" stroke="black" points="1388.77,-103.238 1397.95,-97.953 1387.48,-96.3576 1388.77,-103.238"/>
</g>
<!-- sorted -->
<g id="node43" class="node"><title>sorted</title>
<g id="a_node43"><a xlink:href="Combi.SSRcomplements.sorted.html" xlink:title="sorted">
<polygon fill="#dbc3b6" stroke="#dbc3b6" points="1093,-108 1031,-108 1031,-72 1093,-72 1093,-108"/>
<text text-anchor="middle" x="1062" y="-85.6" font-family="Times,serif" font-size="18.00">sorted</text>
</a>
</g>
</g>
<!-- partition&#45;&gt;sorted -->
<g id="edge77" class="edge"><title>partition&#45;&gt;sorted</title>
<path fill="none" stroke="black" d="M1062,-143.697C1062,-135.983 1062,-126.712 1062,-118.112"/>
<polygon fill="black" stroke="black" points="1065.5,-118.104 1062,-108.104 1058.5,-118.104 1065.5,-118.104"/>
</g>
<!-- permuted&#45;&gt;composition -->
<g id="edge72" class="edge"><title>permuted&#45;&gt;composition</title>
<path fill="none" stroke="black" d="M1637.91,-298.916C1572.24,-289.529 1443.18,-270.644 1334,-252 1325.66,-250.576 1316.91,-249.011 1308.26,-247.423"/>
<polygon fill="black" stroke="black" points="1308.67,-243.939 1298.2,-245.557 1307.39,-250.822 1308.67,-243.939"/>
</g>
<!-- permuted&#45;&gt;multinomial -->
<g id="edge73" class="edge"><title>permuted&#45;&gt;multinomial</title>
<path fill="none" stroke="black" d="M1698.97,-287.871C1725.26,-262.817 1774.33,-216.052 1804.39,-187.406"/>
<polygon fill="black" stroke="black" points="1807.14,-189.622 1811.96,-180.189 1802.31,-184.555 1807.14,-189.622"/>
</g>
<!-- cycles -->
<g id="node47" class="node"><title>cycles</title>
<g id="a_node47"><a xlink:href="Combi.SymGroup.cycles.html" xlink:title="cycles">
<polygon fill="#dbc3b6" stroke="#dbc3b6" points="1942,-252 1880,-252 1880,-216 1942,-216 1942,-252"/>
<text text-anchor="middle" x="1911" y="-229.6" font-family="Times,serif" font-size="18.00">cycles</text>
</a>
</g>
</g>
<!-- permuted&#45;&gt;cycles -->
<g id="edge74" class="edge"><title>permuted&#45;&gt;cycles</title>
<path fill="none" stroke="black" d="M1724.26,-291.834C1766.1,-279.101 1829.02,-259.95 1870.05,-247.462"/>
<polygon fill="black" stroke="black" points="1871.19,-250.776 1879.73,-244.516 1869.15,-244.079 1871.19,-250.776"/>
</g>
<!-- skewtab -->
<g id="node12" class="node"><title>skewtab</title>
<g id="a_node12"><a xlink:href="Combi.Combi.skewtab.html" xlink:title="skewtab">
<polygon fill="#dbc3b6" stroke="#dbc3b6" points="886.5,-828 809.5,-828 809.5,-792 886.5,-792 886.5,-828"/>
<text text-anchor="middle" x="848" y="-805.6" font-family="Times,serif" font-size="18.00">skewtab</text>
</a>
</g>
</g>
<!-- stdtab -->
<g id="node14" class="node"><title>stdtab</title>
<g id="a_node14"><a xlink:href="Combi.Combi.stdtab.html" xlink:title="stdtab">
<polygon fill="#dbc3b6" stroke="#dbc3b6" points="811,-324 749,-324 749,-288 811,-288 811,-324"/>
<text text-anchor="middle" x="780" y="-301.6" font-family="Times,serif" font-size="18.00">stdtab</text>
</a>
</g>
</g>
<!-- skewtab&#45;&gt;stdtab -->
<g id="edge70" class="edge"><title>skewtab&#45;&gt;stdtab</title>
<path fill="none" stroke="black" d="M833.579,-791.894C813.618,-766.416 780,-716.201 780,-667 780,-667 780,-667 780,-449 780,-408.996 780,-362.653 780,-334.08"/>
<polygon fill="black" stroke="black" points="783.5,-334.049 780,-324.049 776.5,-334.049 783.5,-334.049"/>
</g>
<!-- std -->
<g id="node13" class="node"><title>std</title>
<g id="a_node13"><a xlink:href="Combi.Combi.std.html" xlink:title="std">
<polygon fill="#dbc3b6" stroke="#dbc3b6" points="1424,-252 1370,-252 1370,-216 1424,-216 1424,-252"/>
<text text-anchor="middle" x="1397" y="-229.6" font-family="Times,serif" font-size="18.00">std</text>
</a>
</g>
</g>
<!-- std&#45;&gt;combclass -->
<g id="edge67" class="edge"><title>std&#45;&gt;combclass</title>
<path fill="none" stroke="black" d="M1374.56,-215.871C1341.33,-190.497 1278.92,-142.854 1241.54,-114.318"/>
<polygon fill="black" stroke="black" points="1243.59,-111.476 1233.52,-108.189 1239.34,-117.039 1243.59,-111.476"/>
</g>
<!-- std&#45;&gt;ordtype -->
<g id="edge68" class="edge"><title>std&#45;&gt;ordtype</title>
<path fill="none" stroke="black" d="M1401.58,-215.871C1408.09,-191.564 1420.06,-146.819 1427.77,-118.013"/>
<polygon fill="black" stroke="black" points="1431.2,-118.754 1430.4,-108.189 1424.43,-116.945 1431.2,-118.754"/>
</g>
<!-- permcomp -->
<g id="node41" class="node"><title>permcomp</title>
<g id="a_node41"><a xlink:href="Combi.SSRcomplements.permcomp.html" xlink:title="permcomp">
<polygon fill="#dbc3b6" stroke="#dbc3b6" points="1706,-180 1612,-180 1612,-144 1706,-144 1706,-180"/>
<text text-anchor="middle" x="1659" y="-157.6" font-family="Times,serif" font-size="18.00">permcomp</text>
</a>
</g>
</g>
<!-- std&#45;&gt;permcomp -->
<g id="edge69" class="edge"><title>std&#45;&gt;permcomp</title>
<path fill="none" stroke="black" d="M1424.05,-225.772C1465.78,-214.625 1546.77,-192.986 1601.86,-178.265"/>
<polygon fill="black" stroke="black" points="1603.08,-181.564 1611.84,-175.601 1601.27,-174.801 1603.08,-181.564"/>
</g>
<!-- stdtab&#45;&gt;Yamanouchi -->
<g id="edge64" class="edge"><title>stdtab&#45;&gt;Yamanouchi</title>
<path fill="none" stroke="black" d="M778.764,-287.697C778.213,-279.983 777.551,-270.712 776.937,-262.112"/>
<polygon fill="black" stroke="black" points="780.425,-261.83 776.222,-252.104 773.443,-262.328 780.425,-261.83"/>
</g>
<!-- stdtab&#45;&gt;std -->
<g id="edge65" class="edge"><title>stdtab&#45;&gt;std</title>
<path fill="none" stroke="black" d="M811.184,-303.855C895.866,-300.35 1136.97,-287.745 1334,-252 1342.57,-250.445 1351.68,-248.29 1360.23,-246.036"/>
<polygon fill="black" stroke="black" points="1361.22,-249.393 1369.94,-243.374 1359.37,-242.642 1361.22,-249.393"/>
</g>
<!-- tableau -->
<g id="node16" class="node"><title>tableau</title>
<g id="a_node16"><a xlink:href="Combi.Combi.tableau.html" xlink:title="tableau">
<polygon fill="#dbc3b6" stroke="#dbc3b6" points="972,-252 902,-252 902,-216 972,-216 972,-252"/>
<text text-anchor="middle" x="937" y="-229.6" font-family="Times,serif" font-size="18.00">tableau</text>
</a>
</g>
</g>
<!-- stdtab&#45;&gt;tableau -->
<g id="edge66" class="edge"><title>stdtab&#45;&gt;tableau</title>
<path fill="none" stroke="black" d="M811.018,-291.17C834.338,-280.773 866.613,-266.383 892.657,-254.771"/>
<polygon fill="black" stroke="black" points="894.234,-257.9 901.942,-250.631 891.383,-251.507 894.234,-257.9"/>
</g>
<!-- subseq -->
<g id="node15" class="node"><title>subseq</title>
<g id="a_node15"><a xlink:href="Combi.Combi.subseq.html" xlink:title="subseq">
<polygon fill="#dbc3b6" stroke="#dbc3b6" points="803.5,-180 736.5,-180 736.5,-144 803.5,-144 803.5,-180"/>
<text text-anchor="middle" x="770" y="-157.6" font-family="Times,serif" font-size="18.00">subseq</text>
</a>
</g>
</g>
<!-- subseq&#45;&gt;combclass -->
<g id="edge62" class="edge"><title>subseq&#45;&gt;combclass</title>
<path fill="none" stroke="black" d="M803.761,-156.679C867.51,-148.373 1009.89,-129.12 1129,-108 1137.33,-106.522 1146.12,-104.837 1154.72,-103.116"/>
<polygon fill="black" stroke="black" points="1155.59,-106.511 1164.69,-101.089 1154.19,-99.6513 1155.59,-106.511"/>
</g>
<!-- subseq&#45;&gt;sorted -->
<g id="edge63" class="edge"><title>subseq&#45;&gt;sorted</title>
<path fill="none" stroke="black" d="M803.781,-152.902C857.597,-140.001 962.636,-114.82 1020.79,-100.879"/>
<polygon fill="black" stroke="black" points="1021.83,-104.23 1030.74,-98.4949 1020.2,-97.4226 1021.83,-104.23"/>
</g>
<!-- tableau&#45;&gt;partition -->
<g id="edge61" class="edge"><title>tableau&#45;&gt;partition</title>
<path fill="none" stroke="black" d="M967.578,-215.876C984.074,-206.639 1004.62,-195.131 1022.34,-185.212"/>
<polygon fill="black" stroke="black" points="1024.29,-188.13 1031.3,-180.19 1020.87,-182.022 1024.29,-188.13"/>
</g>
<!-- vectNK&#45;&gt;tools -->
<g id="edge60" class="edge"><title>vectNK&#45;&gt;tools</title>
<path fill="none" stroke="black" d="M2124.21,-143.797C2108.19,-123.513 2078.83,-90.2559 2046,-72 1988.67,-40.124 1912.31,-27.2145 1867.42,-22.1362"/>
<polygon fill="black" stroke="black" points="1867.57,-18.6326 1857.26,-21.0601 1866.84,-25.5937 1867.57,-18.6326"/>
</g>
<!-- Erdos_Szekeres -->
<g id="node18" class="node"><title>Erdos_Szekeres</title>
<g id="a_node18"><a xlink:href="Combi.Erdos_Szekeres.Erdos_Szekeres.html" xlink:title="Erdos_Szekeres">
<polygon fill="#dbc3b6" stroke="#dbc3b6" points="1621.5,-684 1488.5,-684 1488.5,-648 1621.5,-648 1621.5,-684"/>
<text text-anchor="middle" x="1555" y="-661.6" font-family="Times,serif" font-size="18.00">Erdos_Szekeres</text>
</a>
</g>
</g>
<!-- Greene_inv -->
<g id="node24" class="node"><title>Greene_inv</title>
<g id="a_node24"><a xlink:href="Combi.LRrule.Greene_inv.html" xlink:title="Greene_inv">
<polygon fill="#dbc3b6" stroke="#dbc3b6" points="1596.5,-612 1495.5,-612 1495.5,-576 1596.5,-576 1596.5,-612"/>
<text text-anchor="middle" x="1546" y="-589.6" font-family="Times,serif" font-size="18.00">Greene_inv</text>
</a>
</g>
</g>
<!-- Erdos_Szekeres&#45;&gt;Greene_inv -->
<g id="edge58" class="edge"><title>Erdos_Szekeres&#45;&gt;Greene_inv</title>
<path fill="none" stroke="black" d="M1552.78,-647.697C1551.78,-639.983 1550.59,-630.712 1549.49,-622.112"/>
<polygon fill="black" stroke="black" points="1552.95,-621.576 1548.2,-612.104 1546,-622.469 1552.95,-621.576"/>
</g>
<!-- Frobenius_ident -->
<g id="node19" class="node"><title>Frobenius_ident</title>
<g id="a_node19"><a xlink:href="Combi.HookFormula.Frobenius_ident.html" xlink:title="Frobenius_ident">
<polygon fill="#dbc3b6" stroke="#dbc3b6" points="558.5,-540 421.5,-540 421.5,-504 558.5,-504 558.5,-540"/>
<text text-anchor="middle" x="490" y="-517.6" font-family="Times,serif" font-size="18.00">Frobenius_ident</text>
</a>
</g>
</g>
<!-- hook -->
<g id="node21" class="node"><title>hook</title>
<g id="a_node21"><a xlink:href="Combi.HookFormula.hook.html" xlink:title="hook">
<polygon fill="#dbc3b6" stroke="#dbc3b6" points="405,-468 351,-468 351,-432 405,-432 405,-468"/>
<text text-anchor="middle" x="378" y="-445.6" font-family="Times,serif" font-size="18.00">hook</text>
</a>
</g>
</g>
<!-- Frobenius_ident&#45;&gt;hook -->
<g id="edge36" class="edge"><title>Frobenius_ident&#45;&gt;hook</title>
<path fill="none" stroke="black" d="M462.602,-503.876C447.848,-494.655 429.475,-483.172 413.623,-473.265"/>
<polygon fill="black" stroke="black" points="415.45,-470.279 405.115,-467.947 411.74,-476.215 415.45,-470.279"/>
</g>
<!-- Schensted -->
<g id="node25" class="node"><title>Schensted</title>
<g id="a_node25"><a xlink:href="Combi.LRrule.Schensted.html" xlink:title="Schensted">
<polygon fill="#dbc3b6" stroke="#dbc3b6" points="667,-396 575,-396 575,-360 667,-360 667,-396"/>
<text text-anchor="middle" x="621" y="-373.6" font-family="Times,serif" font-size="18.00">Schensted</text>
</a>
</g>
</g>
<!-- Frobenius_ident&#45;&gt;Schensted -->
<g id="edge37" class="edge"><title>Frobenius_ident&#45;&gt;Schensted</title>
<path fill="none" stroke="black" d="M505.802,-503.871C528.817,-478.924 571.691,-432.45 598.146,-403.773"/>
<polygon fill="black" stroke="black" points="600.934,-405.913 605.142,-396.189 595.789,-401.166 600.934,-405.913"/>
</g>
<!-- Qmeasure -->
<g id="node20" class="node"><title>Qmeasure</title>
<g id="a_node20"><a xlink:href="Combi.HookFormula.Qmeasure.html" xlink:title="Qmeasure">
<polygon fill="#dbc3b6" stroke="#dbc3b6" points="190.5,-396 101.5,-396 101.5,-360 190.5,-360 190.5,-396"/>
<text text-anchor="middle" x="146" y="-373.6" font-family="Times,serif" font-size="18.00">Qmeasure</text>
</a>
</g>
</g>
<!-- Qmeasure&#45;&gt;Ccpo -->
<g id="edge33" class="edge"><title>Qmeasure&#45;&gt;Ccpo</title>
<path fill="none" stroke="black" d="M117.134,-359.876C101.475,-350.587 81.9454,-339.001 65.161,-329.045"/>
<polygon fill="black" stroke="black" points="66.5471,-325.797 56.1608,-323.706 62.9757,-331.818 66.5471,-325.797"/>
</g>
<!-- Qmeasure&#45;&gt;Misc -->
<g id="edge34" class="edge"><title>Qmeasure&#45;&gt;Misc</title>
<path fill="none" stroke="black" d="M148.225,-359.697C149.217,-351.983 150.408,-342.712 151.514,-334.112"/>
<polygon fill="black" stroke="black" points="154.997,-334.469 152.801,-324.104 148.054,-333.576 154.997,-334.469"/>
</g>
<!-- rat_coerce -->
<g id="node42" class="node"><title>rat_coerce</title>
<g id="a_node42"><a xlink:href="Combi.SSRcomplements.rat_coerce.html" xlink:title="rat_coerce">
<polygon fill="#dbc3b6" stroke="#dbc3b6" points="503,-324 409,-324 409,-288 503,-288 503,-324"/>
<text text-anchor="middle" x="456" y="-301.6" font-family="Times,serif" font-size="18.00">rat_coerce</text>
</a>
</g>
</g>
<!-- Qmeasure&#45;&gt;rat_coerce -->
<g id="edge35" class="edge"><title>Qmeasure&#45;&gt;rat_coerce</title>
<path fill="none" stroke="black" d="M190.746,-366.896C245.667,-354.495 338.879,-333.447 398.911,-319.891"/>
<polygon fill="black" stroke="black" points="400,-323.233 408.983,-317.617 398.458,-316.405 400,-323.233"/>
</g>
<!-- hook&#45;&gt;subseq -->
<g id="edge30" class="edge"><title>hook&#45;&gt;subseq</title>
<path fill="none" stroke="black" d="M371.264,-431.961C359.934,-400.209 341.242,-331.294 373,-288 415.585,-229.945 632.438,-186.529 726.441,-170.14"/>
<polygon fill="black" stroke="black" points="727.218,-173.558 736.479,-168.411 726.03,-166.659 727.218,-173.558"/>
</g>
<!-- hook&#45;&gt;Qmeasure -->
<g id="edge31" class="edge"><title>hook&#45;&gt;Qmeasure</title>
<path fill="none" stroke="black" d="M350.933,-440.833C314.219,-429.756 247.802,-409.716 200.533,-395.454"/>
<polygon fill="black" stroke="black" points="201.339,-392.041 190.754,-392.504 199.317,-398.743 201.339,-392.041"/>
</g>
<!-- recyama -->
<g id="node22" class="node"><title>recyama</title>
<g id="a_node22"><a xlink:href="Combi.HookFormula.recyama.html" xlink:title="recyama">
<polygon fill="#dbc3b6" stroke="#dbc3b6" points="495,-396 417,-396 417,-360 495,-360 495,-396"/>
<text text-anchor="middle" x="456" y="-373.6" font-family="Times,serif" font-size="18.00">recyama</text>
</a>
</g>
</g>
<!-- hook&#45;&gt;recyama -->
<g id="edge32" class="edge"><title>hook&#45;&gt;recyama</title>
<path fill="none" stroke="black" d="M397.281,-431.697C406.915,-423.05 418.729,-412.449 429.227,-403.027"/>
<polygon fill="black" stroke="black" points="431.836,-405.388 436.941,-396.104 427.161,-400.179 431.836,-405.388"/>
</g>
<!-- recyama&#45;&gt;stdtab -->
<g id="edge28" class="edge"><title>recyama&#45;&gt;stdtab</title>
<path fill="none" stroke="black" d="M495.082,-368.556C556.783,-355.226 676.193,-329.427 739.041,-315.849"/>
<polygon fill="black" stroke="black" points="739.957,-319.232 748.992,-313.699 738.478,-312.39 739.957,-319.232"/>
</g>
<!-- recyama&#45;&gt;rat_coerce -->
<g id="edge29" class="edge"><title>recyama&#45;&gt;rat_coerce</title>
<path fill="none" stroke="black" d="M456,-359.697C456,-351.983 456,-342.712 456,-334.112"/>
<polygon fill="black" stroke="black" points="459.5,-334.104 456,-324.104 452.5,-334.104 459.5,-334.104"/>
</g>
<!-- Greene -->
<g id="node23" class="node"><title>Greene</title>
<g id="a_node23"><a xlink:href="Combi.LRrule.Greene.html" xlink:title="Greene">
<polygon fill="#dbc3b6" stroke="#dbc3b6" points="1580.5,-540 1511.5,-540 1511.5,-504 1580.5,-504 1580.5,-540"/>
<text text-anchor="middle" x="1546" y="-517.6" font-family="Times,serif" font-size="18.00">Greene</text>
</a>
</g>
</g>
<!-- plactic -->
<g id="node30" class="node"><title>plactic</title>
<g id="a_node30"><a xlink:href="Combi.LRrule.plactic.html" xlink:title="plactic">
<polygon fill="#dbc3b6" stroke="#dbc3b6" points="1553.5,-468 1488.5,-468 1488.5,-432 1553.5,-432 1553.5,-468"/>
<text text-anchor="middle" x="1521" y="-445.6" font-family="Times,serif" font-size="18.00">plactic</text>
</a>
</g>
</g>
<!-- Greene&#45;&gt;plactic -->
<g id="edge52" class="edge"><title>Greene&#45;&gt;plactic</title>
<path fill="none" stroke="black" d="M1539.82,-503.697C1537,-495.813 1533.61,-486.304 1530.48,-477.546"/>
<polygon fill="black" stroke="black" points="1533.77,-476.345 1527.11,-468.104 1527.18,-478.699 1533.77,-476.345"/>
</g>
<!-- ordcast -->
<g id="node40" class="node"><title>ordcast</title>
<g id="a_node40"><a xlink:href="Combi.SSRcomplements.ordcast.html" xlink:title="ordcast">
<polygon fill="#dbc3b6" stroke="#dbc3b6" points="2150.5,-468 2079.5,-468 2079.5,-432 2150.5,-432 2150.5,-468"/>
<text text-anchor="middle" x="2115" y="-445.6" font-family="Times,serif" font-size="18.00">ordcast</text>
</a>
</g>
</g>
<!-- Greene&#45;&gt;ordcast -->
<g id="edge53" class="edge"><title>Greene&#45;&gt;ordcast</title>
<path fill="none" stroke="black" d="M1580.75,-516.313C1606.71,-512.839 1643.06,-508.028 1675,-504 1818.74,-485.872 1989.07,-465.738 2069.11,-456.357"/>
<polygon fill="black" stroke="black" points="2069.81,-459.799 2079.34,-455.159 2069,-452.846 2069.81,-459.799"/>
</g>
<!-- Greene_inv&#45;&gt;Greene -->
<g id="edge51" class="edge"><title>Greene_inv&#45;&gt;Greene</title>
<path fill="none" stroke="black" d="M1546,-575.697C1546,-567.983 1546,-558.712 1546,-550.112"/>
<polygon fill="black" stroke="black" points="1549.5,-550.104 1546,-540.104 1542.5,-550.104 1549.5,-550.104"/>
</g>
<!-- Schensted&#45;&gt;stdtab -->
<g id="edge46" class="edge"><title>Schensted&#45;&gt;stdtab</title>
<path fill="none" stroke="black" d="M659.896,-359.876C684.082,-349.228 715.123,-335.562 739.589,-324.791"/>
<polygon fill="black" stroke="black" points="741.21,-327.901 748.952,-320.669 738.39,-321.495 741.21,-327.901"/>
</g>
<!-- Schensted&#45;&gt;subseq -->
<g id="edge47" class="edge"><title>Schensted&#45;&gt;subseq</title>
<path fill="none" stroke="black" d="M623.966,-359.891C630.182,-328.324 647.159,-260.12 684,-216 695.652,-202.046 711.968,-190.703 727.26,-182.144"/>
<polygon fill="black" stroke="black" points="728.927,-185.222 736.103,-177.427 725.632,-179.045 728.927,-185.222"/>
</g>
<!-- Yam_plact -->
<g id="node26" class="node"><title>Yam_plact</title>
<g id="a_node26"><a xlink:href="Combi.LRrule.Yam_plact.html" xlink:title="Yam_plact">
<polygon fill="#dbc3b6" stroke="#dbc3b6" points="1270,-756 1174,-756 1174,-720 1270,-720 1270,-756"/>
<text text-anchor="middle" x="1222" y="-733.6" font-family="Times,serif" font-size="18.00">Yam_plact</text>
</a>
</g>
</g>
<!-- stdplact -->
<g id="node32" class="node"><title>stdplact</title>
<g id="a_node32"><a xlink:href="Combi.LRrule.stdplact.html" xlink:title="stdplact">
<polygon fill="#dbc3b6" stroke="#dbc3b6" points="1259,-684 1185,-684 1185,-648 1259,-648 1259,-684"/>
<text text-anchor="middle" x="1222" y="-661.6" font-family="Times,serif" font-size="18.00">stdplact</text>
</a>
</g>
</g>
<!-- Yam_plact&#45;&gt;stdplact -->
<g id="edge41" class="edge"><title>Yam_plact&#45;&gt;stdplact</title>
<path fill="none" stroke="black" d="M1222,-719.697C1222,-711.983 1222,-702.712 1222,-694.112"/>
<polygon fill="black" stroke="black" points="1225.5,-694.104 1222,-684.104 1218.5,-694.104 1225.5,-694.104"/>
</g>
<!-- extract -->
<g id="node27" class="node"><title>extract</title>
<g id="a_node27"><a xlink:href="Combi.LRrule.extract.html" xlink:title="extract">
<polygon fill="#dbc3b6" stroke="#dbc3b6" points="1102.5,-1044 1035.5,-1044 1035.5,-1008 1102.5,-1008 1102.5,-1044"/>
<text text-anchor="middle" x="1069" y="-1021.6" font-family="Times,serif" font-size="18.00">extract</text>
</a>
</g>
</g>
<!-- implem -->
<g id="node29" class="node"><title>implem</title>
<g id="a_node29"><a xlink:href="Combi.LRrule.implem.html" xlink:title="implem">
<polygon fill="#dbc3b6" stroke="#dbc3b6" points="1104.5,-972 1033.5,-972 1033.5,-936 1104.5,-936 1104.5,-972"/>
<text text-anchor="middle" x="1069" y="-949.6" font-family="Times,serif" font-size="18.00">implem</text>
</a>
</g>
</g>
<!-- extract&#45;&gt;implem -->
<g id="edge57" class="edge"><title>extract&#45;&gt;implem</title>
<path fill="none" stroke="black" d="M1069,-1007.7C1069,-999.983 1069,-990.712 1069,-982.112"/>
<polygon fill="black" stroke="black" points="1072.5,-982.104 1069,-972.104 1065.5,-982.104 1072.5,-982.104"/>
</g>
<!-- freeSchur -->
<g id="node28" class="node"><title>freeSchur</title>
<g id="a_node28"><a xlink:href="Combi.LRrule.freeSchur.html" xlink:title="freeSchur">
<polygon fill="#dbc3b6" stroke="#dbc3b6" points="1112.5,-828 1025.5,-828 1025.5,-792 1112.5,-792 1112.5,-828"/>
<text text-anchor="middle" x="1069" y="-805.6" font-family="Times,serif" font-size="18.00">freeSchur</text>
</a>
</g>
</g>
<!-- freeSchur&#45;&gt;Yam_plact -->
<g id="edge54" class="edge"><title>freeSchur&#45;&gt;Yam_plact</title>
<path fill="none" stroke="black" d="M1106.43,-791.876C1127.25,-782.349 1153.35,-770.407 1175.48,-760.283"/>
<polygon fill="black" stroke="black" points="1177.06,-763.411 1184.69,-756.068 1174.14,-757.046 1177.06,-763.411"/>
</g>
<!-- shuffle -->
<g id="node31" class="node"><title>shuffle</title>
<g id="a_node31"><a xlink:href="Combi.LRrule.shuffle.html" xlink:title="shuffle">
<polygon fill="#dbc3b6" stroke="#dbc3b6" points="1101.5,-756 1036.5,-756 1036.5,-720 1101.5,-720 1101.5,-756"/>
<text text-anchor="middle" x="1069" y="-733.6" font-family="Times,serif" font-size="18.00">shuffle</text>
</a>
</g>
</g>
<!-- freeSchur&#45;&gt;shuffle -->
<g id="edge55" class="edge"><title>freeSchur&#45;&gt;shuffle</title>
<path fill="none" stroke="black" d="M1069,-791.697C1069,-783.983 1069,-774.712 1069,-766.112"/>
<polygon fill="black" stroke="black" points="1072.5,-766.104 1069,-756.104 1065.5,-766.104 1072.5,-766.104"/>
</g>
<!-- Schur_mpoly -->
<g id="node36" class="node"><title>Schur_mpoly</title>
<g id="a_node36"><a xlink:href="Combi.MPoly.Schur_mpoly.html" xlink:title="Schur_mpoly">
<polygon fill="#dbc3b6" stroke="#dbc3b6" points="1003,-612 889,-612 889,-576 1003,-576 1003,-612"/>
<text text-anchor="middle" x="946" y="-589.6" font-family="Times,serif" font-size="18.00">Schur_mpoly</text>
</a>
</g>
</g>
<!-- freeSchur&#45;&gt;Schur_mpoly -->
<g id="edge56" class="edge"><title>freeSchur&#45;&gt;Schur_mpoly</title>
<path fill="none" stroke="black" d="M1039.14,-791.817C1025.56,-782.694 1010.26,-770.387 1000,-756 970.489,-714.637 956.239,-655.996 950.076,-622.089"/>
<polygon fill="black" stroke="black" points="953.487,-621.268 948.351,-612.002 946.587,-622.449 953.487,-621.268"/>
</g>
<!-- therule -->
<g id="node33" class="node"><title>therule</title>
<g id="a_node33"><a xlink:href="Combi.LRrule.therule.html" xlink:title="therule">
<polygon fill="#dbc3b6" stroke="#dbc3b6" points="1102.5,-900 1035.5,-900 1035.5,-864 1102.5,-864 1102.5,-900"/>
<text text-anchor="middle" x="1069" y="-877.6" font-family="Times,serif" font-size="18.00">therule</text>
</a>
</g>
</g>
<!-- implem&#45;&gt;therule -->
<g id="edge50" class="edge"><title>implem&#45;&gt;therule</title>
<path fill="none" stroke="black" d="M1069,-935.697C1069,-927.983 1069,-918.712 1069,-910.112"/>
<polygon fill="black" stroke="black" points="1072.5,-910.104 1069,-900.104 1065.5,-910.104 1072.5,-910.104"/>
</g>
<!-- plactic&#45;&gt;congr -->
<g id="edge48" class="edge"><title>plactic&#45;&gt;congr</title>
<path fill="none" stroke="black" d="M1553.76,-433.811C1577.04,-423.02 1608.4,-408.482 1632.98,-397.09"/>
<polygon fill="black" stroke="black" points="1634.77,-400.117 1642.37,-392.736 1631.83,-393.766 1634.77,-400.117"/>
</g>
<!-- plactic&#45;&gt;Schensted -->
<g id="edge49" class="edge"><title>plactic&#45;&gt;Schensted</title>
<path fill="none" stroke="black" d="M1488.44,-446.467C1354.79,-436.073 847.418,-396.61 677.12,-383.365"/>
<polygon fill="black" stroke="black" points="677.353,-379.873 667.112,-382.586 676.81,-386.851 677.353,-379.873"/>
</g>
<!-- shuffle&#45;&gt;stdplact -->
<g id="edge45" class="edge"><title>shuffle&#45;&gt;stdplact</title>
<path fill="none" stroke="black" d="M1101.82,-721.983C1123.37,-712.124 1151.87,-699.083 1175.71,-688.177"/>
<polygon fill="black" stroke="black" points="1177.3,-691.301 1184.93,-683.958 1174.38,-684.936 1177.3,-691.301"/>
</g>
<!-- stdplact&#45;&gt;Greene_inv -->
<g id="edge44" class="edge"><title>stdplact&#45;&gt;Greene_inv</title>
<path fill="none" stroke="black" d="M1259.17,-656.97C1314.5,-645.015 1419.15,-622.407 1485.58,-608.054"/>
<polygon fill="black" stroke="black" points="1486.46,-611.444 1495.5,-605.911 1484.98,-604.602 1486.46,-611.444"/>
</g>
<!-- therule&#45;&gt;skewtab -->
<g id="edge42" class="edge"><title>therule&#45;&gt;skewtab</title>
<path fill="none" stroke="black" d="M1035.43,-870.369C998.433,-858.648 938.582,-839.691 896.487,-826.358"/>
<polygon fill="black" stroke="black" points="897.316,-822.949 886.726,-823.266 895.203,-829.623 897.316,-822.949"/>
</g>
<!-- therule&#45;&gt;freeSchur -->
<g id="edge43" class="edge"><title>therule&#45;&gt;freeSchur</title>
<path fill="none" stroke="black" d="M1069,-863.697C1069,-855.983 1069,-846.712 1069,-838.112"/>
<polygon fill="black" stroke="black" points="1072.5,-838.104 1069,-828.104 1065.5,-838.104 1072.5,-838.104"/>
</g>
<!-- Cauchy -->
<g id="node34" class="node"><title>Cauchy</title>
<g id="a_node34"><a xlink:href="Combi.MPoly.Cauchy.html" xlink:title="Cauchy">
<polygon fill="#dbc3b6" stroke="#dbc3b6" points="1904,-1188 1832,-1188 1832,-1152 1904,-1152 1904,-1188"/>
<text text-anchor="middle" x="1868" y="-1165.6" font-family="Times,serif" font-size="18.00">Cauchy</text>
</a>
</g>
</g>
<!-- homogsym -->
<g id="node38" class="node"><title>homogsym</title>
<g id="a_node38"><a xlink:href="Combi.MPoly.homogsym.html" xlink:title="homogsym">
<polygon fill="#dbc3b6" stroke="#dbc3b6" points="1910,-1116 1812,-1116 1812,-1080 1910,-1080 1910,-1116"/>
<text text-anchor="middle" x="1861" y="-1093.6" font-family="Times,serif" font-size="18.00">homogsym</text>
</a>
</g>
</g>
<!-- Cauchy&#45;&gt;homogsym -->
<g id="edge8" class="edge"><title>Cauchy&#45;&gt;homogsym</title>
<path fill="none" stroke="black" d="M1866.27,-1151.7C1865.5,-1143.98 1864.57,-1134.71 1863.71,-1126.11"/>
<polygon fill="black" stroke="black" points="1867.19,-1125.71 1862.71,-1116.1 1860.22,-1126.4 1867.19,-1125.71"/>
</g>
<!-- Schur_altdef -->
<g id="node35" class="node"><title>Schur_altdef</title>
<g id="a_node35"><a xlink:href="Combi.MPoly.Schur_altdef.html" xlink:title="Schur_altdef">
<polygon fill="#dbc3b6" stroke="#dbc3b6" points="1434,-972 1324,-972 1324,-936 1434,-936 1434,-972"/>
<text text-anchor="middle" x="1379" y="-949.6" font-family="Times,serif" font-size="18.00">Schur_altdef</text>
</a>
</g>
</g>
<!-- Schur_altdef&#45;&gt;therule -->
<g id="edge1" class="edge"><title>Schur_altdef&#45;&gt;therule</title>
<path fill="none" stroke="black" d="M1323.94,-940.566C1263.5,-926.918 1167.72,-905.291 1112.37,-892.794"/>
<polygon fill="black" stroke="black" points="1113.05,-889.359 1102.53,-890.571 1111.51,-896.187 1113.05,-889.359"/>
</g>
<!-- unitriginv -->
<g id="node45" class="node"><title>unitriginv</title>
<g id="a_node45"><a xlink:href="Combi.SSRcomplements.unitriginv.html" xlink:title="unitriginv">
<polygon fill="#dbc3b6" stroke="#dbc3b6" points="1423.5,-900 1334.5,-900 1334.5,-864 1423.5,-864 1423.5,-900"/>
<text text-anchor="middle" x="1379" y="-877.6" font-family="Times,serif" font-size="18.00">unitriginv</text>
</a>
</g>
</g>
<!-- Schur_altdef&#45;&gt;unitriginv -->
<g id="edge2" class="edge"><title>Schur_altdef&#45;&gt;unitriginv</title>
<path fill="none" stroke="black" d="M1379,-935.697C1379,-927.983 1379,-918.712 1379,-910.112"/>
<polygon fill="black" stroke="black" points="1382.5,-910.104 1379,-900.104 1375.5,-910.104 1382.5,-910.104"/>
</g>
<!-- Schur_mpoly&#45;&gt;stdtab -->
<g id="edge3" class="edge"><title>Schur_mpoly&#45;&gt;stdtab</title>
<path fill="none" stroke="black" d="M940.225,-575.777C926.238,-535.545 887.771,-433.259 835,-360 827.492,-349.577 817.79,-339.452 808.63,-330.894"/>
<polygon fill="black" stroke="black" points="810.886,-328.215 801.123,-324.1 806.189,-333.405 810.886,-328.215"/>
</g>
<!-- antisym -->
<g id="node37" class="node"><title>antisym</title>
<g id="a_node37"><a xlink:href="Combi.MPoly.antisym.html" xlink:title="antisym">
<polygon fill="#dbc3b6" stroke="#dbc3b6" points="1195,-540 1121,-540 1121,-504 1195,-504 1195,-540"/>
<text text-anchor="middle" x="1158" y="-517.6" font-family="Times,serif" font-size="18.00">antisym</text>
</a>
</g>
</g>
<!-- Schur_mpoly&#45;&gt;antisym -->
<g id="edge4" class="edge"><title>Schur_mpoly&#45;&gt;antisym</title>
<path fill="none" stroke="black" d="M997.59,-575.966C1032.28,-564.51 1077.64,-549.533 1111.27,-538.429"/>
<polygon fill="black" stroke="black" points="1112.47,-541.719 1120.87,-535.26 1110.28,-535.072 1112.47,-541.719"/>
</g>
<!-- presentSn -->
<g id="node50" class="node"><title>presentSn</title>
<g id="a_node50"><a xlink:href="Combi.SymGroup.presentSn.html" xlink:title="presentSn">
<polygon fill="#dbc3b6" stroke="#dbc3b6" points="1714.5,-468 1625.5,-468 1625.5,-432 1714.5,-432 1714.5,-468"/>
<text text-anchor="middle" x="1670" y="-445.6" font-family="Times,serif" font-size="18.00">presentSn</text>
</a>
</g>
</g>
<!-- antisym&#45;&gt;presentSn -->
<g id="edge9" class="edge"><title>antisym&#45;&gt;presentSn</title>
<path fill="none" stroke="black" d="M1195.05,-517.51C1269.81,-510.232 1443.98,-492.091 1589,-468 1597.46,-466.595 1606.37,-464.922 1615.07,-463.182"/>
<polygon fill="black" stroke="black" points="1616.05,-466.554 1625.14,-461.12 1614.64,-459.697 1616.05,-466.554"/>
</g>
<!-- sympoly -->
<g id="node39" class="node"><title>sympoly</title>
<g id="a_node39"><a xlink:href="Combi.MPoly.sympoly.html" xlink:title="sympoly">
<polygon fill="#dbc3b6" stroke="#dbc3b6" points="1900,-1044 1822,-1044 1822,-1008 1900,-1008 1900,-1044"/>
<text text-anchor="middle" x="1861" y="-1021.6" font-family="Times,serif" font-size="18.00">sympoly</text>
</a>
</g>
</g>
<!-- homogsym&#45;&gt;sympoly -->
<g id="edge7" class="edge"><title>homogsym&#45;&gt;sympoly</title>
<path fill="none" stroke="black" d="M1861,-1079.7C1861,-1071.98 1861,-1062.71 1861,-1054.11"/>
<polygon fill="black" stroke="black" points="1864.5,-1054.1 1861,-1044.1 1857.5,-1054.1 1864.5,-1054.1"/>
</g>
<!-- sympoly&#45;&gt;Schur_altdef -->
<g id="edge5" class="edge"><title>sympoly&#45;&gt;Schur_altdef</title>
<path fill="none" stroke="black" d="M1821.96,-1019.33C1739.41,-1007.34 1546.37,-979.307 1444.55,-964.519"/>
<polygon fill="black" stroke="black" points="1444.79,-961.017 1434.39,-963.044 1443.78,-967.945 1444.79,-961.017"/>
</g>
<!-- permcent -->
<g id="node49" class="node"><title>permcent</title>
<g id="a_node49"><a xlink:href="Combi.SymGroup.permcent.html" xlink:title="permcent">
<polygon fill="#dbc3b6" stroke="#dbc3b6" points="1982,-972 1898,-972 1898,-936 1982,-936 1982,-972"/>
<text text-anchor="middle" x="1940" y="-949.6" font-family="Times,serif" font-size="18.00">permcent</text>
</a>
</g>
</g>
<!-- sympoly&#45;&gt;permcent -->
<g id="edge6" class="edge"><title>sympoly&#45;&gt;permcent</title>
<path fill="none" stroke="black" d="M1880.53,-1007.7C1890.38,-998.965 1902.49,-988.24 1913.2,-978.75"/>
<polygon fill="black" stroke="black" points="1915.53,-981.356 1920.7,-972.104 1910.89,-976.117 1915.53,-981.356"/>
</g>
<!-- ordcast&#45;&gt;tools -->
<g id="edge40" class="edge"><title>ordcast&#45;&gt;tools</title>
<path fill="none" stroke="black" d="M2150.63,-437.061C2199.94,-418.018 2283,-375.741 2283,-307 2283,-307 2283,-307 2283,-161 2283,-74.1579 1976.04,-34.0667 1867.48,-22.6037"/>
<polygon fill="black" stroke="black" points="1867.62,-19.0997 1857.32,-21.5531 1866.9,-26.0626 1867.62,-19.0997"/>
</g>
<!-- sorted&#45;&gt;tools -->
<g id="edge39" class="edge"><title>sorted&#45;&gt;tools</title>
<path fill="none" stroke="black" d="M1093.12,-79.9114C1104.34,-76.9526 1117.16,-73.9353 1129,-72 1380.24,-30.9449 1687.45,-21.6066 1792.62,-19.5558"/>
<polygon fill="black" stroke="black" points="1792.8,-23.0532 1802.73,-19.3693 1792.67,-16.0544 1792.8,-23.0532"/>
</g>
<!-- unitriginv&#45;&gt;ordtype -->
<g id="edge38" class="edge"><title>unitriginv&#45;&gt;ordtype</title>
<path fill="none" stroke="black" d="M1379,-863.951C1379,-837.292 1379,-784.115 1379,-739 1379,-739 1379,-739 1379,-521 1379,-396.142 1440.09,-375.261 1460,-252 1467.65,-204.606 1473.21,-190.682 1462,-144 1459.79,-134.807 1455.71,-125.412 1451.38,-117.134"/>
<polygon fill="black" stroke="black" points="1454.4,-115.359 1446.47,-108.333 1448.28,-118.771 1454.4,-115.359"/>
</g>
<!-- Frobenius_char -->
<g id="node46" class="node"><title>Frobenius_char</title>
<g id="a_node46"><a xlink:href="Combi.SymGroup.Frobenius_char.html" xlink:title="Frobenius_char">
<polygon fill="#dbc3b6" stroke="#dbc3b6" points="2008.5,-1260 1877.5,-1260 1877.5,-1224 2008.5,-1224 2008.5,-1260"/>
<text text-anchor="middle" x="1943" y="-1237.6" font-family="Times,serif" font-size="18.00">Frobenius_char</text>
</a>
</g>
</g>
<!-- Frobenius_char&#45;&gt;Cauchy -->
<g id="edge17" class="edge"><title>Frobenius_char&#45;&gt;Cauchy</title>
<path fill="none" stroke="black" d="M1924.46,-1223.7C1915.2,-1215.05 1903.84,-1204.45 1893.74,-1195.03"/>
<polygon fill="black" stroke="black" points="1896.02,-1192.37 1886.33,-1188.1 1891.25,-1197.49 1896.02,-1192.37"/>
</g>
<!-- towerSn -->
<g id="node53" class="node"><title>towerSn</title>
<g id="a_node53"><a xlink:href="Combi.SymGroup.towerSn.html" xlink:title="towerSn">
<polygon fill="#dbc3b6" stroke="#dbc3b6" points="2058.5,-1044 1979.5,-1044 1979.5,-1008 2058.5,-1008 2058.5,-1044"/>
<text text-anchor="middle" x="2019" y="-1021.6" font-family="Times,serif" font-size="18.00">towerSn</text>
</a>
</g>
</g>
<!-- Frobenius_char&#45;&gt;towerSn -->
<g id="edge18" class="edge"><title>Frobenius_char&#45;&gt;towerSn</title>
<path fill="none" stroke="black" d="M1949.09,-1223.85C1962.29,-1186.68 1993.63,-1098.44 2009.48,-1053.82"/>
<polygon fill="black" stroke="black" points="2012.83,-1054.83 2012.88,-1044.23 2006.24,-1052.48 2012.83,-1054.83"/>
</g>
<!-- cycles&#45;&gt;permcomp -->
<g id="edge22" class="edge"><title>cycles&#45;&gt;permcomp</title>
<path fill="none" stroke="black" d="M1879.85,-224.346C1839.11,-213.03 1766.97,-192.991 1716.25,-178.902"/>
<polygon fill="black" stroke="black" points="1716.98,-175.472 1706.41,-176.168 1715.1,-182.217 1716.98,-175.472"/>
</g>
<!-- cycles&#45;&gt;tools -->
<g id="edge23" class="edge"><title>cycles&#45;&gt;tools</title>
<path fill="none" stroke="black" d="M1915.3,-215.736C1919.13,-197.655 1923.35,-168.531 1918,-144 1910.49,-109.609 1905.36,-100.714 1885,-72 1877.57,-61.5213 1867.89,-51.3836 1858.72,-42.8294"/>
<polygon fill="black" stroke="black" points="1860.97,-40.1461 1851.2,-36.0436 1856.28,-45.3423 1860.97,-40.1461"/>
</g>
<!-- cycletype -->
<g id="node48" class="node"><title>cycletype</title>
<g id="a_node48"><a xlink:href="Combi.SymGroup.cycletype.html" xlink:title="cycletype">
<polygon fill="#dbc3b6" stroke="#dbc3b6" points="1983,-540 1897,-540 1897,-504 1983,-504 1983,-540"/>
<text text-anchor="middle" x="1940" y="-517.6" font-family="Times,serif" font-size="18.00">cycletype</text>
</a>
</g>
</g>
<!-- cycletype&#45;&gt;fibered_set -->
<g id="edge19" class="edge"><title>cycletype&#45;&gt;fibered_set</title>
<path fill="none" stroke="black" d="M1983.06,-511.92C2041.72,-499.552 2146.98,-477.36 2212.96,-463.448"/>
<polygon fill="black" stroke="black" points="2213.74,-466.861 2222.8,-461.373 2212.3,-460.011 2213.74,-466.861"/>
</g>
<!-- cycletype&#45;&gt;partition -->
<g id="edge20" class="edge"><title>cycletype&#45;&gt;partition</title>
<path fill="none" stroke="black" d="M1908.52,-503.946C1871.47,-484.42 1807.66,-452.496 1750,-432 1687.84,-409.905 1669.46,-414.022 1606,-396 1403.18,-338.403 1334.99,-360.15 1154,-252 1125.66,-235.068 1099.24,-207.823 1082.05,-187.932"/>
<polygon fill="black" stroke="black" points="1084.61,-185.55 1075.48,-180.175 1079.27,-190.071 1084.61,-185.55"/>
</g>
<!-- cycletype&#45;&gt;cycles -->
<g id="edge21" class="edge"><title>cycletype&#45;&gt;cycles</title>
<path fill="none" stroke="black" d="M1938.27,-503.966C1933.43,-456.192 1919.68,-320.623 1913.76,-262.266"/>
<polygon fill="black" stroke="black" points="1917.25,-261.902 1912.75,-252.306 1910.28,-262.609 1917.25,-261.902"/>
</g>
<!-- permcent&#45;&gt;cycletype -->
<g id="edge16" class="edge"><title>permcent&#45;&gt;cycletype</title>
<path fill="none" stroke="black" d="M1940,-935.951C1940,-909.292 1940,-856.115 1940,-811 1940,-811 1940,-811 1940,-665 1940,-624.996 1940,-578.653 1940,-550.08"/>
<polygon fill="black" stroke="black" points="1943.5,-550.049 1940,-540.049 1936.5,-550.049 1943.5,-550.049"/>
</g>
<!-- presentSn&#45;&gt;congr -->
<g id="edge15" class="edge"><title>presentSn&#45;&gt;congr</title>
<path fill="none" stroke="black" d="M1670.49,-431.697C1670.71,-423.983 1670.98,-414.712 1671.23,-406.112"/>
<polygon fill="black" stroke="black" points="1674.72,-406.2 1671.51,-396.104 1667.73,-406 1674.72,-406.2"/>
</g>
<!-- reprS2 -->
<g id="node51" class="node"><title>reprS2</title>
<g id="a_node51"><a xlink:href="Combi.SymGroup.reprS2.html" xlink:title="reprS2">
<polygon fill="#dbc3b6" stroke="#dbc3b6" points="1808.5,-612 1743.5,-612 1743.5,-576 1808.5,-576 1808.5,-612"/>
<text text-anchor="middle" x="1776" y="-589.6" font-family="Times,serif" font-size="18.00">reprS2</text>
</a>
</g>
</g>
<!-- reprS2&#45;&gt;cycletype -->
<g id="edge12" class="edge"><title>reprS2&#45;&gt;cycletype</title>
<path fill="none" stroke="black" d="M1808.79,-579.003C1832.19,-569.018 1864.06,-555.413 1890.53,-544.114"/>
<polygon fill="black" stroke="black" points="1892.19,-547.211 1900.02,-540.066 1889.45,-540.773 1892.19,-547.211"/>
</g>
<!-- reprdim1 -->
<g id="node52" class="node"><title>reprdim1</title>
<g id="a_node52"><a xlink:href="Combi.SymGroup.reprdim1.html" xlink:title="reprdim1">
<polygon fill="#dbc3b6" stroke="#dbc3b6" points="1794.5,-540 1711.5,-540 1711.5,-504 1794.5,-504 1794.5,-540"/>
<text text-anchor="middle" x="1753" y="-517.6" font-family="Times,serif" font-size="18.00">reprdim1</text>
</a>
</g>
</g>
<!-- reprS2&#45;&gt;reprdim1 -->
<g id="edge13" class="edge"><title>reprS2&#45;&gt;reprdim1</title>
<path fill="none" stroke="black" d="M1770.31,-575.697C1767.75,-567.898 1764.67,-558.509 1761.82,-549.829"/>
<polygon fill="black" stroke="black" points="1765.07,-548.512 1758.62,-540.104 1758.42,-550.697 1765.07,-548.512"/>
</g>
<!-- reprdim1&#45;&gt;presentSn -->
<g id="edge14" class="edge"><title>reprdim1&#45;&gt;presentSn</title>
<path fill="none" stroke="black" d="M1732.48,-503.697C1722.13,-494.965 1709.41,-484.24 1698.16,-474.75"/>
<polygon fill="black" stroke="black" points="1700.18,-471.876 1690.28,-468.104 1695.67,-477.227 1700.18,-471.876"/>
</g>
<!-- towerSn&#45;&gt;ordcast -->
<g id="edge10" class="edge"><title>towerSn&#45;&gt;ordcast</title>
<path fill="none" stroke="black" d="M2038.53,-1007.86C2064.46,-983.11 2107,-934.625 2107,-883 2107,-883 2107,-883 2107,-593 2107,-552.933 2110.21,-506.606 2112.57,-478.054"/>
<polygon fill="black" stroke="black" points="2116.06,-478.292 2113.42,-468.032 2109.09,-477.7 2116.06,-478.292"/>
</g>
<!-- towerSn&#45;&gt;permcent -->
<g id="edge11" class="edge"><title>towerSn&#45;&gt;permcent</title>
<path fill="none" stroke="black" d="M1999.47,-1007.7C1989.62,-998.965 1977.51,-988.24 1966.8,-978.75"/>
<polygon fill="black" stroke="black" points="1969.11,-976.117 1959.3,-972.104 1964.47,-981.356 1969.11,-976.117"/>
</g>
</g>
</svg>
