<?xml version="1.0" encoding="UTF-8" standalone="no"?>
<!DOCTYPE svg PUBLIC "-//W3C//DTD SVG 1.1//EN"
 "http://www.w3.org/Graphics/SVG/1.1/DTD/svg11.dtd">
<!-- Generated by graphviz version 2.40.1 (20161225.0304)
 -->
<!-- Title: depend Pages: 1 -->
<svg width="1976pt" height="1268pt"
 viewBox="0.00 0.00 1976.00 1268.00" xmlns="http://www.w3.org/2000/svg" xmlns:xlink="http://www.w3.org/1999/xlink">
<g id="graph0" class="graph" transform="scale(1 1) rotate(0) translate(4 1264)">
<title>depend</title>
<!-- Ccpo -->
<g id="node1" class="node">
<title>Ccpo</title>
<g id="a_node1"><a xlink:href="ALEA.Ccpo.html" xlink:title="Ccpo">
<polygon fill="#dbc3b6" stroke="#dbc3b6" points="1842,-252 1786,-252 1786,-216 1842,-216 1842,-252"/>
<text text-anchor="middle" x="1814" y="-229.6" font-family="Times,serif" font-size="18.00" fill="#000000">Ccpo</text>
</a>
</g>
</g>
<!-- Misc -->
<g id="node2" class="node">
<title>Misc</title>
<g id="a_node2"><a xlink:href="ALEA.Misc.html" xlink:title="Misc">
<polygon fill="#dbc3b6" stroke="#dbc3b6" points="1968,-252 1914,-252 1914,-216 1968,-216 1968,-252"/>
<text text-anchor="middle" x="1941" y="-229.6" font-family="Times,serif" font-size="18.00" fill="#000000">Misc</text>
</a>
</g>
</g>
<!-- Qmeasure -->
<g id="node3" class="node">
<title>Qmeasure</title>
<g id="a_node3"><a xlink:href="ALEA.Qmeasure.html" xlink:title="Qmeasure">
<polygon fill="#dbc3b6" stroke="#dbc3b6" points="1858.5,-324 1769.5,-324 1769.5,-288 1858.5,-288 1858.5,-324"/>
<text text-anchor="middle" x="1814" y="-301.6" font-family="Times,serif" font-size="18.00" fill="#000000">Qmeasure</text>
</a>
</g>
</g>
<!-- Qmeasure&#45;&gt;Ccpo -->
<g id="edge1" class="edge">
<title>Qmeasure&#45;&gt;Ccpo</title>
<path fill="none" stroke="#000000" d="M1814,-287.8314C1814,-280.131 1814,-270.9743 1814,-262.4166"/>
<polygon fill="#000000" stroke="#000000" points="1817.5001,-262.4132 1814,-252.4133 1810.5001,-262.4133 1817.5001,-262.4132"/>
</g>
<!-- Qmeasure&#45;&gt;Misc -->
<g id="edge2" class="edge">
<title>Qmeasure&#45;&gt;Misc</title>
<path fill="none" stroke="#000000" d="M1846.0475,-287.8314C1863.9816,-277.664 1886.3938,-264.9578 1904.9396,-254.4437"/>
<polygon fill="#000000" stroke="#000000" points="1906.7237,-257.4556 1913.6968,-249.479 1903.2714,-251.3661 1906.7237,-257.4556"/>
</g>
<!-- combclass -->
<g id="node4" class="node">
<title>combclass</title>
<g id="a_node4"><a xlink:href="Combi.Basic.combclass.html" xlink:title="combclass">
<polygon fill="#dbc3b6" stroke="#dbc3b6" points="1192,-108 1100,-108 1100,-72 1192,-72 1192,-108"/>
<text text-anchor="middle" x="1146" y="-85.6" font-family="Times,serif" font-size="18.00" fill="#000000">combclass</text>
</a>
</g>
</g>
<!-- tools -->
<g id="node44" class="node">
<title>tools</title>
<g id="a_node44"><a xlink:href="Combi.SSRcomplements.tools.html" xlink:title="tools">
<polygon fill="#dbc3b6" stroke="#dbc3b6" points="480,-36 426,-36 426,0 480,0 480,-36"/>
<text text-anchor="middle" x="453" y="-13.6" font-family="Times,serif" font-size="18.00" fill="#000000">tools</text>
</a>
</g>
</g>
<!-- combclass&#45;&gt;tools -->
<g id="edge29" class="edge">
<title>combclass&#45;&gt;tools</title>
<path fill="none" stroke="#000000" d="M1099.9936,-85.2201C971.0244,-71.8207 607.7711,-34.0801 490.2122,-21.8662"/>
<polygon fill="#000000" stroke="#000000" points="490.5608,-18.3837 480.2526,-20.8314 489.8374,-25.3462 490.5608,-18.3837"/>
</g>
<!-- congr -->
<g id="node5" class="node">
<title>congr</title>
<g id="a_node5"><a xlink:href="Combi.Basic.congr.html" xlink:title="congr">
<polygon fill="#dbc3b6" stroke="#dbc3b6" points="484.5,-396 425.5,-396 425.5,-360 484.5,-360 484.5,-396"/>
<text text-anchor="middle" x="455" y="-373.6" font-family="Times,serif" font-size="18.00" fill="#000000">congr</text>
</a>
</g>
</g>
<!-- permuted -->
<g id="node14" class="node">
<title>permuted</title>
<g id="a_node14"><a xlink:href="Combi.Combi.permuted.html" xlink:title="permuted">
<polygon fill="#dbc3b6" stroke="#dbc3b6" points="497,-324 411,-324 411,-288 497,-288 497,-324"/>
<text text-anchor="middle" x="454" y="-301.6" font-family="Times,serif" font-size="18.00" fill="#000000">permuted</text>
</a>
</g>
</g>
<!-- congr&#45;&gt;permuted -->
<g id="edge27" class="edge">
<title>congr&#45;&gt;permuted</title>
<path fill="none" stroke="#000000" d="M454.7477,-359.8314C454.6407,-352.131 454.5135,-342.9743 454.3947,-334.4166"/>
<polygon fill="#000000" stroke="#000000" points="457.8944,-334.3637 454.2557,-324.4133 450.8951,-334.4609 457.8944,-334.3637"/>
</g>
<!-- vectNK -->
<g id="node20" class="node">
<title>vectNK</title>
<g id="a_node20"><a xlink:href="Combi.Combi.vectNK.html" xlink:title="vectNK">
<polygon fill="#dbc3b6" stroke="#dbc3b6" points="183,-108 109,-108 109,-72 183,-72 183,-108"/>
<text text-anchor="middle" x="146" y="-85.6" font-family="Times,serif" font-size="18.00" fill="#000000">vectNK</text>
</a>
</g>
</g>
<!-- congr&#45;&gt;vectNK -->
<g id="edge28" class="edge">
<title>congr&#45;&gt;vectNK</title>
<path fill="none" stroke="#000000" d="M425.3051,-367.1232C379.6133,-349.1559 291.4479,-309.4592 235,-252 196.1105,-212.4138 169.1497,-152.387 155.7474,-117.5986"/>
<polygon fill="#000000" stroke="#000000" points="158.9655,-116.2121 152.1764,-108.0782 152.4114,-118.6705 158.9655,-116.2121"/>
</g>
<!-- ordtype -->
<g id="node6" class="node">
<title>ordtype</title>
<g id="a_node6"><a xlink:href="Combi.Basic.ordtype.html" xlink:title="ordtype">
<polygon fill="#dbc3b6" stroke="#dbc3b6" points="802,-108 728,-108 728,-72 802,-72 802,-108"/>
<text text-anchor="middle" x="765" y="-85.6" font-family="Times,serif" font-size="18.00" fill="#000000">ordtype</text>
</a>
</g>
</g>
<!-- ordtype&#45;&gt;tools -->
<g id="edge26" class="edge">
<title>ordtype&#45;&gt;tools</title>
<path fill="none" stroke="#000000" d="M727.9843,-81.4579C668.0166,-67.6192 550.2957,-40.4529 490.2061,-26.586"/>
<polygon fill="#000000" stroke="#000000" points="490.9092,-23.1564 480.3782,-24.3181 489.3351,-29.9771 490.9092,-23.1564"/>
</g>
<!-- unitriginv -->
<g id="node7" class="node">
<title>unitriginv</title>
<g id="a_node7"><a xlink:href="Combi.Basic.unitriginv.html" xlink:title="unitriginv">
<polygon fill="#dbc3b6" stroke="#dbc3b6" points="913.5,-900 824.5,-900 824.5,-864 913.5,-864 913.5,-900"/>
<text text-anchor="middle" x="869" y="-877.6" font-family="Times,serif" font-size="18.00" fill="#000000">unitriginv</text>
</a>
</g>
</g>
<!-- unitriginv&#45;&gt;ordtype -->
<g id="edge25" class="edge">
<title>unitriginv&#45;&gt;ordtype</title>
<path fill="none" stroke="#000000" d="M913.2861,-863.8069C959.4065,-841.568 1025,-799.1842 1025,-738 1025,-738 1025,-738 1025,-594 1025,-378.725 764.5273,-450.8279 682,-252 674.549,-234.0487 679.8371,-156.5891 687,-144 694.4781,-130.8568 706.625,-120.1953 719.1299,-111.926"/>
<polygon fill="#000000" stroke="#000000" points="721.1186,-114.8116 727.7914,-106.5821 717.4431,-108.8542 721.1186,-114.8116"/>
</g>
<!-- Yamanouchi -->
<g id="node8" class="node">
<title>Yamanouchi</title>
<g id="a_node8"><a xlink:href="Combi.Combi.Yamanouchi.html" xlink:title="Yamanouchi">
<polygon fill="#dbc3b6" stroke="#dbc3b6" points="1280,-252 1170,-252 1170,-216 1280,-216 1280,-252"/>
<text text-anchor="middle" x="1225" y="-229.6" font-family="Times,serif" font-size="18.00" fill="#000000">Yamanouchi</text>
</a>
</g>
</g>
<!-- partition -->
<g id="node13" class="node">
<title>partition</title>
<g id="a_node13"><a xlink:href="Combi.Combi.partition.html" xlink:title="partition">
<polygon fill="#dbc3b6" stroke="#dbc3b6" points="1261,-180 1181,-180 1181,-144 1261,-144 1261,-180"/>
<text text-anchor="middle" x="1221" y="-157.6" font-family="Times,serif" font-size="18.00" fill="#000000">partition</text>
</a>
</g>
</g>
<!-- Yamanouchi&#45;&gt;partition -->
<g id="edge55" class="edge">
<title>Yamanouchi&#45;&gt;partition</title>
<path fill="none" stroke="#000000" d="M1223.9906,-215.8314C1223.5628,-208.131 1223.0541,-198.9743 1222.5787,-190.4166"/>
<polygon fill="#000000" stroke="#000000" points="1226.0724,-190.2037 1222.023,-180.4133 1219.0831,-190.592 1226.0724,-190.2037"/>
</g>
<!-- bintree -->
<g id="node9" class="node">
<title>bintree</title>
<g id="a_node9"><a xlink:href="Combi.Combi.bintree.html" xlink:title="bintree">
<polygon fill="#dbc3b6" stroke="#dbc3b6" points="1568,-180 1500,-180 1500,-144 1568,-144 1568,-180"/>
<text text-anchor="middle" x="1534" y="-157.6" font-family="Times,serif" font-size="18.00" fill="#000000">bintree</text>
</a>
</g>
</g>
<!-- bintree&#45;&gt;combclass -->
<g id="edge75" class="edge">
<title>bintree&#45;&gt;combclass</title>
<path fill="none" stroke="#000000" d="M1499.7904,-154.687C1483.5241,-151.2907 1463.7881,-147.2867 1446,-144 1349.4335,-126.1572 1324.4363,-126.5339 1228,-108 1219.6671,-106.3985 1210.8833,-104.5945 1202.2848,-102.7629"/>
<polygon fill="#000000" stroke="#000000" points="1202.8274,-99.2995 1192.314,-100.6106 1201.3503,-106.1419 1202.8274,-99.2995"/>
</g>
<!-- composition -->
<g id="node10" class="node">
<title>composition</title>
<g id="a_node10"><a xlink:href="Combi.Combi.composition.html" xlink:title="composition">
<polygon fill="#dbc3b6" stroke="#dbc3b6" points="952,-252 844,-252 844,-216 952,-216 952,-252"/>
<text text-anchor="middle" x="898" y="-229.6" font-family="Times,serif" font-size="18.00" fill="#000000">composition</text>
</a>
</g>
</g>
<!-- composition&#45;&gt;partition -->
<g id="edge74" class="edge">
<title>composition&#45;&gt;partition</title>
<path fill="none" stroke="#000000" d="M952.0629,-221.9488C1013.01,-208.3631 1111.3169,-186.4495 1170.6811,-173.2166"/>
<polygon fill="#000000" stroke="#000000" points="1171.5793,-176.6024 1180.5782,-171.0104 1170.0562,-169.7701 1171.5793,-176.6024"/>
</g>
<!-- fibered_set -->
<g id="node11" class="node">
<title>fibered_set</title>
<g id="a_node11"><a xlink:href="Combi.Combi.fibered_set.html" xlink:title="fibered_set">
<polygon fill="#dbc3b6" stroke="#dbc3b6" points="353,-396 255,-396 255,-360 353,-360 353,-396"/>
<text text-anchor="middle" x="304" y="-373.6" font-family="Times,serif" font-size="18.00" fill="#000000">fibered_set</text>
</a>
</g>
</g>
<!-- multinomial -->
<g id="node12" class="node">
<title>multinomial</title>
<g id="a_node12"><a xlink:href="Combi.Combi.multinomial.html" xlink:title="multinomial">
<polygon fill="#dbc3b6" stroke="#dbc3b6" points="505,-180 401,-180 401,-144 505,-144 505,-180"/>
<text text-anchor="middle" x="453" y="-157.6" font-family="Times,serif" font-size="18.00" fill="#000000">multinomial</text>
</a>
</g>
</g>
<!-- multinomial&#45;&gt;tools -->
<g id="edge67" class="edge">
<title>multinomial&#45;&gt;tools</title>
<path fill="none" stroke="#000000" d="M453,-143.7623C453,-119.201 453,-75.2474 453,-46.3541"/>
<polygon fill="#000000" stroke="#000000" points="456.5001,-46.0896 453,-36.0896 449.5001,-46.0897 456.5001,-46.0896"/>
</g>
<!-- partition&#45;&gt;combclass -->
<g id="edge71" class="edge">
<title>partition&#45;&gt;combclass</title>
<path fill="none" stroke="#000000" d="M1202.0743,-143.8314C1193.0143,-135.1337 1182.0191,-124.5783 1172.1735,-115.1265"/>
<polygon fill="#000000" stroke="#000000" points="1174.5574,-112.5633 1164.9196,-108.1628 1169.7096,-117.613 1174.5574,-112.5633"/>
</g>
<!-- partition&#45;&gt;ordtype -->
<g id="edge72" class="edge">
<title>partition&#45;&gt;ordtype</title>
<path fill="none" stroke="#000000" d="M1180.9327,-155.6736C1096.8086,-142.3908 902.1506,-111.6554 812.1727,-97.4483"/>
<polygon fill="#000000" stroke="#000000" points="812.6719,-93.9839 802.2484,-95.8813 811.5801,-100.8982 812.6719,-93.9839"/>
</g>
<!-- sorted -->
<g id="node43" class="node">
<title>sorted</title>
<g id="a_node43"><a xlink:href="Combi.SSRcomplements.sorted.html" xlink:title="sorted">
<polygon fill="#dbc3b6" stroke="#dbc3b6" points="1326,-108 1264,-108 1264,-72 1326,-72 1326,-108"/>
<text text-anchor="middle" x="1295" y="-85.6" font-family="Times,serif" font-size="18.00" fill="#000000">sorted</text>
</a>
</g>
</g>
<!-- partition&#45;&gt;sorted -->
<g id="edge73" class="edge">
<title>partition&#45;&gt;sorted</title>
<path fill="none" stroke="#000000" d="M1239.6733,-143.8314C1248.5249,-135.219 1259.2486,-124.7851 1268.8895,-115.4048"/>
<polygon fill="#000000" stroke="#000000" points="1271.6061,-117.645 1276.3326,-108.1628 1266.7246,-112.6279 1271.6061,-117.645"/>
</g>
<!-- permuted&#45;&gt;composition -->
<g id="edge68" class="edge">
<title>permuted&#45;&gt;composition</title>
<path fill="none" stroke="#000000" d="M497.1541,-300.0702C563.9305,-290.7473 696.2619,-271.6855 808,-252 816.3466,-250.5295 825.1099,-248.8931 833.7564,-247.2232"/>
<polygon fill="#000000" stroke="#000000" points="834.6785,-250.6092 843.8211,-245.2553 833.3353,-243.7393 834.6785,-250.6092"/>
</g>
<!-- permuted&#45;&gt;multinomial -->
<g id="edge69" class="edge">
<title>permuted&#45;&gt;multinomial</title>
<path fill="none" stroke="#000000" d="M453.8733,-287.7623C453.7028,-263.201 453.3976,-219.2474 453.1969,-190.3541"/>
<polygon fill="#000000" stroke="#000000" points="456.6951,-190.065 453.1256,-180.0896 449.6952,-190.1137 456.6951,-190.065"/>
</g>
<!-- cycles -->
<g id="node46" class="node">
<title>cycles</title>
<g id="a_node46"><a xlink:href="Combi.SymGroup.cycles.html" xlink:title="cycles">
<polygon fill="#dbc3b6" stroke="#dbc3b6" points="333,-252 271,-252 271,-216 333,-216 333,-252"/>
<text text-anchor="middle" x="302" y="-229.6" font-family="Times,serif" font-size="18.00" fill="#000000">cycles</text>
</a>
</g>
</g>
<!-- permuted&#45;&gt;cycles -->
<g id="edge70" class="edge">
<title>permuted&#45;&gt;cycles</title>
<path fill="none" stroke="#000000" d="M415.644,-287.8314C393.2279,-277.2132 364.9665,-263.8262 342.2348,-253.0586"/>
<polygon fill="#000000" stroke="#000000" points="343.7194,-249.8891 333.1837,-248.7712 340.7228,-256.2152 343.7194,-249.8891"/>
</g>
<!-- skewtab -->
<g id="node15" class="node">
<title>skewtab</title>
<g id="a_node15"><a xlink:href="Combi.Combi.skewtab.html" xlink:title="skewtab">
<polygon fill="#dbc3b6" stroke="#dbc3b6" points="1220.5,-828 1143.5,-828 1143.5,-792 1220.5,-792 1220.5,-828"/>
<text text-anchor="middle" x="1182" y="-805.6" font-family="Times,serif" font-size="18.00" fill="#000000">skewtab</text>
</a>
</g>
</g>
<!-- stdtab -->
<g id="node17" class="node">
<title>stdtab</title>
<g id="a_node17"><a xlink:href="Combi.Combi.stdtab.html" xlink:title="stdtab">
<polygon fill="#dbc3b6" stroke="#dbc3b6" points="1256,-324 1194,-324 1194,-288 1256,-288 1256,-324"/>
<text text-anchor="middle" x="1225" y="-301.6" font-family="Times,serif" font-size="18.00" fill="#000000">stdtab</text>
</a>
</g>
</g>
<!-- skewtab&#45;&gt;stdtab -->
<g id="edge66" class="edge">
<title>skewtab&#45;&gt;stdtab</title>
<path fill="none" stroke="#000000" d="M1185.5224,-791.8955C1190.5018,-764.6824 1199,-711.5642 1199,-666 1199,-666 1199,-666 1199,-450 1199,-409.2738 1209.196,-363.0849 1216.818,-334.2458"/>
<polygon fill="#000000" stroke="#000000" points="1220.2356,-335.0164 1219.4861,-324.4481 1213.4815,-333.1771 1220.2356,-335.0164"/>
</g>
<!-- std -->
<g id="node16" class="node">
<title>std</title>
<g id="a_node16"><a xlink:href="Combi.Combi.std.html" xlink:title="std">
<polygon fill="#dbc3b6" stroke="#dbc3b6" points="772,-252 718,-252 718,-216 772,-216 772,-252"/>
<text text-anchor="middle" x="745" y="-229.6" font-family="Times,serif" font-size="18.00" fill="#000000">std</text>
</a>
</g>
</g>
<!-- std&#45;&gt;combclass -->
<g id="edge63" class="edge">
<title>std&#45;&gt;combclass</title>
<path fill="none" stroke="#000000" d="M772.171,-225.6311C805.1654,-215.3607 862.4313,-197.1874 911,-180 973.2275,-157.979 1043.8604,-130.6015 1091.301,-111.8609"/>
<polygon fill="#000000" stroke="#000000" points="1092.7553,-115.0495 1100.7655,-108.1151 1090.1792,-108.5407 1092.7553,-115.0495"/>
</g>
<!-- std&#45;&gt;ordtype -->
<g id="edge64" class="edge">
<title>std&#45;&gt;ordtype</title>
<path fill="none" stroke="#000000" d="M772.0072,-224.2578C800.8998,-213.2226 843.825,-194.8454 853,-180 861.4117,-166.3896 860.8137,-157.9623 853,-144 843.9262,-127.786 827.7729,-115.8491 811.7609,-107.3838"/>
<polygon fill="#000000" stroke="#000000" points="812.9236,-104.0559 802.4041,-102.7947 809.8411,-110.3407 812.9236,-104.0559"/>
</g>
<!-- permcomp -->
<g id="node42" class="node">
<title>permcomp</title>
<g id="a_node42"><a xlink:href="Combi.SSRcomplements.permcomp.html" xlink:title="permcomp">
<polygon fill="#dbc3b6" stroke="#dbc3b6" points="817,-180 723,-180 723,-144 817,-144 817,-180"/>
<text text-anchor="middle" x="770" y="-157.6" font-family="Times,serif" font-size="18.00" fill="#000000">permcomp</text>
</a>
</g>
</g>
<!-- std&#45;&gt;permcomp -->
<g id="edge65" class="edge">
<title>std&#45;&gt;permcomp</title>
<path fill="none" stroke="#000000" d="M751.3086,-215.8314C754.0117,-208.0463 757.2316,-198.7729 760.231,-190.1347"/>
<polygon fill="#000000" stroke="#000000" points="763.6327,-191.0081 763.6065,-180.4133 757.02,-188.7119 763.6327,-191.0081"/>
</g>
<!-- stdtab&#45;&gt;Yamanouchi -->
<g id="edge60" class="edge">
<title>stdtab&#45;&gt;Yamanouchi</title>
<path fill="none" stroke="#000000" d="M1225,-287.8314C1225,-280.131 1225,-270.9743 1225,-262.4166"/>
<polygon fill="#000000" stroke="#000000" points="1228.5001,-262.4132 1225,-252.4133 1221.5001,-262.4133 1228.5001,-262.4132"/>
</g>
<!-- stdtab&#45;&gt;std -->
<g id="edge61" class="edge">
<title>stdtab&#45;&gt;std</title>
<path fill="none" stroke="#000000" d="M1193.8722,-303.5719C1124.2031,-297.7887 950.6293,-281.4384 808,-252 799.4324,-250.2317 790.3267,-247.9013 781.7796,-245.5062"/>
<polygon fill="#000000" stroke="#000000" points="782.647,-242.1137 772.0681,-242.6946 780.7003,-248.8376 782.647,-242.1137"/>
</g>
<!-- tableau -->
<g id="node19" class="node">
<title>tableau</title>
<g id="a_node19"><a xlink:href="Combi.Combi.tableau.html" xlink:title="tableau">
<polygon fill="#dbc3b6" stroke="#dbc3b6" points="1422,-252 1352,-252 1352,-216 1422,-216 1422,-252"/>
<text text-anchor="middle" x="1387" y="-229.6" font-family="Times,serif" font-size="18.00" fill="#000000">tableau</text>
</a>
</g>
</g>
<!-- stdtab&#45;&gt;tableau -->
<g id="edge62" class="edge">
<title>stdtab&#45;&gt;tableau</title>
<path fill="none" stroke="#000000" d="M1256.2352,-292.1177C1280.7448,-281.2245 1315.1793,-265.9203 1342.5603,-253.751"/>
<polygon fill="#000000" stroke="#000000" points="1344.2066,-256.8495 1351.9232,-249.5897 1341.3636,-250.4528 1344.2066,-256.8495"/>
</g>
<!-- subseq -->
<g id="node18" class="node">
<title>subseq</title>
<g id="a_node18"><a xlink:href="Combi.Combi.subseq.html" xlink:title="subseq">
<polygon fill="#dbc3b6" stroke="#dbc3b6" points="1547.5,-324 1480.5,-324 1480.5,-288 1547.5,-288 1547.5,-324"/>
<text text-anchor="middle" x="1514" y="-301.6" font-family="Times,serif" font-size="18.00" fill="#000000">subseq</text>
</a>
</g>
</g>
<!-- subseq&#45;&gt;combclass -->
<g id="edge58" class="edge">
<title>subseq&#45;&gt;combclass</title>
<path fill="none" stroke="#000000" d="M1506.6379,-287.8968C1497.7321,-267.963 1481.0197,-236.0826 1458,-216 1418.4242,-181.4736 1280.5211,-133.2878 1201.9415,-107.6641"/>
<polygon fill="#000000" stroke="#000000" points="1202.789,-104.2595 1192.1969,-104.503 1200.6289,-110.9179 1202.789,-104.2595"/>
</g>
<!-- subseq&#45;&gt;sorted -->
<g id="edge59" class="edge">
<title>subseq&#45;&gt;sorted</title>
<path fill="none" stroke="#000000" d="M1547.5263,-287.8025C1561.3287,-278.7373 1576.3199,-266.579 1586,-252 1612.9173,-211.4604 1635.3078,-181.2535 1604,-144 1570.2857,-103.883 1412.6359,-93.565 1336.4408,-90.9144"/>
<polygon fill="#000000" stroke="#000000" points="1336.358,-87.4101 1326.2513,-90.589 1336.1345,-94.4065 1336.358,-87.4101"/>
</g>
<!-- tableau&#45;&gt;partition -->
<g id="edge57" class="edge">
<title>tableau&#45;&gt;partition</title>
<path fill="none" stroke="#000000" d="M1351.7957,-218.7307C1328.147,-208.4734 1296.6456,-194.8101 1270.4838,-183.4628"/>
<polygon fill="#000000" stroke="#000000" points="1271.6781,-180.1659 1261.1112,-179.3976 1268.8927,-186.5878 1271.6781,-180.1659"/>
</g>
<!-- vectNK&#45;&gt;tools -->
<g id="edge56" class="edge">
<title>vectNK&#45;&gt;tools</title>
<path fill="none" stroke="#000000" d="M183.0314,-81.3151C242.0058,-67.484 356.622,-40.6033 415.7399,-26.7385"/>
<polygon fill="#000000" stroke="#000000" points="416.8276,-30.0785 425.7642,-24.3875 415.2292,-23.2634 416.8276,-30.0785"/>
</g>
<!-- Erdos_Szekeres -->
<g id="node21" class="node">
<title>Erdos_Szekeres</title>
<g id="a_node21"><a xlink:href="Combi.Erdos_Szekeres.Erdos_Szekeres.html" xlink:title="Erdos_Szekeres">
<polygon fill="#dbc3b6" stroke="#dbc3b6" points="547.5,-684 414.5,-684 414.5,-648 547.5,-648 547.5,-684"/>
<text text-anchor="middle" x="481" y="-661.6" font-family="Times,serif" font-size="18.00" fill="#000000">Erdos_Szekeres</text>
</a>
</g>
</g>
<!-- Greene_inv -->
<g id="node25" class="node">
<title>Greene_inv</title>
<g id="a_node25"><a xlink:href="Combi.LRrule.Greene_inv.html" xlink:title="Greene_inv">
<polygon fill="#dbc3b6" stroke="#dbc3b6" points="531.5,-612 430.5,-612 430.5,-576 531.5,-576 531.5,-612"/>
<text text-anchor="middle" x="481" y="-589.6" font-family="Times,serif" font-size="18.00" fill="#000000">Greene_inv</text>
</a>
</g>
</g>
<!-- Erdos_Szekeres&#45;&gt;Greene_inv -->
<g id="edge54" class="edge">
<title>Erdos_Szekeres&#45;&gt;Greene_inv</title>
<path fill="none" stroke="#000000" d="M481,-647.8314C481,-640.131 481,-630.9743 481,-622.4166"/>
<polygon fill="#000000" stroke="#000000" points="484.5001,-622.4132 481,-612.4133 477.5001,-622.4133 484.5001,-622.4132"/>
</g>
<!-- Frobenius_ident -->
<g id="node22" class="node">
<title>Frobenius_ident</title>
<g id="a_node22"><a xlink:href="Combi.HookFormula.Frobenius_ident.html" xlink:title="Frobenius_ident">
<polygon fill="#dbc3b6" stroke="#dbc3b6" points="1448.5,-468 1311.5,-468 1311.5,-432 1448.5,-432 1448.5,-468"/>
<text text-anchor="middle" x="1380" y="-445.6" font-family="Times,serif" font-size="18.00" fill="#000000">Frobenius_ident</text>
</a>
</g>
</g>
<!-- hook -->
<g id="node23" class="node">
<title>hook</title>
<g id="a_node23"><a xlink:href="Combi.HookFormula.hook.html" xlink:title="hook">
<polygon fill="#dbc3b6" stroke="#dbc3b6" points="1540,-396 1486,-396 1486,-360 1540,-360 1540,-396"/>
<text text-anchor="middle" x="1513" y="-373.6" font-family="Times,serif" font-size="18.00" fill="#000000">hook</text>
</a>
</g>
</g>
<!-- Frobenius_ident&#45;&gt;hook -->
<g id="edge33" class="edge">
<title>Frobenius_ident&#45;&gt;hook</title>
<path fill="none" stroke="#000000" d="M1413.5615,-431.8314C1432.8269,-421.402 1457.0267,-408.3013 1476.7292,-397.6353"/>
<polygon fill="#000000" stroke="#000000" points="1478.5864,-400.6099 1485.7143,-392.7712 1475.2539,-394.454 1478.5864,-400.6099"/>
</g>
<!-- Schensted -->
<g id="node26" class="node">
<title>Schensted</title>
<g id="a_node26"><a xlink:href="Combi.LRrule.Schensted.html" xlink:title="Schensted">
<polygon fill="#dbc3b6" stroke="#dbc3b6" points="1413,-396 1321,-396 1321,-360 1413,-360 1413,-396"/>
<text text-anchor="middle" x="1367" y="-373.6" font-family="Times,serif" font-size="18.00" fill="#000000">Schensted</text>
</a>
</g>
</g>
<!-- Frobenius_ident&#45;&gt;Schensted -->
<g id="edge34" class="edge">
<title>Frobenius_ident&#45;&gt;Schensted</title>
<path fill="none" stroke="#000000" d="M1376.7196,-431.8314C1375.3292,-424.131 1373.6759,-414.9743 1372.1308,-406.4166"/>
<polygon fill="#000000" stroke="#000000" points="1375.5458,-405.6322 1370.3246,-396.4133 1368.6572,-406.8761 1375.5458,-405.6322"/>
</g>
<!-- hook&#45;&gt;Qmeasure -->
<g id="edge30" class="edge">
<title>hook&#45;&gt;Qmeasure</title>
<path fill="none" stroke="#000000" d="M1540.2426,-371.4835C1589.6256,-359.6709 1694.7882,-334.5158 1759.4405,-319.0508"/>
<polygon fill="#000000" stroke="#000000" points="1760.5428,-322.3859 1769.4542,-316.6555 1758.9143,-315.578 1760.5428,-322.3859"/>
</g>
<!-- hook&#45;&gt;stdtab -->
<g id="edge31" class="edge">
<title>hook&#45;&gt;stdtab</title>
<path fill="none" stroke="#000000" d="M1485.9687,-370.1543C1474.5825,-366.9128 1461.173,-363.1779 1449,-360 1385.4417,-343.4073 1311.2571,-325.883 1266.2294,-315.4492"/>
<polygon fill="#000000" stroke="#000000" points="1266.7881,-311.9861 1256.2567,-313.1438 1265.2114,-318.8062 1266.7881,-311.9861"/>
</g>
<!-- hook&#45;&gt;subseq -->
<g id="edge32" class="edge">
<title>hook&#45;&gt;subseq</title>
<path fill="none" stroke="#000000" d="M1513.2523,-359.8314C1513.3593,-352.131 1513.4865,-342.9743 1513.6053,-334.4166"/>
<polygon fill="#000000" stroke="#000000" points="1517.1049,-334.4609 1513.7443,-324.4133 1510.1056,-334.3637 1517.1049,-334.4609"/>
</g>
<!-- Greene -->
<g id="node24" class="node">
<title>Greene</title>
<g id="a_node24"><a xlink:href="Combi.LRrule.Greene.html" xlink:title="Greene">
<polygon fill="#dbc3b6" stroke="#dbc3b6" points="486.5,-540 417.5,-540 417.5,-504 486.5,-504 486.5,-540"/>
<text text-anchor="middle" x="452" y="-517.6" font-family="Times,serif" font-size="18.00" fill="#000000">Greene</text>
</a>
</g>
</g>
<!-- plactic -->
<g id="node31" class="node">
<title>plactic</title>
<g id="a_node31"><a xlink:href="Combi.LRrule.plactic.html" xlink:title="plactic">
<polygon fill="#dbc3b6" stroke="#dbc3b6" points="486.5,-468 421.5,-468 421.5,-432 486.5,-432 486.5,-468"/>
<text text-anchor="middle" x="454" y="-445.6" font-family="Times,serif" font-size="18.00" fill="#000000">plactic</text>
</a>
</g>
</g>
<!-- Greene&#45;&gt;plactic -->
<g id="edge48" class="edge">
<title>Greene&#45;&gt;plactic</title>
<path fill="none" stroke="#000000" d="M452.5047,-503.8314C452.7186,-496.131 452.9729,-486.9743 453.2106,-478.4166"/>
<polygon fill="#000000" stroke="#000000" points="456.7094,-478.5066 453.4885,-468.4133 449.7121,-478.3122 456.7094,-478.5066"/>
</g>
<!-- ordcast -->
<g id="node41" class="node">
<title>ordcast</title>
<g id="a_node41"><a xlink:href="Combi.SSRcomplements.ordcast.html" xlink:title="ordcast">
<polygon fill="#dbc3b6" stroke="#dbc3b6" points="189.5,-468 118.5,-468 118.5,-432 189.5,-432 189.5,-468"/>
<text text-anchor="middle" x="154" y="-445.6" font-family="Times,serif" font-size="18.00" fill="#000000">ordcast</text>
</a>
</g>
</g>
<!-- Greene&#45;&gt;ordcast -->
<g id="edge49" class="edge">
<title>Greene&#45;&gt;ordcast</title>
<path fill="none" stroke="#000000" d="M417.1282,-513.787C372.7105,-503.2983 293.597,-484.5249 226,-468 217.3609,-465.8881 208.1463,-463.6065 199.2945,-461.4002"/>
<polygon fill="#000000" stroke="#000000" points="200.0549,-457.9827 189.5047,-458.9543 198.3581,-464.7739 200.0549,-457.9827"/>
</g>
<!-- Greene_inv&#45;&gt;Greene -->
<g id="edge47" class="edge">
<title>Greene_inv&#45;&gt;Greene</title>
<path fill="none" stroke="#000000" d="M473.6821,-575.8314C470.5124,-567.9617 466.73,-558.5712 463.2187,-549.8533"/>
<polygon fill="#000000" stroke="#000000" points="466.3992,-548.3815 459.4165,-540.4133 459.9061,-550.9968 466.3992,-548.3815"/>
</g>
<!-- Schensted&#45;&gt;stdtab -->
<g id="edge42" class="edge">
<title>Schensted&#45;&gt;stdtab</title>
<path fill="none" stroke="#000000" d="M1331.1674,-359.8314C1311.2177,-349.716 1286.3123,-337.0879 1265.6384,-326.6054"/>
<polygon fill="#000000" stroke="#000000" points="1266.9722,-323.3575 1256.4703,-321.9568 1263.8065,-329.6008 1266.9722,-323.3575"/>
</g>
<!-- Schensted&#45;&gt;subseq -->
<g id="edge43" class="edge">
<title>Schensted&#45;&gt;subseq</title>
<path fill="none" stroke="#000000" d="M1404.0943,-359.8314C1424.5431,-349.8156 1450.0216,-337.3363 1471.2973,-326.9156"/>
<polygon fill="#000000" stroke="#000000" points="1472.9954,-329.9812 1480.4365,-322.4393 1469.9163,-323.6948 1472.9954,-329.9812"/>
</g>
<!-- Yam_plact -->
<g id="node27" class="node">
<title>Yam_plact</title>
<g id="a_node27"><a xlink:href="Combi.LRrule.Yam_plact.html" xlink:title="Yam_plact">
<polygon fill="#dbc3b6" stroke="#dbc3b6" points="622,-756 526,-756 526,-720 622,-720 622,-756"/>
<text text-anchor="middle" x="574" y="-733.6" font-family="Times,serif" font-size="18.00" fill="#000000">Yam_plact</text>
</a>
</g>
</g>
<!-- stdplact -->
<g id="node33" class="node">
<title>stdplact</title>
<g id="a_node33"><a xlink:href="Combi.LRrule.stdplact.html" xlink:title="stdplact">
<polygon fill="#dbc3b6" stroke="#dbc3b6" points="694,-684 620,-684 620,-648 694,-648 694,-684"/>
<text text-anchor="middle" x="657" y="-661.6" font-family="Times,serif" font-size="18.00" fill="#000000">stdplact</text>
</a>
</g>
</g>
<!-- Yam_plact&#45;&gt;stdplact -->
<g id="edge37" class="edge">
<title>Yam_plact&#45;&gt;stdplact</title>
<path fill="none" stroke="#000000" d="M594.9444,-719.8314C605.0691,-711.0485 617.3777,-700.3712 628.3548,-690.8489"/>
<polygon fill="#000000" stroke="#000000" points="630.8019,-693.3595 636.0623,-684.1628 626.2149,-688.0718 630.8019,-693.3595"/>
</g>
<!-- extract -->
<g id="node28" class="node">
<title>extract</title>
<g id="a_node28"><a xlink:href="Combi.LRrule.extract.html" xlink:title="extract">
<polygon fill="#dbc3b6" stroke="#dbc3b6" points="1061.5,-1044 994.5,-1044 994.5,-1008 1061.5,-1008 1061.5,-1044"/>
<text text-anchor="middle" x="1028" y="-1021.6" font-family="Times,serif" font-size="18.00" fill="#000000">extract</text>
</a>
</g>
</g>
<!-- implem -->
<g id="node30" class="node">
<title>implem</title>
<g id="a_node30"><a xlink:href="Combi.LRrule.implem.html" xlink:title="implem">
<polygon fill="#dbc3b6" stroke="#dbc3b6" points="1063.5,-972 992.5,-972 992.5,-936 1063.5,-936 1063.5,-972"/>
<text text-anchor="middle" x="1028" y="-949.6" font-family="Times,serif" font-size="18.00" fill="#000000">implem</text>
</a>
</g>
</g>
<!-- extract&#45;&gt;implem -->
<g id="edge53" class="edge">
<title>extract&#45;&gt;implem</title>
<path fill="none" stroke="#000000" d="M1028,-1007.8314C1028,-1000.131 1028,-990.9743 1028,-982.4166"/>
<polygon fill="#000000" stroke="#000000" points="1031.5001,-982.4132 1028,-972.4133 1024.5001,-982.4133 1031.5001,-982.4132"/>
</g>
<!-- freeSchur -->
<g id="node29" class="node">
<title>freeSchur</title>
<g id="a_node29"><a xlink:href="Combi.LRrule.freeSchur.html" xlink:title="freeSchur">
<polygon fill="#dbc3b6" stroke="#dbc3b6" points="841.5,-828 754.5,-828 754.5,-792 841.5,-792 841.5,-828"/>
<text text-anchor="middle" x="798" y="-805.6" font-family="Times,serif" font-size="18.00" fill="#000000">freeSchur</text>
</a>
</g>
</g>
<!-- freeSchur&#45;&gt;Yam_plact -->
<g id="edge50" class="edge">
<title>freeSchur&#45;&gt;Yam_plact</title>
<path fill="none" stroke="#000000" d="M754.2788,-795.9468C719.4497,-784.7517 670.3753,-768.9778 632.2201,-756.7136"/>
<polygon fill="#000000" stroke="#000000" points="632.8621,-753.2437 622.2708,-753.5156 630.72,-759.9079 632.8621,-753.2437"/>
</g>
<!-- shuffle -->
<g id="node32" class="node">
<title>shuffle</title>
<g id="a_node32"><a xlink:href="Combi.LRrule.shuffle.html" xlink:title="shuffle">
<polygon fill="#dbc3b6" stroke="#dbc3b6" points="759.5,-756 694.5,-756 694.5,-720 759.5,-720 759.5,-756"/>
<text text-anchor="middle" x="727" y="-733.6" font-family="Times,serif" font-size="18.00" fill="#000000">shuffle</text>
</a>
</g>
</g>
<!-- freeSchur&#45;&gt;shuffle -->
<g id="edge51" class="edge">
<title>freeSchur&#45;&gt;shuffle</title>
<path fill="none" stroke="#000000" d="M780.0837,-791.8314C771.6558,-783.2848 761.459,-772.9443 752.264,-763.6198"/>
<polygon fill="#000000" stroke="#000000" points="754.6711,-761.0761 745.1575,-756.4133 749.6869,-765.9912 754.6711,-761.0761"/>
</g>
<!-- Schur_mpoly -->
<g id="node37" class="node">
<title>Schur_mpoly</title>
<g id="a_node37"><a xlink:href="Combi.MPoly.Schur_mpoly.html" xlink:title="Schur_mpoly">
<polygon fill="#dbc3b6" stroke="#dbc3b6" points="916,-612 802,-612 802,-576 916,-576 916,-612"/>
<text text-anchor="middle" x="859" y="-589.6" font-family="Times,serif" font-size="18.00" fill="#000000">Schur_mpoly</text>
</a>
</g>
</g>
<!-- freeSchur&#45;&gt;Schur_mpoly -->
<g id="edge52" class="edge">
<title>freeSchur&#45;&gt;Schur_mpoly</title>
<path fill="none" stroke="#000000" d="M803.0959,-791.9555C813.7485,-754.235 838.4354,-666.8188 851.1378,-621.8399"/>
<polygon fill="#000000" stroke="#000000" points="854.5261,-622.7199 853.8757,-612.1451 847.7896,-620.8174 854.5261,-622.7199"/>
</g>
<!-- therule -->
<g id="node34" class="node">
<title>therule</title>
<g id="a_node34"><a xlink:href="Combi.LRrule.therule.html" xlink:title="therule">
<polygon fill="#dbc3b6" stroke="#dbc3b6" points="1058.5,-900 991.5,-900 991.5,-864 1058.5,-864 1058.5,-900"/>
<text text-anchor="middle" x="1025" y="-877.6" font-family="Times,serif" font-size="18.00" fill="#000000">therule</text>
</a>
</g>
</g>
<!-- implem&#45;&gt;therule -->
<g id="edge46" class="edge">
<title>implem&#45;&gt;therule</title>
<path fill="none" stroke="#000000" d="M1027.243,-935.8314C1026.9221,-928.131 1026.5406,-918.9743 1026.184,-910.4166"/>
<polygon fill="#000000" stroke="#000000" points="1029.6806,-910.2589 1025.7672,-900.4133 1022.6867,-910.5503 1029.6806,-910.2589"/>
</g>
<!-- plactic&#45;&gt;congr -->
<g id="edge44" class="edge">
<title>plactic&#45;&gt;congr</title>
<path fill="none" stroke="#000000" d="M454.2523,-431.8314C454.3593,-424.131 454.4865,-414.9743 454.6053,-406.4166"/>
<polygon fill="#000000" stroke="#000000" points="458.1049,-406.4609 454.7443,-396.4133 451.1056,-406.3637 458.1049,-406.4609"/>
</g>
<!-- plactic&#45;&gt;Schensted -->
<g id="edge45" class="edge">
<title>plactic&#45;&gt;Schensted</title>
<path fill="none" stroke="#000000" d="M486.5792,-439.996C497.7135,-436.9474 510.308,-433.9024 522,-432 674.6235,-407.1669 1147.0705,-386.6803 1310.6037,-380.1675"/>
<polygon fill="#000000" stroke="#000000" points="1311.0684,-383.6519 1320.922,-379.7588 1310.7913,-376.6574 1311.0684,-383.6519"/>
</g>
<!-- shuffle&#45;&gt;stdplact -->
<g id="edge41" class="edge">
<title>shuffle&#45;&gt;stdplact</title>
<path fill="none" stroke="#000000" d="M709.336,-719.8314C701.0268,-711.2848 690.9736,-700.9443 681.9082,-691.6198"/>
<polygon fill="#000000" stroke="#000000" points="684.3821,-689.1435 674.9018,-684.4133 679.3631,-694.023 684.3821,-689.1435"/>
</g>
<!-- stdplact&#45;&gt;Greene_inv -->
<g id="edge40" class="edge">
<title>stdplact&#45;&gt;Greene_inv</title>
<path fill="none" stroke="#000000" d="M619.6749,-650.7307C594.943,-640.6131 562.1104,-627.1815 534.6007,-615.9275"/>
<polygon fill="#000000" stroke="#000000" points="535.6948,-612.5937 525.1141,-612.0467 533.0444,-619.0725 535.6948,-612.5937"/>
</g>
<!-- therule&#45;&gt;skewtab -->
<g id="edge38" class="edge">
<title>therule&#45;&gt;skewtab</title>
<path fill="none" stroke="#000000" d="M1058.6804,-866.5542C1080.7313,-856.4417 1109.8778,-843.0751 1134.2984,-831.8759"/>
<polygon fill="#000000" stroke="#000000" points="1135.7711,-835.0511 1143.4018,-827.7011 1132.8531,-828.6883 1135.7711,-835.0511"/>
</g>
<!-- therule&#45;&gt;freeSchur -->
<g id="edge39" class="edge">
<title>therule&#45;&gt;freeSchur</title>
<path fill="none" stroke="#000000" d="M991.0158,-871.2209C954.0681,-859.5018 894.5282,-840.6169 851.3372,-826.9175"/>
<polygon fill="#000000" stroke="#000000" points="852.1503,-823.5037 841.5601,-823.8164 850.0339,-830.1761 852.1503,-823.5037"/>
</g>
<!-- Cauchy -->
<g id="node35" class="node">
<title>Cauchy</title>
<g id="a_node35"><a xlink:href="Combi.MPoly.Cauchy.html" xlink:title="Cauchy">
<polygon fill="#dbc3b6" stroke="#dbc3b6" points="416,-1188 344,-1188 344,-1152 416,-1152 416,-1188"/>
<text text-anchor="middle" x="380" y="-1165.6" font-family="Times,serif" font-size="18.00" fill="#000000">Cauchy</text>
</a>
</g>
</g>
<!-- homogsym -->
<g id="node39" class="node">
<title>homogsym</title>
<g id="a_node39"><a xlink:href="Combi.MPoly.homogsym.html" xlink:title="homogsym">
<polygon fill="#dbc3b6" stroke="#dbc3b6" points="436,-1116 338,-1116 338,-1080 436,-1080 436,-1116"/>
<text text-anchor="middle" x="387" y="-1093.6" font-family="Times,serif" font-size="18.00" fill="#000000">homogsym</text>
</a>
</g>
</g>
<!-- Cauchy&#45;&gt;homogsym -->
<g id="edge10" class="edge">
<title>Cauchy&#45;&gt;homogsym</title>
<path fill="none" stroke="#000000" d="M381.7664,-1151.8314C382.515,-1144.131 383.4053,-1134.9743 384.2373,-1126.4166"/>
<polygon fill="#000000" stroke="#000000" points="387.7256,-1126.7051 385.2098,-1116.4133 380.7585,-1126.0276 387.7256,-1126.7051"/>
</g>
<!-- Schur_altdef -->
<g id="node36" class="node">
<title>Schur_altdef</title>
<g id="a_node36"><a xlink:href="Combi.MPoly.Schur_altdef.html" xlink:title="Schur_altdef">
<polygon fill="#dbc3b6" stroke="#dbc3b6" points="920,-972 810,-972 810,-936 920,-936 920,-972"/>
<text text-anchor="middle" x="865" y="-949.6" font-family="Times,serif" font-size="18.00" fill="#000000">Schur_altdef</text>
</a>
</g>
</g>
<!-- Schur_altdef&#45;&gt;unitriginv -->
<g id="edge3" class="edge">
<title>Schur_altdef&#45;&gt;unitriginv</title>
<path fill="none" stroke="#000000" d="M866.0094,-935.8314C866.4372,-928.131 866.9459,-918.9743 867.4213,-910.4166"/>
<polygon fill="#000000" stroke="#000000" points="870.9169,-910.592 867.977,-900.4133 863.9276,-910.2037 870.9169,-910.592"/>
</g>
<!-- Schur_altdef&#45;&gt;therule -->
<g id="edge4" class="edge">
<title>Schur_altdef&#45;&gt;therule</title>
<path fill="none" stroke="#000000" d="M905.3748,-935.8314C928.8304,-925.2763 958.3659,-911.9853 982.2201,-901.251"/>
<polygon fill="#000000" stroke="#000000" points="983.7088,-904.4192 991.3917,-897.1237 980.8362,-898.0357 983.7088,-904.4192"/>
</g>
<!-- Schur_mpoly&#45;&gt;stdtab -->
<g id="edge5" class="edge">
<title>Schur_mpoly&#45;&gt;stdtab</title>
<path fill="none" stroke="#000000" d="M879.5238,-575.9487C925.6226,-535.6739 1041.3829,-436.0406 1144,-360 1158.0566,-349.5839 1173.9893,-338.7622 1187.9826,-329.566"/>
<polygon fill="#000000" stroke="#000000" points="1189.9473,-332.4632 1196.4106,-324.0682 1186.1228,-326.6003 1189.9473,-332.4632"/>
</g>
<!-- antisym -->
<g id="node38" class="node">
<title>antisym</title>
<g id="a_node38"><a xlink:href="Combi.MPoly.antisym.html" xlink:title="antisym">
<polygon fill="#dbc3b6" stroke="#dbc3b6" points="770,-540 696,-540 696,-504 770,-504 770,-540"/>
<text text-anchor="middle" x="733" y="-517.6" font-family="Times,serif" font-size="18.00" fill="#000000">antisym</text>
</a>
</g>
</g>
<!-- Schur_mpoly&#45;&gt;antisym -->
<g id="edge6" class="edge">
<title>Schur_mpoly&#45;&gt;antisym</title>
<path fill="none" stroke="#000000" d="M827.2049,-575.8314C810.9395,-566.5368 790.9614,-555.1208 773.5949,-545.1971"/>
<polygon fill="#000000" stroke="#000000" points="775.2039,-542.0854 764.7849,-540.1628 771.7309,-548.1631 775.2039,-542.0854"/>
</g>
<!-- presentSn -->
<g id="node49" class="node">
<title>presentSn</title>
<g id="a_node49"><a xlink:href="Combi.SymGroup.presentSn.html" xlink:title="presentSn">
<polygon fill="#dbc3b6" stroke="#dbc3b6" points="647.5,-468 558.5,-468 558.5,-432 647.5,-432 647.5,-468"/>
<text text-anchor="middle" x="603" y="-445.6" font-family="Times,serif" font-size="18.00" fill="#000000">presentSn</text>
</a>
</g>
</g>
<!-- antisym&#45;&gt;presentSn -->
<g id="edge11" class="edge">
<title>antisym&#45;&gt;presentSn</title>
<path fill="none" stroke="#000000" d="M700.1955,-503.8314C683.4138,-494.5368 662.8015,-483.1208 644.8837,-473.1971"/>
<polygon fill="#000000" stroke="#000000" points="646.2377,-469.9461 635.794,-468.1628 642.8462,-476.0696 646.2377,-469.9461"/>
</g>
<!-- sympoly -->
<g id="node40" class="node">
<title>sympoly</title>
<g id="a_node40"><a xlink:href="Combi.MPoly.sympoly.html" xlink:title="sympoly">
<polygon fill="#dbc3b6" stroke="#dbc3b6" points="426,-1044 348,-1044 348,-1008 426,-1008 426,-1044"/>
<text text-anchor="middle" x="387" y="-1021.6" font-family="Times,serif" font-size="18.00" fill="#000000">sympoly</text>
</a>
</g>
</g>
<!-- homogsym&#45;&gt;sympoly -->
<g id="edge9" class="edge">
<title>homogsym&#45;&gt;sympoly</title>
<path fill="none" stroke="#000000" d="M387,-1079.8314C387,-1072.131 387,-1062.9743 387,-1054.4166"/>
<polygon fill="#000000" stroke="#000000" points="390.5001,-1054.4132 387,-1044.4133 383.5001,-1054.4133 390.5001,-1054.4132"/>
</g>
<!-- sympoly&#45;&gt;Schur_altdef -->
<g id="edge7" class="edge">
<title>sympoly&#45;&gt;Schur_altdef</title>
<path fill="none" stroke="#000000" d="M426.1167,-1020.1079C508.1397,-1007.753 698.8605,-979.0252 799.7404,-963.8299"/>
<polygon fill="#000000" stroke="#000000" points="800.441,-967.2639 809.8081,-962.3134 799.3983,-960.342 800.441,-967.2639"/>
</g>
<!-- permcent -->
<g id="node48" class="node">
<title>permcent</title>
<g id="a_node48"><a xlink:href="Combi.SymGroup.permcent.html" xlink:title="permcent">
<polygon fill="#dbc3b6" stroke="#dbc3b6" points="347,-972 263,-972 263,-936 347,-936 347,-972"/>
<text text-anchor="middle" x="305" y="-949.6" font-family="Times,serif" font-size="18.00" fill="#000000">permcent</text>
</a>
</g>
</g>
<!-- sympoly&#45;&gt;permcent -->
<g id="edge8" class="edge">
<title>sympoly&#45;&gt;permcent</title>
<path fill="none" stroke="#000000" d="M366.3079,-1007.8314C356.3052,-999.0485 344.145,-988.3712 333.3001,-978.8489"/>
<polygon fill="#000000" stroke="#000000" points="335.5092,-976.1308 325.6854,-972.1628 330.8906,-981.3909 335.5092,-976.1308"/>
</g>
<!-- ordcast&#45;&gt;tools -->
<g id="edge36" class="edge">
<title>ordcast&#45;&gt;tools</title>
<path fill="none" stroke="#000000" d="M118.2822,-435.4753C72.7891,-414.3264 0,-370.4222 0,-306 0,-306 0,-306 0,-162 0,-110.4962 28.1827,-97.3781 73,-72 131.2472,-39.0172 332.1128,-24.5451 415.8702,-19.8437"/>
<polygon fill="#000000" stroke="#000000" points="416.1597,-23.3332 425.9541,-19.2934 415.7782,-16.3436 416.1597,-23.3332"/>
</g>
<!-- sorted&#45;&gt;tools -->
<g id="edge35" class="edge">
<title>sorted&#45;&gt;tools</title>
<path fill="none" stroke="#000000" d="M1263.9163,-80.3113C1252.7007,-77.1723 1239.8788,-73.9903 1228,-72 1083.2691,-47.7497 624.6154,-25.7087 490.2994,-19.6431"/>
<polygon fill="#000000" stroke="#000000" points="490.2603,-16.1379 480.1133,-19.1857 489.9462,-23.1308 490.2603,-16.1379"/>
</g>
<!-- Frobenius_char -->
<g id="node45" class="node">
<title>Frobenius_char</title>
<g id="a_node45"><a xlink:href="Combi.SymGroup.Frobenius_char.html" xlink:title="Frobenius_char">
<polygon fill="#dbc3b6" stroke="#dbc3b6" points="366.5,-1260 235.5,-1260 235.5,-1224 366.5,-1224 366.5,-1260"/>
<text text-anchor="middle" x="301" y="-1237.6" font-family="Times,serif" font-size="18.00" fill="#000000">Frobenius_char</text>
</a>
</g>
</g>
<!-- Frobenius_char&#45;&gt;Cauchy -->
<g id="edge18" class="edge">
<title>Frobenius_char&#45;&gt;Cauchy</title>
<path fill="none" stroke="#000000" d="M320.935,-1223.8314C330.4783,-1215.1337 342.0599,-1204.5783 352.4306,-1195.1265"/>
<polygon fill="#000000" stroke="#000000" points="355.038,-1197.4857 360.0713,-1188.1628 350.3228,-1192.3121 355.038,-1197.4857"/>
</g>
<!-- towerSn -->
<g id="node51" class="node">
<title>towerSn</title>
<g id="a_node51"><a xlink:href="Combi.SymGroup.towerSn.html" xlink:title="towerSn">
<polygon fill="#dbc3b6" stroke="#dbc3b6" points="268.5,-1044 189.5,-1044 189.5,-1008 268.5,-1008 268.5,-1044"/>
<text text-anchor="middle" x="229" y="-1021.6" font-family="Times,serif" font-size="18.00" fill="#000000">towerSn</text>
</a>
</g>
</g>
<!-- Frobenius_char&#45;&gt;towerSn -->
<g id="edge19" class="edge">
<title>Frobenius_char&#45;&gt;towerSn</title>
<path fill="none" stroke="#000000" d="M294.9852,-1223.9555C282.4117,-1186.235 253.2729,-1098.8188 238.28,-1053.8399"/>
<polygon fill="#000000" stroke="#000000" points="241.5311,-1052.5251 235.0484,-1044.1451 234.8903,-1054.7387 241.5311,-1052.5251"/>
</g>
<!-- cycles&#45;&gt;permcomp -->
<g id="edge23" class="edge">
<title>cycles&#45;&gt;permcomp</title>
<path fill="none" stroke="#000000" d="M333.0692,-229.2201C410.5383,-217.3018 613.1815,-186.1259 712.8999,-170.7846"/>
<polygon fill="#000000" stroke="#000000" points="713.449,-174.2414 722.8005,-169.2615 712.3846,-167.3228 713.449,-174.2414"/>
</g>
<!-- cycles&#45;&gt;tools -->
<g id="edge24" class="edge">
<title>cycles&#45;&gt;tools</title>
<path fill="none" stroke="#000000" d="M314.6145,-215.9555C341.2615,-177.8379 403.3846,-88.973 434.5209,-44.4337"/>
<polygon fill="#000000" stroke="#000000" points="437.4542,-46.3463 440.3153,-36.1451 431.7171,-42.3356 437.4542,-46.3463"/>
</g>
<!-- cycletype -->
<g id="node47" class="node">
<title>cycletype</title>
<g id="a_node47"><a xlink:href="Combi.SymGroup.cycletype.html" xlink:title="cycletype">
<polygon fill="#dbc3b6" stroke="#dbc3b6" points="348,-468 262,-468 262,-432 348,-432 348,-468"/>
<text text-anchor="middle" x="305" y="-445.6" font-family="Times,serif" font-size="18.00" fill="#000000">cycletype</text>
</a>
</g>
</g>
<!-- cycletype&#45;&gt;fibered_set -->
<g id="edge20" class="edge">
<title>cycletype&#45;&gt;fibered_set</title>
<path fill="none" stroke="#000000" d="M304.7477,-431.8314C304.6407,-424.131 304.5135,-414.9743 304.3947,-406.4166"/>
<polygon fill="#000000" stroke="#000000" points="307.8944,-406.3637 304.2557,-396.4133 300.8951,-406.4609 307.8944,-406.3637"/>
</g>
<!-- cycletype&#45;&gt;partition -->
<g id="edge21" class="edge">
<title>cycletype&#45;&gt;partition</title>
<path fill="none" stroke="#000000" d="M348.0065,-439.9004C391.5342,-429.5139 460.6914,-412.5602 520,-396 729.606,-337.4737 782.3709,-323.2508 988,-252 1052.0165,-229.8182 1124.6788,-201.1896 1171.59,-182.2452"/>
<polygon fill="#000000" stroke="#000000" points="1172.952,-185.4698 1180.9077,-178.4729 1170.3251,-178.9814 1172.952,-185.4698"/>
</g>
<!-- cycletype&#45;&gt;cycles -->
<g id="edge22" class="edge">
<title>cycletype&#45;&gt;cycles</title>
<path fill="none" stroke="#000000" d="M261.6935,-433.6678C245.2691,-425.1033 228.298,-412.8173 219,-396 192.6704,-348.3777 239.314,-291.5249 272.6744,-259.4056"/>
<polygon fill="#000000" stroke="#000000" points="275.4894,-261.5646 280.3972,-252.1751 270.7052,-256.4547 275.4894,-261.5646"/>
</g>
<!-- permcent&#45;&gt;cycletype -->
<g id="edge17" class="edge">
<title>permcent&#45;&gt;cycletype</title>
<path fill="none" stroke="#000000" d="M305,-935.8146C305,-908.4983 305,-855.25 305,-810 305,-810 305,-810 305,-594 305,-553.876 305,-507.4631 305,-478.4177"/>
<polygon fill="#000000" stroke="#000000" points="308.5001,-478.1853 305,-468.1854 301.5001,-478.1854 308.5001,-478.1853"/>
</g>
<!-- presentSn&#45;&gt;congr -->
<g id="edge16" class="edge">
<title>presentSn&#45;&gt;congr</title>
<path fill="none" stroke="#000000" d="M565.6534,-431.8314C543.7743,-421.1875 516.1762,-407.7614 494.0153,-396.9804"/>
<polygon fill="#000000" stroke="#000000" points="495.4067,-393.7652 484.8832,-392.5378 492.3444,-400.0598 495.4067,-393.7652"/>
</g>
<!-- reprSn -->
<g id="node50" class="node">
<title>reprSn</title>
<g id="a_node50"><a xlink:href="Combi.SymGroup.reprSn.html" xlink:title="reprSn">
<polygon fill="#dbc3b6" stroke="#dbc3b6" points="623.5,-540 558.5,-540 558.5,-504 623.5,-504 623.5,-540"/>
<text text-anchor="middle" x="591" y="-517.6" font-family="Times,serif" font-size="18.00" fill="#000000">reprSn</text>
</a>
</g>
</g>
<!-- reprSn&#45;&gt;cycletype -->
<g id="edge14" class="edge">
<title>reprSn&#45;&gt;cycletype</title>
<path fill="none" stroke="#000000" d="M558.3769,-513.409C546.8865,-510.4044 533.8766,-507.0268 522,-504 466.1577,-489.7686 402.1169,-473.8857 358.1597,-463.0512"/>
<polygon fill="#000000" stroke="#000000" points="358.8135,-459.6077 348.2666,-460.6144 357.1393,-466.4045 358.8135,-459.6077"/>
</g>
<!-- reprSn&#45;&gt;presentSn -->
<g id="edge15" class="edge">
<title>reprSn&#45;&gt;presentSn</title>
<path fill="none" stroke="#000000" d="M594.0281,-503.8314C595.3115,-496.131 596.8376,-486.9743 598.2639,-478.4166"/>
<polygon fill="#000000" stroke="#000000" points="601.7394,-478.8526 599.9311,-468.4133 594.8347,-477.7018 601.7394,-478.8526"/>
</g>
<!-- towerSn&#45;&gt;ordcast -->
<g id="edge12" class="edge">
<title>towerSn&#45;&gt;ordcast</title>
<path fill="none" stroke="#000000" d="M211.9813,-1007.5779C189.8532,-981.6309 154,-931.8921 154,-882 154,-882 154,-882 154,-594 154,-553.876 154,-507.4631 154,-478.4177"/>
<polygon fill="#000000" stroke="#000000" points="157.5001,-478.1853 154,-468.1854 150.5001,-478.1854 157.5001,-478.1853"/>
</g>
<!-- towerSn&#45;&gt;permcent -->
<g id="edge13" class="edge">
<title>towerSn&#45;&gt;permcent</title>
<path fill="none" stroke="#000000" d="M248.178,-1007.8314C257.3588,-999.1337 268.5006,-988.5783 278.4776,-979.1265"/>
<polygon fill="#000000" stroke="#000000" points="280.9757,-981.5811 285.8281,-972.1628 276.1615,-976.4995 280.9757,-981.5811"/>
</g>
</g>
</svg>
