<?xml version="1.0" encoding="UTF-8" standalone="no"?>
<!DOCTYPE svg PUBLIC "-//W3C//DTD SVG 1.1//EN"
 "http://www.w3.org/Graphics/SVG/1.1/DTD/svg11.dtd">
<!-- Generated by graphviz version 2.38.0 (20140413.2041)
 -->
<!-- Title: depend Pages: 1 -->
<svg width="1994pt" height="1124pt"
 viewBox="0.00 0.00 1993.96 1124.00" xmlns="http://www.w3.org/2000/svg" xmlns:xlink="http://www.w3.org/1999/xlink">
<g id="graph0" class="graph" transform="scale(1 1) rotate(0) translate(4 1120)">
<title>depend</title>
<!-- Ccpo -->
<g id="node1" class="node"><title>Ccpo</title>
<g id="a_node1"><a xlink:href="3rdparty.ALEA.Ccpo.html" xlink:title="Ccpo">
<polygon fill="#dbc3b6" stroke="#dbc3b6" points="230.956,-324 174.956,-324 174.956,-288 230.956,-288 230.956,-324"/>
<text text-anchor="middle" x="202.956" y="-301.6" font-family="Times,serif" font-size="18.00">Ccpo</text>
</a>
</g>
</g>
<!-- Misc -->
<g id="node2" class="node"><title>Misc</title>
<g id="a_node2"><a xlink:href="3rdparty.ALEA.Misc.html" xlink:title="Misc">
<polygon fill="#dbc3b6" stroke="#dbc3b6" points="102.956,-324 48.9564,-324 48.9564,-288 102.956,-288 102.956,-324"/>
<text text-anchor="middle" x="75.9564" y="-301.6" font-family="Times,serif" font-size="18.00">Misc</text>
</a>
</g>
</g>
<!-- combclass -->
<g id="node3" class="node"><title>combclass</title>
<g id="a_node3"><a xlink:href="Combi.Basic.combclass.html" xlink:title="combclass">
<polygon fill="#dbc3b6" stroke="#dbc3b6" points="1330.96,-108 1238.96,-108 1238.96,-72 1330.96,-72 1330.96,-108"/>
<text text-anchor="middle" x="1284.96" y="-85.6" font-family="Times,serif" font-size="18.00">combclass</text>
</a>
</g>
</g>
<!-- tools -->
<g id="node43" class="node"><title>tools</title>
<g id="a_node43"><a xlink:href="Combi.SSRcomplements.tools.html" xlink:title="tools">
<polygon fill="#dbc3b6" stroke="#dbc3b6" points="1621.96,-36 1567.96,-36 1567.96,-0 1621.96,-0 1621.96,-36"/>
<text text-anchor="middle" x="1594.96" y="-13.6" font-family="Times,serif" font-size="18.00">tools</text>
</a>
</g>
</g>
<!-- combclass&#45;&gt;tools -->
<g id="edge22" class="edge"><title>combclass&#45;&gt;tools</title>
<path fill="none" stroke="black" d="M1331.03,-78.5959C1392.8,-64.6487 1501.23,-40.1648 1557.97,-27.3521"/>
<polygon fill="black" stroke="black" points="1558.96,-30.7174 1567.94,-25.1007 1557.41,-23.8893 1558.96,-30.7174"/>
</g>
<!-- congr -->
<g id="node4" class="node"><title>congr</title>
<g id="a_node4"><a xlink:href="Combi.Basic.congr.html" xlink:title="congr">
<polygon fill="#dbc3b6" stroke="#dbc3b6" points="1553.46,-468 1494.46,-468 1494.46,-432 1553.46,-432 1553.46,-468"/>
<text text-anchor="middle" x="1523.96" y="-445.6" font-family="Times,serif" font-size="18.00">congr</text>
</a>
</g>
</g>
<!-- permuted -->
<g id="node11" class="node"><title>permuted</title>
<g id="a_node11"><a xlink:href="Combi.Combi.permuted.html" xlink:title="permuted">
<polygon fill="#dbc3b6" stroke="#dbc3b6" points="1566.96,-396 1480.96,-396 1480.96,-360 1566.96,-360 1566.96,-396"/>
<text text-anchor="middle" x="1523.96" y="-373.6" font-family="Times,serif" font-size="18.00">permuted</text>
</a>
</g>
</g>
<!-- congr&#45;&gt;permuted -->
<g id="edge20" class="edge"><title>congr&#45;&gt;permuted</title>
<path fill="none" stroke="black" d="M1523.96,-431.697C1523.96,-423.983 1523.96,-414.712 1523.96,-406.112"/>
<polygon fill="black" stroke="black" points="1527.46,-406.104 1523.96,-396.104 1520.46,-406.104 1527.46,-406.104"/>
</g>
<!-- vectNK -->
<g id="node17" class="node"><title>vectNK</title>
<g id="a_node17"><a xlink:href="Combi.Combi.vectNK.html" xlink:title="vectNK">
<polygon fill="#dbc3b6" stroke="#dbc3b6" points="1876.96,-180 1802.96,-180 1802.96,-144 1876.96,-144 1876.96,-180"/>
<text text-anchor="middle" x="1839.96" y="-157.6" font-family="Times,serif" font-size="18.00">vectNK</text>
</a>
</g>
</g>
<!-- congr&#45;&gt;vectNK -->
<g id="edge21" class="edge"><title>congr&#45;&gt;vectNK</title>
<path fill="none" stroke="black" d="M1553.49,-439.526C1601.31,-422.905 1696.34,-384.41 1755.96,-324 1794.49,-284.953 1819.45,-224.607 1831.48,-189.955"/>
<polygon fill="black" stroke="black" points="1834.93,-190.672 1834.8,-180.078 1828.3,-188.441 1834.93,-190.672"/>
</g>
<!-- ordtype -->
<g id="node5" class="node"><title>ordtype</title>
<g id="a_node5"><a xlink:href="Combi.Basic.ordtype.html" xlink:title="ordtype">
<polygon fill="#dbc3b6" stroke="#dbc3b6" points="1554.96,-108 1480.96,-108 1480.96,-72 1554.96,-72 1554.96,-108"/>
<text text-anchor="middle" x="1517.96" y="-85.6" font-family="Times,serif" font-size="18.00">ordtype</text>
</a>
</g>
</g>
<!-- ordtype&#45;&gt;tools -->
<g id="edge19" class="edge"><title>ordtype&#45;&gt;tools</title>
<path fill="none" stroke="black" d="M1536.99,-71.6966C1546.5,-63.0503 1558.16,-52.4486 1568.53,-43.027"/>
<polygon fill="black" stroke="black" points="1571.1,-45.4209 1576.14,-36.1043 1566.39,-40.2413 1571.1,-45.4209"/>
</g>
<!-- Yamanouchi -->
<g id="node6" class="node"><title>Yamanouchi</title>
<g id="a_node6"><a xlink:href="Combi.Combi.Yamanouchi.html" xlink:title="Yamanouchi">
<polygon fill="#dbc3b6" stroke="#dbc3b6" points="974.956,-252 864.956,-252 864.956,-216 974.956,-216 974.956,-252"/>
<text text-anchor="middle" x="919.956" y="-229.6" font-family="Times,serif" font-size="18.00">Yamanouchi</text>
</a>
</g>
</g>
<!-- partition -->
<g id="node10" class="node"><title>partition</title>
<g id="a_node10"><a xlink:href="Combi.Combi.partition.html" xlink:title="partition">
<polygon fill="#dbc3b6" stroke="#dbc3b6" points="1096.96,-180 1016.96,-180 1016.96,-144 1096.96,-144 1096.96,-180"/>
<text text-anchor="middle" x="1056.96" y="-157.6" font-family="Times,serif" font-size="18.00">partition</text>
</a>
</g>
</g>
<!-- Yamanouchi&#45;&gt;partition -->
<g id="edge54" class="edge"><title>Yamanouchi&#45;&gt;partition</title>
<path fill="none" stroke="black" d="M953.47,-215.876C971.798,-206.512 994.693,-194.814 1014.28,-184.803"/>
<polygon fill="black" stroke="black" points="1016,-187.857 1023.31,-180.19 1012.82,-181.623 1016,-187.857"/>
</g>
<!-- composition -->
<g id="node7" class="node"><title>composition</title>
<g id="a_node7"><a xlink:href="Combi.Combi.composition.html" xlink:title="composition">
<polygon fill="#dbc3b6" stroke="#dbc3b6" points="1154.96,-252 1046.96,-252 1046.96,-216 1154.96,-216 1154.96,-252"/>
<text text-anchor="middle" x="1100.96" y="-229.6" font-family="Times,serif" font-size="18.00">composition</text>
</a>
</g>
</g>
<!-- composition&#45;&gt;partition -->
<g id="edge73" class="edge"><title>composition&#45;&gt;partition</title>
<path fill="none" stroke="black" d="M1090.08,-215.697C1084.96,-207.559 1078.76,-197.689 1073.11,-188.701"/>
<polygon fill="black" stroke="black" points="1075.99,-186.708 1067.71,-180.104 1070.07,-190.433 1075.99,-186.708"/>
</g>
<!-- fibered_set -->
<g id="node8" class="node"><title>fibered_set</title>
<g id="a_node8"><a xlink:href="Combi.Combi.fibered_set.html" xlink:title="fibered_set">
<polygon fill="#dbc3b6" stroke="#dbc3b6" points="1730.96,-252 1632.96,-252 1632.96,-216 1730.96,-216 1730.96,-252"/>
<text text-anchor="middle" x="1681.96" y="-229.6" font-family="Times,serif" font-size="18.00">fibered_set</text>
</a>
</g>
</g>
<!-- multinomial -->
<g id="node9" class="node"><title>multinomial</title>
<g id="a_node9"><a xlink:href="Combi.Combi.multinomial.html" xlink:title="multinomial">
<polygon fill="#dbc3b6" stroke="#dbc3b6" points="1730.96,-180 1626.96,-180 1626.96,-144 1730.96,-144 1730.96,-180"/>
<text text-anchor="middle" x="1678.96" y="-157.6" font-family="Times,serif" font-size="18.00">multinomial</text>
</a>
</g>
</g>
<!-- multinomial&#45;&gt;tools -->
<g id="edge66" class="edge"><title>multinomial&#45;&gt;tools</title>
<path fill="none" stroke="black" d="M1668.82,-143.871C1654.26,-119.244 1627.28,-73.6377 1610.27,-44.8845"/>
<polygon fill="black" stroke="black" points="1613.23,-43.0141 1605.12,-36.1893 1607.2,-46.5781 1613.23,-43.0141"/>
</g>
<!-- partition&#45;&gt;combclass -->
<g id="edge70" class="edge"><title>partition&#45;&gt;combclass</title>
<path fill="none" stroke="black" d="M1097.19,-148.647C1133.81,-137.406 1188.21,-120.704 1229.04,-108.168"/>
<polygon fill="black" stroke="black" points="1230.31,-111.438 1238.85,-105.157 1228.26,-104.746 1230.31,-111.438"/>
</g>
<!-- partition&#45;&gt;ordtype -->
<g id="edge71" class="edge"><title>partition&#45;&gt;ordtype</title>
<path fill="none" stroke="black" d="M1097.06,-151.374C1108.61,-148.78 1121.25,-146.112 1132.96,-144 1253.99,-122.171 1397.86,-104.557 1470.68,-96.2228"/>
<polygon fill="black" stroke="black" points="1471.36,-99.6686 1480.9,-95.0612 1470.57,-92.7134 1471.36,-99.6686"/>
</g>
<!-- sorted -->
<g id="node42" class="node"><title>sorted</title>
<g id="a_node42"><a xlink:href="Combi.SSRcomplements.sorted.html" xlink:title="sorted">
<polygon fill="#dbc3b6" stroke="#dbc3b6" points="1087.96,-108 1025.96,-108 1025.96,-72 1087.96,-72 1087.96,-108"/>
<text text-anchor="middle" x="1056.96" y="-85.6" font-family="Times,serif" font-size="18.00">sorted</text>
</a>
</g>
</g>
<!-- partition&#45;&gt;sorted -->
<g id="edge72" class="edge"><title>partition&#45;&gt;sorted</title>
<path fill="none" stroke="black" d="M1056.96,-143.697C1056.96,-135.983 1056.96,-126.712 1056.96,-118.112"/>
<polygon fill="black" stroke="black" points="1060.46,-118.104 1056.96,-108.104 1053.46,-118.104 1060.46,-118.104"/>
</g>
<!-- permuted&#45;&gt;composition -->
<g id="edge67" class="edge"><title>permuted&#45;&gt;composition</title>
<path fill="none" stroke="black" d="M1480.68,-362.471C1404.85,-337.015 1247.83,-284.307 1161.36,-255.276"/>
<polygon fill="black" stroke="black" points="1162.27,-251.892 1151.68,-252.028 1160.05,-258.528 1162.27,-251.892"/>
</g>
<!-- permuted&#45;&gt;multinomial -->
<g id="edge68" class="edge"><title>permuted&#45;&gt;multinomial</title>
<path fill="none" stroke="black" d="M1528.28,-359.72C1536.89,-328.17 1558.69,-260.403 1596.96,-216 1607.4,-203.887 1621.28,-193.505 1634.64,-185.222"/>
<polygon fill="black" stroke="black" points="1636.49,-188.194 1643.31,-180.085 1632.93,-182.172 1636.49,-188.194"/>
</g>
<!-- cycletype -->
<g id="node46" class="node"><title>cycletype</title>
<g id="a_node46"><a xlink:href="Combi.SymGroup.cycletype.html" xlink:title="cycletype">
<polygon fill="#dbc3b6" stroke="#dbc3b6" points="1719.96,-324 1633.96,-324 1633.96,-288 1719.96,-288 1719.96,-324"/>
<text text-anchor="middle" x="1676.96" y="-301.6" font-family="Times,serif" font-size="18.00">cycletype</text>
</a>
</g>
</g>
<!-- permuted&#45;&gt;cycletype -->
<g id="edge69" class="edge"><title>permuted&#45;&gt;cycletype</title>
<path fill="none" stroke="black" d="M1561.38,-359.876C1582.21,-350.349 1608.31,-338.407 1630.44,-328.283"/>
<polygon fill="black" stroke="black" points="1632.01,-331.411 1639.65,-324.068 1629.1,-325.046 1632.01,-331.411"/>
</g>
<!-- skewtab -->
<g id="node12" class="node"><title>skewtab</title>
<g id="a_node12"><a xlink:href="Combi.Combi.skewtab.html" xlink:title="skewtab">
<polygon fill="#dbc3b6" stroke="#dbc3b6" points="1044.46,-900 967.456,-900 967.456,-864 1044.46,-864 1044.46,-900"/>
<text text-anchor="middle" x="1005.96" y="-877.6" font-family="Times,serif" font-size="18.00">skewtab</text>
</a>
</g>
</g>
<!-- stdtab -->
<g id="node14" class="node"><title>stdtab</title>
<g id="a_node14"><a xlink:href="Combi.Combi.stdtab.html" xlink:title="stdtab">
<polygon fill="#dbc3b6" stroke="#dbc3b6" points="936.956,-324 874.956,-324 874.956,-288 936.956,-288 936.956,-324"/>
<text text-anchor="middle" x="905.956" y="-301.6" font-family="Times,serif" font-size="18.00">stdtab</text>
</a>
</g>
</g>
<!-- skewtab&#45;&gt;stdtab -->
<g id="edge65" class="edge"><title>skewtab&#45;&gt;stdtab</title>
<path fill="none" stroke="black" d="M982.763,-863.613C953.222,-839.285 905.956,-792.068 905.956,-739 905.956,-739 905.956,-739 905.956,-449 905.956,-408.996 905.956,-362.653 905.956,-334.08"/>
<polygon fill="black" stroke="black" points="909.456,-334.049 905.956,-324.049 902.456,-334.049 909.456,-334.049"/>
</g>
<!-- std -->
<g id="node13" class="node"><title>std</title>
<g id="a_node13"><a xlink:href="Combi.Combi.std.html" xlink:title="std">
<polygon fill="#dbc3b6" stroke="#dbc3b6" points="1414.96,-252 1360.96,-252 1360.96,-216 1414.96,-216 1414.96,-252"/>
<text text-anchor="middle" x="1387.96" y="-229.6" font-family="Times,serif" font-size="18.00">std</text>
</a>
</g>
</g>
<!-- std&#45;&gt;combclass -->
<g id="edge62" class="edge"><title>std&#45;&gt;combclass</title>
<path fill="none" stroke="black" d="M1375.53,-215.871C1357.59,-191.137 1324.3,-145.242 1303.46,-116.512"/>
<polygon fill="black" stroke="black" points="1306.13,-114.229 1297.42,-108.189 1300.46,-118.339 1306.13,-114.229"/>
</g>
<!-- std&#45;&gt;ordtype -->
<g id="edge63" class="edge"><title>std&#45;&gt;ordtype</title>
<path fill="none" stroke="black" d="M1403.64,-215.871C1426.48,-190.924 1469.02,-144.45 1495.28,-115.773"/>
<polygon fill="black" stroke="black" points="1498.05,-117.929 1502.22,-108.189 1492.89,-113.202 1498.05,-117.929"/>
</g>
<!-- permcomp -->
<g id="node40" class="node"><title>permcomp</title>
<g id="a_node40"><a xlink:href="Combi.SSRcomplements.permcomp.html" xlink:title="permcomp">
<polygon fill="#dbc3b6" stroke="#dbc3b6" points="1262.96,-180 1168.96,-180 1168.96,-144 1262.96,-144 1262.96,-180"/>
<text text-anchor="middle" x="1215.96" y="-157.6" font-family="Times,serif" font-size="18.00">permcomp</text>
</a>
</g>
</g>
<!-- std&#45;&gt;permcomp -->
<g id="edge64" class="edge"><title>std&#45;&gt;permcomp</title>
<path fill="none" stroke="black" d="M1360.7,-221.908C1335.64,-211.707 1297.81,-196.314 1267.12,-183.822"/>
<polygon fill="black" stroke="black" points="1268.42,-180.575 1257.84,-180.047 1265.79,-187.058 1268.42,-180.575"/>
</g>
<!-- stdtab&#45;&gt;Yamanouchi -->
<g id="edge59" class="edge"><title>stdtab&#45;&gt;Yamanouchi</title>
<path fill="none" stroke="black" d="M909.417,-287.697C910.96,-279.983 912.814,-270.712 914.534,-262.112"/>
<polygon fill="black" stroke="black" points="918.006,-262.597 916.536,-252.104 911.142,-261.224 918.006,-262.597"/>
</g>
<!-- stdtab&#45;&gt;std -->
<g id="edge60" class="edge"><title>stdtab&#45;&gt;std</title>
<path fill="none" stroke="black" d="M937.204,-302.53C1007.15,-296.679 1181.44,-280.3 1324.96,-252 1333.5,-250.314 1342.6,-248.107 1351.15,-245.844"/>
<polygon fill="black" stroke="black" points="1352.14,-249.202 1360.86,-243.19 1350.29,-242.45 1352.14,-249.202"/>
</g>
<!-- tableau -->
<g id="node16" class="node"><title>tableau</title>
<g id="a_node16"><a xlink:href="Combi.Combi.tableau.html" xlink:title="tableau">
<polygon fill="#dbc3b6" stroke="#dbc3b6" points="792.956,-252 722.956,-252 722.956,-216 792.956,-216 792.956,-252"/>
<text text-anchor="middle" x="757.956" y="-229.6" font-family="Times,serif" font-size="18.00">tableau</text>
</a>
</g>
</g>
<!-- stdtab&#45;&gt;tableau -->
<g id="edge61" class="edge"><title>stdtab&#45;&gt;tableau</title>
<path fill="none" stroke="black" d="M874.931,-290.326C853.829,-280.345 825.592,-266.99 802.148,-255.902"/>
<polygon fill="black" stroke="black" points="803.63,-252.731 793.093,-251.619 800.637,-259.058 803.63,-252.731"/>
</g>
<!-- subseq -->
<g id="node15" class="node"><title>subseq</title>
<g id="a_node15"><a xlink:href="Combi.Combi.subseq.html" xlink:title="subseq">
<polygon fill="#dbc3b6" stroke="#dbc3b6" points="796.456,-180 729.456,-180 729.456,-144 796.456,-144 796.456,-180"/>
<text text-anchor="middle" x="762.956" y="-157.6" font-family="Times,serif" font-size="18.00">subseq</text>
</a>
</g>
</g>
<!-- subseq&#45;&gt;combclass -->
<g id="edge57" class="edge"><title>subseq&#45;&gt;combclass</title>
<path fill="none" stroke="black" d="M796.804,-156.461C884.568,-144.692 1120.17,-113.098 1228.75,-98.5378"/>
<polygon fill="black" stroke="black" points="1229.4,-101.981 1238.85,-97.1831 1228.47,-95.0434 1229.4,-101.981"/>
</g>
<!-- subseq&#45;&gt;sorted -->
<g id="edge58" class="edge"><title>subseq&#45;&gt;sorted</title>
<path fill="none" stroke="black" d="M796.682,-152.97C850.893,-140.063 957.254,-114.739 1015.83,-100.791"/>
<polygon fill="black" stroke="black" points="1016.93,-104.128 1025.85,-98.4074 1015.31,-97.3188 1016.93,-104.128"/>
</g>
<!-- tableau&#45;&gt;partition -->
<g id="edge56" class="edge"><title>tableau&#45;&gt;partition</title>
<path fill="none" stroke="black" d="M792.975,-224.567C804.438,-221.819 817.237,-218.765 828.956,-216 890.126,-201.568 960.597,-185.23 1006.81,-174.557"/>
<polygon fill="black" stroke="black" points="1007.62,-177.962 1016.58,-172.302 1006.04,-171.141 1007.62,-177.962"/>
</g>
<!-- vectNK&#45;&gt;tools -->
<g id="edge55" class="edge"><title>vectNK&#45;&gt;tools</title>
<path fill="none" stroke="black" d="M1812.34,-143.924C1782.76,-125.748 1734.35,-96.3147 1691.96,-72 1672.02,-60.5654 1649.51,-48.2297 1631.19,-38.3388"/>
<polygon fill="black" stroke="black" points="1632.76,-35.2107 1622.3,-33.551 1629.45,-41.3739 1632.76,-35.2107"/>
</g>
<!-- Erdos_Szekeres -->
<g id="node18" class="node"><title>Erdos_Szekeres</title>
<g id="a_node18"><a xlink:href="Combi.Erdos_Szekeres.Erdos_Szekeres.html" xlink:title="Erdos_Szekeres">
<polygon fill="#dbc3b6" stroke="#dbc3b6" points="1148.46,-756 1015.46,-756 1015.46,-720 1148.46,-720 1148.46,-756"/>
<text text-anchor="middle" x="1081.96" y="-733.6" font-family="Times,serif" font-size="18.00">Erdos_Szekeres</text>
</a>
</g>
</g>
<!-- Greene_inv -->
<g id="node24" class="node"><title>Greene_inv</title>
<g id="a_node24"><a xlink:href="Combi.LRrule.Greene_inv.html" xlink:title="Greene_inv">
<polygon fill="#dbc3b6" stroke="#dbc3b6" points="1145.46,-684 1044.46,-684 1044.46,-648 1145.46,-648 1145.46,-684"/>
<text text-anchor="middle" x="1094.96" y="-661.6" font-family="Times,serif" font-size="18.00">Greene_inv</text>
</a>
</g>
</g>
<!-- Erdos_Szekeres&#45;&gt;Greene_inv -->
<g id="edge53" class="edge"><title>Erdos_Szekeres&#45;&gt;Greene_inv</title>
<path fill="none" stroke="black" d="M1085.17,-719.697C1086.6,-711.983 1088.32,-702.712 1089.92,-694.112"/>
<polygon fill="black" stroke="black" points="1093.4,-694.575 1091.78,-684.104 1086.51,-693.297 1093.4,-694.575"/>
</g>
<!-- Frobenius_ident -->
<g id="node19" class="node"><title>Frobenius_ident</title>
<g id="a_node19"><a xlink:href="Combi.HookFormula.Frobenius_ident.html" xlink:title="Frobenius_ident">
<polygon fill="#dbc3b6" stroke="#dbc3b6" points="734.456,-540 597.456,-540 597.456,-504 734.456,-504 734.456,-540"/>
<text text-anchor="middle" x="665.956" y="-517.6" font-family="Times,serif" font-size="18.00">Frobenius_ident</text>
</a>
</g>
</g>
<!-- hook -->
<g id="node21" class="node"><title>hook</title>
<g id="a_node21"><a xlink:href="Combi.HookFormula.hook.html" xlink:title="hook">
<polygon fill="#dbc3b6" stroke="#dbc3b6" points="326.956,-468 272.956,-468 272.956,-432 326.956,-432 326.956,-468"/>
<text text-anchor="middle" x="299.956" y="-445.6" font-family="Times,serif" font-size="18.00">hook</text>
</a>
</g>
</g>
<!-- Frobenius_ident&#45;&gt;hook -->
<g id="edge32" class="edge"><title>Frobenius_ident&#45;&gt;hook</title>
<path fill="none" stroke="black" d="M597.115,-507.834C519.99,-493.083 397.823,-469.718 336.959,-458.077"/>
<polygon fill="black" stroke="black" points="337.511,-454.619 327.032,-456.178 336.196,-461.495 337.511,-454.619"/>
</g>
<!-- Schensted -->
<g id="node25" class="node"><title>Schensted</title>
<g id="a_node25"><a xlink:href="Combi.LRrule.Schensted.html" xlink:title="Schensted">
<polygon fill="#dbc3b6" stroke="#dbc3b6" points="722.956,-468 630.956,-468 630.956,-432 722.956,-432 722.956,-468"/>
<text text-anchor="middle" x="676.956" y="-445.6" font-family="Times,serif" font-size="18.00">Schensted</text>
</a>
</g>
</g>
<!-- Frobenius_ident&#45;&gt;Schensted -->
<g id="edge33" class="edge"><title>Frobenius_ident&#45;&gt;Schensted</title>
<path fill="none" stroke="black" d="M668.675,-503.697C669.888,-495.983 671.344,-486.712 672.696,-478.112"/>
<polygon fill="black" stroke="black" points="676.174,-478.526 674.269,-468.104 669.259,-477.44 676.174,-478.526"/>
</g>
<!-- Qmeasure -->
<g id="node20" class="node"><title>Qmeasure</title>
<g id="a_node20"><a xlink:href="Combi.HookFormula.Qmeasure.html" xlink:title="Qmeasure">
<polygon fill="#dbc3b6" stroke="#dbc3b6" points="188.456,-396 99.4564,-396 99.4564,-360 188.456,-360 188.456,-396"/>
<text text-anchor="middle" x="143.956" y="-373.6" font-family="Times,serif" font-size="18.00">Qmeasure</text>
</a>
</g>
</g>
<!-- Qmeasure&#45;&gt;Ccpo -->
<g id="edge29" class="edge"><title>Qmeasure&#45;&gt;Ccpo</title>
<path fill="none" stroke="black" d="M158.541,-359.697C165.614,-351.305 174.24,-341.07 182.002,-331.861"/>
<polygon fill="black" stroke="black" points="184.771,-334.006 188.54,-324.104 179.419,-329.495 184.771,-334.006"/>
</g>
<!-- Qmeasure&#45;&gt;Misc -->
<g id="edge30" class="edge"><title>Qmeasure&#45;&gt;Misc</title>
<path fill="none" stroke="black" d="M127.147,-359.697C118.83,-351.135 108.651,-340.656 99.5665,-331.304"/>
<polygon fill="black" stroke="black" points="102.05,-328.838 92.572,-324.104 97.0294,-333.716 102.05,-328.838"/>
</g>
<!-- rat_coerce -->
<g id="node41" class="node"><title>rat_coerce</title>
<g id="a_node41"><a xlink:href="Combi.SSRcomplements.rat_coerce.html" xlink:title="rat_coerce">
<polygon fill="#dbc3b6" stroke="#dbc3b6" points="396.956,-324 302.956,-324 302.956,-288 396.956,-288 396.956,-324"/>
<text text-anchor="middle" x="349.956" y="-301.6" font-family="Times,serif" font-size="18.00">rat_coerce</text>
</a>
</g>
</g>
<!-- Qmeasure&#45;&gt;rat_coerce -->
<g id="edge31" class="edge"><title>Qmeasure&#45;&gt;rat_coerce</title>
<path fill="none" stroke="black" d="M188.655,-361.811C219.35,-351.381 260.345,-337.451 293.325,-326.244"/>
<polygon fill="black" stroke="black" points="294.497,-329.542 302.839,-323.011 292.245,-322.914 294.497,-329.542"/>
</g>
<!-- hook&#45;&gt;subseq -->
<g id="edge25" class="edge"><title>hook&#45;&gt;subseq</title>
<path fill="none" stroke="black" d="M272.598,-449.129C225.718,-448.078 128.736,-440.225 62.9564,-396 19.0605,-366.488 -21.2333,-328.36 12.9564,-288 104.73,-179.665 571.846,-165.135 718.703,-163.257"/>
<polygon fill="black" stroke="black" points="719.156,-166.752 729.116,-163.138 719.077,-159.752 719.156,-166.752"/>
</g>
<!-- hook&#45;&gt;Qmeasure -->
<g id="edge26" class="edge"><title>hook&#45;&gt;Qmeasure</title>
<path fill="none" stroke="black" d="M272.783,-436.807C250.294,-426.716 217.82,-412.144 191.103,-400.156"/>
<polygon fill="black" stroke="black" points="192.475,-396.935 181.919,-396.034 189.61,-403.322 192.475,-396.935"/>
</g>
<!-- recyama -->
<g id="node22" class="node"><title>recyama</title>
<g id="a_node22"><a xlink:href="Combi.HookFormula.recyama.html" xlink:title="recyama">
<polygon fill="#dbc3b6" stroke="#dbc3b6" points="338.956,-396 260.956,-396 260.956,-360 338.956,-360 338.956,-396"/>
<text text-anchor="middle" x="299.956" y="-373.6" font-family="Times,serif" font-size="18.00">recyama</text>
</a>
</g>
</g>
<!-- hook&#45;&gt;recyama -->
<g id="edge27" class="edge"><title>hook&#45;&gt;recyama</title>
<path fill="none" stroke="black" d="M299.956,-431.697C299.956,-423.983 299.956,-414.712 299.956,-406.112"/>
<polygon fill="black" stroke="black" points="303.456,-406.104 299.956,-396.104 296.456,-406.104 303.456,-406.104"/>
</g>
<!-- bigallpairs -->
<g id="node38" class="node"><title>bigallpairs</title>
<g id="a_node38"><a xlink:href="Combi.SSRcomplements.bigallpairs.html" xlink:title="bigallpairs">
<polygon fill="#dbc3b6" stroke="#dbc3b6" points="504.956,-396 410.956,-396 410.956,-360 504.956,-360 504.956,-396"/>
<text text-anchor="middle" x="457.956" y="-373.6" font-family="Times,serif" font-size="18.00">bigallpairs</text>
</a>
</g>
</g>
<!-- hook&#45;&gt;bigallpairs -->
<g id="edge28" class="edge"><title>hook&#45;&gt;bigallpairs</title>
<path fill="none" stroke="black" d="M327.118,-436.967C349.848,-426.896 382.83,-412.284 409.992,-400.25"/>
<polygon fill="black" stroke="black" points="411.605,-403.363 419.331,-396.113 408.77,-396.963 411.605,-403.363"/>
</g>
<!-- recyama&#45;&gt;stdtab -->
<g id="edge23" class="edge"><title>recyama&#45;&gt;stdtab</title>
<path fill="none" stroke="black" d="M339.091,-367.17C350.59,-364.543 363.228,-361.907 374.956,-360 556.158,-330.536 774.987,-314.93 864.629,-309.382"/>
<polygon fill="black" stroke="black" points="864.89,-312.873 874.659,-308.77 864.464,-305.886 864.89,-312.873"/>
</g>
<!-- recyama&#45;&gt;rat_coerce -->
<g id="edge24" class="edge"><title>recyama&#45;&gt;rat_coerce</title>
<path fill="none" stroke="black" d="M312.316,-359.697C318.189,-351.474 325.326,-341.483 331.799,-332.421"/>
<polygon fill="black" stroke="black" points="334.775,-334.276 337.739,-324.104 329.079,-330.207 334.775,-334.276"/>
</g>
<!-- Greene -->
<g id="node23" class="node"><title>Greene</title>
<g id="a_node23"><a xlink:href="Combi.LRrule.Greene.html" xlink:title="Greene">
<polygon fill="#dbc3b6" stroke="#dbc3b6" points="1129.46,-612 1060.46,-612 1060.46,-576 1129.46,-576 1129.46,-612"/>
<text text-anchor="middle" x="1094.96" y="-589.6" font-family="Times,serif" font-size="18.00">Greene</text>
</a>
</g>
</g>
<!-- plactic -->
<g id="node30" class="node"><title>plactic</title>
<g id="a_node30"><a xlink:href="Combi.LRrule.plactic.html" xlink:title="plactic">
<polygon fill="#dbc3b6" stroke="#dbc3b6" points="1127.46,-540 1062.46,-540 1062.46,-504 1127.46,-504 1127.46,-540"/>
<text text-anchor="middle" x="1094.96" y="-517.6" font-family="Times,serif" font-size="18.00">plactic</text>
</a>
</g>
</g>
<!-- Greene&#45;&gt;plactic -->
<g id="edge47" class="edge"><title>Greene&#45;&gt;plactic</title>
<path fill="none" stroke="black" d="M1094.96,-575.697C1094.96,-567.983 1094.96,-558.712 1094.96,-550.112"/>
<polygon fill="black" stroke="black" points="1098.46,-550.104 1094.96,-540.104 1091.46,-550.104 1098.46,-550.104"/>
</g>
<!-- ordcast -->
<g id="node39" class="node"><title>ordcast</title>
<g id="a_node39"><a xlink:href="Combi.SSRcomplements.ordcast.html" xlink:title="ordcast">
<polygon fill="#dbc3b6" stroke="#dbc3b6" points="1878.46,-540 1807.46,-540 1807.46,-504 1878.46,-504 1878.46,-540"/>
<text text-anchor="middle" x="1842.96" y="-517.6" font-family="Times,serif" font-size="18.00">ordcast</text>
</a>
</g>
</g>
<!-- Greene&#45;&gt;ordcast -->
<g id="edge48" class="edge"><title>Greene&#45;&gt;ordcast</title>
<path fill="none" stroke="black" d="M1129.53,-589.764C1251.21,-578.378 1659.64,-540.155 1797.25,-527.277"/>
<polygon fill="black" stroke="black" points="1797.82,-530.74 1807.45,-526.323 1797.17,-523.77 1797.82,-530.74"/>
</g>
<!-- Greene_inv&#45;&gt;Greene -->
<g id="edge46" class="edge"><title>Greene_inv&#45;&gt;Greene</title>
<path fill="none" stroke="black" d="M1094.96,-647.697C1094.96,-639.983 1094.96,-630.712 1094.96,-622.112"/>
<polygon fill="black" stroke="black" points="1098.46,-622.104 1094.96,-612.104 1091.46,-622.104 1098.46,-622.104"/>
</g>
<!-- Schensted&#45;&gt;stdtab -->
<g id="edge41" class="edge"><title>Schensted&#45;&gt;stdtab</title>
<path fill="none" stroke="black" d="M704.579,-431.871C745.843,-406.284 823.626,-358.052 869.505,-329.603"/>
<polygon fill="black" stroke="black" points="871.581,-332.434 878.236,-324.189 867.892,-326.485 871.581,-332.434"/>
</g>
<!-- Schensted&#45;&gt;subseq -->
<g id="edge42" class="edge"><title>Schensted&#45;&gt;subseq</title>
<path fill="none" stroke="black" d="M672.847,-431.84C664.117,-391.311 647.576,-287.682 686.956,-216 694.508,-202.254 707.332,-191.291 720.316,-182.984"/>
<polygon fill="black" stroke="black" points="722.465,-185.779 729.268,-177.657 718.885,-179.763 722.465,-185.779"/>
</g>
<!-- Yam_plact -->
<g id="node26" class="node"><title>Yam_plact</title>
<g id="a_node26"><a xlink:href="Combi.LRrule.Yam_plact.html" xlink:title="Yam_plact">
<polygon fill="#dbc3b6" stroke="#dbc3b6" points="1154.96,-828 1058.96,-828 1058.96,-792 1154.96,-792 1154.96,-828"/>
<text text-anchor="middle" x="1106.96" y="-805.6" font-family="Times,serif" font-size="18.00">Yam_plact</text>
</a>
</g>
</g>
<!-- stdplact -->
<g id="node32" class="node"><title>stdplact</title>
<g id="a_node32"><a xlink:href="Combi.LRrule.stdplact.html" xlink:title="stdplact">
<polygon fill="#dbc3b6" stroke="#dbc3b6" points="1294.96,-756 1220.96,-756 1220.96,-720 1294.96,-720 1294.96,-756"/>
<text text-anchor="middle" x="1257.96" y="-733.6" font-family="Times,serif" font-size="18.00">stdplact</text>
</a>
</g>
</g>
<!-- Yam_plact&#45;&gt;stdplact -->
<g id="edge36" class="edge"><title>Yam_plact&#45;&gt;stdplact</title>
<path fill="none" stroke="black" d="M1143.9,-791.876C1164.45,-782.349 1190.21,-770.407 1212.05,-760.283"/>
<polygon fill="black" stroke="black" points="1213.54,-763.45 1221.14,-756.068 1210.59,-757.099 1213.54,-763.45"/>
</g>
<!-- extract -->
<g id="node27" class="node"><title>extract</title>
<g id="a_node27"><a xlink:href="Combi.LRrule.extract.html" xlink:title="extract">
<polygon fill="#dbc3b6" stroke="#dbc3b6" points="1047.46,-1116 980.456,-1116 980.456,-1080 1047.46,-1080 1047.46,-1116"/>
<text text-anchor="middle" x="1013.96" y="-1093.6" font-family="Times,serif" font-size="18.00">extract</text>
</a>
</g>
</g>
<!-- implem -->
<g id="node29" class="node"><title>implem</title>
<g id="a_node29"><a xlink:href="Combi.LRrule.implem.html" xlink:title="implem">
<polygon fill="#dbc3b6" stroke="#dbc3b6" points="1049.46,-1044 978.456,-1044 978.456,-1008 1049.46,-1008 1049.46,-1044"/>
<text text-anchor="middle" x="1013.96" y="-1021.6" font-family="Times,serif" font-size="18.00">implem</text>
</a>
</g>
</g>
<!-- extract&#45;&gt;implem -->
<g id="edge52" class="edge"><title>extract&#45;&gt;implem</title>
<path fill="none" stroke="black" d="M1013.96,-1079.7C1013.96,-1071.98 1013.96,-1062.71 1013.96,-1054.11"/>
<polygon fill="black" stroke="black" points="1017.46,-1054.1 1013.96,-1044.1 1010.46,-1054.1 1017.46,-1054.1"/>
</g>
<!-- freeSchur -->
<g id="node28" class="node"><title>freeSchur</title>
<g id="a_node28"><a xlink:href="Combi.LRrule.freeSchur.html" xlink:title="freeSchur">
<polygon fill="#dbc3b6" stroke="#dbc3b6" points="1226.46,-900 1139.46,-900 1139.46,-864 1226.46,-864 1226.46,-900"/>
<text text-anchor="middle" x="1182.96" y="-877.6" font-family="Times,serif" font-size="18.00">freeSchur</text>
</a>
</g>
</g>
<!-- freeSchur&#45;&gt;Yam_plact -->
<g id="edge49" class="edge"><title>freeSchur&#45;&gt;Yam_plact</title>
<path fill="none" stroke="black" d="M1164.17,-863.697C1154.78,-855.05 1143.27,-844.449 1133.04,-835.027"/>
<polygon fill="black" stroke="black" points="1135.25,-832.305 1125.53,-828.104 1130.51,-837.454 1135.25,-832.305"/>
</g>
<!-- shuffle -->
<g id="node31" class="node"><title>shuffle</title>
<g id="a_node31"><a xlink:href="Combi.LRrule.shuffle.html" xlink:title="shuffle">
<polygon fill="#dbc3b6" stroke="#dbc3b6" points="1292.46,-828 1227.46,-828 1227.46,-792 1292.46,-792 1292.46,-828"/>
<text text-anchor="middle" x="1259.96" y="-805.6" font-family="Times,serif" font-size="18.00">shuffle</text>
</a>
</g>
</g>
<!-- freeSchur&#45;&gt;shuffle -->
<g id="edge50" class="edge"><title>freeSchur&#45;&gt;shuffle</title>
<path fill="none" stroke="black" d="M1201.99,-863.697C1211.5,-855.05 1223.16,-844.449 1233.53,-835.027"/>
<polygon fill="black" stroke="black" points="1236.1,-837.421 1241.14,-828.104 1231.39,-832.241 1236.1,-837.421"/>
</g>
<!-- sympoly -->
<g id="node37" class="node"><title>sympoly</title>
<g id="a_node37"><a xlink:href="Combi.MPoly.sympoly.html" xlink:title="sympoly">
<polygon fill="#dbc3b6" stroke="#dbc3b6" points="1436.96,-684 1358.96,-684 1358.96,-648 1436.96,-648 1436.96,-684"/>
<text text-anchor="middle" x="1397.96" y="-661.6" font-family="Times,serif" font-size="18.00">sympoly</text>
</a>
</g>
</g>
<!-- freeSchur&#45;&gt;sympoly -->
<g id="edge51" class="edge"><title>freeSchur&#45;&gt;sympoly</title>
<path fill="none" stroke="black" d="M1226.46,-874.499C1258.08,-867.738 1300.06,-854.281 1327.96,-828 1366.76,-791.446 1385.22,-729.687 1393.02,-694.227"/>
<polygon fill="black" stroke="black" points="1396.51,-694.626 1395.1,-684.124 1389.65,-693.208 1396.51,-694.626"/>
</g>
<!-- therule -->
<g id="node33" class="node"><title>therule</title>
<g id="a_node33"><a xlink:href="Combi.LRrule.therule.html" xlink:title="therule">
<polygon fill="#dbc3b6" stroke="#dbc3b6" points="1127.46,-972 1060.46,-972 1060.46,-936 1127.46,-936 1127.46,-972"/>
<text text-anchor="middle" x="1093.96" y="-949.6" font-family="Times,serif" font-size="18.00">therule</text>
</a>
</g>
</g>
<!-- implem&#45;&gt;therule -->
<g id="edge45" class="edge"><title>implem&#45;&gt;therule</title>
<path fill="none" stroke="black" d="M1033.73,-1007.7C1043.71,-998.965 1055.97,-988.24 1066.81,-978.75"/>
<polygon fill="black" stroke="black" points="1069.19,-981.323 1074.41,-972.104 1064.58,-976.055 1069.19,-981.323"/>
</g>
<!-- plactic&#45;&gt;congr -->
<g id="edge43" class="edge"><title>plactic&#45;&gt;congr</title>
<path fill="none" stroke="black" d="M1127.55,-515.681C1205.08,-503.032 1400.23,-471.189 1484.35,-457.462"/>
<polygon fill="black" stroke="black" points="1484.98,-460.907 1494.28,-455.842 1483.85,-453.998 1484.98,-460.907"/>
</g>
<!-- plactic&#45;&gt;Schensted -->
<g id="edge44" class="edge"><title>plactic&#45;&gt;Schensted</title>
<path fill="none" stroke="black" d="M1062.16,-515.507C990.994,-503.59 821.722,-475.243 733.157,-460.412"/>
<polygon fill="black" stroke="black" points="733.728,-456.958 723.287,-458.759 732.571,-463.862 733.728,-456.958"/>
</g>
<!-- shuffle&#45;&gt;stdplact -->
<g id="edge40" class="edge"><title>shuffle&#45;&gt;stdplact</title>
<path fill="none" stroke="black" d="M1259.46,-791.697C1259.24,-783.983 1258.98,-774.712 1258.73,-766.112"/>
<polygon fill="black" stroke="black" points="1262.23,-766 1258.45,-756.104 1255.23,-766.2 1262.23,-766"/>
</g>
<!-- stdplact&#45;&gt;Greene_inv -->
<g id="edge39" class="edge"><title>stdplact&#45;&gt;Greene_inv</title>
<path fill="none" stroke="black" d="M1220.56,-720.941C1197.91,-711.213 1168.75,-698.691 1144.23,-688.161"/>
<polygon fill="black" stroke="black" points="1145.31,-684.814 1134.74,-684.084 1142.55,-691.246 1145.31,-684.814"/>
</g>
<!-- therule&#45;&gt;skewtab -->
<g id="edge37" class="edge"><title>therule&#45;&gt;skewtab</title>
<path fill="none" stroke="black" d="M1072.2,-935.697C1061.12,-926.881 1047.48,-916.032 1035.47,-906.474"/>
<polygon fill="black" stroke="black" points="1037.46,-903.59 1027.46,-900.104 1033.11,-909.069 1037.46,-903.59"/>
</g>
<!-- therule&#45;&gt;freeSchur -->
<g id="edge38" class="edge"><title>therule&#45;&gt;freeSchur</title>
<path fill="none" stroke="black" d="M1115.96,-935.697C1127.17,-926.881 1140.96,-916.032 1153.11,-906.474"/>
<polygon fill="black" stroke="black" points="1155.51,-909.038 1161.21,-900.104 1151.19,-903.535 1155.51,-909.038"/>
</g>
<!-- Schur_basis -->
<g id="node34" class="node"><title>Schur_basis</title>
<g id="a_node34"><a xlink:href="Combi.MPoly.Schur_basis.html" xlink:title="Schur_basis">
<polygon fill="#dbc3b6" stroke="#dbc3b6" points="1226.46,-1044 1121.46,-1044 1121.46,-1008 1226.46,-1008 1226.46,-1044"/>
<text text-anchor="middle" x="1173.96" y="-1021.6" font-family="Times,serif" font-size="18.00">Schur_basis</text>
</a>
</g>
</g>
<!-- Schur_basis&#45;&gt;therule -->
<g id="edge1" class="edge"><title>Schur_basis&#45;&gt;therule</title>
<path fill="none" stroke="black" d="M1154.18,-1007.7C1144.2,-998.965 1131.95,-988.24 1121.1,-978.75"/>
<polygon fill="black" stroke="black" points="1123.33,-976.055 1113.5,-972.104 1118.73,-981.323 1123.33,-976.055"/>
</g>
<!-- antisym -->
<g id="node35" class="node"><title>antisym</title>
<g id="a_node35"><a xlink:href="Combi.MPoly.antisym.html" xlink:title="antisym">
<polygon fill="#dbc3b6" stroke="#dbc3b6" points="1421.96,-612 1347.96,-612 1347.96,-576 1421.96,-576 1421.96,-612"/>
<text text-anchor="middle" x="1384.96" y="-589.6" font-family="Times,serif" font-size="18.00">antisym</text>
</a>
</g>
</g>
<!-- presentSn -->
<g id="node48" class="node"><title>presentSn</title>
<g id="a_node48"><a xlink:href="Combi.SymGroup.presentSn.html" xlink:title="presentSn">
<polygon fill="#dbc3b6" stroke="#dbc3b6" points="1568.46,-540 1479.46,-540 1479.46,-504 1568.46,-504 1568.46,-540"/>
<text text-anchor="middle" x="1523.96" y="-517.6" font-family="Times,serif" font-size="18.00">presentSn</text>
</a>
</g>
</g>
<!-- antisym&#45;&gt;presentSn -->
<g id="edge6" class="edge"><title>antisym&#45;&gt;presentSn</title>
<path fill="none" stroke="black" d="M1418.96,-575.876C1437.55,-566.512 1460.78,-554.814 1480.66,-544.803"/>
<polygon fill="black" stroke="black" points="1482.47,-547.814 1489.82,-540.19 1479.32,-541.562 1482.47,-547.814"/>
</g>
<!-- symhomog -->
<g id="node36" class="node"><title>symhomog</title>
<g id="a_node36"><a xlink:href="Combi.MPoly.symhomog.html" xlink:title="symhomog">
<polygon fill="#dbc3b6" stroke="#dbc3b6" points="1222.96,-1116 1124.96,-1116 1124.96,-1080 1222.96,-1080 1222.96,-1116"/>
<text text-anchor="middle" x="1173.96" y="-1093.6" font-family="Times,serif" font-size="18.00">symhomog</text>
</a>
</g>
</g>
<!-- symhomog&#45;&gt;Schur_basis -->
<g id="edge5" class="edge"><title>symhomog&#45;&gt;Schur_basis</title>
<path fill="none" stroke="black" d="M1173.96,-1079.7C1173.96,-1071.98 1173.96,-1062.71 1173.96,-1054.11"/>
<polygon fill="black" stroke="black" points="1177.46,-1054.1 1173.96,-1044.1 1170.46,-1054.1 1177.46,-1054.1"/>
</g>
<!-- sympoly&#45;&gt;stdtab -->
<g id="edge2" class="edge"><title>sympoly&#45;&gt;stdtab</title>
<path fill="none" stroke="black" d="M1358.65,-650.09C1311.57,-629.366 1238.96,-587.028 1238.96,-523 1238.96,-523 1238.96,-523 1238.96,-449 1238.96,-323.403 1036.04,-307.363 947.005,-306.37"/>
<polygon fill="black" stroke="black" points="947.004,-302.87 936.985,-306.317 946.966,-309.87 947.004,-302.87"/>
</g>
<!-- sympoly&#45;&gt;antisym -->
<g id="edge3" class="edge"><title>sympoly&#45;&gt;antisym</title>
<path fill="none" stroke="black" d="M1394.74,-647.697C1393.31,-639.983 1391.59,-630.712 1389.99,-622.112"/>
<polygon fill="black" stroke="black" points="1393.4,-621.297 1388.13,-612.104 1386.52,-622.575 1393.4,-621.297"/>
</g>
<!-- permcent -->
<g id="node47" class="node"><title>permcent</title>
<g id="a_node47"><a xlink:href="Combi.SymGroup.permcent.html" xlink:title="permcent">
<polygon fill="#dbc3b6" stroke="#dbc3b6" points="1733.96,-612 1649.96,-612 1649.96,-576 1733.96,-576 1733.96,-612"/>
<text text-anchor="middle" x="1691.96" y="-589.6" font-family="Times,serif" font-size="18.00">permcent</text>
</a>
</g>
</g>
<!-- sympoly&#45;&gt;permcent -->
<g id="edge4" class="edge"><title>sympoly&#45;&gt;permcent</title>
<path fill="none" stroke="black" d="M1437,-655.705C1489.16,-643.285 1581.74,-621.241 1639.83,-607.412"/>
<polygon fill="black" stroke="black" points="1640.98,-610.735 1649.9,-605.014 1639.36,-603.925 1640.98,-610.735"/>
</g>
<!-- ordcast&#45;&gt;tools -->
<g id="edge35" class="edge"><title>ordcast&#45;&gt;tools</title>
<path fill="none" stroke="black" d="M1878.67,-504.796C1921.03,-482.845 1985.96,-439.353 1985.96,-379 1985.96,-379 1985.96,-379 1985.96,-161 1985.96,-86.1801 1729.82,-39.4524 1632.16,-24.3563"/>
<polygon fill="black" stroke="black" points="1632.55,-20.8753 1622.14,-22.8323 1631.5,-27.7958 1632.55,-20.8753"/>
</g>
<!-- sorted&#45;&gt;tools -->
<g id="edge34" class="edge"><title>sorted&#45;&gt;tools</title>
<path fill="none" stroke="black" d="M1088.21,-84.9339C1181.45,-72.8017 1457.44,-36.8923 1557.88,-23.8247"/>
<polygon fill="black" stroke="black" points="1558.4,-27.2863 1567.86,-22.5252 1557.49,-20.3448 1558.4,-27.2863"/>
</g>
<!-- Frobenius_char -->
<g id="node44" class="node"><title>Frobenius_char</title>
<g id="a_node44"><a xlink:href="Combi.SymGroup.Frobenius_char.html" xlink:title="Frobenius_char">
<polygon fill="#dbc3b6" stroke="#dbc3b6" points="1700.46,-756 1569.46,-756 1569.46,-720 1700.46,-720 1700.46,-756"/>
<text text-anchor="middle" x="1634.96" y="-733.6" font-family="Times,serif" font-size="18.00">Frobenius_char</text>
</a>
</g>
</g>
<!-- Frobenius_char&#45;&gt;sympoly -->
<g id="edge13" class="edge"><title>Frobenius_char&#45;&gt;sympoly</title>
<path fill="none" stroke="black" d="M1577.28,-719.966C1537.41,-708.189 1484.94,-692.69 1447.06,-681.504"/>
<polygon fill="black" stroke="black" points="1447.86,-678.09 1437.28,-678.614 1445.88,-684.803 1447.86,-678.09"/>
</g>
<!-- towerSn -->
<g id="node51" class="node"><title>towerSn</title>
<g id="a_node51"><a xlink:href="Combi.SymGroup.towerSn.html" xlink:title="towerSn">
<polygon fill="#dbc3b6" stroke="#dbc3b6" points="1731.46,-684 1652.46,-684 1652.46,-648 1731.46,-648 1731.46,-684"/>
<text text-anchor="middle" x="1691.96" y="-661.6" font-family="Times,serif" font-size="18.00">towerSn</text>
</a>
</g>
</g>
<!-- Frobenius_char&#45;&gt;towerSn -->
<g id="edge14" class="edge"><title>Frobenius_char&#45;&gt;towerSn</title>
<path fill="none" stroke="black" d="M1649.05,-719.697C1655.88,-711.305 1664.21,-701.07 1671.71,-691.861"/>
<polygon fill="black" stroke="black" points="1674.43,-694.069 1678.03,-684.104 1669,-689.649 1674.43,-694.069"/>
</g>
<!-- cycles -->
<g id="node45" class="node"><title>cycles</title>
<g id="a_node45"><a xlink:href="Combi.SymGroup.cycles.html" xlink:title="cycles">
<polygon fill="#dbc3b6" stroke="#dbc3b6" points="1288.96,-252 1226.96,-252 1226.96,-216 1288.96,-216 1288.96,-252"/>
<text text-anchor="middle" x="1257.96" y="-229.6" font-family="Times,serif" font-size="18.00">cycles</text>
</a>
</g>
</g>
<!-- cycles&#45;&gt;partition -->
<g id="edge17" class="edge"><title>cycles&#45;&gt;partition</title>
<path fill="none" stroke="black" d="M1226.55,-222.062C1194.52,-210.908 1144.35,-193.435 1106.87,-180.383"/>
<polygon fill="black" stroke="black" points="1107.74,-176.981 1097.15,-176.997 1105.44,-183.592 1107.74,-176.981"/>
</g>
<!-- cycles&#45;&gt;permcomp -->
<g id="edge18" class="edge"><title>cycles&#45;&gt;permcomp</title>
<path fill="none" stroke="black" d="M1247.57,-215.697C1242.69,-207.559 1236.77,-197.689 1231.38,-188.701"/>
<polygon fill="black" stroke="black" points="1234.37,-186.879 1226.22,-180.104 1228.36,-190.48 1234.37,-186.879"/>
</g>
<!-- cycletype&#45;&gt;fibered_set -->
<g id="edge15" class="edge"><title>cycletype&#45;&gt;fibered_set</title>
<path fill="none" stroke="black" d="M1678.19,-287.697C1678.74,-279.983 1679.41,-270.712 1680.02,-262.112"/>
<polygon fill="black" stroke="black" points="1683.51,-262.328 1680.73,-252.104 1676.53,-261.83 1683.51,-262.328"/>
</g>
<!-- cycletype&#45;&gt;cycles -->
<g id="edge16" class="edge"><title>cycletype&#45;&gt;cycles</title>
<path fill="none" stroke="black" d="M1633.91,-299.915C1567.33,-291.736 1435.52,-274.293 1324.96,-252 1316.5,-250.295 1307.51,-248.208 1298.96,-246.086"/>
<polygon fill="black" stroke="black" points="1299.72,-242.67 1289.17,-243.602 1298,-249.455 1299.72,-242.67"/>
</g>
<!-- permcent&#45;&gt;cycletype -->
<g id="edge12" class="edge"><title>permcent&#45;&gt;cycletype</title>
<path fill="none" stroke="black" d="M1691.06,-575.966C1688.56,-528.291 1681.48,-393.185 1678.41,-334.63"/>
<polygon fill="black" stroke="black" points="1681.88,-334.109 1677.86,-324.306 1674.89,-334.476 1681.88,-334.109"/>
</g>
<!-- presentSn&#45;&gt;congr -->
<g id="edge11" class="edge"><title>presentSn&#45;&gt;congr</title>
<path fill="none" stroke="black" d="M1523.96,-503.697C1523.96,-495.983 1523.96,-486.712 1523.96,-478.112"/>
<polygon fill="black" stroke="black" points="1527.46,-478.104 1523.96,-468.104 1520.46,-478.104 1527.46,-478.104"/>
</g>
<!-- reprS2 -->
<g id="node49" class="node"><title>reprS2</title>
<g id="a_node49"><a xlink:href="Combi.SymGroup.reprS2.html" xlink:title="reprS2">
<polygon fill="#dbc3b6" stroke="#dbc3b6" points="1574.46,-684 1509.46,-684 1509.46,-648 1574.46,-648 1574.46,-684"/>
<text text-anchor="middle" x="1541.96" y="-661.6" font-family="Times,serif" font-size="18.00">reprS2</text>
</a>
</g>
</g>
<!-- reprdim1 -->
<g id="node50" class="node"><title>reprdim1</title>
<g id="a_node50"><a xlink:href="Combi.SymGroup.reprdim1.html" xlink:title="reprdim1">
<polygon fill="#dbc3b6" stroke="#dbc3b6" points="1577.46,-612 1494.46,-612 1494.46,-576 1577.46,-576 1577.46,-612"/>
<text text-anchor="middle" x="1535.96" y="-589.6" font-family="Times,serif" font-size="18.00">reprdim1</text>
</a>
</g>
</g>
<!-- reprS2&#45;&gt;reprdim1 -->
<g id="edge9" class="edge"><title>reprS2&#45;&gt;reprdim1</title>
<path fill="none" stroke="black" d="M1540.47,-647.697C1539.81,-639.983 1539.02,-630.712 1538.28,-622.112"/>
<polygon fill="black" stroke="black" points="1541.76,-621.769 1537.42,-612.104 1534.79,-622.367 1541.76,-621.769"/>
</g>
<!-- reprdim1&#45;&gt;presentSn -->
<g id="edge10" class="edge"><title>reprdim1&#45;&gt;presentSn</title>
<path fill="none" stroke="black" d="M1532.99,-575.697C1531.67,-567.983 1530.08,-558.712 1528.6,-550.112"/>
<polygon fill="black" stroke="black" points="1532.03,-549.369 1526.89,-540.104 1525.13,-550.552 1532.03,-549.369"/>
</g>
<!-- towerSn&#45;&gt;ordcast -->
<g id="edge7" class="edge"><title>towerSn&#45;&gt;ordcast</title>
<path fill="none" stroke="black" d="M1721.2,-647.947C1736.5,-638.349 1755.09,-625.583 1769.96,-612 1791.07,-592.712 1811.38,-567.181 1825.2,-548.412"/>
<polygon fill="black" stroke="black" points="1828.04,-550.462 1831.07,-540.311 1822.37,-546.355 1828.04,-550.462"/>
</g>
<!-- towerSn&#45;&gt;permcent -->
<g id="edge8" class="edge"><title>towerSn&#45;&gt;permcent</title>
<path fill="none" stroke="black" d="M1691.96,-647.697C1691.96,-639.983 1691.96,-630.712 1691.96,-622.112"/>
<polygon fill="black" stroke="black" points="1695.46,-622.104 1691.96,-612.104 1688.46,-622.104 1695.46,-622.104"/>
</g>
</g>
</svg>
