<?xml version="1.0" encoding="UTF-8" standalone="no"?>
<!DOCTYPE svg PUBLIC "-//W3C//DTD SVG 1.1//EN"
 "http://www.w3.org/Graphics/SVG/1.1/DTD/svg11.dtd">
<!-- Generated by graphviz version 2.38.0 (20140413.2041)
 -->
<!-- Title: depend Pages: 1 -->
<svg width="2331pt" height="1268pt"
 viewBox="0.00 0.00 2330.50 1268.00" xmlns="http://www.w3.org/2000/svg" xmlns:xlink="http://www.w3.org/1999/xlink">
<g id="graph0" class="graph" transform="scale(1 1) rotate(0) translate(4 1264)">
<title>depend</title>
<!-- Ccpo -->
<g id="node1" class="node"><title>Ccpo</title>
<g id="a_node1"><a xlink:href="3rdparty.ALEA.Ccpo.html" xlink:title="Ccpo">
<polygon fill="#dbc3b6" stroke="#dbc3b6" points="240,-324 184,-324 184,-288 240,-288 240,-324"/>
<text text-anchor="middle" x="212" y="-301.6" font-family="Times,serif" font-size="18.00">Ccpo</text>
</a>
</g>
</g>
<!-- Misc -->
<g id="node2" class="node"><title>Misc</title>
<g id="a_node2"><a xlink:href="3rdparty.ALEA.Misc.html" xlink:title="Misc">
<polygon fill="#dbc3b6" stroke="#dbc3b6" points="112,-324 58,-324 58,-288 112,-288 112,-324"/>
<text text-anchor="middle" x="85" y="-301.6" font-family="Times,serif" font-size="18.00">Misc</text>
</a>
</g>
</g>
<!-- combclass -->
<g id="node3" class="node"><title>combclass</title>
<g id="a_node3"><a xlink:href="Combi.Basic.combclass.html" xlink:title="combclass">
<polygon fill="#dbc3b6" stroke="#dbc3b6" points="1464,-108 1372,-108 1372,-72 1464,-72 1464,-108"/>
<text text-anchor="middle" x="1418" y="-85.6" font-family="Times,serif" font-size="18.00">combclass</text>
</a>
</g>
</g>
<!-- tools -->
<g id="node45" class="node"><title>tools</title>
<g id="a_node45"><a xlink:href="Combi.SSRcomplements.tools.html" xlink:title="tools">
<polygon fill="#dbc3b6" stroke="#dbc3b6" points="1370,-36 1316,-36 1316,-0 1370,-0 1370,-36"/>
<text text-anchor="middle" x="1343" y="-13.6" font-family="Times,serif" font-size="18.00">tools</text>
</a>
</g>
</g>
<!-- combclass&#45;&gt;tools -->
<g id="edge25" class="edge"><title>combclass&#45;&gt;tools</title>
<path fill="none" stroke="black" d="M1399.46,-71.6966C1390.2,-63.0503 1378.84,-52.4486 1368.74,-43.027"/>
<polygon fill="black" stroke="black" points="1371.02,-40.3688 1361.33,-36.1043 1366.25,-45.4863 1371.02,-40.3688"/>
</g>
<!-- congr -->
<g id="node4" class="node"><title>congr</title>
<g id="a_node4"><a xlink:href="Combi.Basic.congr.html" xlink:title="congr">
<polygon fill="#dbc3b6" stroke="#dbc3b6" points="895.5,-468 836.5,-468 836.5,-432 895.5,-432 895.5,-468"/>
<text text-anchor="middle" x="866" y="-445.6" font-family="Times,serif" font-size="18.00">congr</text>
</a>
</g>
</g>
<!-- permuted -->
<g id="node11" class="node"><title>permuted</title>
<g id="a_node11"><a xlink:href="Combi.Combi.permuted.html" xlink:title="permuted">
<polygon fill="#dbc3b6" stroke="#dbc3b6" points="923,-396 837,-396 837,-360 923,-360 923,-396"/>
<text text-anchor="middle" x="880" y="-373.6" font-family="Times,serif" font-size="18.00">permuted</text>
</a>
</g>
</g>
<!-- congr&#45;&gt;permuted -->
<g id="edge23" class="edge"><title>congr&#45;&gt;permuted</title>
<path fill="none" stroke="black" d="M869.461,-431.697C871.003,-423.983 872.858,-414.712 874.578,-406.112"/>
<polygon fill="black" stroke="black" points="878.05,-406.597 876.579,-396.104 871.186,-405.224 878.05,-406.597"/>
</g>
<!-- vectNK -->
<g id="node17" class="node"><title>vectNK</title>
<g id="a_node17"><a xlink:href="Combi.Combi.vectNK.html" xlink:title="vectNK">
<polygon fill="#dbc3b6" stroke="#dbc3b6" points="700,-180 626,-180 626,-144 700,-144 700,-180"/>
<text text-anchor="middle" x="663" y="-157.6" font-family="Times,serif" font-size="18.00">vectNK</text>
</a>
</g>
</g>
<!-- congr&#45;&gt;vectNK -->
<g id="edge24" class="edge"><title>congr&#45;&gt;vectNK</title>
<path fill="none" stroke="black" d="M841.058,-431.939C828.146,-422.339 812.684,-409.573 801,-396 743.279,-328.945 695.846,-234.563 674.768,-189.268"/>
<polygon fill="black" stroke="black" points="677.919,-187.743 670.56,-180.121 671.56,-190.668 677.919,-187.743"/>
</g>
<!-- ordtype -->
<g id="node5" class="node"><title>ordtype</title>
<g id="a_node5"><a xlink:href="Combi.Basic.ordtype.html" xlink:title="ordtype">
<polygon fill="#dbc3b6" stroke="#dbc3b6" points="1780,-108 1706,-108 1706,-72 1780,-72 1780,-108"/>
<text text-anchor="middle" x="1743" y="-85.6" font-family="Times,serif" font-size="18.00">ordtype</text>
</a>
</g>
</g>
<!-- ordtype&#45;&gt;tools -->
<g id="edge22" class="edge"><title>ordtype&#45;&gt;tools</title>
<path fill="none" stroke="black" d="M1705.73,-82.4774C1629.5,-69.1383 1456.57,-38.8754 1380.31,-25.53"/>
<polygon fill="black" stroke="black" points="1380.67,-22.039 1370.22,-23.7627 1379.46,-28.9342 1380.67,-22.039"/>
</g>
<!-- Yamanouchi -->
<g id="node6" class="node"><title>Yamanouchi</title>
<g id="a_node6"><a xlink:href="Combi.Combi.Yamanouchi.html" xlink:title="Yamanouchi">
<polygon fill="#dbc3b6" stroke="#dbc3b6" points="1601,-252 1491,-252 1491,-216 1601,-216 1601,-252"/>
<text text-anchor="middle" x="1546" y="-229.6" font-family="Times,serif" font-size="18.00">Yamanouchi</text>
</a>
</g>
</g>
<!-- partition -->
<g id="node10" class="node"><title>partition</title>
<g id="a_node10"><a xlink:href="Combi.Combi.partition.html" xlink:title="partition">
<polygon fill="#dbc3b6" stroke="#dbc3b6" points="1458,-180 1378,-180 1378,-144 1458,-144 1458,-180"/>
<text text-anchor="middle" x="1418" y="-157.6" font-family="Times,serif" font-size="18.00">partition</text>
</a>
</g>
</g>
<!-- Yamanouchi&#45;&gt;partition -->
<g id="edge58" class="edge"><title>Yamanouchi&#45;&gt;partition</title>
<path fill="none" stroke="black" d="M1514.69,-215.876C1497.8,-206.639 1476.75,-195.131 1458.62,-185.212"/>
<polygon fill="black" stroke="black" points="1459.89,-181.917 1449.43,-180.19 1456.53,-188.059 1459.89,-181.917"/>
</g>
<!-- composition -->
<g id="node7" class="node"><title>composition</title>
<g id="a_node7"><a xlink:href="Combi.Combi.composition.html" xlink:title="composition">
<polygon fill="#dbc3b6" stroke="#dbc3b6" points="1277,-252 1169,-252 1169,-216 1277,-216 1277,-252"/>
<text text-anchor="middle" x="1223" y="-229.6" font-family="Times,serif" font-size="18.00">composition</text>
</a>
</g>
</g>
<!-- composition&#45;&gt;partition -->
<g id="edge77" class="edge"><title>composition&#45;&gt;partition</title>
<path fill="none" stroke="black" d="M1270.7,-215.876C1300.31,-205.248 1338.29,-191.614 1368.27,-180.852"/>
<polygon fill="black" stroke="black" points="1369.47,-184.139 1377.7,-177.467 1367.11,-177.551 1369.47,-184.139"/>
</g>
<!-- fibered_set -->
<g id="node8" class="node"><title>fibered_set</title>
<g id="a_node8"><a xlink:href="Combi.Combi.fibered_set.html" xlink:title="fibered_set">
<polygon fill="#dbc3b6" stroke="#dbc3b6" points="2031,-252 1933,-252 1933,-216 2031,-216 2031,-252"/>
<text text-anchor="middle" x="1982" y="-229.6" font-family="Times,serif" font-size="18.00">fibered_set</text>
</a>
</g>
</g>
<!-- multinomial -->
<g id="node9" class="node"><title>multinomial</title>
<g id="a_node9"><a xlink:href="Combi.Combi.multinomial.html" xlink:title="multinomial">
<polygon fill="#dbc3b6" stroke="#dbc3b6" points="958,-180 854,-180 854,-144 958,-144 958,-180"/>
<text text-anchor="middle" x="906" y="-157.6" font-family="Times,serif" font-size="18.00">multinomial</text>
</a>
</g>
</g>
<!-- multinomial&#45;&gt;tools -->
<g id="edge70" class="edge"><title>multinomial&#45;&gt;tools</title>
<path fill="none" stroke="black" d="M958.278,-144.013C1047.82,-114.916 1228.39,-56.2415 1306.08,-30.9967"/>
<polygon fill="black" stroke="black" points="1307.48,-34.2233 1315.91,-27.8042 1305.31,-27.566 1307.48,-34.2233"/>
</g>
<!-- partition&#45;&gt;combclass -->
<g id="edge74" class="edge"><title>partition&#45;&gt;combclass</title>
<path fill="none" stroke="black" d="M1418,-143.697C1418,-135.983 1418,-126.712 1418,-118.112"/>
<polygon fill="black" stroke="black" points="1421.5,-118.104 1418,-108.104 1414.5,-118.104 1421.5,-118.104"/>
</g>
<!-- partition&#45;&gt;ordtype -->
<g id="edge75" class="edge"><title>partition&#45;&gt;ordtype</title>
<path fill="none" stroke="black" d="M1458.18,-152.346C1518.47,-139.361 1632.08,-114.889 1696.09,-101.103"/>
<polygon fill="black" stroke="black" points="1696.88,-104.513 1705.92,-98.9859 1695.41,-97.67 1696.88,-104.513"/>
</g>
<!-- sorted -->
<g id="node44" class="node"><title>sorted</title>
<g id="a_node44"><a xlink:href="Combi.SSRcomplements.sorted.html" xlink:title="sorted">
<polygon fill="#dbc3b6" stroke="#dbc3b6" points="1300,-108 1238,-108 1238,-72 1300,-72 1300,-108"/>
<text text-anchor="middle" x="1269" y="-85.6" font-family="Times,serif" font-size="18.00">sorted</text>
</a>
</g>
</g>
<!-- partition&#45;&gt;sorted -->
<g id="edge76" class="edge"><title>partition&#45;&gt;sorted</title>
<path fill="none" stroke="black" d="M1381.55,-143.876C1359.69,-133.605 1331.85,-120.527 1309.33,-109.948"/>
<polygon fill="black" stroke="black" points="1310.58,-106.666 1300.04,-105.582 1307.6,-113.002 1310.58,-106.666"/>
</g>
<!-- permuted&#45;&gt;composition -->
<g id="edge71" class="edge"><title>permuted&#45;&gt;composition</title>
<path fill="none" stroke="black" d="M921.374,-359.871C984.424,-333.769 1104.4,-284.101 1172.49,-255.909"/>
<polygon fill="black" stroke="black" points="1173.85,-259.138 1181.75,-252.079 1171.17,-252.67 1173.85,-259.138"/>
</g>
<!-- permuted&#45;&gt;multinomial -->
<g id="edge72" class="edge"><title>permuted&#45;&gt;multinomial</title>
<path fill="none" stroke="black" d="M882.084,-359.849C886.581,-322.832 897.23,-235.181 902.673,-190.386"/>
<polygon fill="black" stroke="black" points="906.175,-190.582 903.906,-180.232 899.226,-189.737 906.175,-190.582"/>
</g>
<!-- cycletype -->
<g id="node49" class="node"><title>cycletype</title>
<g id="a_node49"><a xlink:href="Combi.SymGroup.cycletype.html" xlink:title="cycletype">
<polygon fill="#dbc3b6" stroke="#dbc3b6" points="1886,-324 1800,-324 1800,-288 1886,-288 1886,-324"/>
<text text-anchor="middle" x="1843" y="-301.6" font-family="Times,serif" font-size="18.00">cycletype</text>
</a>
</g>
</g>
<!-- permuted&#45;&gt;cycletype -->
<g id="edge73" class="edge"><title>permuted&#45;&gt;cycletype</title>
<path fill="none" stroke="black" d="M923.249,-373.856C1079.98,-362.463 1617.99,-323.356 1789.81,-310.867"/>
<polygon fill="black" stroke="black" points="1790.15,-314.351 1799.87,-310.135 1789.64,-307.369 1790.15,-314.351"/>
</g>
<!-- skewtab -->
<g id="node12" class="node"><title>skewtab</title>
<g id="a_node12"><a xlink:href="Combi.Combi.skewtab.html" xlink:title="skewtab">
<polygon fill="#dbc3b6" stroke="#dbc3b6" points="1538.5,-900 1461.5,-900 1461.5,-864 1538.5,-864 1538.5,-900"/>
<text text-anchor="middle" x="1500" y="-877.6" font-family="Times,serif" font-size="18.00">skewtab</text>
</a>
</g>
</g>
<!-- stdtab -->
<g id="node14" class="node"><title>stdtab</title>
<g id="a_node14"><a xlink:href="Combi.Combi.stdtab.html" xlink:title="stdtab">
<polygon fill="#dbc3b6" stroke="#dbc3b6" points="1415,-324 1353,-324 1353,-288 1415,-288 1415,-324"/>
<text text-anchor="middle" x="1384" y="-301.6" font-family="Times,serif" font-size="18.00">stdtab</text>
</a>
</g>
</g>
<!-- skewtab&#45;&gt;stdtab -->
<g id="edge69" class="edge"><title>skewtab&#45;&gt;stdtab</title>
<path fill="none" stroke="black" d="M1499.6,-863.952C1499.02,-837.294 1498,-784.119 1498,-739 1498,-739 1498,-739 1498,-449 1498,-397.997 1452.73,-354.884 1419.24,-329.971"/>
<polygon fill="black" stroke="black" points="1421.17,-327.05 1411.02,-324.036 1417.08,-332.726 1421.17,-327.05"/>
</g>
<!-- std -->
<g id="node13" class="node"><title>std</title>
<g id="a_node13"><a xlink:href="Combi.Combi.std.html" xlink:title="std">
<polygon fill="#dbc3b6" stroke="#dbc3b6" points="1861,-252 1807,-252 1807,-216 1861,-216 1861,-252"/>
<text text-anchor="middle" x="1834" y="-229.6" font-family="Times,serif" font-size="18.00">std</text>
</a>
</g>
</g>
<!-- std&#45;&gt;combclass -->
<g id="edge66" class="edge"><title>std&#45;&gt;combclass</title>
<path fill="none" stroke="black" d="M1812.62,-215.734C1786.31,-195.388 1739.51,-162.07 1694,-144 1621.43,-115.182 1531.73,-101.682 1474.68,-95.6103"/>
<polygon fill="black" stroke="black" points="1474.72,-92.0966 1464.42,-94.5611 1474.01,-99.0603 1474.72,-92.0966"/>
</g>
<!-- std&#45;&gt;ordtype -->
<g id="edge67" class="edge"><title>std&#45;&gt;ordtype</title>
<path fill="none" stroke="black" d="M1835.67,-215.88C1836.67,-196.87 1835.68,-165.97 1822,-144 1813.98,-131.128 1801.56,-120.672 1788.91,-112.554"/>
<polygon fill="black" stroke="black" points="1790.55,-109.456 1780.18,-107.307 1786.95,-115.456 1790.55,-109.456"/>
</g>
<!-- permcomp -->
<g id="node42" class="node"><title>permcomp</title>
<g id="a_node42"><a xlink:href="Combi.SSRcomplements.permcomp.html" xlink:title="permcomp">
<polygon fill="#dbc3b6" stroke="#dbc3b6" points="1658,-180 1564,-180 1564,-144 1658,-144 1658,-180"/>
<text text-anchor="middle" x="1611" y="-157.6" font-family="Times,serif" font-size="18.00">permcomp</text>
</a>
</g>
</g>
<!-- std&#45;&gt;permcomp -->
<g id="edge68" class="edge"><title>std&#45;&gt;permcomp</title>
<path fill="none" stroke="black" d="M1806.66,-224.417C1772.27,-213.623 1712.36,-194.817 1667.87,-180.851"/>
<polygon fill="black" stroke="black" points="1668.64,-177.426 1658.05,-177.77 1666.55,-184.105 1668.64,-177.426"/>
</g>
<!-- stdtab&#45;&gt;Yamanouchi -->
<g id="edge63" class="edge"><title>stdtab&#45;&gt;Yamanouchi</title>
<path fill="none" stroke="black" d="M1415.24,-291.503C1438.41,-281.49 1470.46,-267.642 1497.02,-256.162"/>
<polygon fill="black" stroke="black" points="1498.75,-259.231 1506.54,-252.051 1495.97,-252.805 1498.75,-259.231"/>
</g>
<!-- stdtab&#45;&gt;std -->
<g id="edge64" class="edge"><title>stdtab&#45;&gt;std</title>
<path fill="none" stroke="black" d="M1415.08,-302.103C1481.07,-295.653 1639.9,-278.553 1771,-252 1779.54,-250.271 1788.63,-248.046 1797.18,-245.78"/>
<polygon fill="black" stroke="black" points="1798.17,-249.138 1806.89,-243.128 1796.32,-242.385 1798.17,-249.138"/>
</g>
<!-- tableau -->
<g id="node16" class="node"><title>tableau</title>
<g id="a_node16"><a xlink:href="Combi.Combi.tableau.html" xlink:title="tableau">
<polygon fill="#dbc3b6" stroke="#dbc3b6" points="1419,-252 1349,-252 1349,-216 1419,-216 1419,-252"/>
<text text-anchor="middle" x="1384" y="-229.6" font-family="Times,serif" font-size="18.00">tableau</text>
</a>
</g>
</g>
<!-- stdtab&#45;&gt;tableau -->
<g id="edge65" class="edge"><title>stdtab&#45;&gt;tableau</title>
<path fill="none" stroke="black" d="M1384,-287.697C1384,-279.983 1384,-270.712 1384,-262.112"/>
<polygon fill="black" stroke="black" points="1387.5,-262.104 1384,-252.104 1380.5,-262.104 1387.5,-262.104"/>
</g>
<!-- subseq -->
<g id="node15" class="node"><title>subseq</title>
<g id="a_node15"><a xlink:href="Combi.Combi.subseq.html" xlink:title="subseq">
<polygon fill="#dbc3b6" stroke="#dbc3b6" points="1261.5,-180 1194.5,-180 1194.5,-144 1261.5,-144 1261.5,-180"/>
<text text-anchor="middle" x="1228" y="-157.6" font-family="Times,serif" font-size="18.00">subseq</text>
</a>
</g>
</g>
<!-- subseq&#45;&gt;combclass -->
<g id="edge61" class="edge"><title>subseq&#45;&gt;combclass</title>
<path fill="none" stroke="black" d="M1261.53,-148.647C1289.46,-138.358 1329.8,-123.495 1362.53,-111.438"/>
<polygon fill="black" stroke="black" points="1363.8,-114.698 1371.98,-107.956 1361.38,-108.129 1363.8,-114.698"/>
</g>
<!-- subseq&#45;&gt;sorted -->
<g id="edge62" class="edge"><title>subseq&#45;&gt;sorted</title>
<path fill="none" stroke="black" d="M1238.13,-143.697C1242.85,-135.644 1248.56,-125.894 1253.78,-116.982"/>
<polygon fill="black" stroke="black" points="1256.95,-118.502 1258.98,-108.104 1250.91,-114.964 1256.95,-118.502"/>
</g>
<!-- tableau&#45;&gt;partition -->
<g id="edge60" class="edge"><title>tableau&#45;&gt;partition</title>
<path fill="none" stroke="black" d="M1392.4,-215.697C1396.27,-207.728 1400.95,-198.1 1405.24,-189.264"/>
<polygon fill="black" stroke="black" points="1408.47,-190.629 1409.69,-180.104 1402.17,-187.57 1408.47,-190.629"/>
</g>
<!-- vectNK&#45;&gt;tools -->
<g id="edge59" class="edge"><title>vectNK&#45;&gt;tools</title>
<path fill="none" stroke="black" d="M700.183,-152.019C769.681,-135.354 924.091,-98.8944 1055,-72 1144.83,-53.5459 1251.05,-34.7853 1305.97,-25.3115"/>
<polygon fill="black" stroke="black" points="1306.67,-28.7428 1315.93,-23.5981 1305.48,-21.8441 1306.67,-28.7428"/>
</g>
<!-- Erdos_Szekeres -->
<g id="node18" class="node"><title>Erdos_Szekeres</title>
<g id="a_node18"><a xlink:href="Combi.Erdos_Szekeres.Erdos_Szekeres.html" xlink:title="Erdos_Szekeres">
<polygon fill="#dbc3b6" stroke="#dbc3b6" points="1886.5,-756 1753.5,-756 1753.5,-720 1886.5,-720 1886.5,-756"/>
<text text-anchor="middle" x="1820" y="-733.6" font-family="Times,serif" font-size="18.00">Erdos_Szekeres</text>
</a>
</g>
</g>
<!-- Greene_inv -->
<g id="node24" class="node"><title>Greene_inv</title>
<g id="a_node24"><a xlink:href="Combi.LRrule.Greene_inv.html" xlink:title="Greene_inv">
<polygon fill="#dbc3b6" stroke="#dbc3b6" points="1789.5,-684 1688.5,-684 1688.5,-648 1789.5,-648 1789.5,-684"/>
<text text-anchor="middle" x="1739" y="-661.6" font-family="Times,serif" font-size="18.00">Greene_inv</text>
</a>
</g>
</g>
<!-- Erdos_Szekeres&#45;&gt;Greene_inv -->
<g id="edge57" class="edge"><title>Erdos_Szekeres&#45;&gt;Greene_inv</title>
<path fill="none" stroke="black" d="M1799.98,-719.697C1789.87,-710.965 1777.46,-700.24 1766.48,-690.75"/>
<polygon fill="black" stroke="black" points="1768.65,-687.995 1758.79,-684.104 1764.07,-693.291 1768.65,-687.995"/>
</g>
<!-- Frobenius_ident -->
<g id="node19" class="node"><title>Frobenius_ident</title>
<g id="a_node19"><a xlink:href="Combi.HookFormula.Frobenius_ident.html" xlink:title="Frobenius_ident">
<polygon fill="#dbc3b6" stroke="#dbc3b6" points="1105.5,-540 968.5,-540 968.5,-504 1105.5,-504 1105.5,-540"/>
<text text-anchor="middle" x="1037" y="-517.6" font-family="Times,serif" font-size="18.00">Frobenius_ident</text>
</a>
</g>
</g>
<!-- hook -->
<g id="node21" class="node"><title>hook</title>
<g id="a_node21"><a xlink:href="Combi.HookFormula.hook.html" xlink:title="hook">
<polygon fill="#dbc3b6" stroke="#dbc3b6" points="394,-468 340,-468 340,-432 394,-432 394,-468"/>
<text text-anchor="middle" x="367" y="-445.6" font-family="Times,serif" font-size="18.00">hook</text>
</a>
</g>
</g>
<!-- Frobenius_ident&#45;&gt;hook -->
<g id="edge35" class="edge"><title>Frobenius_ident&#45;&gt;hook</title>
<path fill="none" stroke="black" d="M968.472,-509.227C956.342,-507.337 943.815,-505.509 932,-504 733.649,-478.669 494.669,-460.19 404.162,-453.62"/>
<polygon fill="black" stroke="black" points="404.348,-450.124 394.122,-452.896 403.844,-457.106 404.348,-450.124"/>
</g>
<!-- Schensted -->
<g id="node25" class="node"><title>Schensted</title>
<g id="a_node25"><a xlink:href="Combi.LRrule.Schensted.html" xlink:title="Schensted">
<polygon fill="#dbc3b6" stroke="#dbc3b6" points="1175,-468 1083,-468 1083,-432 1175,-432 1175,-468"/>
<text text-anchor="middle" x="1129" y="-445.6" font-family="Times,serif" font-size="18.00">Schensted</text>
</a>
</g>
</g>
<!-- Frobenius_ident&#45;&gt;Schensted -->
<g id="edge36" class="edge"><title>Frobenius_ident&#45;&gt;Schensted</title>
<path fill="none" stroke="black" d="M1059.74,-503.697C1071.44,-494.796 1085.86,-483.823 1098.51,-474.199"/>
<polygon fill="black" stroke="black" points="1100.68,-476.945 1106.52,-468.104 1096.44,-471.374 1100.68,-476.945"/>
</g>
<!-- Qmeasure -->
<g id="node20" class="node"><title>Qmeasure</title>
<g id="a_node20"><a xlink:href="Combi.HookFormula.Qmeasure.html" xlink:title="Qmeasure">
<polygon fill="#dbc3b6" stroke="#dbc3b6" points="255.5,-396 166.5,-396 166.5,-360 255.5,-360 255.5,-396"/>
<text text-anchor="middle" x="211" y="-373.6" font-family="Times,serif" font-size="18.00">Qmeasure</text>
</a>
</g>
</g>
<!-- Qmeasure&#45;&gt;Ccpo -->
<g id="edge32" class="edge"><title>Qmeasure&#45;&gt;Ccpo</title>
<path fill="none" stroke="black" d="M211.247,-359.697C211.357,-351.983 211.49,-342.712 211.613,-334.112"/>
<polygon fill="black" stroke="black" points="215.112,-334.153 211.756,-324.104 208.113,-334.053 215.112,-334.153"/>
</g>
<!-- Qmeasure&#45;&gt;Misc -->
<g id="edge33" class="edge"><title>Qmeasure&#45;&gt;Misc</title>
<path fill="none" stroke="black" d="M180.177,-359.876C162.27,-349.928 139.623,-337.346 120.913,-326.952"/>
<polygon fill="black" stroke="black" points="122.523,-323.843 112.082,-322.046 119.124,-329.962 122.523,-323.843"/>
</g>
<!-- rat_coerce -->
<g id="node43" class="node"><title>rat_coerce</title>
<g id="a_node43"><a xlink:href="Combi.SSRcomplements.rat_coerce.html" xlink:title="rat_coerce">
<polygon fill="#dbc3b6" stroke="#dbc3b6" points="406,-324 312,-324 312,-288 406,-288 406,-324"/>
<text text-anchor="middle" x="359" y="-301.6" font-family="Times,serif" font-size="18.00">rat_coerce</text>
</a>
</g>
</g>
<!-- Qmeasure&#45;&gt;rat_coerce -->
<g id="edge34" class="edge"><title>Qmeasure&#45;&gt;rat_coerce</title>
<path fill="none" stroke="black" d="M247.205,-359.876C267.258,-350.392 292.372,-338.513 313.714,-328.419"/>
<polygon fill="black" stroke="black" points="315.369,-331.508 322.913,-324.068 312.376,-325.18 315.369,-331.508"/>
</g>
<!-- hook&#45;&gt;subseq -->
<g id="edge28" class="edge"><title>hook&#45;&gt;subseq</title>
<path fill="none" stroke="black" d="M394.19,-439.968C518.379,-398.716 1032.19,-228.043 1184.97,-177.295"/>
<polygon fill="black" stroke="black" points="1186.11,-180.602 1194.5,-174.128 1183.91,-173.959 1186.11,-180.602"/>
</g>
<!-- hook&#45;&gt;Qmeasure -->
<g id="edge29" class="edge"><title>hook&#45;&gt;Qmeasure</title>
<path fill="none" stroke="black" d="M339.827,-436.807C317.338,-426.716 284.863,-412.144 258.147,-400.156"/>
<polygon fill="black" stroke="black" points="259.519,-396.935 248.962,-396.034 256.653,-403.322 259.519,-396.935"/>
</g>
<!-- recyama -->
<g id="node22" class="node"><title>recyama</title>
<g id="a_node22"><a xlink:href="Combi.HookFormula.recyama.html" xlink:title="recyama">
<polygon fill="#dbc3b6" stroke="#dbc3b6" points="406,-396 328,-396 328,-360 406,-360 406,-396"/>
<text text-anchor="middle" x="367" y="-373.6" font-family="Times,serif" font-size="18.00">recyama</text>
</a>
</g>
</g>
<!-- hook&#45;&gt;recyama -->
<g id="edge30" class="edge"><title>hook&#45;&gt;recyama</title>
<path fill="none" stroke="black" d="M367,-431.697C367,-423.983 367,-414.712 367,-406.112"/>
<polygon fill="black" stroke="black" points="370.5,-406.104 367,-396.104 363.5,-406.104 370.5,-406.104"/>
</g>
<!-- bigallpairs -->
<g id="node40" class="node"><title>bigallpairs</title>
<g id="a_node40"><a xlink:href="Combi.SSRcomplements.bigallpairs.html" xlink:title="bigallpairs">
<polygon fill="#dbc3b6" stroke="#dbc3b6" points="94,-396 -7.10543e-15,-396 -7.10543e-15,-360 94,-360 94,-396"/>
<text text-anchor="middle" x="47" y="-373.6" font-family="Times,serif" font-size="18.00">bigallpairs</text>
</a>
</g>
</g>
<!-- hook&#45;&gt;bigallpairs -->
<g id="edge31" class="edge"><title>hook&#45;&gt;bigallpairs</title>
<path fill="none" stroke="black" d="M339.993,-443.092C288.147,-431.751 173.663,-406.708 104.145,-391.5"/>
<polygon fill="black" stroke="black" points="104.744,-388.049 94.2272,-389.331 103.248,-394.887 104.744,-388.049"/>
</g>
<!-- recyama&#45;&gt;stdtab -->
<g id="edge26" class="edge"><title>recyama&#45;&gt;stdtab</title>
<path fill="none" stroke="black" d="M406.244,-374.299C567.341,-363.211 1177.13,-321.239 1342.44,-309.86"/>
<polygon fill="black" stroke="black" points="1342.95,-313.334 1352.68,-309.156 1342.46,-306.351 1342.95,-313.334"/>
</g>
<!-- recyama&#45;&gt;rat_coerce -->
<g id="edge27" class="edge"><title>recyama&#45;&gt;rat_coerce</title>
<path fill="none" stroke="black" d="M365.022,-359.697C364.141,-351.983 363.081,-342.712 362.099,-334.112"/>
<polygon fill="black" stroke="black" points="365.568,-333.642 360.955,-324.104 358.613,-334.437 365.568,-333.642"/>
</g>
<!-- Greene -->
<g id="node23" class="node"><title>Greene</title>
<g id="a_node23"><a xlink:href="Combi.LRrule.Greene.html" xlink:title="Greene">
<polygon fill="#dbc3b6" stroke="#dbc3b6" points="1773.5,-612 1704.5,-612 1704.5,-576 1773.5,-576 1773.5,-612"/>
<text text-anchor="middle" x="1739" y="-589.6" font-family="Times,serif" font-size="18.00">Greene</text>
</a>
</g>
</g>
<!-- plactic -->
<g id="node30" class="node"><title>plactic</title>
<g id="a_node30"><a xlink:href="Combi.LRrule.plactic.html" xlink:title="plactic">
<polygon fill="#dbc3b6" stroke="#dbc3b6" points="1242.5,-540 1177.5,-540 1177.5,-504 1242.5,-504 1242.5,-540"/>
<text text-anchor="middle" x="1210" y="-517.6" font-family="Times,serif" font-size="18.00">plactic</text>
</a>
</g>
</g>
<!-- Greene&#45;&gt;plactic -->
<g id="edge51" class="edge"><title>Greene&#45;&gt;plactic</title>
<path fill="none" stroke="black" d="M1704.29,-588.407C1610.96,-576.056 1354.77,-542.157 1252.75,-528.656"/>
<polygon fill="black" stroke="black" points="1253.16,-525.181 1242.79,-527.339 1252.25,-532.121 1253.16,-525.181"/>
</g>
<!-- ordcast -->
<g id="node41" class="node"><title>ordcast</title>
<g id="a_node41"><a xlink:href="Combi.SSRcomplements.ordcast.html" xlink:title="ordcast">
<polygon fill="#dbc3b6" stroke="#dbc3b6" points="2322.5,-540 2251.5,-540 2251.5,-504 2322.5,-504 2322.5,-540"/>
<text text-anchor="middle" x="2287" y="-517.6" font-family="Times,serif" font-size="18.00">ordcast</text>
</a>
</g>
</g>
<!-- Greene&#45;&gt;ordcast -->
<g id="edge52" class="edge"><title>Greene&#45;&gt;ordcast</title>
<path fill="none" stroke="black" d="M1773.7,-588.568C1868.87,-576.411 2134.08,-542.533 2241.23,-528.847"/>
<polygon fill="black" stroke="black" points="2241.92,-532.287 2251.39,-527.548 2241.03,-525.344 2241.92,-532.287"/>
</g>
<!-- Greene_inv&#45;&gt;Greene -->
<g id="edge50" class="edge"><title>Greene_inv&#45;&gt;Greene</title>
<path fill="none" stroke="black" d="M1739,-647.697C1739,-639.983 1739,-630.712 1739,-622.112"/>
<polygon fill="black" stroke="black" points="1742.5,-622.104 1739,-612.104 1735.5,-622.104 1742.5,-622.104"/>
</g>
<!-- Schensted&#45;&gt;stdtab -->
<g id="edge45" class="edge"><title>Schensted&#45;&gt;stdtab</title>
<path fill="none" stroke="black" d="M1159.76,-431.871C1206,-406.124 1293.41,-357.448 1344.36,-329.072"/>
<polygon fill="black" stroke="black" points="1346.1,-332.112 1353.13,-324.189 1342.69,-325.997 1346.1,-332.112"/>
</g>
<!-- Schensted&#45;&gt;subseq -->
<g id="edge46" class="edge"><title>Schensted&#45;&gt;subseq</title>
<path fill="none" stroke="black" d="M1123.94,-431.934C1112.91,-391.168 1090.91,-286.288 1133,-216 1144.42,-196.923 1165.43,-184.183 1184.79,-175.987"/>
<polygon fill="black" stroke="black" points="1186.09,-179.237 1194.12,-172.32 1183.53,-172.723 1186.09,-179.237"/>
</g>
<!-- Yam_plact -->
<g id="node26" class="node"><title>Yam_plact</title>
<g id="a_node26"><a xlink:href="Combi.LRrule.Yam_plact.html" xlink:title="Yam_plact">
<polygon fill="#dbc3b6" stroke="#dbc3b6" points="1703,-828 1607,-828 1607,-792 1703,-792 1703,-828"/>
<text text-anchor="middle" x="1655" y="-805.6" font-family="Times,serif" font-size="18.00">Yam_plact</text>
</a>
</g>
</g>
<!-- stdplact -->
<g id="node32" class="node"><title>stdplact</title>
<g id="a_node32"><a xlink:href="Combi.LRrule.stdplact.html" xlink:title="stdplact">
<polygon fill="#dbc3b6" stroke="#dbc3b6" points="1681,-756 1607,-756 1607,-720 1681,-720 1681,-756"/>
<text text-anchor="middle" x="1644" y="-733.6" font-family="Times,serif" font-size="18.00">stdplact</text>
</a>
</g>
</g>
<!-- Yam_plact&#45;&gt;stdplact -->
<g id="edge40" class="edge"><title>Yam_plact&#45;&gt;stdplact</title>
<path fill="none" stroke="black" d="M1652.28,-791.697C1651.07,-783.983 1649.61,-774.712 1648.26,-766.112"/>
<polygon fill="black" stroke="black" points="1651.7,-765.44 1646.69,-756.104 1644.78,-766.526 1651.7,-765.44"/>
</g>
<!-- extract -->
<g id="node27" class="node"><title>extract</title>
<g id="a_node27"><a xlink:href="Combi.LRrule.extract.html" xlink:title="extract">
<polygon fill="#dbc3b6" stroke="#dbc3b6" points="1688.5,-1116 1621.5,-1116 1621.5,-1080 1688.5,-1080 1688.5,-1116"/>
<text text-anchor="middle" x="1655" y="-1093.6" font-family="Times,serif" font-size="18.00">extract</text>
</a>
</g>
</g>
<!-- implem -->
<g id="node29" class="node"><title>implem</title>
<g id="a_node29"><a xlink:href="Combi.LRrule.implem.html" xlink:title="implem">
<polygon fill="#dbc3b6" stroke="#dbc3b6" points="1690.5,-1044 1619.5,-1044 1619.5,-1008 1690.5,-1008 1690.5,-1044"/>
<text text-anchor="middle" x="1655" y="-1021.6" font-family="Times,serif" font-size="18.00">implem</text>
</a>
</g>
</g>
<!-- extract&#45;&gt;implem -->
<g id="edge56" class="edge"><title>extract&#45;&gt;implem</title>
<path fill="none" stroke="black" d="M1655,-1079.7C1655,-1071.98 1655,-1062.71 1655,-1054.11"/>
<polygon fill="black" stroke="black" points="1658.5,-1054.1 1655,-1044.1 1651.5,-1054.1 1658.5,-1054.1"/>
</g>
<!-- freeSchur -->
<g id="node28" class="node"><title>freeSchur</title>
<g id="a_node28"><a xlink:href="Combi.LRrule.freeSchur.html" xlink:title="freeSchur">
<polygon fill="#dbc3b6" stroke="#dbc3b6" points="1698.5,-900 1611.5,-900 1611.5,-864 1698.5,-864 1698.5,-900"/>
<text text-anchor="middle" x="1655" y="-877.6" font-family="Times,serif" font-size="18.00">freeSchur</text>
</a>
</g>
</g>
<!-- freeSchur&#45;&gt;Yam_plact -->
<g id="edge53" class="edge"><title>freeSchur&#45;&gt;Yam_plact</title>
<path fill="none" stroke="black" d="M1655,-863.697C1655,-855.983 1655,-846.712 1655,-838.112"/>
<polygon fill="black" stroke="black" points="1658.5,-838.104 1655,-828.104 1651.5,-838.104 1658.5,-838.104"/>
</g>
<!-- shuffle -->
<g id="node31" class="node"><title>shuffle</title>
<g id="a_node31"><a xlink:href="Combi.LRrule.shuffle.html" xlink:title="shuffle">
<polygon fill="#dbc3b6" stroke="#dbc3b6" points="1840.5,-828 1775.5,-828 1775.5,-792 1840.5,-792 1840.5,-828"/>
<text text-anchor="middle" x="1808" y="-805.6" font-family="Times,serif" font-size="18.00">shuffle</text>
</a>
</g>
</g>
<!-- freeSchur&#45;&gt;shuffle -->
<g id="edge54" class="edge"><title>freeSchur&#45;&gt;shuffle</title>
<path fill="none" stroke="black" d="M1692.43,-863.876C1714.74,-853.666 1743.12,-840.682 1766.17,-830.136"/>
<polygon fill="black" stroke="black" points="1767.73,-833.272 1775.37,-825.929 1764.82,-826.907 1767.73,-833.272"/>
</g>
<!-- Schur_mpoly -->
<g id="node36" class="node"><title>Schur_mpoly</title>
<g id="a_node36"><a xlink:href="Combi.MPoly.Schur_mpoly.html" xlink:title="Schur_mpoly">
<polygon fill="#dbc3b6" stroke="#dbc3b6" points="1389,-684 1275,-684 1275,-648 1389,-648 1389,-684"/>
<text text-anchor="middle" x="1332" y="-661.6" font-family="Times,serif" font-size="18.00">Schur_mpoly</text>
</a>
</g>
</g>
<!-- freeSchur&#45;&gt;Schur_mpoly -->
<g id="edge55" class="edge"><title>freeSchur&#45;&gt;Schur_mpoly</title>
<path fill="none" stroke="black" d="M1627.25,-863.781C1610.82,-853.513 1589.63,-840.15 1571,-828 1496.99,-779.736 1411.34,-721.435 1365.34,-689.919"/>
<polygon fill="black" stroke="black" points="1367.18,-686.938 1356.95,-684.17 1363.22,-692.711 1367.18,-686.938"/>
</g>
<!-- therule -->
<g id="node33" class="node"><title>therule</title>
<g id="a_node33"><a xlink:href="Combi.LRrule.therule.html" xlink:title="therule">
<polygon fill="#dbc3b6" stroke="#dbc3b6" points="1688.5,-972 1621.5,-972 1621.5,-936 1688.5,-936 1688.5,-972"/>
<text text-anchor="middle" x="1655" y="-949.6" font-family="Times,serif" font-size="18.00">therule</text>
</a>
</g>
</g>
<!-- implem&#45;&gt;therule -->
<g id="edge49" class="edge"><title>implem&#45;&gt;therule</title>
<path fill="none" stroke="black" d="M1655,-1007.7C1655,-999.983 1655,-990.712 1655,-982.112"/>
<polygon fill="black" stroke="black" points="1658.5,-982.104 1655,-972.104 1651.5,-982.104 1658.5,-982.104"/>
</g>
<!-- plactic&#45;&gt;congr -->
<g id="edge47" class="edge"><title>plactic&#45;&gt;congr</title>
<path fill="none" stroke="black" d="M1177.44,-512.614C1165.95,-509.753 1152.93,-506.618 1141,-504 1057.74,-485.733 959.549,-467.629 905.922,-458.032"/>
<polygon fill="black" stroke="black" points="906.268,-454.539 895.809,-456.229 905.039,-461.43 906.268,-454.539"/>
</g>
<!-- plactic&#45;&gt;Schensted -->
<g id="edge48" class="edge"><title>plactic&#45;&gt;Schensted</title>
<path fill="none" stroke="black" d="M1189.98,-503.697C1179.87,-494.965 1167.46,-484.24 1156.48,-474.75"/>
<polygon fill="black" stroke="black" points="1158.65,-471.995 1148.79,-468.104 1154.07,-477.291 1158.65,-471.995"/>
</g>
<!-- shuffle&#45;&gt;stdplact -->
<g id="edge44" class="edge"><title>shuffle&#45;&gt;stdplact</title>
<path fill="none" stroke="black" d="M1775.21,-795.003C1750.87,-784.617 1717.37,-770.316 1690.31,-758.765"/>
<polygon fill="black" stroke="black" points="1691.6,-755.512 1681.03,-754.805 1688.85,-761.95 1691.6,-755.512"/>
</g>
<!-- stdplact&#45;&gt;Greene_inv -->
<g id="edge43" class="edge"><title>stdplact&#45;&gt;Greene_inv</title>
<path fill="none" stroke="black" d="M1667.48,-719.697C1679.56,-710.796 1694.45,-699.823 1707.52,-690.199"/>
<polygon fill="black" stroke="black" points="1709.81,-692.854 1715.79,-684.104 1705.66,-687.219 1709.81,-692.854"/>
</g>
<!-- therule&#45;&gt;skewtab -->
<g id="edge41" class="edge"><title>therule&#45;&gt;skewtab</title>
<path fill="none" stroke="black" d="M1621.37,-937.811C1599.59,-927.978 1570.93,-915.035 1546.93,-904.195"/>
<polygon fill="black" stroke="black" points="1548.2,-900.928 1537.65,-900.002 1545.32,-907.307 1548.2,-900.928"/>
</g>
<!-- therule&#45;&gt;freeSchur -->
<g id="edge42" class="edge"><title>therule&#45;&gt;freeSchur</title>
<path fill="none" stroke="black" d="M1655,-935.697C1655,-927.983 1655,-918.712 1655,-910.112"/>
<polygon fill="black" stroke="black" points="1658.5,-910.104 1655,-900.104 1651.5,-910.104 1658.5,-910.104"/>
</g>
<!-- Cauchy -->
<g id="node34" class="node"><title>Cauchy</title>
<g id="a_node34"><a xlink:href="Combi.MPoly.Cauchy.html" xlink:title="Cauchy">
<polygon fill="#dbc3b6" stroke="#dbc3b6" points="1934,-1188 1862,-1188 1862,-1152 1934,-1152 1934,-1188"/>
<text text-anchor="middle" x="1898" y="-1165.6" font-family="Times,serif" font-size="18.00">Cauchy</text>
</a>
</g>
</g>
<!-- sympoly -->
<g id="node39" class="node"><title>sympoly</title>
<g id="a_node39"><a xlink:href="Combi.MPoly.sympoly.html" xlink:title="sympoly">
<polygon fill="#dbc3b6" stroke="#dbc3b6" points="2011,-1116 1933,-1116 1933,-1080 2011,-1080 2011,-1116"/>
<text text-anchor="middle" x="1972" y="-1093.6" font-family="Times,serif" font-size="18.00">sympoly</text>
</a>
</g>
</g>
<!-- Cauchy&#45;&gt;sympoly -->
<g id="edge8" class="edge"><title>Cauchy&#45;&gt;sympoly</title>
<path fill="none" stroke="black" d="M1916.29,-1151.7C1925.43,-1143.05 1936.64,-1132.45 1946.6,-1123.03"/>
<polygon fill="black" stroke="black" points="1949.06,-1125.52 1953.92,-1116.1 1944.25,-1120.43 1949.06,-1125.52"/>
</g>
<!-- Schur_altdef -->
<g id="node35" class="node"><title>Schur_altdef</title>
<g id="a_node35"><a xlink:href="Combi.MPoly.Schur_altdef.html" xlink:title="Schur_altdef">
<polygon fill="#dbc3b6" stroke="#dbc3b6" points="2025,-1044 1915,-1044 1915,-1008 2025,-1008 2025,-1044"/>
<text text-anchor="middle" x="1970" y="-1021.6" font-family="Times,serif" font-size="18.00">Schur_altdef</text>
</a>
</g>
</g>
<!-- Schur_altdef&#45;&gt;therule -->
<g id="edge1" class="edge"><title>Schur_altdef&#45;&gt;therule</title>
<path fill="none" stroke="black" d="M1914.77,-1012.73C1853.31,-999.069 1755.25,-977.277 1698.83,-964.739"/>
<polygon fill="black" stroke="black" points="1699.32,-961.263 1688.8,-962.51 1697.8,-968.096 1699.32,-961.263"/>
</g>
<!-- unitriginv -->
<g id="node46" class="node"><title>unitriginv</title>
<g id="a_node46"><a xlink:href="Combi.SSRcomplements.unitriginv.html" xlink:title="unitriginv">
<polygon fill="#dbc3b6" stroke="#dbc3b6" points="2023.5,-972 1934.5,-972 1934.5,-936 2023.5,-936 2023.5,-972"/>
<text text-anchor="middle" x="1979" y="-949.6" font-family="Times,serif" font-size="18.00">unitriginv</text>
</a>
</g>
</g>
<!-- Schur_altdef&#45;&gt;unitriginv -->
<g id="edge2" class="edge"><title>Schur_altdef&#45;&gt;unitriginv</title>
<path fill="none" stroke="black" d="M1972.22,-1007.7C1973.22,-999.983 1974.41,-990.712 1975.51,-982.112"/>
<polygon fill="black" stroke="black" points="1979,-982.469 1976.8,-972.104 1972.05,-981.576 1979,-982.469"/>
</g>
<!-- Schur_mpoly&#45;&gt;stdtab -->
<g id="edge3" class="edge"><title>Schur_mpoly&#45;&gt;stdtab</title>
<path fill="none" stroke="black" d="M1336.05,-647.622C1341.89,-620.967 1352,-568.311 1352,-523 1352,-523 1352,-523 1352,-449 1352,-408.037 1364.83,-362.018 1374.24,-333.768"/>
<polygon fill="black" stroke="black" points="1377.59,-334.801 1377.52,-324.207 1370.97,-332.528 1377.59,-334.801"/>
</g>
<!-- antisym -->
<g id="node37" class="node"><title>antisym</title>
<g id="a_node37"><a xlink:href="Combi.MPoly.antisym.html" xlink:title="antisym">
<polygon fill="#dbc3b6" stroke="#dbc3b6" points="1142,-612 1068,-612 1068,-576 1142,-576 1142,-612"/>
<text text-anchor="middle" x="1105" y="-589.6" font-family="Times,serif" font-size="18.00">antisym</text>
</a>
</g>
</g>
<!-- Schur_mpoly&#45;&gt;antisym -->
<g id="edge4" class="edge"><title>Schur_mpoly&#45;&gt;antisym</title>
<path fill="none" stroke="black" d="M1276.76,-647.966C1238.61,-636.202 1188.42,-620.724 1152.15,-609.541"/>
<polygon fill="black" stroke="black" points="1152.9,-606.11 1142.32,-606.507 1150.84,-612.799 1152.9,-606.11"/>
</g>
<!-- presentSn -->
<g id="node51" class="node"><title>presentSn</title>
<g id="a_node51"><a xlink:href="Combi.SymGroup.presentSn.html" xlink:title="presentSn">
<polygon fill="#dbc3b6" stroke="#dbc3b6" points="896.5,-540 807.5,-540 807.5,-504 896.5,-504 896.5,-540"/>
<text text-anchor="middle" x="852" y="-517.6" font-family="Times,serif" font-size="18.00">presentSn</text>
</a>
</g>
</g>
<!-- antisym&#45;&gt;presentSn -->
<g id="edge9" class="edge"><title>antisym&#45;&gt;presentSn</title>
<path fill="none" stroke="black" d="M1067.94,-582.746C1025.44,-570.987 955.356,-551.597 906.604,-538.108"/>
<polygon fill="black" stroke="black" points="907.418,-534.702 896.847,-535.408 905.552,-541.448 907.418,-534.702"/>
</g>
<!-- homogsym -->
<g id="node38" class="node"><title>homogsym</title>
<g id="a_node38"><a xlink:href="Combi.MPoly.homogsym.html" xlink:title="homogsym">
<polygon fill="#dbc3b6" stroke="#dbc3b6" points="2104,-1188 2006,-1188 2006,-1152 2104,-1152 2104,-1188"/>
<text text-anchor="middle" x="2055" y="-1165.6" font-family="Times,serif" font-size="18.00">homogsym</text>
</a>
</g>
</g>
<!-- homogsym&#45;&gt;sympoly -->
<g id="edge7" class="edge"><title>homogsym&#45;&gt;sympoly</title>
<path fill="none" stroke="black" d="M2034.48,-1151.7C2024.13,-1142.97 2011.41,-1132.24 2000.16,-1122.75"/>
<polygon fill="black" stroke="black" points="2002.18,-1119.88 1992.28,-1116.1 1997.67,-1125.23 2002.18,-1119.88"/>
</g>
<!-- sympoly&#45;&gt;Schur_altdef -->
<g id="edge5" class="edge"><title>sympoly&#45;&gt;Schur_altdef</title>
<path fill="none" stroke="black" d="M1971.51,-1079.7C1971.29,-1071.98 1971.02,-1062.71 1970.77,-1054.11"/>
<polygon fill="black" stroke="black" points="1974.27,-1054 1970.49,-1044.1 1967.28,-1054.2 1974.27,-1054"/>
</g>
<!-- permcent -->
<g id="node50" class="node"><title>permcent</title>
<g id="a_node50"><a xlink:href="Combi.SymGroup.permcent.html" xlink:title="permcent">
<polygon fill="#dbc3b6" stroke="#dbc3b6" points="2181,-1044 2097,-1044 2097,-1008 2181,-1008 2181,-1044"/>
<text text-anchor="middle" x="2139" y="-1021.6" font-family="Times,serif" font-size="18.00">permcent</text>
</a>
</g>
</g>
<!-- sympoly&#45;&gt;permcent -->
<g id="edge6" class="edge"><title>sympoly&#45;&gt;permcent</title>
<path fill="none" stroke="black" d="M2011.15,-1080.59C2034.41,-1070.84 2064.12,-1058.39 2089.05,-1047.94"/>
<polygon fill="black" stroke="black" points="2090.48,-1051.13 2098.35,-1044.04 2087.77,-1044.68 2090.48,-1051.13"/>
</g>
<!-- ordcast&#45;&gt;tools -->
<g id="edge39" class="edge"><title>ordcast&#45;&gt;tools</title>
<path fill="none" stroke="black" d="M2286.8,-503.951C2286.51,-477.292 2286,-424.116 2286,-379 2286,-379 2286,-379 2286,-161 2286,-67.7082 1554.99,-28.6166 1380.21,-20.6032"/>
<polygon fill="black" stroke="black" points="1380.35,-17.1062 1370.21,-20.1508 1380.04,-24.099 1380.35,-17.1062"/>
</g>
<!-- sorted&#45;&gt;tools -->
<g id="edge38" class="edge"><title>sorted&#45;&gt;tools</title>
<path fill="none" stroke="black" d="M1287.29,-71.6966C1296.43,-63.0503 1307.64,-52.4486 1317.6,-43.027"/>
<polygon fill="black" stroke="black" points="1320.06,-45.519 1324.92,-36.1043 1315.25,-40.4337 1320.06,-45.519"/>
</g>
<!-- unitriginv&#45;&gt;ordtype -->
<g id="edge37" class="edge"><title>unitriginv&#45;&gt;ordtype</title>
<path fill="none" stroke="black" d="M1982.44,-935.592C1987.41,-908.896 1996,-856.188 1996,-811 1996,-811 1996,-811 1996,-593 1996,-478.361 2140,-493.639 2140,-379 2140,-379 2140,-379 2140,-233 2140,-159.503 1895.72,-113.936 1790.39,-97.7052"/>
<polygon fill="black" stroke="black" points="1790.76,-94.2209 1780.35,-96.1815 1789.71,-101.142 1790.76,-94.2209"/>
</g>
<!-- Frobenius_char -->
<g id="node47" class="node"><title>Frobenius_char</title>
<g id="a_node47"><a xlink:href="Combi.SymGroup.Frobenius_char.html" xlink:title="Frobenius_char">
<polygon fill="#dbc3b6" stroke="#dbc3b6" points="2199.5,-1260 2068.5,-1260 2068.5,-1224 2199.5,-1224 2199.5,-1260"/>
<text text-anchor="middle" x="2134" y="-1237.6" font-family="Times,serif" font-size="18.00">Frobenius_char</text>
</a>
</g>
</g>
<!-- Frobenius_char&#45;&gt;homogsym -->
<g id="edge16" class="edge"><title>Frobenius_char&#45;&gt;homogsym</title>
<path fill="none" stroke="black" d="M2114.47,-1223.7C2104.62,-1214.97 2092.51,-1204.24 2081.8,-1194.75"/>
<polygon fill="black" stroke="black" points="2084.11,-1192.12 2074.3,-1188.1 2079.47,-1197.36 2084.11,-1192.12"/>
</g>
<!-- towerSn -->
<g id="node54" class="node"><title>towerSn</title>
<g id="a_node54"><a xlink:href="Combi.SymGroup.towerSn.html" xlink:title="towerSn">
<polygon fill="#dbc3b6" stroke="#dbc3b6" points="2252.5,-1116 2173.5,-1116 2173.5,-1080 2252.5,-1080 2252.5,-1116"/>
<text text-anchor="middle" x="2213" y="-1093.6" font-family="Times,serif" font-size="18.00">towerSn</text>
</a>
</g>
</g>
<!-- Frobenius_char&#45;&gt;towerSn -->
<g id="edge17" class="edge"><title>Frobenius_char&#45;&gt;towerSn</title>
<path fill="none" stroke="black" d="M2143.53,-1223.87C2157.17,-1199.35 2182.38,-1154.03 2198.39,-1125.26"/>
<polygon fill="black" stroke="black" points="2201.63,-1126.63 2203.44,-1116.19 2195.52,-1123.23 2201.63,-1126.63"/>
</g>
<!-- cycles -->
<g id="node48" class="node"><title>cycles</title>
<g id="a_node48"><a xlink:href="Combi.SymGroup.cycles.html" xlink:title="cycles">
<polygon fill="#dbc3b6" stroke="#dbc3b6" points="1735,-252 1673,-252 1673,-216 1735,-216 1735,-252"/>
<text text-anchor="middle" x="1704" y="-229.6" font-family="Times,serif" font-size="18.00">cycles</text>
</a>
</g>
</g>
<!-- cycles&#45;&gt;partition -->
<g id="edge20" class="edge"><title>cycles&#45;&gt;partition</title>
<path fill="none" stroke="black" d="M1673,-225.057C1661.68,-222.177 1648.76,-218.916 1637,-216 1579.23,-201.681 1512.77,-185.661 1468.36,-175.02"/>
<polygon fill="black" stroke="black" points="1468.94,-171.56 1458.4,-172.635 1467.31,-178.367 1468.94,-171.56"/>
</g>
<!-- cycles&#45;&gt;permcomp -->
<g id="edge21" class="edge"><title>cycles&#45;&gt;permcomp</title>
<path fill="none" stroke="black" d="M1681.01,-215.697C1669.19,-206.796 1654.61,-195.823 1641.82,-186.199"/>
<polygon fill="black" stroke="black" points="1643.82,-183.322 1633.72,-180.104 1639.61,-188.915 1643.82,-183.322"/>
</g>
<!-- cycletype&#45;&gt;fibered_set -->
<g id="edge18" class="edge"><title>cycletype&#45;&gt;fibered_set</title>
<path fill="none" stroke="black" d="M1877,-287.876C1895.6,-278.512 1918.83,-266.814 1938.71,-256.803"/>
<polygon fill="black" stroke="black" points="1940.51,-259.814 1947.87,-252.19 1937.36,-253.562 1940.51,-259.814"/>
</g>
<!-- cycletype&#45;&gt;cycles -->
<g id="edge19" class="edge"><title>cycletype&#45;&gt;cycles</title>
<path fill="none" stroke="black" d="M1809,-287.876C1789.48,-278.048 1764.86,-265.65 1744.37,-255.329"/>
<polygon fill="black" stroke="black" points="1745.78,-252.122 1735.28,-250.75 1742.63,-258.374 1745.78,-252.122"/>
</g>
<!-- permcent&#45;&gt;cycletype -->
<g id="edge15" class="edge"><title>permcent&#45;&gt;cycletype</title>
<path fill="none" stroke="black" d="M2139.59,-1007.95C2140.47,-981.297 2142,-928.125 2142,-883 2142,-883 2142,-883 2142,-593 2142,-457.986 1980.83,-367.059 1895.14,-328.261"/>
<polygon fill="black" stroke="black" points="1896.4,-324.988 1885.84,-324.117 1893.55,-331.382 1896.4,-324.988"/>
</g>
<!-- presentSn&#45;&gt;congr -->
<g id="edge14" class="edge"><title>presentSn&#45;&gt;congr</title>
<path fill="none" stroke="black" d="M855.461,-503.697C857.003,-495.983 858.858,-486.712 860.578,-478.112"/>
<polygon fill="black" stroke="black" points="864.05,-478.597 862.579,-468.104 857.186,-477.224 864.05,-478.597"/>
</g>
<!-- reprS2 -->
<g id="node52" class="node"><title>reprS2</title>
<g id="a_node52"><a xlink:href="Combi.SymGroup.reprS2.html" xlink:title="reprS2">
<polygon fill="#dbc3b6" stroke="#dbc3b6" points="884.5,-684 819.5,-684 819.5,-648 884.5,-648 884.5,-684"/>
<text text-anchor="middle" x="852" y="-661.6" font-family="Times,serif" font-size="18.00">reprS2</text>
</a>
</g>
</g>
<!-- reprdim1 -->
<g id="node53" class="node"><title>reprdim1</title>
<g id="a_node53"><a xlink:href="Combi.SymGroup.reprdim1.html" xlink:title="reprdim1">
<polygon fill="#dbc3b6" stroke="#dbc3b6" points="893.5,-612 810.5,-612 810.5,-576 893.5,-576 893.5,-612"/>
<text text-anchor="middle" x="852" y="-589.6" font-family="Times,serif" font-size="18.00">reprdim1</text>
</a>
</g>
</g>
<!-- reprS2&#45;&gt;reprdim1 -->
<g id="edge12" class="edge"><title>reprS2&#45;&gt;reprdim1</title>
<path fill="none" stroke="black" d="M852,-647.697C852,-639.983 852,-630.712 852,-622.112"/>
<polygon fill="black" stroke="black" points="855.5,-622.104 852,-612.104 848.5,-622.104 855.5,-622.104"/>
</g>
<!-- reprdim1&#45;&gt;presentSn -->
<g id="edge13" class="edge"><title>reprdim1&#45;&gt;presentSn</title>
<path fill="none" stroke="black" d="M852,-575.697C852,-567.983 852,-558.712 852,-550.112"/>
<polygon fill="black" stroke="black" points="855.5,-550.104 852,-540.104 848.5,-550.104 855.5,-550.104"/>
</g>
<!-- towerSn&#45;&gt;ordcast -->
<g id="edge10" class="edge"><title>towerSn&#45;&gt;ordcast</title>
<path fill="none" stroke="black" d="M2229.71,-1079.81C2252.35,-1054.62 2290,-1005.2 2290,-955 2290,-955 2290,-955 2290,-665 2290,-624.987 2288.79,-578.646 2287.91,-550.076"/>
<polygon fill="black" stroke="black" points="2291.41,-549.93 2287.59,-540.047 2284.41,-550.153 2291.41,-549.93"/>
</g>
<!-- towerSn&#45;&gt;permcent -->
<g id="edge11" class="edge"><title>towerSn&#45;&gt;permcent</title>
<path fill="none" stroke="black" d="M2194.71,-1079.7C2185.57,-1071.05 2174.36,-1060.45 2164.4,-1051.03"/>
<polygon fill="black" stroke="black" points="2166.75,-1048.43 2157.08,-1044.1 2161.94,-1053.52 2166.75,-1048.43"/>
</g>
</g>
</svg>
